<svg width="418" height="391" viewBox="0 0 418 391" fill="none" xmlns="http://www.w3.org/2000/svg">
<path d="M417.608 110.923L346.013 133.286L344.104 194.115L271.076 224.977V290.725L193.753 321.587L197.094 390.019L415.699 293.409L417.608 110.923Z" fill="#70EEFF"/>
<path d="M160.819 139.548L88.7461 168.621L271.553 224.977L311.169 209.322L344.581 195.904L160.819 139.548Z" fill="#07C5DF"/>
<path d="M86.3604 226.318L13.333 260.758L192.799 324.27L272.031 289.607L270.6 285.358L86.3604 226.318Z" fill="#03A7B1"/>
<path d="M346.046 134.286L163.716 86.4277L162.284 143.678L343.659 196.903L346.046 134.286Z" fill="#69FFC9" fill-opacity="0.6"/>
<path d="M271.438 224.933L87.8711 168.796L87.8711 226.722L271.438 286.253L271.438 224.933Z" fill="#69FFC9" fill-opacity="0.6"/>
<path d="M193.33 323.444L12.5693 261.6L12.5693 325.233L198.58 389.125L193.33 323.444Z" fill="#69FFC9" fill-opacity="0.6"/>
<path d="M235.757 65.7485L163.717 86.4273L345.537 133.733L417.642 110.803L235.757 65.7485Z" fill="#46DDE6"/>
<path d="M192.765 49.5376L156.446 33.1953L134.763 42.3879L129.885 63.3265L120.669 85.2864L117.417 120.525H129.885L141.81 81.7116H145.063V92.4362L141.81 127.674L149.399 135.845L145.063 187.426L134.763 243.603H151.026L161.867 209.386L174.335 169.551L184.092 133.803L187.344 178.744L207.401 177.212V120.525L189.513 110.821V87.8399H192.765L207.401 99.0753H214.448V85.2864L196.56 63.3265L192.765 49.5376Z" fill="white"/>
<path d="M171.083 20.4279H157.531V4.59628L162.952 0H171.083H179.756L186.261 4.59628V9.19255H179.756V17.8744H174.336V14.2995H171.083V20.4279Z" fill="white"/>
<path d="M184.634 36.2596H172.708L159.698 28.5991V22.4707H175.418V18.8959H180.839V11.7461H184.634V36.2596Z" fill="white"/>
<path d="M145.956 246.521H134.541L130.39 255.273H142.843L151.145 266.456H157.372V262.08L145.956 246.521Z" fill="white"/>
<path d="M141.286 255.759H131.946L141.286 267.915H146.475L154.258 265.483H151.145L141.286 255.759Z" fill="white"/>
<path d="M213.93 184.769L187.986 194.979V199.842L210.298 190.117L213.93 184.769Z" fill="white"/>
<path d="M206.666 179.906L186.948 182.337V194.979H189.543L216.525 182.337L206.666 179.906Z" fill="white"/>
</svg>
