<svg width="88" height="92" viewBox="0 0 88 92" fill="none" xmlns="http://www.w3.org/2000/svg">
<path d="M15.9879 32.8483C9.58891 44.428 13.6209 61.0799 24.6669 69.4912C30.4369 73.8849 17.0998 80.0013 11.7767 75.0756C3.99396 67.874 -1.05529 51.8577 0.798025 38.5825C4.48868 12.1467 34.3309 -1.02449 49.3235 2.91572C62.3254 6.33272 64.9409 1.77656 65.4062 0.379557C65.465 0.152107 65.4941 0.0195025 65.4979 0.00198945L65.4983 0C65.4983 0.0258111 65.4775 0.165651 65.4062 0.379557C64.8274 2.61773 61.3626 14.0399 50.6059 15.354C38.6722 16.8119 26.8368 13.2158 15.9879 32.8483Z" fill="white"/>
<path d="M71.2974 58.4719C77.9005 47.0039 74.1641 30.2852 63.2687 21.6853C57.5774 17.193 71.0208 11.307 76.2558 16.3234C83.9098 23.6579 88.6747 39.7585 86.5865 52.9997C82.4282 79.3681 52.3573 92.024 37.4367 87.8266C24.4974 84.1865 21.8016 88.697 21.3116 90.0858C21.2487 90.3122 21.2174 90.4442 21.2132 90.4617L21.2128 90.4637C21.2132 90.4379 21.2365 90.2984 21.3116 90.0858C21.9299 87.8579 25.5965 76.497 36.3749 75.3681C48.3325 74.1157 60.1024 77.9148 71.2974 58.4719Z" fill="white"/>
<g filter="url(#filter0_d_451_408)">
<ellipse cx="43.7984" cy="45.4832" rx="22.5855" ry="22.2566" fill="white"/>
</g>
<defs>
<filter id="filter0_d_451_408" x="17.2129" y="23.2266" width="53.1709" height="52.5132" filterUnits="userSpaceOnUse" color-interpolation-filters="sRGB">
<feFlood flood-opacity="0" result="BackgroundImageFix"/>
<feColorMatrix in="SourceAlpha" type="matrix" values="0 0 0 0 0 0 0 0 0 0 0 0 0 0 0 0 0 0 127 0" result="hardAlpha"/>
<feOffset dy="4"/>
<feGaussianBlur stdDeviation="2"/>
<feComposite in2="hardAlpha" operator="out"/>
<feColorMatrix type="matrix" values="0 0 0 0 0 0 0 0 0 0 0 0 0 0 0 0 0 0 0.25 0"/>
<feBlend mode="normal" in2="BackgroundImageFix" result="effect1_dropShadow_451_408"/>
<feBlend mode="normal" in="SourceGraphic" in2="effect1_dropShadow_451_408" result="shape"/>
</filter>
</defs>
</svg>
