<svg width="272" height="204" viewBox="0 0 272 204" fill="none" xmlns="http://www.w3.org/2000/svg">
<path d="M266.847 67.3625C268.919 65.7156 272 67.2562 272 69.8594V178.5C272 192.578 260.578 204 246.5 204H25.5C11.4219 204 0 192.578 0 178.5V69.9125C0 67.2563 3.02813 65.7687 5.15313 67.4156C17.0531 76.6594 32.8313 88.4 87.0188 127.766C98.2281 135.947 117.141 153.159 136 153.053C154.966 153.213 174.25 135.628 185.034 127.766C239.222 88.4 254.947 76.6063 266.847 67.3625ZM136 136C148.325 136.212 166.069 120.488 174.994 114.006C245.491 62.8469 250.856 58.3844 267.113 45.6344C270.194 43.2437 272 39.525 272 35.5938V25.5C272 11.4219 260.578 0 246.5 0H25.5C11.4219 0 0 11.4219 0 25.5V35.5938C0 39.525 1.80625 43.1906 4.8875 45.6344C21.1438 58.3312 26.5094 62.8469 97.0063 114.006C105.931 120.488 123.675 136.212 136 136Z" fill="#52CAC8"/>
</svg>
