<svg width="905" height="690" viewBox="0 0 905 690" fill="none" xmlns="http://www.w3.org/2000/svg">
<path d="M638.186 500.23C658.762 477.747 656.23 471.126 636.127 452.727L521.047 347.406L578.061 285.109L693.141 390.43C750.179 442.632 754.615 493.17 698.029 554.999L505.553 765.309C448.967 827.137 398.235 827.186 341.197 774.985L7.92437 469.973L64.9385 407.677L398.211 712.688C418.314 731.087 425.133 733.023 445.71 710.54L638.186 500.23Z" fill="black" fill-opacity="0.01"/>
<path d="M492.61 599.386L435.595 661.682L106.457 360.455L301.363 147.49C357.949 85.6614 423.333 81.8074 478.968 132.725L495.799 148.129C553.305 200.758 569.04 246.46 508.167 312.972L451.391 375.009L392.015 320.669L448.792 258.631C473.655 231.464 461.187 230.068 439.214 209.957L421.915 194.126C402.747 176.583 381.315 179.348 360.739 201.831L222.847 352.499L492.61 599.386Z" fill="black" fill-opacity="0.01"/>
<path d="M381.569 333.612L579.422 514.686L522.408 576.983L324.555 395.908L381.569 333.612Z" fill="black" fill-opacity="0.01"/>
<path d="M330.283 286.675L359.869 313.751L302.855 376.048L273.269 348.972L330.283 286.675Z" fill="black" fill-opacity="0.01"/>
<path d="M519.203 345.718L517.515 347.563L519.359 349.251L634.439 454.571C639.459 459.166 643.244 462.903 645.843 466.276C648.428 469.63 649.689 472.435 649.92 475.158C650.15 477.866 649.392 480.863 647.205 484.663C645.002 488.491 641.452 492.958 636.342 498.542L443.865 708.853C438.755 714.436 434.619 718.368 431.001 720.9C427.409 723.414 424.491 724.434 421.773 724.445C419.04 724.455 416.135 723.447 412.565 721.169C408.976 718.878 404.918 715.438 399.899 710.843L66.6263 405.832L64.7821 404.145L63.0943 405.989L6.08013 468.286L4.39229 470.13L6.23652 471.818L339.509 776.829C368.258 803.14 395.824 816.664 423.657 815.405C451.487 814.147 478.893 798.142 507.397 766.997L699.873 556.686C728.377 525.542 741.898 496.828 740.692 468.996C739.485 441.16 723.578 414.897 694.829 388.586L579.749 283.265L577.905 281.577L576.217 283.422L519.203 345.718ZM494.454 601.073L496.142 599.229L494.297 597.541L226.379 352.342L362.583 203.518C372.644 192.525 382.643 186.656 392.169 185.449C401.607 184.252 411.053 187.574 420.227 195.97L437.526 211.802C441.034 215.012 444.39 217.825 447.324 220.283C448.977 221.668 450.495 222.94 451.831 224.109C455.71 227.499 458.148 230.088 459.278 232.655C460.304 234.984 460.361 237.569 458.608 241.339C456.793 245.24 453.13 250.188 446.947 256.944L390.171 318.981L388.483 320.825L390.327 322.513L449.703 376.854L451.547 378.542L453.235 376.697L510.012 314.66C540.673 281.158 552.507 252.39 548.853 225.014C545.217 197.777 526.329 172.681 497.487 146.285L480.656 130.881C452.447 105.064 421.539 92.9437 390.331 95.335C359.152 97.724 328.108 114.564 299.519 145.802L104.613 358.767L102.925 360.611L104.769 362.299L433.908 663.527L435.752 665.214L437.44 663.37L494.454 601.073ZM383.257 331.767L381.413 330.079L379.725 331.924L322.711 394.22L321.023 396.065L322.867 397.753L520.72 578.827L522.564 580.515L524.252 578.671L581.266 516.374L582.954 514.53L581.11 512.842L383.257 331.767ZM331.971 284.831L330.127 283.143L328.439 284.987L271.425 347.284L269.737 349.128L271.581 350.816L301.167 377.892L303.011 379.58L304.699 377.736L361.713 315.439L363.401 313.595L361.557 311.907L331.971 284.831Z" stroke="#448CFF" stroke-opacity="0.58" stroke-width="5"/>
<path d="M907.922 169.428C868.422 113.255 810.192 125.887 777.026 142.035C738.494 160.795 678.878 253.255 578.958 279.068C479.038 304.883 395.815 396.935 428.697 498.477C458.57 590.724 547.296 601.06 598.015 617.282H907.922V169.428Z" fill="#EDEBEB"/>
<path d="M510.626 308.741H907.921V307.401H512.738C512.029 307.841 511.331 308.294 510.626 308.741Z" fill="#CBC8C7"/>
<path d="M720.797 250.619L721.469 250.621V189.015C721.025 189.437 720.577 189.86 720.129 190.284V249.276L647.337 248.965C646.622 249.411 645.904 249.854 645.185 250.296L720.797 250.619Z" fill="#CBC8C7"/>
<path d="M803.458 293.847C785.925 293.847 771.662 279.583 771.662 262.05C771.662 244.518 785.926 230.253 803.458 230.253C820.991 230.253 835.255 244.518 835.255 262.05C835.255 279.582 820.992 293.847 803.458 293.847ZM803.458 231.592C786.664 231.592 773.002 245.255 773.002 262.049C773.002 278.843 786.664 292.506 803.458 292.506C820.253 292.506 833.915 278.843 833.915 262.049C833.915 245.255 820.253 231.592 803.458 231.592Z" fill="#CBC8C7"/>
<path d="M907.707 292.734H720.624V294.074H907.707V292.734Z" fill="#CBC8C7"/>
<path d="M861.764 294.004H845.037V224.272H861.764V294.004ZM846.377 292.664H860.424V225.612H846.377V292.664Z" fill="#CBC8C7"/>
<path d="M879.959 294.004H863.232V224.272H879.959V294.004ZM864.571 292.664H878.618V225.612H864.571V292.664Z" fill="#CBC8C7"/>
<path d="M889.948 293.784L878.999 229.458L895.491 226.652L906.44 290.978L889.948 293.784ZM880.545 230.554L891.044 292.238L904.893 289.881L894.394 228.197L880.545 230.554Z" fill="#CBC8C7"/>
<path d="M475.102 539.345L488.115 538.604C492.048 531.874 495.265 524.702 497.547 517.905L486.077 516.117L498.506 514.891C500.391 508.6 501.408 502.76 501.38 498.047L490.608 498.476L501.326 496.351C500.928 490.282 498.51 486.51 493.588 486.823C492.394 486.9 491.262 487.129 490.163 487.438L491.948 491.956L488.557 487.98C469.143 495.681 464.977 539.567 464.09 557.224C465.583 558.705 467.097 560.149 468.637 561.546C475.246 556.716 481.25 549.604 486.262 541.657L475.102 539.345Z" fill="#679C93"/>
<path d="M457.058 538.977C457.058 538.977 457.802 510.206 454.985 482.251L444.573 497.85L454.357 476.541C453.068 465.793 451.197 455.479 448.497 447.313L438.348 454.255L446.168 441.294C443.2 434.812 439.44 430.633 434.677 430.199C429.526 429.728 426.557 433.577 425.222 440.178L432.988 442.865H424.784C423.923 449.688 424.436 458.752 425.878 468.772L440.58 474.458H426.775C428.323 483.481 430.515 493.05 433.056 502.318L444.572 507.408L434.015 505.747C436.068 512.929 438.311 519.861 440.604 526.132C445.885 535.665 451.939 544.035 458.57 551.427L457.058 538.977Z" fill="#679C93"/>
<path d="M705.421 382.956L685.291 599.362L646.467 600.956L635.817 384.498L705.421 382.956Z" fill="#7F7767"/>
<path d="M676.413 599.726C676.413 599.726 692.444 604.67 697.971 608.02C703.499 611.37 702.326 620.75 675.694 615.725C649.061 610.7 657.959 599.726 657.959 599.726H676.413Z" fill="#191931"/>
<path d="M538.984 489.869L508.638 607.346L511.231 608.016L541.577 490.539L538.984 489.869Z" fill="#191931"/>
<path d="M812.086 489.629L809.508 490.364L843.059 608.079L845.637 607.344L812.086 489.629Z" fill="#191931"/>
<path d="M507.421 389.734C507.421 389.734 495.24 388.135 488.552 402.887C483.234 414.619 478.405 494.118 565.953 493.448L568.52 480.718L507.421 389.734Z" fill="#6C93FB"/>
<path d="M566.406 491.204C557.365 489.44 523.893 486.745 506.371 461.624C489.043 436.781 498.575 398.931 498.575 398.931L504.445 389.807C500.407 390.311 493.171 392.699 488.552 402.887C483.267 414.545 478.482 493.109 564.33 493.437C565.086 492.629 565.78 491.882 566.406 491.204Z" fill="#4678E7"/>
<path d="M839.75 389.734C839.75 389.734 851.931 388.135 858.619 402.887C863.937 414.619 868.765 494.118 781.218 493.448L778.65 480.718L839.75 389.734Z" fill="#6C93FB"/>
<path d="M780.765 491.204C789.806 489.44 823.277 486.745 840.799 461.624C858.128 436.781 848.595 398.931 848.595 398.931L842.726 389.807C846.764 390.311 854 392.699 858.619 402.887C863.904 414.545 868.689 493.109 782.84 493.437C782.085 492.629 781.39 491.882 780.765 491.204Z" fill="#4678E7"/>
<path d="M636.666 218.415L616.985 219.591C616.985 219.591 595.46 218.904 591.578 244.074C587.696 269.245 579.748 364.038 579.748 364.038C579.748 364.038 577.939 382.977 591.343 384.001C604.747 385.025 701.767 382.954 701.767 382.954C701.767 382.954 716.159 383.393 713.715 365.793C711.82 352.151 700.315 241.219 700.315 241.219C700.315 241.219 697.434 216.536 669.585 216.669L636.666 218.415Z" fill="#679C93"/>
<path d="M635.754 231.425C635.754 231.425 641.119 236.616 653.745 235.722C666.37 234.828 672.916 223.681 672.959 219.433C672.968 218.482 672.891 217.597 672.777 216.78C671.746 216.71 670.692 216.662 669.583 216.667L636.666 218.413L625.727 219.067L635.754 231.425Z" fill="#7F7767"/>
<path d="M659.903 170.141C659.903 170.141 662.109 166.484 665.459 168.242C669.385 170.303 667.943 177.846 659.903 177.176V170.141Z" fill="#CF9B89"/>
<path d="M631.443 218.727C631.443 218.727 632.02 230.938 649.406 231.8C663.482 232.497 670.138 222.228 669.583 216.67L631.443 218.727Z" fill="#EABFAD"/>
<path d="M634.726 197.969C634.726 197.969 635.184 216.939 631.443 218.727L639.788 221.482L669.583 216.669L661.764 197.248L638.448 192.894L634.726 197.969Z" fill="#EABFAD"/>
<path d="M692.115 224.94C692.115 224.94 719.696 264.31 749.486 287.209L736.944 320.701C736.944 320.701 717.236 312.007 701.072 298.488L692.115 224.94Z" fill="#553B8A"/>
<path d="M701.071 298.488C705.762 302.411 710.751 305.926 715.472 308.942C710.74 290.273 711.102 251.565 702.467 238.673C699.661 234.484 697.179 231.833 697.179 231.833L692.505 228.147L701.071 298.488Z" fill="#463374"/>
<path d="M643.42 384.012C644.855 354.144 647.182 268.131 641.116 248.2C635.39 229.388 632.323 222.826 632.698 218.652L616.985 219.591C616.985 219.591 595.46 218.904 591.578 244.074C587.696 269.245 579.748 364.038 579.748 364.038C579.748 364.038 577.939 382.977 591.343 384.001C596.942 384.428 621.808 384.288 643.42 384.012Z" fill="#553B8A"/>
<path d="M610.686 362.266C599.978 369.005 581.827 366.844 573.71 351.502C562.362 364.527 558.607 377.179 584.854 378.543C640.687 381.447 645.075 308.07 645.075 308.07L645.079 304.881C635.583 332.431 620.653 355.994 610.686 362.266Z" fill="#463374"/>
<path d="M714.661 436.781C714.661 436.781 696.501 447.327 696.846 480.717C697.19 514.107 696.84 602.995 696.84 602.995H738.73L743.196 500.482L763.296 431.946L714.661 436.781Z" fill="#2B1E45"/>
<path d="M763.296 431.946L747.735 433.493L727.801 445.094C727.801 445.094 717.853 459.147 717.904 476.858C717.954 494.569 735.156 531.752 735.156 531.752L733.825 602.996H738.73L743.196 500.483L763.296 431.946Z" fill="#1E162E"/>
<path d="M594.886 233.397C594.886 233.397 571.676 294.699 569.666 329.42C567.656 364.141 596.095 371.449 610.686 362.267C625.276 353.086 650.512 306.856 653.744 265.3L638.069 261.631C638.069 261.631 630.217 288.096 607.634 318.916C607.634 318.916 625.913 233.862 594.886 233.397Z" fill="#553B8A"/>
<path d="M611.021 220.757C616.596 245.86 616.152 271.582 609.722 296.48C609.613 296.898 610.26 297.077 610.368 296.658C616.822 271.67 617.262 245.773 611.667 220.579C611.574 220.158 610.928 220.336 611.021 220.757Z" fill="#372723"/>
<path d="M609.231 316.275C618.541 297.969 629.425 280.525 638.735 262.218C638.931 261.835 638.352 261.494 638.156 261.88C628.846 280.186 617.963 297.63 608.652 315.937C608.458 316.32 609.035 316.661 609.231 316.275Z" fill="#372723"/>
<path d="M653.41 265.298C651.442 280.253 647.724 294.719 642.318 308.797C637.078 322.447 631.432 337.164 623.046 349.247C614.048 362.211 596.299 373.7 580.838 363.851C564.289 353.311 565.635 331.346 568.428 314.55C568.498 314.128 567.853 313.947 567.782 314.372C565.173 330.061 563.73 348.376 575.897 360.692C586.438 371.361 602.404 369.361 613.524 360.661C626.829 350.25 633.265 332.411 639.583 317.359C646.633 300.566 651.702 283.379 654.08 265.298C654.134 264.872 653.464 264.876 653.41 265.298Z" fill="#372723"/>
<path d="M627.621 430.199C627.621 430.199 661.48 443.534 665.597 492.203C667.872 519.092 666.592 607.684 666.592 607.684H623.489C623.489 607.684 622.746 514.219 612.117 493.114C601.489 472.009 552.138 430.199 552.138 430.199H627.621Z" fill="#5E5B42"/>
<path d="M618.214 518.718C624.385 507.932 631.842 480.752 628.404 467.315C624.83 453.353 613.685 445.126 613.685 445.126L612.598 430.198H557.735C559.258 432.966 561.046 436.195 563.028 439.748C578.194 453.355 604.667 478.316 612.119 493.113C614.684 498.209 616.672 507.525 618.214 518.718Z" fill="#4C4936"/>
<path d="M713.714 365.794C711.819 352.152 700.314 241.22 700.314 241.22C700.314 241.22 697.433 216.537 669.583 216.67C670.232 221.167 670.828 231.974 668.707 243.206C665.924 257.946 675.304 365.37 684.46 380.556C685.123 381.657 685.95 382.535 686.885 383.255C695.91 383.082 701.767 382.957 701.767 382.957C701.767 382.957 716.158 383.394 713.714 365.794Z" fill="#553B8A"/>
<path d="M526.833 425.345C492.337 425.345 495.304 400.542 495.304 400.542C495.304 400.542 499.911 356.325 505.914 317.979C511.917 279.634 541.368 276.705 541.368 276.705H568.239H602.787C602.787 276.705 629.658 276.705 631.194 308.089C632.531 335.434 636.568 403.758 636.568 403.758C636.568 403.758 638.872 425.345 621.213 425.345H526.833Z" fill="#EAAC29"/>
<path d="M824.274 425.345C860.844 425.345 857.698 399.052 857.698 399.052C857.698 399.052 852.815 352.177 846.45 311.527C840.085 270.877 808.864 267.772 808.864 267.772H780.38H743.755C743.755 267.772 715.269 267.772 713.641 301.041C712.223 330.031 707.943 402.461 707.943 402.461C707.943 402.461 705.502 425.345 724.22 425.345H824.274Z" fill="#7F7767"/>
<path d="M553.419 276.705C553.419 276.705 560.234 302.165 583.178 301.398C607.27 300.593 592.105 276.705 592.105 276.705H553.419Z" fill="#EABFAD"/>
<path d="M586.238 219.434H556.37V258.625H586.238V219.434Z" fill="#EABFAD"/>
<path d="M586.238 219.434C586.238 219.434 599.44 257.742 586.238 258.625C573.036 259.508 566.509 249.682 566.509 249.682L586.238 219.434Z" fill="#EABFAD"/>
<path d="M661.596 195.708L634.726 197.969L633.86 160.906H663.729L661.596 195.708Z" fill="#EABFAD"/>
<path d="M663.729 160.906C663.729 160.906 673.668 197.13 660.465 198.013C647.263 198.896 640.736 189.07 640.736 189.07L663.729 160.906Z" fill="#EABFAD"/>
<path d="M758.156 249.926L788.024 249.926L788.024 210.735L758.156 210.735L758.156 249.926Z" fill="#EABFAD"/>
<path d="M758.156 210.735C758.156 210.735 744.954 249.043 758.156 249.926C771.358 250.809 777.885 240.983 777.885 240.983L758.156 210.735Z" fill="#EABFAD"/>
<path d="M502.981 336.996C503.412 336.996 503.412 336.326 502.981 336.326C502.549 336.326 502.548 336.996 502.981 336.996Z" fill="#372723"/>
<path d="M567.321 498.809C567.753 498.809 567.753 498.139 567.321 498.139C566.89 498.139 566.89 498.809 567.321 498.809Z" fill="#372723"/>
<path d="M567.038 498.477C565.44 531.641 563.841 564.803 562.241 597.967C562.22 598.398 562.891 598.397 562.911 597.967C564.51 564.803 566.108 531.641 567.708 498.477C567.729 498.046 567.059 498.047 567.038 498.477Z" fill="#372723"/>
<path d="M571.679 437.07C594.49 450.657 611.182 472.394 618.421 497.94C618.539 498.354 619.185 498.178 619.067 497.762C611.783 472.055 594.972 450.165 572.018 436.491C571.646 436.27 571.308 436.849 571.679 437.07Z" fill="#372723"/>
<path d="M564.971 598.603C577.68 598.979 591.277 600.69 603.925 599.461C604.35 599.419 604.355 598.749 603.925 598.791C591.275 600.02 577.68 598.309 564.971 597.933C564.54 597.92 564.541 598.59 564.971 598.603Z" fill="#372723"/>
<path d="M611.25 418.174C603.418 415.312 535.916 398.007 535.916 398.007L539.122 372.096L499.187 366.825C496.797 386.224 495.304 400.542 495.304 400.542C495.304 400.542 492.337 425.345 526.833 425.345H616.027C616.605 423.439 616.739 420.18 611.25 418.174Z" fill="#EABFAD"/>
<path d="M638.34 364.856C638.34 364.856 641.449 409.03 639.979 415.73C638.509 422.43 628.722 426.25 616.028 425.345L549.399 425.477V421.76C549.399 421.76 574.494 403.509 609.014 402.332C609.014 402.332 615.813 374.817 616.301 367.936C616.301 367.936 624.937 365.993 638.34 364.856Z" fill="#EABFAD"/>
<path d="M631.506 314.286C631.506 314.286 637.023 351.511 644.131 362.18C644.131 362.18 635.689 368.159 616.301 367.936" fill="#EAAC29"/>
<path d="M776.702 497.607C782.923 530.259 789.923 562.753 797.7 595.071C797.8 595.49 798.447 595.312 798.345 594.893C790.569 562.576 783.569 530.082 777.348 497.429C777.267 497.007 776.621 497.185 776.702 497.607Z" fill="#372723"/>
<path d="M752.386 267.771L749.486 283.07L791.493 267.771H752.386Z" fill="#EABFAD"/>
<path d="M831.134 430.199C831.134 430.199 838.782 472.345 787.88 485.577L815.054 607.685H764.971C764.971 607.685 727.714 491.969 726.993 486.148C723.119 454.862 755.926 430.198 755.926 430.198H831.134V430.199Z" fill="#2B1E45"/>
<path d="M716.526 286.805C716.526 286.805 713.381 293.789 711.539 302.834C709.696 311.879 697.301 397.295 697.301 397.295C697.301 397.295 692.779 420.754 712.209 425.477H732.476L725.776 414.557L716.526 286.805Z" fill="#7F7767"/>
<path d="M504.186 329.42C504.186 329.42 498.303 357.911 491.496 367.431C491.496 367.431 515.731 377.093 542.866 374.117C542.866 374.117 541.372 365.352 542.196 357.831" fill="#EAAC29"/>
<path d="M612.596 305.058C612.596 305.058 621.004 323.605 621.958 336.497C622.636 345.666 623.318 342.194 617.958 364.856L616.301 367.936C616.301 367.936 620.068 350.025 619.21 341.114C618.352 332.203 612.87 307.504 612.596 305.058Z" fill="#D19825"/>
<path d="M535.916 398.005C535.916 398.005 559.951 400.319 575.472 405.567C575.472 405.567 595.295 398.895 605.511 398.005C605.511 398.005 615.198 367.824 616.301 367.936C616.301 367.936 614.694 380.729 609.014 402.332C609.014 402.332 592.316 402.612 576.887 408.333L535.916 398.005Z" fill="#D19825"/>
<path d="M612.055 304.051C614.125 314.427 616.596 324.816 618.097 335.289C619.785 347.072 617.736 358.343 615.205 369.857C615.113 370.278 615.758 370.458 615.851 370.036C618.304 358.876 620.448 347.884 618.948 336.42C617.519 325.505 614.854 314.663 612.701 303.873C612.618 303.451 611.972 303.631 612.055 304.051Z" fill="#372723"/>
<path d="M517.071 430.199C517.071 430.199 507.354 486.862 564.975 490.212C564.975 490.212 557.035 555.202 562.576 609.248H605.846C605.846 609.248 609.015 552.774 613.684 523.264C618.353 493.755 640.463 456.169 569.219 430.199H517.071Z" fill="#5E5B42"/>
<path d="M670.618 430.199H670.01H520.756V432.561C520.756 432.561 555.993 447.721 670.314 445.52C784.635 447.721 819.871 432.561 819.871 432.561V430.199H670.618Z" fill="#7763A1"/>
<path d="M624.975 501.534C624.975 501.534 630.962 555.648 629.795 607.684H623.49C623.49 607.684 622.777 554.476 618.333 516.76C618.333 516.76 622.44 501.243 624.975 501.534Z" fill="#4C4936"/>
<path d="M581.265 257.899L560.956 253.478L556.37 258.625C556.37 258.625 557.16 274.918 553.419 276.704L562.296 282.064L592.106 276.704C583.948 271.344 581.265 257.899 581.265 257.899Z" fill="#EABFAD"/>
<path d="M559.496 235.833C559.496 235.833 575.982 235.164 581.809 224.251C581.809 224.251 584.406 226.706 588.259 226.622C588.259 226.622 591.384 219.252 583.96 213.501C576.544 207.757 570.225 207.188 560.51 209.034C551.066 210.829 542.531 219.308 542.531 231.368C542.531 243.428 541.247 254.217 535.916 263.674C530.582 273.132 526.864 273.578 527.271 282.066C527.271 282.066 534.734 277.6 541.368 276.706H553.419C553.419 276.706 561.124 275.757 562.799 267.772C564.474 259.788 557.142 250.008 556.369 242.67C556.369 242.67 555.02 236.447 559.496 235.833Z" fill="#191931"/>
<path d="M559.495 235.833C559.495 235.833 557.29 232.176 553.94 233.934C550.014 235.995 551.455 243.538 559.495 242.868V235.833Z" fill="#EABFAD"/>
<path d="M589.025 257.658C589.025 257.658 590.214 262.969 594.569 268.552C598.924 274.134 599.035 276.703 599.035 276.703H592.106C592.106 276.703 584.912 272.927 581.426 258.624C581.426 258.624 587.425 258.795 589.025 257.658Z" fill="#191931"/>
<path d="M555.705 243.059C556.537 245.941 558.345 247.862 559.902 250.347C562.972 255.244 563.926 262.139 559.418 266.58C559.11 266.882 559.584 267.357 559.892 267.054C562.536 264.449 563.453 260.763 563.104 257.102C562.559 251.365 557.874 248.159 556.351 242.88C556.231 242.466 555.584 242.643 555.705 243.059Z" fill="#191931"/>
<path d="M543.25 226.55C542.573 235.731 541.895 245.064 538.947 253.851C536.727 260.466 532.451 266.127 532.81 273.347C532.831 273.775 533.501 273.778 533.48 273.347C533.07 265.114 538.871 257.492 540.882 249.61C542.804 242.083 543.352 234.269 543.92 226.551C543.951 226.12 543.281 226.122 543.25 226.55Z" fill="#191931"/>
<path d="M542.984 230.123C543.345 240.563 540.998 248.645 535.772 257.646C532.093 263.984 528.988 270.058 529.835 277.57C529.883 277.994 530.553 277.999 530.505 277.57C529.275 266.656 536.784 259.092 540.82 249.756C543.532 243.485 543.886 236.868 543.654 230.125C543.64 229.693 542.97 229.692 542.984 230.123Z" fill="#191931"/>
<path d="M581.393 222.641C580.846 226.476 578.985 230.437 575.457 232.365C572.361 234.056 568.712 234.09 565.281 234.15C564.85 234.158 564.849 234.828 565.281 234.82C569.126 234.753 573.295 234.661 576.62 232.452C579.791 230.346 581.519 226.477 582.04 222.819C582.099 222.397 581.453 222.215 581.393 222.641Z" fill="#191931"/>
<path d="M589.694 257.032C589.529 257.205 589.364 257.378 589.179 257.524C591.664 263.447 597.948 268.122 596.772 275.048C596.699 275.47 597.345 275.651 597.418 275.227C598.657 267.936 592.119 263.275 589.694 257.032Z" fill="#191931"/>
<path d="M581.425 258.625C581.425 258.625 577.204 258.633 571.676 257.033C571.676 257.033 576.847 268.516 586.238 270.392C586.238 270.392 583.464 266.717 581.425 258.625Z" fill="#CF9B89"/>
<path d="M550.255 215.878C550.298 214.794 549.31 213.793 548.086 213.459C546.861 213.126 545.479 213.388 544.401 213.982C543.323 214.575 542.518 215.468 541.902 216.419C540.338 218.834 539.894 221.746 540.682 224.414C540.962 225.364 541.495 226.375 542.567 226.753C543.755 227.173 545.123 226.641 546.097 225.933C547.698 224.77 548.74 223.135 549.336 221.428C549.932 219.721 550.11 217.931 550.212 216.153" fill="#191931"/>
<path d="M549.063 276.705C549.148 276.705 550.18 293.455 567.712 303.505C587.203 314.678 602.998 303.448 600.136 290.205C597.929 279.994 593.953 276.705 593.953 276.705H549.063Z" fill="#A2222B"/>
<path d="M553.419 276.704C553.419 276.704 560.234 302.164 583.178 301.398C607.27 300.593 592.105 276.704 592.105 276.704L574.768 275.469L553.419 276.704Z" fill="#EABFAD"/>
<path d="M564.975 490.211C564.975 490.211 560.789 485.912 560.454 482.31C560.454 482.31 550.735 489.183 530.176 476.744C530.176 476.744 540.686 489.318 564.975 490.211Z" fill="#4C4936"/>
<path d="M543.127 338.186L540.914 399.111L535.916 398.005L543.127 338.186Z" fill="#D19825"/>
<path d="M532.473 397.619C546.251 400.525 559.895 403.988 573.466 407.734C580.049 409.549 586.613 411.424 593.175 413.311C596.61 414.298 617.298 418.288 615.601 423.858C615.475 424.272 616.121 424.448 616.247 424.036C617.404 420.24 614.44 419.031 611.339 417.849C603.221 414.757 594.326 412.93 585.97 410.549C568.325 405.521 550.61 400.758 532.651 396.972C532.231 396.884 532.051 397.53 532.473 397.619Z" fill="#372723"/>
<path d="M788.024 219.446C788.024 219.446 780.996 223.356 779.628 215.484C779.628 215.484 771.718 221.443 755.783 218.589L754.987 221.635C754.987 221.635 746.715 214.646 751.74 206.02C756.765 197.393 774.939 206.606 780.802 207.444C780.802 207.444 783.813 205.719 787.586 207.025C791.941 208.532 796.256 212.469 788.027 237.928V219.446H788.024Z" fill="#191931"/>
<path d="M785.448 221.608C785.448 221.608 787.653 217.951 791.003 219.709C794.93 221.77 793.488 229.313 785.448 228.643V221.608Z" fill="#EABFAD"/>
<path d="M779.535 214.52C776.494 224.26 762.662 218.85 756.001 217.372C755.58 217.278 755.442 217.651 755.864 217.743C762.724 219.264 777.006 224.869 780.181 214.697C780.31 214.286 779.663 214.11 779.535 214.52Z" fill="#191931"/>
<path d="M777.838 214.231C777.598 215.012 777.362 215.894 776.912 216.588C775.887 218.167 774.397 218.334 772.691 218.423C770.243 218.55 767.881 218.488 765.61 217.436C765.222 217.257 764.881 217.834 765.272 218.015C768.023 219.29 771.993 219.169 774.959 218.52C777.342 217.999 777.822 216.573 778.485 214.411C778.611 213.997 777.965 213.82 777.838 214.231Z" fill="#191931"/>
<path d="M752.305 208.027C750.534 209.632 748.758 212.372 749.244 214.908C749.775 217.669 752.914 218.227 755.233 218.449C755.66 218.491 755.763 217.829 755.333 217.787C753.127 217.576 749.941 217.367 749.733 214.618C749.56 212.328 751.045 210.069 752.701 208.567C753.019 208.279 752.624 207.737 752.305 208.027Z" fill="#191931"/>
<path d="M788.024 249.926L783.438 244.779L761.951 249.456C761.951 249.456 760.32 260.764 752.386 267.771L779.656 270.897L791.492 267.771C787.751 265.985 788.024 249.926 788.024 249.926Z" fill="#EABFAD"/>
<path d="M761.869 249.926C761.869 249.926 770.883 249.122 776.051 243.148C776.051 243.148 776.064 260.931 752.386 267.771C752.386 267.771 759.067 262.76 761.869 249.926Z" fill="#CF9B89"/>
<path d="M791.493 267.771L749.486 283.07L757.871 296.569L797.969 267.771C797.969 267.771 793.977 266.626 791.493 267.771Z" fill="#898378"/>
<path d="M749.486 283.069L734.957 288.755L751.349 265.297C751.349 265.297 752.303 263.87 755.846 263.977C755.846 263.977 754.317 266.988 752.386 267.769L749.486 283.069Z" fill="#898378"/>
<path d="M789.081 263.058C789.081 263.058 798.556 262.936 797.969 267.771H791.493C791.493 267.771 789.71 267.034 789.081 263.058Z" fill="#898378"/>
<path d="M793.655 267.283C793.655 267.283 792.322 267.359 791.491 267.772C791.491 267.772 790.41 267.359 789.666 265.332C789.666 265.332 794.41 265.378 793.655 267.283Z" fill="#726B5E"/>
<path d="M752.386 267.771C752.386 267.771 752.792 266.311 754.275 266.287C754.275 266.287 753.312 267.464 752.386 267.771Z" fill="#726B5E"/>
<path d="M748.303 338.986C748.303 338.986 755.702 392.007 784.288 425.477L800.263 425.321C800.263 425.321 765.469 390.326 748.303 338.986Z" fill="#726B5E"/>
<path d="M800.502 425.084C777.099 400.128 759.384 370.593 748.391 338.196C748.252 337.79 747.605 337.964 747.745 338.374C758.77 370.869 776.556 400.528 800.027 425.558C800.324 425.873 800.797 425.399 800.502 425.084Z" fill="#372723"/>
<path d="M807.622 338.284C807.622 338.284 806.995 366.498 803.458 366.602L810.81 370.057C810.81 370.057 810.14 369.443 810.029 368.549C809.917 367.656 807.622 339.349 807.622 338.284Z" fill="#726B5E"/>
<path d="M757.633 333.062C782.528 358.343 814.258 375.752 848.957 383.157C849.378 383.247 849.557 382.601 849.135 382.511C814.536 375.128 782.929 357.797 758.106 332.589C757.805 332.281 757.33 332.754 757.633 333.062Z" fill="#372723"/>
<path d="M807.287 337.219C808.178 348.054 809.069 358.889 809.96 369.723C809.995 370.149 810.665 370.153 810.63 369.723C809.739 358.888 808.848 348.053 807.957 337.219C807.921 336.793 807.251 336.789 807.287 337.219Z" fill="#372723"/>
<path d="M806.366 316.685C805.303 302.597 803.988 280.739 815.531 270.218C815.85 269.927 815.376 269.454 815.057 269.743C803.39 280.379 804.633 302.599 805.694 316.685C805.728 317.112 806.398 317.116 806.366 316.685Z" fill="#372723"/>
<path d="M734.957 288.755L740.601 290.105L749.486 283.07L734.957 288.755Z" fill="#726B5E"/>
<path d="M749.486 283.07L755.846 296.281L757.871 296.569L749.486 283.07Z" fill="#726B5E"/>
<path d="M757.871 296.569C757.871 296.569 778.706 282.957 787.416 278.602C796.126 274.247 801.229 270.116 802.743 267.771H797.969L757.871 296.569Z" fill="#726B5E"/>
<path d="M720.624 281.916C720.624 281.916 717.821 288.629 715.476 299.962C713.131 311.294 707.016 363.358 707.016 363.358L712.282 364.363C712.282 364.363 715.682 318.198 716.541 309.623C717.4 301.048 720.624 281.916 720.624 281.916Z" fill="#726B5E"/>
<path d="M712.617 362.519C713.983 335.23 716.842 307.881 721.124 280.897C721.191 280.475 720.545 280.294 720.478 280.719C716.187 307.766 713.315 335.167 711.947 362.519C711.926 362.951 712.596 362.95 712.617 362.519Z" fill="#372723"/>
<path d="M716.745 421.23H630.797C629.168 421.23 627.845 419.909 627.845 418.278L621.541 360.78C621.541 359.151 622.862 357.828 624.493 357.828H710.44C712.07 357.828 713.392 359.149 713.392 360.78L719.697 418.278C719.696 419.909 718.374 421.23 716.745 421.23Z" fill="#CBC8C7"/>
<path d="M697.821 233.983C701.738 246.801 702.12 260.383 703.473 273.656C704.469 283.427 705.597 293.192 706.452 302.977C706.489 303.403 707.159 303.407 707.122 302.977C706.227 292.735 705.043 282.515 704.002 272.287C702.689 259.373 702.282 246.292 698.467 233.804C698.342 233.394 697.695 233.569 697.821 233.983Z" fill="#372723"/>
<path d="M745.339 292.161C745.246 292.532 745.32 292.838 745.625 293.083C745.734 293.172 745.903 293.227 746.031 293.136C746.502 292.806 746.437 292.057 745.83 291.924C745.67 291.889 745.546 291.952 745.453 292.078C745.178 292.447 745.313 292.94 745.713 293.148C745.836 293.212 746.021 293.212 746.119 293.095C746.472 292.672 746.476 292.184 746.11 291.763C746.002 291.95 745.893 292.137 745.785 292.323C745.802 292.326 745.821 292.329 745.838 292.331C746.258 292.287 746.278 291.651 745.838 291.661C744.982 291.682 744.643 292.917 745.533 293.211C746.42 293.503 747.014 292.448 746.48 291.762C745.932 291.059 744.752 291.481 744.677 292.344C744.602 293.2 745.733 293.748 746.374 293.188C746.959 292.676 746.672 291.597 745.936 291.399C745.089 291.171 744.331 292.216 744.757 292.967C745.172 293.701 746.376 293.613 746.709 292.857C747.078 292.023 746.207 291.037 745.339 291.336C744.375 291.668 744.382 293.138 745.489 293.219C746.47 293.29 746.604 291.861 745.713 291.612C745.297 291.495 745.119 292.143 745.534 292.258C745.434 292.748 745.479 292.642 745.672 291.943C745.96 292.013 746.112 292.185 746.128 292.461C746.049 293.194 744.874 292.616 745.451 292.155C745.919 291.782 746.301 292.599 745.739 292.747C745.396 292.727 745.329 292.519 745.541 292.126C746.105 292.382 746.204 292.451 745.84 292.331C745.84 292.108 745.84 291.885 745.84 291.661C744.777 291.773 744.571 293.335 745.746 293.42C746.862 293.5 746.945 291.967 745.964 291.678C745.624 291.577 745.43 291.997 745.639 292.238C745.641 292.366 745.644 292.494 745.647 292.622C745.782 292.605 745.918 292.587 746.053 292.57C746.046 292.519 746.039 292.468 746.033 292.417C745.907 292.468 745.781 292.52 745.655 292.571C745.668 292.567 745.682 292.562 745.695 292.558C745.83 292.575 745.966 292.593 746.101 292.61C746.064 292.52 746.025 292.429 745.987 292.34C746.089 291.921 745.443 291.742 745.339 292.161Z" fill="#372723"/>
<path d="M744.259 298.332C744.167 298.703 744.24 299.009 744.546 299.254C744.654 299.342 744.823 299.397 744.952 299.306C745.422 298.977 745.358 298.227 744.751 298.095C744.59 298.06 744.467 298.123 744.373 298.249C744.098 298.617 744.234 299.111 744.633 299.318C744.756 299.383 744.941 299.383 745.039 299.266C745.393 298.843 745.397 298.355 745.031 297.934C744.922 298.12 744.814 298.308 744.705 298.494C744.723 298.497 744.741 298.499 744.759 298.502C745.178 298.458 745.198 297.821 744.759 297.832C743.903 297.852 743.564 299.088 744.453 299.381C745.34 299.673 745.934 298.619 745.401 297.933C744.853 297.229 743.672 297.651 743.597 298.514C743.522 299.37 744.653 299.919 745.295 299.358C745.879 298.847 745.592 297.768 744.857 297.57C744.01 297.342 743.251 298.387 743.677 299.137C744.093 299.872 745.296 299.783 745.63 299.027C745.998 298.194 745.127 297.208 744.259 297.507C743.296 297.839 743.302 299.309 744.409 299.389C745.39 299.46 745.524 298.032 744.633 297.783C744.218 297.666 744.039 298.313 744.455 298.428C744.354 298.919 744.4 298.813 744.593 298.114C744.881 298.183 745.032 298.356 745.048 298.632C744.969 299.365 743.794 298.786 744.372 298.325C744.839 297.953 745.221 298.77 744.66 298.918C744.317 298.897 744.25 298.69 744.461 298.297C745.026 298.553 745.125 298.621 744.76 298.502C744.76 298.278 744.76 298.056 744.76 297.832C743.698 297.943 743.491 299.504 744.666 299.59C745.783 299.671 745.866 298.138 744.885 297.848C744.544 297.748 744.35 298.167 744.559 298.408C744.562 298.537 744.565 298.664 744.567 298.793C744.703 298.776 744.838 298.758 744.973 298.741C744.967 298.69 744.96 298.639 744.953 298.588C744.827 298.639 744.701 298.691 744.575 298.742C744.589 298.738 744.602 298.733 744.615 298.729C744.751 298.746 744.886 298.763 745.022 298.781C744.984 298.691 744.945 298.6 744.908 298.51C745.009 298.092 744.364 297.914 744.259 298.332Z" fill="#372723"/>
<path d="M633.354 214.955C633.354 214.955 627.679 215.119 627.091 218.987L631.194 219.839L632.699 218.652C632.699 218.652 632.918 216.073 633.354 214.955Z" fill="#553B8A"/>
<path d="M668.486 213.944C668.486 213.944 670.228 217.644 669.988 220.667L674.429 216.912C674.429 216.912 673.388 213.911 668.486 213.944Z" fill="#553B8A"/>
<path d="M627.092 218.987C627.092 218.987 626.305 229.244 641.118 248.2L641.278 248.753C641.278 248.753 625.277 238.182 623.695 219.189L627.092 218.987Z" fill="#463374"/>
<path d="M674.427 216.914C674.427 216.914 678.195 230.038 668.486 245.081L668.389 245.938C668.389 245.938 681.175 236.703 678.853 217.676C678.853 217.676 676.727 217.115 674.427 216.914Z" fill="#463374"/>
<path d="M672.771 386.741C672.255 383.422 669.382 381.112 666.353 381.582C666.303 381.59 666.26 381.612 666.211 381.621C666.187 383.129 665.598 385.829 661.842 386.247C661.714 386.949 661.683 387.687 661.801 388.444C662.317 391.764 665.19 394.074 668.219 393.603C671.249 393.133 673.287 390.06 672.771 386.741Z" fill="#D9D9D9"/>
<path d="M637.688 170.7C637.688 170.7 641.032 168.667 641.279 165.652C641.279 165.652 650.29 172.284 657.94 170.7C665.59 169.116 664.336 163.3 664.336 163.3L665.436 168.323C665.436 168.323 669.999 162.805 667.32 158.115C664.642 153.425 658.332 151.415 650.515 151.415C642.699 151.415 638.512 154.43 638.512 154.43C638.512 154.43 628.94 155.535 632.135 168.801C632.135 168.801 629.89 181.736 634.477 187.203C634.477 187.203 634.884 182.515 634.478 177.516C634.476 177.518 634.52 171.643 637.688 170.7Z" fill="#191931"/>
<path d="M639.388 155.141C639.388 155.141 637.954 153.969 637.686 152.544C637.686 152.544 637.461 153.843 637.963 155.141C638.466 156.44 639.388 155.141 639.388 155.141Z" fill="#191931"/>
<path d="M638.513 154.974C638.513 154.974 635.829 154.43 635.201 152.544C635.201 152.544 635.034 154.829 636.458 155.717C637.88 156.607 638.513 154.974 638.513 154.974Z" fill="#191931"/>
<path d="M661.959 197.733C661.959 197.733 648.559 201.455 642.305 192.662C642.305 192.662 646.451 206.731 655.091 205.853C662.238 205.127 662.479 199.023 662.479 199.023L661.959 197.733Z" fill="#CF9B89"/>
<path d="M498.575 371.836C498.575 371.836 514.346 379.985 538.488 379.139L539.079 374.453C539.079 374.453 523.353 376.462 498.819 369.834L498.575 371.836Z" fill="#CF9B89"/>
<path d="M543.079 335.317C540.996 356.232 538.597 377.113 535.593 397.917C535.533 398.339 536.177 398.521 536.239 398.095C539.251 377.233 541.66 356.291 543.749 335.317C543.792 334.889 543.121 334.891 543.079 335.317Z" fill="#372723"/>
<path d="M639.388 168.323C639.388 168.323 639.681 181.788 642.305 185.696C644.929 189.604 661.329 193.963 667.311 185.251C667.311 185.251 669.105 191.111 665.877 196.056C663.318 199.979 655.053 200.491 652.391 199.736C649.73 198.982 642.494 197.224 640.184 187.927C637.872 178.63 637.567 169.502 637.567 169.502L639.388 168.323Z" fill="#191931"/>
<path d="M640.736 187.427C640.736 187.427 640.686 189.883 640.239 190.888C640.239 190.888 641.031 189.883 641.277 189.157C641.524 188.432 640.736 187.427 640.736 187.427Z" fill="#191931"/>
<path d="M640.24 186.561C640.24 186.561 640.212 188.515 639.933 189.158C639.933 189.158 640.675 188.014 640.737 187.427C640.799 186.84 640.24 186.561 640.24 186.561Z" fill="#191931"/>
<path d="M650.828 180.447C648.142 180.447 645.956 178.262 645.956 175.575C645.956 172.888 648.142 170.703 650.828 170.703C653.515 170.703 655.702 172.888 655.702 175.575C655.702 178.262 653.515 180.447 650.828 180.447ZM650.828 171.706C648.696 171.706 646.961 173.442 646.961 175.574C646.961 177.705 648.696 179.441 650.828 179.441C652.962 179.441 654.697 177.705 654.697 175.574C654.697 173.442 652.962 171.706 650.828 171.706Z" fill="#191931"/>
<path d="M662.71 179.24C660.139 179.24 658.047 177.147 658.047 174.575C658.047 172.004 660.14 169.911 662.71 169.911C665.283 169.911 667.375 172.004 667.375 174.575C667.375 177.147 665.283 179.24 662.71 179.24ZM662.71 170.916C660.692 170.916 659.052 172.557 659.052 174.575C659.052 176.593 660.693 178.235 662.71 178.235C664.727 178.235 666.37 176.593 666.37 174.575C666.37 172.557 664.727 170.916 662.71 170.916Z" fill="#191931"/>
<path d="M655.237 174.804L654.611 174.018C655.297 173.47 657.058 172.73 658.828 173.85L658.29 174.7C656.698 173.688 655.297 174.757 655.237 174.804Z" fill="#191931"/>
<path d="M646.192 175.001C646.123 174.957 639.156 170.615 635.981 169.797L636.233 168.823C639.557 169.68 646.435 173.967 646.727 174.149L646.192 175.001Z" fill="#191931"/>
<path d="M637.687 170.7C637.687 170.7 635.482 167.043 632.132 168.801C628.206 170.862 629.647 178.405 637.687 177.735V170.7Z" fill="#EABFAD"/>
<path d="M787.88 485.577C787.88 485.577 786.968 480.496 788.756 477.816C788.756 477.816 790.085 482.932 804.831 479.145C804.831 479.145 797.849 483.274 787.88 485.577Z" fill="#1E162E"/>
<path d="M575.172 238.522C575.529 238.459 575.75 238.02 575.666 237.542C575.581 237.064 575.223 236.728 574.866 236.791C574.509 236.854 574.288 237.293 574.373 237.771C574.457 238.249 574.815 238.585 575.172 238.522Z" fill="#191931"/>
<path d="M588.392 235.672C588.749 235.609 588.97 235.17 588.886 234.692C588.801 234.214 588.443 233.878 588.086 233.941C587.729 234.004 587.508 234.442 587.592 234.921C587.677 235.399 588.035 235.735 588.392 235.672Z" fill="#191931"/>
<path d="M582.998 236.798C582.998 236.798 584.362 240.437 586.117 241.477C587.872 242.517 585.987 244.011 584.558 244.207C583.128 244.401 582.088 236.732 582.998 236.798Z" fill="#DA8A7B"/>
<path d="M770.955 227.78C770.971 227.295 770.691 226.892 770.328 226.879C769.966 226.867 769.659 227.251 769.642 227.736C769.626 228.221 769.907 228.624 770.269 228.636C770.631 228.649 770.938 228.265 770.955 227.78Z" fill="#191931"/>
<path d="M757.463 226.818C757.479 226.333 757.198 225.93 756.836 225.917C756.474 225.905 756.167 226.289 756.15 226.774C756.134 227.259 756.414 227.662 756.777 227.674C757.139 227.687 757.446 227.303 757.463 226.818Z" fill="#191931"/>
<path d="M762.275 227.995C762.275 227.995 761.436 231.79 759.845 233.067C758.255 234.343 760.33 235.558 761.774 235.55C763.217 235.542 763.167 227.803 762.275 227.995Z" fill="#DA8A7B"/>
<path d="M652.055 177.204C652.417 177.192 652.698 176.789 652.681 176.304C652.665 175.819 652.358 175.435 651.996 175.447C651.633 175.46 651.353 175.863 651.369 176.348C651.385 176.833 651.692 177.217 652.055 177.204Z" fill="#191931"/>
<path d="M663.159 176.743C663.521 176.731 663.802 176.328 663.785 175.842C663.769 175.357 663.462 174.974 663.1 174.986C662.737 174.998 662.457 175.401 662.473 175.887C662.489 176.372 662.796 176.755 663.159 176.743Z" fill="#191931"/>
<path d="M583.21 250.719C583.018 250.719 582.82 250.706 582.611 250.678C579.371 250.237 579.333 246.985 579.333 246.953V246.051L579.921 246.734C580.01 246.836 582.138 249.231 586.324 248.026L587.021 247.826L586.722 248.487C586.711 248.51 585.681 250.719 583.21 250.719ZM580.138 247.813C580.372 248.636 581.001 249.783 582.702 250.014C584.22 250.221 585.179 249.47 585.677 248.871C582.931 249.41 581.08 248.499 580.138 247.813Z" fill="#191931"/>
<path d="M760.359 242.675C759.41 242.675 758.754 242.528 758.735 242.523L758.888 241.871C759.085 241.917 763.702 242.943 765.872 238.97L766.46 239.29C764.89 242.166 762.12 242.675 760.359 242.675Z" fill="#191931"/>
<path d="M655.296 181.268C655.296 181.268 655.972 180.143 657.574 179.973C659.177 179.803 659.902 180.813 659.902 180.813C659.902 180.813 659.436 181.508 658.023 181.752C656.611 181.995 655.296 181.268 655.296 181.268Z" fill="#DA8A7B"/>
<path d="M656.011 189.004C655.591 189.004 655.136 188.935 654.642 188.767C653.044 188.222 652.277 187.294 652.161 185.763L652.104 185.03L652.694 185.468C652.724 185.489 655.662 187.643 658.829 186.832L659.682 186.614L659.189 187.344C659.176 187.365 658.039 189.004 656.011 189.004ZM652.954 186.43C653.202 187.254 653.793 187.769 654.858 188.132C656.261 188.612 657.31 188.14 657.942 187.662C655.798 187.853 653.909 186.982 652.954 186.43Z" fill="#191931"/>
<path d="M636.854 177.774C636.854 177.774 636.732 180.811 634.647 181.231L634.475 177.519C634.475 177.519 635.763 177.875 636.854 177.774Z" fill="#CF9B89"/>
<path d="M785.448 228.643C785.448 228.643 785.512 233.456 788.025 234.754V228.558C788.025 228.558 786.631 228.814 785.448 228.643Z" fill="#CF9B89"/>
<path d="M614.341 420.724C621.884 423.088 630.66 420.149 637.301 425.262C637.643 425.525 637.976 424.943 637.639 424.683C630.916 419.507 622.124 422.462 614.518 420.078C614.107 419.949 613.93 420.595 614.341 420.724Z" fill="#372723"/>
<path d="M616.119 421.28C623.454 421.542 631.401 419.027 637.061 425.036C637.358 425.351 637.831 424.876 637.536 424.561C631.697 418.364 623.746 420.883 616.119 420.61C615.688 420.595 615.688 421.265 616.119 421.28Z" fill="#372723"/>
<path d="M730.878 425.477H632.397C631.514 425.477 630.798 424.761 630.798 423.878V422.83C630.798 421.947 631.514 421.231 632.397 421.231H730.878C731.761 421.231 732.476 421.947 732.476 422.83V423.878C732.476 424.761 731.761 425.477 730.878 425.477Z" fill="#CBC8C7"/>
<path d="M627.845 418.28C627.845 419.909 629.166 421.232 630.797 421.232H716.745C718.374 421.232 719.697 419.91 719.697 418.28L718.656 408.786L623.278 376.632L627.845 418.28Z" fill="#D9D9D9"/>
<path d="M662.144 389.733C663.108 392.336 665.602 394.008 668.219 393.602C669.101 393.465 669.882 393.089 670.557 392.57L662.144 389.733Z" fill="#CBC8C7"/>
<path d="M732.476 423.878V422.83C732.476 421.947 731.761 421.231 730.878 421.231H632.397C631.514 421.231 630.798 421.947 630.798 422.83V422.89H721.884C723.349 422.932 723.219 424.147 723.219 424.147V425.322L723.297 425.478H730.879C731.761 425.477 732.476 424.761 732.476 423.878Z" fill="#8E8A87"/>
<path d="M632.396 421.565C660.512 421.565 688.628 421.565 716.744 421.565C717.175 421.565 717.175 420.895 716.744 420.895C688.628 420.895 660.512 420.895 632.396 420.895C631.966 420.895 631.964 421.565 632.396 421.565Z" fill="#372723"/>
<path d="M752.968 335.494L748.755 337.812C748.755 337.812 748.362 338.186 747.642 337.401C746.922 336.616 744.312 335.107 744.079 331.946C743.917 329.747 745.897 328.234 747.07 327.481C747.07 327.481 746.625 325.432 748.951 325.577C748.951 325.577 748.194 324.293 748.166 323.856C748.166 323.856 747.919 323.639 747.446 323.566C746.973 323.492 743.239 323.043 742.516 321.703C741.793 320.363 744.096 321.176 745.876 321.158C747.655 321.139 749.163 320.703 749.163 320.703C749.163 320.703 754.647 324.54 754.911 324.655C755.175 324.77 757.558 325.475 758.03 327.243C758.501 329.01 757.664 330.831 757.664 330.831C757.664 330.831 757.579 332.8 757.392 333.05C757.204 333.301 752.968 335.494 752.968 335.494Z" fill="#EABFAD"/>
<path d="M748.236 338.574C751.44 336.641 754.834 335.047 758.039 333.114C758.408 332.892 758.072 332.313 757.702 332.536C754.498 334.468 751.104 336.062 747.898 337.995C747.53 338.217 747.866 338.797 748.236 338.574Z" fill="#372723"/>
<path d="M757.909 332.915C758.966 326.657 753.98 323.256 749.121 320.473C748.746 320.258 748.408 320.837 748.783 321.052C753.283 323.629 758.262 326.819 757.263 332.737C757.19 333.157 757.836 333.34 757.909 332.915Z" fill="#372723"/>
<path d="M748.862 320.439C747.736 320.71 746.596 320.855 745.441 320.902C744.504 320.939 743.521 320.774 742.597 320.865C742.487 320.876 742.357 320.919 742.308 321.032C741.927 321.881 743.031 322.597 743.683 322.941C745.019 323.649 746.55 323.78 748.008 324.068C748.429 324.151 748.61 323.505 748.186 323.422C747.179 323.222 746.158 323.113 745.171 322.81C744.721 322.672 744.264 322.514 743.856 322.276C743.557 322.11 743.294 321.901 743.069 321.649C742.615 321.507 742.639 321.474 743.14 321.55C744.098 321.456 745.111 321.608 746.083 321.539C747.081 321.468 748.066 321.321 749.04 321.087C749.459 320.985 749.283 320.339 748.862 320.439Z" fill="#372723"/>
<path d="M747.774 323.834C748.118 324.679 748.577 325.432 749.178 326.12C749.462 326.445 749.935 325.97 749.653 325.645C749.131 325.049 748.72 324.388 748.421 323.655C748.26 323.261 747.612 323.434 747.774 323.834Z" fill="#372723"/>
<path d="M749.606 325.569C748.224 324.742 746.549 325.687 746.567 327.301C746.571 327.733 747.241 327.733 747.237 327.301C747.224 326.197 748.315 325.577 749.268 326.146C749.638 326.369 749.976 325.79 749.606 325.569Z" fill="#372723"/>
<path d="M754.443 324.876C755.705 325.407 757.171 326.019 757.684 327.403C758.085 328.485 757.765 329.933 757.424 331.011C757.294 331.423 757.942 331.599 758.07 331.189C758.474 329.91 758.83 328.167 758.216 326.911C757.514 325.472 756.016 324.817 754.62 324.23C754.224 324.064 754.05 324.711 754.443 324.876Z" fill="#372723"/>
<path d="M641.501 262.539C641.501 262.539 641.103 255.671 640.084 254.119C640.084 254.119 641.801 255.317 642.262 255.965C642.262 255.965 642.664 256.228 642.723 255.386C642.783 254.544 642.825 246.317 642.62 245.172C642.62 245.172 644.677 247.207 645.347 252.539L645.643 252.732C645.643 252.732 647.211 251.601 648.279 253.648C648.279 253.648 650.183 252.48 651.286 253.962C651.286 253.962 652.958 253.188 654.124 254.166C655.289 255.144 655.252 256.274 655.252 256.274C655.252 256.274 657.837 260.33 652.087 264.99L641.501 262.539Z" fill="#EABFAD"/>
<path d="M638.357 262.372C643.503 263.244 648.51 264.749 653.655 265.62C654.077 265.691 654.258 265.046 653.833 264.974C648.687 264.102 643.68 262.597 638.535 261.726C638.113 261.655 637.932 262.301 638.357 262.372Z" fill="#372723"/>
<path d="M641.824 262.468C641.116 259.631 641.816 256.622 640.374 253.967C640.221 254.12 640.068 254.273 639.916 254.426C640.801 255.035 641.569 255.716 642.285 256.511C642.574 256.832 643.046 256.357 642.759 256.036C641.999 255.193 641.187 254.487 640.255 253.845C639.964 253.646 639.646 254.028 639.796 254.304C641.191 256.872 640.492 259.89 641.178 262.645C641.282 263.065 641.928 262.888 641.824 262.468Z" fill="#372723"/>
<path d="M642.994 256.098C643.339 252.382 643.113 248.668 642.946 244.949C642.755 245.028 642.564 245.107 642.373 245.186C644.176 247.295 644.564 250.44 645.118 253.076C645.206 253.498 645.852 253.32 645.764 252.898C645.175 250.099 644.761 246.955 642.846 244.713C642.659 244.494 642.262 244.67 642.274 244.95C642.442 248.669 642.668 252.383 642.322 256.099C642.284 256.528 642.954 256.525 642.994 256.098Z" fill="#372723"/>
<path d="M645.74 253.145C646.579 252.177 647.671 253.08 648.047 253.969C648.215 254.364 648.792 254.024 648.626 253.631C648.077 252.335 646.375 251.392 645.265 252.67C644.985 252.996 645.457 253.472 645.74 253.145Z" fill="#372723"/>
<path d="M648.519 254.056C649.304 253.22 650.536 253.352 651.101 254.352C651.313 254.727 651.893 254.39 651.68 254.014C650.907 252.646 649.122 252.436 648.046 253.582C647.75 253.896 648.223 254.371 648.519 254.056Z" fill="#372723"/>
<path d="M576.199 609.248C576.199 609.248 582.984 637.189 598.023 638.17C609.545 638.921 605.058 616.317 599.894 609.248H576.199Z" fill="#191931"/>
<path d="M633.149 607.685C633.149 607.685 632.144 617.902 641.021 621.42C649.899 624.937 675.024 627.45 679.881 626.612C684.739 625.775 686.581 615.557 660.284 607.685H633.149Z" fill="#191931"/>
<path d="M709.026 602.994C709.026 602.994 696.129 612.877 692.109 620.749C688.089 628.622 702.494 625.774 712.544 619.744C722.594 613.714 734.504 608.857 733.826 602.994H709.026Z" fill="#191931"/>
<path d="M777.025 607.685C777.025 607.685 772.497 637.62 784.959 640.738C797.575 643.895 797.632 609.527 797.297 607.685H777.025Z" fill="#191931"/>
<path d="M457.058 538.977C457.058 538.977 457.803 510.13 454.974 482.14C454.961 482.184 444.966 514.974 455.955 548.418C456.817 549.436 457.688 550.441 458.57 551.425L457.058 538.977Z" fill="#4C4936"/>
<path d="M486.078 489.196C469.014 499.352 465.046 539.233 464.128 556.513C485.177 521.02 486.066 489.66 486.078 489.196Z" fill="#4C4936"/>
<path d="M466.486 506.068L480.392 499.297C481.448 491.042 482.004 483.089 482.067 475.96L469.613 479.045L482.063 472.877C481.812 451.534 476.835 438.887 467.371 450.681C465.656 452.818 464.172 455.319 462.885 458.092L469.613 465.867L461.732 460.767C459.535 466.319 458.023 472.788 457.021 479.666L465.145 489.195L456.7 482.014C452.725 513.17 458.563 551.395 458.567 551.423C460.289 553.344 462.052 555.195 463.848 556.987C471.785 542.049 477.076 522.178 479.827 503.388L466.486 506.068Z" fill="#679C93"/>
<path d="M486.261 541.659L480.182 540.398C477.69 543.315 474.158 548.919 473.193 557.767C478.012 553.314 482.428 547.734 486.261 541.659Z" fill="#4C4936"/>
<path d="M482.735 537.893C482.735 537.893 482.246 538.259 481.508 538.98L488.117 538.603C488.295 538.299 488.464 537.99 488.638 537.683L482.735 537.893Z" fill="#4C4936"/>
<path d="M551.24 603.917C559.219 597.034 564.611 587.496 565.722 576.555C566.127 572.573 565.926 568.661 565.214 564.889L518.306 571.742L474.712 558.219C473.939 560.51 473.371 562.895 473.012 565.354C496.704 585.159 524.994 596.008 551.24 603.917Z" fill="#679C93"/>
<path d="M475.379 556.377L518.308 571.742L479.414 548.636C477.809 551.058 476.45 553.647 475.379 556.377Z" fill="#679C93"/>
<path d="M482.687 544.332L518.306 571.742L518.479 528.366C504.163 528.377 491.169 534.507 482.687 544.332Z" fill="#679C93"/>
<path d="M526.474 528.996L518.307 571.742L555.861 545.388C548.789 536.959 538.474 530.9 526.474 528.996Z" fill="#679C93"/>
<path d="M558.524 548.895L518.308 571.742L563.455 558.476C562.225 555.092 560.565 551.879 558.524 548.895Z" fill="#679C93"/>
<path d="M886.012 623.289C913.557 623.289 935.887 619.871 935.887 615.655C935.887 611.439 913.557 608.021 886.012 608.021C858.467 608.021 836.137 611.439 836.137 615.655C836.137 619.871 858.467 623.289 886.012 623.289Z" fill="#1E162E"/>
<path d="M902.678 533.43C902.678 533.43 904.081 489.928 954.599 474.925C954.599 474.925 947.582 517.828 914.956 533.43H902.678Z" fill="#EAAC29"/>
<path d="M941.073 480.127C903.835 498.083 902.678 533.43 902.678 533.43H908.113C934.37 513.934 941.018 480.406 941.073 480.127Z" fill="#A2222B"/>
<path d="M899.521 533.43C899.521 533.43 898.469 464.095 947.934 432.189C947.934 432.189 943.367 496.077 908.113 533.43H899.521Z" fill="#EAAC29"/>
<path d="M909.608 481.403C899.146 508.341 899.521 533.431 899.521 533.431H902.678C913.533 513.131 909.624 481.525 909.608 481.403Z" fill="#A2222B"/>
<path d="M893.396 533.43C893.396 533.43 873.21 430.57 886.19 371.749C886.19 371.749 921.273 448.716 902.679 533.43H893.396Z" fill="#EAAC29"/>
<path d="M890.743 518.302C902.647 451.623 881.948 413.938 881.898 413.847C881.188 453.016 887.131 496.084 890.743 518.302Z" fill="#A2222B"/>
<path d="M884.084 533.43C884.084 533.43 881.627 451.853 859.877 427.646C859.877 427.646 849.001 490.464 876.365 533.43H884.084Z" fill="#EAAC29"/>
<path d="M870.632 447.629C870.616 447.833 865.691 510.849 880.577 533.43L883.89 528.919C883.206 515.496 880.407 475.026 870.632 447.629Z" fill="#A2222B"/>
<path d="M860.543 490.547C863.153 505.115 867.949 520.212 876.367 533.43H884.085C881.282 506.284 860.591 490.584 860.543 490.547Z" fill="#A2222B"/>
<path d="M874.056 610.588H912.883C945.053 591.017 938.076 541.235 938.076 541.235L893.47 538.065L848.864 541.235C848.864 541.235 841.885 591.017 874.056 610.588Z" fill="#BAB0D0"/>
<path d="M942.601 542.7H844.336C843.182 542.7 842.248 541.764 842.248 540.612V535.517C842.248 534.364 843.183 533.43 844.336 533.43H942.601C943.754 533.43 944.688 534.365 944.688 535.517V540.612C944.688 541.766 943.754 542.7 942.601 542.7Z" fill="#7763A1"/>
<path d="M938.528 546.315C938.528 546.315 887.825 546.091 848.49 560.361C848.49 560.361 847.86 547.254 848.695 542.7H938.243C938.243 542.7 938.462 545.102 938.528 546.315Z" fill="#1E162E"/>
<path d="M880.576 533.43C880.576 533.43 861.281 462.028 880.576 416.421C880.576 416.421 896.714 469.415 887.592 533.43H880.576Z" fill="#EAAC29"/>
<path d="M880.576 533.43C880.576 533.43 866.192 484.315 827.602 474.925C827.602 474.925 836.372 515.723 866.543 533.43H880.576Z" fill="#EAAC29"/>
<path d="M905.964 447.65C905.485 443.788 904.943 440.026 904.349 436.375L896.799 441.68L889.746 511.982C891.774 525.162 893.396 533.43 893.396 533.43C907.284 507.49 905.982 448.491 905.964 447.65Z" fill="#A2222B"/>
<path d="M884.084 533.43H887.592L888.969 463.608C888.969 463.608 882.248 488.69 884.084 533.43Z" fill="#A2222B"/>
<path d="M886.014 533.43C886.014 533.43 885.487 426.243 904.783 380.286C904.783 380.286 908.875 481.811 895.778 533.43H886.014Z" fill="#EAAC29"/>
<path d="M827.602 474.925C827.602 474.925 830.846 489.964 840.137 505.741C839.457 483.282 827.602 474.925 827.602 474.925Z" fill="#A2222B"/>
<path d="M897.394 404.43C897.394 404.43 889.881 417.112 892.07 434.745C892.07 434.745 895.309 412.785 897.394 404.43Z" fill="#A2222B"/>
<path d="M925.482 542.7C925.482 542.7 926.106 587.659 904.913 610.588H902.679C902.679 610.588 923.408 584.99 921.876 542.7H925.482Z" fill="#1E162E"/>
<path d="M894.434 610.588C894.434 610.588 899.9 568.35 899.519 542.7H902.679C902.679 542.7 901.028 586.989 895.556 610.588H894.434Z" fill="#1E162E"/>
<path d="M869.315 425.345H472.353V430.199H869.315V425.345Z" fill="#BAB0D0"/>
<path d="M484.787 430.534C526.77 430.534 568.752 430.534 610.736 430.534C676.228 430.534 741.719 430.534 807.212 430.534C822.891 430.534 838.571 430.534 854.25 430.534C854.681 430.534 854.681 429.864 854.25 429.864C812.266 429.864 770.284 429.864 728.301 429.864C662.808 429.864 597.317 429.864 531.825 429.864C516.145 429.864 500.466 429.864 484.787 429.864C484.355 429.864 484.355 430.534 484.787 430.534Z" fill="#372723"/>
<path d="M730.068 424.761C730.418 424.761 730.702 424.477 730.702 424.127C730.702 423.777 730.418 423.493 730.068 423.493C729.718 423.493 729.435 423.777 729.435 424.127C729.435 424.477 729.718 424.761 730.068 424.761Z" fill="#1E162E"/>
<path d="M728.03 424.761C728.38 424.761 728.664 424.477 728.664 424.127C728.664 423.777 728.38 423.493 728.03 423.493C727.68 423.493 727.396 423.777 727.396 424.127C727.396 424.477 727.68 424.761 728.03 424.761Z" fill="#1E162E"/>
<path d="M597.88 444.673C606.262 450.73 613.862 458.197 617.574 468.06C621.393 478.21 620.649 489.479 618.697 499.944C616.785 510.189 613.687 520.063 612.264 530.417C611.267 537.665 610.459 544.967 609.755 552.25C607.926 571.204 606.842 590.251 605.511 609.246C605.482 609.676 606.152 609.674 606.181 609.246C607.557 589.59 608.579 569.851 610.627 550.253C611.87 538.374 612.967 526.367 615.882 514.759C618.44 504.57 621.043 494.416 620.952 483.828C620.805 466.666 611.776 453.889 598.218 444.092C597.868 443.843 597.534 444.423 597.88 444.673Z" fill="#372723"/>
<path d="M741.332 444.484C730.96 457.874 723.254 473.784 727.858 490.978C727.97 491.394 728.617 491.218 728.504 490.8C723.964 473.848 731.598 458.134 741.805 444.959C742.066 444.621 741.595 444.144 741.332 444.484Z" fill="#372723"/>
<path d="M727.859 490.979C739.665 530.033 751.947 569.001 764.648 607.774C764.782 608.182 765.43 608.008 765.294 607.596C752.592 568.823 740.311 529.856 728.505 490.8C728.38 490.389 727.734 490.565 727.859 490.979Z" fill="#372723"/>
<path d="M527.271 282.065C527.271 282.065 527.735 286.066 531.866 285.303C535.495 284.633 534.603 277.99 540.13 276.872C545.658 275.756 532.146 276.091 532.146 276.091L528.629 278.995L527.271 282.065Z" fill="#191931"/>
<path d="M555.922 599.209C516.931 594.159 473.012 565.353 473.012 565.353C496.703 585.158 524.993 596.006 551.24 603.915C552.924 602.464 554.486 600.887 555.922 599.209Z" fill="#4C4936"/>
<path d="M907.922 185.76H724.89C724.423 186.206 723.955 186.651 723.483 187.1H907.921V185.76H907.922Z" fill="#CBC8C7"/>
<path d="M743.12 168.435H907.204C906.882 167.986 906.561 167.535 906.236 167.095H744.557C744.08 167.537 743.602 167.985 743.12 168.435Z" fill="#CBC8C7"/>
<path d="M905.562 193.566H729.402V185.891H905.562V193.566ZM730.742 192.226H904.222V187.231H730.742V192.226Z" fill="#CBC8C7"/>
</svg>
