<svg width="254" height="200" viewBox="0 0 254 200" fill="none" xmlns="http://www.w3.org/2000/svg">
<path d="M195.921 124.216H174.318V137.175H195.921V124.216Z" fill="#F5CB49"/>
<path d="M185.049 129.737C184.686 129.464 184.238 129.281 183.831 129.071C183.428 128.865 183.025 128.658 182.622 128.452C181.83 128.045 181.037 127.639 180.245 127.233C179.453 126.826 178.66 126.421 177.866 126.019C177.085 125.624 176.286 125.106 175.391 124.998C175.172 124.971 175.123 125.238 175.231 125.361C175.52 125.695 175.9 125.933 176.297 126.146C176.695 126.359 177.093 126.574 177.492 126.787C178.262 127.201 179.035 127.61 179.808 128.019C180.581 128.428 181.353 128.837 182.126 129.247C182.526 129.458 182.925 129.67 183.325 129.881C183.728 130.095 184.133 130.361 184.571 130.505C185.019 130.653 185.431 130.024 185.049 129.737Z" fill="#F1AE2E"/>
<path d="M195.123 124.73C194.791 124.606 194.453 124.798 194.158 124.931C193.798 125.095 193.438 125.257 193.081 125.427L191.028 126.407C189.645 127.067 188.273 127.742 186.904 128.427C186.125 128.817 185.299 129.176 184.592 129.676C184.433 129.789 184.341 129.96 184.428 130.145C184.504 130.306 184.71 130.426 184.902 130.362C185.646 130.117 186.334 129.74 187.027 129.39C187.716 129.042 188.404 128.693 189.093 128.345C190.47 127.649 191.823 126.91 193.184 126.189C193.558 125.99 193.93 125.789 194.299 125.584C194.624 125.404 195.108 125.223 195.189 124.839C195.2 124.788 195.173 124.749 195.123 124.73Z" fill="#F1AE2E"/>
<path d="M181.456 128.628C180.553 129.539 179.674 130.477 178.799 131.412C177.933 132.335 177.016 133.252 176.31 134.288C176.2 134.449 176.433 134.578 176.571 134.477C177.598 133.72 178.482 132.782 179.373 131.887C180.268 130.989 181.17 130.092 182.04 129.173C182.389 128.803 181.819 128.261 181.456 128.628Z" fill="#F1AE2E"/>
<path d="M193.447 133.631C193.243 133.381 193.027 133.138 192.815 132.894C192.381 132.393 191.933 131.899 191.554 131.359C191.178 130.824 190.713 130.339 190.282 129.841C190.068 129.594 189.854 129.347 189.64 129.1C189.414 128.838 189.188 128.472 188.87 128.306C188.498 128.112 187.949 128.438 188.106 128.855C188.231 129.187 188.548 129.447 188.793 129.71C189.016 129.948 189.239 130.186 189.462 130.424C189.916 130.908 190.349 131.427 190.852 131.866C191.347 132.298 191.785 132.782 192.23 133.258C192.453 133.496 192.672 133.738 192.9 133.972C193.105 134.182 193.34 134.465 193.67 134.474C193.721 134.475 193.791 134.434 193.799 134.382C193.842 134.085 193.629 133.855 193.447 133.631Z" fill="#F1AE2E"/>
<path d="M212.295 124.216H201.873V133.956H212.295V124.216Z" fill="#F5CB49"/>
<path d="M207.833 122.621H206.133V125.827H207.833V122.621Z" fill="#A3C7E9"/>
<path d="M226.152 124.216H215.73V133.956H226.152V124.216Z" fill="#F5CB49"/>
<path d="M221.69 122.621H219.99V125.827H221.69V122.621Z" fill="#A3C7E9"/>
<path d="M240.019 124.216H229.598V133.956H240.019V124.216Z" fill="#F5CB49"/>
<path d="M235.559 122.621H233.859V125.827H235.559V122.621Z" fill="#A3C7E9"/>
<path d="M68.6833 129.019C68.6833 129.019 41.2128 129.019 38.3771 129.019C35.5409 129.019 30.1622 129.745 30.2732 135.659C30.3841 141.572 33.4922 175.497 33.4922 175.497H74.1229L68.6833 129.019Z" fill="#1C1822"/>
<path d="M36.2288 130.671C38.6622 131.858 39.8325 134.475 40.3506 136.867C40.6597 138.291 40.8175 139.745 40.9803 141.189C41.1497 142.691 41.3399 144.194 41.4545 145.701C41.5691 147.206 41.7136 148.709 41.8483 150.213C41.9836 151.717 42.1713 153.218 42.2774 154.724C42.4907 157.737 42.812 160.74 43.0942 163.748C43.2356 165.253 43.3758 166.757 43.53 168.26C43.6062 169.004 43.6879 169.748 43.7403 170.494C43.7677 170.882 43.7757 171.266 43.7891 171.654C43.8019 172.026 43.8586 172.401 43.8927 172.772C43.9268 173.142 43.886 173.516 43.897 173.889C43.8988 173.94 43.8068 173.955 43.7976 173.901C43.7354 173.551 43.6202 173.208 43.5788 172.858C43.5349 172.486 43.5075 172.11 43.4508 171.74C43.3374 170.996 43.2063 170.256 43.1277 169.506C42.9735 168.03 42.8162 166.555 42.6492 165.081C42.4804 163.591 42.3115 162.102 42.1488 160.612C41.9879 159.137 41.8586 157.655 41.6502 156.185C41.229 153.214 40.9437 150.227 40.5944 147.248C40.4213 145.772 40.236 144.301 40.0964 142.822C39.9599 141.373 39.8709 139.913 39.6825 138.47C39.3613 136.011 38.6195 133.473 36.6147 131.734C36.3867 131.537 36.1721 131.331 35.9241 131.155C35.6242 130.942 35.8771 130.499 36.2288 130.671Z" fill="#2A2433"/>
<path d="M117.74 164.806H121.353C121.353 164.806 125.637 163.236 127.906 163.001C130.174 162.765 133.451 168.968 133.451 168.968H117.068L117.74 164.806Z" fill="#F79F7D"/>
<path d="M78.2538 152.766C78.2538 152.766 82.0098 165.727 92.2667 169.642C110.758 169.642 118.56 169.642 118.56 169.642L118.446 163.433L94.8676 158.166C94.8676 158.166 86.9807 140.617 84.5248 139.132C82.0683 137.647 74.3533 146.015 78.2538 152.766Z" fill="#F1AE2E"/>
<path d="M79.9747 135.492C79.9747 135.492 83.2754 136.911 85.3747 140.063C86.5389 141.809 81.7972 151.658 80.2673 154.34C78.7373 157.021 78.4502 158.987 78.2588 160.597C78.0674 162.205 78.1869 170.493 78.1869 170.493H46.4336C46.4336 170.493 47.1986 159.052 48.9206 151.544C50.6419 144.036 54.8503 136.796 55.6152 135.991C56.3802 135.187 63.9813 133.303 63.9813 133.303L79.9747 135.492Z" fill="#F5CB49"/>
<path d="M76.3996 157.636C76.0217 157.485 75.642 157.343 75.2336 157.283C74.8124 157.221 74.3893 157.167 73.9651 157.121C73.1136 157.029 72.2596 156.976 71.4025 156.96C69.7013 156.928 67.9994 157.032 66.3159 157.259C62.9426 157.714 59.6407 158.702 56.6082 160.153C55.7682 160.556 54.9435 160.989 54.156 161.476C53.3465 161.976 52.626 162.535 51.9165 163.152C51.8659 163.196 51.9317 163.277 51.9908 163.242C52.6888 162.826 53.4099 162.443 54.1139 162.037C54.8307 161.624 55.5616 161.227 56.3065 160.859C57.7889 160.127 59.3359 159.51 60.925 159.013C64.0764 158.027 67.399 157.507 70.7229 157.493C71.6665 157.489 72.6107 157.527 73.5518 157.597C74.0157 157.632 74.4789 157.677 74.9404 157.731C75.417 157.788 75.8779 157.796 76.3576 157.781C76.4326 157.779 76.4813 157.668 76.3996 157.636Z" fill="#F1AE2E"/>
<path d="M73.8641 165.341C70.9401 165.289 68.0185 165.182 65.0951 165.095C63.6505 165.052 62.2022 165.061 60.757 165.046C59.3105 165.03 57.8653 165.017 56.4188 165.018C55.6185 165.019 54.8187 165.019 54.019 165.031C53.6179 165.037 53.2187 165.041 52.8188 165.067C52.3921 165.095 52.0124 165.22 51.607 165.343C51.5662 165.355 51.5656 165.408 51.607 165.421C51.9417 165.522 52.2824 165.656 52.6341 165.684C53.0029 165.714 53.3717 165.723 53.7417 165.729C54.4646 165.739 55.1875 165.744 55.9111 165.745C57.3728 165.746 58.8338 165.738 60.2955 165.723C61.7414 165.707 63.1879 165.692 64.6337 165.676C66.0796 165.661 67.5266 165.589 68.9719 165.543C70.6024 165.492 72.2323 165.452 73.8641 165.422C73.9202 165.421 73.9202 165.342 73.8641 165.341Z" fill="#F1AE2E"/>
<path d="M55.6138 135.991C52.218 136.587 37.0884 152.219 41.6716 158.174C46.2548 164.129 55.4212 153.682 57.5448 148.981C59.6691 144.28 64.7497 134.389 55.6138 135.991Z" fill="#F1AE2E"/>
<path d="M77.1975 170.127H106.602V167.118H77.1975V170.127Z" fill="#452F59"/>
<path d="M66.0837 170.127H84.6152V167.118H66.0837V170.127Z" fill="#311D41"/>
<path d="M74.0281 113.594C73.897 113.622 69.735 114.19 67.5248 117.407C65.3146 120.625 64.6819 126.887 63.2793 129.31C65.4895 131.892 71.6527 131.535 75.9884 130.939C80.3241 130.343 86.6573 133.163 86.6573 133.044C86.6573 132.925 87.6351 130.145 86.0624 126.57C84.4898 122.994 84.8299 120.254 83.6395 117.553C82.4496 114.851 79.5994 112.377 74.0281 113.594Z" fill="#A44E2A"/>
<path d="M78.4121 117.27C78.4121 117.27 81.4915 117.184 82.4156 119.141C83.3397 121.098 82.9873 123.931 83.7395 126.019C84.4917 128.108 85.3097 129.444 85.1561 131.314C83.9553 130.595 80.198 128.983 77.4886 129.098C74.7785 129.213 78.4121 117.27 78.4121 117.27Z" fill="#903A1F"/>
<path d="M79.6203 135.493C79.6203 135.493 78.9474 139.676 73.6016 139.771C68.2577 139.866 64.9997 137.298 63.627 133.302C67.4427 132.208 68.6131 131.969 69.1226 131.209C69.3207 130.912 69.6206 130.022 69.9138 129.045C70.3673 127.52 70.8032 125.786 70.8032 125.786L76.9121 129.544C76.9121 129.544 76.2934 130.908 76.2635 132.137C76.2507 132.67 76.3489 133.179 76.6561 133.539C77.7246 134.397 79.6203 135.493 79.6203 135.493Z" fill="#EF8764"/>
<path d="M76.9123 129.544C76.9123 129.544 76.2936 130.908 76.2637 132.137C73.2465 131.584 71.2197 130.287 69.9141 129.046C70.3676 127.521 70.8034 125.786 70.8034 125.786L76.9123 129.544Z" fill="#E4685F"/>
<path d="M80.3838 117.652C81.4926 118.057 82.2052 119.075 82.1765 120.187C82.1534 121.101 82.1393 122.453 82.2131 123.566C82.3368 125.441 80.0583 129.707 78.2132 130.154C76.2493 130.126 74.2865 129.335 72.5359 128.377C70.3513 127.18 69.5637 124.862 71.151 122.951C71.2662 122.812 71.3765 122.698 71.4747 122.614C72.1598 122.023 74.6004 120.124 74.2597 116.466C74.2597 116.466 75.3794 116.951 76.7973 117.081C77.9725 117.189 79.2958 117.254 80.3838 117.652Z" fill="#F79F7D"/>
<path d="M79.1036 119.664C78.9378 119.476 78.0704 121.364 78.6544 122.477C78.9689 123.148 79.7723 123.42 79.7814 123.62C79.8076 124.18 78.3398 124.577 78.3398 124.577C78.3398 124.577 80.5123 124.329 80.5415 123.525C80.5574 123.072 79.4029 122.999 78.9756 121.991C78.5489 120.983 79.1664 119.734 79.1036 119.664Z" fill="#E4685F"/>
<path d="M75.5645 125.336C75.5645 125.336 75.9076 126.297 77.2566 126.533C78.6055 126.768 79.3601 125.549 79.3601 125.549L75.5645 125.336Z" fill="white"/>
<path d="M75.2305 125.12C75.2305 125.12 75.3506 125.441 77.487 125.575C79.3846 125.623 79.7613 125.514 79.7613 125.514L75.2305 125.12Z" fill="#E4685F"/>
<path d="M74.1211 121.772C74.1211 121.772 74.9513 121.33 75.7961 121.35C76.8775 121.377 77.4322 122.142 77.4322 122.142C77.4322 122.142 75.8156 122.077 74.1211 121.772Z" fill="#2A2433"/>
<path d="M74.002 120.746C74.002 120.746 75.0077 120.185 77.2472 119.976C77.6708 119.937 78.0299 119.65 78.1195 119.261C78.1304 119.214 78.1304 119.194 78.1304 119.194C78.1304 119.194 75.371 119.136 74.002 120.746Z" fill="#2A2433"/>
<path d="M80.908 121.981C80.908 122.362 80.5776 122.671 80.1698 122.671C79.762 122.671 79.4316 122.362 79.4316 121.981C79.4316 121.6 79.762 121.291 80.1698 121.291C80.5776 121.291 80.908 121.601 80.908 121.981Z" fill="#2A2433"/>
<path d="M79.4082 119.679C79.4082 119.679 79.4076 120.149 79.7556 120.321C80.0366 120.437 81.2435 120.295 82.0713 120.572C81.9348 120.111 81.3137 119.897 80.8138 119.825C80.3134 119.752 79.5484 119.795 79.4082 119.679Z" fill="#2A2433"/>
<path d="M77.7947 127.915C77.2163 127.446 75.0183 127.339 75.2426 127.837C75.4675 128.334 78.8609 128.78 77.7947 127.915Z" fill="#EF8764"/>
<path d="M65.7266 121.657L71.4771 119.322L75.2051 128.551L69.0577 130.886L65.7266 121.657Z" fill="#2A2433"/>
<path d="M67.7954 136.955C67.7954 136.955 70.3104 133.934 71.0887 132.115C71.8671 130.296 70.6992 126.067 70.6992 126.067C70.6992 126.067 74.1054 125.294 74.2999 124.794C74.4943 124.294 68.9474 125.431 68.9474 125.431C68.9474 125.431 70.1641 124.658 70.9425 124.203C71.7209 123.748 73.5696 123.339 73.4239 122.794C73.2776 122.248 68.8017 123.658 68.1202 124.431C68.1202 124.431 69.1577 123.114 70.3207 122.42C71.4837 121.726 72.8723 121.2 72.8796 120.857C72.8869 120.514 72.3481 120.495 71.5063 120.712C70.6645 120.93 69.435 121.613 68.8036 121.965C68.1721 122.317 67.7509 122.928 67.7509 122.928C67.7509 122.928 68.4451 121.332 68.898 120.313C69.4564 119.058 70.414 118.464 69.8489 118.092C69.2839 117.719 67.2858 120.153 66.5769 121.758C65.868 123.362 66.1447 124.801 66.0782 125.267C66.0118 125.733 67.1748 129.936 66.7762 130.899C66.3775 131.862 64.1838 134.191 64.1954 134.222C64.2057 134.252 67.7954 136.955 67.7954 136.955Z" fill="#F79F7D"/>
<path d="M64.2912 133.205L69.5699 136.21C69.5699 136.21 64.7038 144.782 63.1684 147.114C61.6329 149.446 55.8008 157.993 50.1862 159.742C44.5716 161.49 41.2801 159.803 40.9918 157.157C40.7041 154.51 41.9725 150.415 46.51 146.752C48.677 145.004 49.6589 144.945 54.6012 141.089C59.544 137.232 64.2912 133.205 64.2912 133.205Z" fill="#F5CB49"/>
<path d="M69.8311 136.136C69.3197 136.458 69.0003 136.939 68.6663 137.415C68.3298 137.895 68.0354 138.406 67.7215 138.899C67.076 139.913 66.4463 140.936 65.8173 141.959C65.1961 142.969 64.5835 143.985 63.9453 144.986C63.3187 145.968 62.6464 146.922 62.0076 147.898C59.7291 151.376 57.4658 154.993 53.8829 157.454C52.9613 158.087 51.9774 158.662 50.9351 159.105C50.4207 159.324 49.8916 159.548 49.3515 159.706C48.806 159.866 48.2379 159.932 47.6972 160.102C47.5478 160.148 47.5777 160.344 47.7338 160.354C48.25 160.388 48.7554 160.279 49.2564 160.167C49.763 160.053 50.2664 159.946 50.7596 159.785C51.7166 159.473 52.6608 159.039 53.5135 158.529C55.3263 157.444 56.899 156.046 58.265 154.498C59.7346 152.832 60.9671 150.999 62.1466 149.147C62.7604 148.182 63.3151 147.191 63.8929 146.207C64.5147 145.148 65.201 144.121 65.8666 143.085C66.5957 141.951 67.3338 140.821 68.0446 139.676C68.3999 139.103 68.7547 138.531 69.1101 137.957C69.4544 137.403 69.8177 136.808 69.8763 136.16C69.8763 136.139 69.8488 136.125 69.8311 136.136Z" fill="#F1AE2E"/>
<path d="M172.004 169.711L171.924 198.96L48.8242 198.624L48.9035 169.544C48.9035 169.544 172.278 169.456 172.004 169.711Z" fill="#F29755"/>
<path d="M49.3133 169.375L49.2334 198.625L9.62305 198.505L9.70229 169.426C9.70229 169.426 49.4114 169.121 49.3133 169.375Z" fill="#D57146"/>
<path d="M47.9416 168.895L47.8398 198.615L50.2598 198.622L50.3615 168.902L47.9416 168.895Z" fill="white"/>
<path d="M6.32628 168.073L6.31836 170.335L177.735 170.817L177.742 168.369L6.32628 168.073Z" fill="#452F59"/>
<path d="M6.3261 168.069L6.31836 170.33L53.8254 170.472L53.8332 168.211L6.3261 168.069Z" fill="#5B3F77"/>
<path d="M93.4016 179.757L124.274 179.85C125.462 179.853 126.428 178.956 126.432 177.847C126.436 176.736 125.476 175.833 124.288 175.83L93.4156 175.737C92.2276 175.734 91.2615 176.63 91.2578 177.741C91.2536 178.851 92.2136 179.754 93.4016 179.757Z" fill="#D57146"/>
<path d="M66.6445 184.397L57.4543 192.986C57.2995 193.13 57.5396 193.355 57.6945 193.21L64.8554 186.518C65.532 185.886 66.208 185.254 66.8846 184.622C67.0389 184.477 66.7987 184.252 66.6445 184.397Z" fill="#D57146"/>
<path d="M72.6998 182.302C69.9105 184.909 67.1212 187.515 64.3319 190.122C63.5352 190.867 62.7379 191.612 61.9406 192.356C61.7858 192.501 62.026 192.725 62.1808 192.581L72.9399 182.526C73.0948 182.382 72.8546 182.158 72.6998 182.302Z" fill="#D57146"/>
<path d="M152.945 179.369L142.82 188.831C141.862 189.727 140.903 190.623 139.945 191.519C139.79 191.664 140.03 191.888 140.185 191.743L150.309 182.281C151.268 181.386 152.226 180.49 153.185 179.594C153.34 179.449 153.1 179.225 152.945 179.369Z" fill="#D57146"/>
<path d="M159.438 178.322C156.007 181.528 152.577 184.735 149.146 187.941L146.214 190.681C146.059 190.825 146.299 191.05 146.454 190.905L159.679 178.546C159.833 178.402 159.593 178.177 159.438 178.322Z" fill="#D57146"/>
<path d="M194.064 198.455H0.539223C-0.179436 198.455 -0.180046 199.499 0.539223 199.499H194.064C194.783 199.498 194.784 198.455 194.064 198.455Z" fill="#D57146"/>
<path d="M100.781 151.392C100.781 154.948 102.79 155.041 104.415 155.041H107.096C107.135 155.041 107.155 155.041 107.155 155.041H154.356C157.073 155.041 158.657 153.984 158.657 151.658V123.423C158.657 120.992 156.588 119.722 153.566 119.722C153.566 119.722 120.916 119.722 110.209 119.722H107.343C102.365 119.722 101.475 122.256 101.475 124.16C101.476 126.063 100.781 147.639 100.781 151.392Z" fill="#452F59"/>
<path d="M122.47 143.393H139.078V133.579H122.47V143.393Z" fill="#1C1822"/>
<path d="M100.781 151.392C100.781 154.948 102.79 155.041 104.415 155.041H106.828C105.2 155.041 103.194 154.948 103.194 151.392C103.194 147.638 103.886 126.063 103.886 124.16C103.886 122.256 104.777 119.722 109.756 119.722H107.344C102.365 119.722 101.476 122.256 101.476 124.16C101.476 126.063 100.781 147.639 100.781 151.392Z" fill="#311D41"/>
<path d="M126.886 167.372H133.832V135.521H126.886V167.372Z" fill="#1C1822"/>
<path d="M127.97 167.372H134.916V135.521H127.97V167.372Z" fill="#311D41"/>
<path d="M123.014 168.368H146.68V165.359H123.014V168.368Z" fill="#452F59"/>
<path d="M114.073 168.368H124.494V165.359H114.073V168.368Z" fill="#311D41"/>
<path d="M123.862 105.704C122.893 104.677 121.588 103.988 120.301 103.333C119.014 102.678 117.696 102.022 116.673 101.041C115.207 99.6318 114.701 97.3224 114.254 95.4021C113.396 91.7222 109.49 88.8813 105.463 89.0078C102.749 89.0932 99.8376 90.3208 97.4652 89.0864C95.2124 87.914 94.6942 85.1461 93.2283 83.1631C91.4459 80.7523 87.9855 79.5469 84.9494 80.2801C81.9138 81.0127 79.5104 83.6336 79.2001 86.5491C79.0526 87.9351 79.336 89.3353 79.2147 90.7236C79.0934 92.1118 78.4193 93.606 77.0368 94.1261C76.3072 94.4007 75.4879 94.3642 74.7266 94.5505C73.3783 94.8809 72.1543 97.082 71.7014 98.2715C71.148 99.727 71.0779 101.374 70.1209 102.681C69.3364 103.752 67.9935 104.334 66.6757 104.743C65.3572 105.151 63.9723 105.447 62.8057 106.152C61.639 106.856 60.8118 108.254 61.0343 109.535H84.3551L125.021 109.491C125.421 108.173 124.832 106.731 123.862 105.704Z" fill="#8BC53F"/>
<path d="M91.9978 101.339C91.9978 101.339 88.4971 100.684 85.194 98.1605C81.8933 95.6347 77.3899 99.0953 75.0895 95.9155C72.7891 92.7374 75.6893 90.0247 72.789 88.342C69.8864 86.6592 66.5857 88.5288 64.7851 86.2855C62.9826 84.0405 63.683 78.6186 62.1823 76.6538C60.6822 74.6908 57.3809 75.2519 57.3809 75.2519C57.3809 75.2519 57.3827 75.2502 57.3827 75.2485C57.429 75.1602 58.2403 73.7423 63.1819 73.2889C68.2851 72.8218 67.9852 75.9064 72.0881 76.6538C76.1891 77.4018 78.0897 78.1514 79.0918 80.4882C80.0921 82.8249 78.7584 84.5737 81.6927 85.1639C84.6265 85.7523 86.051 83.7221 88.396 86.8466C90.7391 89.9712 87.6956 94.3268 91.8966 97.972C91.9112 98.4636 91.9246 98.8823 91.9356 99.2406C91.9978 101.339 91.9978 101.339 91.9978 101.339Z" fill="#5D8E3F"/>
<path d="M91.9377 99.2406C84.3116 96.3672 82.8652 92.0202 77.4914 87.8743C71.188 83.0117 70.7882 77.0275 64.9865 75.1579C59.3317 73.335 57.4774 75.1544 57.3848 75.2479C57.4311 75.1596 58.2424 73.7417 63.184 73.2883C68.2872 72.8211 67.9873 75.9058 72.0901 76.6532C76.1912 77.4012 78.0918 78.1508 79.0939 80.4876C80.0941 82.8243 78.7604 84.5731 81.6948 85.1633C84.6286 85.7517 86.0531 83.7215 88.398 86.846C90.7411 89.9706 87.6977 94.3262 91.8987 97.9714C91.9139 98.463 91.9267 98.8823 91.9377 99.2406Z" fill="#7DAD41"/>
<path d="M93.0161 90.9971C91.7397 85.4247 85.7752 87.2163 83.7528 84.928C81.7284 82.638 83.9661 79.7521 83.4321 76.5672C82.9006 73.3839 77.3622 74.5762 75.9786 71.4915C74.5949 68.4069 77.5756 66.7156 78.001 64.1276C78.4271 61.5397 75.6598 61.9379 72.4054 60.5046C69.151 59.0697 71.079 56.8623 69.4826 53.8761C67.8862 50.8917 62.5605 50.9903 62.5605 50.9903C62.5605 50.9903 62.566 50.9885 62.577 50.9851C67.6875 49.2004 74.5985 49.7991 78.3217 52.4845C81.4688 54.754 80.83 58.4288 85.9886 60.6448C91.1472 62.8607 92.3791 62.9331 91.9049 67.8099C91.4288 72.6861 91.7403 73.0843 95.1465 76.668C98.5544 80.2488 96.1059 90.5003 93.0161 90.9971Z" fill="#5D8E3F"/>
<path d="M93.0191 90.9971C94.0048 81.8382 86.9956 70.5824 80.5551 59.1973C74.2572 48.0668 63.0787 50.8553 62.5801 50.9851C67.6905 49.2004 74.6016 49.7991 78.3247 52.4845C81.4718 54.754 80.833 58.4288 85.9917 60.6448C91.1503 62.8607 92.3822 62.9331 91.9079 67.8099C91.4319 72.6861 91.7434 73.0843 95.1495 76.668C98.5575 80.2488 96.109 90.5003 93.0191 90.9971Z" fill="#7DAD41"/>
<path d="M134.916 79.1306H95.5938V85.2413H134.916V79.1306Z" fill="#2A2433"/>
<path d="M96.3749 78.9218H95.0352V85.1891H96.3749V78.9218Z" fill="#1C1822"/>
<path d="M118.287 78.9218H116.947V85.1891H118.287V78.9218Z" fill="#1C1822"/>
<path d="M136.754 79.4448V78.5322H94.0745V79.4448H136.754Z" fill="#1C1822"/>
<path d="M118.086 80.7856C117.745 80.7252 117.399 80.6295 117.052 80.6113C116.682 80.5913 116.312 80.5924 115.941 80.5907C115.216 80.5873 114.49 80.5845 113.765 80.5868C112.299 80.5919 110.833 80.5976 109.367 80.6027C106.465 80.6135 103.563 80.6107 100.662 80.613C99.8589 80.6135 99.0567 80.6124 98.2539 80.6278C97.4371 80.6437 96.6508 80.7138 95.8425 80.8209C95.8285 80.8226 95.8285 80.8454 95.8425 80.8471C96.5563 80.9416 97.2543 81.0203 97.9766 81.0345C98.7019 81.0487 99.4273 81.0539 100.153 81.0544C101.619 81.0556 103.085 81.0567 104.551 81.0579C107.453 81.0601 110.354 81.0687 113.256 81.0795C114.059 81.0824 114.861 81.0824 115.664 81.0789C116.064 81.0772 116.468 81.0886 116.868 81.067C117.282 81.0448 117.679 80.9547 118.086 80.883C118.137 80.8744 118.137 80.7947 118.086 80.7856Z" fill="#1C1822"/>
<path d="M111.613 82.2912C110.49 82.2673 109.361 82.2958 108.24 82.2394C107.128 82.1835 106.026 82.1123 104.913 82.1072C102.679 82.0964 100.446 82.0799 98.2125 82.0827C97.9047 82.0833 97.5962 82.0833 97.2884 82.0839C97.1342 82.0839 96.9806 82.0844 96.8264 82.0844C96.6825 82.0844 96.5027 82.1146 96.3643 82.085C96.3424 82.0907 96.3205 82.0964 96.2991 82.1015C96.2705 82.0514 96.2308 82.0115 96.1809 81.9813C96.101 81.9238 96.0047 81.889 95.9023 81.889C95.6719 81.889 95.4811 82.0514 95.4512 82.2616C95.3891 82.6922 96.0736 82.9606 96.2991 82.5356C96.3064 82.5225 96.9477 82.5533 97.0117 82.5533C97.2579 82.5533 97.5048 82.5538 97.7511 82.5538C98.2594 82.5544 98.7678 82.5567 99.2762 82.5544C100.278 82.5498 101.279 82.5459 102.28 82.5413C103.266 82.5367 104.251 82.5327 105.238 82.5282C106.241 82.5236 107.239 82.4479 108.241 82.3972C109.363 82.3408 110.492 82.3693 111.615 82.3453C111.65 82.3448 111.65 82.2918 111.613 82.2912Z" fill="#1C1822"/>
<path d="M134.913 82.0406V82.3819C134.282 82.4217 133.65 82.4633 133.016 82.4787C130.382 82.5499 127.737 82.4975 125.101 82.4992L121.121 82.5026C120.47 82.5026 119.824 82.518 119.176 82.5442C118.881 82.5562 118.579 82.567 118.283 82.5545C118.24 82.5545 118.197 82.5528 118.157 82.5493C117.99 82.5391 117.823 82.5271 117.658 82.4941C117.487 82.4627 117.436 82.416 117.325 82.3021C117.275 82.252 117.275 82.1791 117.325 82.1306C117.458 81.9922 117.543 81.954 117.745 81.921C117.921 81.8897 118.105 81.8811 118.282 81.8777H118.295C118.666 81.8726 119.036 81.8811 119.406 81.8965C120.147 81.9244 120.886 81.9296 121.629 81.9296C124.266 81.9313 126.906 81.933 129.544 81.9364C130.868 81.9364 132.202 81.9016 133.524 81.9677C133.988 81.9905 134.452 82.0167 134.913 82.0406Z" fill="#1C1822"/>
<path d="M135.415 78.9216H134.074V85.189H135.415V78.9216Z" fill="#1C1822"/>
<path d="M181.028 39.7466C181.028 39.7466 208.499 39.7466 211.334 39.7466C214.17 39.7466 219.549 40.4729 219.438 46.3865C219.327 52.3001 216.219 86.2253 216.219 86.2253H175.588L181.028 39.7466Z" fill="#1C1822"/>
<path d="M213.488 41.3986C211.055 42.5863 209.885 45.2033 209.367 47.5947C209.058 49.0194 208.9 50.4732 208.737 51.9173C208.568 53.4194 208.377 54.9222 208.263 56.4289C208.148 57.934 208.004 59.4373 207.869 60.9406C207.734 62.445 207.546 63.9455 207.44 65.4523C207.226 68.4646 206.905 71.4684 206.623 74.4762C206.482 75.9806 206.341 77.4845 206.187 78.9878C206.111 79.7323 206.029 80.4757 205.977 81.222C205.949 81.6099 205.941 81.9944 205.928 82.3824C205.915 82.7538 205.859 83.1292 205.824 83.4995C205.79 83.8703 205.831 84.244 205.82 84.6166C205.818 84.669 205.91 84.6826 205.92 84.6291C205.982 84.2793 206.097 83.9364 206.138 83.5855C206.182 83.2141 206.21 82.8381 206.266 82.4684C206.38 81.7239 206.511 80.9839 206.589 80.2342C206.744 78.7582 206.901 77.2828 207.068 75.8086C207.237 74.3189 207.406 72.8299 207.568 71.3396C207.729 69.8648 207.858 68.3831 208.066 66.914C208.488 63.9427 208.773 60.956 209.122 57.9761C209.295 56.5007 209.481 55.0293 209.62 53.5499C209.757 52.1018 209.846 50.6412 210.034 49.1983C210.355 46.7385 211.097 44.2007 213.102 42.4621C213.33 42.2645 213.544 42.0594 213.792 41.8834C214.092 41.6698 213.84 41.2271 213.488 41.3986Z" fill="#2A2433"/>
<path d="M167.494 52.3247C167.494 52.3247 165.754 52.9747 164.619 54.4039C163.484 55.8332 156.284 70.4431 155.097 72.4318C153.91 74.4205 152.532 76.7657 153.222 79.4864C153.913 82.2065 156.725 83.1288 159.438 82.0686C162.152 81.0079 163.632 80.3164 165.704 75.6139C167.776 70.9108 171.23 65.5623 171.23 65.5623L167.494 52.3247Z" fill="#2A2433"/>
<path d="M159.176 74.5714C159.176 74.5714 160.194 74.0143 161.387 74.0838C162.579 74.1533 163.945 75.6623 164.815 75.9175C166.305 76.196 166.678 76.0337 166.678 76.2889C166.678 76.5441 166.149 77.5689 164.665 77.2869C163.182 77.0055 159.176 74.5714 159.176 74.5714Z" fill="#E4685F"/>
<path d="M153.972 78.6764C153.972 78.6764 153.668 80.7466 155.655 81.6517C157.642 82.5569 160.871 80.6304 161.417 79.2609C161.293 76.6376 158.71 75.7091 158.71 75.7091L153.972 78.6764Z" fill="#E4685F"/>
<path d="M161.143 74.2103C160.197 73.7683 155.987 75.5422 153.975 78.6764C154.029 79.3076 156.559 81.5856 157.361 81.499C158.576 81.4068 158.675 80.4315 158.675 80.4315C158.675 80.4315 159.352 80.6081 159.835 80.0447C160.332 79.4722 159.592 77.4619 159.592 77.4619C159.592 77.4619 162.694 81.654 163.574 81.732C164.455 81.8101 163.449 80.0863 163.449 80.0863C163.449 80.0863 164.329 81.0268 164.581 80.6349C164.832 80.2435 162.904 75.0329 161.143 74.2103Z" fill="#F79F7D"/>
<path d="M158.723 80.0186C158.547 79.7987 156.386 78.6013 156.259 78.5466C156.123 78.4879 155.991 78.4862 155.848 78.4566C155.814 78.4498 155.784 78.4896 155.812 78.5141C155.903 78.5944 155.968 78.6879 156.07 78.7585C156.182 78.836 158.135 80.2208 158.391 80.329C158.491 80.3712 158.604 80.3701 158.685 80.2937C158.755 80.2282 158.787 80.0983 158.723 80.0186Z" fill="#E4685F"/>
<path d="M163.553 79.9927C163.408 79.6139 163.204 79.2476 163.01 78.8893C162.813 78.5247 162.611 78.1545 162.359 77.8201C161.863 77.1615 161.421 76.47 160.809 75.8975C160.785 75.8747 160.745 75.9037 160.762 75.9317C161.176 76.6266 161.679 77.2726 162.032 77.9984C162.208 78.3612 162.413 78.7121 162.594 79.0727C162.775 79.4339 162.923 79.8087 163.104 80.1687C163.222 80.4023 163.646 80.2377 163.553 79.9927Z" fill="#E4685F"/>
<path d="M171.727 50.6305C171.727 50.6305 168.942 51.8968 167.491 52.3247C166.346 53.1808 166.499 60.3875 166.727 62.9561C166.956 65.5247 167.72 80.7231 166.422 84.9328C189.48 84.9328 199.024 84.9328 199.024 84.9328C199.024 84.9328 199.6 57.1741 196.868 50.7889C192.701 49.8917 187.689 48.3394 187.689 48.3394L171.727 50.6305Z" fill="#383044"/>
<path d="M175.264 48.3074C175.264 48.3074 173.724 49.6814 171.728 50.6304C170.818 53.8365 169.838 57.7625 170.188 60.8381L173.409 61.5251L171.098 64.0441L177.224 69.8346C177.224 69.8346 181.775 68.1006 185.206 64.567C184.226 62.473 183.981 61.492 183.981 61.492L187.447 60.7726C187.447 60.7726 188.952 57.1741 187.692 48.3404C186.081 47.4244 183.246 46.0504 183.246 46.0504L175.264 48.3074Z" fill="#2A2433"/>
<path d="M185.207 48.8559C184.824 53.9367 183.02 59.1006 180.364 64.1739L175.641 63.6008C173.108 54.291 174.683 49.098 174.683 49.098C174.683 49.098 179.614 48.456 185.207 48.8559Z" fill="#A3C7E9"/>
<path d="M180.36 64.1745C179.506 65.8071 178.563 67.4306 177.552 69.0388C176.722 67.2335 176.1 65.3947 175.637 63.6014C176.385 59.9539 177.552 54.6641 177.552 54.6641C179.493 53.3209 179.61 54.6345 179.61 54.6345C179.61 54.6345 180.099 60.0855 180.36 64.1745Z" fill="#1C1822"/>
<path d="M176.113 52.7319C176.113 52.7319 176.346 53.9031 177.551 54.6641C179.376 54.6641 179.609 54.6351 179.609 54.6351C179.609 54.6351 181.202 53.3761 181.474 52.41C180.347 51.3265 177.861 51.0343 177.861 51.0343C177.861 51.0343 176.385 51.2679 176.113 52.7319Z" fill="#1C1822"/>
<path d="M208.383 73.497C208.369 73.4941 208.355 73.501 208.351 73.5135L208.306 73.6542C208.302 73.6645 208.31 73.6764 208.321 73.6793C208.333 73.6821 208.344 73.6753 208.348 73.665C208.366 73.6189 208.383 73.5727 208.401 73.5266C208.405 73.5141 208.395 73.4993 208.383 73.497Z" fill="#1C1822"/>
<path d="M182.998 74.6289C182.998 74.6289 180.808 78.3282 181.995 81.3531C184.462 79.0221 184.654 77.7597 182.998 74.6289Z" fill="#A3C7E9"/>
<path d="M184.696 76.7959C184.696 76.7959 183.222 76.6307 181.335 76.0246C179.449 75.4185 173.635 72.4717 171.399 72.9872C169.93 73.3262 165.82 76.6678 165.771 77.0164C165.722 77.365 167.009 77.1263 168.07 76.686C169.131 76.2451 171.726 74.7577 171.726 74.7577L172.846 75.1434C172.846 75.1434 170.9 77.0716 170.37 78.0634C169.84 79.0552 169.25 80.8735 169.132 81.3691C169.014 81.8647 169.721 82.4708 170.488 81.81C171.371 82.374 172.433 81.81 172.433 81.81C172.433 81.81 172.905 82.1404 173.966 81.92C175.676 81.0381 177.091 79.6613 177.091 79.6613C177.091 79.6613 179.037 80.1575 183.399 80.1575C184.814 78.4491 184.696 76.7959 184.696 76.7959Z" fill="#F79F7D"/>
<path d="M173.623 76.8005C173.178 77.0283 172.793 77.4129 172.457 77.7615C172.108 78.1255 171.786 78.5197 171.511 78.9355C171.241 79.3446 171.011 79.7758 170.815 80.2201C170.714 80.4503 170.627 80.685 170.553 80.9236C170.485 81.139 170.418 81.3571 170.562 81.5588C170.581 81.585 170.616 81.5958 170.647 81.5799C170.844 81.4751 170.907 81.2979 170.971 81.1054C171.046 80.8792 171.132 80.6559 171.222 80.4354C171.402 80.0002 171.625 79.5804 171.881 79.1799C172.139 78.7772 172.423 78.391 172.744 78.0309C173.07 77.6669 173.458 77.3565 173.781 76.9925C173.873 76.8893 173.759 76.7304 173.623 76.8005Z" fill="#E4685F"/>
<path d="M175.158 78.0703C174.492 78.5739 173.936 79.2068 173.431 79.8499C173.179 80.1712 172.941 80.5039 172.733 80.852C172.63 81.0257 172.528 81.2012 172.436 81.3812C172.358 81.5367 172.246 81.7406 172.364 81.903C172.401 81.9542 172.452 81.9685 172.515 81.9605C172.699 81.9366 172.79 81.7537 172.864 81.6153C172.96 81.437 173.055 81.2593 173.158 81.0844C173.357 80.7443 173.564 80.4082 173.791 80.0835C174.252 79.4261 174.806 78.8473 175.362 78.2606C175.487 78.129 175.301 77.9621 175.158 78.0703Z" fill="#E4685F"/>
<path d="M186.024 73.4548C186.024 73.4548 183.208 78.756 185.583 82.0811C188.58 79.2317 188.318 76.114 188.318 76.114L186.024 73.4548Z" fill="#1C1822"/>
<path d="M183.001 74.6289C183.001 74.6289 184.003 76.9109 183.612 78.4188C183.219 79.9267 181.998 81.3531 181.998 81.3531H187.449L187.275 75.3216L183.001 74.6289Z" fill="white"/>
<path d="M209.408 79.2522C201.916 84.063 185.576 82.0811 185.576 82.0811C188.347 77.2095 186.017 73.4549 186.017 73.4549L195.331 73.0288C195.331 73.0288 193.69 54.2319 197.1 50.79C203.373 53.1484 203.716 66.0209 206.988 69.5265C210.262 73.0305 208.898 72.9046 208.966 74.5617C209.034 76.2166 209.886 77.0853 209.408 79.2522Z" fill="#2A2433"/>
<path d="M205.584 72.7781C205.185 72.6642 204.756 72.6944 204.343 72.6978C203.903 72.7006 203.462 72.7063 203.021 72.7024C202.156 72.6938 201.29 72.691 200.425 72.6813C199.559 72.6716 198.693 72.6847 197.828 72.6932C197.387 72.6978 196.946 72.7029 196.506 72.7132C196.086 72.7229 195.644 72.7001 195.229 72.7662C195.053 72.7941 195.05 73.076 195.229 73.1005C195.646 73.1575 196.085 73.1267 196.506 73.1273C196.946 73.1279 197.387 73.1245 197.828 73.1193C198.693 73.1097 199.56 73.104 200.425 73.076C201.29 73.0481 202.156 73.0265 203.021 72.9997C203.462 72.986 203.903 72.9826 204.343 72.9758C204.756 72.9701 205.188 72.9912 205.584 72.8693C205.631 72.8545 205.633 72.7918 205.584 72.7781Z" fill="#1C1822"/>
<path d="M202.926 71.4263C202.821 71.0788 202.458 70.9147 202.128 70.7923C200.749 70.2801 199.138 70.377 197.794 70.933C197.061 71.236 196.294 71.7031 195.877 72.3582C195.823 72.4443 195.939 72.5713 196.034 72.5046C196.514 72.1668 196.97 71.8097 197.507 71.5488C198.057 71.2816 198.652 71.0999 199.264 71.0042C199.857 70.9119 200.48 70.9125 201.071 71.0099C201.376 71.06 201.672 71.1363 201.963 71.2337C202.142 71.2936 202.784 71.5852 202.389 71.7761C202.25 71.8433 202.052 71.8199 201.901 71.8165C201.669 71.8114 201.438 71.8091 201.207 71.8091C200.766 71.8097 200.272 71.7698 199.848 71.9008C199.789 71.919 199.794 71.988 199.848 72.0079C200.292 72.1754 200.829 72.1589 201.299 72.1879C201.681 72.2118 202.134 72.287 202.506 72.1714C202.847 72.0649 203.025 71.7527 202.926 71.4263Z" fill="#1C1822"/>
<path d="M188.352 79.99C187.774 79.99 187.773 80.8297 188.352 80.8297C188.93 80.8297 188.931 79.99 188.352 79.99Z" fill="white"/>
<path d="M190.8 80.3289C190.775 80.2463 190.731 80.1739 190.665 80.113C190.63 80.0873 190.595 80.0623 190.559 80.0366C190.478 79.9922 190.39 79.97 190.295 79.97C190.223 79.9677 190.156 79.9814 190.094 80.0121C190.028 80.0321 189.972 80.0657 189.925 80.1135C189.874 80.158 189.838 80.2104 189.817 80.2707C189.784 80.3289 189.769 80.3921 189.772 80.4593C189.778 80.5026 189.784 80.5459 189.791 80.5892C189.816 80.6718 189.86 80.7441 189.925 80.8051C189.961 80.8307 189.996 80.8558 190.031 80.8814C190.113 80.9259 190.201 80.9481 190.295 80.9481C190.367 80.9509 190.434 80.9367 190.497 80.9059C190.562 80.886 190.618 80.8524 190.665 80.8051C190.717 80.7607 190.752 80.7082 190.774 80.6479C190.807 80.5898 190.821 80.5265 190.819 80.4593C190.812 80.4154 190.806 80.3721 190.8 80.3289Z" fill="white"/>
<path d="M192.821 79.9558C192.128 79.9558 192.127 80.9618 192.821 80.9618C193.513 80.9618 193.514 79.9558 192.821 79.9558Z" fill="white"/>
<path d="M209.356 73.3636C209.339 73.2275 209.29 73.0993 209.269 72.9637C209.249 72.8253 209.221 72.6937 209.168 72.5621C209.142 72.4983 209.038 72.5046 209.037 72.5786C209.034 72.7244 209.047 72.8794 209.014 73.0224C208.982 73.1637 208.899 73.2992 208.846 73.4365C208.74 73.7077 208.644 73.9805 208.523 74.246C208.278 74.7775 207.968 75.2782 207.706 75.8017C207.452 76.3087 207.296 76.8094 207.241 77.3677C207.215 77.6297 207.213 77.8872 207.258 78.1476C207.303 78.4096 207.431 78.6204 207.594 78.8346C207.672 78.9371 207.886 78.879 207.83 78.7417C207.64 78.274 207.598 77.693 207.735 77.2093C207.887 76.6687 208.202 76.1555 208.49 75.6684C208.777 75.1819 209.091 74.6898 209.253 74.1509C209.328 73.8979 209.389 73.6268 209.356 73.3636Z" fill="#1C1822"/>
<path d="M174.682 49.0981C174.159 50.8367 174.494 53.7869 175.167 55.0795C175.967 53.6975 176.501 52.2927 177.107 52.315C177.712 52.3377 178.246 52.6773 178.246 52.6773C178.246 52.6773 179.822 51.7482 180.768 52.4277C181.713 53.1073 182.441 55.1239 182.441 55.1239C182.441 55.1239 185.346 51.4109 185.253 48.2134C185.187 45.9348 183.902 44.5529 181.696 43.8955C179.489 43.2398 175.676 45.7901 174.682 49.0981Z" fill="white"/>
<path d="M183.924 47.2842C183.699 49.3389 179.899 51.9838 178.483 52.0898C177.563 52.157 176.911 51.711 176.485 51.0251C176.133 50.4623 176.014 49.7992 176.088 49.1521C176.135 48.7641 176.138 48.3973 176.115 48.0583C176.015 46.6268 175.428 45.6817 175.428 45.6817C175.428 45.6817 181.353 41.3991 183.215 40.634C183.12 41.7295 183.27 43.2408 183.498 44.7731C183.625 45.6259 183.777 46.4861 183.924 47.2842Z" fill="#F79F7D"/>
<path d="M183.263 42.8665C183.432 44.7185 182.327 46.4878 180.505 47.2312C180.489 47.2375 180.474 47.2437 180.458 47.25C178.536 48.0185 177.045 48.117 176.115 48.0583C176.015 46.6268 175.428 45.6817 175.428 45.6817C175.428 45.6817 181.353 41.3991 183.215 40.634C183.16 41.2646 183.187 42.0342 183.263 42.8665Z" fill="#E4685F"/>
<path d="M171.817 36.1229C171.817 36.1229 168.994 36.1018 168.495 38.6767C167.995 41.251 170.043 42.4233 171.717 42.507C172.066 37.6297 171.817 36.1229 171.817 36.1229Z" fill="#452F59"/>
<path d="M186.062 39.201C186.186 39.0837 187.51 37.4527 187.458 35.2368C187.406 33.0208 184.824 32.6762 184.824 32.6762C184.824 32.6762 184.613 30.0911 182.136 29.2537C179.659 28.4163 176.224 28.3519 173.405 29.2383C170.586 30.1247 170.413 34.5435 170.361 36.0206C170.308 37.4977 170.617 40.542 172.698 41.3298C174.779 42.1176 183.743 41.3925 186.062 39.201Z" fill="#A44E2A"/>
<path d="M171.479 35.0259C171.479 35.0259 171.269 31.551 173.334 31.1836C175.399 30.8162 182.446 30.9996 183.364 34.0324C184.708 34.0017 186.182 35.3187 186.15 36.0849C186.117 36.8505 185.986 40.7099 182.249 41.0779C178.513 41.4448 171.479 35.0259 171.479 35.0259Z" fill="#903A1F"/>
<path d="M171.474 35.0259C171.474 35.0259 170.461 44.8826 173.277 46.0384C176.092 47.1943 179.547 46.4372 181.423 44.8029C183.3 43.1685 183.236 40.2171 183.576 39.0214C183.011 39.4954 182.662 39.6338 182.662 39.6338L182.703 37.5882L181.594 37.5483L181.999 35.0783C181.999 35.0783 177.318 36.0621 171.474 35.0259Z" fill="#F79F7D"/>
<path d="M171.713 39.9722C171.274 39.9888 171.022 40.6963 171.662 41.0273C172.302 41.3576 173.819 41.5941 173.954 41.0899C174.088 40.5863 172.977 39.925 171.713 39.9722Z" fill="#EF8764"/>
<path d="M174.854 44.9173C174.874 45.434 177.025 45.5491 177.107 44.898C177.189 44.2474 174.835 44.4377 174.854 44.9173Z" fill="#EF8764"/>
<path d="M171.488 36.8174C171.488 36.8174 172.247 36.4813 172.966 36.6869C173.684 36.892 175.122 38.18 175.102 38.0677C175.082 37.9555 174.124 36.3326 173.105 36.0335C172.087 35.735 171.488 36.8174 171.488 36.8174Z" fill="#903A1F"/>
<path d="M171.547 38.6022C171.547 38.6022 172.839 39.1564 174.649 39.3051C173.834 38.3453 172.828 37.9397 171.547 38.6022Z" fill="#1C1822"/>
<path d="M174.721 37.524C174.721 37.524 175.365 38.6223 174.986 39.3783C174.607 40.1342 173.773 40.4412 173.659 40.7716C173.545 41.102 174.367 41.5037 175.454 41.5629C174.771 41.1966 174.164 41.0553 174.19 40.8189C174.228 40.5592 175.39 40.1456 175.479 39.2011C175.568 38.2561 174.721 37.524 174.721 37.524Z" fill="#E4685F"/>
<path d="M178.797 38.5321C177.694 38.5013 176.881 39.218 176.596 39.5797C178.145 39.4464 180.632 38.989 180.632 38.989C180.632 38.989 180.163 38.5703 178.797 38.5321Z" fill="#1C1822"/>
<path d="M176.02 37.1865C176.02 37.1865 176.409 37.5869 176.819 37.6599C177.228 37.7328 178.241 37.2412 179.275 37.3317C180.307 37.4229 180.678 37.7322 180.678 37.7322C180.678 37.7322 180.191 36.7666 179.196 36.7125C177.884 36.6407 177.54 37.3505 176.02 37.1865Z" fill="#903A1F"/>
<path d="M174.016 42.5798C174.016 42.5798 174.237 43.7567 175.95 43.718C177.663 43.6793 177.848 42.5992 177.848 42.5992L174.016 42.5798Z" fill="white"/>
<path d="M173.734 42.5058C173.811 42.5058 174.14 42.8106 175.613 42.8824C177.524 42.9752 178.168 42.495 178.168 42.495L173.734 42.5058Z" fill="#E4685F"/>
<path d="M181.182 40.3629C180.913 39.7266 177.716 40.3925 178 40.9992C178.285 41.6053 181.516 41.1535 181.182 40.3629Z" fill="#EF8764"/>
<path d="M175.799 46.2916C175.799 46.2916 175.853 45.817 175.3 45.6342C174.747 45.4513 173.966 45.3972 173.695 45.6325C173.424 45.8677 173.305 46.5707 173.761 46.8162C174.217 47.0617 174.896 47.1233 175.353 46.97C175.81 46.8168 175.799 46.2916 175.799 46.2916Z" fill="#452F59"/>
<path d="M184.19 39.4618C184.19 39.4618 184.528 37.3592 184.33 34.7787C184.132 32.1982 183.38 29.7828 180.834 28.8634C182.435 29.0258 184.575 29.8905 185.328 32.2699C186.08 34.6494 185.578 39.2454 185.019 40.1289C184.557 39.6965 184.19 39.4618 184.19 39.4618Z" fill="#1C1822"/>
<path d="M186.702 40.6814C186.398 41.6145 185.464 42.5658 184.311 42.8085C183.955 42.8843 183.58 42.8911 183.193 42.8091C182.275 42.6148 181.911 40.6 182.223 39.3712C182.537 38.1459 183.375 37.3438 184.067 36.9485C184.284 36.8249 184.763 36.8955 185.353 37.2544C185.492 37.3359 185.638 37.4373 185.785 37.554C186.621 38.2108 187.134 39.3587 186.702 40.6814Z" fill="#452F59"/>
<path d="M184.311 42.8091C183.955 42.8849 183.58 42.8917 183.193 42.8097C182.275 42.6154 181.911 40.6006 182.223 39.3718C182.537 38.1465 183.375 37.3444 184.067 36.9491C184.284 36.8255 184.763 36.8961 185.353 37.255C184.918 37.6031 183.949 38.531 183.859 39.9238C183.778 41.1776 184.105 42.2651 184.311 42.8091Z" fill="#311D41"/>
<path d="M183.509 42.2954C183.128 43.8032 182.049 45.0707 180.58 45.7834C179.801 46.161 178.942 46.361 178.07 46.4168C177.136 46.4761 176.206 46.3741 175.275 46.3485C175.161 46.3451 175.141 46.5034 175.249 46.5319C178.018 47.2656 181.246 46.6054 182.972 44.3433C183.417 43.76 183.734 43.0957 183.908 42.3985C183.968 42.1564 183.57 42.0527 183.509 42.2954Z" fill="#1C1822"/>
<path d="M164.165 68.801C164.165 72.1592 162.268 72.2475 160.733 72.2475H158.201C158.164 72.2475 158.145 72.2475 158.145 72.2475H113.568C111.002 72.2475 109.506 71.2489 109.506 69.0517V42.3862C109.506 40.091 111.46 38.8914 114.315 38.8914C114.315 38.8914 145.15 38.8914 155.262 38.8914H157.968C162.669 38.8914 163.51 41.2839 163.51 43.0823C163.509 44.8796 164.165 65.2561 164.165 68.801Z" fill="#452F59"/>
<path d="M159.918 41.2094C159.608 41.4526 159.276 41.6634 158.958 41.8953C158.629 42.1351 158.33 42.4011 158.033 42.6745C157.455 43.2094 156.876 43.7438 156.297 44.2781C155.141 45.3468 153.966 46.4035 152.862 47.5206C152.234 48.1558 151.665 48.8348 151.057 49.4853C151.02 49.5246 151.076 49.577 151.118 49.5429C151.733 49.0404 152.37 48.5642 152.98 48.0566C153.587 47.5508 154.167 47.0147 154.742 46.477C155.893 45.4015 157.036 44.3191 158.18 43.2374C158.494 42.9406 158.809 42.6483 159.096 42.3276C159.403 41.983 159.665 41.6064 159.975 41.2624C160.007 41.2248 159.957 41.1781 159.918 41.2094Z" fill="#5B3F77"/>
<path d="M157.992 46.621C157.684 46.8768 157.376 47.165 157.031 47.3769C156.721 47.5666 156.444 47.7882 156.166 48.0183C155.57 48.5134 155.019 49.0563 154.463 49.5906C153.917 50.1147 153.355 50.6268 152.833 51.172C152.311 51.7183 151.778 52.2537 151.241 52.7875C150.62 53.405 150.001 54.0225 149.397 54.6542C149.366 54.6867 149.413 54.7312 149.448 54.7021C150.627 53.7166 151.753 52.6764 152.933 51.6915C153.518 51.2039 154.073 50.6889 154.635 50.1779C155.195 49.6681 155.764 49.1634 156.301 48.6319C156.594 48.3425 156.898 48.0371 157.142 47.7102C157.417 47.3422 157.723 47.0055 158.043 46.6694C158.074 46.6364 158.027 46.5919 157.992 46.621Z" fill="#5B3F77"/>
<path d="M121.778 59.0044C119.135 61.4192 116.384 63.736 113.817 66.222C113.453 66.5746 113.092 66.9283 112.739 67.2906C112.573 67.4609 112.401 67.6273 112.24 67.8016C112.076 67.9805 111.964 68.1861 111.787 68.3559C111.774 68.3684 111.795 68.3872 111.808 68.3752C111.948 68.2482 112.104 68.1696 112.255 68.0602C112.451 67.9189 112.628 67.7577 112.811 67.6022C113.153 67.3106 113.493 67.0183 113.826 66.7181C114.491 66.1177 115.144 65.5082 115.791 64.8907C117.084 63.6562 118.364 62.4093 119.63 61.1497C120.347 60.436 121.082 59.7381 121.814 59.038C121.836 59.0164 121.801 58.9834 121.778 59.0044Z" fill="#5B3F77"/>
<path d="M117.551 65.7065C117.157 66.0267 116.739 66.3195 116.358 66.6533C115.969 66.9939 115.601 67.3608 115.235 67.7225C114.878 68.0757 114.521 68.4289 114.164 68.7821C113.795 69.1472 113.47 69.5454 113.106 69.9129C113.093 69.9254 113.112 69.9436 113.126 69.9322C113.509 69.6013 113.924 69.3073 114.304 68.9718C114.693 68.6288 115.082 68.2853 115.47 67.9424C115.847 67.6097 116.227 67.2736 116.584 66.9227C116.954 66.5599 117.275 66.156 117.627 65.7777C117.673 65.7287 117.603 65.6638 117.551 65.7065Z" fill="#5B3F77"/>
<path d="M143.684 51.9779H128V61.2467H143.684V51.9779Z" fill="#1C1822"/>
<path d="M164.166 68.8011C164.166 72.1592 162.269 72.2475 160.733 72.2475H158.455C159.992 72.2475 161.887 72.1592 161.887 68.8011C161.887 65.2561 161.233 44.8796 161.233 43.0829C161.233 41.2845 160.392 38.892 155.689 38.892H157.968C162.669 38.892 163.51 41.2845 163.51 43.0829C163.51 44.8796 164.166 65.2561 164.166 68.8011Z" fill="#311D41"/>
<path d="M139.514 53.8109H132.953V83.8915H139.514V53.8109Z" fill="#1C1822"/>
<path d="M138.492 53.8109H131.932V83.8915H138.492V53.8109Z" fill="#311D41"/>
<path d="M143.167 81.9912H120.816V84.8332H143.167V81.9912Z" fill="#452F59"/>
<path d="M151.617 81.9912H141.775V84.8332H151.617V81.9912Z" fill="#311D41"/>
<path d="M218.494 75.9372C218.186 75.8541 218.008 75.5521 218.097 75.2639L220.037 69.0006C220.126 68.7123 220.449 68.546 220.757 68.6297C221.066 68.7129 221.244 69.0142 221.154 69.3025L219.214 75.5658C219.125 75.8546 218.802 76.021 218.494 75.9372Z" fill="#2A2433"/>
<path d="M217.963 76.8521C217.644 76.8812 217.359 76.6624 217.329 76.3634L216.659 69.8733C216.628 69.5748 216.862 69.3093 217.182 69.2803C217.501 69.2512 217.785 69.4706 217.817 69.7691L218.486 76.2591C218.518 76.5576 218.283 76.8231 217.963 76.8521Z" fill="#2A2433"/>
<path d="M221.208 73.6835L221.043 75.2483L220.934 76.2885L220.741 78.1114V78.1131L220.634 79.1413L220.44 80.9796L220.333 81.989L220.012 85.0515H212.236L212.186 84.5735L212.122 83.9766L211.937 82.2158L211.883 81.7036L211.683 79.8164V79.8147L211.637 79.3595L211.485 77.9228L211.437 77.4591L211.302 76.1865L211.252 75.7069L211.039 73.6835H221.208Z" fill="#383044"/>
<path d="M213.969 73.6835C213.838 73.8737 213.675 74.0503 213.51 74.2064C213.228 74.4764 212.945 74.7396 212.654 74.9994C212.208 75.401 211.761 75.8009 211.302 76.1871L211.252 75.7074C211.602 75.3628 211.961 75.0273 212.321 74.6878C212.613 74.4143 212.907 74.146 213.21 73.8811C213.286 73.8139 213.367 73.7461 213.452 73.684L213.969 73.6835Z" fill="#2A2433"/>
<path d="M215.723 73.6835C215.64 73.7837 215.559 73.8846 215.472 73.9831C215.266 74.2184 215.046 74.44 214.825 74.6599C214.396 75.0928 213.966 75.5235 213.536 75.9547C213.096 76.3962 212.653 76.8376 212.203 77.2723C211.969 77.4956 211.73 77.7121 211.488 77.9234L211.439 77.4597C211.593 77.2848 211.753 77.1117 211.915 76.9419C212.338 76.5038 212.768 76.0726 213.199 75.6419L214.524 74.3175C214.743 74.101 214.959 73.8863 215.192 73.684L215.723 73.6835Z" fill="#2A2433"/>
<path d="M217.677 73.6835C217.57 73.9273 217.353 74.1147 217.155 74.3186C216.866 74.6166 216.579 74.9122 216.29 75.2084C215.714 75.802 215.136 76.3927 214.552 76.9778C213.602 77.9297 212.666 78.8907 211.687 79.8152L211.641 79.3601C212.463 78.4515 213.321 77.5702 214.167 76.6787C214.736 76.0794 215.31 75.4859 215.888 74.894C216.177 74.5978 216.466 74.3021 216.755 74.0059C216.86 73.8988 216.958 73.786 217.066 73.684L217.677 73.6835Z" fill="#2A2433"/>
<path d="M220.401 73.6835C220.269 73.827 220.132 73.9672 219.997 74.1079C219.649 74.473 219.299 74.8382 218.943 75.1982C217.66 76.5033 216.38 77.8123 215.1 79.1208C214.465 79.7702 213.829 80.4174 213.183 81.0559C212.78 81.4524 212.363 81.8364 211.94 82.2158L211.887 81.7036C212.259 81.269 212.635 80.84 213.024 80.4191C214.256 79.0878 215.528 77.7895 216.784 76.4793C217.412 75.8231 218.036 75.1657 218.662 74.5078C218.927 74.2292 219.196 73.9575 219.465 73.6835H220.401Z" fill="#2A2433"/>
<path d="M221.041 75.2483L220.932 76.2885L220.877 76.3403C220.078 77.1037 219.234 77.822 218.437 78.587C217.631 79.3623 216.826 80.1382 216.037 80.9289C215.259 81.7093 214.49 82.5006 213.671 83.2451C213.262 83.6154 212.856 83.9896 212.436 84.3514C212.352 84.4243 212.269 84.4966 212.184 84.573L212.121 83.976C212.149 83.9463 212.177 83.919 212.203 83.8894C212.627 83.4325 213.064 82.9808 213.512 82.5461C215.108 81.0001 216.752 79.4996 218.35 77.9553C219.143 77.1868 219.884 76.3734 220.677 75.6043C220.799 75.487 220.919 75.3679 221.041 75.2483Z" fill="#2A2433"/>
<path d="M220.745 78.1129L220.638 79.1411C219.914 79.8196 219.158 80.469 218.443 81.156C217.637 81.9313 216.831 82.7089 216.042 83.5001C215.525 84.018 215.012 84.5403 214.488 85.0513H213.584C215.16 83.5298 216.779 82.0481 218.356 80.5243C219.149 79.7575 219.889 78.944 220.682 78.1733C220.702 78.1528 220.722 78.134 220.745 78.1129Z" fill="#2A2433"/>
<path d="M220.44 80.9796L220.335 81.989C219.704 82.569 219.057 83.1335 218.44 83.7271C217.982 84.1668 217.525 84.6083 217.071 85.0515H216.295C216.984 84.4021 217.673 83.7533 218.353 83.0953C219.066 82.4043 219.736 81.6774 220.44 80.9796Z" fill="#2A2433"/>
<path d="M221.699 72.9365H210.582V74.0337H221.699V72.9365Z" fill="#2A2433"/>
<path d="M230.546 76.0842L230.417 77.3187L230.331 78.139L230.178 79.5768V79.5785L230.094 80.3897L229.941 81.8394L229.857 82.6358L229.603 85.0512H223.47L223.43 84.674L223.38 84.2029L223.234 82.8141L223.192 82.4102L223.034 80.9217V80.9206L222.997 80.5617L222.878 79.4281L222.84 79.0624L222.733 78.0587L222.694 77.6804L222.525 76.0842H230.546Z" fill="#383044"/>
<path d="M224.839 76.084C224.735 76.2344 224.606 76.3734 224.476 76.4964C224.255 76.7095 224.031 76.9168 223.802 77.1219C223.449 77.4386 223.098 77.7542 222.735 78.0584L222.695 77.6802C222.971 77.4084 223.255 77.1435 223.538 76.8758C223.769 76.6599 224.002 76.4486 224.24 76.2395C224.3 76.1859 224.364 76.133 224.431 76.084H224.839Z" fill="#2A2433"/>
<path d="M226.221 76.084C226.155 76.1632 226.091 76.2423 226.022 76.3204C225.86 76.5061 225.687 76.681 225.512 76.8542C225.173 77.1954 224.834 77.5355 224.495 77.8755C224.148 78.2236 223.799 78.5717 223.443 78.9146C223.259 79.0906 223.071 79.2615 222.88 79.4279L222.842 79.0621C222.963 78.9243 223.089 78.7876 223.217 78.6537C223.551 78.3085 223.89 77.9684 224.23 77.6283L225.275 76.5836C225.447 76.4127 225.618 76.2435 225.802 76.084H226.221Z" fill="#2A2433"/>
<path d="M227.761 76.0842C227.676 76.2768 227.506 76.4243 227.349 76.5855C227.121 76.8202 226.894 77.0538 226.667 77.2873C226.212 77.7556 225.757 78.221 225.297 78.683C224.547 79.4338 223.809 80.192 223.037 80.9212L223 80.5623C223.649 79.8457 224.325 79.1507 224.993 78.4472C225.441 77.9749 225.894 77.5067 226.35 77.0395C226.578 76.806 226.806 76.5724 227.034 76.3389C227.117 76.254 227.195 76.1657 227.28 76.0848H227.761V76.0842Z" fill="#2A2433"/>
<path d="M229.911 76.0842C229.807 76.1976 229.698 76.3081 229.592 76.4186C229.317 76.7068 229.041 76.9951 228.76 77.2788C227.748 78.3081 226.738 79.3403 225.728 80.3725C225.227 80.8847 224.726 81.3951 224.216 81.8992C223.897 82.212 223.569 82.515 223.236 82.8141L223.193 82.4096C223.487 82.0667 223.783 81.7283 224.091 81.3962C225.062 80.3463 226.066 79.3221 227.057 78.2888C227.552 77.7715 228.044 77.2526 228.538 76.7336C228.747 76.5137 228.958 76.2995 229.171 76.0836H229.911V76.0842Z" fill="#2A2433"/>
<path d="M230.416 77.3187L230.33 78.1396L230.286 78.1806C229.656 78.7827 228.99 79.3495 228.361 79.9528C227.726 80.5646 227.09 81.1764 226.468 81.8002C225.854 82.416 225.248 83.0398 224.602 83.6271C224.279 83.9193 223.959 84.2144 223.628 84.4998C223.562 84.5573 223.496 84.6143 223.429 84.6747L223.379 84.2036C223.401 84.1802 223.423 84.1586 223.443 84.1352C223.778 83.7746 224.123 83.4186 224.476 83.0756C225.735 81.8566 227.031 80.6723 228.292 79.4544C228.918 78.8482 229.502 78.2062 230.127 77.6001C230.224 77.5073 230.319 77.4127 230.416 77.3187Z" fill="#2A2433"/>
<path d="M230.183 79.5785L230.099 80.3897C229.527 80.9252 228.931 81.4367 228.367 81.979C227.732 82.5908 227.096 83.2038 226.474 83.8275C226.066 84.236 225.662 84.6484 225.248 85.0512H224.535C225.779 83.8509 227.056 82.682 228.299 81.4806C228.924 80.8756 229.508 80.2342 230.133 79.6263C230.15 79.6098 230.166 79.595 230.183 79.5785Z" fill="#2A2433"/>
<path d="M229.941 81.8395L229.858 82.6353C229.36 83.0927 228.85 83.5376 228.363 84.0059C228.003 84.3528 227.642 84.7009 227.284 85.0506H226.672C227.216 84.5385 227.759 84.0264 228.295 83.5074C228.857 82.9634 229.386 82.3898 229.941 81.8395Z" fill="#2A2433"/>
<path d="M230.935 75.4951H222.166V76.3604H230.935V75.4951Z" fill="#2A2433"/>
<path d="M91.3579 85.8401L91.439 109.408L205.11 109.065L205.029 85.6703C205.029 85.6703 91.0788 85.5809 91.3579 85.8401Z" fill="#F29755"/>
<path d="M204.612 85.4981L204.693 109.066L245.036 108.944L244.955 85.5493C244.955 85.5493 204.512 85.2383 204.612 85.4981Z" fill="#D57146"/>
<path d="M245.813 84.9052L243.348 84.9126L243.43 108.961L245.895 108.953L245.813 84.9052Z" fill="#CAE9F0"/>
<path d="M206.02 85.0183L203.555 85.0256L203.637 109.074L206.102 109.066L206.02 85.0183Z" fill="white"/>
<path d="M92.8381 85.0167L90.373 85.024L90.4554 109.072L92.9204 109.065L92.8381 85.0167Z" fill="white"/>
<path d="M248.396 84.1773L85.5137 84.6644L85.5216 86.9681L248.404 86.481L248.396 84.1773Z" fill="#2A2433"/>
<path d="M248.391 84.1766L200.004 84.3213L200.012 86.625L248.398 86.4803L248.391 84.1766Z" fill="#1C1822"/>
<path d="M159.714 96.0721L128.27 96.1667C127.06 96.1701 126.077 95.2564 126.072 94.1262C126.069 92.9954 127.046 92.076 128.256 92.072L159.7 91.9774C160.91 91.974 161.894 92.8877 161.898 94.0185C161.902 95.1487 160.924 96.0687 159.714 96.0721Z" fill="#D57146"/>
<path d="M104.243 97.0599L94.8827 105.808C94.7255 105.954 94.9699 106.183 95.1272 106.036L102.421 99.2195C103.11 98.5758 103.799 97.932 104.487 97.2883C104.645 97.1408 104.401 96.9124 104.243 97.0599Z" fill="#D57146"/>
<path d="M110.409 94.9259C107.568 97.5811 104.727 100.236 101.886 102.891C101.074 103.65 100.263 104.408 99.4511 105.167C99.2938 105.314 99.5383 105.543 99.6955 105.395L110.654 95.1538C110.811 95.0074 110.566 94.779 110.409 94.9259Z" fill="#D57146"/>
<path d="M192.14 91.9393L181.827 101.577C180.851 102.489 179.875 103.401 178.898 104.314C178.741 104.461 178.985 104.69 179.143 104.542L189.455 94.9049C190.432 93.9923 191.408 93.0803 192.384 92.1677C192.542 92.0202 192.298 91.7918 192.14 91.9393Z" fill="#D57146"/>
<path d="M198.755 90.8723C195.26 94.1382 191.767 97.4034 188.272 100.669L185.285 103.46C185.128 103.607 185.372 103.836 185.53 103.688L198.999 91.1008C199.157 90.9538 198.912 90.7248 198.755 90.8723Z" fill="#D57146"/>
<path d="M253.451 108.656H84.2658C83.5344 108.656 83.5332 109.718 84.2658 109.718H253.451C254.182 109.719 254.183 108.656 253.451 108.656Z" fill="#D57146"/>
<path d="M127.46 0H157.38C161.44 0 163.846 2.24842 163.846 5.48064C163.846 8.71286 163.846 18.1287 163.846 21.2202C163.846 24.3117 162.342 26.0685 158.658 26.0685C156.132 26.0685 128.708 26.0685 126.182 26.0685C122.498 26.0685 120.994 24.3117 120.994 21.2202C120.994 18.1287 120.994 8.71286 120.994 5.48064C120.994 2.24842 123.4 0 127.46 0Z" fill="#F5CB49"/>
<path d="M149.934 13.0787C149.934 14.1633 150.875 15.0428 152.035 15.0428C153.196 15.0428 154.137 14.1633 154.137 13.0787C154.137 11.9941 153.196 11.1145 152.035 11.1145C150.874 11.1145 149.934 11.9941 149.934 13.0787Z" fill="#F1AE2E"/>
<path d="M137.344 13.0787C137.344 14.1633 138.285 15.0428 139.445 15.0428C140.606 15.0428 141.547 14.1633 141.547 13.0787C141.547 11.9941 140.606 11.1145 139.445 11.1145C138.285 11.1145 137.344 11.9941 137.344 13.0787Z" fill="#F1AE2E"/>
<path d="M144.223 13.0787C144.223 13.8603 144.9 14.4937 145.737 14.4937C146.573 14.4937 147.251 13.8603 147.251 13.0787C147.251 12.2972 146.573 11.6637 145.737 11.6637C144.9 11.6637 144.223 12.2972 144.223 13.0787Z" fill="#F1AE2E"/>
<path d="M130.334 13.0787C130.334 13.8603 131.012 14.4937 131.848 14.4937C132.684 14.4937 133.362 13.8603 133.362 13.0787C133.362 12.2972 132.684 11.6637 131.848 11.6637C131.012 11.6637 130.334 12.2972 130.334 13.0787Z" fill="#F1AE2E"/>
<path d="M150.162 24.0834C150.162 24.0834 147.679 34.7798 162.148 35.2845C156.253 33.076 154.266 30.3399 154.158 24.1842C151.457 23.6795 150.162 24.0834 150.162 24.0834Z" fill="#F5CB49"/>
<path d="M211.554 27.5767C216.852 22.6258 216.852 14.5988 211.554 9.64793C206.256 4.69705 197.667 4.69705 192.37 9.64793C187.072 14.5988 187.072 22.6258 192.37 27.5767C197.667 32.5276 206.256 32.5276 211.554 27.5767Z" fill="#A3C7E9"/>
<path d="M206.214 28.34C211.963 26.1436 214.718 20.0075 212.367 14.6348C210.017 9.2621 203.451 6.68723 197.702 8.88369C191.953 11.0801 189.198 17.2162 191.549 22.5889C193.899 27.9616 200.465 30.5365 206.214 28.34Z" fill="white"/>
<path d="M202.763 17.4216V10.5413C202.763 9.64642 201.275 9.64471 201.275 10.5413V17.3766C200.565 17.6352 200.06 18.2761 200.06 19.0309C200.06 19.314 200.137 19.5783 200.263 19.8159L196.434 23.3944C195.756 24.0285 196.808 25.0117 197.486 24.3782L201.398 20.7216C201.578 20.774 201.765 20.8099 201.963 20.8099C203.014 20.8099 203.866 20.0136 203.866 19.0309C203.867 18.3166 203.414 17.7042 202.763 17.4216Z" fill="#A3C7E9"/>
<path d="M188.137 81.9913H154.932V84.8333H188.137V81.9913Z" fill="#452F59"/>
<path d="M200.686 81.9913H186.064V84.8333H200.686V81.9913Z" fill="#311D41"/>
</svg>
