<svg width="157" height="135" viewBox="0 0 157 135" fill="none" xmlns="http://www.w3.org/2000/svg">
<path d="M56.4829 17.8446C58.0799 16.4252 59.7158 15.0463 61.4667 13.7908C81.6745 -0.699291 121.819 0.250029 133.173 25.0042C135.879 30.9039 135.435 36.9071 136.492 43.0529C138.896 57.0305 148.735 67.935 152.585 81.3705C155.569 91.7854 150.896 102.557 144.28 110.831C137.091 119.822 128.206 124.93 116.073 127.182C102.473 129.706 90.7717 124.312 79.0887 118.455C73.8345 115.822 68.4139 113.116 62.5773 111.744C55.2702 110.025 47.5753 109.695 40.1728 108.423C32.4744 107.101 24.745 104.997 18.34 100.848C-2.17076 87.5618 2.95812 56.0026 18.3425 41.6988C23.7883 36.6358 31.0479 33.6569 37.9308 30.4881C45.3604 27.0675 50.5737 23.0958 56.4829 17.8446Z" fill="#E3EAFF"/>
<path opacity="0.7" d="M56.4829 17.8446C58.0799 16.4252 59.7158 15.0463 61.4667 13.7908C81.6745 -0.699291 121.819 0.250029 133.173 25.0042C135.879 30.9039 135.435 36.9071 136.492 43.0529C138.896 57.0305 148.735 67.935 152.585 81.3705C155.569 91.7854 150.896 102.557 144.28 110.831C137.091 119.822 128.206 124.93 116.073 127.182C102.473 129.706 90.7717 124.312 79.0887 118.455C73.8345 115.822 68.4139 113.116 62.5773 111.744C55.2702 110.025 47.5753 109.695 40.1728 108.423C32.4744 107.101 24.745 104.997 18.34 100.848C-2.17076 87.5618 2.95812 56.0026 18.3425 41.6988C23.7883 36.6358 31.0479 33.6569 37.9308 30.4881C45.3604 27.0675 50.5737 23.0958 56.4829 17.8446Z" fill="white"/>
<path d="M3.35938 120.678H156.167" stroke="#263238" stroke-miterlimit="10" stroke-linecap="round" stroke-linejoin="round"/>
<path d="M46.8973 23.2097V14.4069H36.1836V28.6772H46.8973V25.0854" stroke="#263238" stroke-miterlimit="10" stroke-linecap="round" stroke-linejoin="round"/>
<path d="M46.8973 30.6642H36.1836V44.9342H46.8973V30.6642Z" stroke="#263238" stroke-miterlimit="10" stroke-linecap="round" stroke-linejoin="round"/>
<path d="M46.8973 46.9214H36.1836V61.1914H46.8973V46.9214Z" stroke="#263238" stroke-miterlimit="10" stroke-linecap="round" stroke-linejoin="round"/>
<path d="M46.8973 63.1784H36.1836V77.4484H46.8973V63.1784Z" stroke="#263238" stroke-miterlimit="10" stroke-linecap="round" stroke-linejoin="round"/>
<path d="M46.8973 79.4356H36.1836V93.7057H46.8973V79.4356Z" stroke="#263238" stroke-miterlimit="10" stroke-linecap="round" stroke-linejoin="round"/>
<path d="M46.8973 95.6926H36.1836V109.963H46.8973V95.6926Z" stroke="#263238" stroke-miterlimit="10" stroke-linecap="round" stroke-linejoin="round"/>
<path d="M28.8526 28.6772H33.491V14.4069H22.7773V28.6772H26.6713" stroke="#263238" stroke-miterlimit="10" stroke-linecap="round" stroke-linejoin="round"/>
<path d="M33.491 30.6642H22.7773V44.9342H33.491V30.6642Z" stroke="#263238" stroke-miterlimit="10" stroke-linecap="round" stroke-linejoin="round"/>
<path d="M33.491 46.9214H22.7773V61.1914H33.491V46.9214Z" stroke="#263238" stroke-miterlimit="10" stroke-linecap="round" stroke-linejoin="round"/>
<path d="M33.491 63.1784H22.7773V77.4484H33.491V63.1784Z" stroke="#263238" stroke-miterlimit="10" stroke-linecap="round" stroke-linejoin="round"/>
<path d="M33.491 79.4356H22.7773V93.7057H33.491V79.4356Z" stroke="#263238" stroke-miterlimit="10" stroke-linecap="round" stroke-linejoin="round"/>
<path d="M33.491 95.6926H22.7773V109.963H33.491V95.6926Z" stroke="#263238" stroke-miterlimit="10" stroke-linecap="round" stroke-linejoin="round"/>
<path d="M20.0848 14.4069H9.37109V28.677H20.0848V14.4069Z" stroke="#263238" stroke-miterlimit="10" stroke-linecap="round" stroke-linejoin="round"/>
<path d="M9.37109 38.7782V44.9342H20.0848V30.6642H9.37109V36.7149" stroke="#263238" stroke-miterlimit="10" stroke-linecap="round" stroke-linejoin="round"/>
<path d="M12.4919 61.1914H20.0848V46.9214H9.37109V61.1914H10.965" stroke="#263238" stroke-miterlimit="10" stroke-linecap="round" stroke-linejoin="round"/>
<path d="M20.0848 63.1784H9.37109V77.4484H20.0848V63.1784Z" stroke="#263238" stroke-miterlimit="10" stroke-linecap="round" stroke-linejoin="round"/>
<path d="M20.0848 79.4356H9.37109V93.7057H20.0848V79.4356Z" stroke="#263238" stroke-miterlimit="10" stroke-linecap="round" stroke-linejoin="round"/>
<path d="M20.0848 95.6926H9.37109V109.963H20.0848V95.6926Z" stroke="#263238" stroke-miterlimit="10" stroke-linecap="round" stroke-linejoin="round"/>
<path d="M123.31 13.7738H95.2969V29.3863H123.31V13.7738Z" fill="#263238" stroke="#263238" stroke-miterlimit="10" stroke-linecap="round" stroke-linejoin="round"/>
<path d="M121.304 15.4089H97.3047V27.7514H121.304V15.4089Z" fill="white" stroke="#263238" stroke-miterlimit="10" stroke-linecap="round" stroke-linejoin="round"/>
<path d="M110.763 17.9939C110.763 18.687 110.11 19.2491 109.304 19.2491C108.497 19.2491 107.844 18.6872 107.844 17.9939C107.844 17.3008 108.497 16.7386 109.304 16.7386C110.11 16.7389 110.763 17.3008 110.763 17.9939Z" fill="#92E3A9"/>
<path d="M109.304 20.594C114.17 20.594 118.115 20.4736 118.115 20.325C118.115 20.1765 114.17 20.0561 109.304 20.0561C104.439 20.0561 100.494 20.1765 100.494 20.325C100.494 20.4736 104.439 20.594 109.304 20.594Z" fill="#CFCFCF"/>
<path d="M100.65 23.642H117.958" stroke="#263238" stroke-miterlimit="10" stroke-linecap="round" stroke-linejoin="round"/>
<path d="M104.246 25.4351H114.36" stroke="#263238" stroke-miterlimit="10" stroke-linecap="round" stroke-linejoin="round"/>
<path d="M89.3244 25.8279H66.7754V38.3951H89.3244V25.8279Z" fill="#263238" stroke="#263238" stroke-miterlimit="10" stroke-linecap="round" stroke-linejoin="round"/>
<path d="M87.7947 27.1442H68.3066V37.0791H87.7947V27.1442Z" fill="white" stroke="#263238" stroke-miterlimit="10" stroke-linecap="round" stroke-linejoin="round"/>
<path d="M79.225 29.2248C79.225 29.7829 78.699 30.2351 78.05 30.2351C77.4009 30.2351 76.875 29.7829 76.875 29.2248C76.875 28.6667 77.4009 28.2144 78.05 28.2144C78.699 28.2144 79.225 28.667 79.225 29.2248Z" fill="#92E3A9"/>
<path d="M85.1424 31.101C85.1424 30.9814 81.9672 30.8845 78.0507 30.8845C74.1341 30.8845 70.959 30.9814 70.959 31.101C70.959 31.2206 74.1341 31.3175 78.0507 31.3175C81.9675 31.3175 85.1424 31.2206 85.1424 31.101Z" fill="#CFCFCF"/>
<path d="M71.084 33.7713H85.0152" stroke="#263238" stroke-miterlimit="10" stroke-linecap="round" stroke-linejoin="round"/>
<path d="M73.9805 35.2144H82.1209" stroke="#263238" stroke-miterlimit="10" stroke-linecap="round" stroke-linejoin="round"/>
<path d="M151.832 25.8279H129.283V38.3951H151.832V25.8279Z" fill="#263238" stroke="#263238" stroke-miterlimit="10" stroke-linecap="round" stroke-linejoin="round"/>
<path d="M150.18 27.1442H130.934V37.0791H150.18V27.1442Z" fill="white" stroke="#263238" stroke-miterlimit="10" stroke-linecap="round" stroke-linejoin="round"/>
<path d="M141.733 29.2248C141.733 29.7829 141.207 30.2351 140.558 30.2351C139.909 30.2351 139.383 29.7829 139.383 29.2248C139.383 28.6667 139.909 28.2144 140.558 28.2144C141.207 28.2144 141.733 28.667 141.733 29.2248Z" fill="#92E3A9"/>
<path d="M147.648 31.101C147.648 30.9814 144.473 30.8845 140.557 30.8845C136.64 30.8845 133.465 30.9814 133.465 31.101C133.465 31.2206 136.64 31.3175 140.557 31.3175C144.473 31.3175 147.648 31.2206 147.648 31.101Z" fill="#CFCFCF"/>
<path d="M133.592 33.7713H147.523" stroke="#263238" stroke-miterlimit="10" stroke-linecap="round" stroke-linejoin="round"/>
<path d="M136.486 35.2144H144.627" stroke="#263238" stroke-miterlimit="10" stroke-linecap="round" stroke-linejoin="round"/>
<path d="M85.5662 95.2001C85.4054 95.2001 85.2428 95.1669 85.0911 95.098C78.4679 92.0789 74.861 85.0495 74.7112 84.7514C74.514 84.3612 74.6726 83.9057 75.0864 83.6727C85.7235 77.6871 95.0364 78.3429 95.4295 78.374C95.757 78.3999 96.0497 78.5605 96.2149 78.8052C96.3803 79.0495 96.3979 79.3479 96.2616 79.6054L94.4778 82.9796C94.2458 83.4187 93.6429 83.6128 93.1326 83.4132C92.6218 83.2137 92.3957 82.6956 92.6277 82.2566L93.7682 80.0998C90.9142 80.1716 84.2719 80.8045 76.9475 84.7236C77.9906 86.4975 81.1783 91.3375 86.0422 93.5544C86.5377 93.7804 86.7267 94.3091 86.4639 94.7354C86.2821 95.0314 85.9301 95.1998 85.5662 95.2001Z" fill="#575757" stroke="#263238" stroke-miterlimit="10" stroke-linecap="round" stroke-linejoin="round"/>
<path d="M88.4138 92.866C88.3296 92.866 88.2439 92.8508 88.1619 92.819C87.8555 92.6991 87.7202 92.3886 87.8596 92.1248L92.9994 82.4016C93.1385 82.138 93.5 82.0222 93.8064 82.1413C94.1129 82.2612 94.2482 82.5719 94.1088 82.8352L88.9689 92.559C88.8672 92.752 88.6455 92.866 88.4138 92.866Z" fill="#ADADAD" stroke="#263238" stroke-miterlimit="10" stroke-linecap="round" stroke-linejoin="round"/>
<path d="M124.956 44.7144H107.13C106.039 44.7144 105.103 45.3781 104.891 46.2985C104.705 47.1082 104.511 48.1944 104.417 49.4772C104.085 54.0146 103.973 60.3793 103.725 61.3178C102.956 64.2284 97.6476 68.9912 97.3399 71.9677C97.0322 74.9444 97.3399 94.0615 97.3399 94.0615H119.946C121.269 94.0615 122.342 93.1395 122.342 92.0017V73.9527C122.342 72.7906 122.662 71.6469 123.276 70.612C124.792 68.0581 127.609 63.1643 127.496 62.2439C127.342 60.987 127.265 60.0609 127.265 60.0609C127.265 60.0609 126.028 52.0193 126.804 48.7496C126.962 48.0813 127.092 47.517 127.197 47.0424C127.464 45.8333 126.387 44.7144 124.956 44.7144Z" fill="#263238" stroke="#263238" stroke-miterlimit="10" stroke-linecap="round" stroke-linejoin="round"/>
<path d="M104.417 49.4772C104.403 49.6651 104.39 49.8574 104.378 50.0512L104.417 50.0726C104.417 50.0726 103.725 56.1584 107.725 60.2594C111.725 64.3607 117.187 63.6992 120.264 61.3178C123.341 58.9364 126.188 50.6679 126.495 49.5434C126.53 49.4173 126.62 49.2326 126.749 49.0088C126.766 48.9202 126.783 48.8322 126.803 48.7496C126.962 48.0813 127.091 47.517 127.196 47.0424C127.464 45.8333 126.387 44.7144 124.955 44.7144H107.129C106.038 44.7144 105.102 45.3781 104.89 46.2985C104.705 47.1082 104.511 48.1947 104.417 49.4772Z" fill="#575757" stroke="#263238" stroke-miterlimit="10" stroke-linecap="round" stroke-linejoin="round"/>
<path d="M103.634 93.0695H101.941V99.023H103.634V93.0695Z" fill="#7A7A7A" stroke="#263238" stroke-miterlimit="10" stroke-linecap="round" stroke-linejoin="round"/>
<path d="M105.25 97.9644H100.326V110.334H105.25V97.9644Z" fill="#7A7A7A" stroke="#263238" stroke-miterlimit="10" stroke-linecap="round" stroke-linejoin="round"/>
<path d="M103.576 112.583H119.185C120.417 112.583 121.601 113.056 122.34 113.904C123.009 114.672 123.643 115.848 123.808 117.611H121.577C121.577 117.611 121.579 117.579 121.579 117.521C121.58 115.629 119.771 114.105 117.571 114.105H103.576V112.583H103.576Z" fill="#263238" stroke="#263238" stroke-miterlimit="10" stroke-linecap="round" stroke-linejoin="round"/>
<path d="M121.348 120.984C122.877 120.984 124.117 119.918 124.117 118.603C124.117 117.288 122.877 116.221 121.348 116.221C119.818 116.221 118.578 117.288 118.578 118.603C118.578 119.918 119.818 120.984 121.348 120.984Z" fill="#263238" stroke="#263238" stroke-miterlimit="10" stroke-linecap="round" stroke-linejoin="round"/>
<path d="M106.519 109.408H99.0566V115.494H106.519V109.408Z" fill="#263238" stroke="#263238" stroke-miterlimit="10" stroke-linecap="round" stroke-linejoin="round"/>
<path d="M81.2617 120.984C82.7912 120.984 84.0311 119.918 84.0311 118.603C84.0311 117.288 82.7912 116.221 81.2617 116.221C79.7321 116.221 78.4922 117.288 78.4922 118.603C78.4922 119.918 79.7321 120.984 81.2617 120.984Z" fill="#263238" stroke="#263238" stroke-miterlimit="10" stroke-linecap="round" stroke-linejoin="round"/>
<path d="M99.0308 112.583H83.4225C82.1907 112.583 81.0059 113.056 80.2674 113.904C79.598 114.672 78.964 115.848 78.7988 117.611H81.0298C81.0298 117.611 81.0279 117.579 81.0279 117.521C81.027 115.629 82.8359 114.105 85.0358 114.105H99.0311L99.0308 112.583Z" fill="#263238" stroke="#263238" stroke-miterlimit="10" stroke-linecap="round" stroke-linejoin="round"/>
<path d="M102.955 112.583H100.27C99.0383 112.583 97.8536 113.056 97.1151 113.904C96.4456 114.672 95.8116 115.848 95.6465 117.611H97.8775C97.8775 117.611 97.8756 117.579 97.8756 117.521C97.8746 115.629 99.6836 114.105 101.883 114.105H102.955V112.583Z" fill="#263238" stroke="#263238" stroke-miterlimit="10" stroke-linecap="round" stroke-linejoin="round"/>
<path d="M98.1093 120.984C99.6389 120.984 100.879 119.918 100.879 118.603C100.879 117.288 99.6389 116.221 98.1093 116.221C96.5798 116.221 95.3398 117.288 95.3398 118.603C95.3398 119.918 96.5798 120.984 98.1093 120.984Z" fill="#263238" stroke="#263238" stroke-miterlimit="10" stroke-linecap="round" stroke-linejoin="round"/>
<path d="M78.9755 88.3067H118.549C120.643 88.3067 122.341 89.7666 122.341 91.5672V92.4577C122.341 93.3436 121.506 94.0615 120.476 94.0615H75.1836V91.567C75.1836 89.7666 76.8811 88.3067 78.9755 88.3067Z" fill="#263238" stroke="#263238" stroke-miterlimit="10" stroke-linecap="round" stroke-linejoin="round"/>
<path d="M86.5103 79.2453C86.5103 79.2453 81.3622 80.291 80.7559 81.6815C80.1496 83.072 91.4693 89.387 94.4337 89.7928H108.381C108.381 89.7928 111.841 89.5093 113.042 87.6811C114.243 85.853 113.031 84.9838 110.403 82.7823C107.775 80.5807 103.53 78.6108 103.53 78.6108L90.9304 78.0313L86.5103 79.2453Z" fill="#263238" stroke="#263238" stroke-miterlimit="10" stroke-linecap="round" stroke-linejoin="round"/>
<path d="M90.7673 55.3108C90.7673 55.3108 87.7438 55.2579 86.695 56.1068C85.646 56.9557 86.1396 58.9718 86.1396 58.9718L85.0908 68.8932C85.0908 68.8932 84.0417 68.7871 84.0417 69.2115C84.0417 69.6359 83.9183 70.1665 83.9183 70.1665L79.7227 71.0686L80.031 74.358C80.031 74.358 89.2246 74.199 89.5948 74.199C89.965 74.199 90.5202 73.6684 90.7054 73.1379C90.8907 72.6073 92.3097 55.7358 92.3097 55.7358" fill="#92E3A9"/>
<path d="M90.7673 55.3108C90.7673 55.3108 87.7438 55.2579 86.695 56.1068C85.646 56.9557 86.1396 58.9718 86.1396 58.9718L85.0908 68.8932C85.0908 68.8932 84.0417 68.7871 84.0417 69.2115C84.0417 69.6359 83.9183 70.1665 83.9183 70.1665L79.7227 71.0686L80.031 74.358C80.031 74.358 89.2246 74.199 89.5948 74.199C89.965 74.199 90.5202 73.6684 90.7054 73.1379C90.8907 72.6073 92.3097 55.7358 92.3097 55.7358" stroke="#263238" stroke-miterlimit="10" stroke-linecap="round" stroke-linejoin="round"/>
<path d="M85.0293 69.9011C85.0293 69.9011 87.189 69.954 88.2996 71.0683" stroke="#263238" stroke-miterlimit="10" stroke-linecap="round" stroke-linejoin="round"/>
<path d="M86.5098 69.5828C86.5098 69.5828 88.0524 69.7421 88.6695 70.2194" stroke="#263238" stroke-miterlimit="10" stroke-linecap="round" stroke-linejoin="round"/>
<path d="M79.5723 71.0189C79.5723 71.0189 80.2565 71.4601 80.4277 72.7102C80.5988 73.9603 80.2565 73.8868 80.2565 73.8868H76.2207L79.5723 71.0189Z" fill="#CFCFCF" stroke="#263238" stroke-miterlimit="10" stroke-linecap="round" stroke-linejoin="round"/>
<path d="M97.4707 55.3184L95.3471 55.5058C95.3471 55.5058 93.3868 71.004 93.7134 72.7366C94.0403 74.4689 91.9164 75.3586 92.7334 75.6397C93.5501 75.9205 103.243 76.1079 103.243 76.1079C103.243 76.1079 104.06 76.1546 103.678 73.8604C103.297 71.5662 104.005 64.9172 104.332 60.6096C104.659 56.302 105.307 55.3886 104.658 55.1313C104.011 54.874 97.4707 55.3184 97.4707 55.3184Z" fill="white" stroke="#263238" stroke-miterlimit="10" stroke-linecap="round" stroke-linejoin="round"/>
<path d="M98.8876 64.6852C98.4669 65.2055 98.043 65.6732 97.6348 66.0409" stroke="#263238" stroke-miterlimit="10" stroke-linecap="round" stroke-linejoin="round"/>
<path d="M102.697 58.7833C102.697 58.7833 101.115 61.7447 99.3555 64.0829" stroke="#263238" stroke-miterlimit="10" stroke-linecap="round" stroke-linejoin="round"/>
<path d="M102.154 62.1078L99.4316 65.6661" stroke="#263238" stroke-miterlimit="10" stroke-linecap="round" stroke-linejoin="round"/>
<path d="M89.4444 61.5816C89.43 62.6907 89.3559 64.139 89.1637 65.975C88.6086 71.2805 89.5958 72.7661 89.5958 72.7661L88.4852 73.721C88.4852 73.721 87.93 77.3223 87.1896 77.8529C86.4492 78.3834 86.511 79.2852 86.511 79.2852C86.511 79.2852 89.0406 78.7547 90.4599 78.5954C91.8792 78.4363 93.4216 78.6485 93.9152 78.3302C94.4088 78.0119 94.162 72.7661 94.779 68.5217C95.396 64.2773 97.4938 54.9925 97.4938 54.9925C97.4938 54.9925 97.3089 54.5681 96.6915 54.6742C96.0745 54.7803 94.3469 54.9396 94.3469 54.9396C94.3469 54.9396 90.0278 55.4701 89.7192 55.5762" fill="#92E3A9"/>
<path d="M89.4444 61.5816C89.43 62.6907 89.3559 64.139 89.1637 65.975C88.6086 71.2805 89.5958 72.7661 89.5958 72.7661L88.4852 73.721C88.4852 73.721 87.93 77.3223 87.1896 77.8529C86.4492 78.3834 86.511 79.2852 86.511 79.2852C86.511 79.2852 89.0406 78.7547 90.4599 78.5954C91.8792 78.4363 93.4216 78.6485 93.9152 78.3302C94.4088 78.0119 94.162 72.7661 94.779 68.5217C95.396 64.2773 97.4938 54.9925 97.4938 54.9925C97.4938 54.9925 97.3089 54.5681 96.6915 54.6742C96.0745 54.7803 94.3469 54.9396 94.3469 54.9396C94.3469 54.9396 90.0278 55.4701 89.7192 55.5762" stroke="#263238" stroke-miterlimit="10" stroke-linecap="round" stroke-linejoin="round"/>
<path d="M89.2871 58.6003C89.2871 58.6003 89.4093 59.1851 89.44 60.5302L89.2871 58.6003Z" fill="#92E3A9"/>
<path d="M89.2871 58.6003C89.2871 58.6003 89.4093 59.1851 89.44 60.5302" stroke="#263238" stroke-miterlimit="10" stroke-linecap="round" stroke-linejoin="round"/>
<path d="M98.0481 55.5001C98.0481 55.5001 98.0349 55.6041 98.0152 55.7825C97.9065 56.758 97.5935 59.9594 98.0937 60.588C98.6852 61.3316 101.28 59.0225 102.418 57.1436C103.556 55.2649 103.465 54.4039 103.465 54.4039L98.0481 55.5001Z" fill="#CFCFCF" stroke="#263238" stroke-miterlimit="10" stroke-linecap="round" stroke-linejoin="round"/>
<path d="M103.354 55.0457C103.354 55.0457 101.133 76.6298 101.195 77.2664C101.256 77.9031 101.133 78.4336 101.688 78.8049C102.243 79.1764 105.082 80.6619 108.722 83.3676C112.363 86.0733 112.918 87.3628 113.041 87.6811C113.165 87.9995 114.028 84.5443 114.337 83.8547C114.645 83.1648 113.288 79.8754 111.252 77.382C109.216 74.8883 108.537 74.1455 108.537 74.1455C108.537 74.1455 113.658 55.0457 112.609 54.6742C111.56 54.3029 105.267 54.7803 105.267 54.7803C105.267 54.7803 103.54 54.5151 103.354 55.0457Z" fill="#92E3A9" stroke="#263238" stroke-miterlimit="10" stroke-linecap="round" stroke-linejoin="round"/>
<path d="M89.5939 72.7661C89.5939 72.7661 85.028 73.562 84.411 73.774C83.794 73.9862 82.375 74.4638 82.375 74.4638L89.5323 74.57L89.5939 72.7661Z" fill="#CFCFCF" stroke="#263238" stroke-miterlimit="10" stroke-linecap="round" stroke-linejoin="round"/>
<path d="M109.399 61.094L106.993 69.2115C106.993 69.2115 105.882 68.7871 105.635 69.1583C105.389 69.5296 105.08 69.795 105.08 69.795L89.5931 72.7661L89.5312 74.5699C89.5312 74.5699 108.782 75.1005 109.954 74.9944C111.127 74.8883 111.805 74.6231 112.052 74.2516C112.299 73.8801 114.459 59.184 114.459 59.184C114.459 59.184 115.693 55.5231 114.459 54.8864C113.225 54.2497 111.559 54.8332 111.559 54.8332" fill="#92E3A9"/>
<path d="M109.399 61.094L106.993 69.2115C106.993 69.2115 105.882 68.7871 105.635 69.1583C105.389 69.5296 105.08 69.795 105.08 69.795L89.5931 72.7661L89.5312 74.5699C89.5312 74.5699 108.782 75.1005 109.954 74.9944C111.127 74.8883 111.805 74.6231 112.052 74.2516C112.299 73.8801 114.459 59.184 114.459 59.184C114.459 59.184 115.693 55.5231 114.459 54.8864C113.225 54.2497 111.559 54.8332 111.559 54.8332" stroke="#263238" stroke-miterlimit="10" stroke-linecap="round" stroke-linejoin="round"/>
<path d="M108.82 71.4077C109.099 71.6963 109.371 71.9599 109.586 72.1294" stroke="#263238" stroke-miterlimit="10" stroke-linecap="round" stroke-linejoin="round"/>
<path d="M107.426 69.8479C107.426 69.8479 107.791 70.2848 108.248 70.7915" stroke="#263238" stroke-miterlimit="10" stroke-linecap="round" stroke-linejoin="round"/>
<path d="M106.006 69.6889C106.006 69.6889 106.006 71.5989 106.746 72.66" stroke="#263238" stroke-miterlimit="10" stroke-linecap="round" stroke-linejoin="round"/>
<path d="M98.6396 73.9371H70.1953V74.7859H98.6396V73.9371Z" fill="white" stroke="#263238" stroke-miterlimit="10" stroke-linecap="round" stroke-linejoin="round"/>
<path d="M98.6403 73.9371H82.4746V74.7859H98.6403V73.9371Z" fill="white" stroke="#263238" stroke-miterlimit="10" stroke-linecap="round" stroke-linejoin="round"/>
<path d="M78.6176 70.0045L77.2363 69.795L78.2926 72.6594L79.1866 70.4235L78.6176 70.0045Z" fill="#CFCFCF" stroke="#263238" stroke-miterlimit="10" stroke-linecap="round" stroke-linejoin="round"/>
<path d="M75.8739 65.0271C75.5011 64.2813 74.7928 64.4601 74.9476 65.2606C75.1024 66.0612 75.7928 67.999 75.7928 67.999L76.3376 67.8615L76.8827 67.7241C76.8827 67.7241 76.2466 65.7728 75.8739 65.0271Z" fill="#263238" stroke="#263238" stroke-miterlimit="10" stroke-linecap="round" stroke-linejoin="round"/>
<path d="M77.6985 70.375C79.1769 74.7095 78.2506 74.9431 76.7722 70.6085C76.5066 69.8296 75.7637 67.9112 75.7637 67.9112L76.3085 67.7738L76.8536 67.6364C76.8536 67.6364 77.4329 69.596 77.6985 70.375Z" fill="#263238" stroke="#263238" stroke-miterlimit="10" stroke-linecap="round" stroke-linejoin="round"/>
<path d="M76.7599 67.4509L75.7246 67.712L75.9244 68.2978L76.9597 68.0368L76.7599 67.4509Z" fill="white" stroke="#263238" stroke-miterlimit="10" stroke-linecap="round" stroke-linejoin="round"/>
<path d="M76.3005 69.2358C76.3005 69.2358 75.3661 69.62 75.3255 70.0045C75.285 70.3887 76.1787 72.3451 76.7477 72.6945C77.3163 73.0439 77.5603 72.904 77.5603 72.6246C77.5603 72.3451 76.3005 69.2358 76.3005 69.2358Z" fill="#CFCFCF" stroke="#263238" stroke-miterlimit="10" stroke-linecap="round" stroke-linejoin="round"/>
<path d="M74.9473 73.1165C74.9473 73.1165 75.0192 73.7038 75.0553 73.8893C75.0911 74.0747 76.7091 73.9203 76.7091 73.9203L74.9473 73.1165Z" fill="white" stroke="#263238" stroke-miterlimit="10" stroke-linecap="round" stroke-linejoin="round"/>
<path d="M75.3658 70.4935C75.3658 70.4935 74.6345 70.6682 74.5127 70.9128C74.3908 71.1574 74.9595 72.5897 75.6095 73.1138C76.2594 73.6379 77.8847 73.568 77.8442 73.4281C77.8037 73.2882 77.4787 72.974 77.4787 72.974C77.4787 72.974 76.6256 72.6246 76.1784 71.9957C75.7313 71.3669 75.3658 70.4935 75.3658 70.4935Z" fill="#CFCFCF" stroke="#263238" stroke-miterlimit="10" stroke-linecap="round" stroke-linejoin="round"/>
<path d="M74.5141 71.5416C74.5141 71.5416 73.8641 71.8562 73.9859 72.4151C74.1077 72.974 74.7577 73.6028 75.3672 73.8126C75.9767 74.0221 77.5206 73.9525 77.8048 73.8126C78.0893 73.6727 77.8453 73.4284 77.8453 73.4284C77.8453 73.4284 77.1545 73.7078 76.5045 73.4632C75.8545 73.2186 75.1637 72.6945 75.0824 72.5198C75.0014 72.3452 74.5141 71.5416 74.5141 71.5416Z" fill="#CFCFCF" stroke="#263238" stroke-miterlimit="10" stroke-linecap="round" stroke-linejoin="round"/>
<path d="M78.6162 70.0045C78.6162 70.0045 78.0475 72.5549 78.2912 72.6597C78.5348 72.7644 78.6975 72.8344 79.063 72.4502C79.4285 72.066 80.3629 70.6684 80.1601 70.2842C79.9569 69.9 79.0225 69.8301 78.9006 69.8301C78.7788 69.8298 78.6162 70.0045 78.6162 70.0045Z" fill="#CFCFCF" stroke="#263238" stroke-miterlimit="10" stroke-linecap="round" stroke-linejoin="round"/>
<path d="M90.7274 91.9944C90.7274 91.9944 90.9337 83.8434 88.9756 82.3189C83.9896 78.4371 81.6315 81.0443 80.7554 81.6817C79.8793 82.3189 82.9116 92.6899 84.5287 97.9041C86.1458 103.118 87.8342 112.221 89.1816 113.727C90.5293 115.234 91.2703 118.246 91.2031 119.579C91.1356 120.911 92.7527 120.854 93.1571 120.1C93.5616 119.347 95.3134 116.972 94.9765 115.234C94.6395 113.495 93.831 111.699 94.3026 111.12C94.7742 110.541 95.4481 109.903 94.9765 108.919C94.5048 107.934 92.4833 107.007 92.1464 106.949C91.8095 106.891 91.3815 105.755 91.1994 103.35C90.7949 98.0197 90.7274 91.9944 90.7274 91.9944Z" fill="#CFCFCF" stroke="#263238" stroke-miterlimit="10" stroke-linecap="round" stroke-linejoin="round"/>
<path d="M94.9764 108.918C94.6072 108.147 93.2918 107.414 92.5746 107.103C92.5941 107.671 92.618 108.562 92.618 109.498C92.618 111.062 94.0329 115.581 93.2918 116.334C92.775 116.859 91.507 116.934 90.7852 116.931C91.0869 117.964 91.2345 118.955 91.2031 119.579C91.1356 120.911 92.7527 120.854 93.1571 120.1C93.5615 119.347 95.3133 116.972 94.9764 115.234C94.6395 113.495 93.831 111.699 94.3026 111.12C94.7745 110.54 95.4481 109.903 94.9764 108.918Z" fill="#92E3A9" stroke="#263238" stroke-miterlimit="10" stroke-linecap="round" stroke-linejoin="round"/>
<path d="M92.0757 82.7245C92.0757 82.7245 90.2564 93.9063 89.0437 100.164C87.8311 106.421 85.5024 111.882 84.6939 114.083C83.8853 116.285 82.2682 119.471 81.8638 120.109C81.4594 120.746 80.5161 121.268 81.3922 121.615C82.2682 121.963 84.02 122.194 86.1088 121.151C88.1975 120.108 89.9493 116.806 91.1623 116.111C92.3753 115.416 92.6447 114.778 92.0383 113.272C91.432 111.766 90.1518 111.823 90.8257 110.144C91.4995 108.463 96.2337 100.797 98.2549 96.5676C100.276 92.3381 102.317 88.8659 101.374 85.5635C100.431 82.2612 97.6008 80.6387 94.9733 80.5229C92.3451 80.4068 92.0757 82.7245 92.0757 82.7245Z" fill="#CFCFCF" stroke="#263238" stroke-miterlimit="10" stroke-linecap="round" stroke-linejoin="round"/>
<path d="M90.9739 111.799C90.8329 112.098 90.6709 112.452 90.4881 112.866C89.7468 114.546 87.5908 117.849 86.4454 118.37C85.6202 118.746 83.8561 118.341 82.9311 118.084C82.4551 119.052 82.0418 119.828 81.8638 120.108C81.4594 120.746 80.5161 121.267 81.3922 121.615C82.2682 121.962 84.02 122.194 86.1088 121.151C88.1975 120.108 89.9493 116.806 91.1623 116.111C92.3753 115.415 92.6447 114.778 92.0383 113.272C91.7416 112.536 91.2854 112.173 90.9739 111.799Z" fill="#92E3A9" stroke="#263238" stroke-miterlimit="10" stroke-linecap="round" stroke-linejoin="round"/>
<path d="M99.8238 42.3884C99.8238 42.3884 98.2761 42.7407 97.3203 44.5411C96.3645 46.3414 95.5449 49.3552 95.5449 51.1555C95.5449 52.9559 96.9105 55.6567 97.7297 56.0479C98.549 56.4394 103.01 55.461 104.011 54.8737C105.013 54.2867 106.014 53.1125 106.014 53.1125C106.014 53.1125 107.38 53.1517 107.88 52.4081C108.381 51.6645 108.927 50.2945 108.426 50.0205C107.926 49.7464 107.607 49.7464 107.607 49.7464C107.607 49.7464 108.927 48.0635 108.7 46.0282C108.472 43.993 104.967 42.3884 103.01 42.1535C101.053 41.9188 99.8238 42.3884 99.8238 42.3884Z" fill="#CFCFCF" stroke="#263238" stroke-miterlimit="10" stroke-linecap="round" stroke-linejoin="round"/>
<path d="M108.699 46.0283C108.472 43.993 104.967 42.3884 103.01 42.1535C101.053 41.9186 99.8237 42.3884 99.8237 42.3884C99.8237 42.3884 98.276 42.7407 97.3201 44.5411C97.2495 44.6739 97.1801 44.8149 97.1113 44.9599L97.1835 44.9715C97.1835 44.9715 99.2773 43.6798 100.188 43.6015C101.098 43.5232 102.964 44.0319 104.557 44.9715C106.15 45.9108 106.333 47.0067 106.15 47.9461C105.968 48.8854 106.287 49.1594 106.469 49.5507C106.651 49.9422 106.242 50.5292 106.651 50.5292C107.061 50.5292 107.607 49.7464 107.607 49.7464C107.607 49.7464 108.927 48.0638 108.699 46.0283Z" fill="#263238" stroke="#263238" stroke-miterlimit="10" stroke-linecap="round" stroke-linejoin="round"/>
<path d="M100.69 39.3746C100.69 39.3746 99.1874 39.4138 98.8687 40.9792C98.55 42.5447 100.234 44.3453 102.783 45.2064C105.332 46.0674 106.015 45.9108 106.015 45.9108C106.015 45.9108 107.517 47.7894 109.884 46.6152C112.251 45.441 112.433 42.3098 110.522 39.8833C108.61 37.4565 106.106 36.4781 104.377 36.9087C102.647 37.3394 102.465 38.2396 102.465 38.2396C102.465 38.2396 101.646 37.9263 101.19 38.2004C100.735 38.4744 100.69 39.3746 100.69 39.3746Z" fill="#263238" stroke="#263238" stroke-miterlimit="10" stroke-linecap="round" stroke-linejoin="round"/>
<path d="M102.465 38.2396C102.465 38.2396 101.691 41.684 105.196 44.9323C105.196 44.9323 103.011 43.7189 102.055 41.2925C101.099 38.866 101.691 37.9266 102.465 38.2396Z" fill="white" stroke="#263238" stroke-miterlimit="10" stroke-linecap="round" stroke-linejoin="round"/>
<path d="M100.689 39.3746C100.689 39.3746 100.78 42.4667 102.601 44.2279C102.601 44.2279 99.2778 41.5665 100.689 39.3746Z" fill="white" stroke="#263238" stroke-miterlimit="10" stroke-linecap="round" stroke-linejoin="round"/>
<path d="M98.0023 51.5079C98.0023 51.5079 97.6836 51.8994 98.1844 52.2906C98.6852 52.6821 99.4134 52.8385 100.278 52.6038" stroke="#263238" stroke-miterlimit="10" stroke-linecap="round" stroke-linejoin="round"/>
<path d="M97.2285 53.1125C97.2285 53.1125 98.4575 53.1125 99.0039 53.3865C99.5502 53.6606 100.415 54.091 100.824 54.091C101.234 54.091 101.234 54.091 101.234 54.091C101.234 54.091 99.641 54.5608 98.5486 54.4825C97.4562 54.4042 97.2285 53.1125 97.2285 53.1125Z" stroke="#263238" stroke-miterlimit="10" stroke-linecap="round" stroke-linejoin="round"/>
<path d="M97.2285 53.1125C97.2285 53.1125 99.0491 54.365 100.824 54.091" stroke="#263238" stroke-miterlimit="10" stroke-linecap="round" stroke-linejoin="round"/>
<path d="M102.764 50.2135C102.665 50.504 102.38 50.6884 102.127 50.625C101.874 50.5615 101.748 50.2748 101.846 49.984C101.944 49.6935 102.229 49.5091 102.483 49.5725C102.736 49.636 102.862 49.923 102.764 50.2135Z" fill="#263238"/>
<path d="M98.459 49.0028C98.3608 49.2934 98.0757 49.4778 97.8223 49.4143C97.5689 49.3509 97.4429 49.0641 97.5412 48.7733C97.6395 48.4828 97.9246 48.2984 98.178 48.3619C98.4317 48.4256 98.5573 48.7123 98.459 49.0028Z" fill="#263238"/>
<path d="M101.826 48.1026C101.826 48.1026 103.374 47.5548 104.512 49.2377" stroke="#263238" stroke-miterlimit="10" stroke-linecap="round" stroke-linejoin="round"/>
<path d="M99.3224 47.4765C99.3224 47.4765 98.23 45.9111 96.6367 46.733" stroke="#263238" stroke-miterlimit="10" stroke-linecap="round" stroke-linejoin="round"/>
<path d="M99.5968 47.868C99.5968 47.868 99.5513 48.4158 99.3691 49.1597" stroke="#263238" stroke-miterlimit="10" stroke-linecap="round" stroke-linejoin="round"/>
<path d="M111.185 95.2001C111.025 95.2001 110.862 95.1669 110.71 95.098C104.087 92.0789 100.48 85.0495 100.33 84.7514C100.133 84.3612 100.292 83.9057 100.706 83.6727C111.343 77.6871 120.656 78.3429 121.049 78.374C121.376 78.3999 121.669 78.5605 121.834 78.8052C121.999 79.0495 122.017 79.3479 121.881 79.6054L120.097 82.9796C119.865 83.4187 119.262 83.6128 118.752 83.4132C118.241 83.2137 118.015 82.6956 118.247 82.2566L119.387 80.0998C116.533 80.1716 109.891 80.8045 102.567 84.7236C103.61 86.4975 106.797 91.3375 111.661 93.5544C112.157 93.7804 112.346 94.3091 112.083 94.7354C111.901 95.0314 111.549 95.1998 111.185 95.2001Z" fill="#575757" stroke="#263238" stroke-miterlimit="10" stroke-linecap="round" stroke-linejoin="round"/>
<path d="M114.033 92.866C113.949 92.866 113.863 92.8508 113.781 92.819C113.474 92.6991 113.339 92.3886 113.479 92.1248L118.618 82.4016C118.758 82.138 119.119 82.0222 119.425 82.1413C119.732 82.2612 119.867 82.5719 119.728 82.8352L114.588 92.559C114.486 92.752 114.265 92.866 114.033 92.866Z" fill="#ADADAD" stroke="#263238" stroke-miterlimit="10" stroke-linecap="round" stroke-linejoin="round"/>
<path d="M115.339 93.4265C115.738 91.9683 114.686 90.5084 112.99 90.1657C111.295 89.823 109.597 90.7272 109.198 92.1854C108.8 93.6436 109.851 95.1035 111.547 95.4462C113.243 95.7889 114.941 94.8847 115.339 93.4265Z" fill="white" stroke="#263238" stroke-miterlimit="10" stroke-linecap="round" stroke-linejoin="round"/>
<path d="M129.069 20.8397H117.093C115.301 20.8397 113.848 22.0893 113.848 23.6304V31.3035C113.848 32.8447 115.301 34.0943 117.093 34.0943H118.438L116.306 38.4861L121.798 34.0943H129.069C130.861 34.0943 132.315 32.8447 132.315 31.3035V23.6304C132.315 22.0893 130.861 20.8397 129.069 20.8397Z" fill="white" stroke="#263238" stroke-miterlimit="10" stroke-linecap="round" stroke-linejoin="round"/>
<path d="M121.782 29.7024V28.1278C122.208 27.8429 122.591 27.5257 122.932 27.1758C123.272 26.8258 123.542 26.4535 123.741 26.0588C123.94 25.664 124.039 25.2553 124.039 24.8319C124.039 24.5308 123.975 24.313 123.847 24.1788C123.72 24.0443 123.533 23.9773 123.287 23.9773C123.059 23.9773 122.882 24.0343 122.754 24.1483C122.626 24.2625 122.562 24.421 122.562 24.6245C122.562 24.7547 122.579 24.8708 122.612 24.9723C122.645 25.0741 122.685 25.1818 122.733 25.2958L120.646 25.7107C120.57 25.5153 120.511 25.3263 120.468 25.1432C120.426 24.9601 120.404 24.7668 120.404 24.5632C120.404 23.8472 120.658 23.2875 121.164 22.8847C121.67 22.4818 122.397 22.2804 123.343 22.2804C124.299 22.2804 125.035 22.4961 125.551 22.9276C126.067 23.359 126.324 23.9733 126.324 24.7709C126.324 25.2593 126.23 25.7232 126.041 26.1627C125.851 26.602 125.574 27.0173 125.21 27.408C124.846 27.7987 124.403 28.1648 123.883 28.5066V29.703H121.782V29.7024ZM121.711 32.3028V30.4106H123.968V32.3028H121.711Z" fill="#92E3A9" stroke="#263238" stroke-miterlimit="10"/>
<path d="M12.0951 22.4713H24.0711C25.8634 22.4713 27.3166 23.7208 27.3166 25.262V28.3989C27.3166 29.94 25.8634 31.1896 24.0711 31.1896H22.7262L24.8586 35.5814L19.3658 31.1896H12.0951C10.3025 31.1896 8.84961 29.94 8.84961 28.3989V25.262C8.84961 23.7208 10.3028 22.4713 12.0951 22.4713Z" fill="white" stroke="#263238" stroke-miterlimit="10" stroke-linecap="round" stroke-linejoin="round"/>
<path d="M15.9108 27.0759C15.9108 27.4887 15.5214 27.8235 15.0413 27.8235C14.5612 27.8235 14.1719 27.4887 14.1719 27.0759C14.1719 26.663 14.5612 26.3282 15.0413 26.3282C15.5218 26.3282 15.9108 26.663 15.9108 27.0759Z" fill="#263238"/>
<path d="M19.0983 27.0759C19.0983 27.4887 18.7089 27.8235 18.2288 27.8235C17.7487 27.8235 17.3594 27.4887 17.3594 27.0759C17.3594 26.663 17.7487 26.3282 18.2288 26.3282C18.7089 26.3282 19.0983 26.663 19.0983 27.0759Z" fill="#263238"/>
<path d="M22.2858 27.0759C22.2858 27.4887 21.8964 27.8235 21.4163 27.8235C20.9362 27.8235 20.5469 27.4887 20.5469 27.0759C20.5469 26.663 20.9362 26.3282 21.4163 26.3282C21.8968 26.3282 22.2858 26.663 22.2858 27.0759Z" fill="#263238"/>
<path d="M126.501 62.4291H116.277C115.727 62.4291 115.235 62.7213 115.041 63.163L110.581 73.2794C110.253 74.0232 110.892 74.8192 111.817 74.8192H122.042C122.591 74.8192 123.083 74.527 123.278 74.0853L127.737 63.9689C128.065 63.2251 127.426 62.4291 126.501 62.4291Z" fill="#CFCFCF" stroke="#263238" stroke-miterlimit="10" stroke-linecap="round" stroke-linejoin="round"/>
<path d="M127.067 62.4291H116.843C116.294 62.4291 115.802 62.7213 115.607 63.163L111.148 73.2794C110.82 74.0232 111.459 74.8192 112.384 74.8192H122.608C123.157 74.8192 123.649 74.527 123.844 74.0853L128.304 63.9689C128.632 63.2251 127.993 62.4291 127.067 62.4291Z" fill="#CFCFCF" stroke="#263238" stroke-miterlimit="10" stroke-linecap="round" stroke-linejoin="round"/>
<path d="M126.844 74.0127L124.766 68.9226H115.195L116.919 74.3469C116.997 74.5913 117.255 74.7606 117.55 74.7606H126.227C126.678 74.7606 126.993 74.378 126.844 74.0127Z" fill="#CFCFCF" stroke="#263238" stroke-miterlimit="10" stroke-linecap="round" stroke-linejoin="round"/>
<path d="M127.276 74.0127L125.198 68.9226H115.627L117.351 74.3469C117.429 74.5913 117.687 74.7606 117.981 74.7606H126.659C127.109 74.7606 127.425 74.378 127.276 74.0127Z" fill="#CFCFCF" stroke="#263238" stroke-miterlimit="10" stroke-linecap="round" stroke-linejoin="round"/>
<path d="M70.3206 120.715H73.043V76.1948H70.3206V120.715Z" fill="white" stroke="#263238" stroke-miterlimit="10" stroke-linecap="round" stroke-linejoin="round"/>
<path d="M71.7443 120.715H73.3984V76.1948H71.7443V120.715Z" fill="#263238" stroke="#263238" stroke-miterlimit="10" stroke-linecap="round" stroke-linejoin="round"/>
<path d="M109.829 120.715H112.551V76.1948H109.829V120.715Z" fill="white" stroke="#263238" stroke-miterlimit="10" stroke-linecap="round" stroke-linejoin="round"/>
<path d="M111.252 120.715H112.906V76.1948H111.252V120.715Z" fill="#263238" stroke="#263238" stroke-miterlimit="10" stroke-linecap="round" stroke-linejoin="round"/>
<path d="M137.354 120.715H140.076V76.1948H137.354V120.715Z" fill="white" stroke="#263238" stroke-miterlimit="10" stroke-linecap="round" stroke-linejoin="round"/>
<path d="M138.777 120.715H140.432V76.1948H138.777V120.715Z" fill="#263238" stroke="#263238" stroke-miterlimit="10" stroke-linecap="round" stroke-linejoin="round"/>
<path d="M49.9671 120.715H52.6895L52.6895 76.1948H49.9671L49.9671 120.715Z" fill="white" stroke="#263238" stroke-miterlimit="10" stroke-linecap="round" stroke-linejoin="round"/>
<path d="M51.3908 120.715H53.0449L53.0449 76.1948H51.3908L51.3908 120.715Z" fill="#263238" stroke="#263238" stroke-miterlimit="10" stroke-linecap="round" stroke-linejoin="round"/>
<path d="M143.411 74.7608H46.3203V76.3692H143.411V74.7608Z" fill="white" stroke="#263238" stroke-miterlimit="10" stroke-linecap="round" stroke-linejoin="round"/>
<path d="M143.411 74.7608H108.438V76.3695H143.411V74.7608Z" fill="#263238" stroke="#263238" stroke-miterlimit="10" stroke-linecap="round" stroke-linejoin="round"/>
<path d="M132.662 66.5399L138.357 113.459" stroke="#263238" stroke-width="2" stroke-miterlimit="10"/>
<path d="M137.441 104.48L134.859 102.136" stroke="#263238" stroke-width="2" stroke-miterlimit="10"/>
<path d="M135.643 102.838C135.643 102.838 135.717 101.801 134.616 100.955C133.953 100.446 130.466 99.1848 130.135 100.241C129.775 101.39 133.344 103.645 135.643 102.838Z" fill="#92E3A9" stroke="#263238" stroke-miterlimit="10"/>
<path d="M135.642 102.838L132.322 101.059" stroke="#263238" stroke-width="0.5" stroke-miterlimit="10"/>
<path d="M135.861 91.459L133.279 89.1143" stroke="#263238" stroke-width="2" stroke-miterlimit="10"/>
<path d="M134.063 89.8169C134.063 89.8169 134.137 88.7798 133.036 87.9339C132.373 87.4249 128.885 86.1635 128.555 87.2197C128.195 88.3683 131.764 90.6244 134.063 89.8169Z" fill="#92E3A9" stroke="#263238" stroke-miterlimit="10"/>
<path d="M134.062 89.8169L130.742 88.0378" stroke="#263238" stroke-width="0.5" stroke-miterlimit="10"/>
<path d="M136.507 96.795L133.926 94.4506" stroke="#263238" stroke-width="2" stroke-miterlimit="10"/>
<path d="M134.709 95.1532C134.709 95.1532 134.783 94.1161 133.682 93.2702C133.019 92.7612 129.532 91.4998 129.201 92.556C128.841 93.7046 132.41 95.9605 134.709 95.1532Z" fill="#92E3A9" stroke="#263238" stroke-miterlimit="10"/>
<path d="M134.709 95.1532L131.389 93.3741" stroke="#263238" stroke-width="0.5" stroke-miterlimit="10"/>
<path d="M134.808 82.7909L132.227 80.4463" stroke="#263238" stroke-width="2" stroke-miterlimit="10"/>
<path d="M133.01 81.1488C133.01 81.1488 133.084 80.1117 131.983 79.2658C131.32 78.7569 127.833 77.4954 127.502 78.5517C127.142 79.7003 130.711 81.9564 133.01 81.1488Z" fill="#92E3A9" stroke="#263238" stroke-miterlimit="10"/>
<path d="M133.01 81.1488L129.689 79.3698" stroke="#263238" stroke-width="0.5" stroke-miterlimit="10"/>
<path d="M133.751 74.085L131.17 71.7404" stroke="#263238" stroke-width="2" stroke-miterlimit="10"/>
<path d="M131.954 72.4429C131.954 72.4429 132.027 71.4058 130.926 70.5599C130.264 70.051 126.776 68.7895 126.445 69.8455C126.085 70.9944 129.655 73.2505 131.954 72.4429Z" fill="#92E3A9" stroke="#263238" stroke-miterlimit="10"/>
<path d="M131.953 72.4429L128.633 70.6639" stroke="#263238" stroke-width="0.5" stroke-miterlimit="10"/>
<path d="M137.006 101.323L138.969 98.5705" stroke="#263238" stroke-width="2" stroke-miterlimit="10"/>
<path d="M138.37 99.397C138.37 99.397 138.049 98.3953 138.923 97.3723C139.45 96.7567 142.559 94.9031 143.136 95.8778C143.764 96.9378 140.814 99.7791 138.37 99.397Z" fill="#92E3A9" stroke="#263238" stroke-miterlimit="10"/>
<path d="M138.369 99.397L141.359 96.9403" stroke="#263238" stroke-width="0.5" stroke-miterlimit="10"/>
<path d="M135.301 87.281L137.264 84.5284" stroke="#263238" stroke-width="2" stroke-miterlimit="10"/>
<path d="M136.665 85.3551C136.665 85.3551 136.344 84.3534 137.218 83.3304C137.745 82.7148 140.854 80.8613 141.431 81.836C142.059 82.896 139.108 85.7369 136.665 85.3551Z" fill="#92E3A9" stroke="#263238" stroke-miterlimit="10"/>
<path d="M136.666 85.3551L139.656 82.8981" stroke="#263238" stroke-width="0.5" stroke-miterlimit="10"/>
<path d="M134.553 81.1099L136.516 78.3575" stroke="#263238" stroke-width="2" stroke-miterlimit="10"/>
<path d="M135.917 79.1843C135.917 79.1843 135.596 78.1826 136.47 77.1595C136.996 76.5439 140.106 74.6904 140.683 75.6651C141.311 76.7251 138.36 79.566 135.917 79.1843Z" fill="#92E3A9" stroke="#263238" stroke-miterlimit="10"/>
<path d="M135.918 79.1843L138.907 76.7273" stroke="#263238" stroke-width="0.5" stroke-miterlimit="10"/>
<path d="M133.455 72.0633L135.418 69.3109" stroke="#263238" stroke-width="2" stroke-miterlimit="10"/>
<path d="M134.819 70.1377C134.819 70.1377 134.498 69.136 135.373 68.1129C135.899 67.4973 139.008 65.6438 139.586 66.6185C140.214 67.6785 137.263 70.5195 134.819 70.1377Z" fill="#92E3A9" stroke="#263238" stroke-miterlimit="10"/>
<path d="M134.818 70.1377L137.808 67.6807" stroke="#263238" stroke-width="0.5" stroke-miterlimit="10"/>
<path d="M132.614 66.2794C132.614 66.2794 132.293 65.2777 133.168 64.2546C133.694 63.639 136.803 61.7855 137.38 62.7602C138.008 63.8199 135.057 66.6611 132.614 66.2794Z" fill="#92E3A9" stroke="#263238" stroke-miterlimit="10"/>
<path d="M132.615 66.2794L135.605 63.8224" stroke="#263238" stroke-width="0.5" stroke-miterlimit="10"/>
<path d="M132.788 66.3852C132.788 66.3852 131.596 66.5548 130.504 65.6997C129.848 65.185 128.03 62.3319 129.218 61.9404C130.51 61.5147 133.486 64.3362 132.788 66.3852Z" fill="#92E3A9" stroke="#263238" stroke-miterlimit="10"/>
<path d="M132.788 66.3852L130.26 63.5713" stroke="#263238" stroke-width="0.5" stroke-miterlimit="10"/>
<path d="M147.682 73.0016L142.98 113.242" stroke="#263238" stroke-width="2" stroke-miterlimit="10"/>
<path d="M144.844 97.9528L142.879 95.2012" stroke="#263238" stroke-width="2" stroke-miterlimit="10"/>
<path d="M143.479 96.0274C143.479 96.0274 143.799 95.0257 142.924 94.003C142.398 93.3876 139.287 91.5357 138.71 92.5107C138.083 93.5712 141.036 96.4106 143.479 96.0274Z" fill="#92E3A9" stroke="#263238" stroke-miterlimit="10"/>
<path d="M143.479 96.0274L140.656 93.6989" stroke="#263238" stroke-width="0.5" stroke-miterlimit="10"/>
<path d="M144.199 103.289L142.234 100.538" stroke="#263238" stroke-width="2" stroke-miterlimit="10"/>
<path d="M142.834 101.364C142.834 101.364 143.155 100.362 142.28 99.3395C141.753 98.7242 138.642 96.8722 138.066 97.8472C137.439 98.9075 140.391 101.747 142.834 101.364Z" fill="#92E3A9" stroke="#263238" stroke-miterlimit="10"/>
<path d="M142.835 101.364L140.012 99.0352" stroke="#263238" stroke-width="0.5" stroke-miterlimit="10"/>
<path d="M145.889 89.2839L143.924 86.5326" stroke="#263238" stroke-width="2" stroke-miterlimit="10"/>
<path d="M144.524 87.3588C144.524 87.3588 144.844 86.3571 143.969 85.3343C143.443 84.719 140.332 82.8671 139.755 83.842C139.128 84.9023 142.081 87.7419 144.524 87.3588Z" fill="#92E3A9" stroke="#263238" stroke-miterlimit="10"/>
<path d="M144.524 87.3588L141.701 85.0303" stroke="#263238" stroke-width="0.5" stroke-miterlimit="10"/>
<path d="M146.939 80.5775L144.975 77.8262" stroke="#263238" stroke-width="2" stroke-miterlimit="10"/>
<path d="M145.575 78.6524C145.575 78.6524 145.895 77.6507 145.02 76.6279C144.494 76.0126 141.383 74.1606 140.806 75.1356C140.179 76.1959 143.131 79.0355 145.575 78.6524Z" fill="#92E3A9" stroke="#263238" stroke-miterlimit="10"/>
<path d="M145.575 78.6524L142.752 76.3236" stroke="#263238" stroke-width="0.5" stroke-miterlimit="10"/>
<path d="M145.299 93.7653L147.879 91.4193" stroke="#263238" stroke-width="2" stroke-miterlimit="10"/>
<path d="M147.095 92.1221C147.095 92.1221 147.02 91.0851 148.121 90.2386C148.783 89.7294 152.27 88.4661 152.601 89.522C152.962 90.6706 149.394 92.9283 147.095 92.1221Z" fill="#92E3A9" stroke="#263238" stroke-miterlimit="10"/>
<path d="M147.096 92.1221L150.609 90.2473" stroke="#263238" stroke-width="0.5" stroke-miterlimit="10"/>
<path d="M146.043 87.594L148.623 85.2479" stroke="#263238" stroke-width="2" stroke-miterlimit="10"/>
<path d="M147.839 85.951C147.839 85.951 147.765 84.9139 148.865 84.0675C149.527 83.5583 153.014 82.2949 153.346 83.3509C153.706 84.4995 150.138 86.7572 147.839 85.951Z" fill="#92E3A9" stroke="#263238" stroke-miterlimit="10"/>
<path d="M147.84 85.951L151.354 84.0759" stroke="#263238" stroke-width="0.5" stroke-miterlimit="10"/>
<path d="M147.135 78.5468L149.715 76.2008" stroke="#263238" stroke-width="2" stroke-miterlimit="10"/>
<path d="M148.931 76.9039C148.931 76.9039 148.856 75.8668 149.957 75.0203C150.619 74.5111 154.106 73.2478 154.437 74.3038C154.798 75.4523 151.23 77.7101 148.931 76.9039Z" fill="#92E3A9" stroke="#263238" stroke-miterlimit="10"/>
<path d="M148.93 76.9039L152.444 75.0287" stroke="#263238" stroke-width="0.5" stroke-miterlimit="10"/>
<path d="M147.698 72.738C147.698 72.738 147.624 71.701 148.724 70.8545C149.387 70.3453 152.873 69.082 153.205 70.1379C153.565 71.2865 149.998 73.5442 147.698 72.738Z" fill="#92E3A9" stroke="#263238" stroke-miterlimit="10"/>
<path d="M147.697 72.738L151.211 70.8629" stroke="#263238" stroke-width="0.5" stroke-miterlimit="10"/>
<path d="M147.842 72.8725C147.842 72.8725 146.635 72.8274 145.772 71.7973C145.252 71.1777 144.157 68.0638 145.413 67.891C146.779 67.7028 149.016 70.9906 147.842 72.8725Z" fill="#92E3A9" stroke="#263238" stroke-miterlimit="10"/>
<path d="M147.841 72.8725L146.041 69.6708" stroke="#263238" stroke-width="0.5" stroke-miterlimit="10"/>
<path d="M141.193 53.8944V113.231" stroke="#263238" stroke-width="2" stroke-miterlimit="10"/>
<path d="M144.032 120.715H136.724L135.811 107.09H144.945L144.032 120.715Z" fill="#263238" stroke="#263238" stroke-miterlimit="10"/>
<path d="M141.248 104.309L138.963 101.747" stroke="#263238" stroke-width="2" stroke-miterlimit="10"/>
<path d="M139.659 102.515C139.659 102.515 139.858 101.491 138.864 100.551C138.267 99.9859 134.95 98.4199 134.494 99.4407C133.997 100.551 137.275 103.113 139.659 102.515Z" fill="#92E3A9" stroke="#263238" stroke-miterlimit="10"/>
<path d="M139.66 102.515L136.572 100.45" stroke="#263238" stroke-width="0.5" stroke-miterlimit="10"/>
<path d="M141.248 93.1584L138.963 90.5958" stroke="#263238" stroke-width="2" stroke-miterlimit="10"/>
<path d="M139.659 91.3648C139.659 91.3648 139.858 90.3398 138.864 89.4002C138.267 88.8351 134.95 87.2691 134.494 88.29C133.997 89.4002 137.275 91.9625 139.659 91.3648Z" fill="#92E3A9" stroke="#263238" stroke-miterlimit="10"/>
<path d="M139.66 91.3648L136.572 89.299" stroke="#263238" stroke-width="0.5" stroke-miterlimit="10"/>
<path d="M141.248 80.0666L138.963 77.504" stroke="#263238" stroke-width="2" stroke-miterlimit="10"/>
<path d="M139.659 78.2727C139.659 78.2727 139.858 77.2478 138.864 76.3082C138.267 75.7428 134.95 74.1771 134.494 75.198C133.997 76.3085 137.275 78.8708 139.659 78.2727Z" fill="#92E3A9" stroke="#263238" stroke-miterlimit="10"/>
<path d="M139.66 78.2727L136.572 76.2072" stroke="#263238" stroke-width="0.5" stroke-miterlimit="10"/>
<path d="M141.248 71.3513L138.963 68.789" stroke="#263238" stroke-width="2" stroke-miterlimit="10"/>
<path d="M139.659 69.5577C139.659 69.5577 139.858 68.5327 138.864 67.5931C138.267 67.0278 134.95 65.462 134.494 66.4826C133.997 67.5931 137.275 70.1554 139.659 69.5577Z" fill="#92E3A9" stroke="#263238" stroke-miterlimit="10"/>
<path d="M139.66 69.5577L136.572 67.4919" stroke="#263238" stroke-width="0.5" stroke-miterlimit="10"/>
<path d="M141.248 62.5982L138.963 60.0359" stroke="#263238" stroke-width="2" stroke-miterlimit="10"/>
<path d="M139.659 60.8045C139.659 60.8045 139.858 59.7796 138.864 58.84C138.267 58.2746 134.95 56.7089 134.494 57.7295C133.997 58.84 137.275 61.4023 139.659 60.8045Z" fill="#92E3A9" stroke="#263238" stroke-miterlimit="10"/>
<path d="M139.66 60.8045L136.572 58.7388" stroke="#263238" stroke-width="0.5" stroke-miterlimit="10"/>
<path d="M141.197 89.9794L143.482 87.4171" stroke="#263238" stroke-width="2" stroke-miterlimit="10"/>
<path d="M142.788 88.1858C142.788 88.1858 142.589 87.1609 143.582 86.2213C144.18 85.6562 147.496 84.0899 147.953 85.111C148.449 86.2213 145.172 88.7836 142.788 88.1858Z" fill="#92E3A9" stroke="#263238" stroke-miterlimit="10"/>
<path d="M142.787 88.1858L146.057 86.0088" stroke="#263238" stroke-width="0.5" stroke-miterlimit="10"/>
<path d="M141.197 81.2263L143.482 78.6637" stroke="#263238" stroke-width="2" stroke-miterlimit="10"/>
<path d="M142.788 79.4324C142.788 79.4324 142.589 78.4075 143.582 77.4679C144.18 76.9025 147.496 75.3365 147.953 76.3576C148.449 77.4681 145.172 80.0304 142.788 79.4324Z" fill="#92E3A9" stroke="#263238" stroke-miterlimit="10"/>
<path d="M142.787 79.4324L146.057 77.2556" stroke="#263238" stroke-width="0.5" stroke-miterlimit="10"/>
<path d="M141.197 69.6568L143.482 67.0942" stroke="#263238" stroke-width="2" stroke-miterlimit="10"/>
<path d="M142.788 67.8629C142.788 67.8629 142.589 66.838 143.582 65.8984C144.18 65.333 147.496 63.767 147.953 64.7879C148.449 65.8986 145.172 68.4609 142.788 67.8629Z" fill="#92E3A9" stroke="#263238" stroke-miterlimit="10"/>
<path d="M142.787 67.8629L146.057 65.6862" stroke="#263238" stroke-width="0.5" stroke-miterlimit="10"/>
<path d="M141.197 60.561L143.482 57.9984" stroke="#263238" stroke-width="2" stroke-miterlimit="10"/>
<path d="M142.788 58.7671C142.788 58.7671 142.589 57.7422 143.582 56.8026C144.18 56.2372 147.496 54.6712 147.953 55.6921C148.449 56.8029 145.172 59.3652 142.788 58.7671Z" fill="#92E3A9" stroke="#263238" stroke-miterlimit="10"/>
<path d="M142.787 58.7671L146.057 56.5904" stroke="#263238" stroke-width="0.5" stroke-miterlimit="10"/>
<path d="M141.061 54.7331C141.061 54.7331 140.862 53.7081 141.856 52.7685C142.453 52.2032 145.77 50.6374 146.226 51.6583C146.723 52.7685 143.445 55.3311 141.061 54.7331Z" fill="#92E3A9" stroke="#263238" stroke-miterlimit="10"/>
<path d="M141.061 54.733L144.331 52.5563" stroke="#263238" stroke-width="0.5" stroke-miterlimit="10"/>
<path d="M141.22 54.854C141.22 54.854 140.014 54.9164 139.031 53.9684C138.441 53.3982 136.977 50.3979 138.206 50.1147C139.542 49.8064 142.162 52.8782 141.22 54.854Z" fill="#92E3A9" stroke="#263238" stroke-miterlimit="10"/>
<path d="M141.22 54.854L139.045 51.8295" stroke="#263238" stroke-width="0.5" stroke-miterlimit="10"/>
<path d="M34.5393 113.243C34.5393 113.243 34.5085 114.147 34.2303 114.971C33.9521 115.794 33.7668 116.087 33.6123 117.256C33.4579 118.426 33.3341 119.781 33.7976 120.286C34.2611 120.791 36.8264 121.216 38.279 121.11C39.7316 121.003 40.1954 120.312 40.3806 120.259C40.5662 120.206 41.6168 120.365 42.0803 120.312C42.5441 120.259 45.2018 119.621 45.7889 119.302C46.3761 118.984 46.0979 118.319 45.8508 118.107C45.6037 117.894 43.5329 116.432 42.513 115.821C41.4931 115.21 41.0912 114.094 41.0912 114.094L41.0293 113.695L34.5393 113.243Z" fill="white" stroke="#263238" stroke-miterlimit="10" stroke-linecap="round" stroke-linejoin="round"/>
<path d="M42.5133 115.821C42.2552 115.666 42.0369 115.479 41.8545 115.286C41.4388 115.561 40.5288 115.952 38.8354 116.007C36.3752 116.086 34.131 115.324 34.1087 115.316C33.8962 115.904 33.7429 116.266 33.6123 117.256C33.4578 118.425 33.3341 119.781 33.7979 120.286C34.2617 120.79 36.8267 121.216 38.2793 121.109C39.7319 121.003 40.1956 120.312 40.3809 120.259C40.5665 120.206 41.6171 120.365 42.0806 120.312C42.5444 120.259 45.2021 119.621 45.7892 119.302C46.3764 118.983 46.0982 118.319 45.8511 118.106C45.604 117.894 43.5331 116.432 42.5133 115.821Z" fill="#263238" stroke="#263238" stroke-miterlimit="10" stroke-linecap="round" stroke-linejoin="round"/>
<path d="M33.3652 119.568C33.3652 119.568 37.1357 121.508 40.2572 119.728" stroke="#616161" stroke-miterlimit="10" stroke-linecap="round" stroke-linejoin="round"/>
<path d="M36.0922 91.7012L34.0176 113.097C34.0176 113.097 35.2105 114.346 37.648 114.39C40.0856 114.435 42.0045 113.721 42.0045 113.721L45.635 91.3445L36.0922 91.7012Z" fill="#263238" stroke="#263238" stroke-miterlimit="10" stroke-linecap="round" stroke-linejoin="round"/>
<path d="M39.7103 39.2342C39.7103 39.2342 42.0487 41.1628 42.0964 43.1737C42.1441 45.1844 41.6668 46.1694 41.7146 46.9902C41.7623 47.811 42.8123 48.1804 42.4782 49.0422C42.1441 49.904 41.0464 50.2734 41.0464 50.2734C41.0464 50.2734 40.7123 51.4636 40.3305 51.915C39.9486 52.3664 39.0895 53.2283 38.3739 53.4335C37.658 53.6387 35.5583 52.9 35.5583 52.9L35.1287 54.2132L26.9201 50.7251L27.0156 48.7144C27.0156 48.7144 24.4863 46.2933 24.4863 43.4616C24.4863 40.6298 26.4906 38.3318 28.7815 37.5113C31.0722 36.69 35.8446 35.705 39.7103 39.2342Z" fill="#CFCFCF" stroke="#263238" stroke-miterlimit="10" stroke-linecap="round" stroke-linejoin="round"/>
<path d="M39.7587 39.2753C39.7304 39.251 39.7103 39.234 39.7103 39.234C35.8446 35.7048 31.0722 36.6898 28.7815 37.5106C26.4906 38.3314 24.4863 40.6293 24.4863 43.4608C24.4863 46.2923 27.0156 48.7134 27.0156 48.7134C27.0156 48.7134 28.4952 49.0007 29.3065 48.6724C30.1179 48.344 29.927 47.277 29.7361 46.3744C29.5452 45.4715 29.9747 43.2556 31.8361 44.0354C33.1345 44.5794 33.268 45.1024 33.5066 45.3076C33.7452 45.5128 34.7475 45.5128 34.8907 45.4718C35.0339 45.4307 35.0339 44.8151 35.3203 44.2816C35.6066 43.7481 37.8018 42.599 37.5158 42.1068C37.2294 41.6143 35.4157 40.2602 35.6544 39.8498C35.8519 39.5088 38.5476 39.3098 39.7587 39.2753Z" fill="#263238" stroke="#263238" stroke-miterlimit="10" stroke-linecap="round" stroke-linejoin="round"/>
<path d="M29.6406 45.3894C29.6406 45.3894 29.8793 47.6874 30.3088 48.2619C30.7384 48.8365 31.7407 49.329 32.8381 48.2209" stroke="#263238" stroke-miterlimit="10" stroke-linecap="round" stroke-linejoin="round"/>
<path d="M39.6152 43.9533C39.6152 43.9533 40.9993 43.1735 41.763 43.9533" stroke="#263238" stroke-miterlimit="10" stroke-linecap="round" stroke-linejoin="round"/>
<path d="M40.0437 50.1098L37.8278 49.0828C37.8278 49.0828 37.3715 50.6234 38.2187 50.8802C39.0659 51.1369 40.0437 50.1098 40.0437 50.1098Z" fill="white" stroke="#263238" stroke-miterlimit="10" stroke-linecap="round" stroke-linejoin="round"/>
<path d="M41.1374 46.2135C41.0451 46.6711 40.8125 47.0189 40.6178 46.9897C40.4231 46.9605 40.3399 46.5661 40.4322 46.1082C40.5245 45.6502 40.7572 45.3027 40.9519 45.3319C41.1466 45.3611 41.2298 45.7558 41.1374 46.2135Z" fill="#263238"/>
<path d="M33.0762 44.8559L41.1366 46.2135" stroke="#263238" stroke-miterlimit="10" stroke-linecap="round" stroke-linejoin="round"/>
<path d="M41.4756 45.4305C41.4756 45.4305 40.4256 48.0568 40.8552 48.344C41.2847 48.6313 42.0484 47.7284 42.0484 47.7284C42.0484 47.7284 42.7166 45.7177 42.5257 45.5536C42.3347 45.3894 42.0006 44.8969 41.4756 45.4305Z" stroke="#263238" stroke-miterlimit="10" stroke-linecap="round" stroke-linejoin="round"/>
<path d="M36.4176 56.1411C36.4176 56.1411 36.2267 54.4177 35.9881 54.1712C35.7494 53.9249 30.3565 51.5038 28.6386 50.8882C26.9204 50.2726 26.5866 50.2316 26.3002 50.2726C26.0139 50.3137 24.582 52.0371 24.582 52.0371C24.582 52.0371 27.1113 52.1192 31.311 53.6787C35.5108 55.2385 36.4176 56.1411 36.4176 56.1411Z" fill="#92E3A9" stroke="#263238" stroke-miterlimit="10" stroke-linecap="round" stroke-linejoin="round"/>
<path d="M63.6296 59.681C63.6296 59.681 63.5935 57.1241 63.1218 57.2802C62.6505 57.436 62.6866 58.4029 62.578 58.9639C62.4693 59.5253 62.4693 59.9929 62.4329 60.0866C62.3965 60.18 61.7801 58.7458 61.5989 58.3092C61.4178 57.8726 61.0551 57.9663 60.91 58.4339C60.7649 58.9016 61.0912 60.3984 61.0912 60.5542C61.0912 60.71 61.1273 61.365 61.1273 61.365C61.1273 61.365 59.8217 58.5276 59.5319 59.0576C59.2417 59.5876 59.9307 60.4919 60.0032 61.0532C60.0757 61.6145 60.2208 62.3003 60.2208 62.3003C60.2208 62.3003 60.9822 62.6122 62.1789 61.209C63.3755 59.8058 63.6296 59.681 63.6296 59.681Z" fill="#CFCFCF" stroke="#263238" stroke-miterlimit="10" stroke-linecap="round" stroke-linejoin="round"/>
<path d="M53.9844 63.6098C53.9844 63.6098 54.7823 61.9571 55.9789 61.5208C57.1756 61.0842 60.0041 61.0532 60.0041 61.0532C60.0041 61.0532 62.8687 59.7437 63.2314 59.5253C63.594 59.3071 63.9203 58.3715 64.3555 57.9973C64.7907 57.6231 65.2259 57.4049 65.1895 57.9973C65.1534 58.5897 63.4125 61.1153 63.0499 61.6456C62.6872 62.1756 61.4544 63.454 60.4754 63.7659C59.4963 64.0777 56.6317 65.1377 56.5592 65.2314C56.4863 65.3249 53.9844 63.6098 53.9844 63.6098Z" fill="#CFCFCF" stroke="#263238" stroke-miterlimit="10" stroke-linecap="round" stroke-linejoin="round"/>
<path d="M54.3477 63.1422C54.3477 63.1422 55.3267 60.6477 56.7049 60.2734C58.0827 59.8992 58.8806 59.9616 59.2432 59.8058C59.6059 59.65 60.5124 59.2134 61.2378 59.1197C61.9631 59.0263 62.652 59.0887 62.652 59.3692C62.652 59.6497 61.4554 59.9616 60.6575 60.4292C59.8596 60.8969 58.9895 61.8948 58.9895 61.8948" fill="#CFCFCF"/>
<path d="M54.3477 63.1422C54.3477 63.1422 55.3267 60.6477 56.7049 60.2734C58.0827 59.8992 58.8806 59.9616 59.2432 59.8058C59.6059 59.65 60.5124 59.2134 61.2378 59.1197C61.9631 59.0263 62.652 59.0887 62.652 59.3692C62.652 59.6497 61.4554 59.9616 60.6575 60.4292C59.8596 60.8969 58.9895 61.8948 58.9895 61.8948" stroke="#263238" stroke-miterlimit="10" stroke-linecap="round" stroke-linejoin="round"/>
<path d="M16.1918 84.7743C16.1918 84.7743 15.4966 88.9585 16.1918 90.0998C16.887 91.2411 18.4667 92.2736 19.8571 92.5452C21.2475 92.8168 49.0541 92.5452 49.0541 92.5452L45.3888 112.923C45.3888 112.923 50.733 113.47 52.9879 113.411C54.3648 113.375 54.9105 113.346 54.9105 113.346C54.9105 113.346 57.5019 102.866 57.5651 102.595C57.6282 102.323 59.6711 94.4471 60.24 91.1868C60.8087 87.9263 61.2511 84.9377 60.5559 83.7964C59.8607 82.6551 56.8272 82.4923 55.9426 82.4923C55.0578 82.4923 37.7419 82.2207 37.7419 82.2207C37.7419 82.2207 31.043 84.7746 26.8091 84.992C22.5748 85.209 16.1918 84.7743 16.1918 84.7743Z" fill="#263238" stroke="#263238" stroke-miterlimit="10" stroke-linecap="round" stroke-linejoin="round"/>
<path d="M49.4961 92.5452C49.4961 92.5452 52.719 91.7301 55.5629 89.4478" stroke="#616161" stroke-miterlimit="10" stroke-linecap="round" stroke-linejoin="round"/>
<path d="M57.1436 89.1759C57.1436 89.1759 55.9429 90.5342 53.668 91.2408" stroke="#616161" stroke-miterlimit="10" stroke-linecap="round" stroke-linejoin="round"/>
<path d="M24.5817 52.0374C24.5817 52.0374 15.8004 57.9055 15.1322 59.6703C14.464 61.435 14.989 62.6659 14.989 62.6659C14.989 62.6659 15.5458 74.8569 15.5458 75.0789C15.5458 75.3011 15.2013 82.3359 15.2013 83.4467C15.2013 84.5575 16.2347 85.7423 17.7849 85.7423C19.3351 85.7423 26.3967 86.4086 30.186 85.5943C33.9754 84.7797 37.1615 83.7429 38.0228 82.5581C38.8841 81.3734 37.4199 79.2998 37.6784 78.041C37.9368 76.782 38.6257 63.5269 38.1089 60.9352C37.592 58.3435 36.4177 56.1411 36.4177 56.1411C36.4177 56.1411 33.2736 52.7661 24.5817 52.0374Z" fill="#92E3A9" stroke="#263238" stroke-miterlimit="10" stroke-linecap="round" stroke-linejoin="round"/>
<path d="M52.4629 64.3269C52.4629 64.3269 53.7321 63.3603 53.9858 63.3293C54.2395 63.2982 55.4362 63.2669 56.4516 64.3269C57.4671 65.3872 57.0319 66.3225 57.0319 66.3225L55.4365 67.8815L52.4629 64.3269Z" fill="#92E3A9" stroke="#263238" stroke-miterlimit="10" stroke-linecap="round" stroke-linejoin="round"/>
<path d="M34.5966 56.4281C34.5966 56.4281 37.8917 56.8893 38.8114 57.8777C39.7311 58.8662 45.4019 70.0682 45.4019 70.0682C45.4019 70.0682 51.3026 64.533 52.2223 64.2036C53.142 63.8742 55.1344 65.5214 55.7476 66.8393C56.3605 68.1572 55.2879 69.4092 54.8279 70.0024C54.3682 70.5955 48.5438 76.3285 47.7777 77.5146C47.0112 78.7007 45.6318 78.9642 43.7161 78.8324C41.8004 78.7007 39.5013 76.0649 39.0416 75.6694C38.5819 75.2741 30.2285 66.5099 30.2285 66.5099" fill="#92E3A9"/>
<path d="M34.5966 56.4281C34.5966 56.4281 37.8917 56.8893 38.8114 57.8777C39.7311 58.8662 45.4019 70.0682 45.4019 70.0682C45.4019 70.0682 51.3026 64.533 52.2223 64.2036C53.142 63.8742 55.1344 65.5214 55.7476 66.8393C56.3605 68.1572 55.2879 69.4092 54.8279 70.0024C54.3682 70.5955 48.5438 76.3285 47.7777 77.5146C47.0112 78.7007 45.6318 78.9642 43.7161 78.8324C41.8004 78.7007 39.5013 76.0649 39.0416 75.6694C38.5819 75.2741 30.2285 66.5099 30.2285 66.5099" stroke="#263238" stroke-miterlimit="10" stroke-linecap="round" stroke-linejoin="round"/>
<path d="M26.7031 67.3007C26.7031 67.3007 30.305 70.0023 33.5235 70.5955" stroke="#263238" stroke-miterlimit="10" stroke-linecap="round" stroke-linejoin="round"/>
<path d="M30.6113 71.9134C30.6113 71.9134 32.2972 72.0452 34.06 71.6499" stroke="#263238" stroke-miterlimit="10" stroke-linecap="round" stroke-linejoin="round"/>
<path d="M45.6309 70.6614C45.6309 70.6614 47.5466 72.3746 47.3933 73.8903" stroke="#263238" stroke-miterlimit="10" stroke-linecap="round" stroke-linejoin="round"/>
<path d="M47.8524 72.7042C47.8524 72.7042 48.1589 74.0221 47.6992 75.6035" stroke="#263238" stroke-miterlimit="10" stroke-linecap="round" stroke-linejoin="round"/>
<path d="M26.4677 113.233H12.3534C11.2393 113.233 10.1683 113.66 9.50009 114.427C8.8947 115.122 8.32134 116.185 8.17188 117.779H10.1893C10.1893 117.779 10.1878 117.75 10.1878 117.698C10.1868 115.987 11.8228 114.608 13.8119 114.608H26.4677V113.233Z" fill="#263238" stroke="#263238" stroke-miterlimit="10" stroke-linecap="round" stroke-linejoin="round"/>
<path d="M10.399 120.829C11.7822 120.829 12.9035 119.865 12.9035 118.676C12.9035 117.486 11.7822 116.522 10.399 116.522C9.01582 116.522 7.89453 117.486 7.89453 118.676C7.89453 119.865 9.01582 120.829 10.399 120.829Z" fill="#263238" stroke="#263238" stroke-miterlimit="10" stroke-linecap="round" stroke-linejoin="round"/>
<path d="M28.789 118.676C28.789 119.865 28.3792 120.829 27.874 120.829C27.3688 120.829 26.959 119.865 26.959 118.676C26.959 117.486 27.3688 116.522 27.874 116.522C28.3792 116.523 28.789 117.486 28.789 118.676Z" fill="#263238" stroke="#263238" stroke-miterlimit="10" stroke-linecap="round" stroke-linejoin="round"/>
<path d="M29.8974 120.829C30.4028 120.829 30.8124 119.865 30.8124 118.676C30.8124 117.486 30.4028 116.522 29.8974 116.522C29.3921 116.522 28.9824 117.486 28.9824 118.676C28.9824 119.865 29.3921 120.829 29.8974 120.829Z" fill="#263238" stroke="#263238" stroke-miterlimit="10" stroke-linecap="round" stroke-linejoin="round"/>
<path d="M29.5048 113.308H28.207V119.55H29.5048V113.308Z" fill="#263238" stroke="#263238" stroke-miterlimit="10" stroke-linecap="round" stroke-linejoin="round"/>
<path d="M31.5257 113.233H45.64C46.7541 113.233 47.8251 113.66 48.4933 114.427C49.0987 115.122 49.6718 116.185 49.8212 117.779H47.8038C47.8038 117.779 47.8053 117.75 47.8053 117.698C47.8063 115.987 46.1704 114.608 44.1812 114.608H31.5254L31.5257 113.233Z" fill="#263238" stroke="#263238" stroke-miterlimit="10" stroke-linecap="round" stroke-linejoin="round"/>
<path d="M47.5943 120.829C48.9775 120.829 50.0988 119.865 50.0988 118.676C50.0988 117.486 48.9775 116.522 47.5943 116.522C46.2111 116.522 45.0898 117.486 45.0898 118.676C45.0898 119.865 46.2111 120.829 47.5943 120.829Z" fill="white" stroke="#263238" stroke-miterlimit="10" stroke-linecap="round" stroke-linejoin="round"/>
<path d="M30.3384 93.9152H27.3633V104.763H30.3384V93.9152Z" fill="#7A7A7A" stroke="#263238" stroke-miterlimit="10" stroke-linecap="round" stroke-linejoin="round"/>
<path d="M31.5286 104.097H26.4707V114.638H31.5286V104.097Z" fill="#263238" stroke="#263238" stroke-miterlimit="10" stroke-linecap="round" stroke-linejoin="round"/>
<path d="M47.1189 94.4268H11.7129C11.7129 92.5617 13.4713 91.0497 15.6404 91.0497H43.1917C45.3605 91.0499 47.1189 92.5619 47.1189 94.4268Z" fill="#263238" stroke="#263238" stroke-miterlimit="10" stroke-linecap="round" stroke-linejoin="round"/>
<path d="M5.82227 67.7176C5.82227 67.7176 16.0571 69.7132 26.1136 67.871C26.1136 67.871 29.8031 75.495 30.6955 79.6905C31.5882 83.8863 30.9335 85.4213 29.2077 88.1844C27.482 90.9473 27.5416 91.9196 27.7797 92.9942C28.0177 94.0688 28.9697 94.5292 28.9697 94.5292H25.8756C25.8756 94.5292 24.9235 92.6359 25.2209 91.408C25.5185 90.18 25.511 90.2435 26.0539 89.3101C26.768 88.0821 27.006 87.2122 27.006 87.2122H13.4986C13.4986 87.2122 11.7729 88.9518 11.4755 90.7427C11.1779 92.5336 12.7846 94.4779 12.7846 94.4779H10.2258C10.2258 94.4779 9.15475 92.3289 9.45211 90.9984C9.74978 89.6681 12.1622 87.817 11.4159 82.5047C10.3448 74.881 5.82227 67.7176 5.82227 67.7176Z" fill="#263238" stroke="#263238" stroke-miterlimit="10" stroke-linecap="round" stroke-linejoin="round"/>
<path d="M42.9012 120.753C42.9012 120.753 42.4676 121.383 43.1295 121.675C43.7914 121.968 45.3532 122.367 46.9301 122.409C48.507 122.451 49.6283 122.476 49.7847 122.279C49.9411 122.083 50.051 121.916 50.051 121.916C50.051 121.916 44.961 121.425 42.9012 120.753Z" fill="#263238" stroke="#263238" stroke-miterlimit="10" stroke-linecap="round" stroke-linejoin="round"/>
<path d="M46.3512 113.023C46.3512 113.023 45.4384 115.031 45.0516 115.63C44.6644 116.23 44.1121 116.559 43.6876 117.656C43.263 118.752 42.6671 120.402 42.9032 120.753C43.139 121.103 46.4784 121.854 49.5672 121.823C52.656 121.792 56.1499 122.096 57.9576 121.735C59.7653 121.374 61.5023 120.934 61.7184 120.099C61.9344 119.265 61.096 118.772 60.7337 118.693C60.371 118.615 54.6389 117.188 54.1758 116.954C53.7129 116.721 52.8877 115.62 52.7691 115.32C52.6504 115.019 52.9895 113.411 52.9895 113.411L46.3512 113.023Z" fill="white" stroke="#263238" stroke-miterlimit="10" stroke-linecap="round" stroke-linejoin="round"/>
<path d="M60.7334 118.694C60.3707 118.615 54.6386 117.188 54.1755 116.955C53.9503 116.841 53.6401 116.523 53.3669 116.191C53.1694 116.612 52.911 117.307 52.911 117.307C52.911 117.307 53.7531 117.514 50.9604 117.257C48.2685 117.01 45.0839 115.972 44.8572 115.897C44.4933 116.352 44.0452 116.732 43.6876 117.656C43.263 118.752 42.6671 120.402 42.9032 120.753C43.139 121.103 46.4784 121.854 49.5672 121.823C52.656 121.792 56.1499 122.096 57.9576 121.735C59.7653 121.374 61.5023 120.934 61.7184 120.099C61.9341 119.265 61.0957 118.772 60.7334 118.694Z" fill="#263238" stroke="#263238" stroke-miterlimit="10" stroke-linecap="round" stroke-linejoin="round"/>
</svg>
