<svg width="180" height="46" viewBox="0 0 180 46" fill="none" xmlns="http://www.w3.org/2000/svg">
<path d="M31.9413 39.7249C31.9413 40.533 32.2011 41.3333 32.7058 42.0799C33.2105 42.8266 33.9503 43.505 34.8829 44.0764C35.8155 44.6479 36.9226 45.1012 38.1411 45.4105C39.3596 45.7197 40.6656 45.8789 41.9845 45.8789C43.3034 45.8789 44.6094 45.7197 45.8279 45.4105C47.0464 45.1012 48.1536 44.6479 49.0862 44.0764C50.0188 43.505 50.7586 42.8266 51.2633 42.0799C51.768 41.3333 52.0278 40.533 52.0278 39.7249C52.0272 38.0927 50.9685 36.5276 49.0846 35.3738C47.2007 34.2199 44.6459 33.5719 41.9823 33.5723C39.3186 33.5727 36.7643 34.2214 34.8813 35.3757C32.9982 36.5301 31.9407 38.0955 31.9413 39.7277V39.7249ZM20.0774 39.7249C20.0768 38.9171 19.8165 38.1173 19.3115 37.3711C18.8064 36.625 18.0665 35.9471 17.1339 35.3761C16.2013 34.8052 15.0943 34.3524 13.8761 34.0436C12.6579 33.7348 11.3524 33.5761 10.0341 33.5765C8.71583 33.5768 7.41055 33.7363 6.19283 34.0458C4.97511 34.3552 3.86879 34.8086 2.93704 35.3801C2.00528 35.9516 1.26634 36.6299 0.762404 37.3763C0.258467 38.1227 -0.00059819 38.9227 1.03715e-06 39.7305C0.00121127 41.3619 1.06002 42.9262 2.94349 44.0792C4.82697 45.2323 7.38083 45.8796 10.0433 45.8789C12.7057 45.8782 15.2586 45.2294 17.1403 44.0753C19.0221 42.9212 20.0786 41.3563 20.0774 39.7249ZM63.8826 39.7249C63.8826 41.357 64.9407 42.9223 66.8242 44.0764C68.7076 45.2305 71.2622 45.8789 73.9258 45.8789C76.5895 45.8789 79.144 45.2305 81.0275 44.0764C82.9109 42.9223 83.9691 41.357 83.9691 39.7249C83.9691 38.0927 82.9109 36.5275 81.0275 35.3734C79.144 34.2193 76.5895 33.5709 73.9258 33.5709C71.2622 33.5709 68.7076 34.2193 66.8242 35.3734C64.9407 36.5275 63.8826 38.0927 63.8826 39.7249Z" fill="black"/>
<path d="M31.9413 23.3147C31.9413 24.1229 32.2011 24.9231 32.7058 25.6698C33.2105 26.4164 33.9503 27.0948 34.8829 27.6663C35.8155 28.2377 36.9226 28.691 38.1411 29.0003C39.3596 29.3096 40.6656 29.4687 41.9845 29.4687C43.3034 29.4687 44.6094 29.3096 45.8279 29.0003C47.0464 28.691 48.1536 28.2377 49.0862 27.6663C50.0188 27.0948 50.7586 26.4164 51.2633 25.6698C51.768 24.9231 52.0278 24.1229 52.0278 23.3147C52.0272 21.6826 50.9685 20.1174 49.0846 18.9636C47.2007 17.8098 44.6459 17.1618 41.9823 17.1621C39.3186 17.1625 36.7643 17.8112 34.8813 18.9656C32.9982 20.1199 31.9407 21.6854 31.9413 23.3175V23.3147ZM20.0774 23.3147C20.0768 22.5069 19.8165 21.7071 19.3115 20.961C18.8064 20.2148 18.0665 19.5369 17.1339 18.966C16.2013 18.3951 15.0943 17.9423 13.8761 17.6335C12.6579 17.3247 11.3524 17.166 10.0341 17.1663C8.71583 17.1667 7.41055 17.3262 6.19283 17.6356C4.97511 17.9451 3.86879 18.3985 2.93704 18.9699C2.00528 19.5414 1.26634 20.2197 0.762404 20.9661C0.258467 21.7126 -0.00059819 22.5125 1.03715e-06 23.3203C0.00121127 24.9517 1.06002 26.516 2.94349 27.6691C4.82697 28.8221 7.38083 29.4695 10.0433 29.4687C12.7057 29.468 15.2586 28.8192 17.1403 27.6651C19.0221 26.511 20.0786 24.9461 20.0774 23.3147ZM63.8826 23.3147C63.8826 24.9469 64.9407 26.5122 66.8242 27.6663C68.7076 28.8204 71.2622 29.4687 73.9258 29.4687C76.5895 29.4687 79.144 28.8204 81.0275 27.6663C82.9109 26.5122 83.9691 24.9469 83.9691 23.3147C83.9691 21.6826 82.9109 20.1173 81.0275 18.9632C79.144 17.8091 76.5895 17.1607 73.9258 17.1607C71.2622 17.1607 68.7076 17.8091 66.8242 18.9632C64.9407 20.1173 63.8826 21.6826 63.8826 23.3147Z" fill="black"/>
<path d="M31.9413 6.90458C31.9413 7.71274 32.2011 8.51298 32.7058 9.25962C33.2105 10.0063 33.9503 10.6847 34.8829 11.2561C35.8155 11.8276 36.9226 12.2809 38.1411 12.5901C39.3596 12.8994 40.6656 13.0586 41.9845 13.0586C43.3034 13.0586 44.6094 12.8994 45.8279 12.5901C47.0464 12.2809 48.1536 11.8276 49.0862 11.2561C50.0188 10.6847 50.7586 10.0063 51.2633 9.25962C51.768 8.51298 52.0278 7.71274 52.0278 6.90458C52.0272 5.27244 50.9685 3.70729 49.0846 2.55345C47.2007 1.39961 44.6459 0.751598 41.9823 0.751969C39.3186 0.752339 36.7643 1.40106 34.8813 2.55543C32.9982 3.70979 31.9407 5.27523 31.9413 6.90738V6.90458ZM20.0774 6.90458C20.0768 6.09679 19.8165 5.29698 19.3115 4.55083C18.8064 3.80467 18.0665 3.12677 17.1339 2.55583C16.2013 1.9849 15.0943 1.53211 13.8761 1.22333C12.6579 0.914537 11.3524 0.755796 10.0341 0.756164C8.71583 0.756531 7.41055 0.915999 6.19283 1.22547C4.97511 1.53493 3.86879 1.98834 2.93704 2.55979C2.00528 3.13124 1.26634 3.80955 0.762404 4.55599C0.258467 5.30243 -0.00059819 6.10239 1.03715e-06 6.91017C0.00121127 8.54158 1.06002 10.1059 2.94349 11.2589C4.82697 12.412 7.38083 13.0593 10.0433 13.0586C12.7057 13.0579 15.2586 12.4091 17.1403 11.255C19.0221 10.1009 20.0786 8.53598 20.0774 6.90458ZM63.8826 6.90458C63.8826 8.53673 64.9407 10.102 66.8242 11.2561C68.7076 12.4102 71.2622 13.0586 73.9258 13.0586C76.5895 13.0586 79.144 12.4102 81.0275 11.2561C82.9109 10.102 83.9691 8.53673 83.9691 6.90458C83.9691 5.27244 82.9109 3.70714 81.0275 2.55304C79.144 1.39894 76.5895 0.750571 73.9258 0.750571C71.2622 0.750571 68.7076 1.39894 66.8242 2.55304C64.9407 3.70714 63.8826 5.27244 63.8826 6.90458Z" fill="black"/>
<path d="M127.972 23.3147C127.972 24.1229 128.232 24.9231 128.737 25.6698C129.241 26.4164 129.981 27.0948 130.914 27.6663C131.846 28.2377 132.954 28.691 134.172 29.0003C135.391 29.3096 136.697 29.4687 138.015 29.4687C139.334 29.4687 140.64 29.3096 141.859 29.0003C143.077 28.691 144.185 28.2377 145.117 27.6663C146.05 27.0948 146.789 26.4164 147.294 25.6698C147.799 24.9231 148.059 24.1229 148.059 23.3147C148.058 21.6826 146.999 20.1174 145.116 18.9636C143.232 17.8098 140.677 17.1618 138.013 17.1621C135.35 17.1625 132.795 17.8112 130.912 18.9656C129.029 20.1199 127.972 21.6854 127.972 23.3175V23.3147ZM116.108 23.3147C116.108 22.5069 115.847 21.7071 115.342 20.961C114.837 20.2148 114.097 19.5369 113.165 18.966C112.232 18.3951 111.125 17.9423 109.907 17.6335C108.689 17.3247 107.383 17.166 106.065 17.1663C104.747 17.1667 103.441 17.3262 102.224 17.6356C101.006 17.9451 99.8997 18.3985 98.968 18.9699C98.0362 19.5414 97.2973 20.2197 96.7933 20.9661C96.2894 21.7126 96.0303 22.5125 96.0309 23.3203C96.0321 24.9517 97.0909 26.516 98.9744 27.6691C100.858 28.8221 103.412 29.4695 106.074 29.4687C108.737 29.468 111.29 28.8192 113.171 27.6651C115.053 26.511 116.11 24.9461 116.108 23.3147ZM159.913 23.3147C159.913 24.9469 160.972 26.5122 162.855 27.6663C164.739 28.8204 167.293 29.4687 169.957 29.4687C172.62 29.4687 175.175 28.8204 177.058 27.6663C178.942 26.5122 180 24.9469 180 23.3147C180 21.6826 178.942 20.1173 177.058 18.9632C175.175 17.8091 172.62 17.1607 169.957 17.1607C167.293 17.1607 164.739 17.8091 162.855 18.9632C160.972 20.1173 159.913 21.6826 159.913 23.3147Z" fill="black"/>
<path d="M127.972 39.7249C127.972 40.533 128.232 41.3333 128.737 42.0799C129.241 42.8266 129.981 43.505 130.914 44.0764C131.846 44.6479 132.954 45.1012 134.172 45.4105C135.391 45.7197 136.697 45.8789 138.015 45.8789C139.334 45.8789 140.64 45.7197 141.859 45.4105C143.077 45.1012 144.185 44.6479 145.117 44.0764C146.05 43.505 146.789 42.8266 147.294 42.0799C147.799 41.3333 148.059 40.533 148.059 39.7249C148.058 38.0927 146.999 36.5276 145.116 35.3738C143.232 34.2199 140.677 33.5719 138.013 33.5723C135.35 33.5727 132.795 34.2214 130.912 35.3757C129.029 36.5301 127.972 38.0955 127.972 39.7277V39.7249ZM116.108 39.7249C116.108 38.9171 115.847 38.1173 115.342 37.3711C114.837 36.625 114.097 35.9471 113.165 35.3761C112.232 34.8052 111.125 34.3524 109.907 34.0436C108.689 33.7348 107.383 33.5761 106.065 33.5765C104.747 33.5768 103.441 33.7363 102.224 34.0458C101.006 34.3552 99.8997 34.8086 98.968 35.3801C98.0362 35.9516 97.2973 36.6299 96.7933 37.3763C96.2894 38.1227 96.0303 38.9227 96.0309 39.7305C96.0321 41.3619 97.0909 42.9262 98.9744 44.0792C100.858 45.2323 103.412 45.8796 106.074 45.8789C108.737 45.8782 111.29 45.2294 113.171 44.0753C115.053 42.9212 116.11 41.3563 116.108 39.7249ZM159.913 39.7249C159.913 41.357 160.972 42.9223 162.855 44.0764C164.739 45.2305 167.293 45.8789 169.957 45.8789C172.62 45.8789 175.175 45.2305 177.058 44.0764C178.942 42.9223 180 41.357 180 39.7249C180 38.0927 178.942 36.5275 177.058 35.3734C175.175 34.2193 172.62 33.5709 169.957 33.5709C167.293 33.5709 164.739 34.2193 162.855 35.3734C160.972 36.5275 159.913 38.0927 159.913 39.7249Z" fill="black"/>
<path d="M127.972 6.90458C127.972 7.71274 128.232 8.51298 128.737 9.25962C129.241 10.0063 129.981 10.6847 130.914 11.2561C131.846 11.8276 132.954 12.2809 134.172 12.5901C135.391 12.8994 136.697 13.0586 138.015 13.0586C139.334 13.0586 140.64 12.8994 141.859 12.5901C143.077 12.2809 144.185 11.8276 145.117 11.2561C146.05 10.6847 146.789 10.0063 147.294 9.25962C147.799 8.51298 148.059 7.71274 148.059 6.90458C148.058 5.27244 146.999 3.70729 145.116 2.55345C143.232 1.39961 140.677 0.751598 138.013 0.751969C135.35 0.752339 132.795 1.40106 130.912 2.55543C129.029 3.70979 127.972 5.27523 127.972 6.90738V6.90458ZM116.108 6.90458C116.108 6.09679 115.847 5.29698 115.342 4.55083C114.837 3.80467 114.097 3.12677 113.165 2.55583C112.232 1.9849 111.125 1.53211 109.907 1.22333C108.689 0.914537 107.383 0.755796 106.065 0.756164C104.747 0.756531 103.441 0.915999 102.224 1.22547C101.006 1.53493 99.8997 1.98834 98.968 2.55979C98.0362 3.13124 97.2973 3.80955 96.7933 4.55599C96.2894 5.30243 96.0303 6.10239 96.0309 6.91017C96.0321 8.54158 97.0909 10.1059 98.9744 11.2589C100.858 12.412 103.412 13.0593 106.074 13.0586C108.737 13.0579 111.29 12.4091 113.171 11.255C115.053 10.1009 116.11 8.53598 116.108 6.90458ZM159.913 6.90458C159.913 8.53673 160.972 10.102 162.855 11.2561C164.739 12.4102 167.293 13.0586 169.957 13.0586C172.62 13.0586 175.175 12.4102 177.058 11.2561C178.942 10.102 180 8.53673 180 6.90458C180 5.27244 178.942 3.70714 177.058 2.55304C175.175 1.39894 172.62 0.750571 169.957 0.750571C167.293 0.750571 164.739 1.39894 162.855 2.55304C160.972 3.70714 159.913 5.27244 159.913 6.90458Z" fill="black"/>
</svg>
