<svg width="28" height="32" viewBox="0 0 28 32" fill="none" xmlns="http://www.w3.org/2000/svg">
<path d="M4 2C1.79375 2 0 3.79375 0 6V26C0 28.2062 1.79375 30 4 30H10.1375V20.8875H6.8375V16H10.1375V13.8938C10.1375 8.45 12.6 5.925 17.95 5.925C18.9625 5.925 20.7125 6.125 21.4312 6.325V10.75C21.0562 10.7125 20.4 10.6875 19.5812 10.6875C16.9562 10.6875 15.9438 11.6812 15.9438 14.2625V16H21.1688L20.2687 20.8875H15.9375V30H24C26.2062 30 28 28.2062 28 26V6C28 3.79375 26.2062 2 24 2H4Z" fill="black"/>
</svg>
