<svg width="254" height="132" viewBox="0 0 254 132" fill="none" xmlns="http://www.w3.org/2000/svg">
<path d="M19.0509 130.279C19.0509 130.279 4.79198 91.6084 27.0814 68.2689C49.3708 44.9289 56.266 56.9432 81.5532 28.8375C106.84 0.732199 133.085 -5.59784 159.336 4.52992C185.586 14.6581 192.098 50.0584 218.72 55.6529C245.342 61.2474 254.924 73.8664 253.931 95.5358C252.938 117.205 243.317 129.359 243.317 129.359L19.0509 130.279Z" fill="#F5F8FF"/>
<path d="M246.181 129.437H14.5781V131.69H246.181V129.437Z" fill="#7295DD"/>
<path d="M219.588 118.353C219.588 118.353 245.149 116.159 251.204 118.493C257.259 120.828 244.662 122.236 241.154 125.604C237.646 128.973 234.641 129.154 230.202 127.36C225.763 125.566 224.108 131.724 217.822 128.658L219.588 118.353Z" fill="#78C2EF"/>
<path d="M248.784 120.148C248.784 120.148 227.833 121.62 219.285 126.405" stroke="#8DDCFF" stroke-width="0.9257" stroke-miterlimit="10"/>
<path d="M220.693 112.924C220.693 112.924 239.835 104.331 247.623 102.357C255.411 100.382 256.008 102.199 249.287 107.239C242.566 112.279 244.609 118.265 238.423 118.33C232.236 118.395 230.844 119.282 228.185 122.812C225.525 126.343 219.539 126.611 219.539 126.611L220.693 112.924Z" fill="#8DDCFF"/>
<path d="M248.671 104.822C248.671 104.822 232.148 113.452 222.107 121.865" stroke="#AEEAFF" stroke-width="0.9257" stroke-miterlimit="10"/>
<path d="M211.998 101.509C211.998 101.509 228.6 76.7237 235.123 72.9287C241.645 69.1336 233.759 81.5857 234.263 87.2186C234.767 92.8515 232.745 95.7092 227.889 98.4311C223.032 101.153 227.415 107.134 220.062 110.607L211.998 101.509Z" fill="#78C2EF"/>
<path d="M233.866 77.5467C233.866 77.5467 224.063 93.0959 220.268 105.613" stroke="#8DDCFF" stroke-width="0.9257" stroke-miterlimit="10"/>
<path d="M217.826 106.5C217.826 106.5 233.087 92.1 239.795 87.6784C246.504 83.2569 247.663 84.777 242.969 91.744C238.275 98.7109 242.171 103.695 236.348 105.787C230.526 107.88 229.502 109.174 228.149 113.382C226.796 117.589 221.229 119.808 221.229 119.808L217.826 106.5Z" fill="#AEEAFF"/>
<path d="M239.953 90.7498C239.953 90.7498 226.75 105.455 220.9 114.546" stroke="#D9F2F9" stroke-width="0.9257" stroke-miterlimit="10"/>
<path d="M38.6659 101.509C38.6659 101.509 22.0635 76.7238 15.5412 72.9288C9.01892 69.1337 16.9048 81.5859 16.401 87.2187C15.8972 92.8516 17.9185 95.7093 22.7752 98.4312C27.6319 101.153 23.2494 107.134 30.602 110.607L38.6659 101.509Z" fill="#78C2EF"/>
<path d="M34.0248 118.592C34.0248 118.592 8.99088 112.98 2.67696 114.479C-3.63697 115.978 8.65631 119.067 11.6797 122.877C14.7032 126.687 17.6564 127.27 22.2963 126.089C26.9362 124.908 27.7489 131.233 34.3889 129.041L34.0248 118.592Z" fill="#78C2EF"/>
<path d="M33.2357 112.924C33.2357 112.924 14.0936 104.332 6.30558 102.357C-1.48247 100.382 -2.07871 102.199 4.64192 107.239C11.3625 112.279 9.31942 118.265 15.5063 118.33C21.6933 118.395 23.0849 119.282 25.7442 122.812C28.4035 126.343 34.3898 126.611 34.3898 126.611L33.2357 112.924Z" fill="#8DDCFF"/>
<path d="M32.8378 106.5C32.8378 106.5 17.5771 92.1002 10.8687 87.6786C4.16039 83.257 3.00051 84.7771 7.69452 91.7441C12.3885 98.7111 8.49335 103.695 14.3158 105.787C20.1382 107.88 21.1623 109.174 22.5151 113.382C23.868 117.59 29.4345 119.808 29.4345 119.808L32.8378 106.5Z" fill="#AEEAFF"/>
<path d="M16.7988 77.5469C16.7988 77.5469 26.602 93.0961 30.397 105.613" stroke="#8DDCFF" stroke-width="0.9257" stroke-miterlimit="10"/>
<path d="M10.7129 90.7498C10.7129 90.7498 23.9159 105.455 29.7659 114.546" stroke="#D9F2F9" stroke-width="0.9257" stroke-miterlimit="10"/>
<path d="M5.25391 104.822C5.25391 104.822 21.7773 113.452 31.8176 121.866" stroke="#AEEAFF" stroke-width="0.9257" stroke-miterlimit="10"/>
<path d="M4.85547 116.444C4.85547 116.444 25.4179 120.72 33.2447 126.611" stroke="#8DDCFF" stroke-width="0.9257" stroke-miterlimit="10"/>
<path d="M90.7838 83.4221H53.7129V79.2357H90.7838C91.2684 79.2357 91.6617 79.6286 91.6617 80.1136V82.5446C91.6617 83.0292 91.2684 83.4221 90.7838 83.4221Z" fill="#C9D7F4"/>
<path d="M42.7714 83.4222H25.0801V129.744H42.7714V83.4222Z" fill="#C9D7F4"/>
<path d="M89.6337 83.4222H74.373V129.744H89.6337V83.4222Z" fill="#2D2B52"/>
<path d="M74.6771 83.4222H67.9922V129.744H74.6771V83.4222Z" fill="#C9D7F4"/>
<path d="M71.4048 87.4739H39.5332V129.744H71.4048V87.4739Z" fill="#6D87C6"/>
<path d="M71.4048 83.4222H39.5332V87.4736H71.4048V83.4222Z" fill="#C9D7F4"/>
<path d="M66.6993 94.7666H41.4025C40.37 94.7666 39.5332 93.9298 39.5332 92.8973V87.4743H68.569V92.8973C68.5686 93.9294 67.7318 94.7666 66.6993 94.7666Z" fill="#2D2B52"/>
<path d="M64.8935 91.1202H43.2061C42.2584 91.1202 41.4902 91.8883 41.4902 92.836V94.7663H66.6093V92.836C66.6093 91.8883 65.8412 91.1202 64.8935 91.1202Z" fill="#5873AF"/>
<path d="M71.4048 106.583H39.5332V107.866H71.4048V106.583Z" fill="#5873AF"/>
<path d="M71.4048 117.927H39.5332V119.21H71.4048V117.927Z" fill="#5873AF"/>
<path d="M59.7229 109.892H51.2147C50.7811 109.892 50.4297 109.54 50.4297 109.107V107.866H60.5076V109.107C60.5079 109.54 60.1565 109.892 59.7229 109.892Z" fill="#2D2B52"/>
<path d="M59.7229 121.236H51.2147C50.7811 121.236 50.4297 120.884 50.4297 120.451V119.21H60.5076V120.451C60.5079 120.884 60.1565 121.236 59.7229 121.236Z" fill="#2D2B52"/>
<path d="M23.8328 79.2357H40.0178C40.5327 79.2357 40.9501 79.6532 40.9501 80.1681V82.4901C40.9501 83.005 40.5327 83.4225 40.0178 83.4225H23.8328C23.3666 83.4225 22.9883 83.0446 22.9883 82.578V80.0802C22.9883 79.6137 23.3662 79.2357 23.8328 79.2357Z" fill="#E8EEF9"/>
<path d="M75.6917 79.2357H38.5195V83.4221H75.6917V79.2357Z" fill="#E8EEF9"/>
<path d="M39.5304 113.437H25.0801V114.754H39.5304V113.437Z" fill="#6D87C6"/>
<path d="M96.7261 113.437H78.4941V129.745H96.7261V113.437Z" fill="#6D87C6"/>
<path d="M96.7246 113.437H92.4023V129.745H96.7246V113.437Z" fill="#5873AF"/>
<path d="M79.6279 98.3453H86.8132C87.4398 98.3453 87.9474 98.853 87.9474 99.4795V108.761H78.4941V99.4795C78.4941 98.853 79.0018 98.3453 79.6279 98.3453Z" fill="#22223F"/>
<path d="M97.0031 104.406H89.8643C89.2676 104.406 88.6768 104.524 88.1258 104.753L78.4941 108.761H87.9474L97.1113 104.947C97.396 104.829 97.3112 104.406 97.0031 104.406Z" fill="#6D87C6"/>
<path d="M77.8866 77.4802H60.9043V79.2359H77.8866V77.4802Z" fill="#6D87C6"/>
<path d="M80.0597 67.9594H69.1799L57.0762 77.4801H67.9559L80.0597 67.9594Z" fill="#5873AF"/>
<path d="M60.9018 79.2358H34.8711V76.619C34.8711 75.4722 35.8008 74.5425 36.9476 74.5425H60.9018V79.2358Z" fill="#C9D7F4"/>
<path d="M167.536 127.932H165.166V127.599H167.536C168.512 127.599 169.306 126.805 169.306 125.829V85.2026C169.306 84.2265 168.511 83.4323 167.536 83.4323H159.592V83.0997H167.536C168.695 83.0997 169.638 84.0428 169.638 85.2026V125.829C169.638 126.989 168.695 127.932 167.536 127.932Z" fill="#6D87C6"/>
<path d="M168.059 129.454H162.893V129.122H168.059C169.375 129.122 170.445 128.052 170.445 126.736V85.4917C170.445 83.5825 168.892 82.0293 166.982 82.0293H159.338V81.6967H166.982C169.075 81.6967 170.777 83.3991 170.777 85.4917V126.736C170.777 128.235 169.558 129.454 168.059 129.454Z" fill="#6D87C6"/>
<path d="M96.777 79.0955H125.103C125.912 79.0955 126.568 78.4397 126.568 77.6309V60.1679C126.568 59.6058 126.112 59.15 125.55 59.15H96.3304C95.7683 59.15 95.3125 59.6058 95.3125 60.1679V77.6309C95.3125 78.4401 95.9682 79.0955 96.777 79.0955Z" fill="#2D2B52"/>
<path d="M125.149 60.7568V76.0048C125.149 76.3808 124.843 76.6901 124.464 76.6901H97.4118C97.0324 76.6901 96.7266 76.3808 96.7266 76.0048V60.7568C96.7266 60.464 96.9629 60.2277 97.2522 60.2277H124.624C124.913 60.2277 125.149 60.4636 125.149 60.7568Z" fill="#8DDCFF"/>
<path d="M106.352 85.9776H109.488L111.056 79.0955H107.92L106.352 85.9776Z" fill="#6D87C6"/>
<path d="M107.432 85.9776H110.568L112.136 79.0955H109L107.432 85.9776Z" fill="#2D2B52"/>
<path d="M125.15 60.7568V61.5153H96.7266V60.7568C96.7266 60.464 96.9629 60.2277 97.2522 60.2277H124.624C124.914 60.2277 125.15 60.4636 125.15 60.7568Z" fill="#5DB6E8"/>
<path d="M101.335 62.6617H97.4785V75.0344H101.335V62.6617Z" fill="#5DB6E8"/>
<path d="M115.699 62.6617H103.326V75.0344H115.699V62.6617Z" fill="white"/>
<path d="M124.632 62.6617H118.109V75.0344H124.632V62.6617Z" fill="#5DB6E8"/>
<path d="M109.336 69.6386C110.526 69.6386 111.49 68.674 111.49 67.4842C111.49 66.2943 110.526 65.3298 109.336 65.3298C108.146 65.3298 107.182 66.2943 107.182 67.4842C107.182 68.674 108.146 69.6386 109.336 69.6386Z" fill="#F43737"/>
<path d="M107.891 72.2676C109.081 72.2676 110.045 71.3031 110.045 70.1133C110.045 68.9234 109.081 67.9589 107.891 67.9589C106.701 67.9589 105.736 68.9234 105.736 70.1133C105.736 71.3031 106.701 72.2676 107.891 72.2676Z" fill="#F2E038"/>
<path d="M110.781 72.2676C111.971 72.2676 112.936 71.3031 112.936 70.1133C112.936 68.9234 111.971 67.9589 110.781 67.9589C109.592 67.9589 108.627 68.9234 108.627 70.1133C108.627 71.3031 109.592 72.2676 110.781 72.2676Z" fill="#58AEED"/>
<path d="M101.038 90.4055H99.0977V129.745H101.038V90.4055Z" fill="#C9D7F4"/>
<path d="M107.889 90.4055H105.949V129.745H107.889V90.4055Z" fill="#6D87C6"/>
<path d="M166.446 90.4055H164.506V129.745H166.446V90.4055Z" fill="#6D87C6"/>
<path d="M166.407 101.615H149.988V129.744H166.407V101.615Z" fill="#2D2B52"/>
<path d="M152.253 101.615H140.268V129.744H152.253V101.615Z" fill="#393966"/>
<path d="M144.777 103.746H141.689V104.477H144.777V103.746Z" fill="#6D87C6"/>
<path d="M151.071 104.03C151.071 104.625 150.589 105.107 149.995 105.107C149.4 105.107 148.918 104.625 148.918 104.03C148.918 103.436 149.4 102.954 149.995 102.954C150.589 102.954 151.071 103.436 151.071 104.03Z" fill="#C9D7F4"/>
<path d="M149.998 104.657C150.344 104.657 150.625 104.377 150.625 104.03C150.625 103.684 150.344 103.403 149.998 103.403C149.652 103.403 149.371 103.684 149.371 104.03C149.371 104.377 149.652 104.657 149.998 104.657Z" fill="#2D2B52"/>
<path d="M152.253 108.905H140.268V109.474H152.253V108.905Z" fill="#2D2B52"/>
<path d="M152.253 116.339H140.268V116.908H152.253V116.339Z" fill="#2D2B52"/>
<path d="M149.629 126.576H142.768C142.172 126.576 141.689 127.058 141.689 127.654V129.744H150.708V127.654C150.707 127.058 150.225 126.576 149.629 126.576Z" fill="#6D87C6"/>
<path d="M166.409 107.889H156.588C155.056 107.889 153.814 109.131 153.814 110.663V129.745H166.409V107.889Z" fill="#393966"/>
<path d="M159.596 90.4055H157.656V129.745H159.596V90.4055Z" fill="#C9D7F4"/>
<path d="M169.792 85.9778H102.598V87.9614H169.792V85.9778Z" fill="#C9D7F4"/>
<path d="M167.514 87.9613H103.959V92.0019H167.514V87.9613Z" fill="#5873AF"/>
<path d="M162.376 85.9777H95.1816V87.9614H162.376V85.9777Z" fill="#E8EEF9"/>
<path d="M160.098 87.9613H96.543V92.0019H160.098V87.9613Z" fill="#6D87C6"/>
<path d="M163.735 69.3889H153.658C152.973 69.3889 152.256 69.9437 152.055 70.6282L149.939 77.8492H162.496L164.611 70.6282C164.812 69.9437 164.419 69.3889 163.735 69.3889Z" fill="#2D2B52"/>
<path d="M162.588 67.3112H152.188L151.002 79.0593L160.355 78.9676L162.588 67.3112Z" fill="#6D87C6"/>
<path d="M161.488 66.2093H151.088L149.902 77.9573L159.7 78.3103L161.488 66.2093Z" fill="#C9D7F4"/>
<path d="M160.623 65.3472H150.223L149.037 77.0952H159.438L160.623 65.3472Z" fill="#F5F5FF"/>
<path d="M167.486 79.0954H145.355V77.4901C145.355 76.6268 146.055 75.9273 146.918 75.9273H165.923C166.786 75.9273 167.486 76.6268 167.486 77.4901V79.0954Z" fill="#2D2B52"/>
<path d="M166.515 85.9776H146.523L145.355 79.0955H167.486L166.515 85.9776Z" fill="#2D2B52"/>
<path d="M164.253 79.0954H142.123V77.4901C142.123 76.6268 142.823 75.9273 143.686 75.9273H162.691C163.553 75.9273 164.253 76.6268 164.253 77.4901V79.0954Z" fill="#393966"/>
<path d="M163.283 85.9776H143.291L142.123 79.0955H164.253L163.283 85.9776Z" fill="#393966"/>
<path d="M160.291 85.9777H146.082V80.8851C146.082 80.5079 146.387 80.2025 146.765 80.2025H159.608C159.985 80.2025 160.291 80.5079 160.291 80.8851V85.9777Z" fill="#2D2B52"/>
<path d="M164.253 78.3701H142.123V79.0953H164.253V78.3701Z" fill="#2D2B52"/>
<path d="M155.738 80.2025H150.277V81.352H155.738V80.2025Z" fill="#6D87C6"/>
<path d="M225.413 37.7565H174.051V86.5517H225.413V37.7565Z" fill="#C9D7F4"/>
<path d="M227.63 33.8381H173.119V37.7559H227.63V33.8381Z" fill="#393966"/>
<path d="M225.414 37.7565H175.332V85.2234H225.414V37.7565Z" fill="white"/>
<path d="M227.63 36.3078H173.119V37.7558H227.63V36.3078Z" fill="#6D87C6"/>
<path d="M198.456 40.9077H178.781V74.3171H198.456V40.9077Z" fill="white"/>
<path d="M184.689 47.5783C184.689 48.4957 183.946 49.2393 183.028 49.2393C182.111 49.2393 181.367 48.4957 181.367 47.5783C181.367 46.6609 182.111 45.9174 183.028 45.9174C183.946 45.9174 184.689 46.6609 184.689 47.5783Z" fill="#8DDCFF"/>
<path d="M184.689 53.335C184.689 54.2524 183.946 54.996 183.028 54.996C182.111 54.996 181.367 54.2524 181.367 53.335C181.367 52.4177 182.111 51.6741 183.028 51.6741C183.946 51.6745 184.689 52.4177 184.689 53.335Z" fill="#A3E3FF"/>
<path d="M184.689 59.0919C184.689 60.0093 183.946 60.7529 183.028 60.7529C182.111 60.7529 181.367 60.0093 181.367 59.0919C181.367 58.1745 182.111 57.431 183.028 57.431C183.946 57.4314 184.689 58.1749 184.689 59.0919Z" fill="#B8E9FF"/>
<path d="M184.689 64.8491C184.689 65.7665 183.946 66.5101 183.028 66.5101C182.111 66.5101 181.367 65.7665 181.367 64.8491C181.367 63.9317 182.111 63.1881 183.028 63.1881C183.946 63.1881 184.689 63.9317 184.689 64.8491Z" fill="#CEF0FF"/>
<path d="M184.689 70.6059C184.689 71.5233 183.946 72.2668 183.028 72.2668C182.111 72.2668 181.367 71.5233 181.367 70.6059C181.367 69.6885 182.111 68.9449 183.028 68.9449C183.946 68.9449 184.689 69.6885 184.689 70.6059Z" fill="#E3F6FF"/>
<path d="M188.966 49.2392C189.883 49.2392 190.627 48.4956 190.627 47.5783C190.627 46.6609 189.883 45.9173 188.966 45.9173C188.048 45.9173 187.305 46.6609 187.305 47.5783C187.305 48.4956 188.048 49.2392 188.966 49.2392Z" fill="#6D87C6"/>
<path d="M190.627 53.335C190.627 54.2524 189.883 54.996 188.966 54.996C188.048 54.996 187.305 54.2524 187.305 53.335C187.305 52.4176 188.048 51.674 188.966 51.674C189.883 51.674 190.627 52.4176 190.627 53.335Z" fill="#899ED1"/>
<path d="M190.627 59.0919C190.627 60.0093 189.883 60.7529 188.966 60.7529C188.048 60.7529 187.305 60.0093 187.305 59.0919C187.305 58.1745 188.048 57.431 188.966 57.431C189.883 57.431 190.627 58.1749 190.627 59.0919Z" fill="#A4B4DC"/>
<path d="M188.966 66.51C189.883 66.51 190.627 65.7664 190.627 64.849C190.627 63.9317 189.883 63.188 188.966 63.188C188.048 63.188 187.305 63.9317 187.305 64.849C187.305 65.7664 188.048 66.51 188.966 66.51Z" fill="#BFCBE6"/>
<path d="M190.627 70.6059C190.627 71.5233 189.883 72.2668 188.966 72.2668C188.048 72.2668 187.305 71.5233 187.305 70.6059C187.305 69.6885 188.048 68.9449 188.966 68.9449C189.883 68.9449 190.627 69.6885 190.627 70.6059Z" fill="#DBE1F1"/>
<path d="M195.867 47.5783C195.867 48.4957 195.123 49.2392 194.206 49.2392C193.288 49.2392 192.545 48.4957 192.545 47.5783C192.545 46.6609 193.288 45.9173 194.206 45.9173C195.123 45.9173 195.867 46.6609 195.867 47.5783Z" fill="#393966"/>
<path d="M195.867 53.335C195.867 54.2524 195.123 54.996 194.206 54.996C193.288 54.996 192.545 54.2524 192.545 53.335C192.545 52.4176 193.288 51.674 194.206 51.674C195.123 51.674 195.867 52.4176 195.867 53.335Z" fill="#5E5E83"/>
<path d="M195.867 59.0919C195.867 60.0093 195.123 60.7529 194.206 60.7529C193.288 60.7529 192.545 60.0093 192.545 59.0919C192.545 58.1745 193.288 57.431 194.206 57.431C195.123 57.431 195.867 58.1749 195.867 59.0919Z" fill="#8484A0"/>
<path d="M195.867 64.849C195.867 65.7664 195.123 66.51 194.206 66.51C193.288 66.51 192.545 65.7664 192.545 64.849C192.545 63.9316 193.288 63.188 194.206 63.188C195.123 63.188 195.867 63.9316 195.867 64.849Z" fill="#A9A9BC"/>
<path d="M195.867 70.6059C195.867 71.5233 195.123 72.2668 194.206 72.2668C193.288 72.2668 192.545 71.5233 192.545 70.6059C192.545 69.6885 193.288 68.9449 194.206 68.9449C195.123 68.9449 195.867 69.6885 195.867 70.6059Z" fill="#CECED9"/>
<path d="M195.177 42.3983H182.061V44.0167H195.177V42.3983Z" fill="#6D87C6"/>
<path d="M222.925 40.9077H203.441V44.7407H222.925V40.9077Z" fill="#6D87C6"/>
<path d="M206.124 49.1485C206.124 49.8188 205.581 50.3621 204.911 50.3621C204.241 50.3621 203.697 49.8188 203.697 49.1485C203.697 48.4782 204.241 47.9349 204.911 47.9349C205.581 47.9346 206.124 48.4778 206.124 49.1485Z" fill="#393966"/>
<path d="M221.88 48.5734H208.295V49.7233H221.88V48.5734Z" fill="#393966"/>
<path d="M206.124 53.716C206.124 54.3863 205.581 54.9296 204.911 54.9296C204.241 54.9296 203.697 54.3863 203.697 53.716C203.697 53.0457 204.241 52.5024 204.911 52.5024C205.581 52.502 206.124 53.0457 206.124 53.716Z" fill="#393966"/>
<path d="M221.88 53.1407H208.295V54.2906H221.88V53.1407Z" fill="#393966"/>
<path d="M206.124 58.2834C206.124 58.9537 205.581 59.497 204.911 59.497C204.241 59.497 203.697 58.9537 203.697 58.2834C203.697 57.6131 204.241 57.0698 204.911 57.0698C205.581 57.0694 206.124 57.6131 206.124 58.2834Z" fill="#393966"/>
<path d="M221.88 57.7082H208.295V58.8581H221.88V57.7082Z" fill="#393966"/>
<path d="M206.124 62.8507C206.124 63.521 205.581 64.0643 204.911 64.0643C204.241 64.0643 203.697 63.521 203.697 62.8507C203.697 62.1804 204.241 61.6371 204.911 61.6371C205.581 61.6371 206.124 62.1804 206.124 62.8507Z" fill="#393966"/>
<path d="M221.88 62.2755H208.295V63.4254H221.88V62.2755Z" fill="#393966"/>
<path d="M218.452 67.9293H206.123V70.1651H218.452V67.9293Z" fill="#6D87C6"/>
<path d="M191.634 78.0085H178.781V81.0884H191.634V78.0085Z" fill="#6D87C6"/>
<path d="M207.007 78.0084H194.154V81.0883H207.007V78.0084Z" fill="#6D87C6"/>
<path d="M222.154 78.0084H209.301V81.0883H222.154V78.0084Z" fill="#6D87C6"/>
<path d="M225.114 115.887H191.568V129.745H225.114V115.887Z" fill="#393966"/>
<path d="M225.115 115.887H209.592V129.745H225.115V115.887Z" fill="#5873AF"/>
<path d="M221.606 117.203H213.625V119.132H221.606V117.203Z" fill="#6D87C6"/>
<path d="M207.095 115.887H173.549V129.745H207.095V115.887Z" fill="#6D87C6"/>
<path d="M207.095 115.887H191.572V129.745H207.095V115.887Z" fill="#5873AF"/>
<path d="M203.586 117.203H195.605V119.132H203.586V117.203Z" fill="#6D87C6"/>
<path d="M221.913 106.502H200.031V115.887H221.913V106.502Z" fill="#B8C9E8"/>
<path d="M213.45 106.503H191.568V115.887H213.45V106.503Z" fill="#C9D7F4"/>
<path d="M213.446 107.419H191.564V107.603H213.446V107.419Z" fill="#AFBEE2"/>
<path d="M213.446 108.26H191.564V108.444H213.446V108.26Z" fill="#AFBEE2"/>
<path d="M213.446 109.1H191.564V109.285H213.446V109.1Z" fill="#AFBEE2"/>
<path d="M213.446 109.94H191.564V110.125H213.446V109.94Z" fill="#AFBEE2"/>
<path d="M213.446 110.781H191.564V110.966H213.446V110.781Z" fill="#AFBEE2"/>
<path d="M213.446 111.622H191.564V111.806H213.446V111.622Z" fill="#AFBEE2"/>
<path d="M213.446 112.462H191.564V112.647H213.446V112.462Z" fill="#AFBEE2"/>
<path d="M213.446 113.302H191.564V113.487H213.446V113.302Z" fill="#AFBEE2"/>
<path d="M213.446 114.143H191.564V114.328H213.446V114.143Z" fill="#AFBEE2"/>
<path d="M213.446 114.983H191.564V115.168H213.446V114.983Z" fill="#AFBEE2"/>
<path d="M210.662 110.966L205.926 112.115L205.641 110.966H210.662Z" fill="#AFBEE2"/>
<path d="M193.254 113.487L197.299 114.561L197.76 113.487H193.254Z" fill="#AFBEE2"/>
<path d="M216.061 97.9502H194.18V106.446H216.061V97.9502Z" fill="#C9D7F4"/>
<path d="M207.598 97.9503H185.717V106.446H207.598V97.9503Z" fill="white"/>
<path d="M207.596 98.8187H185.715V99.0033H207.596V98.8187Z" fill="#C9D7F4"/>
<path d="M207.596 99.6591H185.715V99.8437H207.596V99.6591Z" fill="#C9D7F4"/>
<path d="M207.596 100.5H185.715V100.684H207.596V100.5Z" fill="#C9D7F4"/>
<path d="M207.596 101.34H185.715V101.525H207.596V101.34Z" fill="#C9D7F4"/>
<path d="M207.596 102.181H185.715V102.365H207.596V102.181Z" fill="#C9D7F4"/>
<path d="M207.596 103.021H185.715V103.206H207.596V103.021Z" fill="#C9D7F4"/>
<path d="M207.596 103.861H185.715V104.046H207.596V103.861Z" fill="#C9D7F4"/>
<path d="M207.596 104.702H185.715V104.886H207.596V104.702Z" fill="#C9D7F4"/>
<path d="M207.596 105.542H185.715V105.727H207.596V105.542Z" fill="#C9D7F4"/>
<path d="M187.404 104.046L191.45 105.12L191.91 104.046H187.404Z" fill="#C9D7F4"/>
<path d="M208.057 106.502H186.176V115.887H208.057V106.502Z" fill="#E8EEF9"/>
<path d="M199.594 106.503H177.713V115.887H199.594V106.503Z" fill="white"/>
<path d="M199.594 107.419H177.713V107.603H199.594V107.419Z" fill="#C9D7F4"/>
<path d="M199.594 108.259H177.713V108.444H199.594V108.259Z" fill="#C9D7F4"/>
<path d="M199.594 109.1H177.713V109.285H199.594V109.1Z" fill="#C9D7F4"/>
<path d="M199.594 109.94H177.713V110.125H199.594V109.94Z" fill="#C9D7F4"/>
<path d="M199.594 110.781H177.713V110.966H199.594V110.781Z" fill="#C9D7F4"/>
<path d="M199.594 111.622H177.713V111.806H199.594V111.622Z" fill="#C9D7F4"/>
<path d="M199.594 112.462H177.713V112.647H199.594V112.462Z" fill="#C9D7F4"/>
<path d="M199.594 113.302H177.713V113.487H199.594V113.302Z" fill="#C9D7F4"/>
<path d="M199.594 114.143H177.713V114.328H199.594V114.143Z" fill="#C9D7F4"/>
<path d="M199.594 114.983H177.713V115.168H199.594V114.983Z" fill="#C9D7F4"/>
<path d="M196.81 110.966L192.074 112.115L191.789 110.966H196.81Z" fill="#C9D7F4"/>
<path d="M179.398 113.487L183.444 114.561L183.904 113.487H179.398Z" fill="#C9D7F4"/>
<path d="M109.133 125.104H112.746V121.491H109.133V125.104Z" fill="#FFA197"/>
<path d="M128.194 125.104H131.807L131.201 121.491H127.588L128.194 125.104Z" fill="#ED827A"/>
<path d="M129.81 100.987C129.81 100.987 132.472 114.816 132.537 123.784C132.537 123.784 129.998 124.775 127.134 123.784L121.471 100.271L129.81 100.987Z" fill="#0D1028"/>
<path d="M119.4 92.101C119.4 92.101 108.254 97.5363 107.017 100.466C105.78 103.395 108.644 123.379 108.644 123.379C108.644 123.379 111.508 124.29 113.721 123.379L114.633 102.093H124.768C128.536 102.093 131.345 98.446 130.194 94.8582C130.154 94.7323 130.109 94.6053 130.06 94.4768L119.4 92.101Z" fill="#181E47"/>
<path d="M112.747 125.104C112.747 125.104 113.365 126.503 113.105 130.279H101.681C101.681 130.279 101.355 129.758 103.992 128.424C106.628 127.089 109.134 125.104 109.134 125.104L112.747 125.104Z" fill="#8DDCFF"/>
<path d="M131.808 125.104C131.808 125.104 132.861 126.959 132.731 130.279H124.432C124.432 130.279 124.302 129.823 125.538 128.879C126.775 127.935 128.195 125.104 128.195 125.104H131.808Z" fill="#5DB6E8"/>
<path d="M121.619 61.4756C121.619 61.4756 121.864 66.4332 122.999 67.4086C124.133 68.3843 126.184 66.9926 126.184 66.9926L128.967 60.7432C128.967 60.7432 124.915 58.7902 124.744 58.7415C124.573 58.6928 121.814 58.2289 121.814 58.2289L121.619 59.1812V61.4756Z" fill="#FFA197"/>
<path d="M123.312 60.7615L123.591 62.2905C123.591 62.2905 123.976 60.6614 124.791 60.6836C125.605 60.7063 125.492 63.422 124.112 63.4673C124.112 63.4673 124.681 66.3184 125.301 66.6127C125.922 66.907 129.875 66.7232 129.875 66.7232C129.875 66.7232 132.44 62.1773 132.123 59.62C131.806 57.0628 130.584 57.6061 130.584 57.6061C130.584 57.6061 130.991 55.6827 128.819 54.6417C126.646 53.6008 124.315 54.438 122.845 56.0901L121.464 54.7776C121.464 54.7776 120.355 56.0449 121.351 57.4254L119.428 56.475C119.428 56.475 119.056 59.175 121.161 59.6051C121.161 59.6051 120.78 60.6276 121.504 61.3063L122.052 59.3488C122.295 60.0713 122.702 60.5612 123.312 60.7615Z" fill="#810004"/>
<path d="M106.709 83.3494C106.709 83.3494 103.981 82.8107 102.723 83.3494C101.464 83.8881 101.334 86.0206 101.334 86.0206H107.149L106.709 83.3494Z" fill="#FFA197"/>
<path d="M131.886 67.6909C131.886 67.6909 131.282 66.5847 130.227 66.2329C129.171 65.881 125.702 65.906 124.596 66.4339C123.49 66.9619 123.616 68.2687 123.616 68.2687L131.886 67.6909Z" fill="#FFD4C7"/>
<path d="M137.571 93.9563C137.571 93.9563 137.996 96.2515 137.57 98.4194C137.157 100.518 135.31 102.028 133.171 102.028H121.861L127.344 91.4831L137.571 93.9563Z" fill="#0D1028"/>
<path d="M120.431 84.322L119.404 92.1008C119.404 92.1008 128.937 98.3825 137.573 93.9559L136.835 84.322H120.431Z" fill="#E24E2B"/>
<path d="M106.566 86.0135H134.49C134.49 86.0135 136.532 86.0757 138.409 85.8382C138.409 85.8382 138.434 85.8382 138.475 85.827C139.903 85.6444 141.218 85.2791 141.455 84.5816C142.007 82.9563 139.077 72.3129 136.312 69.515C133.547 66.7134 123.879 66.2898 120.69 68.7956C117.501 71.3049 115.416 81.3276 115.416 81.3276L106.858 83.0515C106.142 84.2566 106.566 86.0135 106.566 86.0135Z" fill="#F66A35"/>
<path d="M115.26 86.0133H134.49C134.49 86.0133 136.532 86.0755 138.41 85.838C138.41 85.838 138.435 85.838 138.475 85.8269C138.8 85.7429 140.13 85.1328 138.95 80.6111C137.617 75.5011 136.412 71.4322 135.498 70.2596C134.589 69.0909 130.746 68.2764 126.451 68.6999C122.156 69.1235 122.565 70.923 122.165 72.7025C121.01 77.8493 119.929 84.1947 119.147 84.9766C118.468 85.6596 115.571 85.9696 115.26 86.0133Z" fill="#E24E2B"/>
<path d="M112.895 103.553V104.067C112.895 104.545 113.279 104.929 113.756 104.929H137.142C137.62 104.929 138.007 104.545 138.007 104.067V102.477C138.007 101.999 137.62 101.615 137.142 101.615H114.833C113.762 101.615 112.895 102.483 112.895 103.553Z" fill="#2D2B52"/>
<path d="M119.145 103.553V104.067C119.145 104.545 119.532 104.929 120.006 104.929H137.142C137.619 104.929 138.007 104.545 138.007 104.067V102.477C138.007 101.999 137.619 101.615 137.142 101.615H121.086C120.012 101.615 119.145 102.483 119.145 103.553Z" fill="#393966"/>
<path d="M125.45 127.157H127.191V104.929H125.45V127.157Z" fill="#6D87C6"/>
<path d="M123.191 106.788H129.451C129.895 106.788 130.255 106.428 130.255 105.984V104.929H122.387V105.984C122.387 106.428 122.747 106.788 123.191 106.788Z" fill="#2D2B52"/>
<path d="M125.145 124.212H127.839C128.097 124.212 128.306 124.003 128.306 123.745V119.003C128.306 118.745 128.097 118.536 127.839 118.536H125.145C124.887 118.536 124.678 118.745 124.678 119.003V123.745C124.677 124.003 124.886 124.212 125.145 124.212Z" fill="#393966"/>
<path d="M127.191 127.157L135.238 128.774V127.966L127.191 125.109V127.157Z" fill="#5873AF"/>
<path d="M135.507 129.745C136.255 129.745 136.861 129.138 136.861 128.39C136.861 127.642 136.255 127.036 135.507 127.036C134.759 127.036 134.152 127.642 134.152 128.39C134.152 129.138 134.759 129.745 135.507 129.745Z" fill="#2D2B52"/>
<path d="M135.506 129.033C135.86 129.033 136.148 128.745 136.148 128.39C136.148 128.036 135.86 127.748 135.506 127.748C135.151 127.748 134.863 128.036 134.863 128.39C134.863 128.745 135.151 129.033 135.506 129.033Z" fill="#5873AF"/>
<path d="M125.446 127.157L117.398 128.774V127.966L125.446 125.109V127.157Z" fill="#5873AF"/>
<path d="M118.484 128.39C118.484 129.138 117.878 129.745 117.13 129.745C116.382 129.745 115.775 129.138 115.775 128.39C115.775 127.642 116.382 127.036 117.13 127.036C117.878 127.036 118.484 127.642 118.484 128.39Z" fill="#2D2B52"/>
<path d="M117.771 128.39C117.771 128.745 117.484 129.033 117.129 129.033C116.774 129.033 116.486 128.745 116.486 128.39C116.486 128.036 116.774 127.748 117.129 127.748C117.484 127.748 117.771 128.036 117.771 128.39Z" fill="#5873AF"/>
<path d="M127.632 103.824H129.016C129.267 103.824 129.485 103.65 129.541 103.406L130.912 97.4228C130.989 97.0859 130.733 96.7644 130.388 96.7644H129.003C128.752 96.7644 128.535 96.9378 128.479 97.1822L127.108 103.165C127.03 103.502 127.286 103.824 127.632 103.824Z" fill="#6D87C6"/>
<path d="M121.092 80.1044V95.8428C121.092 96.8829 121.845 97.7477 122.839 97.917C122.954 97.9381 123.075 97.9503 123.199 97.9503H135.896C137.06 97.9503 138.003 97.0069 138.003 95.8428V80.1044C138.003 79.2426 137.774 78.4384 137.375 77.7428C136.555 76.3247 135.025 75.3724 133.271 75.3724H125.824C123.209 75.372 121.092 77.4888 121.092 80.1044Z" fill="#6D87C6"/>
<path d="M122.809 80.571V97.5664C122.809 97.6872 122.818 97.8054 122.842 97.9171C122.957 97.9382 123.078 97.9505 123.202 97.9505H135.898C137.062 97.9505 138.006 97.007 138.006 95.8429V80.1045C138.006 79.2427 137.776 78.4385 137.377 77.7429C136.676 77.3316 135.859 77.096 134.988 77.096H126.284C124.364 77.0956 122.809 78.6519 122.809 80.571Z" fill="#393966"/>
<path d="M41.0274 49.8707C41.0274 49.8707 37.6548 43.261 38.433 41.3709C39.2115 39.4809 40.6322 40.0737 40.6322 40.0737C40.6322 40.0737 40.62 37.2571 43.4366 36.256C46.2532 35.2554 48.9962 38.1461 49.5522 39.1099C49.5522 39.1099 51.6279 38.2946 51.8132 38.702C51.9985 39.1099 50.6641 40.7778 50.6641 40.7778C50.6641 40.7778 52.2207 40.3331 52.2579 40.7778C52.2951 41.2225 50.59 43.1129 50.59 43.1129C50.59 43.1129 50.2934 44.7067 49.3668 44.9289C48.4402 45.1514 46.6983 48.5612 46.6983 48.5612L43.3998 51.5632L41.0274 49.8707Z" fill="#181E47"/>
<path d="M49.7013 42.4823C49.7013 42.4823 49.9005 47.5301 49.3061 49.6975C48.886 51.2296 46.6871 50.8094 46.6871 50.8094L46.4895 51.9954H40.5098L40.905 49.8705C40.905 49.8705 43.3264 50.3152 44.6609 49.821C45.9953 49.3269 46.4646 46.9795 46.4646 46.9795C46.4646 46.9795 44.5619 46.3372 45.2536 44.7311C45.9454 43.125 47.0328 44.1628 46.9338 45.0027L48.0212 43.5697C48.0212 43.5697 49.1331 43.9403 49.7013 42.4823Z" fill="#FFA197"/>
<path d="M48.6225 124.394C48.6225 124.394 47.9883 127.818 48.2584 129.438H60.674C60.674 129.438 60.168 128.156 57.8401 127.144C55.5123 126.131 53.3867 124.072 53.3867 124.072L48.6225 124.394Z" fill="#F66A35"/>
<path d="M35.7696 124.162C35.7696 124.162 36.5262 125.823 38.5076 127.042C40.5657 128.308 40.4306 129.437 40.4306 129.437H30.2756C30.2756 129.437 30.1839 125.525 31.1915 123.753L35.7696 124.162Z" fill="#E24E2B"/>
<path d="M39.1513 76.9498C39.1513 76.9498 37.3948 83.0803 38.2492 87.4885L34.9879 103.458C34.9879 103.458 30.49 112.568 30.6922 123.432C30.6922 123.432 33.4113 125.527 36.1416 123.975C36.1416 123.975 41.5106 108.182 42.3201 106.023C43.1297 103.863 49.8101 84.8349 49.8101 84.8349L47.2459 75.793L39.1513 76.9498Z" fill="#0D1028"/>
<path d="M54.5025 76.9496C55.2803 88.6566 54.7051 105.974 53.9715 123.949C53.9715 123.949 50.7324 125.838 47.7635 123.949C47.7635 123.949 45.6943 110.633 46.774 103.615L45.1544 88.5005C45.1544 88.5005 42.5454 81.0532 43.6251 76.9496H54.5025Z" fill="#181E47"/>
<path d="M66.7536 74.465C66.7536 74.465 69.3431 75.8797 70.3388 76.6601C71.3348 77.4405 72.6958 79.3658 72.1314 79.3658C71.567 79.3658 69.9405 77.4781 69.9405 77.4781C69.9405 77.4781 69.8895 79.1214 67.9895 79.3658C66.0895 79.6106 65.1602 79.1456 64.9607 78.8467C64.7616 78.5478 66.0231 78.4032 66.0231 78.4032C66.0231 78.4032 65.0509 78.173 64.9396 76.9494L63.9316 75.892L66.7536 74.465Z" fill="#FFA197"/>
<path d="M64.1244 70.8744C62.2248 72.365 60.4245 73.5261 59.4799 73.4662C56.908 73.2966 54.9585 70.0226 54.9585 70.0226L54.952 70.1159L54.5027 76.9531C47.4494 79.3554 39.1519 76.9531 39.1519 76.9531L38.5264 72.8009L38.5165 72.8044C38.3603 72.8308 36.3705 73.1969 34.7637 72.7445C33.8885 72.4982 33.1299 72.0124 32.8441 71.0977C32.0157 68.4461 32.6047 56.1125 35.8882 53.1451C39.242 50.1074 50.0217 51.2654 52.4703 53.1317C54.919 55.0048 59.171 65.6778 59.171 65.6778L64.1244 70.8744Z" fill="#5A8BED"/>
<path opacity="0.71" d="M54.9595 70.0206L48.0566 61.2173C48.0566 61.2173 49.2177 71.164 54.6764 74.3217L54.9595 70.0206Z" fill="#4A6BD3"/>
<path opacity="0.71" d="M38.5272 72.8017L38.5157 72.8056C38.3603 72.832 36.369 73.1958 34.7637 72.7449V58.3836L38.5272 72.8017Z" fill="#4A6BD3"/>
<path d="M67.6054 74.3206C67.6054 74.3206 66.1743 76.1554 63.9044 76.4221C63.9044 76.4221 57.869 74.3985 54.7316 69.6807C54.615 69.5077 54.5053 69.3316 54.399 69.1516C51.4411 64.1177 58.9503 65.2423 58.9503 65.2423L63.904 70.4393L67.6054 74.3206Z" fill="#5A8BED"/>
<path d="M224.285 123.798C224.285 123.798 224.765 125.686 222.926 126.938C220.807 128.38 220.582 129.507 220.582 129.507H228.424L228.019 123.474L224.285 123.798Z" fill="#181E47"/>
<path d="M210.588 123.799C210.588 123.799 211.067 125.686 209.228 126.938C207.11 128.38 206.885 129.507 206.885 129.507H211.057C211.731 129.507 212.375 129.262 212.906 128.847C213.494 128.387 214.097 128.063 214.727 127.962L214.322 123.474L210.588 123.799Z" fill="#0D1028"/>
<path d="M212.331 77.6633C212.331 77.6633 207.918 94.7457 206.837 99.7033C205.755 104.661 209.992 123.951 209.992 123.951C209.992 123.951 212.313 124.73 214.814 123.432C214.814 123.432 215.964 114.712 214.544 107.41C213.636 102.742 214.953 101.139 216.505 98.5538C218.33 95.5115 221.169 89.2245 221.169 89.2245C221.169 89.2245 219.885 76.7854 219.479 76.8529C219.073 76.9205 212.331 77.6633 212.331 77.6633Z" fill="#4A6BD3"/>
<path d="M217.045 77.7542L223.873 124.379C223.873 124.379 226.126 125.167 228.38 124.379C228.38 124.379 230.183 113.945 229.011 106.643C227.839 99.3423 227.952 94.3847 228.808 89.9677C229.664 85.5507 229.912 82.1256 225.856 77.7538H217.045V77.7542Z" fill="#5A8BED"/>
<path d="M229.701 63.7378L226.86 69.0108C226.754 69.2345 226.659 69.4697 226.572 69.7087V69.7125C225.373 73.0506 225.961 77.7546 225.961 77.7546C223.765 78.3539 221.568 78.9114 219.357 79.0595C217.028 79.2187 214.683 78.9229 212.305 77.7546C214.061 71.9847 211.853 68.4268 211.853 68.4268C211.853 68.4268 211.174 69.1969 210.162 70.1453C209.126 71.1126 207.745 72.2694 206.399 72.9788C203.74 74.3747 201.938 72.9788 199.908 70.8582C197.883 68.7414 194.761 63.0172 194.761 63.0172C192.174 62.4747 191.093 60.5555 191.244 58.5753C191.396 56.5989 192.299 56.6596 193.024 57.9303C193.752 59.1972 195.508 60.4454 195.508 60.4454C195.508 60.4454 195.034 58.2492 195.186 58.0481C195.341 57.8432 195.729 58.268 196.149 59.061C196.574 59.8576 197.014 61.7656 197.014 61.7656C197.014 61.7656 198.152 62.6911 200.314 64.3451C201.316 65.1114 202.412 65.9612 203.304 66.6515C204.351 67.4672 205.117 68.0665 205.117 68.0665C205.117 68.0665 206.433 65.4605 209.07 61.6444C211.71 57.8206 214.714 57.5512 214.714 57.5512L222.559 56.9784C222.559 56.9784 225.104 57.1568 226.682 58.4656C228.26 59.7697 229.701 63.7378 229.701 63.7378Z" fill="#F4C737"/>
<path d="M226.574 69.7121C225.375 73.0502 225.963 77.7542 225.963 77.7542C223.767 78.3535 221.57 78.911 219.359 79.0591C219.533 76.8023 219.727 72.4018 218.718 71.3094C217.341 69.8223 213.691 70.1449 213.691 70.1449C216.35 69.0257 217.883 70.1373 221.802 69.7125C225.618 69.2951 224.313 65.6121 224.241 65.4145L226.574 69.7087L226.574 69.7121Z" fill="#EDA532"/>
<path d="M203.202 66.6511C203.202 66.6511 200.52 67.501 199.807 70.8579C197.781 68.7411 194.659 63.0169 194.659 63.0169C192.072 62.4743 190.991 60.5551 191.143 58.5749C191.295 56.5986 192.198 56.6592 192.922 57.93C193.65 59.1969 195.407 60.445 195.407 60.445C195.407 60.445 194.932 58.2488 195.084 58.0478C195.24 57.8429 195.627 58.2676 196.048 59.0607C196.473 59.8572 196.913 61.7653 196.913 61.7653C196.913 61.7653 198.051 62.6907 200.213 64.3448C201.214 65.111 202.311 65.9605 203.202 66.6511Z" fill="#FFA197"/>
<path d="M211.856 68.4265C211.856 68.4265 211.177 69.1965 210.164 70.145C209.39 68.4265 209.409 65.2745 210.661 63.3323C212.012 61.2381 212.52 59.4781 212.52 59.4781C212.52 59.4781 212.588 60.5252 211.572 63.6358C210.559 66.7459 211.856 68.4265 211.856 68.4265Z" fill="#EDA532"/>
<path d="M225.168 80.6123L215.031 82.8012L212.102 69.2326L221.347 67.2363L222.445 68.0021L225.168 80.6123Z" fill="#F66A35"/>
<path d="M222.452 67.9969L213.529 69.9238L216.253 82.5346L225.176 80.6076L222.452 67.9969Z" fill="#D65129"/>
<path d="M222.445 68.0021L213.522 69.9286L212.102 69.2326L221.347 67.2363L222.445 68.0021Z" fill="#F79057"/>
<path d="M231.401 75.9977C230.73 76.4489 229.326 76.7793 227.695 77.0218C223.951 77.5754 219.009 77.6629 219.009 77.6629L218.729 75.0308C218.729 75.0308 220.23 74.6433 223.632 73.5168C224.903 73.0921 225.825 72.8035 226.481 72.6102C227.577 72.2802 227.93 72.2119 227.93 72.2119L224.236 65.4069C224.236 65.4069 225.271 58.3282 226.58 58.4652C227.885 58.6018 231.807 68.6049 232.304 70.8583C232.797 73.1109 233.609 74.5109 231.401 75.9977Z" fill="#FFA197"/>
<path d="M231.404 75.9977C230.733 76.4489 229.329 76.7793 227.698 77.0218C226.177 75.0074 226.484 72.6102 226.484 72.6102C227.58 72.2802 227.933 72.2119 227.933 72.2119L224.238 65.4069C224.238 65.4069 225.274 58.3282 226.583 58.4652C227.888 58.6018 231.81 68.6049 232.307 70.8583C232.8 73.1109 233.612 74.5109 231.404 75.9977Z" fill="#F4C737"/>
<path d="M218.73 75.0309C218.73 75.0309 217.092 73.835 216.564 73.6431C216.035 73.4509 216.769 74.7792 217.345 75.3555C217.345 75.3555 215.625 75.837 214.4 75.6755C213.175 75.5143 212.608 74.8912 212.432 75.1955C212.256 75.4994 213.792 78.1721 215.009 78.6844C216.225 79.1966 219.01 77.7232 219.01 77.7232L218.73 75.0309Z" fill="#FFA197"/>
<path d="M223.156 55.3097C223.156 55.3097 224.057 49.5406 223.381 46.724C222.705 43.907 221.561 43.7493 221.561 43.7493C221.561 43.7493 220.565 41.766 217.973 41.7211C215.381 41.6762 212.384 42.7578 211.776 44.9663C211.776 44.9663 210.807 45.4383 211.213 48.515C211.618 51.5918 211.465 53.9354 211.113 55.5127C211.113 55.5127 215.178 56.7973 216.824 55.1973C218.469 53.5973 216.035 49.3384 216.035 49.3384L220.402 51.2806L223.156 55.3097Z" fill="#181E47"/>
<path d="M220.427 50.9822C220.427 50.9822 219.886 55.7265 220.427 56.2675C220.968 56.8085 222.455 56.9773 222.455 56.9773C222.455 56.9773 220.799 60.2901 217.96 60.3238C215.121 60.3576 214.613 57.5521 214.613 57.5521C214.613 57.5521 215.999 57.6196 216.27 56.876C216.54 56.1324 216.168 54.4423 216.168 54.4423L220.427 50.9822Z" fill="#EF8981"/>
<path d="M212.902 47.0394C212.902 47.0394 212.474 51.2761 213.488 53.3265C214.502 55.3773 216.957 55.2399 218.175 54.5209C219.55 53.7098 220.023 52.5814 220.429 50.9822C220.429 50.9822 221.015 51.2983 221.42 50.3744C221.826 49.4505 221.307 48.6843 220.429 48.842C219.663 48.9793 219.753 50.0138 219.753 50.0138C219.753 50.0138 217.521 49.9911 217.837 47.5125C217.837 47.5125 215.786 49.1125 212.902 47.0394Z" fill="#FFA197"/>
<path d="M220.428 50.9822C220.428 50.9822 220.18 54.712 218.715 55.6532C218.715 55.6532 221.532 56.3914 223.154 55.3098L220.428 50.9822Z" fill="#181E47"/>
</svg>
