<svg width="28" height="32" viewBox="0 0 28 32" fill="none" xmlns="http://www.w3.org/2000/svg">
<g clip-path="url(#clip0_582_65)">
<path d="M14.007 8.81245C10.032 8.81245 6.82578 12.0187 6.82578 15.9937C6.82578 19.9687 10.032 23.1749 14.007 23.1749C17.982 23.1749 21.1883 19.9687 21.1883 15.9937C21.1883 12.0187 17.982 8.81245 14.007 8.81245ZM14.007 20.6625C11.4383 20.6625 9.33828 18.5687 9.33828 15.9937C9.33828 13.4187 11.432 11.325 14.007 11.325C16.582 11.325 18.6758 13.4187 18.6758 15.9937C18.6758 18.5687 16.5758 20.6625 14.007 20.6625ZM23.157 8.5187C23.157 9.44995 22.407 10.1937 21.482 10.1937C20.5508 10.1937 19.807 9.4437 19.807 8.5187C19.807 7.5937 20.557 6.8437 21.482 6.8437C22.407 6.8437 23.157 7.5937 23.157 8.5187ZM27.9133 10.2187C27.807 7.97495 27.2945 5.98745 25.6508 4.34995C24.0133 2.71245 22.0258 2.19995 19.782 2.08745C17.4695 1.9562 10.5383 1.9562 8.22578 2.08745C5.98828 2.1937 4.00078 2.7062 2.35703 4.3437C0.713281 5.9812 0.207031 7.9687 0.0945312 10.2125C-0.0367187 12.525 -0.0367187 19.4562 0.0945312 21.7687C0.200781 24.0124 0.713281 26 2.35703 27.6375C4.00078 29.275 5.98203 29.7875 8.22578 29.9C10.5383 30.0312 17.4695 30.0312 19.782 29.9C22.0258 29.7937 24.0133 29.2812 25.6508 27.6375C27.2883 26 27.8008 24.0124 27.9133 21.7687C28.0445 19.4562 28.0445 12.5312 27.9133 10.2187ZM24.9258 24.25C24.4383 25.475 23.4945 26.4187 22.2633 26.9125C20.4195 27.6437 16.0445 27.475 14.007 27.475C11.9695 27.475 7.58828 27.6375 5.75078 26.9125C4.52578 26.425 3.58203 25.4812 3.08828 24.25C2.35703 22.4062 2.52578 18.0312 2.52578 15.9937C2.52578 13.9562 2.36328 9.57495 3.08828 7.73745C3.57578 6.51245 4.51953 5.5687 5.75078 5.07495C7.59453 4.3437 11.9695 4.51245 14.007 4.51245C16.0445 4.51245 20.4258 4.34995 22.2633 5.07495C23.4883 5.56245 24.432 6.5062 24.9258 7.73745C25.657 9.5812 25.4883 13.9562 25.4883 15.9937C25.4883 18.0312 25.657 22.4125 24.9258 24.25Z" fill="black"/>
</g>
<defs>
<clipPath id="clip0_582_65">
<rect width="28" height="32" fill="white"/>
</clipPath>
</defs>
</svg>
