<svg width="816" height="645" viewBox="0 0 816 645" fill="none" xmlns="http://www.w3.org/2000/svg">
<path d="M815.215 580.235H0V644.471H815.215V580.235Z" fill="#70FFEE"/>
<path d="M44 551.869L1.16797 581.067H815.215L783.681 551.869H44Z" fill="#07C5DF"/>
<path d="M42.0454 552.204V513.999L781.68 514.999V554.204L42.0454 552.204Z" fill="#70FFEE"/>
<path d="M100.106 488.641L44.3813 514.663H780.177L718.276 489.641L100.106 488.641Z" fill="#07C5DF"/>
<path d="M101.61 490.136V450.426H718.277V490.136H101.61Z" fill="#70FFEE"/>
<path d="M155.334 429.069V378.016H665.72L666.72 430.069L155.334 429.069Z" fill="#70FFEE"/>
<path d="M151.83 429.404L105.113 450.427H719.444L665.719 429.404H151.83Z" fill="#07C5DF"/>
<path d="M193.372 361.671L158.838 378.015H665.72L629.514 362.832L193.372 361.671Z" fill="#07C5DF"/>
<path d="M191.541 365.168V317.283H631.85V365.168H191.541Z" fill="#70FFEE"/>
<path d="M230.082 304.107L192.708 318.451H631.849L589.804 304.107H230.082Z" fill="#07C5DF"/>
<path d="M231.25 304.435V254.214H590.972V304.435H231.25Z" fill="#70FFEE"/>
<path d="M386.033 546.116H354.499L346.324 562.467H393.041L386.033 546.116Z" fill="black"/>
<path d="M448.08 482.026H416.546L408.37 498.377H455.087L448.08 482.026Z" fill="black"/>
<path d="M448.079 286.982H353.477V535.751H387.347V318.516H416.545V475.019H448.079V286.982Z" fill="#006268"/>
<path d="M351.141 281.142V143.327C320.775 137.487 293.003 181.868 338.294 229.753V258.952C316.104 258.952 237.852 155.006 359.317 100.113H441.072C505.308 143.327 534.506 193.548 492.461 281.142L474.942 269.317C505.308 202.891 474.942 167.853 452.751 143.327V281.142H351.141Z" fill="#088698"/>
<path d="M411.874 77.4189H390.851V86.7624L363.989 100.778H432.897L411.874 86.7624V77.4189Z" fill="#FFA1A1"/>
<path d="M376.836 75.9154V50.221L368.66 31.5341V17.5189L376.836 8.1755H397.858V0H414.209L422.385 8.1755L429.392 17.5189V38.5417L422.385 50.221V75.9154H397.858H376.836Z" fill="black"/>
</svg>
