<svg width="885" height="639" viewBox="0 0 885 639" fill="none" xmlns="http://www.w3.org/2000/svg">
<path d="M638.186 449.23C658.762 426.747 656.23 420.126 636.127 401.727L521.047 296.406L578.061 234.109L693.141 339.43C750.179 391.632 754.615 442.17 698.029 503.999L505.553 714.309C448.967 776.137 398.235 776.186 341.197 723.985L7.92437 418.973L64.9385 356.677L398.211 661.688C418.314 680.087 425.133 682.023 445.71 659.54L638.186 449.23Z" fill="black" fill-opacity="0.01"/>
<path d="M492.61 548.386L435.595 610.682L106.457 309.455L301.363 96.4898C357.949 34.6614 423.333 30.8074 478.968 81.7251L495.799 97.1288C553.305 149.758 569.04 195.46 508.167 261.972L451.391 324.009L392.015 269.669L448.792 207.631C473.655 180.464 461.187 179.068 439.214 158.957L421.915 143.126C402.747 125.583 381.315 128.348 360.739 150.831L222.847 301.499L492.61 548.386Z" fill="black" fill-opacity="0.01"/>
<path d="M381.569 282.612L579.422 463.686L522.408 525.983L324.555 344.908L381.569 282.612Z" fill="black" fill-opacity="0.01"/>
<path d="M330.283 235.675L359.869 262.751L302.855 325.048L273.269 297.972L330.283 235.675Z" fill="black" fill-opacity="0.01"/>
<path d="M519.203 294.718L517.515 296.563L519.359 298.251L634.439 403.571C639.459 408.166 643.244 411.903 645.843 415.276C648.428 418.63 649.689 421.435 649.92 424.158C650.15 426.866 649.392 429.863 647.205 433.663C645.002 437.491 641.452 441.958 636.342 447.542L443.865 657.853C438.755 663.436 434.619 667.368 431.001 669.9C427.409 672.414 424.491 673.434 421.773 673.445C419.04 673.455 416.135 672.447 412.565 670.169C408.976 667.878 404.918 664.438 399.899 659.843L66.6263 354.832L64.7821 353.145L63.0943 354.989L6.08013 417.286L4.39229 419.13L6.23652 420.818L339.509 725.829C368.258 752.14 395.824 765.664 423.657 764.405C451.487 763.147 478.893 747.142 507.397 715.997L699.873 505.686C728.377 474.542 741.898 445.828 740.692 417.996C739.485 390.16 723.578 363.897 694.829 337.586L579.749 232.265L577.905 230.577L576.217 232.422L519.203 294.718ZM494.454 550.073L496.142 548.229L494.297 546.541L226.379 301.342L362.583 152.518C372.644 141.525 382.643 135.656 392.169 134.449C401.607 133.252 411.053 136.574 420.227 144.97L437.526 160.802C441.034 164.012 444.39 166.825 447.324 169.283C448.977 170.668 450.495 171.94 451.831 173.109C455.71 176.499 458.148 179.088 459.278 181.655C460.304 183.984 460.361 186.569 458.608 190.339C456.793 194.24 453.13 199.188 446.947 205.944L390.171 267.981L388.483 269.825L390.327 271.513L449.703 325.854L451.547 327.542L453.235 325.697L510.012 263.66C540.673 230.158 552.507 201.39 548.853 174.014C545.217 146.777 526.329 121.681 497.487 95.2846L480.656 79.8809C452.447 54.0641 421.539 41.9437 390.331 44.335C359.152 46.724 328.108 63.5643 299.519 94.802L104.613 307.767L102.925 309.611L104.769 311.299L433.908 612.527L435.752 614.214L437.44 612.37L494.454 550.073ZM383.257 280.767L381.413 279.079L379.725 280.924L322.711 343.22L321.023 345.065L322.867 346.753L520.72 527.827L522.564 529.515L524.252 527.671L581.266 465.374L582.954 463.53L581.11 461.842L383.257 280.767ZM331.971 233.831L330.127 232.143L328.439 233.987L271.425 296.284L269.737 298.128L271.581 299.816L301.167 326.892L303.011 328.58L304.699 326.736L361.713 264.439L363.401 262.595L361.557 260.907L331.971 233.831Z" stroke="#448CFF" stroke-opacity="0.61" stroke-width="5"/>
<path d="M822.092 512.48C811.85 523.263 802.159 530.216 794.503 535.71C704.5 600.288 598.002 581.464 575.368 576.867C541.946 570.078 477.34 556.957 430.631 502.028C359.965 418.926 370.969 288.001 425.782 201.575C435.809 185.767 488.77 98.0246 596.415 83.9535C661.56 75.4377 737.498 92.6129 792.491 138.686C907.925 235.397 899.707 430.77 822.092 512.48Z" fill="url(#paint0_linear_344_379)"/>
<path d="M734.668 464.668C810.086 389.251 810.086 266.974 734.668 191.556C659.251 116.138 536.974 116.138 461.556 191.556C386.138 266.974 386.138 389.251 461.556 464.668C536.974 540.086 659.251 540.086 734.668 464.668Z" fill="#BDD0FB"/>
<path d="M598.116 492.934C689.144 492.934 762.938 419.141 762.938 328.112C762.938 237.084 689.144 163.291 598.116 163.291C507.087 163.291 433.294 237.084 433.294 328.112C433.294 419.141 507.087 492.934 598.116 492.934Z" fill="url(#paint1_linear_344_379)"/>
<path d="M598.116 501.19C502.682 501.19 425.04 423.548 425.04 328.113C425.04 232.677 502.682 155.035 598.116 155.035C693.551 155.035 771.193 232.677 771.193 328.113C771.193 423.548 693.551 501.19 598.116 501.19ZM598.116 163.291C507.233 163.291 433.295 237.229 433.295 328.112C433.295 418.996 507.233 492.934 598.116 492.934C688.999 492.934 762.937 418.996 762.937 328.112C762.937 237.229 688.999 163.291 598.116 163.291Z" fill="white"/>
<path d="M598.117 428.596C653.612 428.596 698.6 383.608 698.6 328.112C698.6 272.617 653.612 227.629 598.117 227.629C542.621 227.629 497.633 272.617 497.633 328.112C497.633 383.608 542.621 428.596 598.117 428.596Z" fill="url(#paint2_linear_344_379)"/>
<path d="M598.117 436.852C538.158 436.852 489.378 388.071 489.378 328.113C489.378 268.154 538.158 219.375 598.117 219.375C658.075 219.375 706.855 268.154 706.855 328.113C706.855 388.071 658.075 436.852 598.117 436.852ZM598.117 235.885C547.262 235.885 505.889 277.258 505.889 328.113C505.889 378.967 547.262 420.341 598.117 420.341C648.971 420.341 690.345 378.967 690.345 328.113C690.345 277.258 648.971 235.885 598.117 235.885Z" fill="white"/>
<path d="M598.117 367.043C619.617 367.043 637.047 349.613 637.047 328.113C637.047 306.612 619.617 289.182 598.117 289.182C576.616 289.182 559.187 306.612 559.187 328.113C559.187 349.613 576.616 367.043 598.117 367.043Z" fill="url(#paint3_linear_344_379)"/>
<path d="M598.116 375.298C572.098 375.298 550.931 354.131 550.931 328.112C550.931 302.093 572.098 280.926 598.116 280.926C624.134 280.926 645.302 302.093 645.302 328.112C645.302 354.131 624.134 375.298 598.116 375.298ZM598.116 297.437C581.202 297.437 567.442 311.198 567.442 328.113C567.442 345.027 581.202 358.788 598.116 358.788C615.031 358.788 628.792 345.027 628.792 328.113C628.792 311.198 615.031 297.437 598.116 297.437Z" fill="white"/>
<path d="M782.387 144.338L786.488 148.439L631.215 303.712L627.114 299.611L782.387 144.338Z" fill="url(#paint4_linear_344_379)"/>
<path d="M630.019 289.717C632.371 287.365 643.461 298.455 641.109 300.807L599.976 333.144C598.457 334.339 596.488 332.37 597.682 330.85L630.019 289.717Z" fill="url(#paint5_linear_344_379)"/>
<path d="M786.4 148.527L807.289 150.603L778.613 179.28C769.217 188.676 756.102 193.362 742.88 192.047L786.4 148.527Z" fill="#91B3FA"/>
<path d="M782.299 144.427L780.223 123.538L751.546 152.215C742.15 161.61 737.465 174.725 738.779 187.947L782.299 144.427Z" fill="#91B3FA"/>
<g opacity="0.3">
<path d="M495.632 115.513C495.048 116.096 494.101 116.096 493.518 115.512C492.385 114.378 491.185 113.276 489.953 112.238C489.329 111.712 489.243 110.785 489.755 110.154C489.761 110.147 489.767 110.139 489.773 110.132C490.305 109.501 491.248 109.421 491.879 109.953C493.176 111.046 494.439 112.206 495.632 113.4C496.178 113.945 496.213 114.809 495.737 115.395C495.704 115.436 495.669 115.475 495.632 115.513ZM483.607 107.593C482.245 106.732 480.833 105.922 479.41 105.183C478.678 104.803 478.392 103.902 478.772 103.169C479.156 102.435 480.054 102.151 480.787 102.531C482.284 103.308 483.77 104.161 485.203 105.066C485.901 105.507 486.109 106.43 485.668 107.128C485.636 107.179 485.601 107.227 485.565 107.272C485.094 107.852 484.254 108.002 483.607 107.593ZM472.198 102.058C470.683 101.524 469.127 101.049 467.57 100.646C466.772 100.44 466.291 99.6242 466.498 98.8253C466.705 98.0273 467.52 97.5466 468.319 97.7528C469.958 98.1767 471.597 98.677 473.193 99.2399C473.971 99.5144 474.379 100.368 474.105 101.146C474.046 101.312 473.962 101.461 473.857 101.59C473.47 102.067 472.811 102.274 472.198 102.058ZM459.839 99.2136C458.24 99.031 456.616 98.9161 455.01 98.871C454.185 98.8476 453.534 98.16 453.558 97.3354C453.582 96.5106 454.269 95.8611 455.093 95.8834C456.784 95.9311 458.495 96.0524 460.177 96.2439C460.997 96.3375 461.586 97.078 461.492 97.8979C461.459 98.1913 461.342 98.4552 461.169 98.6687C460.858 99.052 460.365 99.2733 459.839 99.2136ZM447.153 99.1937C445.558 99.3702 443.948 99.6175 442.368 99.9296C441.558 100.089 440.772 99.5622 440.612 98.7525C440.452 97.9423 440.98 97.1567 441.79 96.9976C443.452 96.6696 445.146 96.4092 446.824 96.2235C447.645 96.1326 448.383 96.7238 448.474 97.5443C448.52 97.9576 448.392 98.3502 448.149 98.6497C447.911 98.9443 447.56 99.1485 447.153 99.1937ZM434.78 101.981C433.261 102.507 431.746 103.104 430.277 103.757C429.523 104.092 428.639 103.752 428.305 102.998C427.969 102.244 428.309 101.361 429.063 101.026C430.609 100.339 432.204 99.7099 433.802 99.1568C434.582 98.8872 435.433 99.3004 435.703 100.08C435.878 100.587 435.765 101.123 435.451 101.511C435.281 101.72 435.053 101.886 434.78 101.981ZM396.664 142.308C395.866 142.101 395.386 141.284 395.594 140.486C396.021 138.85 396.524 137.21 397.091 135.613C397.367 134.835 398.221 134.428 398.999 134.704C399.777 134.98 400.183 135.834 399.907 136.612C399.369 138.128 398.891 139.685 398.487 141.239C398.431 141.452 398.333 141.642 398.202 141.803C397.845 142.244 397.25 142.461 396.664 142.308ZM423.338 107.438C421.975 108.288 420.633 109.207 419.348 110.171C418.687 110.666 417.751 110.532 417.255 109.872C416.76 109.211 416.897 108.278 417.555 107.78C418.908 106.765 420.322 105.797 421.758 104.902C422.458 104.466 423.379 104.679 423.816 105.38C424.162 105.935 424.1 106.63 423.709 107.111C423.608 107.237 423.483 107.348 423.338 107.438ZM401.032 130.039C400.3 129.658 400.016 128.755 400.397 128.023C401.179 126.524 402.036 125.039 402.943 123.609C403.382 122.91 404.308 122.706 405.005 123.148C405.702 123.59 405.908 124.513 405.466 125.21C404.604 126.569 403.79 127.98 403.047 129.405C403 129.496 402.944 129.58 402.882 129.656C402.444 130.197 401.672 130.373 401.032 130.039ZM413.406 115.314C412.268 116.447 411.164 117.644 410.125 118.872C409.592 119.502 408.649 119.581 408.019 119.047C407.397 118.521 407.313 117.596 407.823 116.966C407.83 116.958 407.837 116.95 407.844 116.942C408.937 115.649 410.1 114.389 411.297 113.197C411.882 112.615 412.828 112.617 413.41 113.201C413.954 113.748 413.988 114.61 413.513 115.195C413.48 115.236 413.444 115.276 413.406 115.314Z" fill="#91B3FA"/>
<path d="M396.488 152.155C396.673 151.926 396.793 151.641 396.817 151.325C396.873 150.556 396.947 149.777 397.035 149.006C397.129 148.187 396.541 147.445 395.721 147.351C394.901 147.257 394.159 147.845 394.066 148.666C393.973 149.476 393.896 150.296 393.836 151.105C393.775 151.927 394.394 152.644 395.216 152.705C395.724 152.743 396.19 152.522 396.488 152.155Z" fill="#91B3FA"/>
</g>
<g opacity="0.3">
<path d="M411.145 195.29C411.599 194.73 411.592 193.907 411.096 193.353C410.582 192.78 410.071 192.185 409.578 191.587C409.053 190.951 408.111 190.86 407.474 191.385C406.835 191.912 406.747 192.852 407.272 193.488C407.791 194.118 408.329 194.744 408.87 195.348C409.421 195.962 410.365 196.014 410.98 195.463C411.04 195.409 411.095 195.351 411.145 195.29Z" fill="#91B3FA"/>
<path d="M497.778 195.422C497.228 196.037 496.283 196.089 495.668 195.538C495.053 194.988 495.002 194.045 495.552 193.428C496.6 192.258 497.614 191.025 498.579 189.749C499.072 189.092 500.014 188.961 500.672 189.459C501.331 189.957 501.46 190.894 500.963 191.552C500.545 192.105 500.119 192.649 499.686 193.183C499.068 193.945 498.427 194.698 497.778 195.422ZM503.389 185.31C502.67 184.906 502.415 183.995 502.819 183.276C503.595 181.894 504.321 180.466 504.977 179.028C505.317 178.278 506.206 177.947 506.957 178.289C507.707 178.632 508.038 179.518 507.696 180.268C507.005 181.782 506.241 183.286 505.424 184.739C505.382 184.815 505.334 184.885 505.281 184.95C504.831 185.505 504.034 185.672 503.389 185.31ZM491.943 201.102C490.676 202.178 489.344 203.214 487.986 204.181C487.314 204.659 486.381 204.502 485.902 203.83C485.423 203.158 485.581 202.226 486.252 201.746C487.542 200.828 488.806 199.844 490.01 198.823C490.64 198.289 491.582 198.367 492.117 198.996C492.589 199.553 492.582 200.355 492.138 200.902C492.081 200.973 492.016 201.041 491.943 201.102ZM508.701 173.647C507.91 173.411 507.461 172.578 507.697 171.787C508.151 170.272 508.544 168.718 508.868 167.171C509.036 166.363 509.828 165.845 510.636 166.014C511.444 166.183 511.962 166.975 511.793 167.782C511.452 169.412 511.038 171.048 510.56 172.643C510.503 172.836 510.41 173.009 510.29 173.156C509.92 173.613 509.298 173.826 508.701 173.647ZM481.049 208.434C479.577 209.203 478.051 209.921 476.513 210.566C475.752 210.885 474.877 210.528 474.557 209.767C474.238 209.005 474.596 208.13 475.357 207.81C476.817 207.197 478.267 206.516 479.665 205.785C480.396 205.403 481.299 205.686 481.682 206.417C481.966 206.962 481.882 207.602 481.518 208.051C481.393 208.205 481.236 208.337 481.049 208.434ZM468.811 213.199C467.202 213.629 465.557 213.996 463.92 214.29C463.107 214.436 462.33 213.896 462.184 213.084C462.038 212.27 462.578 211.494 463.391 211.349C464.946 211.069 466.51 210.72 468.039 210.312C468.837 210.098 469.656 210.572 469.869 211.369C469.997 211.85 469.876 212.338 469.585 212.697C469.393 212.934 469.128 213.114 468.811 213.199ZM455.825 215.183C454.16 215.253 452.473 215.253 450.812 215.183C449.987 215.149 449.347 214.453 449.381 213.628C449.416 212.802 450.113 212.163 450.937 212.197C452.515 212.264 454.117 212.263 455.7 212.197C456.525 212.163 457.221 212.803 457.256 213.627C457.272 214.006 457.145 214.358 456.924 214.631C456.663 214.952 456.271 215.164 455.825 215.183ZM442.716 214.288C441.076 213.991 439.429 213.622 437.822 213.188C437.026 212.974 436.553 212.154 436.768 211.357C436.983 210.561 437.803 210.088 438.6 210.303C440.126 210.714 441.689 211.065 443.247 211.346C444.059 211.493 444.599 212.27 444.452 213.082C444.406 213.339 444.297 213.568 444.143 213.757C443.811 214.167 443.272 214.388 442.716 214.288ZM430.117 210.531C428.586 209.883 427.063 209.16 425.589 208.383C424.859 207.998 424.579 207.093 424.964 206.364C425.348 205.636 426.252 205.354 426.983 205.739C428.383 206.477 429.83 207.164 431.284 207.78C432.043 208.102 432.398 208.979 432.076 209.739C432.02 209.871 431.948 209.991 431.861 210.098C431.452 210.602 430.744 210.797 430.117 210.531ZM418.662 204.107C417.665 203.395 416.678 202.643 415.728 201.873C415.384 201.594 415.044 201.312 414.708 201.027C414.079 200.494 413.982 199.548 414.535 198.921C415.068 198.292 416.011 198.214 416.641 198.747C416.96 199.018 417.283 199.287 417.61 199.552C418.514 200.284 419.452 200.998 420.399 201.675C421.071 202.155 421.226 203.088 420.747 203.759C420.729 203.785 420.71 203.809 420.691 203.833C420.197 204.442 419.308 204.569 418.662 204.107Z" fill="#91B3FA"/>
<path d="M512.581 160.513C512.768 160.283 512.888 159.994 512.911 159.676C512.966 158.869 513.005 158.045 513.028 157.228C513.05 156.403 512.4 155.716 511.575 155.693C510.75 155.671 510.063 156.321 510.04 157.146C510.019 157.922 509.981 158.705 509.929 159.471C509.872 160.294 510.493 161.007 511.317 161.064C511.822 161.099 512.285 160.878 512.581 160.513Z" fill="#91B3FA"/>
</g>
<path d="M495.772 141.182C495.711 140.89 495.472 140.669 495.177 140.631L486.745 139.555C485.072 135.955 482.812 132.596 479.997 129.636L482.085 121.402C482.158 121.113 482.04 120.81 481.79 120.646L473.264 115.056C473.015 114.892 472.689 114.905 472.454 115.088L465.734 120.285C461.897 118.884 457.916 118.151 453.948 118.051L449.598 110.748C449.446 110.492 449.148 110.361 448.856 110.422L438.874 112.498C438.582 112.559 438.361 112.798 438.323 113.093L437.247 121.525C433.647 123.198 430.288 125.458 427.329 128.273L419.094 126.186C418.805 126.113 418.502 126.231 418.339 126.48L412.748 135.007C412.585 135.256 412.598 135.581 412.78 135.817L417.977 142.536C416.576 146.373 415.843 150.354 415.744 154.323L408.441 158.672C408.185 158.824 408.053 159.122 408.114 159.414L410.191 169.396C410.251 169.688 410.49 169.909 410.786 169.947L419.218 171.023C420.891 174.623 423.15 177.982 425.966 180.942L423.879 189.176C423.805 189.465 423.923 189.768 424.172 189.932L432.699 195.522C432.948 195.685 433.274 195.673 433.509 195.49L440.228 190.293C444.066 191.694 448.047 192.427 452.015 192.527L456.364 199.83C456.517 200.086 456.815 200.217 457.107 200.156L467.089 198.08C467.38 198.019 467.602 197.78 467.639 197.485L468.716 189.053C472.316 187.38 475.674 185.12 478.634 182.305L486.868 184.392C487.157 184.465 487.461 184.347 487.624 184.098L493.214 175.572C493.378 175.322 493.365 174.997 493.183 174.761L487.985 168.042C489.387 164.205 490.12 160.224 490.219 156.256L497.522 151.907C497.778 151.754 497.909 151.456 497.849 151.164L495.772 141.182Z" fill="#91B3FA"/>
<path d="M459.916 162.835C455.755 166.659 449.259 166.385 445.435 162.223C443.583 160.208 442.626 157.591 442.742 154.856C442.857 152.122 444.03 149.595 446.047 147.743C450.208 143.919 456.704 144.193 460.528 148.354C464.007 152.14 464.094 157.858 460.947 161.739C460.635 162.123 460.291 162.49 459.916 162.835ZM445.131 154.957C445.042 157.055 445.775 159.06 447.196 160.606C450.128 163.796 455.109 164.007 458.299 161.075C461.491 158.143 461.699 153.162 458.767 149.972C455.836 146.782 450.855 146.571 447.665 149.503C447.375 149.769 447.109 150.053 446.866 150.352C445.811 151.654 445.203 153.253 445.131 154.957Z" fill="#BDD0FB"/>
<path d="M472.313 171.224C472.853 170.558 473.363 169.86 473.84 169.133C473.99 168.904 474.137 168.672 474.279 168.439C474.983 167.287 475.594 166.08 476.102 164.838C476.109 164.821 476.116 164.805 476.123 164.788C476.143 164.74 476.162 164.692 476.181 164.643C476.219 164.549 476.255 164.455 476.292 164.361C476.388 164.113 476.307 163.841 476.111 163.682C476.064 163.643 476.009 163.611 475.949 163.588C475.641 163.469 475.296 163.623 475.177 163.931C474.566 165.516 473.779 167.045 472.84 168.477C468.177 175.591 460.354 179.413 452.42 179.311C448.007 179.255 443.56 177.984 439.604 175.39C438.91 174.936 438.244 174.449 437.609 173.933C433.331 170.464 430.4 165.669 429.264 160.204C427.958 153.927 429.175 147.516 432.691 142.154C439.952 131.081 454.858 127.984 465.927 135.241C466.61 135.689 467.267 136.169 467.896 136.68C470.625 138.893 472.839 141.679 474.37 144.845C474.41 144.926 474.465 144.995 474.532 145.048C474.706 145.189 474.953 145.227 475.168 145.122C475.465 144.978 475.591 144.622 475.446 144.324C473.839 141 471.515 138.075 468.65 135.752C467.989 135.215 467.299 134.711 466.583 134.242C454.962 126.622 439.308 129.882 431.691 141.499C428 147.128 426.723 153.857 428.094 160.447C429.286 166.185 432.363 171.218 436.854 174.861C437.521 175.402 438.22 175.913 438.948 176.39C444.578 180.081 451.307 181.359 457.897 179.988C463.636 178.794 468.67 175.716 472.313 171.224Z" fill="#BDD0FB"/>
<g opacity="0.3">
<path d="M558.44 100.586C558.692 100.276 558.721 99.8263 558.483 99.481C558.038 98.8362 557.567 98.1959 557.084 97.5782C556.77 97.1769 556.19 97.1061 555.788 97.42C555.385 97.733 555.316 98.3141 555.63 98.7156C556.091 99.3041 556.539 99.9142 556.964 100.53C557.253 100.949 557.828 101.054 558.248 100.765C558.322 100.714 558.386 100.653 558.44 100.586Z" fill="#91B3FA"/>
<path d="M553.825 95.2081C553.465 95.5691 552.881 95.5707 552.52 95.2108C551.608 94.3037 550.638 93.4325 549.639 92.6225C549.429 92.4517 549.215 92.2827 548.999 92.1152C548.597 91.8026 548.524 91.2228 548.837 90.8202C549.148 90.4513 549.729 90.345 550.132 90.6575C550.358 90.8329 550.581 91.0098 550.802 91.1885C551.849 92.0377 552.865 92.9509 553.822 93.9026C554.16 94.2391 554.183 94.7738 553.888 95.1371C553.868 95.1615 553.847 95.1849 553.825 95.2081ZM545.129 89.4712C543.79 88.6714 542.39 87.9473 540.967 87.3197C540.5 87.1137 540.289 86.5697 540.495 86.1029C540.7 85.6393 541.245 85.425 541.712 85.631C543.203 86.2886 544.672 87.0476 546.076 87.8865C546.513 88.1479 546.656 88.7147 546.395 89.1526C546.372 89.1909 546.346 89.2272 546.319 89.2612C546.034 89.6119 545.528 89.7094 545.129 89.4712ZM536.568 85.6993C535.076 85.2526 533.541 84.8952 532.003 84.6365C531.501 84.5519 531.162 84.0757 531.246 83.5734C531.331 83.0691 531.806 82.7312 532.309 82.8162C533.922 83.0873 535.533 83.4628 537.097 83.9306C537.585 84.0769 537.863 84.5912 537.717 85.0795C537.681 85.1983 537.623 85.3049 537.55 85.3959C537.321 85.6777 536.937 85.8095 536.568 85.6993ZM527.342 84.1461C525.783 84.0789 524.206 84.1078 522.657 84.233C522.148 84.2736 521.703 83.895 521.663 83.387C521.622 82.8802 522 82.4342 522.508 82.3929C524.134 82.262 525.787 82.2316 527.421 82.3021C527.93 82.3238 528.326 82.7551 528.304 83.2644C528.294 83.4695 528.219 83.6563 528.099 83.8047C527.921 84.0241 527.646 84.1594 527.342 84.1461ZM518.016 84.8927C516.488 85.2064 514.967 85.6175 513.492 86.1144C513.009 86.2773 512.486 86.0175 512.323 85.5343C512.16 85.0513 512.419 84.5272 512.903 84.3651C514.448 83.8441 516.044 83.4134 517.644 83.0841C518.143 82.982 518.631 83.3032 518.734 83.8022C518.791 84.0843 518.714 84.3627 518.546 84.57C518.417 84.7298 518.233 84.8478 518.016 84.8927ZM509.153 87.8804C507.75 88.5554 506.376 89.3245 505.068 90.1669C504.64 90.4428 504.069 90.3193 503.793 89.8911C503.517 89.4627 503.64 88.8934 504.069 88.615C505.439 87.7316 506.881 86.9248 508.354 86.2167C508.813 85.9963 509.364 86.1892 509.585 86.6483C509.745 86.9809 509.688 87.3618 509.47 87.6302C509.387 87.7327 509.281 87.8193 509.153 87.8804ZM501.294 92.9427C500.103 93.9384 498.958 95.0222 497.893 96.165C497.545 96.5371 496.961 96.5574 496.588 96.2096C496.216 95.8623 496.201 95.2838 496.543 94.9046C497.661 93.7076 498.861 92.5709 500.11 91.5266C500.502 91.2 501.084 91.252 501.411 91.6429C501.698 91.9868 501.692 92.4792 501.42 92.8152C501.383 92.8605 501.341 92.9035 501.294 92.9427ZM491.141 104.097C490.695 103.85 490.534 103.289 490.781 102.843C491.464 101.608 492.227 100.39 493.045 99.2244C493.168 99.0466 493.294 98.8716 493.42 98.697C493.707 98.2781 494.297 98.1933 494.71 98.4946C495.122 98.7946 495.213 99.3715 494.913 99.784C494.794 99.9471 494.676 100.112 494.558 100.282C493.775 101.397 493.047 102.559 492.395 103.736C492.369 103.785 492.338 103.83 492.304 103.872C492.028 104.213 491.538 104.317 491.141 104.097Z" fill="#91B3FA"/>
</g>
<g opacity="0.3">
<path d="M556.279 147.663C555.25 148.899 554.136 150.082 552.969 151.182C552.598 151.531 552.014 151.514 551.664 151.143C551.314 150.772 551.338 150.189 551.703 149.838C552.817 148.79 553.878 147.661 554.86 146.481C555.186 146.089 555.768 146.036 556.16 146.362C556.548 146.686 556.604 147.261 556.287 147.653C556.284 147.656 556.281 147.659 556.279 147.663ZM557.867 144.041C557.439 143.765 557.316 143.193 557.593 142.766C558.426 141.478 559.189 140.127 559.862 138.75C560.085 138.296 560.638 138.102 561.096 138.327C561.554 138.55 561.744 139.102 561.521 139.56C560.816 141.003 560.016 142.419 559.143 143.768C559.125 143.796 559.105 143.823 559.084 143.849C558.791 144.21 558.267 144.3 557.867 144.041ZM549.253 154.275C547.955 155.227 546.588 156.107 545.19 156.891C544.745 157.141 544.182 156.982 543.933 156.538C543.683 156.093 543.842 155.533 544.286 155.281C545.62 154.533 546.924 153.694 548.163 152.787C548.574 152.486 549.152 152.575 549.452 152.985C549.706 153.331 549.683 153.794 549.425 154.112C549.377 154.172 549.319 154.227 549.253 154.275ZM562.198 135.665C561.716 135.499 561.46 134.974 561.626 134.492C562.125 133.042 562.539 131.548 562.858 130.049C562.964 129.551 563.454 129.233 563.952 129.338C564.45 129.444 564.769 129.934 564.663 130.433C564.33 132.004 563.895 133.572 563.371 135.093C563.335 135.198 563.282 135.292 563.216 135.373C562.978 135.666 562.575 135.794 562.198 135.665ZM540.841 158.993C539.355 159.603 537.817 160.128 536.268 160.554C535.776 160.69 535.268 160.4 535.133 159.909C534.998 159.418 535.286 158.909 535.778 158.774C537.256 158.368 538.723 157.867 540.139 157.285C540.611 157.091 541.15 157.316 541.344 157.788C541.477 158.111 541.412 158.467 541.206 158.721C541.112 158.836 540.989 158.932 540.841 158.993ZM531.541 161.555C529.949 161.792 528.329 161.934 526.726 161.978C526.217 161.992 525.793 161.59 525.779 161.081C525.765 160.572 526.166 160.147 526.676 160.133C528.205 160.091 529.751 159.955 531.269 159.729C531.773 159.654 532.243 160.002 532.318 160.506C532.357 160.772 532.279 161.029 532.122 161.223C531.981 161.396 531.778 161.519 531.541 161.555ZM521.894 161.816C520.291 161.665 518.683 161.414 517.117 161.071C516.618 160.962 516.304 160.47 516.413 159.972C516.521 159.474 517.014 159.16 517.511 159.268C519.006 159.596 520.538 159.835 522.067 159.978C522.574 160.026 522.947 160.476 522.899 160.984C522.882 161.172 522.809 161.341 522.698 161.478C522.51 161.709 522.214 161.846 521.894 161.816Z" fill="#91B3FA"/>
<path d="M565.181 126.108C565.293 125.97 565.366 125.798 565.383 125.607C565.451 124.82 565.496 124.028 565.518 123.251C565.532 122.742 565.13 122.317 564.62 122.303C564.112 122.29 563.687 122.691 563.672 123.2C563.652 123.941 563.609 124.697 563.544 125.448C563.5 125.956 563.876 126.403 564.384 126.447C564.701 126.474 564.995 126.338 565.181 126.108Z" fill="#91B3FA"/>
</g>
<path d="M554.047 112.515C554.007 112.32 553.847 112.172 553.649 112.147L548.007 111.427C546.887 109.018 545.375 106.77 543.491 104.79L544.888 99.2798C544.937 99.0865 544.858 98.8835 544.691 98.7741L538.986 95.0333C538.819 94.9238 538.601 94.9325 538.443 95.0543L533.947 98.5325C531.38 97.5944 528.716 97.104 526.06 97.0377L523.15 92.1507C523.048 91.9794 522.848 91.8917 522.653 91.9323L515.974 93.3216C515.778 93.3622 515.63 93.5222 515.605 93.7199L514.885 99.3619C512.476 100.482 510.229 101.994 508.248 103.878L502.738 102.481C502.545 102.432 502.341 102.511 502.232 102.678L498.491 108.383C498.382 108.55 498.391 108.768 498.512 108.926L501.99 113.422C501.052 115.989 500.562 118.653 500.496 121.309L495.609 124.219C495.437 124.321 495.35 124.52 495.39 124.716L496.78 131.395C496.82 131.591 496.98 131.738 497.178 131.764L502.82 132.484C503.94 134.893 505.452 137.141 507.336 139.121L505.939 144.631C505.89 144.825 505.969 145.028 506.136 145.137L511.841 148.878C512.008 148.987 512.226 148.979 512.384 148.857L516.88 145.379C519.447 146.317 522.111 146.807 524.767 146.874L527.677 151.761C527.779 151.932 527.978 152.02 528.174 151.979L534.853 150.59C535.048 150.549 535.196 150.389 535.222 150.191L535.942 144.549C538.351 143.43 540.598 141.918 542.579 140.034L548.089 141.43C548.282 141.479 548.485 141.4 548.595 141.234L552.336 135.528C552.445 135.361 552.436 135.143 552.314 134.986L548.836 130.49C549.774 127.922 550.265 125.258 550.331 122.603L555.218 119.692C555.389 119.59 555.477 119.391 555.436 119.195L554.047 112.515Z" fill="#91B3FA"/>
<path d="M530.137 127.095C528.764 128.358 526.982 129.009 525.119 128.93C523.256 128.852 521.535 128.052 520.273 126.679C517.669 123.845 517.856 119.428 520.69 116.815C523.525 114.211 527.95 114.398 530.553 117.231C531.815 118.604 532.467 120.387 532.388 122.25C532.324 123.764 531.784 125.185 530.846 126.341C530.631 126.607 530.394 126.859 530.137 127.095ZM521.632 125.43C522.56 126.44 523.826 127.028 525.197 127.086C526.567 127.144 527.878 126.665 528.888 125.737C529.897 124.807 530.486 123.543 530.544 122.172C530.603 120.802 530.122 119.49 529.195 118.481C527.279 116.396 524.024 116.258 521.939 118.174C521.751 118.347 521.579 118.53 521.422 118.723C519.846 120.668 519.889 123.533 521.632 125.43Z" fill="#BDD0FB"/>
<path d="M538.766 132.933C539.134 132.48 539.481 132.004 539.809 131.506C540.458 130.516 541.007 129.459 541.442 128.362C541.461 128.313 541.48 128.263 541.499 128.214C541.647 127.831 541.523 127.411 541.221 127.165C541.147 127.106 541.063 127.056 540.97 127.021C540.494 126.837 539.962 127.076 539.777 127.55C539.381 128.578 538.872 129.568 538.265 130.493L538.265 130.493C538.232 130.544 538.198 130.595 538.164 130.645C536.708 132.82 534.764 134.55 532.505 135.734C531.279 136.376 529.958 136.857 528.571 137.159C528.56 137.161 528.549 137.163 528.537 137.166C528.502 137.173 528.468 137.181 528.434 137.188C524.37 138.033 520.22 137.245 516.749 134.969C516.299 134.675 515.869 134.36 515.457 134.026C512.688 131.78 510.791 128.676 510.055 125.138C509.21 121.074 509.998 116.924 512.274 113.453C514.549 109.985 518.041 107.605 522.105 106.759C526.169 105.914 530.319 106.702 533.79 108.978C534.232 109.267 534.657 109.578 535.065 109.908C536.831 111.342 538.264 113.144 539.255 115.194C539.316 115.32 539.402 115.426 539.505 115.509C539.774 115.727 540.155 115.784 540.488 115.623C540.946 115.4 541.139 114.85 540.917 114.39C539.808 112.097 538.204 110.079 536.229 108.476C535.772 108.106 535.296 107.758 534.802 107.434C530.918 104.887 526.276 104.006 521.729 104.952C517.182 105.898 513.275 108.553 510.73 112.44C508.183 116.324 507.302 120.966 508.248 125.513C509.071 129.472 511.194 132.945 514.292 135.457C514.752 135.83 515.234 136.183 515.736 136.512C523.256 141.442 533.221 139.772 538.766 132.933Z" fill="#BDD0FB"/>
<path d="M445.834 568.881C445.834 568.881 444.795 574.453 444.259 579.974C444.049 582.132 445.696 584.023 447.861 584.134C455.216 584.51 470.95 585.257 476.601 585.058C477.45 585.028 478.014 584.165 477.707 583.372C477.45 582.708 476.947 582.168 476.303 581.864L450.418 569.667L445.834 568.881Z" fill="url(#paint6_linear_344_379)"/>
<path d="M445.058 565.593L445.786 572.278C445.786 572.278 450.32 574.441 453.453 572.084L451.638 564.625L445.058 565.593Z" fill="url(#paint7_linear_344_379)"/>
<path d="M446.851 440.076C446.492 441.816 444.184 527.066 452.933 565.364C453.076 565.988 452.754 566.628 452.159 566.865C450.755 567.423 448.007 568.224 444.721 568.303C443.704 568.327 442.798 567.657 442.521 566.678C440 557.788 427.94 513.251 426.716 470.805C425.349 423.375 426.732 469.19 426.732 469.19L428.078 439.893L446.851 440.076Z" fill="url(#paint8_linear_344_379)"/>
<path d="M415.898 571.508C415.898 571.508 414.302 574.311 412.711 581.784C412.424 583.134 413.356 584.437 414.728 584.585C417.156 584.847 420.893 585.19 423.889 585.198C425.271 585.202 426.36 584.009 426.207 582.637C425.901 579.9 424.91 575.406 421.749 571.881L415.898 571.508Z" fill="url(#paint9_linear_344_379)"/>
<path d="M414.602 562.907L416.356 573.021C416.356 573.021 418.173 574.4 421.803 573.448L421.023 562.576L414.602 562.907Z" fill="url(#paint10_linear_344_379)"/>
<path d="M410.751 442.348C402.868 487.264 411.307 553.551 414.243 566.538C414.423 567.333 415.057 567.947 415.86 568.088C417.223 568.327 419.47 568.533 421.693 567.91C422.458 567.696 423.001 567.012 423.04 566.218C423.55 555.746 423.425 491.43 430.613 466.081C430.977 464.796 431.775 463.68 432.87 462.917L446.443 453.462L447.624 437.98L410.751 442.348Z" fill="url(#paint11_linear_344_379)"/>
<path d="M459.063 357.561C436.728 356.978 412.02 362.978 412.02 362.978C404.991 401.767 410.058 446.635 410.058 446.635C427.309 451.335 446.887 444.213 446.887 444.213C449.917 428.001 463.764 382.424 463.764 382.424C474.691 381.174 483.713 378.111 491.157 374.018C485.571 367.417 482.988 359.061 481.879 354.126C473.957 356.505 465.952 357.74 459.063 357.561Z" fill="#09005D"/>
<path d="M525.361 325.286C523.192 322.615 520.403 323.842 520.403 323.842C516.983 337.697 499.639 348.791 481.878 354.126C482.987 359.061 485.571 367.417 491.156 374.018C520.702 357.774 525.361 325.286 525.361 325.286Z" fill="url(#paint12_linear_344_379)"/>
<path d="M524.822 325.955C525.045 326.687 522.375 327.773 520.838 324.773C520.797 323.342 519.985 317.204 520.852 316.046C525.464 309.881 534.367 302.183 534.367 302.183C535.845 303.67 534.602 305.104 534.602 305.104L530.277 309.525C531.157 311.153 532.237 312.53 532.73 314.492C533.104 315.979 532.852 317.561 532.09 318.904C531.325 320.251 530.283 322.002 529.3 323.37C527.439 325.96 524.822 325.955 524.822 325.955Z" fill="url(#paint13_linear_344_379)"/>
<path d="M528.376 312.402L524.441 315.673L523.185 318.956L526.627 322.849C526.627 322.849 527.86 316.325 528.743 314.918C529.626 313.512 529.182 312.823 528.376 312.402Z" fill="url(#paint14_linear_344_379)"/>
<path d="M420.382 384.69L412.02 362.978C412.02 362.978 391.019 376.956 387.416 394.898C391.356 395.226 398.52 396.32 405.509 399.933C407.133 391.46 420.382 384.69 420.382 384.69Z" fill="#91B3FA"/>
<path d="M438.422 405.218C438.422 405.218 414.868 418.234 407.072 406.853C405.453 404.49 405.083 402.153 405.508 399.933C398.52 396.32 391.356 395.226 387.416 394.898C386.33 400.307 386.821 406.076 389.95 411.931C403.555 437.392 441.467 411.023 441.467 411.023L438.422 405.218Z" fill="url(#paint15_linear_344_379)"/>
<path d="M436.609 339.209L429.305 359.697C429.184 360.036 429.32 360.414 429.634 360.592C431.561 361.681 438.512 364.844 446.975 359.591C447.857 359.044 448.462 358.144 448.605 357.116L451.077 339.347L436.609 339.209Z" fill="url(#paint16_linear_344_379)"/>
<path d="M452.255 320.322C452.255 320.322 459.921 335.089 458.864 341.014C457.806 346.939 448.137 346.421 439.736 341.52L433.985 325.6L452.255 320.322Z" fill="url(#paint17_linear_344_379)"/>
<path d="M440.184 333.733C440.529 333.584 440.659 333.165 440.457 332.849C439.84 331.888 438.687 329.927 438.329 328.218C438.329 328.218 436.935 327.306 441.92 326.163C446.906 325.019 454.342 323.242 455.941 319.023C457.501 314.909 453.606 304.49 447.154 312.701C446.909 313.013 446.434 313.015 446.195 312.698C445.163 311.328 442.444 308.48 438.614 310.155C435.031 311.722 434.604 314.332 434.64 315.651C434.651 316.039 434.301 316.337 433.921 316.26C432.12 315.899 427.794 315.562 425.731 319.984C424.031 323.626 425.093 325.708 426.069 326.73C426.385 327.061 426.24 327.6 425.801 327.73C424.612 328.081 423.071 329.072 423.198 331.851C423.373 335.694 427.67 335.396 428.894 335.233C429.095 335.206 429.296 335.277 429.43 335.428C430.467 336.598 435.143 341.568 440.248 342.211C440.69 342.267 441.038 341.833 440.897 341.41L438.746 334.959C438.646 334.659 438.792 334.333 439.082 334.208L440.184 333.733Z" fill="url(#paint18_linear_344_379)"/>
<path d="M441.065 334.654C441.065 334.654 435.544 330.788 435.107 333.995C434.671 337.202 440.067 338.694 442.758 337.522L441.065 334.654Z" fill="url(#paint19_linear_344_379)"/>
<path d="M433.608 425.788L446.438 380.982C446.584 380.473 447.018 380.102 447.543 380.041C449.868 379.769 456.604 379.008 464.381 378.35C473.749 377.558 484.628 376.916 491.129 377.462C492.054 377.54 492.612 378.517 492.201 379.349C488.504 386.828 473.298 417.251 465.683 427.218C465.43 427.548 465.04 427.741 464.625 427.737L434.856 427.46C433.99 427.452 433.37 426.621 433.608 425.788Z" fill="url(#paint20_linear_344_379)"/>
<path d="M436.708 414.963C436.708 414.963 434.921 407.614 435.642 405.006C436.363 402.399 437.759 399.047 442.415 399.791C447.072 400.536 452.564 402.498 452.564 402.498C452.564 402.498 452.286 405.894 448.748 404.798L450.942 406.496C450.942 406.496 450.628 409.215 447.639 407.763L449.68 410.014C449.68 410.014 448.397 412.248 446.198 410.815C443.998 409.383 442.944 415.848 436.708 414.963Z" fill="url(#paint21_linear_344_379)"/>
<path d="M463.526 391.726C463.526 393.806 465.213 395.492 467.293 395.492C469.373 395.492 471.059 393.806 471.059 391.726C471.059 389.645 469.373 387.959 467.293 387.959C465.213 387.959 463.526 389.645 463.526 391.726Z" fill="#91B3FA"/>
<path d="M447.89 394.209L450.502 385.347C450.823 384.259 451.698 383.442 452.785 383.214C460.973 381.506 483.383 381.144 483.608 381.141L483.593 380.14C482.669 380.154 460.861 380.507 452.581 382.235C451.132 382.537 449.967 383.621 449.541 385.064L446.929 393.925L447.89 394.209Z" fill="#BDD0FB"/>
<path d="M781.351 327.573C781.707 326.893 782.714 327 782.919 327.74C783.68 330.479 785.522 335.258 789.386 336.955C789.58 337.04 789.765 337.126 789.943 337.213C790.118 336.688 790.121 336.078 789.701 335.436C788.5 333.6 790.668 331.093 790.668 331.093C790.668 331.093 790.812 333.301 792.491 334.692C793.937 335.89 794.631 338.555 793.643 340.742C791.551 348.865 788.419 359.609 800.619 367.459C812.818 375.308 829.998 352.645 829.998 352.645L821.471 379.676C821.471 379.676 808.31 389.388 793.001 375.732C777.692 362.075 787.839 342.202 787.839 342.202C787.839 342.202 776.163 337.492 781.351 327.573Z" fill="url(#paint22_linear_344_379)"/>
<path d="M832.133 312.928C832.133 312.928 828.599 297.075 846.759 301.272C846.759 301.272 855.574 299.831 856.022 308.151C856.022 308.151 861.705 311.895 857.544 319.096C857.544 319.096 874.431 312.573 881.789 327.375C889.146 342.176 882.383 350.32 875.293 352.442C875.293 352.442 881.037 355.326 878.318 361.838C875.6 368.35 861.83 372.941 853.696 365.021C853.696 365.021 830.552 368.08 831.015 351.732C831.015 351.732 820.25 344.78 831.557 331.27C842.863 317.76 832.133 312.928 832.133 312.928Z" fill="url(#paint23_linear_344_379)"/>
<path d="M831.137 349.676C834.786 348.582 845.411 346.562 855.518 355.888C857.232 357.47 857.932 359.874 857.321 362.124C854.606 372.118 847.444 401.643 853.724 414.419C853.724 414.419 842.657 426.618 830.584 416.785C830.584 416.785 825.167 393.177 818.073 382.812C813.174 375.657 825.883 355.943 829.099 351.18C829.586 350.459 830.304 349.926 831.137 349.676Z" fill="#91B3FA"/>
<path d="M841.212 329.821C841.212 329.821 846.609 345.086 847.015 351.821C847.015 351.821 841.051 354.533 835.43 349.955C835.43 349.955 834.84 334.708 833.988 331.978L841.212 329.821Z" fill="url(#paint24_linear_344_379)"/>
<path d="M833.716 309.007C833.716 309.007 819.6 328.761 828.038 334.499C836.476 340.237 846.525 326.199 846.525 326.199C846.525 326.199 849.8 315.386 846.375 311.718C842.95 308.051 833.716 309.007 833.716 309.007Z" fill="url(#paint25_linear_344_379)"/>
<path d="M840.25 304.286C840.25 304.286 833.765 305.823 832.856 308.757C831.948 311.691 842.052 314.412 844.884 314.545L847.165 326.385C847.165 326.385 853.909 315.247 851.238 308.814C848.566 302.382 840.25 304.286 840.25 304.286Z" fill="url(#paint26_linear_344_379)"/>
<path d="M843.789 324.745C843.789 324.745 849.283 318.382 851.468 322.53C853.654 326.678 846.523 329.793 844.054 327.756L843.789 324.745Z" fill="url(#paint27_linear_344_379)"/>
<path d="M816.491 466.355C816.532 467.426 814.65 475.928 813.626 480.462C813.214 482.287 813.501 484.196 814.43 485.82L849.897 545.513C850.326 546.235 850.638 547.017 850.828 547.835C851.478 550.636 852.826 557.501 852.122 563.747L850.288 567.558L858.223 565.756L859.949 544.446L857.703 543.076C855.762 541.893 854.251 540.124 853.386 538.022C850.179 530.232 842.215 510.402 840.162 500.738C837.829 489.755 825.632 480.834 825.632 480.834L827.775 475.768L816.491 466.355Z" fill="url(#paint28_linear_344_379)"/>
<path d="M867.041 558.423C867.041 558.423 862.756 551.63 862.252 548.985C861.748 546.341 860.344 541.671 857.703 543.077C857.703 543.077 856.458 555.923 856.887 560.942C857.316 565.962 851.212 565.8 851.212 565.8C851.212 565.8 849.53 566.037 848.298 567.268C847.448 568.119 848.056 569.594 849.256 569.672C851.254 569.8 854.426 569.834 857.757 569.19C858.922 568.966 859.785 567.975 859.855 566.791L860.734 552.006L866.14 558.832L867.041 558.423Z" fill="url(#paint29_linear_344_379)"/>
<path d="M837.677 475.863C837.677 475.863 838.928 529.258 839.097 536.841C839.267 544.425 837.9 561.23 830.298 566.254L833.606 568.703C833.606 568.703 837.74 565.189 841.779 558.427C846.316 550.83 847.688 549.442 847.688 549.442L846.182 546.359C845.523 545.009 845.329 543.482 845.633 542.011C847.273 534.06 852.754 507.613 854.249 501.918C856.014 495.195 856.139 486.217 850 478.702C843.86 471.187 837.677 475.863 837.677 475.863Z" fill="url(#paint30_linear_344_379)"/>
<path d="M844.698 571.109C844.934 571.111 845.134 570.943 845.168 570.709C845.421 568.929 846.474 561.793 847.336 559.945C848.323 557.828 851.548 548.921 847.334 548.164C847.334 548.164 836.858 563.469 834.847 565.533C832.836 567.596 830.299 566.254 830.299 566.254C830.299 566.254 828.339 566.833 826.862 568.721C826.159 569.619 826.814 570.939 827.955 570.95L835.011 571.017C837.06 571.037 838.903 569.792 839.665 567.889C840.907 564.787 843.04 560.237 845.527 558.218L844.235 570.59C844.206 570.866 844.421 571.107 844.698 571.109Z" fill="url(#paint31_linear_344_379)"/>
<path d="M828.914 411.029C828.914 411.029 830.504 416.097 828.062 424.444L812.908 477.36C812.67 478.191 813.119 479.062 813.933 479.354C818.466 480.981 833.366 485.579 853.706 484.176C854.73 484.106 855.589 483.381 855.811 482.379C857.152 476.346 861.724 455.764 862.666 451.534C866.254 435.42 870.259 418.041 852.637 407.534C844.516 411.012 836.941 413.062 828.914 411.029Z" fill="url(#paint32_linear_344_379)"/>
<path d="M856.963 357.883C856.963 357.883 874.204 372.211 878.483 391.79C882.761 411.368 853.289 413.449 853.289 413.449C853.289 413.449 849.288 408.982 844.538 410.575C839.788 412.169 844.17 402.778 849.728 402.802C855.286 402.827 852.711 407.222 860.573 403.66C868.231 400.191 872.965 389.462 853.425 373.199C852.292 372.256 851.388 371.054 850.844 369.685C847.048 360.129 850.059 353.865 856.963 357.883Z" fill="url(#paint33_linear_344_379)"/>
<path d="M749.077 504.167H742.928V570.673H749.077V504.167Z" fill="#7D97F4"/>
<path d="M772.934 571.955H719.071V568.396C719.071 568.151 719.27 567.952 719.515 567.952H772.489C772.735 567.952 772.934 568.151 772.934 568.396V571.955Z" fill="#7D97F4"/>
<path d="M783.119 501.714C783.119 505.579 779.957 508.742 776.091 508.742H718.176C714.31 508.742 711.147 505.579 711.147 501.714V495.359C711.147 491.493 714.31 488.33 718.176 488.33H776.091C779.957 488.33 783.119 491.493 783.119 495.359V501.714Z" fill="#7D97F4"/>
<path d="M691.487 550.476C691.487 550.476 671.606 559.039 672.745 568.001C672.745 568.001 693.296 564.06 696.974 558.186C700.652 552.311 698.626 548.909 698.626 548.909L691.487 550.476Z" fill="url(#paint34_linear_344_379)"/>
<path d="M696.356 540.688L697.366 549.414C697.518 550.731 696.787 552.03 695.539 552.479C694.915 552.704 694.095 552.858 693.02 552.864C691.504 552.871 690.16 551.874 689.755 550.413L687.8 543.355L696.356 540.688Z" fill="url(#paint35_linear_344_379)"/>
<path d="M739.788 473.776C739.788 473.776 703.22 472.084 685.025 482.695C666.829 493.307 685.947 544.236 685.947 544.236C685.947 544.236 690.701 545.257 697.544 541.6C697.544 541.6 687.777 504.317 704.743 497.831C723.817 490.539 743.546 492.313 743.546 492.313L739.891 474.928L739.788 473.776Z" fill="url(#paint36_linear_344_379)"/>
<path d="M676.741 564.068C680.898 563.157 693.229 558.048 695.102 558.117C696.974 558.185 699.628 560.991 699.628 560.991C699.628 560.991 700.085 562.525 698.745 564.727C695.568 567.204 688.725 571.753 680.768 572.251C674.915 572.617 671.393 570.288 669.379 568.029C671.142 566.313 673.972 564.675 676.741 564.068Z" fill="url(#paint37_linear_344_379)"/>
<path d="M680.768 572.251C688.725 571.753 695.568 567.204 698.745 564.727C697.84 566.215 696.116 568.008 692.873 569.84C684.833 574.383 671.543 573.72 668.908 572.698C666.797 571.879 667.45 569.907 669.379 568.03C671.393 570.289 674.915 572.617 680.768 572.251Z" fill="url(#paint38_linear_344_379)"/>
<path d="M703.993 556.424C703.721 557.454 700.808 560.547 699.125 562.271C698.325 563.091 697.163 563.443 696.044 563.198C695.334 563.043 694.532 562.801 693.839 562.424C692.798 561.859 692.436 560.537 693.007 559.499L697.265 551.755L703.993 556.424Z" fill="url(#paint39_linear_344_379)"/>
<path d="M776.028 470.709C776.028 470.709 779.22 493.354 769.991 497.982C760.762 502.611 740.52 505.641 733.547 517.385C726.576 529.13 714.053 552.182 702.658 558.805C702.658 558.805 696.15 556.689 694.248 553.488C694.248 553.488 707.774 517.93 713.417 509.287C718.303 501.803 725.449 491.02 735.601 486.356C738.507 485.021 738.735 481.938 738.223 478.781L737.292 473.032L776.028 470.709Z" fill="url(#paint40_linear_344_379)"/>
<path d="M690.492 445.04C703.43 448.734 709.222 412.319 709.17 411.434L729.008 434.628C729.008 434.628 717.188 455.428 699.339 457.642C694.823 458.201 690.982 457.42 687.76 455.944C690.134 452.056 690.676 448.216 690.492 445.04Z" fill="url(#paint41_linear_344_379)"/>
<path d="M666.531 433.121C672.17 430.804 676.954 435.429 676.954 435.429C682.542 441.148 686.973 444.036 690.492 445.04C690.676 448.217 690.134 452.057 687.76 455.944C680.788 452.75 676.724 446.294 675.05 443.072C674.448 441.912 673.035 441.421 671.858 441.99C670.662 442.568 669.431 443.449 669.354 444.647C669.201 447.009 666.391 447.148 666.374 446.276C666.358 445.403 668.551 440.739 668.551 440.739C668.551 440.739 662.071 444.895 659.549 446.485C657.027 448.075 654.879 445.451 654.879 445.451C654.879 445.451 660.892 435.439 666.531 433.121Z" fill="url(#paint42_linear_344_379)"/>
<path d="M771.044 396.45C771.044 396.45 753.657 384.588 711.663 406.041C711.663 406.041 707.339 411.523 709.364 417.703C711.39 423.883 736.324 457.33 737.292 473.032C737.292 473.032 754.337 483.065 776.462 473.119C776.462 473.119 783.882 431.657 771.044 396.45Z" fill="#4042E2"/>
<path d="M734.838 381.284L741.71 394.749C742.392 396.085 742.249 397.703 741.313 398.876C739.421 401.247 735.471 404.433 728.73 402.38C726.724 401.769 725.19 400.137 724.706 398.098L721.145 383.069L734.838 381.284Z" fill="url(#paint43_linear_344_379)"/>
<path d="M783.92 443.466C785.097 435.281 763.469 419.418 763.469 419.418L771.044 396.45C771.044 396.45 812.315 425.902 803.635 449.954C802.391 453.402 800.535 455.914 798.273 457.694C793.902 448.731 787.975 445.006 783.92 443.466Z" fill="url(#paint44_linear_344_379)"/>
<path d="M753.746 445.737C753.746 445.737 778.212 452.571 783.288 445.123C783.632 444.618 783.834 444.062 783.92 443.466C787.975 445.006 793.902 448.731 798.273 457.694C786.657 466.832 764.259 456.589 758.174 453.518C757.173 453.013 756.022 452.914 754.951 453.248C752.787 453.924 749.036 454.972 746.946 454.858C743.889 454.69 740.608 465.738 735.405 462.941C735.405 462.941 737.769 444.065 753.746 445.737Z" fill="url(#paint45_linear_344_379)"/>
<path d="M726.03 359.28C725.812 359.468 716.748 375.298 712.135 383.368C710.726 385.832 711.781 388.968 714.389 390.086L716.388 390.943C719.119 392.113 724.992 393.094 727.303 391.227L741.874 375.847C741.874 375.846 730.931 355.038 726.03 359.28Z" fill="url(#paint46_linear_344_379)"/>
<path d="M745.979 371.65C747.766 370.646 749.914 368.613 748.242 365.018C746.542 361.363 743.181 361.046 741.017 361.279C740.142 361.373 739.35 360.817 739.096 359.974C738.951 359.494 738.596 359.071 737.829 358.949C736.795 358.786 736.153 357.73 736.422 356.718C736.941 354.775 736.852 352.136 733.727 350.244C728.182 346.886 722.997 351.764 721.554 356.003C720.11 360.242 726.33 363.541 730.301 364.214C733.32 364.726 734.793 368.208 735.326 369.849C735.495 370.368 735.414 370.934 735.114 371.39L730.684 378.121C731.902 379.654 732.982 381.274 734.046 382.913C734.444 382.484 734.793 382.126 735.065 381.876C736.989 380.114 740.411 381.023 741.82 381.508C742.282 381.667 742.785 381.63 743.219 381.405C744.753 380.612 747.851 378.385 745.312 374.172C744.781 373.29 745.082 372.155 745.979 371.65Z" fill="url(#paint47_linear_344_379)"/>
<path d="M732.434 385.79C732.434 385.79 735.266 378.511 738.486 378.917C741.705 379.323 744.113 382.647 739.958 386.098C734.79 390.39 732.434 385.79 732.434 385.79Z" fill="url(#paint48_linear_344_379)"/>
<path d="M722.507 461.315C722.463 461.317 722.419 461.318 722.375 461.318L665.219 461.256C663.806 461.254 662.662 460.108 662.663 458.695C662.665 457.281 663.815 456.114 665.224 456.139L722.381 456.202C723.794 456.203 724.938 457.349 724.937 458.762C724.935 460.131 723.859 461.248 722.507 461.315Z" fill="url(#paint49_linear_344_379)"/>
<path d="M613.837 409.42H661.437C664.949 409.42 668.145 411.446 669.643 414.622L691.648 461.284H632.494C630.231 461.284 628.198 459.902 627.366 457.797L610.301 414.618C609.316 412.124 611.154 409.42 613.837 409.42Z" fill="url(#paint50_linear_344_379)"/>
<path d="M647.372 433.345C648.404 436.55 647.642 439.662 645.67 440.297C643.699 440.931 641.264 438.848 640.233 435.643C639.201 432.438 639.963 429.326 641.935 428.691C643.906 428.056 646.341 430.14 647.372 433.345Z" fill="#91B3FA"/>
<path d="M621.554 583.905C621.237 583.905 620.915 583.844 620.606 583.715C619.387 583.208 618.824 581.84 619.348 580.661L669.722 467.291C670.245 466.112 671.658 465.567 672.877 466.074C674.096 466.582 674.659 467.949 674.134 469.129L623.761 582.498C623.37 583.378 622.484 583.905 621.554 583.905Z" fill="#91B3FA"/>
<path d="M678.302 583.905C677.371 583.905 676.485 583.378 676.094 582.498L625.721 469.129C625.197 467.949 625.76 466.581 626.978 466.074C628.196 465.566 629.609 466.111 630.134 467.291L680.507 580.66C681.031 581.84 680.468 583.207 679.25 583.715C678.941 583.844 678.619 583.905 678.302 583.905Z" fill="#91B3FA"/>
<path d="M777.481 583.905C777.165 583.905 776.843 583.844 776.534 583.715C775.315 583.208 774.752 581.84 775.276 580.66L825.649 467.291C826.174 466.112 827.585 465.567 828.805 466.074C830.023 466.581 830.586 467.949 830.062 469.129L779.689 582.498C779.298 583.378 778.412 583.905 777.481 583.905Z" fill="#91B3FA"/>
<path d="M834.228 583.905C833.297 583.905 832.411 583.378 832.021 582.498L781.647 469.129C781.123 467.949 781.686 466.581 782.904 466.074C784.122 465.566 785.535 466.111 786.06 467.291L836.433 580.66C836.957 581.84 836.395 583.207 835.176 583.715C834.867 583.844 834.545 583.905 834.228 583.905Z" fill="#91B3FA"/>
<path d="M840.137 463.791C840.266 463.047 840.09 462.278 839.66 461.694C839.229 461.11 838.588 460.771 837.912 460.771H608.75C607.861 460.771 607.032 461.279 606.553 462.118C606.074 462.957 606.009 464.012 606.383 464.916L608.866 470.934C609.435 472.312 610.667 473.194 612.022 473.194H836.339C837.6 473.194 838.684 472.193 838.924 470.806L840.137 463.791Z" fill="#91B3FA"/>
<defs>
<linearGradient id="paint0_linear_344_379" x1="944.762" y1="730.871" x2="498.862" y2="177.091" gradientUnits="userSpaceOnUse">
<stop stop-color="#DAE3FE"/>
<stop offset="1" stop-color="#E9EFFD"/>
</linearGradient>
<linearGradient id="paint1_linear_344_379" x1="741.706" y1="137.473" x2="370.59" y2="630.19" gradientUnits="userSpaceOnUse">
<stop stop-color="#4F52FF"/>
<stop offset="1" stop-color="#4042E2"/>
</linearGradient>
<linearGradient id="paint2_linear_344_379" x1="741.707" y1="137.473" x2="370.591" y2="630.189" gradientUnits="userSpaceOnUse">
<stop stop-color="#4F52FF"/>
<stop offset="1" stop-color="#4042E2"/>
</linearGradient>
<linearGradient id="paint3_linear_344_379" x1="631.771" y1="62.8391" x2="611.112" y2="225.676" gradientUnits="userSpaceOnUse">
<stop stop-color="#FF928E"/>
<stop offset="1" stop-color="#FE7062"/>
</linearGradient>
<linearGradient id="paint4_linear_344_379" x1="554.263" y1="316.301" x2="720.33" y2="215.841" gradientUnits="userSpaceOnUse">
<stop stop-color="#09005D"/>
<stop offset="1" stop-color="#1A0F91"/>
</linearGradient>
<linearGradient id="paint5_linear_344_379" x1="610.245" y1="316.26" x2="727.797" y2="218.756" gradientUnits="userSpaceOnUse">
<stop stop-color="#09005D"/>
<stop offset="1" stop-color="#1A0F91"/>
</linearGradient>
<linearGradient id="paint6_linear_344_379" x1="476.001" y1="561.454" x2="379.814" y2="664.105" gradientUnits="userSpaceOnUse">
<stop stop-color="#09005D"/>
<stop offset="1" stop-color="#1A0F91"/>
</linearGradient>
<linearGradient id="paint7_linear_344_379" x1="445.027" y1="568.85" x2="453.483" y2="568.931" gradientUnits="userSpaceOnUse">
<stop stop-color="#FEBBBA"/>
<stop offset="1" stop-color="#FF928E"/>
</linearGradient>
<linearGradient id="paint8_linear_344_379" x1="484.616" y1="444.407" x2="402.558" y2="553.443" gradientUnits="userSpaceOnUse">
<stop stop-color="#09005D"/>
<stop offset="1" stop-color="#1A0F91"/>
</linearGradient>
<linearGradient id="paint9_linear_344_379" x1="454.83" y1="541.612" x2="358.638" y2="644.268" gradientUnits="userSpaceOnUse">
<stop stop-color="#09005D"/>
<stop offset="1" stop-color="#1A0F91"/>
</linearGradient>
<linearGradient id="paint10_linear_344_379" x1="414.552" y1="568.126" x2="421.853" y2="568.195" gradientUnits="userSpaceOnUse">
<stop stop-color="#FEBBBA"/>
<stop offset="1" stop-color="#FF928E"/>
</linearGradient>
<linearGradient id="paint11_linear_344_379" x1="470.278" y1="433.617" x2="388.22" y2="542.652" gradientUnits="userSpaceOnUse">
<stop stop-color="#09005D"/>
<stop offset="1" stop-color="#1A0F91"/>
</linearGradient>
<linearGradient id="paint12_linear_344_379" x1="481.931" y1="348.555" x2="525.136" y2="348.966" gradientUnits="userSpaceOnUse">
<stop stop-color="#FEBBBA"/>
<stop offset="1" stop-color="#FF928E"/>
</linearGradient>
<linearGradient id="paint13_linear_344_379" x1="515.581" y1="341.633" x2="485.963" y2="407.319" gradientUnits="userSpaceOnUse">
<stop stop-color="#FEBBBA"/>
<stop offset="1" stop-color="#FF928E"/>
</linearGradient>
<linearGradient id="paint14_linear_344_379" x1="525.206" y1="319.755" x2="537.48" y2="301.271" gradientUnits="userSpaceOnUse">
<stop stop-color="#FEBBBA"/>
<stop offset="1" stop-color="#FF928E"/>
</linearGradient>
<linearGradient id="paint15_linear_344_379" x1="386.807" y1="408.851" x2="441.482" y2="409.37" gradientUnits="userSpaceOnUse">
<stop stop-color="#FEBBBA"/>
<stop offset="1" stop-color="#FF928E"/>
</linearGradient>
<linearGradient id="paint16_linear_344_379" x1="427.004" y1="378.659" x2="447.663" y2="338.557" gradientUnits="userSpaceOnUse">
<stop stop-color="#FEBBBA"/>
<stop offset="1" stop-color="#FF928E"/>
</linearGradient>
<linearGradient id="paint17_linear_344_379" x1="456.237" y1="337.302" x2="432.607" y2="322.58" gradientUnits="userSpaceOnUse">
<stop stop-color="#FEBBBA"/>
<stop offset="1" stop-color="#FF928E"/>
</linearGradient>
<linearGradient id="paint18_linear_344_379" x1="420.172" y1="307.179" x2="450.646" y2="331.722" gradientUnits="userSpaceOnUse">
<stop stop-color="#09005D"/>
<stop offset="1" stop-color="#1A0F91"/>
</linearGradient>
<linearGradient id="paint19_linear_344_379" x1="449.943" y1="342.648" x2="428.683" y2="329.403" gradientUnits="userSpaceOnUse">
<stop stop-color="#FEBBBA"/>
<stop offset="1" stop-color="#FF928E"/>
</linearGradient>
<linearGradient id="paint20_linear_344_379" x1="456.143" y1="374.11" x2="486.313" y2="499.817" gradientUnits="userSpaceOnUse">
<stop stop-color="#09005D"/>
<stop offset="1" stop-color="#1A0F91"/>
</linearGradient>
<linearGradient id="paint21_linear_344_379" x1="435.47" y1="407.366" x2="452.564" y2="407.366" gradientUnits="userSpaceOnUse">
<stop stop-color="#FEBBBA"/>
<stop offset="1" stop-color="#FF928E"/>
</linearGradient>
<linearGradient id="paint22_linear_344_379" x1="776.142" y1="308.542" x2="822.005" y2="382.045" gradientUnits="userSpaceOnUse">
<stop stop-color="#FEBBBA"/>
<stop offset="1" stop-color="#FF928E"/>
</linearGradient>
<linearGradient id="paint23_linear_344_379" x1="903.458" y1="301.777" x2="857.132" y2="332.664" gradientUnits="userSpaceOnUse">
<stop stop-color="#09005D"/>
<stop offset="1" stop-color="#1A0F91"/>
</linearGradient>
<linearGradient id="paint24_linear_344_379" x1="832.627" y1="359.388" x2="841.226" y2="340.292" gradientUnits="userSpaceOnUse">
<stop stop-color="#FEBBBA"/>
<stop offset="1" stop-color="#FF928E"/>
</linearGradient>
<linearGradient id="paint25_linear_344_379" x1="832.185" y1="312.98" x2="849.635" y2="350.76" gradientUnits="userSpaceOnUse">
<stop stop-color="#FEBBBA"/>
<stop offset="1" stop-color="#FF928E"/>
</linearGradient>
<linearGradient id="paint26_linear_344_379" x1="891.009" y1="283.105" x2="844.682" y2="313.992" gradientUnits="userSpaceOnUse">
<stop stop-color="#09005D"/>
<stop offset="1" stop-color="#1A0F91"/>
</linearGradient>
<linearGradient id="paint27_linear_344_379" x1="840.395" y1="309.188" x2="857.845" y2="346.967" gradientUnits="userSpaceOnUse">
<stop stop-color="#FEBBBA"/>
<stop offset="1" stop-color="#FF928E"/>
</linearGradient>
<linearGradient id="paint28_linear_344_379" x1="880.878" y1="597.196" x2="816.815" y2="481.563" gradientUnits="userSpaceOnUse">
<stop stop-color="#FEBBBA"/>
<stop offset="1" stop-color="#FF928E"/>
</linearGradient>
<linearGradient id="paint29_linear_344_379" x1="867.061" y1="556.397" x2="848.016" y2="556.216" gradientUnits="userSpaceOnUse">
<stop stop-color="#09005D"/>
<stop offset="1" stop-color="#1A0F91"/>
</linearGradient>
<linearGradient id="paint30_linear_344_379" x1="807.848" y1="511.41" x2="904.995" y2="543.495" gradientUnits="userSpaceOnUse">
<stop stop-color="#FEBBBA"/>
<stop offset="1" stop-color="#FF928E"/>
</linearGradient>
<linearGradient id="paint31_linear_344_379" x1="849.371" y1="559.669" x2="826.667" y2="559.453" gradientUnits="userSpaceOnUse">
<stop stop-color="#09005D"/>
<stop offset="1" stop-color="#1A0F91"/>
</linearGradient>
<linearGradient id="paint32_linear_344_379" x1="917.035" y1="389.792" x2="862.351" y2="431.717" gradientUnits="userSpaceOnUse">
<stop stop-color="#09005D"/>
<stop offset="1" stop-color="#1A0F91"/>
</linearGradient>
<linearGradient id="paint33_linear_344_379" x1="874.725" y1="418.799" x2="782.9" y2="282.651" gradientUnits="userSpaceOnUse">
<stop stop-color="#FEBBBA"/>
<stop offset="1" stop-color="#FF928E"/>
</linearGradient>
<linearGradient id="paint34_linear_344_379" x1="679.63" y1="534.785" x2="685.616" y2="557.976" gradientUnits="userSpaceOnUse">
<stop stop-color="#09005D"/>
<stop offset="1" stop-color="#1A0F91"/>
</linearGradient>
<linearGradient id="paint35_linear_344_379" x1="697.95" y1="547.541" x2="687.391" y2="545.204" gradientUnits="userSpaceOnUse">
<stop stop-color="#FEBBBA"/>
<stop offset="1" stop-color="#FF928E"/>
</linearGradient>
<linearGradient id="paint36_linear_344_379" x1="718.746" y1="522.836" x2="687.794" y2="450.015" gradientUnits="userSpaceOnUse">
<stop stop-color="#09005D"/>
<stop offset="1" stop-color="#1A0F91"/>
</linearGradient>
<linearGradient id="paint37_linear_344_379" x1="681.116" y1="557.222" x2="707.228" y2="613.408" gradientUnits="userSpaceOnUse">
<stop stop-color="#09005D"/>
<stop offset="1" stop-color="#1A0F91"/>
</linearGradient>
<linearGradient id="paint38_linear_344_379" x1="697.202" y1="571.699" x2="668.809" y2="565.415" gradientUnits="userSpaceOnUse">
<stop stop-color="#4F52FF"/>
<stop offset="1" stop-color="#4042E2"/>
</linearGradient>
<linearGradient id="paint39_linear_344_379" x1="703.428" y1="558.976" x2="693.518" y2="556.782" gradientUnits="userSpaceOnUse">
<stop stop-color="#FEBBBA"/>
<stop offset="1" stop-color="#FF928E"/>
</linearGradient>
<linearGradient id="paint40_linear_344_379" x1="727.984" y1="557.756" x2="744.121" y2="473.12" gradientUnits="userSpaceOnUse">
<stop stop-color="#09005D"/>
<stop offset="1" stop-color="#1A0F91"/>
</linearGradient>
<linearGradient id="paint41_linear_344_379" x1="759.527" y1="394.248" x2="662.012" y2="469.89" gradientUnits="userSpaceOnUse">
<stop stop-color="#FF928E"/>
<stop offset="1" stop-color="#FE7062"/>
</linearGradient>
<linearGradient id="paint42_linear_344_379" x1="690.849" y1="446.773" x2="656.28" y2="439.122" gradientUnits="userSpaceOnUse">
<stop stop-color="#FEBBBA"/>
<stop offset="1" stop-color="#FF928E"/>
</linearGradient>
<linearGradient id="paint43_linear_344_379" x1="742.723" y1="394.279" x2="719.787" y2="389.203" gradientUnits="userSpaceOnUse">
<stop stop-color="#FEBBBA"/>
<stop offset="1" stop-color="#FF928E"/>
</linearGradient>
<linearGradient id="paint44_linear_344_379" x1="653.035" y1="508.368" x2="745.993" y2="450.953" gradientUnits="userSpaceOnUse">
<stop stop-color="#FF928E"/>
<stop offset="1" stop-color="#FE7062"/>
</linearGradient>
<linearGradient id="paint45_linear_344_379" x1="760.936" y1="451.611" x2="852.025" y2="579.163" gradientUnits="userSpaceOnUse">
<stop stop-color="#FEBBBA"/>
<stop offset="1" stop-color="#FF928E"/>
</linearGradient>
<linearGradient id="paint46_linear_344_379" x1="730.027" y1="364.882" x2="718.504" y2="418.936" gradientUnits="userSpaceOnUse">
<stop stop-color="#FEBBBA"/>
<stop offset="1" stop-color="#FF928E"/>
</linearGradient>
<linearGradient id="paint47_linear_344_379" x1="745.962" y1="379.313" x2="723.003" y2="352.789" gradientUnits="userSpaceOnUse">
<stop stop-color="#09005D"/>
<stop offset="1" stop-color="#1A0F91"/>
</linearGradient>
<linearGradient id="paint48_linear_344_379" x1="734.561" y1="416.406" x2="737.417" y2="382.779" gradientUnits="userSpaceOnUse">
<stop stop-color="#FEBBBA"/>
<stop offset="1" stop-color="#FF928E"/>
</linearGradient>
<linearGradient id="paint49_linear_344_379" x1="732.204" y1="446.128" x2="686.831" y2="461.009" gradientUnits="userSpaceOnUse">
<stop stop-color="#09005D"/>
<stop offset="1" stop-color="#1A0F91"/>
</linearGradient>
<linearGradient id="paint50_linear_344_379" x1="669.875" y1="416.379" x2="637.2" y2="450.915" gradientUnits="userSpaceOnUse">
<stop stop-color="#09005D"/>
<stop offset="1" stop-color="#1A0F91"/>
</linearGradient>
</defs>
</svg>
