<svg width="679" height="645" viewBox="0 0 679 645" fill="none" xmlns="http://www.w3.org/2000/svg">
<g filter="url(#filter0_di_13_487)">
<rect width="655.72" height="616.77" rx="50" fill="#275EF2"/>
</g>
<path d="M220.045 296.359C208.938 296.359 198.682 293.639 189.275 288.199C179.868 282.646 172.388 275.166 166.835 265.759C161.395 256.353 158.675 246.096 158.675 234.989C158.675 223.883 161.395 213.626 166.835 204.219C172.388 194.813 179.868 187.389 189.275 181.949C198.682 176.396 208.938 173.619 220.045 173.619C231.152 173.619 241.408 176.396 250.815 181.949C260.222 187.389 267.645 194.813 273.085 204.219C278.638 213.626 281.415 223.883 281.415 234.989C281.415 246.096 278.638 256.353 273.085 265.759C267.645 275.166 260.222 282.646 250.815 288.199C241.408 293.639 231.152 296.359 220.045 296.359ZM220.045 274.089C227.072 274.089 233.588 272.333 239.595 268.819C245.602 265.306 250.362 260.546 253.875 254.539C257.388 248.533 259.145 242.016 259.145 234.989C259.145 227.963 257.388 221.446 253.875 215.439C250.362 209.433 245.602 204.673 239.595 201.159C233.588 197.646 227.072 195.889 220.045 195.889C213.018 195.889 206.445 197.646 200.325 201.159C194.318 204.673 189.558 209.433 186.045 215.439C182.532 221.446 180.775 227.963 180.775 234.989C180.775 242.016 182.532 248.533 186.045 254.539C189.558 260.546 194.318 265.306 200.325 268.819C206.445 272.333 213.018 274.089 220.045 274.089ZM364.433 175.149H386.703V254.029C386.703 262.303 384.72 269.669 380.753 276.129C376.787 282.476 371.347 287.463 364.433 291.089C357.52 294.603 349.7 296.359 340.973 296.359C332.247 296.359 324.427 294.603 317.513 291.089C310.6 287.463 305.16 282.476 301.193 276.129C297.227 269.669 295.243 262.303 295.243 254.029V175.149H317.513V254.029C317.513 260.149 319.723 265.079 324.143 268.819C328.677 272.446 334.287 274.259 340.973 274.259C348.113 274.259 353.78 272.446 357.973 268.819C362.28 265.193 364.433 260.263 364.433 254.029V175.149ZM474.992 294.149L451.702 253.009H429.602V294.149H407.332V175.149H455.612C462.638 175.149 469.155 176.906 475.162 180.419C481.168 183.819 485.872 188.523 489.272 194.529C492.785 200.536 494.542 207.053 494.542 214.079C494.542 221.333 492.728 227.963 489.102 233.969C485.475 239.976 480.602 244.679 474.482 248.079L500.322 294.149H474.992ZM429.602 196.229V231.759H455.612C460.485 231.759 464.678 230.059 468.192 226.659C471.705 223.146 473.462 218.953 473.462 214.079C473.462 209.093 471.705 204.899 468.192 201.499C464.792 197.986 460.598 196.229 455.612 196.229H429.602ZM120.472 492.359C108.799 492.359 98.9954 489.753 91.0621 484.539C83.1288 479.326 77.5754 472.299 74.4021 463.459L93.1021 452.409C97.7488 464.536 107.042 470.599 120.982 470.599C127.215 470.599 132.032 469.126 135.432 466.179C138.832 463.233 140.532 459.833 140.532 455.979C140.532 452.126 138.662 449.009 134.922 446.629C131.295 444.249 124.779 441.699 115.372 438.979C108.005 436.713 101.772 434.276 96.6721 431.669C91.5721 428.949 87.3788 425.323 84.0921 420.789C80.9188 416.256 79.3321 410.533 79.3321 403.619C79.3321 396.593 81.0888 390.473 84.6021 385.259C88.1154 379.933 92.7621 375.909 98.5421 373.189C104.435 370.356 110.839 368.939 117.752 368.939C127.385 368.939 135.715 371.263 142.742 375.909C149.882 380.443 155.379 386.846 159.232 395.119L140.192 405.999C135.772 395.913 128.292 390.869 117.752 390.869C112.992 390.869 109.082 392.116 106.022 394.609C102.962 397.103 101.432 400.049 101.432 403.449C101.432 406.056 102.112 408.266 103.472 410.079C104.945 411.893 107.212 413.536 110.272 415.009C113.445 416.483 118.035 418.126 124.042 419.939C131.862 422.433 138.435 425.039 143.762 427.759C149.202 430.479 153.679 434.276 157.192 439.149C160.819 443.909 162.632 449.916 162.632 457.169C162.632 464.309 160.819 470.543 157.192 475.869C153.565 481.196 148.522 485.276 142.062 488.109C135.715 490.943 128.519 492.359 120.472 492.359ZM253.193 371.149V392.229H220.383V490.149H198.283V392.229H165.643V371.149H253.193ZM315.421 492.359C304.314 492.359 294.058 489.639 284.651 484.199C275.244 478.646 267.764 471.166 262.211 461.759C256.771 452.353 254.051 442.096 254.051 430.989C254.051 419.883 256.771 409.626 262.211 400.219C267.764 390.813 275.244 383.389 284.651 377.949C294.058 372.396 304.314 369.619 315.421 369.619C326.528 369.619 336.784 372.396 346.191 377.949C355.598 383.389 363.021 390.813 368.461 400.219C374.014 409.626 376.791 419.883 376.791 430.989C376.791 442.096 374.014 452.353 368.461 461.759C363.021 471.166 355.598 478.646 346.191 484.199C336.784 489.639 326.528 492.359 315.421 492.359ZM315.421 470.089C322.448 470.089 328.964 468.333 334.971 464.819C340.978 461.306 345.738 456.546 349.251 450.539C352.764 444.533 354.521 438.016 354.521 430.989C354.521 423.963 352.764 417.446 349.251 411.439C345.738 405.433 340.978 400.673 334.971 397.159C328.964 393.646 322.448 391.889 315.421 391.889C308.394 391.889 301.821 393.646 295.701 397.159C289.694 400.673 284.934 405.433 281.421 411.439C277.908 417.446 276.151 423.963 276.151 430.989C276.151 438.016 277.908 444.533 281.421 450.539C284.934 456.546 289.694 461.306 295.701 464.819C301.821 468.333 308.394 470.089 315.421 470.089ZM459.469 490.149L436.179 449.009H414.079V490.149H391.809V371.149H440.089C447.116 371.149 453.633 372.906 459.639 376.419C465.646 379.819 470.349 384.523 473.749 390.529C477.263 396.536 479.019 403.053 479.019 410.079C479.019 417.333 477.206 423.963 473.579 429.969C469.953 435.976 465.079 440.679 458.959 444.079L484.799 490.149H459.469ZM414.079 392.229V427.759H440.089C444.963 427.759 449.156 426.059 452.669 422.659C456.183 419.146 457.939 414.953 457.939 410.079C457.939 405.093 456.183 400.899 452.669 397.499C449.269 393.986 445.076 392.229 440.089 392.229H414.079ZM532.429 421.979L561.159 371.149H586.319L543.479 447.649V490.149H521.209V447.309L478.369 371.149H503.529L532.429 421.979Z" fill="white"/>
<defs>
<filter id="filter0_di_13_487" x="0" y="0" width="679.72" height="644.77" filterUnits="userSpaceOnUse" color-interpolation-filters="sRGB">
<feFlood flood-opacity="0" result="BackgroundImageFix"/>
<feColorMatrix in="SourceAlpha" type="matrix" values="0 0 0 0 0 0 0 0 0 0 0 0 0 0 0 0 0 0 127 0" result="hardAlpha"/>
<feOffset dx="12" dy="17"/>
<feGaussianBlur stdDeviation="5.5"/>
<feComposite in2="hardAlpha" operator="out"/>
<feColorMatrix type="matrix" values="0 0 0 0 0 0 0 0 0 0 0 0 0 0 0 0 0 0 0.25 0"/>
<feBlend mode="normal" in2="BackgroundImageFix" result="effect1_dropShadow_13_487"/>
<feBlend mode="normal" in="SourceGraphic" in2="effect1_dropShadow_13_487" result="shape"/>
<feColorMatrix in="SourceAlpha" type="matrix" values="0 0 0 0 0 0 0 0 0 0 0 0 0 0 0 0 0 0 127 0" result="hardAlpha"/>
<feOffset dx="24" dy="4"/>
<feGaussianBlur stdDeviation="15"/>
<feComposite in2="hardAlpha" operator="arithmetic" k2="-1" k3="1"/>
<feColorMatrix type="matrix" values="0 0 0 0 0 0 0 0 0 0 0 0 0 0 0 0 0 0 0.25 0"/>
<feBlend mode="normal" in2="shape" result="effect2_innerShadow_13_487"/>
</filter>
</defs>
</svg>
