<svg width="154" height="148" viewBox="0 0 154 148" fill="none" xmlns="http://www.w3.org/2000/svg">
<path d="M69.1015 31.3137C68.3476 31.3137 67.9456 30.9921 67.6222 30.7343C67.3303 30.5009 67.0999 30.3168 66.606 30.3168C66.1126 30.3168 65.8821 30.5009 65.5906 30.7343C65.2675 30.9925 64.866 31.3137 64.1124 31.3137C63.3596 31.3137 62.9581 30.9921 62.6354 30.7339C62.3442 30.5009 62.1141 30.3168 61.621 30.3168C61.1276 30.3168 60.8975 30.5009 60.606 30.7339C60.2829 30.9921 59.8813 31.3137 59.1282 31.3137C58.3754 31.3137 57.9735 30.9921 57.6508 30.7339C57.3592 30.5009 57.1292 30.3168 56.6361 30.3168C56.143 30.3168 55.9126 30.5009 55.6214 30.7339C55.2987 30.9921 54.8967 31.3137 54.144 31.3137C53.3908 31.3137 52.9892 30.9921 52.6665 30.7339C52.375 30.5009 52.1449 30.3168 51.6518 30.3168C51.1591 30.3168 50.9291 30.5009 50.6379 30.7339C50.3152 30.9921 49.9136 31.3137 49.1608 31.3137C48.4077 31.3137 48.0057 30.9921 47.683 30.7339C47.3915 30.5009 47.1614 30.3168 46.668 30.3168V29.5758C47.4211 29.5758 47.8231 29.8974 48.1458 30.1556C48.4373 30.3886 48.6674 30.5731 49.1608 30.5731C49.6535 30.5731 49.8836 30.389 50.1748 30.1556C50.4975 29.8974 50.899 29.5758 51.6518 29.5758C52.405 29.5758 52.8066 29.8974 53.1292 30.1556C53.4208 30.3886 53.6509 30.5731 54.144 30.5731C54.637 30.5731 54.8671 30.389 55.1583 30.1556C55.4813 29.8974 55.8829 29.5758 56.6361 29.5758C57.3892 29.5758 57.7908 29.8974 58.1139 30.1556C58.405 30.3886 58.6355 30.5731 59.1282 30.5731C59.6213 30.5731 59.8517 30.389 60.1433 30.1556C60.4663 29.8974 60.8679 29.5758 61.621 29.5758C62.3738 29.5758 62.7758 29.8974 63.0985 30.1556C63.3897 30.3886 63.6197 30.5731 64.1124 30.5731C64.6059 30.5731 64.8363 30.389 65.1279 30.1556C65.4509 29.8974 65.8529 29.5758 66.606 29.5758C67.3596 29.5758 67.7619 29.8974 68.0849 30.1552C68.3769 30.3883 68.6077 30.5727 69.1015 30.5727C69.5953 30.5727 69.8261 30.3883 70.118 30.1552C70.4411 29.897 70.8434 29.5758 71.5969 29.5758V30.3168C71.1031 30.3168 70.8727 30.5009 70.5807 30.7343C70.2573 30.9921 69.855 31.3137 69.1015 31.3137Z" fill="#FEFEFE"/>
<path d="M138.016 123.078C137.262 123.078 136.86 122.756 136.537 122.498C136.245 122.265 136.014 122.081 135.521 122.081C135.027 122.081 134.797 122.265 134.505 122.498C134.182 122.756 133.78 123.078 133.027 123.078C132.275 123.078 131.873 122.756 131.55 122.498C131.259 122.265 131.029 122.081 130.536 122.081C130.042 122.081 129.812 122.265 129.521 122.498C129.198 122.756 128.796 123.078 128.043 123.078C127.29 123.078 126.889 122.756 126.566 122.498C126.274 122.265 126.044 122.081 125.551 122.081C125.058 122.081 124.828 122.265 124.537 122.498C124.214 122.756 123.812 123.078 123.059 123.078C122.306 123.078 121.904 122.756 121.582 122.498C121.291 122.265 121.06 122.081 120.567 122.081C120.075 122.081 119.845 122.265 119.553 122.498C119.23 122.756 118.829 123.078 118.076 123.078C117.323 123.078 116.922 122.756 116.599 122.498C116.307 122.265 116.077 122.081 115.584 122.081V121.34C116.337 121.34 116.739 121.661 117.061 121.919C117.353 122.152 117.583 122.337 118.076 122.337C118.569 122.337 118.799 122.152 119.09 121.919C119.413 121.661 119.814 121.34 120.567 121.34C121.32 121.34 121.722 121.661 122.045 121.919C122.336 122.152 122.567 122.337 123.059 122.337C123.552 122.337 123.783 122.152 124.074 121.919C124.397 121.661 124.799 121.34 125.551 121.34C126.304 121.34 126.706 121.661 127.029 121.919C127.32 122.152 127.55 122.337 128.043 122.337C128.537 122.337 128.767 122.152 129.058 121.919C129.381 121.661 129.783 121.34 130.536 121.34C131.289 121.34 131.691 121.661 132.013 121.919C132.304 122.152 132.534 122.337 133.027 122.337C133.52 122.337 133.751 122.152 134.042 121.919C134.365 121.661 134.767 121.34 135.521 121.34C136.274 121.34 136.676 121.661 136.999 121.919C137.291 122.152 137.522 122.337 138.016 122.337C138.51 122.337 138.741 122.152 139.032 121.919C139.356 121.661 139.758 121.34 140.511 121.34V122.081C140.017 122.081 139.787 122.265 139.495 122.498C139.172 122.756 138.77 123.078 138.016 123.078Z" fill="#FEFEFE"/>
<path d="M64.7881 99.5648C64.7881 99.5648 50.9916 117.771 89.2162 135.156C90.1098 115.657 79.3426 93.6896 64.7881 99.5648Z" fill="#1C98B2"/>
<path d="M66.6919 113.373C66.0013 109.638 65.8398 105.842 66.1084 102.058C67.7421 104.13 69.3422 106.226 70.92 108.34C71.3112 114.627 72.4496 120.977 74.6854 126.891C74.8514 127.013 75.0233 127.136 75.1937 127.259C72.9131 121.403 71.7324 115.105 71.3016 108.851C73.5781 111.913 75.8027 115.012 77.9937 118.138C78.5356 122.591 79.7737 127.016 81.4164 131.209C81.5698 131.297 81.7305 131.385 81.8876 131.471C80.2639 127.398 79.0228 123.093 78.4304 118.76C82.0991 124.008 85.6734 129.325 89.2339 134.647C89.241 134.449 89.2465 134.251 89.2517 134.053C85.8053 128.905 82.344 123.764 78.7953 118.685C82.1473 120.842 85.6141 122.858 88.726 125.351C88.7019 125.184 88.6779 125.017 88.6534 124.85C85.3833 122.28 81.7461 120.206 78.2685 117.931C76.0995 114.838 73.8978 111.768 71.6457 108.738C77.1134 111.455 82.5207 114.119 87.1804 118.096C87.1234 117.897 87.0634 117.698 87.0034 117.499C82.2399 113.544 76.7304 110.884 71.1849 108.124C69.6097 106.014 68.0133 103.923 66.3844 101.855C69.4926 102.441 72.5323 103.585 75.4608 104.734C77.9959 105.726 80.5721 106.796 82.9679 108.138C82.8471 107.936 82.7256 107.738 82.6019 107.539C80.3565 106.335 77.9707 105.354 75.6205 104.426C72.5408 103.209 69.3303 102.002 66.0532 101.439C65.5975 100.864 65.1385 100.289 64.6791 99.7174C64.6276 99.793 64.5621 99.893 64.4824 100.021C64.9207 100.565 65.3575 101.11 65.7913 101.659C65.489 105.449 65.6401 109.226 66.2714 112.975C66.7437 115.767 67.4728 118.506 68.2923 121.218C68.4683 121.412 68.6483 121.604 68.8332 121.8C67.9829 119.026 67.2179 116.227 66.6919 113.373Z" fill="#363970"/>
<path d="M72.2152 100.407H9.37695V144.01H72.2152V100.407Z" fill="#FEFEFE" stroke="#343B72" stroke-width="2" stroke-miterlimit="10"/>
<mask id="mask0_646_165" style="mask-type:luminance" maskUnits="userSpaceOnUse" x="9" y="88" width="73" height="60">
<mask id="mask1_646_165" style="mask-type:luminance" maskUnits="userSpaceOnUse" x="9" y="88" width="73" height="60">
<path d="M69.9886 88.9115L9.26172 105.067L20.472 147.205L81.1989 131.049L69.9886 88.9115Z" fill="white"/>
</mask>
<g mask="url(#mask1_646_165)">
<path d="M69.9886 88.9115L9.26172 105.067L20.472 147.205L81.1989 131.049L69.9886 88.9115Z" fill="white"/>
</g>
</mask>
<g mask="url(#mask0_646_165)">
<path d="M47.0219 58.0135L-12.5938 73.8736L7.21087 148.316L66.8265 132.456L47.0219 58.0135Z" fill="#363970"/>
</g>
<mask id="mask2_646_165" style="mask-type:luminance" maskUnits="userSpaceOnUse" x="9" y="100" width="64" height="45">
<mask id="mask3_646_165" style="mask-type:luminance" maskUnits="userSpaceOnUse" x="9" y="100" width="64" height="45">
<path d="M72.2133 100.407H9.375V144.01H72.2133V100.407Z" fill="white"/>
</mask>
<g mask="url(#mask3_646_165)">
<path d="M72.2133 100.407H9.375V144.01H72.2133V100.407Z" fill="white"/>
</g>
</mask>
<g mask="url(#mask2_646_165)">
<path d="M8.37276 91.346L4.45877 76.6339L9.60226 75.2655C10.6271 74.9929 11.5196 74.9452 12.2795 75.1225C13.0382 75.295 13.6594 75.6348 14.143 76.1421C14.6254 76.6445 14.9621 77.2549 15.1533 77.9732C15.3214 78.6054 15.3478 79.1574 15.2322 79.6291C15.1215 80.0996 14.916 80.5029 14.6158 80.8392C14.3203 81.1742 13.9771 81.4553 13.5862 81.6823L13.6245 81.826C14.0823 81.735 14.5769 81.7726 15.1083 81.9389C15.6397 82.1052 16.13 82.4158 16.5792 82.8706C17.0284 83.3255 17.3562 83.9408 17.5626 84.7167C17.7588 85.4542 17.7677 86.1621 17.5892 86.8403C17.4106 87.5186 17.0057 88.1263 16.3742 88.6635C15.7428 89.2007 14.8476 89.6234 13.6887 89.9318L8.37276 91.346ZM9.73386 89.2916L13.2682 88.3514C14.432 88.0418 15.1982 87.5969 15.5669 87.0168C15.9392 86.4306 16.0393 85.8142 15.8673 85.1677C15.7348 84.6696 15.4856 84.2436 15.1196 83.8897C14.7524 83.531 14.3004 83.2872 13.7635 83.1582C13.2254 83.0245 12.6354 83.0429 11.9937 83.2137L8.37314 84.1769L9.73386 89.2916ZM7.96033 82.6252L11.2648 81.7461C11.8012 81.6034 12.2569 81.3694 12.6318 81.044C13.0116 80.7173 13.2774 80.3286 13.4293 79.878C13.586 79.4261 13.5955 78.9415 13.4579 78.4243C13.2859 77.7777 12.9149 77.2893 12.345 76.9589C11.7738 76.6237 10.9997 76.586 10.0227 76.8459L6.66076 77.7403L7.96033 82.6252ZM27.2705 70.5651L29.052 70.0911L31.6435 79.8322C31.9111 80.8379 31.9129 81.7989 31.649 82.7152C31.3886 83.6255 30.8903 84.4222 30.1541 85.1052C29.4166 85.7834 28.4708 86.2761 27.3166 86.5831C26.1624 86.8902 25.0968 86.9327 24.1198 86.7105C23.1415 86.4836 22.3109 86.0405 21.6278 85.3813C20.9482 84.7159 20.4747 83.8804 20.2071 82.8747L17.6156 73.1337L19.3972 72.6597L21.9504 82.2571C22.1416 82.9754 22.4697 83.5727 22.9348 84.049C23.3987 84.5204 23.9655 84.8388 24.6351 85.0043C25.3083 85.1636 26.0543 85.1344 26.8732 84.9165C27.6922 84.6987 28.3541 84.3533 28.8591 83.8805C29.3628 83.4029 29.6964 82.845 29.8599 82.2066C30.0269 81.5622 30.0148 80.8808 29.8237 80.1625L27.2705 70.5651ZM41.6339 70.6822C41.354 69.9772 40.8541 69.5051 40.1341 69.2659C39.414 69.0267 38.6086 69.0256 37.7179 69.2626C37.0665 69.4358 36.5247 69.6928 36.0922 70.0335C35.6646 70.3729 35.3633 70.7633 35.1885 71.2047C35.0184 71.6448 34.9958 72.0995 35.1206 72.5688C35.2251 72.9615 35.4083 73.2743 35.6703 73.5072C35.9357 73.734 36.2418 73.9013 36.5884 74.0091C36.9337 74.1121 37.2851 74.1801 37.6427 74.2132C37.9989 74.2415 38.3231 74.2553 38.6151 74.2545L40.2164 74.2592C40.6263 74.2579 41.0894 74.2834 41.6059 74.3357C42.1272 74.3868 42.6441 74.5082 43.1566 74.7001C43.6727 74.8858 44.1351 75.1782 44.5438 75.5771C44.9525 75.9761 45.2486 76.5204 45.432 77.21C45.6435 78.005 45.6263 78.7788 45.3804 79.5314C45.1393 80.2827 44.6715 80.9533 43.9772 81.5431C43.2876 82.1317 42.3777 82.5763 41.2475 82.877C40.1939 83.1573 39.2364 83.23 38.3749 83.0951C37.5181 82.9589 36.7886 82.6453 36.1862 82.1543C35.5886 81.662 35.154 81.0213 34.8825 80.232L36.7215 79.7427C36.9172 80.2855 37.2263 80.6956 37.6487 80.9729C38.0748 81.2442 38.5628 81.4015 39.1128 81.445C39.6663 81.4823 40.2352 81.4233 40.8194 81.2678C41.4995 81.0869 42.0808 80.8143 42.5633 80.45C43.0446 80.081 43.3904 79.6557 43.6008 79.1741C43.8098 78.6877 43.843 78.1763 43.7003 77.6399C43.5704 77.1515 43.3281 76.7903 42.9736 76.5564C42.6191 76.3225 42.1936 76.169 41.6973 76.096C41.2009 76.0229 40.675 75.9833 40.1196 75.9772L38.1717 75.9416C36.9344 75.917 35.899 75.6873 35.0654 75.2527C34.2319 74.818 33.6832 74.1051 33.4195 73.1137C33.2003 72.29 33.2319 71.5124 33.5142 70.7809C33.8 70.0433 34.2761 69.4039 34.9423 68.8625C35.612 68.3151 36.4162 67.9166 37.3549 67.6669C38.3031 67.4146 39.1912 67.3604 40.0192 67.5042C40.8459 67.6432 41.5525 67.9475 42.139 68.4171C42.7302 68.8855 43.1366 69.4876 43.358 70.2235L41.6339 70.6822ZM47.2913 65.2388L51.2053 79.9509L49.4238 80.4249L45.5098 65.7127L47.2913 65.2388ZM22.5525 97.6902L26.4665 112.402L24.7424 112.861L13.6524 103.443L13.5087 103.481L16.5818 115.032L14.8003 115.506L10.8863 100.794L12.6103 100.335L23.7368 109.775L23.8805 109.737L20.7997 98.1565L22.5525 97.6902ZM30.0314 111.454L26.1174 96.7418L34.9964 94.3797L35.4169 95.9601L28.3194 97.8483L29.6419 102.819L36.2796 101.053L36.7001 102.634L30.0624 104.4L31.3925 109.4L38.6049 107.481L39.0253 109.061L30.0314 111.454ZM47.2317 95.0629C46.9518 94.3579 46.4519 93.8858 45.7319 93.6466C45.0118 93.4074 44.2064 93.4063 43.3156 93.6433C42.6643 93.8166 42.1225 94.0735 41.69 94.4142C41.2624 94.7536 40.9611 95.144 40.7863 95.5854C40.6162 96.0255 40.5936 96.4802 40.7184 96.9496C40.8229 97.3423 41.0061 97.6551 41.2681 97.8879C41.5335 98.1147 41.8396 98.282 42.1862 98.3898C42.5315 98.4928 42.8829 98.5608 43.2404 98.5939C43.5967 98.6222 43.9208 98.636 44.2129 98.6352L45.8142 98.64C46.224 98.6386 46.6872 98.6641 47.2037 98.7164C47.725 98.7675 48.2419 98.889 48.7544 99.0808C49.2705 99.2666 49.7329 99.5589 50.1416 99.9579C50.5503 100.357 50.8464 100.901 51.0298 101.591C51.2413 102.386 51.2241 103.16 50.9782 103.912C50.737 104.663 50.2693 105.334 49.575 105.924C48.8854 106.512 47.9755 106.957 46.8453 107.258C45.7917 107.538 44.8341 107.611 43.9726 107.476C43.1159 107.34 42.3864 107.026 41.784 106.535C41.1863 106.043 40.7518 105.402 40.4803 104.613L42.3193 104.123C42.515 104.666 42.824 105.076 43.2465 105.354C43.6725 105.625 44.1605 105.782 44.7105 105.826C45.264 105.863 45.8329 105.804 46.4172 105.649C47.0973 105.468 47.6786 105.195 48.1611 104.831C48.6424 104.462 48.9882 104.036 49.1986 103.555C49.4076 103.068 49.4408 102.557 49.2981 102.021C49.1681 101.532 48.9259 101.171 48.5714 100.937C48.2169 100.703 47.7914 100.55 47.2951 100.477C46.7987 100.404 46.2728 100.364 45.7174 100.358L43.7695 100.322C42.5322 100.298 41.4968 100.068 40.6632 99.6334C39.8297 99.1988 39.281 98.4858 39.0173 97.4944C38.7981 96.6707 38.8297 95.8931 39.112 95.1616C39.3978 94.4241 39.8739 93.7846 40.5401 93.2433C41.2098 92.6959 42.014 92.2973 42.9527 92.0476C43.9009 91.7953 44.789 91.7411 45.617 91.8849C46.4437 92.024 47.1503 92.3283 47.7368 92.7979C48.328 93.2662 48.7343 93.8683 48.9558 94.6043L47.2317 95.0629ZM60.1317 91.631C59.8519 90.926 59.3519 90.4539 58.6319 90.2147C57.9119 89.9755 57.1065 89.9744 56.2157 90.2114C55.5644 90.3847 55.0225 90.6416 54.5901 90.9823C54.1624 91.3217 53.8612 91.7121 53.6863 92.1535C53.5162 92.5936 53.4936 93.0483 53.6185 93.5177C53.7229 93.9104 53.9062 94.2231 54.1681 94.456C54.4336 94.6828 54.7396 94.8501 55.0862 94.9579C55.4316 95.0609 55.783 95.1289 56.1405 95.162C56.4967 95.1903 56.8209 95.2041 57.113 95.2033L58.7142 95.2081C59.1241 95.2067 59.5873 95.2322 60.1037 95.2845C60.625 95.3356 61.1419 95.457 61.6545 95.6489C62.1705 95.8346 62.6329 96.127 63.0416 96.526C63.4503 96.9249 63.7464 97.4692 63.9299 98.1588C64.1414 98.9538 64.1242 99.7276 63.8782 100.48C63.6371 101.232 63.1694 101.902 62.475 102.492C61.7855 103.08 60.8756 103.525 59.7453 103.826C58.6917 104.106 57.7342 104.179 56.8727 104.044C56.016 103.908 55.2864 103.594 54.684 103.103C54.0864 102.611 53.6518 101.97 53.3803 101.181L55.2193 100.692C55.415 101.234 55.7241 101.644 56.1466 101.922C56.5726 102.193 57.0606 102.35 57.6106 102.394C58.1641 102.431 58.733 102.372 59.3173 102.217C59.9973 102.036 60.5786 101.763 61.0612 101.399C61.5425 101.03 61.8883 100.604 62.0986 100.123C62.3077 99.6365 62.3408 99.1251 62.1981 98.5888C62.0682 98.1003 61.8259 97.7391 61.4714 97.5052C61.1169 97.2713 60.6915 97.1179 60.1951 97.0448C59.6988 96.9717 59.1729 96.9321 58.6174 96.9261L56.6695 96.8904C55.4322 96.8658 54.3968 96.6361 53.5633 96.2015C52.7297 95.7669 52.1811 95.0539 51.9173 94.0625C51.6982 93.2388 51.7298 92.4612 52.0121 91.7297C52.2979 90.9921 52.7739 90.3527 53.4401 89.8114C54.1099 89.264 54.914 88.8654 55.8527 88.6157C56.801 88.3634 57.6891 88.3092 58.517 88.453C59.3438 88.592 60.0503 88.8964 60.6368 89.366C61.228 89.8343 61.6344 90.4364 61.8558 91.1724L60.1317 91.631ZM25.7678 138.458L21.2278 139.666L17.3138 124.954L22.055 123.693C23.4821 123.313 24.7817 123.283 25.9537 123.601C27.1244 123.916 28.1263 124.549 28.9592 125.502C29.7909 126.45 30.4093 127.685 30.8144 129.208C31.2221 130.741 31.3002 132.133 31.0485 133.384C30.7956 134.631 30.2261 135.69 29.3401 136.562C28.4528 137.429 27.262 138.061 25.7678 138.458ZM22.5889 137.612L25.2324 136.908C26.4489 136.585 27.3946 136.082 28.0695 135.4C28.7444 134.718 29.1629 133.891 29.325 132.92C29.4871 131.948 29.4089 130.864 29.0904 129.667C28.7744 128.479 28.3084 127.508 27.6924 126.754C27.0752 125.995 26.3199 125.489 25.4265 125.234C24.5319 124.975 23.5099 124.998 22.3605 125.304L19.5158 126.06L22.5889 137.612ZM35.7675 135.798L31.8535 121.086L40.7325 118.724L41.1529 120.304L34.0555 122.192L35.378 127.163L42.0157 125.397L42.4361 126.978L35.7984 128.744L37.1286 133.744L44.341 131.825L44.7614 133.405L35.7675 135.798ZM48.461 132.421L46.5932 132.918L48.0814 116.769L49.9204 116.279L59.2365 129.554L57.3687 130.051L49.6775 118.836L49.5626 118.867L48.461 132.421ZM47.6217 126.491L55.1502 124.488L55.5706 126.068L48.0422 128.071L47.6217 126.491ZM61.5281 128.945L57.6141 114.232L59.3956 113.758L62.8892 126.89L69.728 125.071L70.1484 126.651L61.5281 128.945Z" fill="#FEFEFE"/>
</g>
<mask id="mask4_646_165" style="mask-type:luminance" maskUnits="userSpaceOnUse" x="8" y="89" width="72" height="59">
<mask id="mask5_646_165" style="mask-type:luminance" maskUnits="userSpaceOnUse" x="8" y="89" width="72" height="59">
<path d="M68.7543 89.4391L8.02734 105.595L19.2376 147.732L79.9645 131.577L68.7543 89.4391Z" fill="white"/>
</mask>
<g mask="url(#mask5_646_165)">
<path d="M68.7543 89.4391L8.02734 105.595L19.2376 147.732L79.9645 131.577L68.7543 89.4391Z" fill="white"/>
</g>
</mask>
<g mask="url(#mask4_646_165)">
<path d="M46.1133 72.6982L-4.36719 86.1279L10.9185 143.584L61.3989 130.155L46.1133 72.6982Z" fill="#D9F5FF"/>
</g>
<mask id="mask6_646_165" style="mask-type:luminance" maskUnits="userSpaceOnUse" x="9" y="100" width="64" height="45">
<mask id="mask7_646_165" style="mask-type:luminance" maskUnits="userSpaceOnUse" x="9" y="100" width="64" height="45">
<path d="M72.2133 100.407H9.375V144.01H72.2133V100.407Z" fill="white"/>
</mask>
<g mask="url(#mask7_646_165)">
<path d="M72.2133 100.407H9.375V144.01H72.2133V100.407Z" fill="white"/>
</g>
</mask>
<g mask="url(#mask6_646_165)">
<path d="M46.675 90.8678L3.95926 102.235L3.62695 100.986L46.4227 89.9187L46.675 90.8678Z" fill="#363970"/>
</g>
<mask id="mask8_646_165" style="mask-type:luminance" maskUnits="userSpaceOnUse" x="9" y="100" width="64" height="45">
<mask id="mask9_646_165" style="mask-type:luminance" maskUnits="userSpaceOnUse" x="9" y="100" width="64" height="45">
<path d="M72.2133 100.407H9.375V144.01H72.2133V100.407Z" fill="white"/>
</mask>
<g mask="url(#mask9_646_165)">
<path d="M72.2133 100.407H9.375V144.01H72.2133V100.407Z" fill="white"/>
</g>
</mask>
<g mask="url(#mask8_646_165)">
<path d="M47.7489 94.9044L5.03385 106.272L4.70117 105.023L47.5436 93.9367L47.7489 94.9044Z" fill="#363970"/>
</g>
<mask id="mask10_646_165" style="mask-type:luminance" maskUnits="userSpaceOnUse" x="9" y="100" width="64" height="45">
<mask id="mask11_646_165" style="mask-type:luminance" maskUnits="userSpaceOnUse" x="9" y="100" width="64" height="45">
<path d="M72.2133 100.407H9.375V144.01H72.2133V100.407Z" fill="white"/>
</mask>
<g mask="url(#mask11_646_165)">
<path d="M72.2133 100.407H9.375V144.01H72.2133V100.407Z" fill="white"/>
</g>
</mask>
<g mask="url(#mask10_646_165)">
<path d="M48.7532 98.6798L6.03711 110.046L6.25716 108.982L48.4209 97.4306L48.7532 98.6798Z" fill="#363970"/>
</g>
<mask id="mask12_646_165" style="mask-type:luminance" maskUnits="userSpaceOnUse" x="9" y="100" width="64" height="45">
<mask id="mask13_646_165" style="mask-type:luminance" maskUnits="userSpaceOnUse" x="9" y="100" width="64" height="45">
<path d="M72.2133 100.407H9.375V144.01H72.2133V100.407Z" fill="white"/>
</mask>
<g mask="url(#mask13_646_165)">
<path d="M72.2133 100.407H9.375V144.01H72.2133V100.407Z" fill="white"/>
</g>
</mask>
<g mask="url(#mask12_646_165)">
<path d="M49.8258 102.717L7.10965 114.083L6.77734 112.834L48.8729 101.633L49.8258 102.717Z" fill="#363970"/>
</g>
<mask id="mask14_646_165" style="mask-type:luminance" maskUnits="userSpaceOnUse" x="9" y="100" width="64" height="45">
<mask id="mask15_646_165" style="mask-type:luminance" maskUnits="userSpaceOnUse" x="9" y="100" width="64" height="45">
<path d="M72.2133 100.407H9.375V144.01H72.2133V100.407Z" fill="white"/>
</mask>
<g mask="url(#mask15_646_165)">
<path d="M72.2133 100.407H9.375V144.01H72.2133V100.407Z" fill="white"/>
</g>
</mask>
<g mask="url(#mask14_646_165)">
<path d="M50.8242 106.464L8.1077 117.83L7.77539 116.581L50.5956 105.606L50.8242 106.464Z" fill="#363970"/>
</g>
<mask id="mask16_646_165" style="mask-type:luminance" maskUnits="userSpaceOnUse" x="9" y="100" width="64" height="45">
<mask id="mask17_646_165" style="mask-type:luminance" maskUnits="userSpaceOnUse" x="9" y="100" width="64" height="45">
<path d="M72.2133 100.407H9.375V144.01H72.2133V100.407Z" fill="white"/>
</mask>
<g mask="url(#mask17_646_165)">
<path d="M72.2133 100.407H9.375V144.01H72.2133V100.407Z" fill="white"/>
</g>
</mask>
<g mask="url(#mask16_646_165)">
<path d="M51.8992 110.501L9.18271 121.867L8.99414 121.159L51.5665 109.251L51.8992 110.501Z" fill="#363970"/>
</g>
<mask id="mask18_646_165" style="mask-type:luminance" maskUnits="userSpaceOnUse" x="9" y="100" width="64" height="45">
<mask id="mask19_646_165" style="mask-type:luminance" maskUnits="userSpaceOnUse" x="9" y="100" width="64" height="45">
<path d="M72.2133 100.407H9.375V144.01H72.2133V100.407Z" fill="white"/>
</mask>
<g mask="url(#mask19_646_165)">
<path d="M72.2133 100.407H9.375V144.01H72.2133V100.407Z" fill="white"/>
</g>
</mask>
<g mask="url(#mask18_646_165)">
<path d="M56.2895 126.045L37.651 131.005L37.3184 129.756L55.6397 125.296L56.2895 126.045Z" fill="#363970"/>
</g>
<mask id="mask20_646_165" style="mask-type:luminance" maskUnits="userSpaceOnUse" x="9" y="100" width="64" height="45">
<mask id="mask21_646_165" style="mask-type:luminance" maskUnits="userSpaceOnUse" x="9" y="100" width="64" height="45">
<path d="M72.2133 100.407H9.375V144.01H72.2133V100.407Z" fill="white"/>
</mask>
<g mask="url(#mask21_646_165)">
<path d="M72.2133 100.407H9.375V144.01H72.2133V100.407Z" fill="white"/>
</g>
</mask>
<g mask="url(#mask20_646_165)">
<path d="M52.428 120.993C51.6422 121.68 48.6281 125.044 47.9387 122.518C47.8368 122.144 47.2989 122.32 47.1318 122.599C46.2986 123.987 44.9468 124.631 44.9179 122.987C44.9101 122.528 44.5034 121.861 44.35 122.303C44.0588 123.142 43.6709 123.887 43.1412 124.605C42.4643 125.522 41.9023 125.369 41.5919 124.813C42.388 123.763 43.0526 122.637 43.5576 121.734C43.8691 121.177 45.6777 116.146 43.0756 117.207C41.0814 118.02 39.747 122.548 40.7083 125.122C39.8107 126.229 38.3885 126.901 37.097 127.052C36.4958 127.122 36.5791 128.057 37.18 127.987C38.5581 127.826 39.7888 126.897 40.838 125.729C41.8064 127.409 43.5768 125.629 44.5797 123.967C45.1591 125.231 46.552 124.862 47.5964 123.543C49.1331 124.871 51.7704 122.81 52.9777 121.752C53.429 121.359 52.884 120.594 52.428 120.993ZM42.0935 120.289C42.215 119.914 43.8476 116.987 43.991 118.326C44.1614 119.916 42.3595 122.673 41.4441 123.909C41.4485 123.845 41.3492 123.343 41.3581 123.281C41.4985 122.267 41.7786 121.26 42.0935 120.289Z" fill="#363970"/>
<path d="M49.9404 120.235C50.1938 120.14 50.2872 119.876 50.2157 119.631C50.2457 119.734 50.2223 119.584 50.2197 119.623C50.2212 119.602 50.2216 119.593 50.2223 119.585C50.3972 119.439 50.4116 119.146 50.2853 118.971C50.1234 118.748 49.8522 118.74 49.6303 118.866C49.2702 119.071 49.2347 119.606 49.3369 119.96C49.408 120.205 49.7148 120.319 49.9404 120.235Z" fill="#363970"/>
</g>
<path d="M72.2133 100.407H9.375V144.01H72.2133V100.407Z" stroke="#343B72" stroke-width="2" stroke-miterlimit="10"/>
<path d="M88.9588 55.0486C88.9588 55.0486 102.755 36.8425 64.5304 19.4573C63.6364 38.9564 74.404 60.9242 88.9588 55.0486Z" fill="#1661A4"/>
<path d="M87.054 41.241C87.7442 44.9761 87.9057 48.7718 87.6371 52.5554C86.0033 50.4841 84.4037 48.3877 82.8255 46.2742C82.4347 39.9866 81.2958 33.6369 79.0601 27.722C78.8945 27.6001 78.7222 27.4775 78.5522 27.3549C80.8328 33.2105 82.0131 39.508 82.4443 45.7626C80.1674 42.7007 77.9431 39.601 75.7518 36.4754C75.2098 32.0227 73.9718 27.5979 72.3291 23.4042C72.1757 23.3168 72.015 23.2286 71.8582 23.1423C73.482 27.2152 74.7231 31.52 75.3154 35.8534C71.6467 30.6046 68.0725 25.2881 64.5119 19.9663C64.5049 20.1649 64.4993 20.3623 64.4941 20.5602C67.9406 25.7089 71.4018 30.8495 74.9505 35.9293C71.5986 33.7713 68.1317 31.7553 65.0198 29.2628C65.0439 29.4295 65.068 29.5958 65.0924 29.7633C68.3625 32.3328 72.0001 34.4074 75.4773 36.6821C77.6464 39.7751 79.8481 42.8448 82.0998 45.8752C76.6324 43.1582 71.2248 40.4938 66.5654 36.5176C66.6225 36.7169 66.6825 36.9158 66.7421 37.1144C71.5056 41.0691 77.0151 43.7302 82.5606 46.4898C84.1358 48.5996 85.7318 50.6908 87.3615 52.7588C84.2529 52.1731 81.2132 51.0291 78.2851 49.8806C75.75 48.8878 73.1738 47.8175 70.7776 46.4761C70.8984 46.678 71.0199 46.8765 71.144 47.0747C73.3894 48.2791 75.7752 49.2605 78.125 50.1881C81.2051 51.4051 84.4155 52.6117 87.6927 53.1756C88.148 53.7501 88.6073 54.3251 89.0667 54.8967C89.1182 54.8208 89.1838 54.7211 89.2634 54.5926C88.8248 54.0484 88.388 53.5038 87.9546 52.9544C88.2565 49.1649 88.1057 45.388 87.4741 41.6389C87.0017 38.8474 86.273 36.1079 85.4532 33.3964C85.2772 33.2027 85.0972 33.0104 84.9127 32.8144C85.7625 35.5877 86.5279 38.3866 87.054 41.241Z" fill="#363970"/>
<path d="M80.1667 21.8149L74.3652 61.1724L138.944 71.0698L145.101 32.7374L80.1667 21.8149Z" fill="#FEFEFE"/>
<path d="M145.103 32.7373L116.558 0.463165L80.168 21.8149L110.743 52.8114L145.103 32.7373Z" fill="#FEFEFE"/>
<path d="M110.739 53.2745C110.619 53.2745 110.499 53.2274 110.41 53.1366L79.8348 22.1402C79.7344 22.0387 79.6866 21.8961 79.7051 21.7545C79.7236 21.613 79.8066 21.4878 79.9296 21.4156L116.319 0.0638132C116.511 -0.0484378 116.754 -0.00953893 116.901 0.156429L145.446 32.4302C145.538 32.534 145.578 32.6736 145.556 32.8103C145.534 32.9474 145.452 33.0671 145.333 33.1367L110.973 53.2107C110.9 53.2541 110.82 53.2745 110.739 53.2745ZM80.9121 21.9135L110.394 52.2401L144.538 32.4047L116.554 0.463174L80.9121 21.9135Z" fill="#343B72"/>
<path d="M80.168 21.8149L93.3558 41.4503L125.586 43.4879L145.103 32.7374L80.168 21.8149Z" fill="#A0D5DB"/>
<path d="M93.3718 1.38134L83.4316 61.3995L131.496 69.3599L141.436 9.34174L93.3718 1.38134Z" fill="#363970"/>
<path d="M98.8284 10.005L99.4226 6.41732L100.677 6.62505C100.927 6.66644 101.126 6.74379 101.274 6.85709C101.422 6.96923 101.524 7.10428 101.579 7.26225C101.635 7.41905 101.648 7.58504 101.619 7.76021C101.594 7.91437 101.545 8.03712 101.474 8.12846C101.403 8.22 101.319 8.28762 101.22 8.33131C101.123 8.3752 101.021 8.40264 100.913 8.41365L100.908 8.44869C101.016 8.47387 101.12 8.53069 101.219 8.61914C101.319 8.70758 101.395 8.8234 101.448 8.96657C101.501 9.10975 101.512 9.27594 101.481 9.46513C101.451 9.64498 101.383 9.79995 101.278 9.93006C101.172 10.0602 101.024 10.1527 100.834 10.2075C100.644 10.2624 100.407 10.2665 100.125 10.2196L98.8284 10.005ZM99.3266 9.69151L100.189 9.83426C100.472 9.88126 100.683 9.85973 100.82 9.76968C100.959 9.67866 101.041 9.55432 101.067 9.39666C101.087 9.2752 101.075 9.15796 101.03 9.04494C100.985 8.93075 100.911 8.83323 100.807 8.75238C100.703 8.67036 100.573 8.61639 100.416 8.59047L99.5332 8.44425L99.3266 9.69151ZM99.5959 8.06586L100.402 8.19932C100.533 8.22099 100.655 8.21483 100.768 8.18085C100.883 8.14707 100.979 8.08859 101.057 8.00541C101.135 7.92243 101.185 7.81787 101.206 7.69174C101.232 7.53408 101.199 7.39127 101.107 7.26331C101.016 7.13419 100.851 7.04989 100.613 7.01044L99.7932 6.87466L99.5959 8.06586ZM104.985 7.33862L105.42 7.41057L105.026 9.78598C104.986 10.0312 104.892 10.2406 104.744 10.4142C104.598 10.5867 104.411 10.7112 104.184 10.7875C103.957 10.8627 103.702 10.8769 103.421 10.8303C103.139 10.7837 102.903 10.6882 102.712 10.5438C102.522 10.3982 102.384 10.2201 102.3 10.0094C102.218 9.79779 102.197 9.56934 102.238 9.32409L102.631 6.94868L103.065 7.02064L102.678 9.36101C102.649 9.53619 102.661 9.69848 102.716 9.84788C102.771 9.99612 102.863 10.1212 102.992 10.223C103.123 10.3239 103.288 10.3908 103.488 10.4239C103.688 10.457 103.866 10.4469 104.022 10.3936C104.179 10.3391 104.306 10.2505 104.405 10.1276C104.504 10.0037 104.569 9.85417 104.598 9.67899L104.985 7.33862ZM108.101 8.77611C108.109 8.59511 108.047 8.44319 107.913 8.32033C107.78 8.19747 107.605 8.11805 107.388 8.08208C107.229 8.05577 107.086 8.05845 106.958 8.09011C106.832 8.12196 106.728 8.17733 106.646 8.25623C106.566 8.33532 106.516 8.4321 106.497 8.54654C106.481 8.64231 106.491 8.72841 106.525 8.80486C106.56 8.88033 106.61 8.94684 106.675 9.00438C106.74 9.06075 106.81 9.11011 106.885 9.15245C106.96 9.19363 107.029 9.2285 107.092 9.25704L107.441 9.41549C107.53 9.45548 107.628 9.50657 107.736 9.56873C107.844 9.63109 107.945 9.70834 108.037 9.80049C108.131 9.89167 108.203 10.0008 108.253 10.1278C108.303 10.2548 108.314 10.4024 108.286 10.5706C108.254 10.7645 108.174 10.9312 108.046 11.0709C107.92 11.2107 107.752 11.3108 107.543 11.3709C107.335 11.4313 107.093 11.4386 106.818 11.393C106.561 11.3504 106.345 11.2721 106.171 11.158C105.998 11.0442 105.87 10.9042 105.787 10.7381C105.705 10.5722 105.674 10.3899 105.692 10.1914L106.141 10.2657C106.13 10.4031 106.157 10.5228 106.222 10.6247C106.288 10.7256 106.378 10.8078 106.494 10.8713C106.611 10.9339 106.74 10.977 106.883 11.0006C107.049 11.028 107.202 11.0258 107.343 10.994C107.484 10.9609 107.601 10.9023 107.694 10.8182C107.788 10.7328 107.845 10.6248 107.867 10.494C107.886 10.3748 107.869 10.2724 107.815 10.1866C107.761 10.1009 107.683 10.0256 107.582 9.96093C107.482 9.89622 107.371 9.83591 107.251 9.77999L106.83 9.58075C106.563 9.45374 106.36 9.30196 106.221 9.1254C106.083 8.94883 106.033 8.73968 106.073 8.49794C106.107 8.29707 106.19 8.13088 106.323 7.99938C106.458 7.86691 106.625 7.7745 106.823 7.72214C107.022 7.66881 107.237 7.6611 107.466 7.69901C107.697 7.73731 107.896 7.81281 108.062 7.92551C108.228 8.03705 108.352 8.17276 108.433 8.33264C108.516 8.49272 108.545 8.66375 108.521 8.84574L108.101 8.77611ZM109.868 8.1472L109.273 11.7348L108.839 11.6629L109.433 8.07525L109.868 8.1472ZM113.583 8.76264L112.989 12.3503L112.569 12.2806L111.08 9.14L111.045 9.1342L110.579 11.9511L110.144 11.8791L110.739 8.29147L111.159 8.3611L112.653 11.5099L112.688 11.5157L113.156 8.69184L113.583 8.76264ZM113.859 12.4942L114.453 8.90661L116.618 9.26521L116.554 9.6506L114.823 9.36395L114.623 10.5762L116.241 10.8443L116.177 11.2297L114.559 10.9616L114.357 12.1808L116.116 12.4721L116.052 12.8575L113.859 12.4942ZM119.214 10.6167C119.223 10.4358 119.16 10.2838 119.027 10.161C118.894 10.0381 118.719 9.9587 118.501 9.92272C118.343 9.89642 118.199 9.89909 118.072 9.93075C117.945 9.9626 117.841 10.018 117.76 10.0969C117.68 10.176 117.63 10.2727 117.611 10.3872C117.595 10.483 117.604 10.5691 117.638 10.6455C117.674 10.721 117.724 10.7875 117.789 10.845C117.854 10.9014 117.924 10.9507 117.998 10.9931C118.073 11.0343 118.142 11.0691 118.206 11.0977L118.554 11.2561C118.644 11.2961 118.742 11.3472 118.849 11.4094C118.958 11.4717 119.058 11.549 119.151 11.6411C119.245 11.7323 119.317 11.8414 119.367 11.9684C119.417 12.0955 119.427 12.2431 119.4 12.4112C119.368 12.6051 119.288 12.7719 119.16 12.9115C119.034 13.0514 118.866 13.1514 118.657 13.2116C118.449 13.2719 118.207 13.2792 117.932 13.2336C117.675 13.191 117.459 13.1127 117.285 12.9987C117.112 12.8848 116.984 12.7448 116.901 12.5787C116.819 12.4128 116.787 12.2306 116.806 12.0321L117.254 12.1063C117.244 12.2437 117.271 12.3634 117.335 12.4653C117.401 12.5662 117.492 12.6485 117.608 12.712C117.724 12.7745 117.854 12.8176 117.997 12.8412C118.162 12.8687 118.316 12.8665 118.457 12.8346C118.598 12.8016 118.715 12.743 118.808 12.6588C118.901 12.5735 118.959 12.4654 118.98 12.3346C119 12.2155 118.983 12.113 118.929 12.0273C118.874 11.9415 118.797 11.8663 118.696 11.8016C118.595 11.7369 118.485 11.6766 118.364 11.6206L117.944 11.4214C117.677 11.2944 117.474 11.1426 117.335 10.966C117.196 10.7895 117.147 10.5803 117.187 10.3386C117.22 10.1377 117.304 9.97153 117.437 9.84003C117.572 9.70756 117.738 9.61514 117.937 9.56279C118.136 9.50945 118.35 9.50174 118.579 9.53965C118.811 9.57795 119.009 9.65345 119.175 9.76615C119.342 9.87769 119.466 10.0134 119.547 10.1733C119.63 10.3334 119.659 10.5044 119.635 10.6864L119.214 10.6167ZM122.36 11.1377C122.369 10.9568 122.306 10.8048 122.173 10.682C122.04 10.5591 121.864 10.4797 121.647 10.4437C121.488 10.4174 121.345 10.4201 121.218 10.4517C121.091 10.4836 120.987 10.539 120.906 10.6179C120.825 10.697 120.776 10.7937 120.757 10.9082C120.741 11.0039 120.75 11.0901 120.784 11.1665C120.82 11.242 120.87 11.3085 120.935 11.366C121 11.4224 121.07 11.4717 121.144 11.5141C121.219 11.5553 121.288 11.5901 121.352 11.6187L121.7 11.7771C121.789 11.8171 121.888 11.8682 121.995 11.9304C122.103 11.9927 122.204 12.07 122.297 12.1621C122.391 12.2533 122.463 12.3624 122.513 12.4894C122.562 12.6165 122.573 12.7641 122.545 12.9322C122.513 13.1261 122.433 13.2929 122.306 13.4325C122.18 13.5724 122.012 13.6724 121.803 13.7325C121.595 13.7929 121.353 13.8002 121.077 13.7546C120.82 13.712 120.605 13.6337 120.43 13.5197C120.257 13.4058 120.129 13.2658 120.046 13.0997C119.965 12.9338 119.933 12.7516 119.952 12.5531L120.4 12.6273C120.389 12.7647 120.416 12.8844 120.481 12.9863C120.547 13.0872 120.638 13.1695 120.753 13.233C120.87 13.2955 121 13.3386 121.142 13.3622C121.308 13.3897 121.461 13.3875 121.602 13.3556C121.743 13.3226 121.86 13.264 121.954 13.1798C122.047 13.0945 122.104 12.9864 122.126 12.8556C122.146 12.7365 122.129 12.634 122.074 12.5483C122.02 12.4625 121.943 12.3873 121.842 12.3226C121.741 12.2579 121.63 12.1976 121.51 12.1416L121.089 11.9424C120.823 11.8154 120.62 11.6636 120.481 11.487C120.342 11.3105 120.293 11.1013 120.333 10.8596C120.366 10.6587 120.449 10.4925 120.583 10.361C120.718 10.2286 120.884 10.1361 121.082 10.0838C121.282 10.0305 121.496 10.0227 121.725 10.0606C121.956 10.0989 122.155 10.1744 122.321 10.2872C122.487 10.3987 122.611 10.5344 122.693 10.6943C122.776 10.8544 122.805 11.0254 122.781 11.2074L122.36 11.1377ZM125.593 14.4377L124.486 14.2543L125.08 10.6667L126.236 10.8582C126.584 10.9158 126.87 11.0369 127.094 11.2216C127.318 11.4051 127.474 11.6415 127.561 11.9308C127.649 12.2189 127.662 12.5486 127.601 12.92C127.539 13.2937 127.419 13.6044 127.241 13.8522C127.064 14.0987 126.836 14.2733 126.557 14.376C126.279 14.4774 125.957 14.498 125.593 14.4377ZM124.984 13.9409L125.629 14.0476C125.925 14.0968 126.181 14.0803 126.395 13.9981C126.609 13.916 126.781 13.7771 126.912 13.5816C127.043 13.3861 127.132 13.1423 127.18 12.8504C127.228 12.5608 127.222 12.3036 127.162 12.0789C127.103 11.853 126.988 11.6684 126.819 11.5252C126.649 11.3807 126.425 11.2853 126.144 11.2389L125.451 11.124L124.984 13.9409ZM128.031 14.8415L128.626 11.2539L130.791 11.6125L130.727 11.9979L128.996 11.7112L128.795 12.9235L130.414 13.1915L130.35 13.5769L128.732 13.3089L128.53 14.5281L130.288 14.8194L130.225 15.2048L128.031 14.8415ZM131.127 15.3542L130.671 15.2788L132.583 11.9093L133.031 11.9836L133.754 15.7894L133.299 15.7139L132.727 12.5163L132.699 12.5117L131.127 15.3542ZM131.527 13.9806L133.363 14.2847L133.299 14.6701L131.463 14.366L131.527 13.9806ZM134.313 15.8819L134.907 12.2943L135.342 12.3662L134.811 15.5685L136.479 15.8447L136.415 16.2301L134.313 15.8819Z" fill="#FEFEFE"/>
<path d="M95.3106 12.8767L87.6387 59.1992L128.338 65.9398L136.009 19.6173L95.3106 12.8767Z" fill="#D9F5FF"/>
<path d="M112.658 20.2041L97.6309 17.7153L97.7972 16.7081L112.434 19.4536L112.658 20.2041Z" fill="#363970"/>
<path d="M131.54 26.6102L97.1016 20.9062L97.2683 19.8989L131.707 25.833L131.54 26.6102Z" fill="#363970"/>
<path d="M131 29.8647L96.6309 23.7413L96.7279 23.1534L131.166 28.8578L131 29.8647Z" fill="#363970"/>
<path d="M130.499 32.8855L96.0605 27.1815L96.2273 26.1746L130.626 32.1205L130.499 32.8855Z" fill="#363970"/>
<path d="M129.962 36.1404L95.5234 30.4364L95.6905 29.4291L130.129 35.3765L129.962 36.1404Z" fill="#363970"/>
<path d="M129.458 39.1841L95.0195 33.4797L95.5237 32.7847L129.625 38.1768L129.458 39.1841Z" fill="#363970"/>
<path d="M128.917 42.4387L94.4785 36.7343L94.6452 35.7274L128.584 41.3488L128.917 42.4387Z" fill="#363970"/>
<path d="M128.417 45.4595L93.9785 39.7554L94.1456 38.7481L128.532 44.7682L128.417 45.4595Z" fill="#363970"/>
<path d="M127.88 48.7144L93.4414 43.01L93.5359 42.4387L128.047 47.7071L127.88 48.7144Z" fill="#363970"/>
<path d="M80.1687 21.8149L100.258 37.0125L125.772 39.814L145.103 32.7373L138.946 71.0698L74.3672 61.1724L80.1687 21.8149Z" fill="#FEFEFE"/>
<path d="M138.947 71.5328C138.923 71.5328 138.9 71.5314 138.876 71.5273L74.2972 61.6299C74.0453 61.5914 73.8722 61.3569 73.9093 61.105L79.7111 21.7475C79.7349 21.5856 79.8423 21.4482 79.9938 21.3863C80.1453 21.3248 80.318 21.347 80.4487 21.4456L100.436 36.5661L125.715 39.3416L144.945 32.3024C145.099 32.2461 145.272 32.2754 145.399 32.3802C145.526 32.4847 145.588 32.6488 145.561 32.8111L139.404 71.1438C139.367 71.3709 139.17 71.5328 138.947 71.5328ZM74.3672 61.1724L138.197 70.4866L144.851 33.2078C144.851 33.2078 125.793 40.2822 125.721 40.2745C125.721 40.2745 100.122 37.6419 100.056 37.5916L80.4654 22.4162L74.3672 61.1724Z" fill="#343B72"/>
<path d="M148.588 47.3114C147.835 47.3114 147.432 46.9899 147.109 46.7317C146.817 46.4983 146.587 46.3141 146.093 46.3141C145.599 46.3141 145.369 46.4983 145.077 46.7317C144.754 46.9899 144.352 47.3114 143.599 47.3114C142.846 47.3114 142.445 46.9899 142.122 46.7317C141.831 46.4986 141.601 46.3145 141.108 46.3145C140.615 46.3145 140.384 46.4986 140.093 46.732C139.77 46.9902 139.369 47.3118 138.615 47.3118C137.863 47.3118 137.461 46.9902 137.138 46.732C136.847 46.499 136.617 46.3149 136.124 46.3149C135.631 46.3149 135.4 46.499 135.109 46.732C134.786 46.9902 134.384 47.3118 133.631 47.3118C132.879 47.3118 132.477 46.9902 132.154 46.732C131.863 46.499 131.633 46.3149 131.14 46.3149C130.647 46.3149 130.417 46.499 130.126 46.732C129.803 46.9902 129.402 47.3118 128.649 47.3118C127.896 47.3118 127.494 46.9902 127.171 46.732C126.88 46.499 126.649 46.3149 126.156 46.3149V45.574C126.909 45.574 127.311 45.8955 127.634 46.1537C127.925 46.3868 128.156 46.5713 128.649 46.5713C129.141 46.5713 129.372 46.3871 129.663 46.1537C129.985 45.8955 130.387 45.574 131.14 45.574C131.893 45.574 132.294 45.8955 132.617 46.1537C132.908 46.3868 133.138 46.5713 133.631 46.5713C134.125 46.5713 134.355 46.3871 134.646 46.1537C134.969 45.8955 135.37 45.574 136.124 45.574C136.876 45.574 137.278 45.8955 137.601 46.1537C137.892 46.3868 138.122 46.5713 138.615 46.5713C139.108 46.5713 139.339 46.3871 139.63 46.1537C139.953 45.8955 140.355 45.574 141.108 45.574C141.861 45.574 142.263 45.8955 142.585 46.1537C142.876 46.3868 143.107 46.5713 143.599 46.5713C144.093 46.5713 144.323 46.3871 144.614 46.1537C144.937 45.8955 145.339 45.574 146.093 45.574C146.846 45.574 147.249 45.8955 147.572 46.1534C147.864 46.3868 148.094 46.5709 148.588 46.5709C149.082 46.5709 149.313 46.3864 149.605 46.1534C149.928 45.8952 150.33 45.574 151.083 45.574V46.3149C150.59 46.3149 150.359 46.499 150.067 46.7324C149.745 46.9899 149.343 47.3114 148.588 47.3114Z" fill="#343B72"/>
<path d="M85.7808 140.122C85.0269 140.122 84.6246 139.801 84.3015 139.543C84.0096 139.309 83.7792 139.125 83.2853 139.125C82.7915 139.125 82.5611 139.309 82.2692 139.543C81.9465 139.801 81.5445 140.122 80.7914 140.122C80.039 140.122 79.6374 139.801 79.3147 139.543C79.0235 139.309 78.7935 139.125 78.3004 139.125C77.8069 139.125 77.5765 139.309 77.2853 139.543C76.9623 139.801 76.5603 140.122 75.8075 140.122C75.0544 140.122 74.6528 139.801 74.3301 139.543C74.0389 139.309 73.8085 139.125 73.3158 139.125C72.8227 139.125 72.5922 139.309 72.3007 139.543C71.978 139.801 71.5761 140.122 70.8233 140.122C70.0701 140.122 69.6685 139.801 69.3459 139.543C69.0547 139.309 68.8242 139.125 68.3315 139.125C67.8388 139.125 67.6087 139.309 67.3176 139.542C66.9949 139.801 66.5933 140.122 65.8405 140.122C65.0874 140.122 64.6854 139.801 64.3627 139.543C64.0712 139.309 63.8411 139.125 63.3477 139.125V138.384C64.1008 138.384 64.5028 138.706 64.8254 138.964C65.117 139.197 65.3471 139.381 65.8405 139.381C66.3332 139.381 66.5633 139.197 66.8545 138.964C67.1772 138.706 67.5787 138.384 68.3315 138.384C69.0847 138.384 69.4863 138.706 69.8089 138.964C70.1001 139.197 70.3306 139.381 70.8233 139.381C71.316 139.381 71.5464 139.197 71.8376 138.964C72.1607 138.706 72.5622 138.384 73.3154 138.384C74.0685 138.384 74.4701 138.706 74.7928 138.964C75.084 139.197 75.3144 139.381 75.8071 139.381C76.3002 139.381 76.5303 139.197 76.8218 138.964C77.1449 138.706 77.5468 138.384 78.3 138.384C79.0532 138.384 79.4547 138.706 79.7774 138.964C80.0686 139.197 80.2987 139.381 80.791 139.381C81.2845 139.381 81.5145 139.197 81.8061 138.964C82.1291 138.706 82.5315 138.384 83.285 138.384C84.0385 138.384 84.4405 138.706 84.7635 138.964C85.0554 139.197 85.2862 139.381 85.7804 139.381C86.2743 139.381 86.5047 139.197 86.7966 138.964C87.1197 138.706 87.5216 138.384 88.2751 138.384V139.125C87.7813 139.125 87.5509 139.309 87.259 139.543C86.9363 139.801 86.5343 140.122 85.7808 140.122Z" fill="#343B72"/>
<path d="M60.2575 88.0534C60.2575 88.0534 89.9196 98.1448 96.0311 40.8728C70.2619 48.1365 46.3188 71.6477 60.2575 88.0534Z" fill="#1C98B2"/>
<path d="M77.4085 79.6064C72.8451 82.1192 67.9735 83.9701 62.9322 85.2552C64.922 82.2337 66.9599 79.2452 69.0297 76.2781C77.0454 73.0517 84.8193 68.8258 91.5521 63.3585C91.6392 63.0892 91.7248 62.8125 91.8103 62.5372C85.1731 68.0375 77.4863 72.296 69.5302 75.5598C72.5317 71.2731 75.6055 67.0376 78.7274 62.8343C84.2899 60.2047 89.5142 56.6813 94.2639 52.7302C94.311 52.492 94.3565 52.2453 94.401 52.0034C89.8006 55.8773 84.7333 59.3542 79.3486 61.9971C84.5952 54.953 89.9717 48.0027 95.3609 41.0673C95.0997 41.1443 94.8393 41.2221 94.5796 41.301C89.3675 48.0127 84.171 54.7396 79.0915 61.5544C80.453 56.2586 81.5788 50.8746 83.4782 45.7462C83.2711 45.85 83.0651 45.9526 82.8584 46.0574C80.9272 51.4251 79.798 57.0558 78.3399 62.5661C75.2509 66.7264 72.2064 70.919 69.2357 75.1608C70.4086 66.8687 71.54 58.6777 74.703 50.8942C74.4681 51.0546 74.2351 51.2187 74.0024 51.3825C70.9131 59.2927 69.8295 67.6144 68.6348 76.0262C66.5687 78.9873 64.536 81.9699 62.5495 84.9837C61.9679 80.6852 62.1435 76.2337 62.3728 71.9248C62.5695 68.1957 62.8496 64.3799 63.5605 60.6815C63.3494 60.926 63.1434 61.1702 62.9389 61.4169C62.3413 64.8596 62.0957 68.3898 61.9031 71.85C61.6497 76.3856 61.4663 81.0856 62.1487 85.5957C61.5974 86.4374 61.048 87.2832 60.502 88.1282C60.6224 88.1623 60.7809 88.2041 60.9821 88.2534C61.5018 87.4473 62.0227 86.6434 62.5491 85.8409C67.6127 84.5965 72.465 82.7672 77.0729 80.3251C80.5023 78.5039 83.7535 76.3715 86.9287 74.1331C87.1054 73.8201 87.2777 73.5022 87.4533 73.1766C84.2099 75.4827 80.8968 77.6881 77.4085 79.6064Z" fill="#363970"/>
<path d="M26.0221 83.6419C26.0221 83.6419 53.2717 68.1775 14.527 25.5589C2.83548 49.6443 4.50035 83.1592 26.0221 83.6419Z" fill="#1661A4"/>
<path d="M31.1035 65.212C29.9495 70.2921 28.0969 75.1623 25.7077 79.7842C24.7719 76.2892 23.8917 72.7806 23.0489 69.2626C25.963 61.1283 27.9698 52.5106 28.3569 43.8461C28.2136 43.602 28.0631 43.3541 27.9146 43.1074C27.6156 51.7222 25.6914 60.2966 22.8448 68.4113C21.6352 63.32 20.5123 58.2087 19.4443 53.0826C21.1743 47.1781 22.0123 40.9324 22.215 34.7582C22.0679 34.5649 21.9138 34.3667 21.7626 34.1725C21.6011 40.1845 20.8335 46.2816 19.2313 52.0623C17.4523 43.4612 15.8296 34.8249 14.227 26.1898C14.1111 26.4365 13.9958 26.6825 13.8825 26.9292C15.4358 35.2839 17.0111 43.6368 18.7296 51.9608C15.6763 47.4248 12.4002 43.0063 9.82959 38.1795C9.76957 38.4029 9.70919 38.6252 9.65028 38.8493C12.3788 43.8587 15.837 48.4436 18.9864 53.1948C20.0437 58.2672 21.1543 63.3281 22.3506 68.3668C16.9325 61.9811 11.5623 55.6936 7.84649 48.1583C7.81055 48.4403 7.77832 48.7237 7.74609 49.0063C11.6052 56.5705 17.1055 62.9091 22.5984 69.3912C23.4394 72.9028 24.3177 76.4033 25.2502 79.8909C21.6511 77.4692 18.4407 74.3806 15.3729 71.3465C12.7163 68.7217 10.0504 65.9773 7.75869 62.9888C7.80129 63.3089 7.84686 63.6253 7.89539 63.942C10.0715 66.676 12.5466 69.2052 15.005 71.6477C18.2262 74.8503 21.6174 78.1101 25.4414 80.597C25.704 81.5676 25.9711 82.5405 26.2401 83.51C26.3457 83.4425 26.4824 83.3518 26.6528 83.234C26.3957 82.31 26.1408 81.3872 25.8911 80.4603C28.3251 75.8488 30.1818 71.0075 31.4177 65.9414C32.3353 62.1682 32.9014 58.3217 33.3382 54.4611C33.2215 54.1213 33.0989 53.7813 32.9722 53.4338C32.5406 57.3885 31.9871 61.3299 31.1035 65.212Z" fill="#363970"/>
<path d="M71.8751 67.9408V61.67H65.8521C65.3842 58.973 64.3254 56.4805 62.8109 54.3292L67.0705 50.0696L62.6364 45.6351L58.3768 49.8944C56.2252 48.3803 53.733 47.3207 51.0357 46.8528V40.8302H44.7652V46.8528C42.0682 47.3207 39.5757 48.3803 37.4244 49.8944L33.1648 45.6348L28.7307 50.0688L32.9903 54.3285C31.4759 56.4797 30.4167 58.9722 29.9488 61.6692H23.9258V67.9401H29.9488C30.4167 70.6367 31.4762 73.1292 32.9903 75.2805L28.7311 79.5408L33.1652 83.9749L37.4248 79.7153C39.5761 81.2298 42.0686 82.2889 44.7656 82.7572V88.7802H51.036V82.7572C53.7334 82.2889 56.2255 81.2298 58.3772 79.7153L62.6368 83.9749L67.0709 79.5408L62.8113 75.2812C64.3257 73.1299 65.3845 70.6374 65.8524 67.9405H71.8751V67.9408ZM47.9004 73.3885C43.16 73.3885 39.3175 69.546 39.3175 64.8059C39.3175 60.0658 43.16 56.223 47.9004 56.223C52.6405 56.223 56.483 60.0658 56.483 64.8059C56.483 69.5457 52.6402 73.3885 47.9004 73.3885Z" fill="#363970"/>
<path d="M123.5 73.2733C123.5 73.2733 97.5564 90.8415 139.546 130.267C149.299 105.334 144.993 72.0552 123.5 73.2733Z" fill="#1C98B2"/>
<path d="M119.888 92.0473C120.637 86.8916 122.1 81.8903 124.116 77.0943C125.326 80.5044 126.48 83.9327 127.598 87.3732C125.335 95.7124 124.016 104.462 124.313 113.129C124.476 113.361 124.645 113.596 124.812 113.831C124.43 105.22 125.672 96.5196 127.868 88.2056C129.476 93.1854 131 98.1923 132.469 103.218C131.21 109.24 130.868 115.533 131.154 121.704C131.315 121.885 131.485 122.07 131.651 122.252C131.337 116.246 131.621 110.107 132.761 104.218C135.214 112.652 137.514 121.133 139.793 129.614C139.89 129.359 139.985 129.105 140.079 128.851C137.871 120.645 135.64 112.443 133.269 104.28C136.672 108.561 140.287 112.707 143.231 117.316C143.273 117.089 143.315 116.861 143.356 116.634C140.241 111.855 136.431 107.558 132.916 103.071C131.462 98.097 129.955 93.1399 128.365 88.2116C134.27 94.1497 140.12 99.9938 144.419 107.212C144.433 106.927 144.443 106.643 144.453 106.358C140.008 99.1225 134.024 93.238 128.037 87.2102C126.921 83.7752 125.769 80.3555 124.564 76.9524C128.343 79.0826 131.788 81.9081 135.085 84.6903C137.941 87.0972 140.815 89.6227 143.336 92.4204C143.268 92.1048 143.198 91.7936 143.124 91.4813C140.739 88.9277 138.071 86.6019 135.428 84.3609C131.964 81.4228 128.326 78.4409 124.318 76.2644C123.979 75.3171 123.636 74.3684 123.292 73.4233C123.192 73.4989 123.062 73.6 122.902 73.7312C123.231 74.6318 123.558 75.5316 123.88 76.4363C121.818 81.2253 120.349 86.1981 119.517 91.3461C118.901 95.18 118.641 99.0595 118.51 102.943C118.653 103.272 118.802 103.601 118.956 103.937C119.074 99.9597 119.314 95.9872 119.888 92.0473Z" fill="#363970"/>
<path d="M95.0662 78.4635C95.0662 78.4635 65.4042 68.372 59.293 125.644C85.0618 118.38 109.005 94.8695 95.0662 78.4635Z" fill="#1661A4"/>
<path d="M77.9153 86.9105C82.4787 84.3976 87.3503 82.5468 92.3912 81.2616C90.4014 84.2831 88.3639 87.2717 86.2941 90.2387C78.2783 93.4651 70.5045 97.691 63.7716 103.158C63.6846 103.427 63.599 103.704 63.5134 103.979C70.1507 98.4794 77.8375 94.2205 85.7936 90.9571C82.7921 95.2437 79.7183 99.4789 76.5964 103.683C71.0339 106.312 65.8096 109.836 61.0598 113.787C61.0128 114.025 60.9672 114.272 60.9228 114.513C65.5232 110.64 70.5904 107.163 75.9751 104.52C70.7286 111.564 65.352 118.514 59.9629 125.449C60.2241 125.372 60.4845 125.294 60.7442 125.215C65.9563 118.504 71.1528 111.777 76.2322 104.962C74.8708 110.258 73.7449 115.642 71.8456 120.77C72.0526 120.667 72.2586 120.564 72.4653 120.459C74.3966 115.091 75.5258 109.46 76.9839 103.95C80.0729 99.7901 83.1173 95.5971 86.0881 91.3557C84.9152 99.6478 83.7838 107.838 80.6208 115.622C80.8556 115.461 81.0887 115.298 81.3213 115.134C84.4106 107.224 85.4942 98.9021 86.689 90.4899C88.7551 87.5288 90.7878 84.5462 92.7746 81.5324C93.3563 85.8313 93.1807 90.2824 92.9513 94.5913C92.7546 98.3204 92.4745 102.136 91.7636 105.835C91.9744 105.59 92.1808 105.346 92.3853 105.099C92.9824 101.656 93.2284 98.1263 93.4211 94.6662C93.6745 90.1309 93.8579 85.4305 93.1755 80.9208C93.7267 80.0791 94.2761 79.2333 94.8218 78.3883C94.7018 78.3542 94.5428 78.3123 94.3417 78.2631C93.8219 79.0692 93.3011 79.8731 92.7746 80.6755C87.7107 81.9199 82.8584 83.7493 78.2509 86.1914C74.8215 88.0126 71.5703 90.145 68.395 92.3834C68.2183 92.6964 68.0461 93.0139 67.8705 93.3395C71.1139 91.0341 74.427 88.8291 77.9153 86.9105Z" fill="#363970"/>
<path d="M129.84 98.4775V92.692H124.283C123.851 90.2032 122.874 87.9033 121.477 85.9184L125.407 81.9889L121.315 77.8971L117.385 81.827C115.4 80.4299 113.101 79.4523 110.612 79.0207V73.4637H104.826V79.0207C102.337 79.4523 100.038 80.4299 98.0527 81.827L94.1228 77.8971L90.0314 81.9885L93.9616 85.9184C92.5643 87.9033 91.587 90.2032 91.155 92.692H85.5977V98.4775H91.155C91.587 100.966 92.5643 103.266 93.9616 105.25L90.0314 109.181L94.1228 113.272L98.0527 109.342C100.038 110.74 102.337 111.717 104.826 112.149V117.706H110.612V112.149C113.101 111.717 115.4 110.739 117.385 109.342L121.315 113.272L125.407 109.181L121.477 105.251C122.874 103.266 123.851 100.966 124.283 98.4775H129.84ZM107.719 103.504C103.345 103.504 99.7998 99.9583 99.7998 95.5846C99.7998 91.2108 103.345 87.6651 107.719 87.6651C112.093 87.6651 115.638 91.2108 115.638 95.5846C115.638 99.9583 112.093 103.504 107.719 103.504Z" fill="#363970"/>
<g opacity="0.3">
<path d="M104.754 71.5384C104.754 71.5384 101.718 72.3445 101.386 72.6194C101.054 72.8943 103.687 85.1237 105.043 90.4077C106.398 95.692 108.703 101.422 108.703 101.422C108.703 101.422 112.209 100.66 112.998 100.025C111.93 96.5351 104.754 71.5384 104.754 71.5384Z" fill="#151F49"/>
<path d="M147.976 57.291L104.355 69.7038C104.355 69.7038 111.025 96.5233 113.623 101.422C116.358 100.783 123.694 98.5427 123.694 98.5427C123.694 98.5427 149.44 88.4672 152.175 87.8489C154.213 70.8556 147.976 57.291 147.976 57.291Z" fill="#151F49"/>
<path d="M101.383 74.8892L106.212 93.198L103.131 94.1138L92.3501 100.641L80.9905 108.19L79.8969 108.736C79.8969 108.736 74.6363 110.844 73.4834 107.056C71.3321 107.006 68.8204 108.298 67.3852 103.914C64.7834 103.856 62.9589 103.881 62.1754 100.293C59.5606 99.9201 56.6013 99.164 58.45 94.9266C61.0277 88.5009 75.1805 70.1784 75.1805 70.1784C75.1805 70.1784 77.6586 67.2817 85.2953 68.8214C92.9317 70.3603 95.4613 76.2381 101.383 74.8892Z" fill="#151F49"/>
<path opacity="0.5" d="M104.799 89.443C102.994 91.5705 96.0299 89.776 93.3314 87.4517C92.0459 88.5431 93.1128 92.0329 93.1128 92.0329C93.1128 92.0329 91.1075 92.6019 88.4501 91.179C86.6041 92.4997 87.4614 97.4369 87.4614 97.4369C87.4614 97.4369 84.3058 97.7862 81.8862 95.7887C80.6863 97.7899 81.4454 102.264 81.4454 102.264C81.4454 102.264 79.8046 104.088 77.3729 101.595C77.038 106.943 74.3958 106.382 74.966 105.255C72.2212 105.731 70.9627 104.634 69.7557 101.422C67.2966 102.896 65.4935 101.717 64.0621 98.2593C59.0756 99.9056 58.6796 95.0448 58.6796 95.0448H58.4002C56.6605 99.1755 59.585 99.9231 62.1749 100.292C62.9581 103.88 64.7826 103.855 67.3848 103.914C68.8199 108.298 71.3317 107.005 73.483 107.055C74.6359 110.843 79.8965 108.736 79.8965 108.736L80.9901 108.189L92.3497 100.641L103.13 94.1131L105.133 93.5181C105.436 93.2313 105.605 93.0713 105.605 93.0713C105.605 93.0713 105.894 92.114 104.799 89.443Z" fill="#151F49"/>
<path d="M108.628 98.9272C108.896 99.0343 109.164 99.1384 109.434 99.2373C109.377 99.387 109.318 99.5359 109.258 99.6848C109.127 100.013 109.656 100.154 109.785 99.8304C109.84 99.6911 109.896 99.5522 109.95 99.4126C110.189 99.4881 110.432 99.5585 110.679 99.6111C111.023 99.6848 111.169 99.1573 110.825 99.084C110.593 99.0339 110.366 98.9695 110.141 98.8998C110.271 98.5334 110.387 98.1622 110.469 97.7795C110.542 97.4354 110.015 97.2894 109.942 97.634C109.862 98.007 109.75 98.369 109.624 98.7261C109.339 98.6231 109.056 98.5131 108.774 98.4001C108.446 98.2689 108.305 98.7983 108.628 98.9272Z" fill="#151F49"/>
<path d="M106.786 71.0442C106.74 70.7 106.192 70.6956 106.239 71.0442C106.385 72.1363 106.633 73.2021 106.933 74.2617C107.028 74.6003 107.556 74.4562 107.46 74.1161C107.174 73.1058 106.925 72.0859 106.786 71.0442Z" fill="#151F49"/>
<path d="M108.009 75.7568C107.957 75.409 107.43 75.5572 107.482 75.9021C107.635 76.9208 107.885 77.9196 108.166 78.9102C108.262 79.2488 108.789 79.1047 108.693 78.7647C108.412 77.7744 108.163 76.7756 108.009 75.7568Z" fill="#151F49"/>
<path d="M109.923 83.2769C109.653 82.4675 109.39 81.6576 109.239 80.8159C109.178 80.4688 108.651 80.6166 108.712 80.9611C108.862 81.8032 109.126 82.613 109.396 83.4229C109.507 83.7556 110.035 83.6126 109.923 83.2769Z" fill="#151F49"/>
<path d="M110.334 85.0544C110.214 84.7262 109.685 84.8681 109.807 85.1997C110.098 85.9928 110.104 86.8556 110.354 87.6607C110.458 87.9963 110.986 87.8537 110.882 87.5154C110.632 86.7104 110.625 85.8472 110.334 85.0544Z" fill="#151F49"/>
<path d="M110.898 89.4385C111.039 90.2231 111.303 90.9778 111.445 91.7628C111.507 92.1096 112.034 91.9621 111.972 91.6172C111.831 90.8326 111.567 90.0779 111.425 89.2929C111.363 88.9461 110.835 89.094 110.898 89.4385Z" fill="#151F49"/>
<path d="M112.519 93.3951C112.445 93.0498 111.918 93.1965 111.991 93.5407C112.139 94.2334 112.39 94.8984 112.539 95.5916C112.612 95.9365 113.139 95.7901 113.066 95.446C112.918 94.7532 112.667 94.0882 112.519 93.3951Z" fill="#151F49"/>
<path d="M113.887 97.7706C113.799 97.4291 113.272 97.5743 113.359 97.9162C113.524 98.559 113.741 99.1877 113.907 99.8304C113.994 100.172 114.522 100.027 114.434 99.6848C114.269 99.0417 114.052 98.4134 113.887 97.7706Z" fill="#151F49"/>
<path d="M152.55 87.4773C153.388 83.0972 153.026 78.4194 152.565 74.022C151.953 68.1768 150.721 62.3023 148.368 56.898C148.308 56.7616 148.205 56.7112 148.097 56.7105C148.062 56.6838 148.023 56.6735 147.979 56.6872C131.56 61.6984 118.768 65.3097 104.525 69.5497C104.457 69.5701 104.413 69.6105 104.382 69.6571C104.376 69.6653 104.369 69.6727 104.364 69.682C104.359 69.6894 104.357 69.6968 104.355 69.7038C104.329 69.7553 104.316 69.815 104.334 69.8861C104.429 70.2573 104.522 70.6285 104.617 71.0001C103.482 71.5521 101.655 71.9581 101.053 72.343C101.053 72.3512 101.052 72.8858 101.053 72.8943C101.158 73.5604 101.268 74.2254 101.382 74.8892C99.9035 75.4268 98.1082 74.5402 96.802 73.9156C94.5588 72.8435 92.4338 71.5384 90.2043 70.4377C85.6295 68.1794 80.473 66.8253 75.747 69.4404C75.4384 69.6108 75.714 70.0836 76.0229 69.9124C81.3325 66.9746 87.0032 69.3171 91.9081 71.9281C93.9009 72.9887 95.8451 74.1679 97.943 75.0148C99.0444 75.4594 100.329 75.8028 101.478 75.4357C102.518 81.3979 103.899 87.2768 105.604 93.0717C103.376 93.6548 101.243 94.5157 99.1089 95.3711C99.0707 95.3759 99.0314 95.3908 98.9914 95.4193C93.5367 99.3625 88.8214 104.082 82.8569 107.315C80.0503 108.802 75.6121 110.726 73.4827 107.055C78.3121 103.483 81.3832 101.469 84.6926 98.173C84.9426 97.924 84.5559 97.5372 84.3058 97.7862C80.9564 101.123 75.1798 105.227 72.6284 106.788C70.5982 107.573 67.6071 106.175 67.9453 103.821C67.9676 103.809 67.9905 103.799 68.0113 103.779C71.4899 100.462 75.2553 97.4543 78.5395 93.9345C78.7796 93.6774 79.0078 92.5941 78.7666 92.8523C75.5476 96.3025 71.2536 99.9579 67.8331 103.197C67.7805 103.174 67.7201 103.173 67.656 103.195C67.6352 103.2 67.6152 103.205 67.5963 103.215C65.6347 104.348 62.282 102.562 62.7425 100.17C64.2544 98.9469 65.5932 97.468 66.9729 96.1039C69.2071 93.8956 72.1471 91.6139 74.4592 89.4874C74.7193 89.2481 73.6253 88.9343 73.3663 89.1721C71.1502 91.2104 69.0063 93.3258 66.8647 95.4415C65.4054 96.8837 63.9917 98.4519 62.3958 99.7497C60.835 99.723 58.73 99.3503 58.2743 97.5295C57.8038 95.6486 59.6095 93.6273 60.6864 92.3411C63.2504 89.2799 66.8791 86.7671 69.3342 83.6218C69.5487 83.3473 68.5633 83.1588 68.3462 83.4366C65.3139 87.3209 61.3266 90.009 58.6252 94.1875C57.8113 95.4463 57.114 97.0901 57.8061 98.5445C58.5181 100.041 60.6712 100.253 62.1735 100.292C61.4618 102.63 64.4804 105.078 67.3833 103.914C67.1451 106.635 69.6895 108.69 72.9714 107.237C74.8434 111.397 80.0118 109.44 83.1318 107.787C89.1 104.552 93.8042 99.8408 99.2619 95.8946C101.396 95.0392 103.529 94.179 105.757 93.5966C106.547 96.2465 107.404 98.8798 108.329 101.494C108.332 101.503 108.338 101.508 108.342 101.517C108.365 101.626 108.445 101.714 108.592 101.695C109.995 101.515 111.352 101.071 112.654 100.524C112.764 100.847 112.872 101.172 112.984 101.494C112.988 101.503 112.994 101.508 112.997 101.516C113.021 101.626 113.202 102.042 113.348 102.014C118.202 101.056 152.342 88.1819 152.393 88.1137C152.466 88.0433 152.566 87.5688 152.55 87.4773ZM108.777 101.12C105.552 91.9573 103.145 82.5753 101.618 72.9802C102.653 72.4786 103.466 72.1063 104.859 71.9622C106.374 77.9767 107.693 83.5774 109.326 89.5478C110.286 93.058 111.317 96.5492 112.48 100.009C111.299 100.511 110.048 100.933 108.777 101.12ZM119.183 99.3899C117.343 100.023 115.843 100.771 113.896 101.044C110.365 90.8489 107.715 80.9515 105.058 70.5122C119.197 66.3044 133.699 61.5603 147.993 57.9038C150.119 63.0188 151.211 68.5369 151.824 74.022C152.303 78.3097 152.652 82.9439 151.846 87.2216C149.998 87.9978 134.69 93.7229 129.043 95.8246C125.768 97.0442 122.487 98.2519 119.183 99.3899Z" fill="#151F49"/>
<path d="M47.167 67.7826C47.167 67.7826 50.203 68.5887 50.5349 68.8636C50.8669 69.1385 48.234 81.3683 46.8785 86.6522C45.5229 91.9362 43.2179 97.6662 43.2179 97.6662C43.2179 97.6662 39.7122 96.9049 38.9238 96.2695C39.9908 92.7794 47.167 67.7826 47.167 67.7826Z" fill="#151F49"/>
<path d="M4.21982 53.7216L47.5646 65.9481C47.5646 65.9481 40.8948 92.7671 38.2967 97.6662C35.5619 97.0271 28.2256 94.7873 28.2256 94.7873C28.2256 94.7873 5.35123 85.6216 2.61645 85.0037C-1.81579 77.504 1.10495 62.9165 2.93839 56.7164C3.44889 54.9908 4.21982 53.7216 4.21982 53.7216Z" fill="#151F49"/>
<path d="M98.1289 97.1138C98.1289 97.1138 102.14 98.3445 103.006 95.2908C103.872 92.2374 99.9975 89.0951 99.9975 89.0951C99.9975 89.0951 97.445 84.3572 94.6194 86.36C93.2902 87.6325 93.1154 90.2769 94.984 92.7838C92.8912 91.4568 91.0641 89.1377 89.3322 90.5277C88.4412 91.2012 87.9652 94.242 89.3322 96.7033C87.4635 95.4275 85.23 93.65 83.1336 94.744C82.0407 95.4041 80.97 98.406 84.0449 102.221C82.6909 101.905 80.2221 98.6598 77.7522 100.846C77.288 101.256 76.9987 102.979 78.4575 106.001C79.9161 109.023 81.8573 112.167 85.0022 109.722C85.4593 108.743 86.4611 108.189 85.8683 105.865C87.2353 106.32 88.8776 106.629 90.677 105.062C92.5219 103.586 91.702 100.76 91.702 100.76C91.702 100.76 98.2204 102.902 98.1289 97.1138Z" fill="#151F49"/>
<path d="M102.822 92.8209C102.692 92.7323 102.556 92.6553 102.412 92.5938C102.412 92.5938 102.644 97.7066 97.435 95.6557C96.5326 98.5271 95.942 101.168 91.452 99.2318C91.8158 103.586 89.7331 106.262 85.2026 104.343C84.5688 108.372 83.4752 109.807 80.3984 109.124C80.3984 109.124 80.4051 109.168 80.421 109.245C81.6084 110.622 83.0799 111.216 85.0015 109.722C85.4586 108.743 86.4604 108.189 85.8676 105.865C87.2346 106.32 88.8769 106.629 90.6763 105.062C92.5212 103.586 91.7013 100.76 91.7013 100.76C91.7013 100.76 98.2193 102.902 98.1278 97.1138C98.1278 97.1138 102.138 98.3445 103.005 95.2908C103.242 94.452 103.121 93.6062 102.822 92.8209Z" fill="#151F49"/>
<path d="M45.8457 90.8855C45.8457 90.8855 48.7224 90.9004 52.9575 92.693C57.193 94.4854 58.2918 95.1544 58.2918 95.1544C58.2918 95.1544 57.6598 94.0734 64.6883 87.4647C67.6353 84.6262 68.7023 83.0258 68.7023 83.0258C68.7023 83.0258 73.7884 82.8672 76.6136 79.3485C78.3674 81.2998 87.4801 88.3834 90.2508 85.8669C90.5423 85.0329 90.3726 83.1173 88.1332 80.324C85.8934 77.531 81.3385 71.9559 74.9654 69.7227C71.912 68.638 66.4499 66.8513 60.9351 69.2671C55.4204 71.6825 55.9627 71.7947 50.498 69.8594C49.9516 72.639 47.3231 84.7481 45.8457 90.8855Z" fill="#151F49"/>
<path d="M54.4203 75.3479C54.4203 75.3479 53.8049 79.7268 54.4203 82.3245C51.6173 86.0847 51.2754 87.4521 51.2754 87.4521C51.2754 87.4521 53.3267 82.8072 53.3948 81.6087C53.463 80.4099 53.463 77.122 54.4203 75.3479Z" fill="#151F49"/>
<path d="M90.2523 85.8665C90.3424 85.6094 90.3876 85.2478 90.3427 84.7903C89.4347 85.0374 85.074 85.6294 76.7063 77.7437C72.513 80.1135 67.7729 83.5474 63.1243 83.9267C63.1243 83.9267 64.1897 87.4517 60.7859 90.5277C57.3817 93.6044 47.9004 90.7373 47.9004 90.7373L49.9198 91.6135C50.82 91.8713 51.8414 92.2196 52.9587 92.6923C56.4348 94.1634 57.7977 94.8769 58.1749 95.0862L58.2812 95.0114C58.3245 94.5561 58.9747 92.8375 64.6895 87.4639C67.6366 84.6254 68.7035 83.025 68.7035 83.025C68.7035 83.025 73.7896 82.8664 76.6148 79.3478C78.3693 81.2994 87.4816 88.383 90.2523 85.8665Z" fill="#151F49"/>
<path d="M45.1344 67.2884C44.9951 68.3301 44.7462 69.35 44.4609 70.3607C44.3646 70.7004 44.8925 70.8449 44.9881 70.5059C45.2878 69.4467 45.5356 68.3805 45.6816 67.2884C45.7283 66.9394 45.1804 66.9442 45.1344 67.2884Z" fill="#151F49"/>
<path d="M43.9139 72.0015C43.7602 73.0199 43.5105 74.019 43.2304 75.0096C43.1341 75.3493 43.6617 75.4938 43.7576 75.1549C44.0381 74.1642 44.2877 73.1655 44.4411 72.1467C44.4934 71.8018 43.9662 71.6536 43.9139 72.0015Z" fill="#151F49"/>
<path d="M42.6814 77.0605C42.5314 77.9019 42.2672 78.7117 41.9979 79.5215C41.886 79.8568 42.4143 79.9998 42.5251 79.6671C42.7948 78.8577 43.0589 78.0475 43.2086 77.2058C43.2701 76.8609 42.7429 76.7134 42.6814 77.0605Z" fill="#151F49"/>
<path d="M41.5879 81.299C41.2967 82.0918 41.2911 82.955 41.041 83.76C40.9362 84.0979 41.4641 84.2409 41.5682 83.9056C41.8183 83.0999 41.8242 82.2374 42.1154 81.4446C42.2369 81.1127 41.7083 80.9708 41.5879 81.299Z" fill="#151F49"/>
<path d="M40.4953 85.5375C40.3537 86.3225 40.0896 87.0772 39.9485 87.8618C39.8862 88.2067 40.4134 88.3541 40.4756 88.0074C40.6171 87.2224 40.8813 86.4677 41.0224 85.6831C41.0847 85.3382 40.5575 85.1911 40.4953 85.5375Z" fill="#151F49"/>
<path d="M39.4015 89.6397C39.2533 90.3324 39.0025 90.9974 38.8547 91.6906C38.781 92.0344 39.3085 92.1807 39.3819 91.8358C39.5301 91.143 39.7809 90.478 39.9291 89.7849C40.0024 89.4407 39.4749 89.2948 39.4015 89.6397Z" fill="#151F49"/>
<path d="M38.0336 94.0152C37.8683 94.6576 37.6516 95.2863 37.4864 95.9294C37.3986 96.271 37.9258 96.4159 38.0136 96.0747C38.1788 95.4319 38.3955 94.8032 38.5607 94.1605C38.6485 93.8185 38.1214 93.6733 38.0336 94.0152Z" fill="#151F49"/>
<path d="M87.5091 86.5259C88.8827 86.9305 90.7632 86.4881 90.5239 84.7299C90.1434 81.9377 88.1363 79.5627 86.3473 77.5707C84.2208 75.203 81.8343 72.6965 79.0091 71.1194C76.0539 69.4701 72.3726 68.6576 69.0706 68.0871C66.0984 67.5737 63.4448 67.6014 60.7652 69.074C59.4675 69.7872 58.2457 70.5129 56.7842 70.8478C54.7496 71.3143 52.7528 70.0532 50.8008 69.6864C50.7926 69.6849 50.786 69.6875 50.7778 69.6868C50.8075 69.5038 50.839 69.3215 50.8675 69.1385C50.869 69.13 50.8667 68.5954 50.8678 68.5873C50.2651 68.2023 48.4391 67.7967 47.304 67.2447C47.3981 66.8731 47.4911 66.5019 47.5859 66.1307C47.604 66.0599 47.5915 65.9999 47.5659 65.9484C47.5629 65.9407 47.5603 65.9336 47.5566 65.9262C47.5514 65.9173 47.5448 65.9095 47.5385 65.9018C47.507 65.8551 47.4633 65.8147 47.3951 65.7943C33.1529 61.5543 20.3604 57.9434 3.9414 52.9318C3.89695 52.9181 3.86546 52.9314 3.84397 52.9629C3.75469 52.9792 3.6717 53.0348 3.61799 53.1463C2.58439 55.2805 2.10464 57.7108 1.6297 60.0165C0.899882 63.5612 0.423834 67.1665 0.164138 70.7756C-0.0740709 74.0898 -0.125565 77.4932 0.513117 80.7678C0.836533 82.4275 1.01473 84.6021 2.54475 85.4894C2.72479 85.6001 17.1918 90.5418 23.3619 92.8305C26.5898 94.0282 33.7172 97.3005 38.571 98.2574C38.7166 98.286 38.8985 97.8699 38.9215 97.7606C38.9252 97.7525 38.9315 97.7473 38.9348 97.738C39.047 97.4154 39.1549 97.0912 39.2652 96.7678C40.5667 97.3157 41.9241 97.7588 43.3267 97.9388C43.4737 97.9581 43.5545 97.8703 43.5767 97.7606C43.5804 97.7525 43.5871 97.7473 43.5901 97.738C44.3932 95.4671 45.1453 93.1824 45.8469 90.8848C50.2632 91.4001 53.9638 94.1701 58.1749 95.3715C58.5146 95.4689 58.6587 94.9407 58.3205 94.8443C54.1042 93.6411 50.4144 90.9274 46.0055 90.3599C47.9975 83.7563 49.566 77.0428 50.69 70.2206C52.07 70.4855 53.317 71.4954 54.6877 71.8022C55.921 72.0778 57.1617 71.3909 58.3235 70.956C60.7922 70.0313 62.576 68.3509 65.3578 68.2827C68.4375 68.2072 71.6194 69.0785 74.5395 69.9721C77.7814 70.9642 80.4384 72.3697 82.7916 74.8414C84.8506 77.0042 86.9963 79.3111 88.6531 81.7966C89.2858 82.7461 89.9423 83.8597 89.9971 85.0255C90.0634 86.427 88.1411 86.164 87.2823 85.8817C85.2559 85.216 83.3528 83.9616 81.5716 82.8176C79.9075 81.7488 78.0348 80.5977 76.763 79.0536C76.6211 78.8814 76.4159 78.974 76.3399 79.1337C76.2858 79.1514 76.2358 79.1866 76.1965 79.2459C75.0796 80.9552 72.8483 81.8099 70.9982 82.4086C67.365 83.5841 63.4496 83.8241 59.6575 83.8226C59.3048 83.8223 59.3048 84.3691 59.6575 84.3694C63.7108 84.3713 68.013 84.5132 71.8754 83.2014C73.644 82.6008 75.4627 81.2394 76.5722 79.6586C77.8644 81.1238 79.7056 82.5419 81.3149 83.59C83.2324 84.8396 85.2937 85.8743 87.5091 86.5259ZM38.4858 97.3631C36.5383 97.0905 34.577 96.2677 32.7373 95.6345C29.4324 94.4965 26.1519 93.2884 22.8766 92.0692C16.7391 89.7845 3.90435 85.0492 3.73468 84.9877C1.64229 84.2294 1.23441 80.9864 0.988054 79.1007C0.593879 76.0807 0.731321 72.9836 0.966196 69.9565C1.21996 66.6853 1.69824 63.4293 2.34359 60.2133C2.75851 58.1457 4.13404 54.5403 5.05983 54.4803C19.3709 58.1401 32.7584 62.3312 46.9161 66.5441C44.2591 76.9831 42.0167 87.1683 38.4858 97.3631ZM42.7865 97.3042C41.5151 97.1179 40.6204 96.7559 39.4401 96.2536C42.5813 86.9082 44.6503 77.777 47.0558 68.2264C48.0931 68.7243 49.2671 68.7232 50.3021 69.2248C48.7751 78.8199 46.0118 88.1415 42.7865 97.3042Z" fill="#151F49"/>
<path d="M102.246 90.528C100.532 88.8447 97.9704 84.6773 94.9593 85.7779C92.4605 86.6915 93.0884 89.4996 94.1646 91.6694C92.4757 90.2243 90.1677 88.9562 88.7621 90.6918C87.7759 91.9099 87.923 94.0934 88.5976 95.8724C87.9156 95.3574 87.1606 94.937 86.3593 94.6147C85.222 94.1575 82.948 93.85 82.1801 95.137C81.1524 96.86 81.5829 98.769 82.6661 100.819C81.2258 99.6048 79.7754 99.3607 78.1161 100.304C76.1452 101.423 77.6104 104.597 78.238 106.036C79.2378 108.33 80.038 111.251 82.901 111.014C85.192 110.824 86.6801 108.293 86.2107 106.34C89.7224 107.577 93.0473 104.93 92.2571 101.186C95.1112 102.095 98.3705 100.974 98.3016 97.748H98.302V97.4332C98.302 97.4332 98.585 97.5384 98.681 97.5621C100.324 97.8514 102.038 97.6117 102.981 96.0409C103.967 94.3972 103.318 91.8688 102.246 90.528ZM82.1115 110.078C80.3681 109.72 79.356 107.196 78.7133 105.767C78.1053 104.415 76.7005 101.386 78.7866 100.587C79.938 100.146 81.1405 100.687 82.1934 101.497L82.1919 101.496C82.1919 101.496 84.5396 103.537 85.738 106.738C86.1048 108.883 84.5166 110.57 82.1115 110.078ZM91.8211 102.236C91.8351 104.795 89.639 106.543 87.0947 106.029C85.4294 105.477 83.972 102.202 83.9779 102.285C83.5249 101.383 83.2374 100.708 83.2374 100.708L83.2385 100.71C82.6102 99.3092 82.236 97.771 82.3349 96.3595C82.4727 94.3813 84.8785 94.6902 86.2074 95.14C86.9998 95.4086 87.7597 95.8553 88.4339 96.4066L88.4335 96.404C88.4335 96.404 89.2989 96.9167 90.3603 98.5849C90.3655 98.5923 90.3685 98.599 90.3736 98.6068C90.7519 99.1458 91.1109 99.6967 91.4287 100.272C91.4291 100.269 91.4291 100.266 91.4291 100.266C91.4291 100.266 91.9044 100.812 91.8211 102.236ZM92.216 100.597C91.5843 99.2795 90.6937 98.1078 89.8331 96.9312C89.1596 96.0017 88.8929 94.9095 88.8255 94.5891C88.6336 93.5429 88.997 92.842 89.2515 91.961C89.7928 90.0894 91.2128 90.315 92.7946 91.3927L92.7939 91.3916C92.7939 91.3916 94.5866 92.3229 95.9543 94.4935C95.9525 94.4935 95.9506 94.4928 95.9488 94.4924C96.5723 95.3337 97.1576 96.2025 97.7155 97.0879C97.7092 97.1227 97.7074 97.1583 97.7126 97.1957C98.2479 100.655 94.8541 101.517 92.216 100.597ZM102.512 95.7583C101.734 97.3472 99.7234 97.2794 98.2527 96.9145C97.5255 95.7549 96.7516 94.6246 95.9091 93.5459C95.2764 92.6808 94.8437 91.8925 94.5651 91.3105C94.5621 91.3042 94.5592 91.2986 94.5566 91.2927C94.2702 90.6907 94.1502 90.3139 94.1502 90.3139C94.1502 90.3139 94.152 90.3165 94.1528 90.3173C94.1076 90.1906 94.0631 90.0635 94.0224 89.9349C93.5308 88.3705 93.9905 85.8406 96.1688 86.1929C98.5217 86.5737 100.081 89.8364 101.64 91.3679C102.626 92.6008 103.253 94.246 102.512 95.7583Z" fill="#151F49"/>
<path d="M42.7865 95.1859C42.7865 95.7842 42.3409 96.2695 41.7907 96.2695C41.2406 96.2695 40.7949 95.7842 40.7949 95.1859C40.7949 94.588 41.2406 94.1027 41.7907 94.1027C42.3409 94.1027 42.7865 94.588 42.7865 95.1859Z" fill="#151F49"/>
</g>
<path d="M104.754 68.9451C104.754 68.9451 101.718 69.7513 101.386 70.0261C101.054 70.301 103.687 82.5305 105.043 87.8144C106.398 93.0987 108.703 98.8283 108.703 98.8283C108.703 98.8283 112.209 98.067 112.998 97.4317C111.93 93.9419 104.754 68.9451 104.754 68.9451Z" fill="#FEFEFE"/>
<path d="M147.978 54.6978L104.357 67.1106C104.357 67.1106 111.027 93.93 113.625 98.8283C116.36 98.1896 123.696 95.9494 123.696 95.9494C123.696 95.9494 149.442 85.8739 152.177 85.2556C154.215 68.2624 147.978 54.6978 147.978 54.6978Z" fill="#1661A4"/>
<path d="M101.385 72.296L106.214 90.6047L103.133 91.5205L92.3521 98.0481L80.9925 105.596L79.8989 106.143C79.8989 106.143 74.6383 108.25 73.4854 104.462C71.3341 104.412 68.8223 105.705 67.3872 101.321C64.7854 101.262 62.9608 101.287 62.1773 97.6995C59.5626 97.3268 56.6033 96.5707 58.4519 92.3333C61.0296 85.9076 75.1825 67.5851 75.1825 67.5851C75.1825 67.5851 77.6605 64.6885 85.2973 66.2281C92.9337 67.767 95.4632 73.6448 101.385 72.296Z" fill="#F8D3A7"/>
<path opacity="0.5" d="M104.801 86.8497C102.996 88.9773 96.0318 87.1827 93.3334 84.8584C92.0478 85.9498 93.1148 89.4396 93.1148 89.4396C93.1148 89.4396 91.1094 90.0087 88.4521 88.5857C86.6061 89.9064 87.4633 94.8436 87.4633 94.8436C87.4633 94.8436 84.3077 95.1929 81.8882 93.1954C80.6883 95.1966 81.4473 99.6711 81.4473 99.6711C81.4473 99.6711 79.8066 101.495 77.3748 99.0021C77.0399 104.349 74.3978 103.789 74.9679 102.662C72.2231 103.138 70.9647 102.041 69.7577 98.8283C67.2985 100.302 65.4955 99.1239 64.064 95.666C59.0776 97.3124 58.6815 92.4515 58.6815 92.4515H58.4022C56.6625 96.5822 59.5869 97.3298 62.1769 97.6988C62.96 101.287 64.7846 101.262 67.3867 101.32C68.8219 105.705 71.3336 104.412 73.4849 104.462C74.6378 108.25 79.8984 106.142 79.8984 106.142L80.992 105.596L92.3516 98.0474L103.132 91.5198L105.135 90.9248C105.438 90.6381 105.606 90.478 105.606 90.478C105.606 90.478 105.896 89.5207 104.801 86.8497Z" fill="#F8D3A7"/>
<path d="M108.632 96.334C108.9 96.441 109.168 96.5451 109.438 96.6441C109.38 96.7937 109.322 96.9426 109.262 97.0916C109.13 97.4194 109.66 97.5606 109.789 97.2372C109.844 97.0979 109.899 96.959 109.954 96.8193C110.193 96.8949 110.436 96.9653 110.683 97.0179C111.027 97.0916 111.173 96.564 110.829 96.4907C110.597 96.4407 110.37 96.3762 110.145 96.3066C110.275 95.9402 110.391 95.569 110.473 95.1863C110.546 94.8421 110.019 94.6962 109.945 95.0407C109.865 95.4137 109.754 95.7757 109.628 96.1328C109.343 96.0298 109.06 95.9198 108.778 95.8068C108.45 95.6757 108.309 96.2051 108.632 96.334Z" fill="#363970"/>
<path d="M106.79 68.4509C106.744 68.1068 106.196 68.1023 106.243 68.4509C106.389 69.5431 106.637 70.6089 106.937 71.6684C107.032 72.007 107.56 71.8629 107.464 71.5228C107.178 70.5126 106.929 69.4927 106.79 68.4509Z" fill="#363970"/>
<path d="M108.011 73.1636C107.959 72.8157 107.432 72.9639 107.484 73.3088C107.637 74.3276 107.887 75.3264 108.168 76.317C108.264 76.6556 108.791 76.5115 108.695 76.1714C108.414 75.1812 108.165 74.1824 108.011 73.1636Z" fill="#363970"/>
<path d="M109.925 80.6837C109.655 79.8742 109.392 79.0644 109.241 78.2227C109.18 77.8756 108.652 78.0234 108.714 78.3679C108.864 79.21 109.128 80.0198 109.398 80.8296C109.509 81.1623 110.037 81.0193 109.925 80.6837Z" fill="#363970"/>
<path d="M110.336 82.4612C110.216 82.1329 109.687 82.2748 109.809 82.6064C110.1 83.3996 110.106 84.2624 110.356 85.0674C110.46 85.403 110.988 85.2604 110.884 84.9222C110.634 84.1172 110.627 83.254 110.336 82.4612Z" fill="#363970"/>
<path d="M110.902 86.8452C111.043 87.6299 111.307 88.3845 111.449 89.1695C111.511 89.5163 112.038 89.3688 111.976 89.0239C111.835 88.2393 111.571 87.4847 111.429 86.6996C111.367 86.3529 110.839 86.5007 110.902 86.8452Z" fill="#363970"/>
<path d="M112.522 90.8018C112.449 90.4565 111.922 90.6032 111.995 90.9474C112.143 91.6402 112.394 92.3052 112.542 92.9983C112.615 93.3432 113.143 93.1969 113.07 92.8527C112.921 92.1599 112.671 91.495 112.522 90.8018Z" fill="#363970"/>
<path d="M113.891 95.1774C113.803 94.8358 113.276 94.981 113.363 95.323C113.528 95.9657 113.745 96.5944 113.911 97.2372C113.998 97.5787 114.525 97.4335 114.438 97.0916C114.272 96.4484 114.056 95.8201 113.891 95.1774Z" fill="#363970"/>
<path d="M152.553 84.884C153.392 80.504 153.03 75.8261 152.569 71.4287C151.957 65.5835 150.724 59.709 148.372 54.3047C148.312 54.1684 148.209 54.118 148.101 54.1172C148.066 54.0906 148.027 54.0802 147.983 54.0939C131.564 59.1052 118.771 62.7165 104.529 66.9565C104.461 66.9768 104.417 67.0172 104.386 67.0639C104.38 67.072 104.373 67.0794 104.367 67.0887C104.363 67.0961 104.361 67.1035 104.359 67.1106C104.333 67.1621 104.32 67.2217 104.338 67.2928C104.433 67.664 104.526 68.0352 104.62 68.4068C103.486 68.9588 101.659 69.3648 101.057 69.7498C101.057 69.7579 101.055 70.2925 101.057 70.301C101.162 70.9671 101.272 71.6321 101.386 72.296C99.9074 72.8335 98.1121 71.947 96.8059 71.3224C94.5627 70.2503 92.4377 68.9451 90.2083 67.8445C85.6334 65.5861 80.4769 64.232 75.7509 66.8472C75.4423 67.0176 75.7179 67.4903 76.0269 67.3191C81.3364 64.3813 87.0071 66.7238 91.912 69.3348C93.9048 70.3955 95.849 71.5747 97.9469 72.4216C99.0483 72.8661 100.333 73.2095 101.482 72.8424C102.522 78.8047 103.903 84.6836 105.608 90.4784C103.38 91.0615 101.247 91.9225 99.1128 92.7779C99.0746 92.7827 99.0353 92.7975 98.9953 92.826C93.5406 96.7693 88.8253 101.489 82.8608 104.722C80.0542 106.209 75.616 108.133 73.4866 104.462C78.316 100.89 81.3871 98.8761 84.6965 95.5797C84.9465 95.3307 84.5598 94.944 84.3097 95.1929C80.9603 98.5293 75.1837 102.633 72.6323 104.195C70.6021 104.98 67.611 103.581 67.9492 101.227C67.9715 101.216 67.9944 101.206 68.0152 101.186C71.4938 97.8692 75.2593 94.861 78.5434 91.3412C78.7835 91.0841 79.0117 90.0009 78.7705 90.2591C75.5515 93.7092 71.2575 97.3646 67.837 100.604C67.7844 100.581 67.724 100.58 67.6599 100.601C67.6392 100.607 67.6191 100.612 67.6003 100.622C65.6386 101.755 62.2859 99.969 62.7464 97.5769C64.2583 96.3536 65.5972 94.8747 66.9768 93.5107C69.211 91.3023 72.151 89.0206 74.4631 86.8941C74.7232 86.6548 73.6292 86.341 73.3702 86.5789C71.1541 88.6172 69.0102 90.7325 66.8686 92.8483C65.4093 94.2905 63.9956 95.8587 62.3997 97.1564C60.8389 97.1297 58.7339 96.757 58.2782 94.9362C57.8078 93.0553 59.6134 91.0341 60.6903 89.7478C63.2543 86.6867 66.883 84.1738 69.3381 81.0286C69.5526 80.7541 68.5672 80.5655 68.3501 80.8433C65.3178 84.7277 61.3305 87.4158 58.6291 91.5942C57.8152 92.8531 57.1179 94.4968 57.81 95.9513C58.522 97.4476 60.6751 97.6595 62.1774 97.6991C61.4657 100.037 64.4843 102.485 67.3872 101.321C67.149 104.041 69.6934 106.097 72.9753 104.644C74.8473 108.803 80.0157 106.847 83.1357 105.194C89.1039 101.959 93.8081 97.2475 99.2658 93.3013C101.4 92.4459 103.533 91.5857 105.761 91.0033C106.551 93.6533 107.408 96.2865 108.333 98.9009C108.336 98.9102 108.342 98.915 108.346 98.9235C108.368 99.0332 108.449 99.121 108.596 99.1017C109.999 98.9217 111.356 98.4782 112.658 97.9307C112.768 98.2537 112.876 98.5782 112.988 98.9009C112.991 98.9102 112.997 98.9146 113.001 98.9231C113.024 99.0324 113.206 99.4488 113.352 99.4203C118.206 98.463 152.346 85.5886 152.397 85.5205C152.47 85.4501 152.57 84.9755 152.553 84.884ZM108.781 98.5268C105.556 89.364 103.149 79.982 101.622 70.387C102.657 69.8854 103.47 69.513 104.863 69.3689C106.378 75.3834 107.697 80.9841 109.33 86.9545C110.29 90.4647 111.321 93.9559 112.484 97.4157C111.303 97.9181 110.052 98.34 108.781 98.5268ZM119.187 96.7967C117.347 97.4302 115.847 98.1778 113.9 98.4504C110.369 88.2556 107.719 78.3583 105.062 67.9189C119.201 63.7112 133.703 58.967 147.997 55.3105C150.123 60.4255 151.215 65.9436 151.828 71.4287C152.307 75.7165 152.656 80.3506 151.85 84.6284C150.002 85.4045 134.694 91.1297 129.047 93.2313C125.772 94.4509 122.491 95.6586 119.187 96.7967Z" fill="#363970"/>
<path d="M47.169 65.1893C47.169 65.1893 50.205 65.9955 50.5369 66.2703C50.8688 66.5452 48.2359 78.775 46.8804 84.059C45.5249 89.3429 43.2198 95.0729 43.2198 95.0729C43.2198 95.0729 39.7141 94.3116 38.9258 93.6762C39.9927 90.1861 47.169 65.1893 47.169 65.1893Z" fill="#FEFEFE"/>
<path d="M4.22373 51.1283L47.5685 63.3548C47.5685 63.3548 40.8987 90.1739 38.3006 95.0729C35.5658 94.4338 28.2295 92.194 28.2295 92.194C28.2295 92.194 5.35513 83.0283 2.62036 82.4104C-1.81189 74.9107 1.10886 60.3233 2.94229 54.1232C3.45279 52.3975 4.22373 51.1283 4.22373 51.1283Z" fill="#1C98B2"/>
<path d="M98.1269 94.5205C98.1269 94.5205 102.138 95.7512 103.004 92.6975C103.87 89.6441 99.9955 86.5018 99.9955 86.5018C99.9955 86.5018 97.443 81.7639 94.6175 83.7667C93.2883 85.0392 93.1134 87.6836 94.982 90.1905C92.8893 88.8635 91.0621 86.5444 89.3302 87.9344C88.4392 88.6079 87.9632 91.6487 89.3302 94.1101C87.4616 92.8342 85.2281 91.0567 83.1316 92.1507C82.0387 92.8108 80.9681 95.8127 84.043 99.6281C82.6889 99.3114 80.2201 96.0665 77.7502 98.2522C77.286 98.6627 76.9967 100.386 78.4556 103.408C79.9141 106.43 81.8553 109.573 85.0002 107.129C85.4574 106.149 86.4591 105.596 85.8664 103.271C87.2334 103.727 88.8757 104.036 90.675 102.468C92.5199 100.993 91.7001 98.167 91.7001 98.167C91.7001 98.167 98.2184 100.309 98.1269 94.5205Z" fill="#FCD1C8"/>
<path d="M102.826 90.2276C102.696 90.139 102.56 90.062 102.416 90.0005C102.416 90.0005 102.648 95.1133 97.4389 93.0624C96.5365 95.9339 95.946 98.5745 91.4559 96.6385C91.8197 100.993 89.737 103.669 85.2065 101.749C84.5727 105.778 83.4791 107.214 80.4023 106.53C80.4023 106.53 80.409 106.574 80.4249 106.652C81.6123 108.028 83.0838 108.623 85.0054 107.129C85.4625 106.149 86.4643 105.596 85.8715 103.271C87.2385 103.727 88.8808 104.036 90.6802 102.468C92.5251 100.993 91.7052 98.167 91.7052 98.167C91.7052 98.167 98.2232 100.309 98.1317 94.5205C98.1317 94.5205 102.142 95.7512 103.009 92.6975C103.246 91.8587 103.125 91.013 102.826 90.2276Z" fill="#FCD1C8"/>
<path d="M45.8496 88.2923C45.8496 88.2923 48.7263 88.3071 52.9614 90.0998C57.197 91.8921 58.2958 92.5611 58.2958 92.5611C58.2958 92.5611 57.6637 91.4801 64.6922 84.8714C67.6393 82.0329 68.7062 80.4325 68.7062 80.4325C68.7062 80.4325 73.7923 80.2739 76.6175 76.7552C78.3713 78.7065 87.484 85.7902 90.2547 83.2736C90.5462 82.4397 90.3766 80.524 88.1371 77.7307C85.8973 74.9377 81.3424 69.3626 74.9693 67.1295C71.9159 66.0447 66.4538 64.258 60.939 66.6738C55.4243 69.0892 55.9666 69.2015 50.5019 67.2662C49.9555 70.0458 47.327 82.1548 45.8496 88.2923Z" fill="#FCD1C8"/>
<path d="M54.4222 72.7546C54.4222 72.7546 53.8069 77.1335 54.4222 79.7312C51.6193 83.4914 51.2773 84.8588 51.2773 84.8588C51.2773 84.8588 53.3286 80.2139 53.3968 79.0154C53.4649 77.8166 53.4649 74.5287 54.4222 72.7546Z" fill="#FCD1C8"/>
<path d="M90.2523 83.2732C90.3424 83.0161 90.3876 82.6545 90.3427 82.197C89.4347 82.4441 85.074 83.0361 76.7063 75.1508C72.513 77.5206 67.7729 80.9541 63.1243 81.3338C63.1243 81.3338 64.1897 84.8588 60.7859 87.9348C57.3817 91.0115 47.9004 88.1444 47.9004 88.1444L49.9198 89.0206C50.82 89.2785 51.8414 89.6267 52.9587 90.0994C56.4348 91.5705 57.7977 92.284 58.1749 92.4933L58.2812 92.4185C58.3245 91.9632 58.9747 90.2446 64.6895 84.871C67.6366 82.0325 68.7035 80.4321 68.7035 80.4321C68.7035 80.4321 73.7896 80.2735 76.6148 76.7549C78.3693 78.7061 87.4816 85.7898 90.2523 83.2732Z" fill="#FCD1C8"/>
<path d="M45.1364 64.6951C44.9971 65.7369 44.7481 66.7567 44.4629 67.7674C44.3665 68.1071 44.8945 68.2516 44.99 67.9126C45.2897 66.8534 45.5376 65.7872 45.6835 64.6951C45.7302 64.3461 45.1823 64.3509 45.1364 64.6951Z" fill="#363970"/>
<path d="M43.9159 69.4082C43.7622 70.4266 43.5125 71.4257 43.2324 72.4163C43.1361 72.7561 43.6636 72.9005 43.7596 72.5616C44.04 71.5709 44.2897 70.5722 44.4431 69.5534C44.4953 69.2085 43.9681 69.0603 43.9159 69.4082Z" fill="#363970"/>
<path d="M42.6833 74.4672C42.5333 75.3089 42.2692 76.1188 41.9998 76.9282C41.888 77.2635 42.4162 77.4065 42.527 77.0738C42.7967 76.2644 43.0608 75.4542 43.2105 74.6125C43.272 74.2676 42.7448 74.1201 42.6833 74.4672Z" fill="#363970"/>
<path d="M41.5898 78.7057C41.2986 79.4985 41.2931 80.3617 41.043 81.1671C40.9382 81.505 41.4661 81.648 41.5702 81.3127C41.8202 80.5069 41.8262 79.6445 42.1174 78.8517C42.2389 78.5194 41.7102 78.3775 41.5898 78.7057Z" fill="#363970"/>
<path d="M40.4972 82.9442C40.3557 83.7292 40.0916 84.4839 39.9504 85.2685C39.8882 85.6134 40.4153 85.7609 40.4776 85.4141C40.6191 84.6291 40.8832 83.8745 41.0244 83.0898C41.0866 82.7449 40.5595 82.5978 40.4972 82.9442Z" fill="#363970"/>
<path d="M39.4035 87.0464C39.2553 87.7392 39.0045 88.4041 38.8567 89.0973C38.7829 89.4411 39.3105 89.5874 39.3838 89.2425C39.532 88.5497 39.7828 87.8847 39.931 87.1916C40.0044 86.8474 39.4768 86.7015 39.4035 87.0464Z" fill="#363970"/>
<path d="M38.0355 91.422C37.8703 92.0644 37.6536 92.693 37.4883 93.3362C37.4005 93.6777 37.9277 93.8226 38.0155 93.4814C38.1807 92.8386 38.3975 92.2099 38.5627 91.5672C38.6505 91.2252 38.1233 91.08 38.0355 91.422Z" fill="#363970"/>
<path d="M87.511 83.9326C88.8847 84.3372 90.7652 83.8948 90.5259 82.1366C90.1454 79.3444 88.1382 76.9694 86.3492 74.9774C84.2228 72.6097 81.8362 70.1032 79.0111 68.5261C76.0559 66.8768 72.3746 66.0644 69.0726 65.4938C66.1004 64.9804 63.4467 65.0082 60.7671 66.4808C59.4694 67.1939 58.2476 67.9196 56.7861 68.2545C54.7515 68.721 52.7547 67.4599 50.8027 67.0931C50.7946 67.0917 50.7879 67.0942 50.7798 67.0935C50.8094 66.9105 50.8409 66.7282 50.8694 66.5452C50.8709 66.5367 50.8687 66.0021 50.8698 65.994C50.2671 65.6091 48.441 65.2034 47.3059 64.6514C47.4 64.2798 47.493 63.9086 47.5878 63.5374C47.606 63.4667 47.5934 63.4066 47.5678 63.3551C47.5649 63.3474 47.5623 63.3403 47.5586 63.3329C47.5534 63.324 47.5467 63.3162 47.5404 63.3085C47.5089 63.2618 47.4652 63.2214 47.3971 63.201C33.1549 58.9611 20.3624 55.3501 3.94335 50.3385C3.8989 50.3248 3.86741 50.3381 3.84592 50.3696C3.75664 50.3859 3.67366 50.4415 3.61994 50.553C2.58634 52.6872 2.10659 55.1175 1.63165 57.4233C0.901836 60.9679 0.425787 64.5732 0.166091 68.1823C-0.0721177 71.4965 -0.123612 74.8999 0.51507 78.1745C0.838486 79.8342 1.01668 82.0088 2.5467 82.8961C2.72675 83.0068 17.1938 87.9485 23.3639 90.2372C26.5917 91.4349 33.7191 94.7072 38.573 95.6641C38.7185 95.6927 38.9004 95.2766 38.9234 95.1673C38.9271 95.1592 38.9334 95.154 38.9367 95.1448C39.049 94.8221 39.1568 94.4979 39.2672 94.1745C40.5686 94.7224 41.926 95.1655 43.3286 95.3455C43.4757 95.3648 43.5564 95.277 43.5787 95.1673C43.5824 95.1592 43.5891 95.154 43.592 95.1448C44.3952 92.8738 45.1472 90.5891 45.8489 88.2915C50.2652 88.8068 53.9658 91.5768 58.1768 92.7782C58.5166 92.8757 58.6607 92.3474 58.3224 92.2511C54.1062 91.0478 50.4163 88.3341 46.0074 87.7666C47.9994 81.163 49.568 74.4495 50.692 67.6273C52.072 67.8922 53.3189 68.9021 54.6897 69.2089C55.9229 69.4845 57.1636 68.7976 58.3254 68.3627C60.7942 67.438 62.578 65.7576 65.3598 65.6894C68.4395 65.6139 71.6214 66.4852 74.5414 67.3788C77.7833 68.3709 80.4403 69.7764 82.7935 72.2482C84.8526 74.4109 86.9983 76.7178 88.655 79.2033C89.2878 80.1528 89.9442 81.2664 89.9991 82.4322C90.0654 83.8337 88.143 83.5707 87.2843 83.2884C85.2578 82.6227 83.3548 81.3683 81.5736 80.2243C79.9094 79.1555 78.0367 78.0044 76.7649 76.4603C76.623 76.2881 76.4178 76.3807 76.3419 76.5404C76.2878 76.5581 76.2378 76.5933 76.1985 76.6526C75.0816 78.3619 72.8502 79.2166 71.0001 79.8153C67.367 80.9908 63.4515 81.2308 59.6595 81.2293C59.3068 81.229 59.3068 81.7758 59.6595 81.7762C63.7127 81.778 68.0149 81.9199 71.8774 80.6081C73.646 80.0075 75.4646 78.6461 76.5742 77.0653C77.8663 78.5305 79.7075 79.9486 81.3168 80.9967C83.2344 82.2463 85.2956 83.281 87.511 83.9326ZM38.4877 94.7698C36.5402 94.4972 34.579 93.6744 32.7392 93.0413C29.4343 91.9032 26.1538 90.6951 22.8786 89.4759C16.7411 87.1912 3.90631 82.4559 3.73663 82.3945C1.64425 81.6361 1.23637 78.3931 0.990007 76.5074C0.595832 73.4874 0.733274 70.3903 0.968149 67.3632C1.22192 64.092 1.70019 60.836 2.34554 57.62C2.76046 55.5524 4.136 51.947 5.06179 51.887C19.3729 55.5469 32.7604 59.7379 46.918 63.9509C44.2611 74.3898 42.0187 84.575 38.4877 94.7698ZM42.7885 94.7109C41.517 94.5246 40.6224 94.1626 39.4421 93.6603C42.5832 84.3149 44.6523 75.1837 47.0577 65.6331C48.095 66.131 49.269 66.1299 50.3041 66.6315C48.777 76.2266 46.0137 85.5482 42.7885 94.7109Z" fill="#363970"/>
<path d="M102.248 87.9348C100.534 86.2514 97.9724 82.084 94.9612 83.1847C92.4624 84.0982 93.0904 86.9063 94.1666 89.0762C92.4776 87.631 90.1696 86.3629 88.7641 88.0985C87.7779 89.3166 87.925 91.5001 88.5996 93.2791C87.9176 92.7641 87.1626 92.3437 86.3612 92.0214C85.2239 91.5642 82.95 91.2567 82.182 92.5437C81.1544 94.2667 81.5848 96.1757 82.6681 98.2255C81.2277 97.0115 79.7773 96.7674 78.118 97.7102C76.1472 98.8298 77.6123 102.004 78.2399 103.443C79.2398 105.737 80.04 108.658 82.903 108.421C85.1939 108.231 86.6821 105.7 86.2127 103.747C89.7243 104.984 93.0493 102.336 92.2591 98.593C95.1131 99.5014 98.3725 98.3808 98.3036 95.1547H98.3039V94.8399C98.3039 94.8399 98.587 94.9451 98.6829 94.9688C100.326 95.2581 102.04 95.0184 102.983 93.4476C103.969 91.8039 103.32 89.2755 102.248 87.9348ZM82.1135 107.485C80.3701 107.127 79.358 104.603 78.7152 103.173C78.1073 101.821 76.7025 98.7924 78.7886 97.9936C79.94 97.5528 81.1425 98.094 82.1954 98.9035L82.1939 98.9027C82.1939 98.9027 84.5415 100.943 85.74 104.145C86.1067 106.29 84.5185 107.977 82.1135 107.485ZM91.823 99.6429C91.8371 102.202 89.641 103.95 87.0966 103.436C85.4314 102.883 83.974 99.6085 83.9799 99.6922C83.5268 98.7901 83.2393 98.1148 83.2393 98.1148L83.2404 98.1163C82.6121 96.7159 82.238 95.1777 82.3369 93.7662C82.4747 91.788 84.8805 92.0969 86.2094 92.5467C87.0018 92.8153 87.7616 93.262 88.4359 93.8133L88.4355 93.8107C88.4355 93.8107 89.3009 94.3234 90.3623 95.9916C90.3675 95.999 90.3704 96.0057 90.3756 96.0135C90.7538 96.5525 91.1128 97.1034 91.4307 97.6784C91.4311 97.6758 91.4311 97.6728 91.4311 97.6728C91.4311 97.6728 91.9064 98.2189 91.823 99.6429ZM92.2179 98.004C91.5863 96.6863 90.6957 95.5145 89.8351 94.3379C89.1616 93.4084 88.8949 92.3162 88.8274 91.9958C88.6355 90.9496 88.999 90.2487 89.2535 89.3677C89.7947 87.4961 91.2147 87.7217 92.7966 88.7994L92.7958 88.7983C92.7958 88.7983 94.5885 89.7297 95.9563 91.9002C95.9544 91.9002 95.9526 91.8995 95.9507 91.8991C96.5742 92.7404 97.1596 93.6092 97.7175 94.4946C97.7112 94.5294 97.7093 94.565 97.7145 94.6024C98.2498 98.0618 94.856 98.9235 92.2179 98.004ZM102.514 93.165C101.736 94.7539 99.7254 94.6861 98.2547 94.3212C97.5274 93.1616 96.7535 92.0314 95.9111 90.9526C95.2783 90.0875 94.8456 89.2992 94.567 88.7172C94.5641 88.7109 94.5611 88.7053 94.5585 88.6994C94.2722 88.0974 94.1521 87.7206 94.1521 87.7206C94.1521 87.7206 94.154 87.7232 94.1547 87.724C94.1095 87.5973 94.0651 87.4702 94.0243 87.3416C93.5327 85.7772 93.9925 83.2473 96.1708 83.5996C98.5236 83.9804 100.083 87.2431 101.642 88.7746C102.628 90.0075 103.255 91.6527 102.514 93.165Z" fill="#363970"/>
<path d="M42.7865 92.5927C42.7865 93.191 42.3409 93.6763 41.7907 93.6763C41.2406 93.6763 40.7949 93.191 40.7949 92.5927C40.7949 91.9947 41.2406 91.5094 41.7907 91.5094C42.3409 91.5094 42.7865 91.9947 42.7865 92.5927Z" fill="#363970"/>
</svg>
