<svg width="251" height="211" viewBox="0 0 251 211" fill="none" xmlns="http://www.w3.org/2000/svg">
<path d="M192.918 130.882H171.645V144.537H192.918V130.882Z" fill="#F5CB49"/>
<path d="M182.216 136.699C181.859 136.412 181.418 136.218 181.017 135.998C180.62 135.78 180.223 135.563 179.826 135.345C179.046 134.917 178.266 134.489 177.486 134.06C176.706 133.632 175.925 133.205 175.143 132.781C174.374 132.365 173.587 131.82 172.707 131.706C172.49 131.678 172.442 131.958 172.548 132.089C172.833 132.44 173.208 132.691 173.598 132.915C173.99 133.14 174.382 133.366 174.775 133.591C175.533 134.027 176.294 134.458 177.055 134.889C177.816 135.32 178.577 135.751 179.338 136.183C179.732 136.406 180.125 136.629 180.518 136.851C180.916 137.077 181.314 137.357 181.745 137.509C182.186 137.664 182.593 137.002 182.216 136.699Z" fill="#F1AE2E"/>
<path d="M192.129 131.424C191.802 131.292 191.468 131.495 191.178 131.636C190.824 131.808 190.469 131.979 190.118 132.158L188.096 133.191C186.734 133.886 185.383 134.596 184.035 135.319C183.268 135.73 182.455 136.108 181.759 136.635C181.601 136.754 181.511 136.934 181.597 137.129C181.672 137.298 181.874 137.425 182.064 137.358C182.796 137.099 183.474 136.703 184.156 136.334C184.834 135.967 185.512 135.599 186.191 135.233C187.546 134.499 188.878 133.721 190.219 132.96C190.587 132.751 190.953 132.539 191.317 132.323C191.637 132.134 192.113 131.942 192.194 131.538C192.204 131.484 192.178 131.443 192.129 131.424Z" fill="#F1AE2E"/>
<path d="M178.677 135.53C177.788 136.491 176.923 137.479 176.06 138.464C175.208 139.437 174.305 140.402 173.61 141.494C173.502 141.664 173.731 141.8 173.867 141.693C174.878 140.896 175.749 139.907 176.626 138.965C177.507 138.018 178.395 137.074 179.252 136.105C179.596 135.715 179.035 135.144 178.677 135.53Z" fill="#F1AE2E"/>
<path d="M190.479 140.802C190.278 140.538 190.065 140.283 189.856 140.026C189.429 139.498 188.988 138.977 188.615 138.409C188.245 137.844 187.786 137.334 187.362 136.809C187.151 136.548 186.941 136.289 186.73 136.028C186.507 135.752 186.284 135.366 185.972 135.191C185.605 134.987 185.065 135.331 185.219 135.77C185.342 136.12 185.654 136.394 185.896 136.67C186.116 136.921 186.335 137.172 186.555 137.423C187.002 137.933 187.428 138.479 187.924 138.942C188.411 139.397 188.842 139.908 189.28 140.409C189.5 140.66 189.715 140.915 189.94 141.161C190.141 141.382 190.373 141.681 190.698 141.69C190.749 141.691 190.817 141.649 190.825 141.593C190.868 141.28 190.658 141.037 190.479 140.802Z" fill="#F1AE2E"/>
<path d="M209.044 130.882H198.782V141.144H209.044V130.882Z" fill="#F5CB49"/>
<path d="M204.651 129.201H202.977V132.579H204.651V129.201Z" fill="#A3C7E9"/>
<path d="M222.692 130.882H212.43V141.144H222.692V130.882Z" fill="#F5CB49"/>
<path d="M218.3 129.201H216.625V132.579H218.3V129.201Z" fill="#A3C7E9"/>
<path d="M236.341 130.882H226.079V141.144H236.341V130.882Z" fill="#F5CB49"/>
<path d="M231.947 129.201H230.273V132.579H231.947V129.201Z" fill="#A3C7E9"/>
<path d="M67.6352 135.942C67.6352 135.942 40.5849 135.942 37.7927 135.942C34.9998 135.942 29.7035 136.708 29.8127 142.939C29.9219 149.169 32.9825 184.915 32.9825 184.915H72.9916L67.6352 135.942Z" fill="#1C1822"/>
<path d="M35.6733 137.683C38.0694 138.934 39.2218 141.692 39.732 144.212C40.0363 145.713 40.1918 147.244 40.3521 148.766C40.5189 150.349 40.7062 151.932 40.819 153.52C40.9319 155.106 41.0741 156.69 41.2068 158.274C41.34 159.859 41.5249 161.44 41.6293 163.027C41.8394 166.202 42.1557 169.366 42.4336 172.536C42.5729 174.121 42.7109 175.705 42.8628 177.289C42.9378 178.074 43.0182 178.857 43.0699 179.643C43.0969 180.052 43.1047 180.457 43.1179 180.866C43.1305 181.257 43.1863 181.653 43.2199 182.043C43.2535 182.434 43.2133 182.828 43.2241 183.22C43.2259 183.275 43.1353 183.29 43.1263 183.233C43.0651 182.865 42.9516 182.503 42.9108 182.134C42.8676 181.742 42.8406 181.346 42.7848 180.957C42.6731 180.172 42.5441 179.392 42.4666 178.603C42.3148 177.047 42.1599 175.493 41.9955 173.939C41.8292 172.37 41.6629 170.801 41.5027 169.231C41.3442 167.677 41.217 166.116 41.0117 164.567C40.5969 161.436 40.316 158.289 39.9721 155.149C39.8016 153.595 39.6192 152.044 39.4817 150.486C39.3473 148.96 39.2596 147.422 39.0742 145.901C38.7579 143.309 38.0274 140.635 36.0533 138.804C35.8288 138.595 35.6175 138.379 35.3732 138.194C35.0779 137.969 35.327 137.502 35.6733 137.683Z" fill="#2A2433"/>
<path d="M115.945 173.651H119.502C119.502 173.651 123.721 171.996 125.955 171.748C128.188 171.5 131.415 178.036 131.415 178.036H115.283L115.945 173.651Z" fill="#F79F7D"/>
<path d="M77.0609 160.964C77.0609 160.964 80.7595 174.62 90.8595 178.746C109.068 178.746 116.75 178.746 116.75 178.746L116.638 172.204L93.4206 166.654C93.4206 166.654 85.6543 148.164 83.236 146.599C80.8171 145.034 73.2201 153.851 77.0609 160.964Z" fill="#F1AE2E"/>
<path d="M78.7506 142.764C78.7506 142.764 82.0008 144.259 84.068 147.579C85.2144 149.42 80.5452 159.797 79.0387 162.622C77.5321 165.448 77.2494 167.52 77.0609 169.215C76.8725 170.91 76.9901 179.642 76.9901 179.642H45.7227C45.7227 179.642 46.4759 167.587 48.1716 159.676C49.8666 151.765 54.0106 144.137 54.7638 143.289C55.5171 142.442 63.0019 140.457 63.0019 140.457L78.7506 142.764Z" fill="#F5CB49"/>
<path d="M75.2299 166.095C74.8577 165.937 74.4838 165.787 74.0816 165.724C73.6669 165.658 73.2503 165.601 72.8326 165.553C71.9941 165.456 71.1531 165.4 70.3092 165.383C68.634 165.35 66.9582 165.459 65.3004 165.698C61.9787 166.177 58.7273 167.219 55.7412 168.748C54.9141 169.172 54.102 169.629 53.3265 170.141C52.5294 170.668 51.8199 171.257 51.1213 171.907C51.0715 171.954 51.1363 172.039 51.1945 172.002C51.8818 171.564 52.5918 171.161 53.2851 170.733C53.9909 170.297 54.7106 169.879 55.4441 169.491C56.9038 168.721 58.4272 168.071 59.992 167.547C63.0951 166.508 66.367 165.96 69.64 165.945C70.5691 165.941 71.4989 165.981 72.4256 166.055C72.8824 166.091 73.3386 166.138 73.7929 166.196C74.2623 166.255 74.7161 166.264 75.1885 166.249C75.2623 166.246 75.3103 166.129 75.2299 166.095Z" fill="#F1AE2E"/>
<path d="M72.736 174.214C69.8567 174.159 66.9799 174.047 64.1012 173.955C62.6787 173.91 61.2525 173.919 59.8294 173.903C58.4051 173.887 56.9819 173.872 55.5576 173.874C54.7695 173.875 53.982 173.875 53.1945 173.887C52.7996 173.894 52.4064 173.898 52.0127 173.926C51.5925 173.955 51.2186 174.087 50.8194 174.216C50.7792 174.229 50.7786 174.285 50.8194 174.299C51.149 174.405 51.4845 174.546 51.8308 174.576C52.194 174.607 52.5571 174.617 52.9214 174.623C53.6333 174.634 54.3452 174.639 55.0576 174.639C56.497 174.641 57.9357 174.633 59.375 174.617C60.7988 174.6 62.2231 174.584 63.6468 174.567C65.0706 174.551 66.4955 174.476 67.9186 174.428C69.5242 174.374 71.1292 174.331 72.736 174.3C72.7912 174.298 72.7912 174.216 72.736 174.214Z" fill="#F1AE2E"/>
<path d="M54.7633 143.289C51.4195 143.917 36.5213 160.388 41.0344 166.662C45.5475 172.937 54.5737 161.929 56.6648 156.976C58.7566 152.022 63.7595 141.601 54.7633 143.289Z" fill="#F1AE2E"/>
<path d="M76.0131 179.257H104.967V176.087H76.0131V179.257Z" fill="#452F59"/>
<path d="M65.0723 179.257H83.3203V176.087H65.0723V179.257Z" fill="#311D41"/>
<path d="M72.8866 119.69C72.7575 119.72 68.6592 120.318 66.4828 123.708C64.3064 127.098 63.6834 133.697 62.3022 136.25C64.4787 138.97 70.5475 138.594 74.8169 137.966C79.0863 137.338 85.3226 140.31 85.3226 140.184C85.3226 140.059 86.2854 137.129 84.7368 133.362C83.1882 129.595 83.5232 126.707 82.3509 123.861C81.1793 121.015 78.3726 118.407 72.8866 119.69Z" fill="#A44E2A"/>
<path d="M77.2029 123.564C77.2029 123.564 80.2352 123.473 81.1451 125.535C82.0551 127.597 81.7082 130.582 82.4488 132.782C83.1895 134.983 83.995 136.391 83.8438 138.361C82.6613 137.603 78.9615 135.905 76.2935 136.026C73.6249 136.148 77.2029 123.564 77.2029 123.564Z" fill="#903A1F"/>
<path d="M78.3927 142.764C78.3927 142.764 77.7301 147.172 72.4661 147.272C67.2039 147.372 63.9957 144.666 62.644 140.456C66.4014 139.303 67.5539 139.051 68.0557 138.251C68.2507 137.937 68.546 136.999 68.8347 135.971C69.2813 134.364 69.7105 132.536 69.7105 132.536L75.7259 136.496C75.7259 136.496 75.1167 137.933 75.0873 139.228C75.0747 139.79 75.1713 140.326 75.4738 140.705C76.526 141.609 78.3927 142.764 78.3927 142.764Z" fill="#EF8764"/>
<path d="M75.7256 136.496C75.7256 136.496 75.1164 137.934 75.087 139.229C72.1159 138.645 70.1202 137.279 68.8345 135.971C69.281 134.364 69.7102 132.537 69.7102 132.537L75.7256 136.496Z" fill="#E4685F"/>
<path d="M79.1468 123.966C80.2386 124.393 80.9403 125.465 80.912 126.637C80.8892 127.601 80.8754 129.025 80.9481 130.198C81.0699 132.173 78.8263 136.668 77.0094 137.139C75.0755 137.109 73.1427 136.276 71.4189 135.266C69.2677 134.006 68.4922 131.563 70.0552 129.549C70.1686 129.403 70.2773 129.283 70.3739 129.194C71.0486 128.572 73.4519 126.571 73.1163 122.716C73.1163 122.716 74.2189 123.227 75.6151 123.364C76.7723 123.478 78.0754 123.547 79.1468 123.966Z" fill="#F79F7D"/>
<path d="M77.8864 126.086C77.7231 125.888 76.869 127.877 77.444 129.05C77.7537 129.757 78.5448 130.044 78.5538 130.254C78.5796 130.844 77.1343 131.262 77.1343 131.262C77.1343 131.262 79.2735 131.001 79.3023 130.154C79.3179 129.676 78.1811 129.599 77.7603 128.538C77.3402 127.476 77.9482 126.16 77.8864 126.086Z" fill="#E4685F"/>
<path d="M74.4014 132.062C74.4014 132.062 74.7393 133.075 76.0676 133.323C77.3959 133.571 78.139 132.287 78.139 132.287L74.4014 132.062Z" fill="white"/>
<path d="M74.0708 131.834C74.0708 131.834 74.1891 132.172 76.2928 132.314C78.1613 132.365 78.5323 132.25 78.5323 132.25L74.0708 131.834Z" fill="#E4685F"/>
<path d="M72.9824 128.307C72.9824 128.307 73.7999 127.841 74.6318 127.863C75.6966 127.89 76.2428 128.697 76.2428 128.697C76.2428 128.697 74.651 128.628 72.9824 128.307Z" fill="#2A2433"/>
<path d="M72.8623 127.225C72.8623 127.225 73.8527 126.635 76.0579 126.415C76.475 126.373 76.8286 126.071 76.9168 125.661C76.9276 125.611 76.9276 125.591 76.9276 125.591C76.9276 125.591 74.2104 125.53 72.8623 127.225Z" fill="#2A2433"/>
<path d="M79.6666 128.527C79.6666 128.929 79.3413 129.254 78.9398 129.254C78.5382 129.254 78.2129 128.929 78.2129 128.527C78.2129 128.126 78.5382 127.801 78.9398 127.801C79.3413 127.801 79.6666 128.126 79.6666 128.527Z" fill="#2A2433"/>
<path d="M78.1904 126.101C78.1904 126.101 78.1898 126.596 78.5326 126.778C78.8093 126.901 79.9977 126.75 80.8128 127.042C80.6783 126.556 80.0667 126.332 79.5745 126.256C79.0818 126.178 78.3285 126.224 78.1904 126.101Z" fill="#2A2433"/>
<path d="M76.6002 134.78C76.0306 134.285 73.8662 134.172 74.087 134.697C74.3085 135.222 77.65 135.691 76.6002 134.78Z" fill="#EF8764"/>
<path d="M64.7188 128.186L70.3813 125.725L74.0522 135.45L67.999 137.91L64.7188 128.186Z" fill="#2A2433"/>
<path d="M66.7559 144.305C66.7559 144.305 69.2324 141.122 69.9989 139.205C70.7654 137.289 69.6154 132.833 69.6154 132.833C69.6154 132.833 72.9694 132.018 73.1609 131.491C73.3524 130.964 67.8903 132.162 67.8903 132.162C67.8903 132.162 69.0884 131.348 69.8549 130.869C70.6213 130.39 72.4418 129.958 72.2984 129.384C72.1543 128.809 67.7469 130.294 67.0758 131.109C67.0758 131.109 68.0974 129.721 69.2426 128.99C70.3879 128.259 71.7552 127.704 71.7624 127.343C71.7696 126.982 71.239 126.961 70.4101 127.191C69.5811 127.42 68.3705 128.14 67.7487 128.51C67.1268 128.881 66.7121 129.525 66.7121 129.525C66.7121 129.525 67.3957 127.844 67.8417 126.77C68.3915 125.448 69.3345 124.822 68.7781 124.43C68.2216 124.037 66.2541 126.601 65.5561 128.292C64.858 129.983 65.1305 131.499 65.0651 131.99C64.9996 132.481 66.1449 136.909 65.7523 137.924C65.3598 138.938 63.1996 141.392 63.211 141.425C63.2212 141.457 66.7559 144.305 66.7559 144.305Z" fill="#F79F7D"/>
<path d="M63.2998 140.354L68.4978 143.52C68.4978 143.52 63.7062 152.552 62.1942 155.009C60.6823 157.466 54.9393 166.472 49.4107 168.314C43.882 170.157 40.6408 168.379 40.3569 165.591C40.0736 162.802 41.3227 158.487 45.7907 154.628C47.9245 152.785 48.8915 152.724 53.7581 148.661C58.6253 144.597 63.2998 140.354 63.2998 140.354Z" fill="#F5CB49"/>
<path d="M68.7557 143.442C68.2521 143.781 67.9376 144.289 67.6086 144.79C67.2773 145.295 66.9874 145.834 66.6783 146.353C66.0427 147.422 65.4226 148.499 64.8032 149.577C64.1916 150.642 63.5883 151.712 62.9599 152.767C62.3429 153.802 61.6808 154.807 61.0518 155.835C58.8082 159.499 56.5795 163.311 53.0514 165.904C52.1439 166.571 51.1751 167.177 50.1487 167.644C49.6421 167.874 49.1211 168.11 48.5894 168.277C48.0522 168.445 47.4927 168.515 46.9603 168.694C46.8133 168.743 46.8427 168.949 46.9964 168.96C47.5047 168.995 48.0023 168.88 48.4957 168.762C48.9945 168.642 49.4903 168.529 49.9759 168.36C50.9182 168.031 51.848 167.574 52.6877 167.036C54.4727 165.893 56.0213 164.421 57.3664 162.789C58.8136 161.034 60.0272 159.103 61.1886 157.151C61.7931 156.134 62.3393 155.09 62.9083 154.054C63.5205 152.938 64.1964 151.855 64.8518 150.764C65.5697 149.569 66.2965 148.378 66.9964 147.171C67.3463 146.568 67.6957 145.965 68.0456 145.361C68.3847 144.777 68.7425 144.15 68.8001 143.468C68.8001 143.445 68.7731 143.43 68.7557 143.442Z" fill="#F1AE2E"/>
<path d="M169.371 178.818L169.293 209.637L48.0762 209.283L48.1542 178.643C48.1542 178.643 169.641 178.55 169.371 178.818Z" fill="#F29755"/>
<path d="M48.56 178.465L48.4814 209.284L9.47705 209.158L9.55508 178.518C9.55508 178.518 48.6567 178.196 48.56 178.465Z" fill="#D57146"/>
<path d="M47.2052 177.958L47.105 209.273L49.4879 209.281L49.5881 177.966L47.2052 177.958Z" fill="white"/>
<path d="M6.23241 177.093L6.22461 179.476L175.018 179.984L175.026 177.404L6.23241 177.093Z" fill="#452F59"/>
<path d="M6.23175 177.088L6.22412 179.471L53.0043 179.62L53.012 177.238L6.23175 177.088Z" fill="#5B3F77"/>
<path d="M91.9689 189.404L122.369 189.502C123.539 189.505 124.49 188.56 124.494 187.391C124.497 186.221 123.553 185.269 122.383 185.266L91.9827 185.168C90.8129 185.164 89.8615 186.109 89.8579 187.279C89.8537 188.449 90.7991 189.4 91.9689 189.404Z" fill="#D57146"/>
<path d="M65.6262 194.293L56.5766 203.342C56.4241 203.495 56.6606 203.731 56.8131 203.579L63.8645 196.527C64.5307 195.861 65.1964 195.195 65.8626 194.529C66.0145 194.377 65.778 194.14 65.6262 194.293Z" fill="#D57146"/>
<path d="M71.5852 192.085C68.8386 194.832 66.0919 197.578 63.3453 200.325C62.5608 201.11 61.7757 201.894 60.9906 202.679C60.8382 202.831 61.0747 203.068 61.2271 202.915L71.8217 192.321C71.9741 192.17 71.7376 191.933 71.5852 192.085Z" fill="#D57146"/>
<path d="M150.602 188.995L140.633 198.965C139.688 199.908 138.745 200.852 137.801 201.797C137.648 201.949 137.885 202.185 138.037 202.033L148.007 192.063C148.951 191.12 149.895 190.176 150.839 189.232C150.991 189.079 150.755 188.843 150.602 188.995Z" fill="#D57146"/>
<path d="M157.003 187.892C153.625 191.27 150.246 194.648 146.868 198.027L143.981 200.914C143.829 201.066 144.065 201.303 144.218 201.15L157.24 188.128C157.392 187.976 157.156 187.739 157.003 187.892Z" fill="#D57146"/>
<path d="M191.095 209.105H0.530973C-0.176691 209.105 -0.177291 210.205 0.530973 210.205H191.095C191.802 210.204 191.804 209.105 191.095 209.105Z" fill="#D57146"/>
<path d="M99.2422 159.517C99.2422 163.263 101.22 163.362 102.821 163.362H105.461C105.499 163.362 105.519 163.362 105.519 163.362H151.998C154.672 163.362 156.233 162.247 156.233 159.796V130.046C156.233 127.485 154.195 126.147 151.219 126.147C151.219 126.147 119.069 126.147 108.525 126.147H105.704C100.802 126.147 99.9252 128.816 99.9252 130.823C99.9258 132.828 99.2422 155.562 99.2422 159.517Z" fill="#452F59"/>
<path d="M120.599 151.089H136.953V140.747H120.599V151.089Z" fill="#1C1822"/>
<path d="M99.2422 159.517C99.2422 163.263 101.22 163.362 102.821 163.362H105.196C103.593 163.362 101.618 163.263 101.618 159.517C101.618 155.561 102.3 132.828 102.3 130.823C102.3 128.816 103.177 126.147 108.08 126.147H105.704C100.802 126.147 99.9258 128.816 99.9258 130.823C99.9258 132.828 99.2422 155.562 99.2422 159.517Z" fill="#311D41"/>
<path d="M124.945 176.353H131.785V142.793H124.945V176.353Z" fill="#1C1822"/>
<path d="M126.013 176.353H132.853V142.793H126.013V176.353Z" fill="#311D41"/>
<path d="M121.137 177.404H144.44V174.233H121.137V177.404Z" fill="#452F59"/>
<path d="M112.332 177.404H122.593V174.233H112.332V177.404Z" fill="#311D41"/>
<path d="M121.97 111.377C121.015 110.295 119.731 109.568 118.463 108.878C117.196 108.188 115.898 107.497 114.891 106.463C113.447 104.978 112.95 102.545 112.509 100.522C111.665 96.6444 107.818 93.6511 103.853 93.7843C101.18 93.8743 98.3132 95.1678 95.9771 93.8671C93.7587 92.6319 93.2485 89.7154 91.805 87.626C90.0499 85.0859 86.6425 83.8158 83.6528 84.5883C80.6636 85.3602 78.297 88.1218 77.9914 91.1938C77.8462 92.6541 78.1253 94.1294 78.0059 95.5922C77.8864 97.0549 77.2226 98.6293 75.8612 99.1773C75.1428 99.4666 74.3361 99.4282 73.5864 99.6245C72.2587 99.9726 71.0535 102.292 70.6075 103.545C70.0625 105.079 69.9935 106.815 69.0511 108.191C68.2786 109.32 66.9563 109.933 65.6586 110.364C64.3604 110.794 62.9967 111.106 61.8478 111.848C60.699 112.591 59.8845 114.063 60.1036 115.413H83.0675L123.111 115.367C123.505 113.978 122.925 112.459 121.97 111.377Z" fill="#8BC53F"/>
<path d="M90.5888 106.777C90.5888 106.777 87.1417 106.087 83.8891 103.428C80.6389 100.767 76.2044 104.413 73.9392 101.063C71.6739 97.7139 74.5298 94.8557 71.6739 93.0826C68.8157 91.3095 65.5654 93.2795 63.7924 90.9158C62.0175 88.5503 62.7072 82.8374 61.2294 80.7672C59.7523 78.6988 56.5015 79.29 56.5015 79.29C56.5015 79.29 56.5033 79.2882 56.5033 79.2864C56.5489 79.1934 57.3478 77.6995 62.2138 77.2217C67.2389 76.7295 66.9436 79.9797 70.9837 80.7672C75.022 81.5553 76.8935 82.3452 77.8802 84.8073C78.8652 87.2694 77.5519 89.1121 80.4414 89.7339C83.3303 90.354 84.733 88.2148 87.042 91.507C89.3493 94.7992 86.3524 99.3885 90.4891 103.229C90.5035 103.747 90.5167 104.189 90.5275 104.566C90.5888 106.777 90.5888 106.777 90.5888 106.777Z" fill="#5D8E3F"/>
<path d="M90.5282 104.566C83.0188 101.539 81.5945 96.9583 76.3029 92.5898C70.096 87.4663 69.7022 81.161 63.9893 79.191C58.421 77.2703 56.5951 79.1874 56.5039 79.2859C56.5495 79.1928 57.3484 77.6989 62.2144 77.2211C67.2395 76.7289 66.9442 79.9791 70.9843 80.7666C75.0226 81.5547 76.8941 82.3446 77.8809 84.8067C78.8658 87.2688 77.5526 89.1115 80.442 89.7334C83.3309 90.3534 84.7336 88.2142 87.0427 91.5064C89.35 94.7987 86.353 99.388 90.4898 103.229C90.5048 103.747 90.5174 104.189 90.5282 104.566Z" fill="#7DAD41"/>
<path d="M91.5902 95.8803C90.3333 90.0089 84.4601 91.8966 82.4686 89.4855C80.4752 87.0726 82.6786 84.0319 82.1528 80.676C81.6294 77.322 76.1758 78.5782 74.8133 75.328C73.4508 72.0778 76.3859 70.2957 76.8048 67.5689C77.2244 64.8421 74.4994 65.2617 71.2948 63.7515C68.0902 62.2395 69.9887 59.9137 68.4167 56.7673C66.8447 53.6227 61.6006 53.7266 61.6006 53.7266C61.6006 53.7266 61.606 53.7248 61.6168 53.7212C66.6491 51.8407 73.4544 52.4715 77.1206 55.301C80.2195 57.6923 79.5905 61.5643 84.6702 63.8992C89.7499 66.234 90.9629 66.3103 90.4959 71.4488C90.0272 76.5867 90.3339 77.0062 93.6879 80.7823C97.0438 84.5553 94.6327 95.3569 91.5902 95.8803Z" fill="#5D8E3F"/>
<path d="M91.5901 95.8803C92.5606 86.2299 85.6587 74.3701 79.3167 62.374C73.1152 50.6462 62.1077 53.5843 61.6167 53.7212C66.649 51.8407 73.4543 52.4715 77.1205 55.301C80.2194 57.6923 79.5904 61.5643 84.6701 63.8992C89.7498 66.234 90.9628 66.3103 90.4959 71.4488C90.0271 76.5867 90.3338 77.0063 93.6879 80.7823C97.0437 84.5553 94.6326 95.3569 91.5901 95.8803Z" fill="#7DAD41"/>
<path d="M132.848 83.377H94.127V89.8156H132.848V83.377Z" fill="#2A2433"/>
<path d="M94.9003 83.1567H93.5811V89.7604H94.9003V83.1567Z" fill="#1C1822"/>
<path d="M116.473 83.1567H115.153V89.7604H116.473V83.1567Z" fill="#1C1822"/>
<path d="M134.661 83.708V82.7464L92.6347 82.7464V83.708L134.661 83.708Z" fill="#1C1822"/>
<path d="M116.281 85.1207C115.946 85.0571 115.604 84.9562 115.263 84.937C114.898 84.916 114.535 84.9172 114.169 84.9154C113.455 84.9118 112.741 84.9088 112.026 84.9112C110.583 84.9166 109.139 84.9226 107.695 84.928C104.838 84.9394 101.98 84.9364 99.1234 84.9388C98.3329 84.9394 97.543 84.9382 96.7525 84.9544C95.9482 84.9712 95.1739 85.0451 94.378 85.1579C94.3642 85.1597 94.3642 85.1837 94.378 85.1855C95.0809 85.2851 95.7682 85.368 96.4794 85.383C97.1937 85.398 97.9079 85.4034 98.6222 85.404C100.066 85.4052 101.51 85.4064 102.953 85.4076C105.81 85.41 108.668 85.419 111.525 85.4304C112.316 85.4334 113.106 85.4334 113.896 85.4298C114.29 85.428 114.688 85.44 115.082 85.4172C115.489 85.3938 115.88 85.299 116.281 85.2233C116.332 85.2143 116.332 85.1303 116.281 85.1207Z" fill="#1C1822"/>
<path d="M109.906 86.707C108.8 86.6818 107.689 86.7118 106.584 86.6524C105.49 86.5936 104.404 86.5186 103.308 86.5132C101.109 86.5018 98.9099 86.4844 96.7107 86.4874C96.4076 86.488 96.1039 86.488 95.8008 86.4886C95.6489 86.4886 95.4977 86.4892 95.3458 86.4892C95.2042 86.4892 95.0271 86.521 94.8908 86.4898C94.8692 86.4958 94.8476 86.5018 94.8266 86.5072C94.7984 86.4544 94.7594 86.4123 94.7102 86.3805C94.6315 86.3199 94.5367 86.2833 94.4359 86.2833C94.209 86.2833 94.0211 86.4544 93.9917 86.6758C93.9305 87.1296 94.6045 87.4123 94.8266 86.9645C94.8338 86.9507 95.4653 86.9832 95.5283 86.9832C95.7708 86.9832 96.0139 86.9838 96.2563 86.9838C96.7569 86.9844 97.2575 86.9868 97.7581 86.9844C98.7443 86.9796 99.7298 86.9754 100.716 86.9706C101.687 86.9658 102.657 86.9615 103.628 86.9567C104.617 86.9519 105.599 86.8721 106.586 86.8187C107.691 86.7593 108.802 86.7893 109.908 86.7641C109.943 86.7635 109.943 86.7076 109.906 86.707Z" fill="#1C1822"/>
<path d="M132.848 86.443V86.8026C132.226 86.8446 131.604 86.8884 130.98 86.9046C128.387 86.9796 125.782 86.9244 123.186 86.9262L119.267 86.9298C118.626 86.9298 117.99 86.946 117.351 86.9736C117.062 86.9862 116.764 86.9976 116.472 86.9844C116.43 86.9844 116.388 86.9826 116.348 86.979C116.184 86.9682 116.02 86.9556 115.857 86.9208C115.689 86.8878 115.638 86.8386 115.529 86.7185C115.479 86.6657 115.479 86.5889 115.529 86.5379C115.66 86.392 115.744 86.3518 115.943 86.317C116.116 86.284 116.297 86.275 116.472 86.2714H116.484C116.849 86.266 117.213 86.275 117.578 86.2912C118.308 86.3206 119.036 86.326 119.767 86.326C122.364 86.3278 124.964 86.3296 127.561 86.3332C128.865 86.3332 130.178 86.2966 131.48 86.3662C131.938 86.3902 132.394 86.4178 132.848 86.443Z" fill="#1C1822"/>
<path d="M133.341 83.1567H132.021V89.7604H133.341V83.1567Z" fill="#1C1822"/>
<path d="M178.258 41.8793C178.258 41.8793 205.309 41.8793 208.101 41.8793C210.893 41.8793 216.19 42.6446 216.081 48.8756C215.972 55.1065 212.91 90.8522 212.91 90.8522H172.901L178.258 41.8793Z" fill="#1C1822"/>
<path d="M210.221 43.6201C207.825 44.8715 206.672 47.629 206.162 50.1487C205.858 51.6499 205.702 53.1816 205.542 54.7032C205.376 56.286 205.188 57.8694 205.075 59.457C204.962 61.0428 204.82 62.6268 204.687 64.2107C204.554 65.7959 204.369 67.3769 204.265 68.9645C204.055 72.1385 203.739 75.3035 203.461 78.4727C203.321 80.0579 203.183 81.6424 203.031 83.2264C202.956 84.0109 202.876 84.7942 202.824 85.5805C202.797 85.9893 202.79 86.3944 202.776 86.8032C202.764 87.1945 202.708 87.5901 202.674 87.9802C202.641 88.371 202.681 88.7647 202.67 89.1572C202.668 89.2125 202.759 89.2269 202.768 89.1705C202.829 88.8019 202.943 88.4406 202.983 88.0708C203.027 87.6795 203.054 87.2834 203.11 86.8938C203.221 86.1093 203.35 85.3296 203.428 84.5397C203.579 82.9846 203.734 81.43 203.899 79.8766C204.065 78.307 204.231 76.738 204.391 75.1678C204.549 73.6139 204.677 72.0527 204.882 70.5047C205.297 67.3739 205.578 64.227 205.922 61.0872C206.092 59.5326 206.274 57.9822 206.412 56.4234C206.546 54.8977 206.634 53.3587 206.819 51.8383C207.136 49.2466 207.866 46.5726 209.84 44.7407C210.065 44.5324 210.276 44.3163 210.52 44.1309C210.816 43.9058 210.567 43.4394 210.221 43.6201Z" fill="#2A2433"/>
<path d="M164.922 55.1323C164.922 55.1323 163.209 55.8172 162.092 57.3231C160.974 58.8291 153.884 74.223 152.716 76.3184C151.547 78.4138 150.189 80.8849 150.869 83.7516C151.549 86.6177 154.319 87.5894 156.99 86.4724C159.663 85.3548 161.12 84.6261 163.16 79.6713C165.2 74.7158 168.601 69.0803 168.601 69.0803L164.922 55.1323Z" fill="#2A2433"/>
<path d="M156.732 78.5729C156.732 78.5729 157.735 77.9859 158.909 78.0591C160.083 78.1324 161.428 79.7223 162.285 79.9912C163.752 80.2848 164.119 80.1137 164.119 80.3826C164.119 80.6515 163.599 81.7313 162.138 81.4342C160.677 81.1377 156.732 78.5729 156.732 78.5729Z" fill="#E4685F"/>
<path d="M151.601 82.8982C151.601 82.8982 151.301 85.0794 153.258 86.0331C155.215 86.9869 158.395 84.9569 158.933 83.514C158.81 80.75 156.266 79.7716 156.266 79.7716L151.601 82.8982Z" fill="#E4685F"/>
<path d="M158.66 78.1924C157.728 77.7266 153.582 79.5957 151.601 82.8981C151.654 83.5632 154.146 85.9635 154.936 85.8722C156.132 85.775 156.23 84.7474 156.23 84.7474C156.23 84.7474 156.896 84.9335 157.372 84.3399C157.861 83.7366 157.133 81.6185 157.133 81.6185C157.133 81.6185 160.187 86.0355 161.054 86.1177C161.921 86.2 160.93 84.3837 160.93 84.3837C160.93 84.3837 161.797 85.3747 162.045 84.9617C162.292 84.5494 160.394 79.0591 158.66 78.1924Z" fill="#F79F7D"/>
<path d="M156.281 84.3124C156.108 84.0807 153.98 82.819 153.855 82.7614C153.721 82.6996 153.591 82.6978 153.45 82.6665C153.417 82.6593 153.387 82.7014 153.415 82.7272C153.504 82.8118 153.568 82.9102 153.669 82.9847C153.779 83.0663 155.702 84.5254 155.954 84.6395C156.053 84.6839 156.164 84.6827 156.244 84.6023C156.313 84.5332 156.344 84.3964 156.281 84.3124Z" fill="#E4685F"/>
<path d="M161.032 84.2853C160.889 83.8861 160.688 83.5002 160.497 83.1227C160.303 82.7385 160.104 82.3484 159.856 81.996C159.368 81.3022 158.933 80.5735 158.33 79.9703C158.306 79.9463 158.267 79.9769 158.283 80.0063C158.691 80.7386 159.187 81.4192 159.534 82.1839C159.707 82.5663 159.909 82.936 160.088 83.3159C160.266 83.6965 160.412 84.0914 160.59 84.4708C160.706 84.7169 161.124 84.5434 161.032 84.2853Z" fill="#E4685F"/>
<path d="M169.093 53.3472C169.093 53.3472 166.351 54.6815 164.922 55.1323C163.795 56.0344 163.945 63.6278 164.17 66.3343C164.396 69.0407 165.148 85.0546 163.87 89.4903C186.575 89.4903 195.973 89.4903 195.973 89.4903C195.973 89.4903 196.54 60.242 193.85 53.5141C189.746 52.5687 184.811 50.9331 184.811 50.9331L169.093 53.3472Z" fill="#383044"/>
<path d="M172.575 50.8995C172.575 50.8995 171.058 52.3472 169.093 53.3472C168.197 56.7253 167.231 60.862 167.576 64.1026L170.747 64.8265L168.473 67.4807L174.505 73.5819C174.505 73.5819 178.986 71.7549 182.364 68.0317C181.399 65.8252 181.158 64.7917 181.158 64.7917L184.571 64.0336C184.571 64.0336 186.053 60.242 184.812 50.9343C183.226 49.9691 180.434 48.5214 180.434 48.5214L172.575 50.8995Z" fill="#2A2433"/>
<path d="M182.365 51.4776C181.987 56.831 180.21 62.272 177.595 67.6176L172.944 67.0137C170.451 57.2043 172.001 51.7327 172.001 51.7327C172.001 51.7327 176.856 51.0562 182.365 51.4776Z" fill="#A3C7E9"/>
<path d="M177.595 67.6181C176.755 69.3383 175.826 71.049 174.83 72.7434C174.013 70.8413 173.401 68.9038 172.944 67.0143C173.681 63.171 174.83 57.5974 174.83 57.5974C176.742 56.182 176.857 57.5662 176.857 57.5662C176.857 57.5662 177.338 63.3097 177.595 67.6181Z" fill="#1C1822"/>
<path d="M173.415 55.5614C173.415 55.5614 173.644 56.7955 174.83 57.5974C176.628 57.5974 176.857 57.5668 176.857 57.5668C176.857 57.5668 178.426 56.2403 178.693 55.2223C177.584 54.0807 175.136 53.7728 175.136 53.7728C175.136 53.7728 173.683 54.0189 173.415 55.5614Z" fill="#1C1822"/>
<path d="M205.187 77.4408C205.174 77.4378 205.161 77.445 205.157 77.4582L205.112 77.6065C205.109 77.6173 205.116 77.6299 205.127 77.6329C205.139 77.6359 205.149 77.6287 205.154 77.6179C205.171 77.5693 205.188 77.5206 205.205 77.472C205.209 77.4588 205.2 77.4432 205.187 77.4408Z" fill="#1C1822"/>
<path d="M180.195 78.6334C180.195 78.6334 178.039 82.5312 179.207 85.7184C181.637 83.2623 181.826 81.9322 180.195 78.6334Z" fill="#A3C7E9"/>
<path d="M181.867 80.9167C181.867 80.9167 180.416 80.7427 178.558 80.104C176.7 79.4654 170.976 76.3604 168.774 76.9036C167.328 77.2608 163.28 80.7817 163.232 81.149C163.183 81.5164 164.451 81.2649 165.496 80.8009C166.541 80.3363 169.095 78.7691 169.095 78.7691L170.199 79.1755C170.199 79.1755 168.283 81.2073 167.761 82.2522C167.238 83.2972 166.657 85.2131 166.541 85.7353C166.425 86.2575 167.122 86.8962 167.876 86.1999C168.747 86.7941 169.792 86.1999 169.792 86.1999C169.792 86.1999 170.257 86.548 171.302 86.3158C172.985 85.3866 174.379 83.9359 174.379 83.9359C174.379 83.9359 176.294 84.4587 180.59 84.4587C181.983 82.6586 181.867 80.9167 181.867 80.9167Z" fill="#F79F7D"/>
<path d="M170.967 80.9215C170.529 81.1616 170.149 81.5667 169.819 81.9341C169.475 82.3176 169.158 82.733 168.887 83.1711C168.621 83.6021 168.395 84.0564 168.202 84.5246C168.103 84.7671 168.017 85.0144 167.943 85.2659C167.877 85.4928 167.811 85.7227 167.952 85.9351C167.971 85.9628 168.006 85.9742 168.037 85.9574C168.23 85.8469 168.293 85.6602 168.355 85.4574C168.429 85.2191 168.514 84.9838 168.603 84.7515C168.78 84.2929 169 83.8506 169.252 83.4286C169.506 83.0043 169.785 82.5973 170.102 82.218C170.422 81.8344 170.805 81.5073 171.122 81.1238C171.213 81.0151 171.101 80.8477 170.967 80.9215Z" fill="#E4685F"/>
<path d="M172.473 82.2594C171.818 82.79 171.27 83.4568 170.773 84.1345C170.524 84.473 170.29 84.8235 170.085 85.1903C169.983 85.3733 169.883 85.5582 169.793 85.7479C169.716 85.9117 169.605 86.1266 169.722 86.2977C169.758 86.3517 169.808 86.3667 169.87 86.3583C170.052 86.3331 170.141 86.1404 170.214 85.9946C170.309 85.8067 170.402 85.6194 170.503 85.4352C170.699 85.0768 170.903 84.7227 171.127 84.3806C171.58 83.6879 172.127 83.0781 172.673 82.4599C172.796 82.3212 172.613 82.1453 172.473 82.2594Z" fill="#E4685F"/>
<path d="M183.172 77.3965C183.172 77.3965 180.399 82.9821 182.738 86.4857C185.689 83.4833 185.431 80.1983 185.431 80.1983L183.172 77.3965Z" fill="#1C1822"/>
<path d="M180.195 78.6334C180.195 78.6334 181.183 81.0379 180.797 82.6267C180.41 84.2155 179.208 85.7184 179.208 85.7184H184.576L184.404 79.3633L180.195 78.6334Z" fill="white"/>
<path d="M206.205 83.5049C198.827 88.5738 182.738 86.4856 182.738 86.4856C185.466 81.3525 183.172 77.3964 183.172 77.3964L192.343 76.9474C192.343 76.9474 190.728 57.1419 194.086 53.5153C200.263 56.0002 200.6 69.5635 203.822 73.2573C207.046 76.9492 205.702 76.8166 205.77 78.5626C205.837 80.3063 206.675 81.2216 206.205 83.5049Z" fill="#2A2433"/>
<path d="M202.437 76.6834C202.043 76.5634 201.621 76.5952 201.215 76.5988C200.781 76.6018 200.347 76.6078 199.913 76.6036C199.06 76.5946 198.208 76.5916 197.356 76.5814C196.503 76.5712 195.65 76.585 194.799 76.594C194.365 76.5988 193.931 76.6042 193.497 76.615C193.083 76.6252 192.648 76.6012 192.239 76.6708C192.067 76.7002 192.063 76.9973 192.239 77.0231C192.65 77.0831 193.082 77.0507 193.497 77.0513C193.931 77.0519 194.365 77.0483 194.799 77.0429C195.651 77.0327 196.504 77.0267 197.356 76.9973C198.208 76.9679 199.06 76.9451 199.913 76.9169C200.347 76.9025 200.781 76.8989 201.215 76.8917C201.621 76.8857 202.046 76.9079 202.437 76.7794C202.483 76.7638 202.485 76.6978 202.437 76.6834Z" fill="#1C1822"/>
<path d="M199.816 75.259C199.712 74.8928 199.355 74.72 199.03 74.5909C197.672 74.0513 196.086 74.1534 194.762 74.7392C194.04 75.0585 193.285 75.5507 192.875 76.2409C192.821 76.3316 192.935 76.4654 193.029 76.3952C193.501 76.0393 193.95 75.6629 194.479 75.388C195.021 75.1065 195.607 74.915 196.21 74.8142C196.793 74.717 197.407 74.7176 197.989 74.8202C198.289 74.873 198.581 74.9535 198.867 75.0561C199.043 75.1191 199.676 75.4264 199.286 75.6275C199.149 75.6983 198.954 75.6737 198.806 75.6701C198.578 75.6647 198.351 75.6623 198.122 75.6623C197.689 75.6629 197.202 75.6209 196.785 75.759C196.726 75.7782 196.732 75.8508 196.785 75.8718C197.222 76.0483 197.75 76.0309 198.214 76.0615C198.589 76.0867 199.035 76.1659 199.402 76.0441C199.738 75.9318 199.913 75.6029 199.816 75.259Z" fill="#1C1822"/>
<path d="M185.463 84.2822C184.894 84.2822 184.893 85.1669 185.463 85.1669C186.032 85.1669 186.033 84.2822 185.463 84.2822Z" fill="white"/>
<path d="M187.876 84.6393C187.851 84.5523 187.807 84.4761 187.743 84.4119C187.708 84.3848 187.673 84.3584 187.639 84.3314C187.558 84.2846 187.472 84.2612 187.379 84.2612C187.308 84.2588 187.242 84.2732 187.18 84.3056C187.116 84.3266 187.061 84.362 187.014 84.4125C186.964 84.4593 186.928 84.5145 186.907 84.5781C186.875 84.6393 186.861 84.706 186.863 84.7768C186.869 84.8224 186.875 84.868 186.882 84.9136C186.906 85.0007 186.95 85.0769 187.014 85.1411C187.049 85.1681 187.084 85.1945 187.119 85.2216C187.199 85.2684 187.286 85.2918 187.379 85.2918C187.449 85.2948 187.515 85.2798 187.577 85.2474C187.642 85.2264 187.697 85.1909 187.743 85.1411C187.793 85.0943 187.829 85.0391 187.85 84.9755C187.882 84.9142 187.897 84.8476 187.894 84.7768C187.888 84.7306 187.882 84.685 187.876 84.6393Z" fill="white"/>
<path d="M189.864 84.2462C189.183 84.2462 189.181 85.3061 189.864 85.3061C190.546 85.3061 190.547 84.2462 189.864 84.2462Z" fill="white"/>
<path d="M206.144 77.3003C206.128 77.1569 206.08 77.0218 206.059 76.879C206.039 76.7331 206.012 76.5945 205.96 76.4558C205.934 76.3886 205.832 76.3952 205.831 76.4732C205.828 76.6269 205.841 76.7901 205.808 76.9408C205.777 77.0896 205.694 77.2325 205.642 77.3772C205.538 77.6629 205.444 77.9504 205.324 78.2301C205.083 78.7901 204.778 79.3177 204.52 79.8693C204.269 80.4035 204.116 80.9311 204.062 81.5193C204.036 81.7954 204.035 82.0667 204.079 82.341C204.124 82.6171 204.25 82.8392 204.41 83.0649C204.487 83.1729 204.697 83.1117 204.642 82.967C204.455 82.4742 204.414 81.862 204.548 81.3524C204.699 80.7828 205.008 80.242 205.292 79.7288C205.574 79.2162 205.884 78.6976 206.043 78.1298C206.117 77.8633 206.177 77.5776 206.144 77.3003Z" fill="#1C1822"/>
<path d="M172.002 51.7326C171.487 53.5645 171.817 56.673 172.479 58.035C173.267 56.5788 173.793 55.0987 174.389 55.1221C174.986 55.1461 175.511 55.5038 175.511 55.5038C175.511 55.5038 177.063 54.5248 177.994 55.2409C178.925 55.957 179.642 58.0818 179.642 58.0818C179.642 58.0818 182.503 54.1695 182.411 50.8005C182.346 48.3996 181.081 46.9434 178.908 46.2508C176.735 45.5599 172.981 48.2471 172.002 51.7326Z" fill="white"/>
<path d="M181.103 49.8216C180.882 51.9866 177.14 54.7734 175.746 54.8851C174.84 54.9559 174.198 54.4859 173.778 53.7633C173.432 53.1702 173.315 52.4716 173.388 51.7897C173.434 51.381 173.437 50.9944 173.414 50.6373C173.315 49.1289 172.737 48.1332 172.737 48.1332C172.737 48.1332 178.572 43.6207 180.405 42.8146C180.312 43.9688 180.46 45.5612 180.684 47.1758C180.809 48.0743 180.959 48.9807 181.103 49.8216Z" fill="#F79F7D"/>
<path d="M180.452 45.1668C180.619 47.1182 179.531 48.9824 177.736 49.7657C177.721 49.7723 177.706 49.7789 177.69 49.7855C175.797 50.5952 174.329 50.6991 173.413 50.6373C173.315 49.1289 172.737 48.1331 172.737 48.1331C172.737 48.1331 178.572 43.6206 180.405 42.8145C180.351 43.479 180.377 44.2899 180.452 45.1668Z" fill="#E4685F"/>
<path d="M169.179 38.0613C169.179 38.0613 166.4 38.0391 165.907 40.7521C165.415 43.4645 167.433 44.6997 169.08 44.788C169.425 39.6489 169.179 38.0613 169.179 38.0613Z" fill="#452F59"/>
<path d="M183.204 41.3043C183.326 41.1807 184.63 39.4622 184.579 37.1274C184.527 34.7925 181.984 34.4294 181.984 34.4294C181.984 34.4294 181.777 31.7055 179.338 30.8232C176.899 29.9409 173.517 29.8731 170.741 30.807C167.964 31.741 167.795 36.3969 167.743 37.9533C167.691 39.5097 167.995 42.7173 170.045 43.5474C172.093 44.3775 180.92 43.6134 183.204 41.3043Z" fill="#A44E2A"/>
<path d="M168.846 36.9052C168.846 36.9052 168.639 33.2439 170.673 32.8567C172.706 32.4696 179.645 32.6628 180.549 35.8584C181.872 35.826 183.324 37.2137 183.293 38.021C183.26 38.8277 183.131 42.8943 179.452 43.282C175.772 43.6685 168.846 36.9052 168.846 36.9052Z" fill="#903A1F"/>
<path d="M168.846 36.9053C168.846 36.9053 167.849 47.2909 170.621 48.5088C173.393 49.7266 176.795 48.9289 178.643 47.2069C180.491 45.4849 180.427 42.3751 180.763 41.1152C180.206 41.6146 179.863 41.7605 179.863 41.7605L179.903 39.6051L178.811 39.563L179.21 36.9605C179.21 36.9605 174.6 37.9971 168.846 36.9053Z" fill="#F79F7D"/>
<path d="M169.075 42.1169C168.643 42.1343 168.395 42.8798 169.026 43.2286C169.656 43.5767 171.149 43.8258 171.282 43.2946C171.414 42.764 170.32 42.0671 169.075 42.1169Z" fill="#EF8764"/>
<path d="M172.171 47.3275C172.191 47.8719 174.309 47.9932 174.39 47.3071C174.47 46.6217 172.152 46.8221 172.171 47.3275Z" fill="#EF8764"/>
<path d="M168.854 38.7929C168.854 38.7929 169.602 38.4387 170.309 38.6554C171.017 38.8715 172.433 40.2286 172.413 40.1104C172.393 39.9921 171.45 38.2821 170.447 37.967C169.445 37.6525 168.854 38.7929 168.854 38.7929Z" fill="#903A1F"/>
<path d="M168.912 40.6733C168.912 40.6733 170.183 41.2573 171.967 41.414C171.164 40.4026 170.173 39.9752 168.912 40.6733Z" fill="#1C1822"/>
<path d="M172.04 39.5372C172.04 39.5372 172.674 40.6944 172.301 41.4909C171.928 42.2874 171.107 42.6109 170.994 42.9591C170.882 43.3072 171.691 43.7304 172.761 43.7928C172.089 43.4068 171.492 43.258 171.517 43.0089C171.554 42.7352 172.699 42.2994 172.787 41.3043C172.874 40.3085 172.04 39.5372 172.04 39.5372Z" fill="#E4685F"/>
<path d="M176.05 40.5997C174.963 40.5673 174.163 41.3224 173.882 41.7035C175.408 41.563 177.857 41.0811 177.857 41.0811C177.857 41.0811 177.395 40.6399 176.05 40.5997Z" fill="#1C1822"/>
<path d="M173.312 39.1818C173.312 39.1818 173.696 39.6038 174.099 39.6806C174.502 39.7574 175.5 39.2394 176.518 39.3349C177.534 39.4309 177.899 39.7568 177.899 39.7568C177.899 39.7568 177.42 38.7395 176.441 38.6824C175.148 38.6068 174.809 39.3547 173.312 39.1818Z" fill="#903A1F"/>
<path d="M171.341 44.8647C171.341 44.8647 171.559 46.1047 173.246 46.0639C174.932 46.0231 175.116 44.8851 175.116 44.8851L171.341 44.8647Z" fill="white"/>
<path d="M171.064 44.7867C171.139 44.7867 171.463 45.1078 172.914 45.1834C174.796 45.2813 175.429 44.7753 175.429 44.7753L171.064 44.7867Z" fill="#E4685F"/>
<path d="M178.4 42.5287C178.135 41.8582 174.986 42.5599 175.267 43.1991C175.547 43.8377 178.729 43.3618 178.4 42.5287Z" fill="#EF8764"/>
<path d="M173.095 48.7753C173.095 48.7753 173.148 48.2753 172.604 48.0826C172.059 47.89 171.29 47.8329 171.023 48.0808C170.757 48.3287 170.639 49.0694 171.088 49.3281C171.537 49.5868 172.206 49.6516 172.656 49.4902C173.106 49.3287 173.095 48.7753 173.095 48.7753Z" fill="#452F59"/>
<path d="M181.358 41.5792C181.358 41.5792 181.691 39.3637 181.496 36.6447C181.301 33.9257 180.56 31.3808 178.053 30.412C179.629 30.5831 181.737 31.4942 182.478 34.0013C183.218 36.5085 182.724 41.3511 182.174 42.282C181.719 41.8265 181.358 41.5792 181.358 41.5792Z" fill="#1C1822"/>
<path d="M183.827 42.8643C183.527 43.8474 182.608 44.8498 181.472 45.1055C181.122 45.1853 180.753 45.1925 180.371 45.1061C179.468 44.9014 179.109 42.7784 179.416 41.4837C179.726 40.1927 180.551 39.3475 181.233 38.931C181.446 38.8007 181.918 38.8752 182.499 39.2533C182.636 39.3391 182.78 39.446 182.924 39.569C183.747 40.2611 184.252 41.4705 183.827 42.8643Z" fill="#452F59"/>
<path d="M181.472 45.1061C181.122 45.1859 180.753 45.1931 180.371 45.1067C179.468 44.902 179.109 42.779 179.416 41.4843C179.726 40.1932 180.551 39.3481 181.233 38.9316C181.446 38.8013 181.918 38.8758 182.499 39.2539C182.07 39.6206 181.116 40.5984 181.028 42.0659C180.948 43.387 181.27 44.5329 181.472 45.1061Z" fill="#311D41"/>
<path d="M180.69 44.5646C180.315 46.1534 179.252 47.4889 177.806 48.2398C177.039 48.6377 176.193 48.8484 175.334 48.9072C174.415 48.9697 173.499 48.8622 172.582 48.8352C172.47 48.8316 172.45 48.9985 172.556 49.0285C175.283 49.8016 178.462 49.1059 180.161 46.7224C180.6 46.1078 180.912 45.4079 181.083 44.6733C181.142 44.4182 180.75 44.3089 180.69 44.5646Z" fill="#1C1822"/>
<path d="M161.651 72.4932C161.651 76.0315 159.783 76.1245 158.271 76.1245H155.778C155.741 76.1245 155.723 76.1245 155.723 76.1245H111.828C109.301 76.1245 107.828 75.0723 107.828 72.7573V44.6608C107.828 42.2425 109.752 40.9784 112.563 40.9784C112.563 40.9784 142.926 40.9784 152.883 40.9784H155.548C160.177 40.9784 161.006 43.4994 161.006 45.3943C161.005 47.288 161.651 68.758 161.651 72.4932Z" fill="#452F59"/>
<path d="M157.472 43.4208C157.167 43.6771 156.84 43.8992 156.526 44.1435C156.202 44.3962 155.908 44.6765 155.616 44.9646C155.046 45.5282 154.476 46.0912 153.906 46.6542C152.768 47.7802 151.61 48.8936 150.524 50.0707C149.906 50.7399 149.345 51.4554 148.746 52.1408C148.71 52.1823 148.765 52.2375 148.807 52.2015C149.412 51.6721 150.039 51.1703 150.64 50.6355C151.238 50.1025 151.808 49.5377 152.375 48.9711C153.508 47.8378 154.634 46.6974 155.76 45.5576C156.069 45.2449 156.38 44.937 156.662 44.599C156.964 44.2359 157.222 43.8391 157.527 43.4766C157.559 43.437 157.51 43.3878 157.472 43.4208Z" fill="#5B3F77"/>
<path d="M155.574 49.1229C155.27 49.3924 154.968 49.6961 154.627 49.9194C154.322 50.1193 154.049 50.3527 153.776 50.5952C153.189 51.1168 152.646 51.6888 152.098 52.2518C151.561 52.8041 151.007 53.3437 150.494 53.9181C149.98 54.4937 149.455 55.0579 148.926 55.6203C148.315 56.2709 147.705 56.9216 147.11 57.5872C147.079 57.6214 147.126 57.6683 147.16 57.6377C148.322 56.5993 149.43 55.5033 150.593 54.4655C151.168 53.9517 151.715 53.4091 152.268 52.8707C152.82 52.3335 153.379 51.8017 153.909 51.2417C154.197 50.9368 154.496 50.615 154.737 50.2705C155.008 49.8828 155.309 49.528 155.624 49.1739C155.655 49.1391 155.608 49.0923 155.574 49.1229Z" fill="#5B3F77"/>
<path d="M119.914 62.1711C117.312 64.7155 114.603 67.1566 112.075 69.776C111.717 70.1475 111.361 70.5202 111.013 70.902C110.85 71.0814 110.68 71.2567 110.522 71.4404C110.36 71.6288 110.25 71.8455 110.076 72.0244C110.064 72.0376 110.083 72.0574 110.097 72.0448C110.234 71.9109 110.388 71.8281 110.537 71.7129C110.73 71.564 110.905 71.3941 111.085 71.2303C111.421 70.923 111.756 70.6151 112.083 70.2987C112.739 69.6661 113.382 69.0239 114.019 68.3732C115.292 67.0725 116.553 65.7587 117.799 64.4316C118.505 63.6795 119.228 62.9442 119.949 62.2065C119.972 62.1837 119.937 62.1489 119.914 62.1711Z" fill="#5B3F77"/>
<path d="M115.748 69.2327C115.361 69.5701 114.949 69.8786 114.574 70.2303C114.191 70.5892 113.828 70.9758 113.468 71.3569C113.116 71.7291 112.765 72.1012 112.413 72.4733C112.05 72.8581 111.73 73.2776 111.371 73.6648C111.359 73.678 111.378 73.6972 111.392 73.6852C111.768 73.3365 112.177 73.0267 112.551 72.6732C112.934 72.3119 113.317 71.9499 113.7 71.5886C114.07 71.2381 114.444 70.8839 114.797 70.5142C115.161 70.1319 115.477 69.7063 115.824 69.3078C115.869 69.2561 115.8 69.1877 115.748 69.2327Z" fill="#5B3F77"/>
<path d="M141.482 54.7673H126.038V64.5335H141.482V54.7673Z" fill="#1C1822"/>
<path d="M161.651 72.4932C161.651 76.0315 159.783 76.1245 158.271 76.1245H156.027C157.541 76.1245 159.407 76.0315 159.407 72.4932C159.407 68.758 158.763 47.288 158.763 45.3949C158.763 43.5 157.935 40.979 153.304 40.979H155.548C160.177 40.979 161.005 43.5 161.005 45.3949C161.005 47.288 161.651 68.758 161.651 72.4932Z" fill="#311D41"/>
<path d="M137.378 56.6988H130.918V88.3936H137.378V56.6988Z" fill="#1C1822"/>
<path d="M136.369 56.6988H129.909V88.3936H136.369V56.6988Z" fill="#311D41"/>
<path d="M140.974 86.3913H118.965V89.3858H140.974V86.3913Z" fill="#452F59"/>
<path d="M149.289 86.3913H139.598V89.3858H149.289V86.3913Z" fill="#311D41"/>
<path d="M215.15 80.0122C214.846 79.9245 214.671 79.6064 214.759 79.3027L216.669 72.7033C216.757 72.3995 217.075 72.2243 217.378 72.3125C217.682 72.4001 217.857 72.7177 217.769 73.0214L215.859 79.6208C215.771 79.9251 215.453 80.1004 215.15 80.0122Z" fill="#2A2433"/>
<path d="M214.626 80.9762C214.312 81.0068 214.031 80.7763 214.001 80.4612L213.342 73.6228C213.311 73.3083 213.541 73.0286 213.857 72.998C214.171 72.9674 214.451 73.1985 214.481 73.513L215.141 80.3513C215.172 80.6659 214.941 80.9456 214.626 80.9762Z" fill="#2A2433"/>
<path d="M217.821 77.6372L217.658 79.286L217.551 80.382L217.361 82.3027V82.3045L217.256 83.3879L217.064 85.3249L216.96 86.3885L216.643 89.6153H208.986L208.937 89.1117L208.874 88.4826L208.692 86.6273L208.639 86.0877L208.442 84.0992V84.0974L208.396 83.6178L208.247 82.1041L208.2 81.6155L208.066 80.2746L208.017 79.7692L207.808 77.6372H217.821Z" fill="#383044"/>
<path d="M210.693 77.6372C210.564 77.8377 210.403 78.0237 210.241 78.1882C209.964 78.4727 209.684 78.75 209.398 79.0237C208.959 79.4469 208.519 79.8682 208.067 80.2752L208.018 79.7698C208.362 79.4066 208.716 79.0531 209.07 78.6954C209.358 78.4073 209.648 78.1246 209.946 77.8455C210.021 77.7746 210.1 77.7032 210.184 77.6378L210.693 77.6372Z" fill="#2A2433"/>
<path d="M212.419 77.6372C212.336 77.7428 212.257 77.849 212.171 77.9529C211.968 78.2008 211.751 78.4343 211.534 78.6659C211.111 79.1221 210.688 79.5759 210.265 80.0303C209.831 80.4954 209.395 80.9606 208.952 81.4186C208.722 81.6539 208.486 81.8819 208.248 82.1046L208.2 81.616C208.351 81.4318 208.509 81.2493 208.669 81.0704C209.085 80.6089 209.508 80.1545 209.933 79.7007L211.237 78.3052C211.453 78.0771 211.666 77.8508 211.896 77.6378L212.419 77.6372Z" fill="#2A2433"/>
<path d="M214.341 77.6372C214.236 77.8941 214.022 78.0915 213.827 78.3064C213.543 78.6203 213.26 78.9318 212.975 79.244C212.408 79.8694 211.839 80.4918 211.265 81.1082C210.329 82.1112 209.408 83.1238 208.443 84.098L208.397 83.6184C209.207 82.661 210.052 81.7325 210.885 80.7931C211.445 80.1617 212.011 79.5363 212.58 78.9126C212.864 78.6005 213.149 78.289 213.433 77.9769C213.537 77.864 213.634 77.7452 213.739 77.6378L214.341 77.6372Z" fill="#2A2433"/>
<path d="M217.025 77.6372C216.895 77.7884 216.76 77.9361 216.627 78.0843C216.284 78.4691 215.939 78.8538 215.589 79.2332C214.325 80.6083 213.065 81.9876 211.805 83.3663C211.18 84.0506 210.554 84.7324 209.917 85.4053C209.52 85.823 209.109 86.2276 208.693 86.6273L208.641 86.0877C209.007 85.6297 209.378 85.1778 209.761 84.7342C210.974 83.3315 212.226 81.9636 213.463 80.5831C214.082 79.8916 214.696 79.1989 215.313 78.5057C215.573 78.2122 215.838 77.9259 216.103 77.6372H217.025Z" fill="#2A2433"/>
<path d="M217.659 79.286L217.551 80.382L217.497 80.4366C216.71 81.2409 215.879 81.9978 215.095 82.8039C214.301 83.6208 213.508 84.4383 212.731 85.2714C211.965 86.0937 211.208 86.9275 210.401 87.712C209.998 88.1021 209.599 88.4964 209.185 88.8776C209.102 88.9544 209.021 89.0306 208.937 89.1111L208.875 88.482C208.903 88.4508 208.93 88.422 208.955 88.3908C209.373 87.9094 209.804 87.4335 210.245 86.9755C211.817 85.3465 213.435 83.7655 215.009 82.1383C215.79 81.3286 216.519 80.4715 217.3 79.6612C217.42 79.5375 217.539 79.4121 217.659 79.286Z" fill="#2A2433"/>
<path d="M217.362 82.3044L217.256 83.3878C216.543 84.1027 215.799 84.787 215.095 85.5108C214.301 86.3277 213.508 87.147 212.731 87.9807C212.222 88.5263 211.717 89.0767 211.201 89.6151H210.311C211.863 88.012 213.457 86.4508 215.009 84.8452C215.79 84.0373 216.519 83.1802 217.3 82.3681C217.32 82.3464 217.34 82.3266 217.362 82.3044Z" fill="#2A2433"/>
<path d="M217.065 85.3249L216.961 86.3885C216.339 86.9995 215.702 87.5943 215.095 88.2198C214.644 88.6831 214.194 89.1483 213.747 89.6153H212.982C213.661 88.931 214.34 88.2474 215.009 87.5541C215.711 86.8261 216.371 86.0602 217.065 85.3249Z" fill="#2A2433"/>
<path d="M218.303 76.8503H207.356V78.0063H218.303V76.8503Z" fill="#2A2433"/>
<path d="M227.014 80.1671L226.886 81.4678L226.802 82.3321L226.652 83.8471V83.8489L226.568 84.7036L226.417 86.2312L226.335 87.0703L226.085 89.6152H220.045L220.006 89.2179L219.957 88.7215L219.814 87.2582L219.772 86.8326L219.616 85.2642V85.263L219.58 84.8849L219.463 83.6904L219.425 83.3051L219.32 82.2475L219.281 81.849L219.116 80.1671H227.014Z" fill="#383044"/>
<path d="M221.392 80.1671C221.29 80.3256 221.163 80.4721 221.035 80.6017C220.817 80.8262 220.596 81.0447 220.371 81.2608C220.024 81.5945 219.677 81.927 219.32 82.2475L219.281 81.849C219.553 81.5627 219.832 81.2836 220.111 81.0015C220.339 80.774 220.568 80.5513 220.802 80.331C220.861 80.2746 220.925 80.2188 220.991 80.1671H221.392Z" fill="#2A2433"/>
<path d="M222.753 80.1671C222.688 80.2506 222.625 80.334 222.557 80.4162C222.398 80.6119 222.227 80.7962 222.055 80.9787C221.721 81.3382 221.387 81.6965 221.054 82.0549C220.712 82.4216 220.368 82.7883 220.018 83.1497C219.836 83.3351 219.651 83.5152 219.462 83.6905L219.425 83.3051C219.545 83.1599 219.668 83.0158 219.795 82.8748C220.123 82.511 220.457 82.1527 220.792 81.7944L221.821 80.6935C221.991 80.5135 222.159 80.3352 222.34 80.1671H222.753Z" fill="#2A2433"/>
<path d="M224.269 80.1671C224.186 80.37 224.018 80.5255 223.864 80.6953C223.639 80.9426 223.416 81.1887 223.192 81.4348C222.744 81.9282 222.296 82.4186 221.843 82.9054C221.104 83.6965 220.378 84.4954 219.617 85.2636L219.581 84.8855C220.22 84.1304 220.886 83.3981 221.543 82.6569C221.985 82.1593 222.431 81.6659 222.88 81.1737C223.104 80.9276 223.329 80.6815 223.553 80.4354C223.636 80.346 223.712 80.253 223.795 80.1677H224.269V80.1671Z" fill="#2A2433"/>
<path d="M226.385 80.1672C226.283 80.2866 226.177 80.4031 226.072 80.5195C225.801 80.8232 225.529 81.1269 225.253 81.4258C224.256 82.5104 223.262 83.598 222.267 84.6857C221.774 85.2253 221.281 85.7631 220.778 86.2942C220.464 86.6238 220.141 86.9431 219.813 87.2582L219.771 86.8321C220.06 86.4707 220.352 86.1142 220.655 85.7643C221.611 84.658 222.6 83.5788 223.575 82.49C224.063 81.945 224.548 81.3982 225.034 80.8514C225.24 80.6197 225.448 80.394 225.657 80.1666H226.385V80.1672Z" fill="#2A2433"/>
<path d="M226.886 81.4678L226.801 82.3328L226.758 82.376C226.138 83.0104 225.482 83.6076 224.863 84.2433C224.237 84.8879 223.612 85.5325 222.999 86.1898C222.395 86.8386 221.798 87.4959 221.162 88.1147C220.844 88.4226 220.528 88.7335 220.202 89.0342C220.137 89.0949 220.072 89.1549 220.006 89.2185L219.957 88.7221C219.979 88.6975 220 88.6747 220.02 88.6501C220.35 88.2702 220.689 87.895 221.037 87.5337C222.278 86.2492 223.554 85.0013 224.795 83.7181C225.411 83.0794 225.987 82.403 226.602 81.7643C226.698 81.6665 226.791 81.5669 226.886 81.4678Z" fill="#2A2433"/>
<path d="M226.652 83.8489L226.568 84.7037C226.006 85.2679 225.419 85.8069 224.863 86.3783C224.237 87.0229 223.612 87.6688 222.999 88.326C222.598 88.7564 222.199 89.1909 221.792 89.6153H221.09C222.314 88.3506 223.572 87.119 224.796 85.8531C225.411 85.2156 225.987 84.5398 226.602 83.8994C226.619 83.882 226.635 83.8663 226.652 83.8489Z" fill="#2A2433"/>
<path d="M226.417 86.2312L226.335 87.0697C225.845 87.5517 225.342 88.0205 224.863 88.5139C224.508 88.8794 224.153 89.2462 223.8 89.6147H223.198C223.733 89.0751 224.268 88.5355 224.796 87.9887C225.35 87.4155 225.871 86.811 226.417 86.2312Z" fill="#2A2433"/>
<path d="M227.395 79.5465H218.76V80.4582H227.395V79.5465Z" fill="#2A2433"/>
<path d="M89.9629 90.4465L90.0427 115.28L201.974 114.918L201.894 90.2677C201.894 90.2677 89.688 90.1734 89.9629 90.4465Z" fill="#F29755"/>
<path d="M201.481 90.0863L201.561 114.919L241.287 114.791L241.208 90.1403C241.208 90.1403 201.383 89.8126 201.481 90.0863Z" fill="#D57146"/>
<path d="M242.05 89.4617L239.623 89.4695L239.704 114.808L242.131 114.8L242.05 89.4617Z" fill="#CAE9F0"/>
<path d="M202.871 89.5807L200.443 89.5884L200.524 114.927L202.952 114.919L202.871 89.5807Z" fill="white"/>
<path d="M91.42 89.5789L88.9927 89.5867L89.0738 114.925L91.5011 114.917L91.42 89.5789Z" fill="white"/>
<path d="M244.593 88.6946L84.2031 89.2079L84.2109 91.6352L244.601 91.1219L244.593 88.6946Z" fill="#2A2433"/>
<path d="M244.593 88.6939L196.946 88.8464L196.954 91.2737L244.6 91.1212L244.593 88.6939Z" fill="#1C1822"/>
<path d="M157.27 101.228L126.307 101.327C125.116 101.331 124.147 100.368 124.143 99.1774C124.139 97.986 125.102 97.0172 126.293 97.013L157.256 96.9134C158.447 96.9098 159.416 97.8725 159.42 99.064C159.424 100.255 158.461 101.224 157.27 101.228Z" fill="#D57146"/>
<path d="M102.648 102.268L93.4308 111.485C93.2759 111.64 93.5166 111.882 93.6715 111.726L100.854 104.544C101.532 103.866 102.21 103.187 102.889 102.509C103.044 102.354 102.803 102.113 102.648 102.268Z" fill="#D57146"/>
<path d="M108.718 100.02C105.92 102.818 103.123 105.615 100.326 108.412C99.5263 109.212 98.7274 110.011 97.9279 110.81C97.773 110.966 98.0137 111.206 98.1686 111.051L108.959 100.26C109.114 100.106 108.873 99.8652 108.718 100.02Z" fill="#D57146"/>
<path d="M189.197 96.873L179.043 107.028C178.081 107.989 177.12 108.95 176.158 109.912C176.004 110.067 176.244 110.308 176.399 110.152L186.554 99.9978C187.515 99.0362 188.476 98.0753 189.438 97.1137C189.593 96.9583 189.353 96.7176 189.197 96.873Z" fill="#D57146"/>
<path d="M195.717 95.7489C192.276 99.19 188.835 102.63 185.394 106.072L182.453 109.012C182.298 109.167 182.538 109.408 182.694 109.253L195.957 95.9896C196.112 95.8347 195.871 95.5934 195.717 95.7489Z" fill="#D57146"/>
<path d="M249.572 114.487H82.9762C82.2559 114.487 82.2547 115.606 82.9762 115.606H249.572C250.293 115.607 250.294 114.487 249.572 114.487Z" fill="#D57146"/>
<path d="M125.508 -3.05176e-05H154.97C158.968 -3.05176e-05 161.337 2.36905 161.337 5.77472C161.337 9.18039 161.337 19.1015 161.337 22.3589C161.337 25.6163 159.856 27.4674 156.228 27.4674C153.741 27.4674 126.736 27.4674 124.249 27.4674C120.621 27.4674 119.141 25.6163 119.141 22.3589C119.141 19.1015 119.141 9.18039 119.141 5.77472C119.141 2.36905 121.51 -3.05176e-05 125.508 -3.05176e-05Z" fill="#F5CB49"/>
<path d="M147.634 13.7805C147.634 14.9233 148.561 15.85 149.704 15.85C150.847 15.85 151.773 14.9233 151.773 13.7805C151.773 12.6376 150.847 11.7109 149.704 11.7109C148.56 11.7109 147.634 12.6376 147.634 13.7805Z" fill="#F1AE2E"/>
<path d="M135.243 13.7805C135.243 14.9233 136.17 15.85 137.313 15.85C138.456 15.85 139.382 14.9233 139.382 13.7805C139.382 12.6376 138.456 11.7109 137.313 11.7109C136.17 11.7109 135.243 12.6376 135.243 13.7805Z" fill="#F1AE2E"/>
<path d="M142.015 13.7805C142.015 14.604 142.683 15.2715 143.506 15.2715C144.33 15.2715 144.997 14.604 144.997 13.7805C144.997 12.957 144.33 12.2896 143.506 12.2896C142.683 12.2896 142.015 12.957 142.015 13.7805Z" fill="#F1AE2E"/>
<path d="M128.337 13.7805C128.337 14.604 129.004 15.2715 129.828 15.2715C130.651 15.2715 131.319 14.604 131.319 13.7805C131.319 12.957 130.651 12.2896 129.828 12.2896C129.004 12.2896 128.337 12.957 128.337 13.7805Z" fill="#F1AE2E"/>
<path d="M147.862 25.3757C147.862 25.3757 145.417 36.6461 159.665 37.1779C153.86 34.8508 151.903 31.9679 151.797 25.4819C149.138 24.9501 147.862 25.3757 147.862 25.3757Z" fill="#F5CB49"/>
<path d="M208.319 29.0564C213.535 23.8398 213.535 15.3821 208.319 10.1655C203.102 4.94897 194.644 4.94897 189.428 10.1655C184.211 15.3821 184.211 23.8398 189.428 29.0564C194.644 34.273 203.102 34.2729 208.319 29.0564Z" fill="#A3C7E9"/>
<path d="M203.057 29.8607C208.718 27.5463 211.431 21.081 209.117 15.42C206.802 9.75897 200.337 7.04592 194.676 9.36024C189.015 11.6746 186.302 18.1399 188.616 23.8009C190.931 29.4619 197.396 32.175 203.057 29.8607Z" fill="white"/>
<path d="M199.662 18.3566V11.1071C199.662 10.1642 198.197 10.1624 198.197 11.1071V18.3092C197.498 18.5817 197.001 19.257 197.001 20.0523C197.001 20.3506 197.077 20.6291 197.201 20.8794L193.43 24.65C192.762 25.318 193.798 26.354 194.466 25.6866L198.319 21.8337C198.495 21.8889 198.679 21.9268 198.874 21.9268C199.91 21.9268 200.749 21.0876 200.749 20.0523C200.75 19.2996 200.303 18.6543 199.662 18.3566Z" fill="#A3C7E9"/>
<path d="M185.252 86.3913H152.555V89.3858H185.252V86.3913Z" fill="#452F59"/>
<path d="M197.608 86.3913H183.209V89.3858H197.608V86.3913Z" fill="#311D41"/>
</svg>
