<svg width="251" height="199" viewBox="0 0 251 199" fill="none" xmlns="http://www.w3.org/2000/svg">
<path d="M232.334 185.536C232.243 186.4 228.042 191.088 225.537 191.485C223.032 191.881 218.026 197.036 218.026 197.036H209.797C209.797 197.036 220.35 186.727 222.139 182.961C223.391 178.795 221.424 150.446 220.709 144.695C220.4 142.207 220.056 138.756 219.768 135.642C219.385 131.552 219.098 128.042 219.098 128.042C219.098 128.042 227.685 126.655 232.514 127.249C233.386 129.145 233.837 132.101 234.001 135.642C234.641 149.51 230.869 172.389 230.726 176.022C230.547 180.581 232.734 181.797 232.334 185.536Z" fill="#F67159"/>
<path d="M234.001 135.642H219.768C219.385 131.552 219.098 128.042 219.098 128.042C219.098 128.042 227.684 126.655 232.513 127.249C233.386 129.144 233.837 132.101 234.001 135.642Z" fill="#D84554"/>
<path d="M209.016 197.05C208.321 197.043 208.011 196.061 208.563 195.592C208.571 195.585 208.579 195.578 208.587 195.571C209.326 194.957 211.935 193.307 213.369 192.09C213.746 191.769 214.216 191.6 214.691 191.632C215.372 191.679 216.109 191.886 216.818 192.161C219.391 193.158 222.251 192.628 224.32 190.66C224.34 190.641 224.36 190.622 224.38 190.602C224.419 190.565 228.112 187.174 228.891 184.705C229.347 183.258 230.102 181.917 231.484 181.048C233.002 182.958 233.347 185.175 233.277 187.774C233.208 190.373 232.795 197.787 232.795 197.787H230.657L229.898 189.303C229.898 189.303 225.953 192.807 223.347 194.806C222.97 195.096 222.624 195.368 222.311 195.617C221.049 196.628 219.53 197.166 217.972 197.148L209.016 197.05Z" fill="#F39E23"/>
<path d="M247.671 186.3C247.58 187.165 243.379 191.852 240.874 192.249C238.369 192.645 233.363 197.801 233.363 197.801H225.133C225.133 197.801 235.686 187.491 237.476 183.725C238.727 179.56 236.761 151.209 236.045 145.459C235.735 142.971 235.393 139.52 235.104 136.406C234.721 132.317 234.434 128.806 234.434 128.806C234.434 128.806 243.02 127.419 247.849 128.013C248.722 129.909 249.173 132.865 249.338 136.406C249.978 150.274 246.205 173.153 246.062 176.786C245.884 181.345 248.071 182.561 247.671 186.3Z" fill="#F68962"/>
<path d="M249.339 136.406H235.105C234.722 132.317 234.435 128.806 234.435 128.806C234.435 128.806 243.021 127.419 247.85 128.013C248.724 129.909 249.175 132.865 249.339 136.406Z" fill="#D84554"/>
<path d="M224.353 197.815C223.658 197.807 223.349 196.825 223.9 196.357C223.909 196.35 223.917 196.343 223.925 196.336C224.664 195.722 227.272 194.072 228.706 192.854C229.084 192.534 229.553 192.364 230.028 192.397C230.71 192.444 231.447 192.65 232.155 192.925C234.729 193.923 237.589 193.392 239.658 191.425C239.678 191.406 239.698 191.387 239.718 191.367C239.757 191.33 243.449 187.938 244.228 185.469C244.685 184.022 245.439 182.682 246.822 181.812C248.339 183.723 248.684 185.94 248.615 188.539C248.546 191.137 248.132 196.911 248.132 196.911H245.994L245.236 190.067C245.236 190.067 241.29 193.571 238.684 195.57C238.307 195.86 237.961 196.132 237.649 196.381C236.386 197.392 234.867 197.93 233.31 197.912L224.353 197.815Z" fill="#FFCD08"/>
<path d="M250.271 132.586H230.701C222.324 132.586 215.237 132.586 215.237 132.586C215.237 132.586 210.431 105.554 210.828 92.7961C210.96 88.5483 211.934 84.1958 212.909 81.3695C213.932 78.4044 214.742 76.5338 214.742 76.5338C214.742 76.5338 234.409 67.2589 245.581 76.6858C245.581 76.6858 246.722 78.4113 247.945 81.3438C249.234 84.4401 250.61 88.8815 250.822 94.0628C251.235 104.151 249.304 129.071 250.271 132.586Z" fill="#3E3F59"/>
<path d="M247.945 81.3439C239.562 81.3668 219.362 81.4154 212.908 81.3689C213.931 78.4038 214.741 76.5332 214.741 76.5332C214.741 76.5332 234.409 67.2583 245.581 76.6852C245.581 76.6852 246.722 78.4114 247.945 81.3439Z" fill="#2E2D44"/>
<path d="M234.129 132.586H230.701C229.384 125.362 226.822 95.4385 226.822 95.4385C228.845 98.1905 232.121 101.763 233.92 109.149C235.719 116.535 234.129 132.586 234.129 132.586Z" fill="#2E2D44"/>
<path d="M208.544 18.8735C209.282 21.5283 206.439 23.6557 207.604 26.237C209.167 29.7018 212.262 27.5182 213.857 30.7214C215.328 33.6768 214.132 37.5498 219.558 38.1612C223.724 38.6311 228.464 35.6764 235.19 38.7727C241.167 41.5247 244.661 37.6518 244.11 34.3903C243.558 31.1288 241.075 29.6005 242.178 25.014C243.282 20.4275 244.569 17.5742 241.534 15.6377C238.5 13.7012 233.994 15.8417 230.96 11.9688C227.925 8.09582 223.511 2.89786 218.362 2.99989C213.041 3.10539 208.982 5.44582 208.339 11.4593C208.034 14.3092 208.198 17.6248 208.544 18.8735Z" fill="#3E3F59"/>
<path d="M237.244 19.6009C237.098 19.4204 236.936 19.2566 236.762 19.1143C235.604 18.1669 234.075 17.9844 232.638 18.0718C230.567 18.1981 227.062 18.1759 225.719 15.9431L212.445 14.1836C212.096 16.5698 211.747 18.9561 211.398 21.3423C211.213 22.6104 211.061 24.0409 211.763 25.0633C212.962 26.8096 215.728 26.1224 217.051 27.7549C218.215 29.191 217.619 31.6189 218.625 33.1951C219.304 34.2577 220.583 34.6728 221.755 34.5867C222.927 34.5007 224.036 33.9988 225.142 33.5581C226.247 33.1174 227.413 32.7273 228.58 32.8779C230.619 33.1417 232.572 35.1823 234.608 33.7629C235.438 33.184 235.993 32.1477 236.054 31.0629C236.153 29.2826 235.028 27.4114 235.745 25.8143C236.199 24.8037 237.26 24.2887 237.788 23.3225C238.42 22.1634 238.073 20.6198 237.244 19.6009Z" fill="#2E2D44"/>
<path d="M212.384 64.8124C210.194 69.5558 200.89 83.5144 197.419 83.9475C195.899 85.5668 194.837 86.6086 194.638 86.6731C193.856 86.9286 191.121 84.8901 190.476 83.2083C190.476 83.2083 189.236 81.2475 189.512 80.5333C189.786 79.8191 190.316 79.4873 190.545 78.4691C190.776 77.4509 190.316 75.8705 191.42 73.832C192.521 71.7935 202.133 58.4429 202.867 57.1186C204.201 51.1058 205.947 38.518 208.018 36.4288C209.396 35.5626 212.247 35.0538 213.351 38.7234C214.455 42.3902 215.328 58.4429 212.384 64.8124Z" fill="#FF5E6B"/>
<path d="M197.419 83.9475C195.899 85.5668 194.837 86.6086 194.638 86.6732C193.856 86.9286 191.121 84.8901 190.476 83.2083C190.476 83.2083 189.236 81.2476 189.512 80.5334C189.786 79.8191 190.316 79.4874 190.545 78.4692C190.545 78.4692 192.96 77.0178 195.236 79.3104C197.51 81.6022 197.419 83.9475 197.419 83.9475Z" fill="white"/>
<path d="M195.374 93.0427C195.006 92.4826 193.994 91.5657 193.58 90.8016C193.203 90.104 193.196 88.559 192.44 87.132C193.085 86.2616 193.991 85.0303 194.857 83.8205C193.891 80.0753 190.926 80.8395 190.926 80.8395C190.926 80.8395 189.127 83.0175 187.96 84.423C187.828 84.4202 187.694 84.4223 187.559 84.4313C185.306 84.5833 182.685 86.0624 180.891 88.661C179.195 88.6888 175.796 92.9484 176.247 93.6556C176.524 94.0887 177.237 93.909 177.902 93.4252C177.869 93.7889 178.343 93.9069 178.893 93.8194C179.114 93.7847 179.347 93.7181 179.563 93.6209C179.637 93.6716 179.725 93.7174 179.833 93.757C180.845 94.1137 181.903 93.8076 183.143 92.7387C184.385 91.6678 185.351 89.4259 187.327 89.1198C189.304 88.8137 190.408 89.5786 191.052 90.6496C191.695 91.7184 192.017 93.5015 193.625 93.7576C195.237 94.0131 195.742 93.605 195.374 93.0427Z" fill="#F68962"/>
<path d="M180.89 88.661C180.89 88.661 179.755 90.3705 179.221 91.2111C178.687 92.0523 177.708 92.5243 177.901 93.4252C177.236 93.9089 176.523 94.0887 176.246 93.6556C175.795 92.9483 179.194 88.6888 180.89 88.661Z" fill="#D84554"/>
<path d="M185.029 86.6226C184.156 87.132 184.316 88.4584 182.408 90.3435C180.782 91.9517 180.432 92.0759 179.787 92.5854C179.126 93.1108 179.563 93.6223 179.563 93.6223C179.347 93.7188 179.114 93.7861 178.894 93.8208C178.237 91.9781 180.187 91.5241 181.581 90.2685C183.902 88.1752 184.087 87.0557 185.029 86.6226Z" fill="#D84554"/>
<path d="M245.581 76.6859C245.581 76.6859 234.419 76.6075 224.708 76.5638C224.297 76.5617 223.889 76.5589 223.484 76.5589C220.152 76.543 217.059 76.5332 214.742 76.5332C213.345 75.8884 212.299 74.2754 211.892 73.437C211.703 73.0476 211.788 72.6582 212.187 72.0821C214.484 68.7533 215.086 64.314 213.513 60.5035C212.898 59.0154 212.037 57.5086 210.844 56.0871C208.285 53.0394 210.961 48.9915 209.855 45.7661C208.749 42.5407 206.13 39.3799 207.818 36.7355C209.505 34.091 216.662 30.8011 216.662 30.8011L226.614 29.6399C226.614 29.6399 234.005 30.0272 237.905 32.0268C241.804 34.0265 242.095 36.3489 241.513 51.1202C240.932 65.8895 244.65 70.6863 245.814 71.9114C246.978 73.1385 245.581 76.6859 245.581 76.6859Z" fill="#CD4353"/>
<path d="M224.708 76.5638C224.297 76.5617 223.889 76.559 223.484 76.559C222.997 73.4856 221.15 61.5433 220.753 54.5698C220.294 46.5185 220.622 34.9024 220.622 34.9024L221.389 34.8289C221.389 34.8289 220.412 56.6063 224.708 76.5638Z" fill="#D84554"/>
<path d="M221.389 34.8289C221.129 34.783 220.872 34.799 220.622 34.9024C220.439 33.6052 220.661 32.2483 220.661 32.2483C220.661 32.2483 220.89 32.0456 221.304 32.0963C221.187 32.4565 221.295 33.8662 221.389 34.8289Z" fill="#00A376"/>
<path d="M210.201 63.0285C210.407 63.1812 222.822 71.2839 231.925 66.1622C238.307 62.5718 243.856 35.3576 238.959 33.4468C234.063 31.536 231.58 35.434 230.821 37.8036C230.063 40.1732 226.752 55.919 226.752 55.919L212.959 56.6832L210.201 63.0285Z" fill="#FF5E6B"/>
<path d="M207.27 59.7801C207.27 59.7801 207.132 61.271 207.615 61.8825C208.098 62.494 209.236 62.3031 209.547 62.8764C209.857 63.4497 210.029 64.0612 210.788 63.9848C211.546 63.9085 214.201 62.7619 214.615 60.4305C215.029 58.0991 214.374 55.8822 213.787 55.6913C213.201 55.5004 212.649 55.9585 211.925 55.3089C211.201 54.6592 210.822 54.2386 209.959 54.8882C209.097 55.5379 207.925 56.073 207.27 59.7801Z" fill="white"/>
<path d="M204.339 53.907C204.339 53.907 211.782 56.1558 212.098 56.9901C212.822 58.9009 211.925 61.1178 210.339 61.2705C209.024 61.3975 204.639 58.2783 203.994 57.6779C202.27 56.0732 202.418 54.1735 204.339 53.907Z" fill="#F68962"/>
<path d="M200.476 56.3424C200.476 56.3424 198.978 57.1538 199.815 59.5178C200.514 61.085 202.297 61.4869 203.361 62.0401C204.426 62.5933 204.893 61.0531 204.164 60.3542C203.434 59.6552 200.791 57.9159 200.476 56.3424Z" fill="#D84554"/>
<path d="M207.718 55.7303C207.742 56.7645 207.344 57.8125 206.329 58.0444C206.771 58.5309 206.649 59.4943 206.2 59.9545C205.754 60.4112 205.25 60.9616 204.622 60.3779C204.617 60.3737 204.611 60.3681 204.606 60.364C204.383 60.4202 204.187 60.4806 203.992 60.5007C203.883 60.5153 203.774 60.516 203.663 60.4966C203.449 60.4605 203.222 60.3577 202.949 60.1356C202.946 60.1328 202.942 60.1308 202.939 60.128C202.705 60.1953 202.511 60.1918 202.351 60.1495C201.914 60.0378 201.735 59.6317 201.705 59.5554L201.7 59.5429C201.7 59.5429 201.36 59.6685 200.94 59.3819C200.806 59.2909 200.666 59.1584 200.525 58.964C199.944 58.1645 199.646 56.6049 199.646 56.6049C199.646 56.6049 199.316 56.7853 198.845 57.0303C197.965 57.4884 196.589 58.1721 195.946 58.3151C194.957 58.5351 194.432 57.8126 194.505 57.41C194.577 57.0067 196.064 56.3751 197.547 55.6408C199.029 54.9085 200.989 53.7397 202.123 53.5571C203.741 53.2962 207.693 54.6927 207.718 55.7303Z" fill="#F68962"/>
<path d="M199.638 56.6181C199.638 56.6181 199.309 56.802 198.839 57.0512C199.005 56.1731 199.367 55.2854 200.146 55.1792C200.206 55.1695 199.591 55.6221 199.638 56.6181Z" fill="#D84554"/>
<path d="M201.711 59.5416C201.709 59.5464 201.706 59.5499 201.704 59.5548L201.7 59.5423C201.7 59.5423 201.36 59.6679 200.94 59.3812C200.74 58.4887 200.547 57.2525 200.756 56.3807C200.756 56.3807 201.035 57.8626 201.711 59.5416Z" fill="#D84554"/>
<path d="M202.952 60.1176C202.951 60.1246 202.95 60.1308 202.949 60.135C202.946 60.1322 202.942 60.1301 202.939 60.1273C202.705 60.1947 202.511 60.1912 202.35 60.1489C202.174 59.2257 202.045 57.966 202.301 56.8367C202.334 56.6903 202.221 58.2242 202.952 60.1176Z" fill="#D84554"/>
<path d="M204.62 60.3412C204.62 60.353 204.621 60.3655 204.622 60.3773C204.617 60.3731 204.611 60.3676 204.606 60.3634C204.383 60.4196 204.187 60.48 203.992 60.5001C203.769 59.6096 203.404 58.3915 203.65 57.356C203.625 57.542 203.795 58.7025 204.62 60.3412Z" fill="#D84554"/>
<path d="M206.328 58.043C206.328 58.043 205.335 59.0821 205.131 59.0807C204.927 59.0793 204.823 57.6349 204.992 57.6523C205.033 57.6564 205.085 57.6793 205.14 57.7112C205.505 57.9229 205.916 58.0243 206.328 58.043Z" fill="#D84554"/>
<path d="M220.477 37.2694C220.477 37.2694 219.063 47.7028 219.443 50.5311C218.546 49.1555 218.029 47.5501 218.029 47.5501C218.029 47.5501 215.788 49.9197 215.788 49.8051C215.788 49.6906 216.615 46.0016 217.994 41.6261C219.236 37.6893 220.236 36.1991 220.236 36.1991L220.477 37.2694Z" fill="#FFCD08"/>
<path d="M221.229 36.9563C221.229 36.9563 222.643 47.3903 222.263 50.218C223.16 48.8424 223.677 47.2369 223.677 47.2369C223.677 47.2369 225.918 49.6065 225.918 49.492C225.918 49.3775 225.091 45.6885 223.712 41.313C222.47 37.3762 221.47 35.886 221.47 35.886L221.229 36.9563Z" fill="#FFCD08"/>
<path d="M220.616 36.7737C220.202 37.8037 216.374 45.7926 215.443 45.6774C214.511 45.5621 214.455 44.0345 214.11 42.6206C214.041 42.4339 213.898 42.2035 213.754 41.9411C213.459 41.3998 213.164 40.7154 213.511 39.9464C214.029 38.799 219.304 36.5044 219.304 36.5044C219.304 36.5044 221.029 35.7416 220.616 36.7737Z" fill="#FFCD08"/>
<path d="M220.178 37.0659C220.316 36.8327 214.55 43.8505 215.023 44.7035C215.497 45.5565 216.804 42.7754 220.178 37.0659Z" fill="#F39E23"/>
<path d="M217.49 39.0771C215.237 40.7082 214.11 42.6204 214.11 42.6204C214.041 42.4337 213.898 42.2033 213.754 41.9409C214.476 40.6298 215.75 39.9524 217.49 39.0771Z" fill="#F39E23"/>
<path d="M221.602 36.0603C222.016 37.0904 225.844 45.0799 226.775 44.9647C227.707 44.8495 227.763 43.3218 228.108 41.9073C228.176 41.7206 228.32 41.4901 228.464 41.2278C228.759 40.6864 229.054 40.002 228.707 39.233C228.189 38.0857 222.914 35.791 222.914 35.791C222.914 35.791 221.189 35.0282 221.602 36.0603Z" fill="#FFCD08"/>
<path d="M222.04 36.3525C221.902 36.1199 227.669 43.1371 227.195 43.9901C226.721 44.8431 225.415 42.0619 222.04 36.3525Z" fill="#F39E23"/>
<path d="M224.729 38.3639C226.982 39.995 228.108 41.9072 228.108 41.9072C228.177 41.7205 228.321 41.49 228.464 41.2277C227.743 39.9166 226.468 39.2398 224.729 38.3639Z" fill="#F39E23"/>
<path d="M219.19 35.4862C219.19 35.4862 218.868 38.1869 220.569 38.1362C222.271 38.0856 223.075 36.7092 222.454 35.0025C221.833 33.295 219.581 33.5498 219.19 35.4862Z" fill="#F39E23"/>
<path d="M229.466 30.6713C229.35 31.1044 226.569 37.2185 225.559 37.5246C224.736 37.7731 222.99 35.1127 221.389 34.8295C221.129 34.7837 220.872 34.7997 220.622 34.9031C220.518 34.9468 220.416 35.0044 220.317 35.078C220.2 35.1654 218.662 36.9902 218.109 37.6003C217.558 38.2111 217.419 38.4158 216.614 38.2381C215.81 38.0584 215.51 34.6699 215.236 33.3199C214.96 31.9699 214.845 31.0024 215.373 30.2118C215.552 29.9425 215.976 29.4469 216.267 29.0506C216.311 28.993 216.35 28.9403 216.385 28.8868C216.938 28.0733 217.474 27.2675 218.366 27.0253C220.493 26.4513 224.429 25.4518 225.487 25.599C226.035 25.6746 226.547 25.9307 227.009 26.2944C227.79 26.9073 228.424 27.8263 228.844 28.7063C229.512 30.1091 229.58 30.2375 229.466 30.6713Z" fill="white"/>
<path d="M227.009 26.2958C226.833 27.019 226.546 27.6132 226.546 27.6132C226.546 27.6132 222.913 32.1976 216.96 30.0827C216.96 30.0827 216.619 29.6676 216.268 29.0506C216.311 28.993 216.351 28.9403 216.386 28.8868C216.939 28.0733 217.475 27.2675 218.367 27.0253C220.493 26.4513 224.43 25.4518 225.488 25.599C226.036 25.6767 226.548 25.9321 227.009 26.2958Z" fill="#F9EFCD"/>
<path d="M208.897 13.9468C208.004 13.8274 207.242 14.9914 207.293 16.6377C207.345 18.2841 208.759 20.4808 209.652 20.5919C210.546 20.7029 211.033 20.569 211.328 19.9686C211.623 19.3689 210.512 14.1626 208.897 13.9468Z" fill="#F67159"/>
<path d="M208.268 16.5295C208.271 16.4275 208.148 15.2246 208.776 15.0192C209.403 14.8144 210.05 16.9043 210.239 17.4984C209.582 17.1667 209.242 17.74 209.205 18.1724C209.169 18.6041 209.824 19.7008 210.675 18.9942C210.795 19.5342 210.795 19.5342 210.795 19.5342C210.795 19.5342 209.63 20.0242 208.973 18.9789C208.316 17.9336 209.194 17.0757 209.654 17.0681C209.443 16.4733 209.098 15.7716 208.89 15.7639C208.606 15.7521 208.268 16.5295 208.268 16.5295Z" fill="#D84554"/>
<path d="M226.546 27.6126C225.765 30.4396 222.478 33.1423 220.34 32.9126C218.201 32.6821 216.96 30.0835 216.96 30.0835C216.96 30.0835 218.408 29.2423 218.132 27.791C218.099 27.6181 218.043 27.4203 217.968 27.2038C217.423 25.6053 215.925 23.0525 215.925 23.0525L222.684 17.8552C222.684 17.8552 222.709 20.4358 223.62 23.0525C224.237 24.8286 224.846 26.5944 226.546 27.6126Z" fill="#F68962"/>
<path d="M223.619 23.0525C223.129 24.0388 222.445 25.1188 221.58 25.8031C220.491 26.6645 219.052 27.0428 217.967 27.2038C217.422 25.6053 215.924 23.0525 215.924 23.0525L222.683 17.8552C222.683 17.8552 222.708 20.4358 223.619 23.0525Z" fill="#D84554"/>
<path d="M212.365 11.6196C210.852 11.9138 209.84 13.5186 210.08 15.1996C210.529 18.3389 211.557 23.902 213.304 24.9625C215.235 26.1348 220.476 24.5037 222.131 21.9558C223.787 19.4078 223.695 13.9551 223.695 13.9551C223.695 13.9551 220.522 12.7828 219.925 8.45178C217.2 11.2378 214.434 11.2163 212.365 11.6196Z" fill="#F68962"/>
<path d="M225.494 12.8543C226.39 12.7697 227.115 13.9628 227.011 15.6064C226.908 17.2499 225.425 19.3898 224.528 19.4661C223.631 19.5425 223.149 19.3898 222.873 18.7783C222.598 18.1661 223.873 13.007 225.494 12.8543Z" fill="#F68962"/>
<path d="M226.04 15.4594C226.04 15.3573 226.201 14.16 225.581 13.931C224.96 13.7019 224.247 15.7654 224.04 16.3512C224.707 16.0452 225.028 16.6317 225.051 17.0648C225.075 17.4979 224.384 18.5681 223.557 17.8289C223.419 18.3641 223.419 18.3641 223.419 18.3641C223.419 18.3641 224.569 18.8992 225.259 17.8796C225.948 16.8607 225.098 15.9688 224.638 15.9431C224.868 15.3573 225.236 14.6688 225.443 14.6688C225.727 14.6695 226.04 15.4594 226.04 15.4594Z" fill="#D84554"/>
<path d="M214.62 14.4806C214.435 14.4508 214.236 18.811 214.417 18.9644C214.598 19.1178 216.36 19.1087 216.251 18.8575C216.143 18.6062 215.16 18.6895 214.948 18.4702C214.735 18.2516 214.806 14.5105 214.62 14.4806Z" fill="#D84554"/>
<path d="M213.89 21.2395C213.89 21.2395 214.648 22.1182 216.097 22.0037C217.545 21.8892 218.269 19.7487 218.269 19.7487C218.269 19.7487 216.58 21.5074 213.89 21.2395Z" fill="#D84554"/>
<path d="M217.679 15.2747C217.231 15.0588 216.678 15.3733 216.593 15.9098C216.538 16.2617 216.694 16.6025 216.95 16.7767C217.254 17.0286 217.76 16.9308 217.99 16.5782C218.275 16.143 218.129 15.4919 217.679 15.2747Z" fill="#002734"/>
<path d="M216.245 14.2773C216.245 14.2773 217.028 13.9303 217.573 14.0274C218.118 14.1239 218.883 14.5431 218.883 14.5431C218.883 14.5431 218.534 13.3347 217.662 13.214C216.79 13.0932 216.245 14.2773 216.245 14.2773Z" fill="#664341"/>
<path d="M213.093 15.2745C212.645 15.0586 212.093 15.373 212.007 15.9095C211.952 16.2614 212.108 16.6022 212.364 16.7764C212.668 17.0284 213.174 16.9305 213.404 16.5779C213.688 16.1427 213.542 15.4917 213.093 15.2745Z" fill="#002734"/>
<path d="M211.246 14.3917C211.246 14.3917 212.028 14.0446 212.573 14.1418C213.118 14.2383 213.883 14.6575 213.883 14.6575C213.883 14.6575 213.534 13.4491 212.662 13.3283C211.79 13.2076 211.246 14.3917 211.246 14.3917Z" fill="#664341"/>
<path d="M6.77058 147.217C7.25341 150.22 6.17817 153.83 8.07503 156.04C9.38323 157.564 11.6671 157.734 12.8413 159.386C14.1025 161.158 13.5157 163.696 13.4206 165.95C13.2772 169.298 14.5221 172.627 16.5912 175.041C17.6332 176.26 19.7361 178.769 21.5453 178.853C21.9881 178.874 22.4145 178.749 22.8028 178.426C22.9293 178.322 23.0483 178.21 23.1641 178.097C26.4763 174.821 25.9214 167.599 23.9795 163.809C22.6581 161.232 20.492 158.929 20.4463 155.965C20.4112 153.606 21.7789 151.349 21.4332 149.02C20.9629 145.875 17.7435 144.314 16.1328 141.675C13.9028 138.017 15.0506 132.825 13.063 129.001C11.4028 125.809 7.51517 124.301 4.42283 125.652C1.32798 127.001 -0.58829 131.042 0.163191 134.631C1.16329 139.411 5.99155 142.388 6.77058 147.217Z" fill="#80B230"/>
<path d="M21.5464 178.852C21.9891 178.873 22.4156 178.748 22.8039 178.425C22.9304 178.321 23.0494 178.21 23.1652 178.096C22.9022 177.159 22.6091 176.23 22.3693 175.325C21.7887 173.135 21.2026 170.948 20.5782 168.772C19.3508 164.496 18.0132 160.255 16.6123 156.044C15.2114 151.833 13.7279 147.652 12.1704 143.508C11.4008 141.459 10.608 139.421 9.78447 137.395C8.95596 135.357 8.22891 133.105 7.09104 131.253C6.63326 130.509 5.53673 130.994 5.76405 131.895C6.30888 134.053 7.35531 136.129 8.15627 138.183C8.97162 140.278 9.78071 142.377 10.5754 144.484C12.1103 148.556 13.5688 152.666 14.9565 156.801C16.3436 160.942 17.6412 165.113 18.8937 169.303C19.5424 171.47 20.1868 173.64 20.7962 175.822C21.0667 176.797 21.2915 177.829 21.5464 178.852Z" fill="#6B9117"/>
<path d="M32.3167 143.883C32.8509 146.876 35.0352 149.807 33.9919 152.629C33.273 154.576 31.2008 155.654 30.6478 157.665C30.0535 159.824 31.4312 161.952 32.2585 164.014C33.489 167.076 33.4202 170.679 32.2835 173.761C31.7118 175.316 30.5752 178.5 28.9163 179.306C28.5111 179.504 28.0721 179.56 27.605 179.415C27.4534 179.369 27.3056 179.313 27.1603 179.254C23.0009 177.535 21.151 170.583 21.7184 166.27C22.1047 163.337 23.3685 160.319 22.4398 157.538C21.6996 155.327 19.6856 153.774 19.2447 151.466C18.6523 148.346 21.1403 145.596 21.7766 142.488C22.6558 138.182 19.8854 133.807 20.4834 129.444C20.9844 125.802 24.1124 122.832 27.4365 122.846C30.7624 122.858 33.8717 125.85 34.3476 129.497C34.9832 134.352 31.46 139.071 32.3167 143.883Z" fill="#8BC53F"/>
<path d="M28.9156 179.306C28.5104 179.504 28.0714 179.559 27.6042 179.414C27.4527 179.368 27.3049 179.313 27.1596 179.253C27.097 178.274 27.0663 177.29 26.993 176.35C26.8164 174.077 26.6461 171.803 26.5152 169.524C26.2572 165.046 26.1138 160.556 26.0393 156.068C25.9648 151.58 25.9767 147.088 26.0706 142.6C26.1163 140.382 26.1871 138.163 26.291 135.945C26.395 133.712 26.3349 131.321 26.7876 129.137C26.9705 128.259 28.1509 128.271 28.2342 129.202C28.434 131.432 28.1384 133.786 28.0658 136.023C27.9931 138.304 27.9267 140.584 27.8766 142.867C27.7808 147.279 27.7683 151.695 27.8309 156.107C27.8954 160.523 28.0532 164.933 28.2593 169.339C28.3651 171.62 28.4753 173.901 28.6231 176.18C28.6895 177.198 28.8185 178.251 28.9156 179.306Z" fill="#80B230"/>
<path d="M48.3909 147.217C47.9081 150.22 48.9833 153.83 47.0865 156.04C45.7782 157.564 43.4944 157.734 42.3202 159.386C41.0589 161.158 41.6457 163.696 41.7409 165.95C41.8843 169.298 40.6394 172.627 38.5703 175.041C37.5282 176.26 35.4253 178.769 33.6162 178.853C33.1734 178.874 32.747 178.749 32.3587 178.426C32.2322 178.322 32.1132 178.21 31.9973 178.097C28.6852 174.821 29.24 167.599 31.182 163.809C32.5033 161.232 34.6695 158.929 34.7152 155.965C34.7503 153.606 33.3826 151.349 33.7283 149.02C34.1986 145.875 37.418 144.314 39.0287 141.675C41.2587 138.017 40.1108 132.825 42.0985 129.001C43.7586 125.809 47.6463 124.301 50.7386 125.652C53.8335 127.001 55.7504 131.042 54.9983 134.631C53.9988 139.411 49.1699 142.388 48.3909 147.217Z" fill="#80B230"/>
<path d="M33.6154 178.852C33.1726 178.873 32.7462 178.748 32.3579 178.425C32.2314 178.321 32.1124 178.21 31.9966 178.096C32.259 177.159 32.5527 176.23 32.7925 175.325C33.373 173.135 33.9592 170.948 34.5836 168.772C35.811 164.496 37.1486 160.255 38.5495 156.044C39.9504 151.833 41.4339 147.652 42.9914 143.508C43.761 141.459 44.5538 139.421 45.3773 137.395C46.2058 135.357 46.9329 133.105 48.0707 131.253C48.5285 130.509 49.6251 130.994 49.3977 131.895C48.8529 134.053 47.8065 136.129 47.0055 138.183C46.1902 140.278 45.3811 142.377 44.5864 144.484C43.0515 148.556 41.593 152.666 40.2053 156.801C38.8181 160.942 37.5206 165.113 36.2681 169.303C35.6193 171.47 34.9749 173.64 34.3656 175.822C34.0951 176.797 33.8703 177.829 33.6154 178.852Z" fill="#6B9117"/>
<path d="M12.8369 175.458C12.8369 175.458 13.2509 189.828 16.6989 192.426C21.9543 192.426 34.2028 192.426 39.4575 192.426C42.9055 189.828 43.3195 175.458 43.3195 175.458H12.8369Z" fill="#3E3F59"/>
<path d="M11.8032 189.961L12.7 193.085C13.392 195.494 15.6965 197.166 18.3267 197.166H37.832C40.4622 197.166 42.7667 195.494 43.4587 193.085L44.3555 189.961H11.8032Z" fill="#F9EFCD"/>
<path d="M73.004 156.807H30.6587V160.17H32.7447C33.3346 165.454 34.4443 170.718 35.3486 175.941C35.8239 178.684 36.2873 181.43 36.73 184.179C36.9455 185.517 37.1515 186.856 37.3657 188.193C37.5172 189.139 37.6299 190.131 37.8309 191.085V197.166H65.9689V191.207C66.0897 190.637 66.1881 190.064 66.2864 189.525C66.5463 188.105 66.8456 186.695 67.1124 185.277C67.6603 182.368 68.1895 179.452 68.6823 176.531L70.1239 167.993C70.556 165.432 71.1516 162.789 71.2681 160.17H73.004V156.807ZM65.4547 163.583C66.3315 164.773 67.1738 165.989 67.9885 167.23C67.4324 167.824 66.9358 168.493 66.4235 169.13C66.4129 169.144 66.4022 169.157 66.3916 169.171C65.2807 167.769 64.0814 166.435 62.9304 165.132C63.2892 164.668 63.6487 164.204 64.0063 163.738C64.2542 163.415 64.5323 163.086 64.8166 162.748C65.0352 163.027 65.2506 163.305 65.4547 163.583ZM67.9259 171.262C67.7417 170.987 67.5526 170.715 67.3585 170.446C67.3804 170.419 67.4023 170.391 67.4243 170.363C67.6979 170.021 67.981 169.684 68.2584 169.341C68.1482 169.981 68.0373 170.621 67.9259 171.262ZM66.1474 181.766C66.0321 181.632 65.9144 181.501 65.7967 181.37C65.962 181.153 66.1367 180.938 66.3146 180.722C66.2582 181.069 66.2031 181.418 66.1474 181.766ZM39.2381 189.828C39.116 188.599 38.8981 187.357 38.6833 186.139C39.3909 186.873 40.1731 187.536 40.9007 188.197C41.1431 188.418 41.388 188.649 41.6353 188.883C41.4074 189.189 41.1957 189.502 41.0034 189.827L39.2381 189.828ZM63.0519 160.17C63.2942 160.645 63.5848 161.096 63.8967 161.533C63.5886 161.968 63.2899 162.399 62.9905 162.782C62.6549 163.211 62.3154 163.637 61.9785 164.065C61.1419 163.143 60.2833 162.244 59.3941 161.387C59.0058 161.012 58.5925 160.577 58.1541 160.17H63.0519ZM66.7416 178.124C66.0522 178.746 65.4942 179.595 64.9237 180.328C64.9093 180.346 64.8955 180.365 64.8817 180.383C63.9054 179.369 62.8828 178.404 61.8683 177.437C62.5046 176.617 63.1421 175.798 63.7814 174.981C64.134 175.36 64.486 175.739 64.8385 176.118C65.4147 176.737 66.0434 177.508 66.7686 177.966C66.7598 178.019 66.7504 178.071 66.7416 178.124ZM61.6272 184.779C60.6108 183.756 59.5869 182.741 58.5599 181.73C59.153 180.956 59.746 180.181 60.3409 179.409C60.4975 179.206 60.6553 179.004 60.8118 178.801C61.8182 179.784 62.8296 180.771 63.8798 181.695C63.4314 182.289 62.9868 182.888 62.549 183.492C62.2422 183.916 61.9334 184.346 61.6272 184.779ZM58.7246 189.447C58.2606 188.961 57.7402 188.519 57.3074 188.076C56.6367 187.39 55.9535 186.718 55.2678 186.049C55.3636 185.923 55.4607 185.798 55.5559 185.672C56.1564 184.877 56.7601 184.086 57.3638 183.294C58.4165 184.327 59.473 185.354 60.5357 186.372C59.8819 187.366 59.2657 188.388 58.7246 189.447ZM54.2345 185.042C52.8574 183.707 51.4822 182.369 50.1039 181.035C50.8554 180.142 51.6031 179.244 52.3483 178.345C53.6696 179.653 54.991 180.962 56.3167 182.267C55.7638 183.024 55.2102 183.78 54.6629 184.541C54.5332 184.721 54.4074 184.904 54.279 185.085C54.2639 185.071 54.2489 185.056 54.2345 185.042ZM41.7255 187.12C40.9421 186.418 40.143 185.647 39.2857 184.996C39.8468 184.243 40.3828 183.467 40.9051 182.678C41.5627 183.344 42.2277 184 42.8934 184.656C43.3124 185.069 43.7357 185.476 44.1603 185.881C44.072 185.987 43.9831 186.092 43.8954 186.198C43.4545 186.733 42.9755 187.261 42.5095 187.804C42.2428 187.575 41.9791 187.348 41.7255 187.12ZM43.8328 183.43C43.1276 182.764 42.4288 182.091 41.7293 181.418C42.3035 180.529 42.8734 179.637 43.4595 178.762C43.6963 178.408 43.9355 178.056 44.1741 177.704C45.0583 178.557 45.9438 179.41 46.8262 180.267C47.2 180.63 47.5783 180.989 47.954 181.35C47.6923 181.663 47.4324 181.978 47.1706 182.291C46.5018 183.09 45.8298 183.886 45.1598 184.685C44.7176 184.267 44.2755 183.848 43.8328 183.43ZM42.5045 160.287C43.4595 161.559 44.5949 162.716 45.7171 163.83C44.9343 164.825 44.1684 165.832 43.417 166.854C42.2941 165.765 41.1625 164.688 40.0178 163.631C40.6427 162.771 41.2677 161.911 41.8921 161.052C42.0781 160.798 42.3041 160.549 42.5045 160.287ZM52.9977 163.564C52.6276 164.023 52.2587 164.483 51.893 164.945C51.4866 165.459 51.0821 165.975 50.68 166.493C49.8333 165.661 48.986 164.829 48.1419 163.994C47.9722 163.826 47.8018 163.655 47.6315 163.482C48.4293 162.442 49.2622 161.427 50.0306 160.363C50.938 161.509 52.012 162.545 52.9977 163.564ZM56.933 160.903C57.4377 161.502 58.0107 162.053 58.4785 162.582C59.3007 163.512 60.1324 164.432 60.9603 165.355C60.5801 165.836 60.2025 166.319 59.8211 166.8C59.6101 167.065 59.3972 167.33 59.1861 167.595C59.1824 167.591 59.178 167.587 59.1742 167.583C57.7784 166.106 56.3612 164.657 54.929 163.224C54.9979 163.14 55.0655 163.056 55.1344 162.973C55.678 162.317 56.3963 161.647 56.933 160.903ZM57.99 168.791C58.0339 168.837 58.0771 168.883 58.1209 168.93C57.3939 169.84 56.6656 170.748 55.9347 171.653C55.4206 171.15 54.9052 170.649 54.393 170.144C53.4611 169.225 52.528 168.309 51.5943 167.393C51.96 166.92 52.3276 166.449 52.6984 165.981C53.0929 165.484 53.4899 164.989 53.8888 164.495C55.2559 165.927 56.6248 167.357 57.99 168.791ZM52.528 175.834C51.7502 175.074 50.9731 174.314 50.1991 173.55C49.5847 172.944 48.971 172.336 48.3567 171.726C49.085 170.721 49.8221 169.723 50.5692 168.735C51.491 169.666 52.4147 170.593 53.3453 171.512C53.8456 172.007 54.346 172.501 54.847 172.995C54.4136 173.529 53.9834 174.065 53.5475 174.597C53.2087 175.011 52.8674 175.422 52.528 175.834ZM54.609 175.596C55.0361 175.072 55.4594 174.543 55.8859 174.018C57.1227 175.234 58.3633 176.445 59.6151 177.641C59.6439 177.668 59.6721 177.696 59.7009 177.724C59.5412 177.935 59.379 178.143 59.2193 178.355C58.6376 179.124 58.0633 179.9 57.4884 180.676C56.1865 179.401 54.8808 178.129 53.5757 176.858C53.9201 176.436 54.2652 176.017 54.609 175.596ZM60.6609 176.274C59.4348 175.07 58.2048 173.871 56.9749 172.672C57.6932 171.78 58.4065 170.884 59.1198 169.988C60.272 171.211 61.4187 172.438 62.5622 173.671C62.6098 173.722 62.6574 173.773 62.7043 173.824C62.0474 174.665 61.3942 175.509 60.7448 176.356C60.7173 176.328 60.6885 176.301 60.6609 176.274ZM47.1618 165.275C47.9928 166.124 48.8264 166.971 49.6611 167.817C48.9071 168.803 48.1619 169.799 47.4261 170.802C46.4348 169.818 45.4409 168.832 44.4415 167.853C45.1842 166.828 45.9275 165.804 46.6702 164.778C46.8362 164.944 47.0003 165.11 47.1618 165.275ZM46.2732 172.392C45.5699 173.373 44.878 174.364 44.1966 175.363C43.3474 174.553 42.497 173.744 41.6397 172.944C41.4712 172.787 41.3028 172.631 41.135 172.474C41.8445 171.467 42.5584 170.464 43.2773 169.466C44.273 170.447 45.2737 171.421 46.2732 172.392ZM40.4856 174.099C41.3942 175.005 42.3129 175.9 43.2335 176.792C42.9936 177.153 42.7531 177.512 42.5158 177.875C41.9428 178.753 41.3635 179.635 40.8012 180.531C40.5018 180.244 40.2044 179.956 39.9032 179.672C39.1009 178.915 38.2944 178.069 37.4195 177.364C38.0633 177.073 38.4108 176.338 38.8373 175.738C39.2926 175.097 39.7428 174.453 40.1944 173.808C40.2908 173.906 40.3879 174.003 40.4856 174.099ZM47.8801 178.891C46.9683 178.022 46.0597 177.148 45.1491 176.275C45.8317 175.281 46.5218 174.293 47.2188 173.312C47.8244 173.9 48.4287 174.488 49.0305 175.077C49.7908 175.82 50.5491 176.567 51.3069 177.316C50.5585 178.221 49.8089 179.124 49.0581 180.027C48.6654 179.648 48.2746 179.267 47.8801 178.891ZM64.0363 172.121C63.9374 172.246 63.8403 172.372 63.742 172.497C62.5697 171.199 61.3786 169.921 60.1819 168.649C60.4104 168.36 60.6415 168.073 60.8695 167.783C61.2214 167.335 61.5708 166.885 61.9203 166.435C63.0763 167.758 64.1854 169.152 65.3239 170.507C64.8943 171.045 64.4634 171.581 64.0363 172.121ZM54.4562 161.777C54.3103 161.954 54.1669 162.132 54.0216 162.308C53.3171 161.595 52.5913 160.852 51.831 160.17H55.7462C55.2878 160.682 54.8764 161.269 54.4562 161.777ZM46.7166 162.547C45.9256 161.736 45.1197 160.917 44.2761 160.17H48.5665C47.9333 160.944 47.3265 161.752 46.7166 162.547ZM41.0936 160.302L39.203 162.886C38.1841 161.96 37.1534 161.053 36.1088 160.17H41.1863C41.1556 160.215 41.1249 160.259 41.0936 160.302ZM42.2609 168.461C41.5376 169.476 40.8268 170.501 40.1248 171.535C39.5781 171.029 39.0283 170.525 38.4735 170.031C37.8278 169.457 37.1847 168.816 36.4576 168.365C37.3895 167.429 38.1973 166.249 38.9732 165.118C40.0547 166.246 41.1531 167.359 42.2609 168.461ZM37.4396 171.029C38.0307 171.644 38.6313 172.248 39.2337 172.851C38.7096 173.639 38.1985 174.435 37.6969 175.242C37.4871 175.579 37.273 175.871 37.1177 176.188C37.0832 175.973 37.0507 175.756 37.0156 175.54C36.6962 173.545 36.3843 171.529 36.0462 169.514C36.472 170.056 36.9705 170.541 37.4396 171.029ZM39.0665 180.765C39.3859 181.109 39.7084 181.448 40.0334 181.786C39.5099 182.667 39.0139 183.567 38.5649 184.492C38.5041 184.454 38.444 184.415 38.3827 184.378C38.3632 184.255 38.3438 184.133 38.3257 184.011C38.0833 182.397 37.8366 180.785 37.5867 179.173C38.0764 179.724 38.5881 180.249 39.0665 180.765ZM42.5459 189.741C42.5772 189.77 42.6091 189.799 42.6404 189.828H42.4601C42.4889 189.8 42.5171 189.769 42.5459 189.741ZM44.7089 189.828C44.3344 189.427 43.9317 189.048 43.5209 188.682C43.9787 188.152 44.4227 187.61 44.8686 187.113C44.9594 187.012 45.0477 186.908 45.1385 186.806C45.7046 187.337 46.2732 187.865 46.8443 188.39C47.3716 188.875 47.9039 189.352 48.4387 189.828H44.7089ZM50.6337 189.828C50.3406 189.472 49.9818 189.176 49.6311 188.854C49.0167 188.288 48.4043 187.72 47.7912 187.153C47.2476 186.651 46.7084 186.144 46.1692 185.636C46.8531 184.851 47.5332 184.061 48.2108 183.269C48.4725 182.963 48.7318 182.655 48.9929 182.348C50.3462 183.643 51.7026 184.935 53.0572 186.228C53.1411 186.308 53.2256 186.387 53.3096 186.468C53.0253 186.879 52.7416 187.29 52.4591 187.703C51.9913 188.386 51.4478 189.081 51.015 189.828H50.6337ZM53.2219 188.712C53.5657 188.263 53.9114 187.817 54.2564 187.37C54.8977 187.979 55.5421 188.585 56.194 189.179C56.4144 189.379 56.638 189.602 56.8659 189.828H52.3921C52.6739 189.454 52.9451 189.072 53.2219 188.712ZM61.5539 187.337C62.4375 188.175 63.3255 189.007 64.2211 189.828H59.7685C60.3841 189.02 60.9734 188.183 61.5539 187.337ZM65.6733 184.763C65.4842 185.969 65.322 187.181 65.1397 188.389C64.305 187.512 63.4621 186.645 62.6141 185.783C62.963 185.272 63.3136 184.763 63.67 184.262C64.077 183.69 64.4897 183.124 64.9062 182.561C65.2324 182.825 65.5625 183.081 65.8994 183.326C65.8242 183.805 65.7484 184.284 65.6733 184.763ZM67.0667 176.215C67.0623 176.241 67.0579 176.268 67.0535 176.294C66.7911 175.949 66.5031 175.624 66.2363 175.308C65.7691 174.755 65.2882 174.212 64.8047 173.675C64.8861 173.571 64.9669 173.466 65.0483 173.363C65.4823 172.81 65.9207 172.261 66.3571 171.711C66.7667 172.175 67.1857 172.627 67.6127 173.068C67.4305 174.117 67.2483 175.166 67.0667 176.215ZM64.7922 160.33C64.7371 160.276 64.6813 160.223 64.625 160.17H64.9256C64.8811 160.223 64.8367 160.276 64.7922 160.33ZM34.4743 160.17C35.6686 161.567 36.9016 162.929 38.1622 164.265C37.2999 165.377 36.3931 166.536 35.7481 167.785C35.2928 165.217 34.7774 162.664 34.1293 160.17H34.4743ZM68.8752 165.7C68.1638 164.574 67.408 163.48 66.5926 162.447C66.3465 162.135 66.0929 161.81 65.8305 161.489C66.1442 161.064 66.4279 160.625 66.644 160.17H69.9937C69.4739 161.953 69.1721 163.841 68.8752 165.7Z" fill="#3E3F59"/>
<path d="M103.776 118.052H100.564V194.484H103.776V118.052Z" fill="#F9EFCD"/>
<path d="M103.775 181.742H65.8936V185.302H103.775V181.742Z" fill="#F9EFCD"/>
<path d="M164.686 139.345H143.258C137.784 139.345 133.348 134.428 133.348 128.362V85.8964C133.348 79.8309 137.785 74.9133 143.258 74.9133H164.686C170.159 74.9133 174.596 79.8309 174.596 85.8964V128.362C174.596 134.428 170.159 139.345 164.686 139.345Z" fill="#2E2D44"/>
<path d="M146.046 149.155H142.592V177.673H146.046V149.155Z" fill="#2E2D44"/>
<path d="M125.85 195.504H115.65L119.378 191.889L142.935 190.455L167.838 192.234L170.322 195.332C170.322 195.332 126.289 195.991 125.85 195.504Z" fill="#2E2D44"/>
<path d="M146.046 149.155H144.199V177.673H146.046V149.155Z" fill="#4F5068"/>
<path d="M147.355 195.465H140.793V171.59C140.793 170.79 141.378 170.141 142.101 170.141H146.046C146.768 170.141 147.354 170.79 147.354 171.59V195.465H147.355Z" fill="#2E2D44"/>
<path d="M126.135 154.136C126.565 154.136 160.092 154.136 162.241 154.136C164.39 154.136 166.109 153.443 166.396 149.287C158.802 149.287 121.121 149.287 121.121 149.287C121.121 149.287 121.121 154.136 126.135 154.136Z" fill="#2E2D44"/>
<path d="M168.381 147.303V150.229H119.3V147.303C119.3 147.303 168.226 147.303 168.381 147.303Z" fill="#3E3F59"/>
<path d="M124.737 142.483C125.203 142.483 161.547 142.483 163.877 142.483C166.206 142.483 168.071 143.171 168.381 147.303C160.15 147.303 119.3 147.303 119.3 147.303C119.3 147.303 119.3 142.483 124.737 142.483Z" fill="#2E2D44"/>
<path d="M125.012 123.594C125.012 123.594 122.346 129.403 122.254 129.709C122.162 130.014 102.484 131.645 97.7937 135.518C94.4834 142.142 93.6556 147.238 94.2993 148.972C94.9431 150.704 102.575 184.438 102.851 185.152C103.127 185.865 102.667 191.063 102.667 191.063C102.667 191.063 122.437 197.79 122.529 197.28C122.621 196.771 121.426 191.063 120.782 186.885C120.138 182.707 109.196 147.443 109.564 147.137C109.931 146.832 129.426 145.201 133.84 143.978C138.253 142.755 142.3 123.493 142.3 123.493L125.012 123.594Z" fill="#2E2D44"/>
<path d="M122.529 197.28H92.4668C92.4668 197.28 93.2108 194.374 95.8704 193.227C98.23 192.21 102.162 189.534 103.609 189.076C105.678 188.846 120.277 193.942 122.529 197.28Z" fill="#2E2D44"/>
<path d="M157.565 140.002C156.96 141.435 155.485 142.609 153.741 143.549C149.908 145.609 144.782 146.523 144.782 146.523C144.782 146.523 143.417 146.738 141.615 146.8C140.717 146.829 139.709 146.82 138.707 146.726C136.18 146.491 133.694 145.719 133.106 143.671C131.819 139.186 136.785 132.97 137.059 132.664C137.335 132.358 137.98 124.306 137.98 124.306H157.657C157.657 124.306 159.496 135.415 157.565 140.002Z" fill="#3E3F59"/>
<path d="M157.657 124.307H154.329C154.966 132.421 154.154 135.422 151.542 137.77C149.495 134.503 145.849 133.933 143.411 133.963C141.775 133.983 140.247 134.86 139.301 136.339C136.425 140.839 137.595 144.665 138.706 146.727C139.708 146.821 140.717 146.83 141.614 146.8C143.416 146.738 144.781 146.524 144.781 146.524C144.781 146.524 144.786 146.523 144.793 146.522C144.796 146.521 144.797 146.521 144.8 146.521C144.808 146.519 144.82 146.517 144.835 146.514C144.837 146.514 144.839 146.514 144.842 146.513C144.879 146.506 144.934 146.496 145.004 146.482C145.007 146.481 145.011 146.48 145.014 146.48C145.087 146.465 145.175 146.448 145.279 146.426C145.28 146.426 145.281 146.426 145.282 146.425C145.334 146.414 145.39 146.403 145.45 146.39C145.45 146.39 145.451 146.39 145.451 146.39C145.753 146.326 146.146 146.238 146.606 146.126C146.881 146.058 147.18 145.983 147.497 145.898C147.499 145.897 147.501 145.897 147.502 145.897C147.712 145.84 147.929 145.781 148.154 145.716C148.159 145.715 148.163 145.713 148.168 145.712C148.278 145.681 148.389 145.649 148.501 145.615C148.503 145.615 148.505 145.614 148.507 145.613C148.732 145.547 148.963 145.477 149.197 145.402C149.213 145.397 149.23 145.392 149.246 145.387C149.358 145.352 149.471 145.315 149.585 145.278C149.587 145.277 149.589 145.277 149.592 145.276C149.71 145.237 149.829 145.198 149.948 145.157C149.965 145.151 149.982 145.146 149.999 145.139C150.098 145.105 150.197 145.071 150.297 145.036C150.323 145.027 150.349 145.018 150.374 145.009C150.604 144.927 150.836 144.842 151.068 144.753C151.1 144.741 151.132 144.728 151.165 144.716C151.251 144.683 151.337 144.649 151.423 144.615C151.456 144.601 151.49 144.588 151.523 144.575C151.634 144.531 151.744 144.485 151.855 144.439C151.884 144.426 151.913 144.414 151.942 144.402C152.026 144.367 152.109 144.331 152.192 144.295C152.235 144.277 152.277 144.258 152.32 144.239C152.395 144.206 152.47 144.172 152.544 144.138C152.584 144.12 152.622 144.103 152.662 144.085C152.764 144.038 152.865 143.99 152.966 143.941C153.012 143.919 153.058 143.897 153.103 143.875C153.166 143.844 153.228 143.813 153.29 143.782C153.341 143.757 153.391 143.732 153.442 143.705C153.504 143.673 153.565 143.641 153.627 143.609C153.665 143.589 153.704 143.569 153.742 143.549C153.742 143.549 153.742 143.549 153.742 143.548C155.486 142.611 156.962 141.436 157.566 140.001C159.496 135.415 157.657 124.307 157.657 124.307Z" fill="#2E2D44"/>
<path d="M138.3 133.429C135.494 134.435 133.058 139.391 132.783 141.837C132.506 144.283 131.127 197.942 131.127 197.942C131.127 197.942 141.334 190.961 149.197 192.184C148.093 185.356 148.001 180.362 148.001 180.362C148.001 180.362 149.611 145.506 147.679 140.461C145.748 135.416 142.99 131.747 138.3 133.429Z" fill="#3E3F59"/>
<path d="M131.127 197.942L159.494 198.299C159.494 198.299 158.942 195.955 157.287 194.935C155.632 193.916 150.852 190.655 147.358 189.737C140.458 187.927 131.127 197.942 131.127 197.942Z" fill="#2E2D44"/>
<path d="M102.759 117.581L106.713 116.766C106.713 116.766 111.587 116.664 114.069 116.46C116.552 116.256 126.07 113.758 128.874 107.491C131.758 101.045 134.481 77.7306 129.471 80.0245C126.023 84.3562 118.299 102.906 118.299 102.906C118.299 102.906 106.161 105.249 104.966 106.269C103.77 107.288 103.402 110.244 103.402 110.244C103.402 110.244 100.919 110.651 100.644 111.06C100.368 111.467 100 114.117 100.46 114.728C100.919 115.339 102.759 117.581 102.759 117.581Z" fill="#F39E23"/>
<path d="M90.0117 118.123H101.517C101.517 118.123 99.3971 113.215 95.9897 113.299C92.583 113.383 90.3931 116.82 90.0117 118.123Z" fill="white"/>
<path d="M94.6432 113.306C94.6432 113.306 92.9849 113.465 92.5847 113.75C92.1846 114.035 92.0418 114.606 92.0418 114.606C92.0418 114.606 90.9841 115.049 90.8413 115.366C90.6985 115.684 90.6127 116.285 90.6127 116.285C90.6127 116.285 89.8694 116.634 89.7548 117.014C89.6402 117.394 89.669 117.996 90.0122 118.123C90.3554 118.25 90.8125 117.362 90.8125 117.362C90.8125 117.362 91.6416 117.014 91.8132 116.444C92.4996 116.539 93.1853 115.937 93.3569 114.891C94.3288 114.257 94.6432 113.306 94.6432 113.306Z" fill="#D84554"/>
<path d="M102.161 118.25C101.59 118.567 97.987 118.313 96.7878 118.186C95.814 117.046 99.1312 116.729 99.1312 116.729C99.1312 116.729 99.1882 116.094 98.6728 115.207C98.1593 114.32 96.9012 113.56 96.5016 113.495C96.1002 113.432 95.5297 114.32 94.8145 114.7C94.2835 114.982 93.3398 115.275 93.3567 114.889C93.373 114.516 94.3868 113.39 95.2147 112.532C95.9054 111.815 96.898 111.581 97.7892 111.933C99.0585 112.436 100.71 113.181 101.532 113.306C102.79 113.495 103.648 114.889 103.82 116.158C103.991 117.426 102.733 117.932 102.161 118.25Z" fill="#F68962"/>
<path d="M99.1315 116.73C99.1315 116.73 99.1885 116.095 98.6731 115.207C98.1596 114.321 96.9015 113.561 96.502 113.496C99.8554 113.92 100.962 116.73 100.962 116.73H99.1315Z" fill="#D84554"/>
<path d="M158.024 125.276C158.024 125.276 147.633 125.369 138.19 125.401C137.868 125.403 137.548 125.403 137.23 125.405C129.876 125.426 123.345 125.408 123.128 125.276C122.622 124.97 121.841 121.862 121.978 121.3C122.115 120.74 125.472 118.651 125.472 118.651L126.071 113.757C126.071 113.757 128.139 81.6042 129.471 80.0238C130.322 79.0167 133.556 77.7847 135.794 77.0198C137.073 76.5847 138.024 76.3036 138.024 76.3036C140.184 75.5914 146.584 75.5914 146.584 75.5914C146.584 75.5914 148.719 76.407 151.103 77.3586C153.977 78.5038 157.218 79.844 157.519 80.1786C158.07 80.7894 157.334 116.205 157.334 116.205C157.334 116.205 158.943 119.619 159.265 121.351C159.587 123.084 158.024 125.276 158.024 125.276Z" fill="#FFCD08"/>
<path d="M138.438 113.299C137.88 118.172 138.033 122.86 138.19 125.401C137.869 125.403 137.548 125.403 137.23 125.406C137.245 123.989 137.289 121.635 137.403 117.76C137.656 109.173 141.287 79.8212 141.287 79.8212L142.023 79.3632C142.023 79.3632 139.265 106.064 138.438 113.299Z" fill="#F39E23"/>
<path d="M151.102 77.3585C150.269 81.5653 146.644 84.892 146.644 84.892C146.644 84.892 144.368 80.84 143.472 80.4575C142.576 80.0751 141.059 81.6048 141.059 81.6048C141.059 81.6048 141.059 81.6048 139.747 81.0704C138.438 80.5339 137.611 82.1393 135.195 84.2798C135.096 82.6099 135.545 78.9049 135.794 77.0205C137.072 76.5853 138.024 76.3042 138.024 76.3042C140.184 75.592 146.583 75.592 146.583 75.592C146.583 75.592 148.718 76.4069 151.102 77.3585Z" fill="#F39E23"/>
<path d="M144.789 94.5481H153.11C153.11 94.5481 154.93 103.194 149.6 103.915C144.269 104.635 144.789 94.5481 144.789 94.5481Z" fill="#F39E23"/>
<path d="M97.9033 98.5772L98.4124 97.4146L121.951 97.3049L128.378 116.405H127.376L97.9033 98.5772Z" fill="#242435"/>
<path d="M97.9033 98.5771L121.346 98.6403L127.376 116.405H103.96L97.9033 98.5771Z" fill="#3E3F59"/>
<path d="M127.376 116.405H103.96V118.406H127.376V116.405Z" fill="#242435"/>
<path d="M127.375 118.406H140.369V116.36L127.375 116.405V118.406Z" fill="#3E3F59"/>
<path d="M172.714 116.154C163.277 113.606 158.834 112.876 157.515 109.775C156.2 106.674 153.737 82.3232 157.52 80.1785C157.52 80.1785 159.326 80.9503 161.136 84.9635C162.947 88.9766 172.604 111.406 172.714 116.154Z" fill="#FFCD08"/>
<path d="M172.714 116.154C163.277 113.606 158.834 112.876 157.515 109.775C156.2 106.674 153.737 82.3232 157.52 80.1785C157.52 80.1785 156.094 83.1318 157.566 91.4899C159.035 99.848 160.507 106.575 160.507 106.268C160.507 105.962 166.668 105.453 167.035 106.167C167.403 106.879 163.358 107.796 163.633 107.796C163.909 107.796 170.852 109.326 172.714 116.154Z" fill="#F39E23"/>
<path d="M154.834 118.596C153.252 118.499 152.198 118.367 152.092 118.239C151.098 117.025 152.092 113.021 152.092 113.021C152.092 113.021 153.127 111.033 153.68 111.033C154.231 111.033 156.081 111.075 156.081 111.075C156.081 111.075 156.713 108.128 158.369 108.128C160.024 108.128 172.163 112.791 172.713 116.155C173.146 118.787 160.55 118.937 154.834 118.596Z" fill="#FFCD08"/>
<path d="M172.714 116.154C169.38 111.874 160.093 110.141 158.989 110.141C157.885 110.141 157.012 112.434 157.012 112.434L154.622 112.079C154.622 112.079 155.449 112.588 155.955 114.728C156.137 116.829 155.466 117.972 154.834 118.596C153.252 118.5 152.198 118.368 152.093 118.24C151.099 117.026 152.093 113.022 152.093 113.022C152.093 113.022 153.128 111.034 153.681 111.034C154.232 111.034 156.082 111.075 156.082 111.075C156.082 111.075 156.714 108.129 158.37 108.129C160.024 108.128 172.163 112.79 172.714 116.154Z" fill="#F39E23"/>
<path d="M145.633 111.924C145.633 111.924 144.027 111.805 143.429 111.983C142.832 112.161 140.805 116.506 140.896 117.169C140.988 117.831 141.48 118.003 141.788 117.525C141.983 117.222 143.819 114.278 143.819 114.278C143.819 114.278 148.231 115.796 148.713 115.592C149.196 115.39 150.621 114.141 145.633 111.924Z" fill="#D84554"/>
<path d="M150.368 117.53C150.368 117.53 149.472 118.217 148.759 117.988C148.046 117.759 143.955 116.765 143.955 115.721C143.955 114.676 145.127 115.186 145.242 115.211C145.357 115.237 146.139 115.848 147.219 115.67C148.299 115.492 148.92 115.033 149.702 115.746C150.484 116.46 150.368 117.53 150.368 117.53Z" fill="#D84554"/>
<path d="M152.828 118.091C152.576 118.181 152.329 118.229 152.092 118.238C150.456 118.317 149.196 116.766 149.196 116.766C149.196 116.766 149.196 118.752 148.415 118.701C147.633 118.65 147.908 116.204 147.955 113.861C147.494 114.626 147.011 117.427 146.758 118.268C146.569 118.899 146.32 118.686 145.931 118.65C144.853 118.553 145.599 117.131 146.207 113.682C145.565 114.346 144.69 117.683 144.507 118.192C144.322 118.701 143.678 119.059 143.264 118.446C142.851 117.835 144.966 111.465 145.563 111.415C146.162 111.364 146.667 111.822 146.713 112.078C146.713 112.078 146.921 111.657 147.471 111.657C148.024 111.657 148.544 112.221 148.544 112.221C148.544 112.221 148.771 111.832 149.323 111.776C149.878 111.719 152.782 113.248 153.472 113.554C154.162 113.861 154.805 117.377 152.828 118.091Z" fill="#F68962"/>
<path d="M142.368 80.6117C142.368 80.6117 142.36 81.7542 142.348 83.5997C142.346 83.7288 142.346 83.8621 142.343 83.9981C142.341 84.3577 142.339 84.7422 142.337 85.1475C142.335 85.2787 142.335 85.4099 142.333 85.5459C142.331 85.9145 142.328 86.2969 142.324 86.6953C142.324 86.8265 142.322 86.9605 142.322 87.0937C142.321 87.4671 142.316 87.8496 142.314 88.241C142.312 88.375 142.312 88.5083 142.312 88.6415C142.308 89.017 142.306 89.3995 142.302 89.7888C142.302 89.9228 142.3 90.0561 142.3 90.1893C142.296 90.5669 142.294 90.9493 142.292 91.3366C142.29 91.4678 142.29 91.6018 142.287 91.735C142.286 92.1126 142.281 92.4978 142.279 92.8844C142.277 93.0156 142.277 93.1496 142.275 93.2828C142.273 93.6653 142.271 94.0477 142.267 94.4322C142.267 94.5662 142.265 94.6974 142.265 94.8306C142.263 95.2131 142.259 95.5976 142.257 95.98C142.255 96.114 142.252 96.2452 142.252 96.3784C142.248 96.7609 142.246 97.1454 142.242 97.5257C142.242 97.6618 142.24 97.795 142.24 97.9269C142.235 98.3114 142.234 98.6939 142.232 99.0742C142.23 99.2082 142.227 99.3414 142.227 99.4754C142.223 99.8627 142.221 100.245 142.217 100.623C142.217 100.757 142.215 100.89 142.212 101.021C142.21 101.411 142.206 101.793 142.204 102.171C142.202 102.304 142.2 102.438 142.2 102.571C142.195 102.96 142.193 103.345 142.189 103.718C142.187 103.854 142.187 103.986 142.185 104.117C142.18 104.511 142.178 104.895 142.174 105.266C142.172 105.399 142.172 105.533 142.17 105.664C142.165 106.063 142.162 106.448 142.157 106.814C142.157 106.95 142.155 107.083 142.155 107.214C142.149 107.622 142.145 108.007 142.143 108.362C142.141 108.5 142.138 108.634 142.136 108.762C142.13 109.197 142.126 109.585 142.12 109.912C142.12 110.057 142.118 110.191 142.114 110.312C142.106 110.851 142.098 111.157 142.091 111.18C142.083 111.208 142.011 111.323 141.885 111.503C141.802 111.629 141.692 111.789 141.563 111.971C141.308 112.337 140.977 112.805 140.613 113.312C140.503 113.464 140.391 113.621 140.277 113.78C138.959 115.62 137.402 117.756 137.402 117.756C137.402 117.756 136.837 116.231 136.274 114.602C136.23 114.48 136.189 114.356 136.145 114.232C136.02 113.867 135.899 113.506 135.785 113.158C135.744 113.029 135.704 112.904 135.664 112.782C135.538 112.384 135.425 112.015 135.34 111.704C135.302 111.566 135.269 111.437 135.242 111.324C135.224 111.244 135.207 111.17 135.195 111.105C135.172 110.983 135.188 110.663 135.242 110.179C135.255 110.055 135.269 109.919 135.288 109.772C135.329 109.433 135.381 109.037 135.446 108.593C135.465 108.459 135.485 108.324 135.504 108.181C135.56 107.814 135.619 107.418 135.685 106.996C135.706 106.863 135.726 106.724 135.75 106.586C135.808 106.209 135.872 105.812 135.939 105.402C135.959 105.266 135.982 105.13 136.005 104.99C136.068 104.605 136.134 104.209 136.2 103.801C136.224 103.665 136.246 103.527 136.271 103.389C136.336 103.001 136.402 102.603 136.471 102.2C136.494 102.064 136.517 101.925 136.542 101.787C136.608 101.398 136.677 101 136.745 100.598C136.768 100.462 136.793 100.324 136.816 100.186C136.885 99.7947 136.953 99.3984 137.024 98.9972C137.046 98.8591 137.07 98.7209 137.097 98.5828C137.163 98.1886 137.234 97.793 137.304 97.3939C137.327 97.2557 137.352 97.1176 137.377 96.9795C137.446 96.5832 137.516 96.1869 137.587 95.7905C137.609 95.6524 137.635 95.5143 137.66 95.3783C137.73 94.9799 137.801 94.5835 137.872 94.1872C137.897 94.0491 137.922 93.911 137.946 93.7728C138.017 93.3744 138.088 92.976 138.161 92.5818C138.183 92.4437 138.208 92.3056 138.233 92.1695C138.306 91.7683 138.378 91.37 138.447 90.9785C138.474 90.8404 138.499 90.7022 138.524 90.5634C138.597 90.1602 138.67 89.7618 138.74 89.3724C138.765 89.2322 138.791 89.0934 138.815 88.958C138.89 88.5527 138.963 88.1543 139.034 87.767C139.059 87.6268 139.084 87.488 139.108 87.3526C139.183 86.9424 139.256 86.5461 139.327 86.1637C139.352 86.0235 139.379 85.8846 139.401 85.7465C139.48 85.3294 139.553 84.9331 139.622 84.5555C139.648 84.4153 139.674 84.2765 139.699 84.1404C139.734 83.9537 139.767 83.7739 139.798 83.6011C140.148 81.7077 140.367 80.5305 140.367 80.5305L142.368 80.6117Z" fill="#D84554"/>
<path d="M142.368 80.6117C142.368 80.6117 142.162 110.957 142.092 111.184C142.024 111.415 137.403 117.759 137.403 117.759L139.541 110.344C139.541 110.344 140.645 91.7711 141.196 83.9731C140.755 84.0057 140.248 83.828 139.799 83.6045C140.149 81.7111 140.369 80.5339 140.369 80.5339L142.368 80.6117Z" fill="#CD4353"/>
<path d="M142.348 83.5996C142.346 83.7287 142.346 83.862 142.344 83.998L139.623 84.5581C139.649 84.4179 139.675 84.2791 139.7 84.1431L142.348 83.5996Z" fill="#CD4353"/>
<path d="M142.338 85.1473C142.336 85.2785 142.336 85.4097 142.333 85.5457L139.328 86.1655C139.353 86.0253 139.38 85.8865 139.403 85.7484L142.338 85.1473Z" fill="#CD4353"/>
<path d="M142.325 86.6958C142.325 86.827 142.324 86.9609 142.324 87.0942L139.035 87.7688C139.06 87.6286 139.085 87.4898 139.11 87.3545L142.325 86.6958Z" fill="#CD4353"/>
<path d="M142.314 88.2416C142.312 88.3755 142.312 88.5088 142.312 88.6421L138.742 89.3743C138.767 89.2341 138.792 89.0953 138.816 88.96L142.314 88.2416Z" fill="#CD4353"/>
<path d="M142.302 89.7894C142.302 89.9234 142.3 90.0567 142.3 90.1899L138.449 90.9805C138.476 90.8423 138.501 90.7042 138.526 90.5654L142.302 89.7894Z" fill="#CD4353"/>
<path d="M142.292 91.3379C142.29 91.4691 142.29 91.603 142.287 91.7363L138.161 92.5838C138.184 92.4456 138.209 92.3075 138.234 92.1715L142.292 91.3379Z" fill="#CD4353"/>
<path d="M142.279 92.8856C142.277 93.0168 142.277 93.1508 142.275 93.284L137.873 94.1891C137.898 94.051 137.923 93.9129 137.947 93.7747L142.279 92.8856Z" fill="#CD4353"/>
<path d="M142.267 94.4342C142.267 94.5682 142.265 94.6993 142.265 94.8326L137.588 95.7932C137.611 95.6551 137.636 95.517 137.661 95.3809L142.267 94.4342Z" fill="#CD4353"/>
<path d="M142.256 95.9821C142.254 96.116 142.252 96.2472 142.252 96.3805L137.305 97.3966C137.327 97.2585 137.352 97.1204 137.377 96.9822L142.256 95.9821Z" fill="#CD4353"/>
<path d="M142.242 97.5276C142.242 97.6636 142.24 97.7969 142.24 97.9288L137.025 98.9997C137.047 98.8616 137.071 98.7235 137.098 98.5854L142.242 97.5276Z" fill="#CD4353"/>
<path d="M142.231 99.0762C142.23 99.2101 142.227 99.3434 142.227 99.4773L136.746 100.602C136.768 100.466 136.793 100.328 136.816 100.189L142.231 99.0762Z" fill="#CD4353"/>
<path d="M142.217 100.624C142.217 100.758 142.215 100.891 142.212 101.022L136.472 102.202C136.495 102.066 136.517 101.928 136.542 101.789L142.217 100.624Z" fill="#CD4353"/>
<path d="M142.204 102.172C142.202 102.306 142.2 102.44 142.2 102.573L136.201 103.804C136.224 103.668 136.247 103.529 136.272 103.391L142.204 102.172Z" fill="#CD4353"/>
<path d="M142.19 103.72C142.188 103.856 142.188 103.987 142.186 104.119L135.939 105.404C135.96 105.268 135.983 105.132 136.006 104.992L142.19 103.72Z" fill="#CD4353"/>
<path d="M142.176 105.269C142.174 105.402 142.174 105.536 142.171 105.667L135.686 106.998C135.707 106.865 135.727 106.726 135.751 106.588L142.176 105.269Z" fill="#CD4353"/>
<path d="M142.159 106.817C142.159 106.953 142.157 107.086 142.157 107.217L135.447 108.595C135.466 108.461 135.487 108.325 135.506 108.182L142.159 106.817Z" fill="#CD4353"/>
<path d="M142.144 108.365C142.142 108.503 142.14 108.637 142.138 108.765L135.243 110.182C135.256 110.058 135.27 109.922 135.289 109.775L142.144 108.365Z" fill="#CD4353"/>
<path d="M142.121 109.915C142.121 110.06 142.119 110.194 142.115 110.315L135.341 111.707C135.303 111.569 135.27 111.44 135.243 111.327L142.121 109.915Z" fill="#CD4353"/>
<path d="M141.887 111.507C141.803 111.633 141.693 111.793 141.565 111.975L135.786 113.161C135.745 113.032 135.706 112.908 135.666 112.786L141.887 111.507Z" fill="#CD4353"/>
<path d="M140.614 113.315C140.504 113.467 140.392 113.624 140.278 113.783L136.274 114.605C136.23 114.483 136.189 114.359 136.145 114.235L140.614 113.315Z" fill="#CD4353"/>
<path d="M145.058 78.508C145.081 78.8072 144.734 79.5332 144.291 80.1808C144.054 80.5243 143.79 80.8443 143.541 81.0699C142.818 81.7195 142.023 82.5212 140.575 82.0235C139.817 81.7632 139.371 81.0123 139.124 80.3328C138.902 79.7178 138.839 79.1625 138.852 79.082C139.093 77.5911 140.818 76.6743 141.817 76.5202C142.818 76.3682 145.023 78.0499 145.058 78.508Z" fill="#D84554"/>
<path d="M145.058 78.508C145.081 78.8072 144.734 79.5332 144.291 80.1808C143.231 80.6992 141.884 81.2309 141.404 81.183C140.61 81.1067 139.989 80.305 139.748 80.1898C139.619 80.1273 139.357 80.2217 139.124 80.3328C138.902 79.7178 138.839 79.1625 138.852 79.082C139.093 77.5911 140.818 76.6743 141.817 76.5202C142.818 76.3682 145.023 78.0499 145.058 78.508Z" fill="#CD4353"/>
<path d="M151.333 61.2711C150.525 62.6163 149.616 63.6622 148.652 64.4639C143.505 68.7422 136.768 66.0284 135.008 64.6922C134.964 64.6603 134.923 64.6277 134.885 64.5958C133.058 63.0681 133.079 59.0966 133.287 57.3364C133.595 54.719 135.297 53.8091 135.403 53.7543C135.28 53.773 132.749 54.1825 132.851 53.3996C134.576 49.9972 138.816 48.7368 141.092 48.6216C143.368 48.5063 146.989 49.9972 148.542 53.1303C153.782 55.6158 151.333 61.2711 151.333 61.2711Z" fill="#3E3F59"/>
<path d="M149.851 62.914L149.747 62.5704C149.425 63.2916 149.055 63.9183 148.652 64.4639C143.505 68.7422 136.768 66.0283 135.008 64.6922C134.661 63.8885 134.391 62.923 134.231 61.7688C133.265 54.8113 137.852 52.5583 137.852 52.5583C137.852 52.5583 134.921 52.8256 134.576 52.8623C134.231 52.9019 134.86 50.6177 138.576 49.9583C146.334 48.5827 147.783 55.157 147.783 55.157C147.783 55.157 149.438 55.4242 150.3 57.2975C151.16 59.1708 149.851 62.914 149.851 62.914Z" fill="#2E2D44"/>
<path d="M141.013 72.7375C141.013 72.7375 137.794 74.6739 137.334 76.101C136.875 77.528 136.69 81.5023 136.69 81.5023C136.69 81.5023 139.035 78.7503 139.863 78.9543C140.691 79.1584 141.288 79.8205 141.288 79.8205C141.288 79.8205 143.173 78.1388 144.093 78.903C145.012 79.6671 146.714 82.0624 146.714 82.0624C146.714 82.0624 149.151 78.6482 149.427 76.8138C149.703 74.9793 146.76 72.0746 145.703 71.7692C144.645 71.4638 141.013 72.7375 141.013 72.7375Z" fill="#FFCD08"/>
<path d="M146.584 75.5917C146.044 76.8931 145.098 77.8308 143.678 78.089C141.702 78.4436 140.552 78.241 139.679 76.7647C138.806 75.2856 140.23 74.1639 140.23 73.8599C140.228 73.7933 140.224 73.7197 140.22 73.6413C140.134 72.2892 139.725 69.3748 139.725 69.3748L145.886 68.0498C145.886 68.1463 146.086 70.0682 146.393 71.7125C146.489 72.224 146.595 72.7098 146.709 73.1041C146.943 73.9217 146.906 74.8129 146.584 75.5917Z" fill="#F68962"/>
<path d="M146.392 71.7123C145.692 72.2308 144.69 72.7999 143.403 73.1199C142.196 73.4218 141.084 73.569 140.219 73.6404C140.134 72.2884 139.724 69.374 139.724 69.374L145.885 68.049C145.885 68.1461 146.085 70.0673 146.392 71.7123Z" fill="#D84554"/>
<path d="M148.33 64.5591C148.188 66.1486 147.9 67.9226 147.312 68.9159C146.07 71.005 140.966 72.0746 140.002 72.178C139.035 72.2794 137.771 72.3807 136.576 70.7496C135.845 69.7522 135.284 65.1401 135.2 61.5551C135.196 61.3844 135.194 61.2164 135.192 61.0505C135.17 58.9815 136.672 57.2907 138.539 57.2748C140.657 57.2588 143.251 57.3095 144.71 57.3442C145.333 57.3581 145.88 57.821 146.046 58.4866C146.148 58.8968 146.302 59.3875 146.53 59.8963C146.814 60.5272 147.266 60.8694 147.66 61.054C148.152 61.2845 148.466 61.8238 148.45 62.4151C148.434 62.9988 148.401 63.7554 148.33 64.5591Z" fill="#F68962"/>
<path d="M148.33 64.5591L147.989 62.1514C147.989 62.1514 147.748 62.2277 146.576 61.7689C145.404 61.3101 144.817 58.8246 144.508 58.597C144.196 58.3665 139.611 58.2145 137.335 58.8253C136.051 59.171 135.471 60.4654 135.2 61.5551C135.196 61.3844 135.194 61.2164 135.192 61.0505C135.17 58.9815 136.672 57.2907 138.539 57.2748C140.657 57.2588 143.251 57.3095 144.71 57.3442C145.333 57.3581 145.88 57.821 146.046 58.4866C146.148 58.8968 146.302 59.3875 146.53 59.8963C146.814 60.5272 147.266 60.8694 147.66 61.054C148.152 61.2845 148.466 61.8238 148.45 62.4151C148.434 62.9988 148.401 63.7554 148.33 64.5591Z" fill="#F67159"/>
<path d="M138.3 67.5777C138.3 67.5777 139.058 68.4564 140.507 68.3419C141.955 68.2273 142.679 66.0868 142.679 66.0868C142.679 66.0868 140.989 67.8456 138.3 67.5777Z" fill="#D84554"/>
<path d="M139.311 60.609C139.126 60.5792 138.926 64.9394 139.107 65.0928C139.288 65.2462 141.05 65.2372 140.941 64.9859C140.833 64.7346 139.85 64.8179 139.638 64.5986C139.426 64.38 139.497 60.6396 139.311 60.609Z" fill="#D84554"/>
<path d="M142.613 61.526C142.165 61.3102 141.613 61.6246 141.527 62.1611C141.472 62.513 141.628 62.8538 141.884 63.028C142.188 63.28 142.694 63.1821 142.924 62.8295C143.208 62.3943 143.063 61.7433 142.613 61.526Z" fill="#002734"/>
<path d="M141.179 60.5286C141.179 60.5286 141.962 60.1816 142.507 60.2788C143.052 60.3752 143.817 60.7945 143.817 60.7945C143.817 60.7945 143.468 59.5861 142.596 59.4653C141.724 59.3445 141.179 60.5286 141.179 60.5286Z" fill="#002734"/>
<path d="M137.796 61.5259C137.348 61.3101 136.796 61.6245 136.711 62.161C136.655 62.5129 136.812 62.8537 137.067 63.0279C137.372 63.2799 137.878 63.182 138.107 62.8294C138.392 62.3942 138.246 61.7432 137.796 61.5259Z" fill="#002734"/>
<path d="M136.266 60.6451C136.266 60.6451 136.964 60.2314 137.481 60.2633C137.998 60.2953 138.749 60.6076 138.749 60.6076C138.749 60.6076 138.315 59.5033 137.49 59.4846C136.668 59.4659 136.266 60.6451 136.266 60.6451Z" fill="#002734"/>
<path d="M150.645 60.1253C151.541 60.0407 152.265 61.2338 152.162 62.8774C152.059 64.5209 150.576 66.6608 149.679 66.7371C148.782 66.8135 148.299 66.6608 148.024 66.0493C147.748 65.4378 149.024 60.278 150.645 60.1253Z" fill="#F68962"/>
<path d="M151.191 62.7309C151.191 62.6289 151.352 61.4316 150.731 61.2019C150.11 60.9728 149.398 63.0363 149.19 63.6221C149.857 63.3167 150.179 63.9025 150.202 64.3356C150.225 64.7687 149.535 65.839 148.708 65.0998C148.57 65.6349 148.57 65.6349 148.57 65.6349C148.57 65.6349 149.72 66.1701 150.409 65.1512C151.099 64.1323 150.248 63.2404 149.788 63.2147C150.018 62.6289 150.386 61.9411 150.593 61.9411C150.877 61.9411 151.191 62.7309 151.191 62.7309Z" fill="#D84554"/>
<path d="M133.271 60.1253C132.375 60.0407 131.651 61.2338 131.754 62.8774C131.857 64.5209 133.34 66.6608 134.237 66.7371C135.134 66.8135 135.616 66.6608 135.892 66.0493C136.168 65.4378 134.892 60.278 133.271 60.1253Z" fill="#F68962"/>
<path d="M132.725 62.7309C132.725 62.6289 132.564 61.4316 133.185 61.2019C133.806 60.9728 134.518 63.0363 134.726 63.6221C134.059 63.3167 133.737 63.9025 133.714 64.3356C133.691 64.7687 134.381 65.839 135.208 65.0998C135.346 65.6349 135.346 65.6349 135.346 65.6349C135.346 65.6349 134.196 66.1701 133.507 65.1512C132.817 64.1323 133.668 63.2404 134.127 63.2147C133.898 62.6289 133.53 61.9411 133.323 61.9411C133.039 61.9411 132.725 62.7309 132.725 62.7309Z" fill="#D84554"/>
<path d="M204.253 112.538C204.48 112.603 205.086 113.756 205.086 113.756L202.462 115.763H166.975L168.215 114.353L167.262 112.514L168.618 111.819L167.127 110.203L168.601 108.535L167.544 106.59L168.525 105.807L167.937 104.789L168.553 103.953L166.766 103.311L168.432 102.188L167.371 101.027L168.325 100.33L166.768 99.2448L168.645 98.4911L167.536 97.8157L168.565 97.0182L167.605 95.8466L168.934 95.3365L167.739 94.4036L168.766 93.5138L168.463 92.6948L188.649 92.5484L204.866 92.4318L204.149 93.3785L205.213 94.5994L204.208 95.7876L205.712 97.7165L204.548 99.1081L205.637 100.323L204.246 101.094L205.782 102.268L204.38 103.524L205.262 105.206L204.143 105.878L205.93 108.205L204.195 109.326L205.325 111.522C205.323 111.52 204.025 112.475 204.253 112.538Z" fill="white"/>
<path d="M204.252 112.538C204.479 112.603 205.086 113.756 205.086 113.756L202.462 115.763H187.75L189.933 114.472L188.105 113.843L189.819 112.763L188.105 111.774L189.362 110.513L187.646 110.154L189.592 108.714L187.419 107.635L189.933 105.655H187.078L190.504 104.214L188.562 103.585L190.618 102.413L188.104 101.605L190.047 100.433L188.903 99.2643L190.849 97.8241L187.877 96.5657L190.849 95.0332L188.79 94.2246L190.391 93.5034L188.649 92.5484L204.865 92.4318L204.149 93.3785L205.213 94.5994L204.207 95.7876L205.712 97.7165L204.548 99.1081L205.636 100.323L204.245 101.094L205.781 102.268L204.38 103.524L205.262 105.206L204.143 105.878L205.93 108.205L204.194 109.326L205.324 111.522C205.323 111.52 204.025 112.475 204.252 112.538Z" fill="#F9EFCD"/>
<path d="M170.853 95.3031H202.046C202.046 95.3031 176.909 98.7228 170.853 95.3031Z" fill="#EFD7B2"/>
<path d="M170.738 99.2628C170.738 99.2628 174.471 97.883 182.393 98.963C179.269 100.103 170.738 99.2628 170.738 99.2628Z" fill="#F9EFCD"/>
<path d="M170.206 111.143C170.206 111.143 173.938 109.763 181.86 110.843C178.737 111.983 170.206 111.143 170.206 111.143Z" fill="#EFD7B2"/>
<path d="M177.594 105.923C177.594 105.262 202.426 105.083 203.569 105.802C202.35 106.643 177.594 106.583 177.594 105.923Z" fill="#F9EFCD"/>
<path d="M74.985 104.639C74.4402 104.051 74.4082 103.061 74.6875 102.277C74.9668 101.492 75.496 100.857 75.9869 100.212C76.4779 99.5684 76.9545 98.8618 77.0891 98.0324C77.349 96.4353 76.312 94.6376 77.0797 93.2557C77.7918 91.9745 79.6235 91.9578 80.3537 90.689C80.839 89.8464 80.6655 88.7574 80.6806 87.7579C80.7106 85.691 81.6976 83.6538 83.2701 82.5419C84.8425 81.43 86.9617 81.3085 88.6005 82.2955C91.7906 84.216 92.1494 90.2039 88.5598 91.921C87.985 92.1959 87.3612 92.3243 86.7757 92.5693C86.1896 92.815 85.6147 93.2127 85.3448 93.8388C84.9089 94.85 85.3761 96.1729 84.82 97.1093C84.1361 98.2607 82.5117 97.9581 81.4584 98.6918C80.7751 99.1672 80.4038 100.035 80.1514 100.884C79.899 101.733 79.7224 102.629 79.2803 103.376C78.4412 104.796 76.352 105.025 74.985 104.639Z" fill="white"/>
<path d="M73.0967 113.007V115.763H80.1205L79.9339 112.801L73.0967 113.007Z" fill="#F9EFCD"/>
<path d="M73.562 114.293H71.6939C70.0244 114.293 68.6078 112.936 68.3655 111.106L68.0135 108.445C67.81 106.904 68.8871 105.522 70.2924 105.522H73.0967V106.9H70.1415C69.5177 106.9 69.0412 107.518 69.1389 108.201L69.4827 110.613C69.6793 111.992 70.7514 113.008 72.0114 113.008H73.4292L73.562 114.293Z" fill="#F9EFCD"/>
<path d="M81.7561 103.271V112.211C81.7561 113.361 80.915 114.293 79.8774 114.293H73.5624C72.5417 114.293 71.71 113.392 71.6837 112.262L71.4814 103.271H81.7561Z" fill="white"/>
<path d="M81.7563 103.271V112.211C81.7563 113.361 80.9153 114.293 79.8776 114.293H78.1523V103.271H81.7563Z" fill="#F9EFCD"/>
<path d="M170.422 118.052H167.211V197.166H170.422V118.052Z" fill="#F9EFCD"/>
<path d="M205.092 118.052H201.881V195.523H205.092V118.052Z" fill="white"/>
<path d="M68.0404 118.053H64.8291V197.166H68.0404V118.053Z" fill="#F9EFCD"/>
<path d="M205.271 119.412H168.269V142.819H205.271V119.412Z" fill="#F9EFCD"/>
<path d="M64.8291 115.763V142.818H97.3087C101.618 142.818 105.75 140.922 108.797 137.544H130.245L130.51 137.824C133.547 141.027 137.583 142.805 141.775 142.787C151.928 142.742 170.347 142.68 170.347 142.819C170.347 143.01 170.347 115.763 170.347 115.763H64.8291V115.763Z" fill="#F9EFCD"/>
<path d="M209.044 115.763H64.8291V125.526H209.044V115.763Z" fill="#B76D5C"/>
<path d="M209.044 115.763H170.347V125.526H209.044V115.763Z" fill="#B25842"/>
<path d="M205.092 181.742H167.211V185.302H205.092V181.742Z" fill="#F9EFCD"/>
<path d="M178.763 147.217C179.246 150.22 178.171 153.83 180.068 156.04C181.376 157.564 183.66 157.734 184.834 159.386C186.095 161.158 185.509 163.696 185.413 165.95C185.27 169.298 186.515 172.627 188.584 175.041C189.626 176.26 191.729 178.769 193.538 178.853C193.981 178.874 194.407 178.749 194.796 178.426C194.922 178.322 195.041 178.21 195.157 178.097C198.469 174.821 197.914 167.599 195.972 163.809C194.651 161.232 192.485 158.929 192.439 155.965C192.404 153.606 193.772 151.349 193.426 149.02C192.956 145.875 189.736 144.314 188.126 141.675C185.896 138.017 187.044 132.825 185.056 129.001C183.396 125.809 179.508 124.301 176.416 125.652C173.321 127.001 171.404 131.042 172.156 134.631C173.156 139.411 177.984 142.388 178.763 147.217Z" fill="#80B230"/>
<path d="M193.538 178.852C193.981 178.873 194.408 178.748 194.796 178.425C194.922 178.321 195.041 178.21 195.157 178.096C194.895 177.159 194.601 176.23 194.361 175.325C193.781 173.135 193.195 170.948 192.57 168.772C191.342 164.496 190.005 160.255 188.604 156.044C187.203 151.832 185.719 147.652 184.161 143.508C183.391 141.459 182.599 139.421 181.775 137.395C180.947 135.357 180.22 133.105 179.082 131.253C178.624 130.509 177.527 130.994 177.755 131.895C178.3 134.053 179.346 136.129 180.147 138.183C180.962 140.278 181.771 142.377 182.566 144.484C184.101 148.556 185.56 152.666 186.947 156.801C188.334 160.942 189.632 165.113 190.884 169.303C191.533 171.47 192.178 173.64 192.787 175.822C193.059 176.797 193.283 177.829 193.538 178.852Z" fill="#6B9117"/>
<path d="M204.309 143.883C204.843 146.876 207.027 149.807 205.984 152.629C205.265 154.576 203.192 155.654 202.639 157.665C202.045 159.824 203.422 161.952 204.25 164.014C205.48 167.076 205.411 170.679 204.275 173.761C203.703 175.316 202.566 178.5 200.907 179.306C200.502 179.504 200.063 179.56 199.596 179.415C199.445 179.369 199.297 179.313 199.152 179.254C194.992 177.535 193.142 170.583 193.71 166.27C194.096 163.337 195.36 160.319 194.431 157.538C193.691 155.327 191.677 153.774 191.236 151.466C190.644 148.346 193.132 145.596 193.768 142.488C194.647 138.182 191.877 133.807 192.475 129.444C192.976 125.802 196.104 122.832 199.428 122.846C202.754 122.858 205.863 125.85 206.339 129.497C206.975 134.352 203.452 139.071 204.309 143.883Z" fill="#8BC53F"/>
<path d="M200.908 179.306C200.503 179.504 200.064 179.559 199.597 179.414C199.445 179.368 199.297 179.313 199.152 179.253C199.089 178.274 199.059 177.29 198.986 176.35C198.809 174.077 198.639 171.803 198.508 169.524C198.25 165.046 198.106 160.556 198.032 156.068C197.957 151.58 197.97 147.088 198.063 142.6C198.109 140.382 198.18 138.163 198.284 135.945C198.387 133.712 198.327 131.321 198.78 129.137C198.963 128.259 200.143 128.271 200.227 129.202C200.426 131.432 200.131 133.786 200.058 136.023C199.986 138.304 199.919 140.584 199.869 142.867C199.773 147.279 199.761 151.695 199.823 156.107C199.888 160.523 200.046 164.933 200.252 169.339C200.358 171.62 200.468 173.901 200.616 176.18C200.681 177.198 200.81 178.251 200.908 179.306Z" fill="#80B230"/>
<path d="M220.383 147.217C219.9 150.22 220.976 153.83 219.079 156.04C217.771 157.564 215.487 157.734 214.312 159.386C213.051 161.158 213.637 163.696 213.733 165.95C213.876 169.298 212.631 172.627 210.562 175.041C209.52 176.26 207.417 178.769 205.608 178.853C205.165 178.874 204.739 178.749 204.35 178.426C204.224 178.322 204.105 178.21 203.989 178.097C200.677 174.821 201.232 167.599 203.174 163.809C204.495 161.232 206.661 158.929 206.707 155.965C206.742 153.606 205.374 151.349 205.72 149.02C206.19 145.875 209.41 144.314 211.02 141.675C213.25 138.017 212.103 132.825 214.09 129.001C215.75 125.809 219.638 124.301 222.73 125.652C225.825 127.001 227.742 131.042 226.991 134.631C225.991 139.411 221.162 142.388 220.383 147.217Z" fill="#80B230"/>
<path d="M205.608 178.852C205.165 178.873 204.738 178.748 204.35 178.425C204.224 178.321 204.105 178.21 203.989 178.096C204.252 177.159 204.545 176.23 204.785 175.325C205.365 173.135 205.951 170.948 206.576 168.772C207.803 164.496 209.141 160.255 210.542 156.044C211.943 151.832 213.426 147.652 214.984 143.508C215.754 141.459 216.547 139.421 217.37 137.395C218.199 135.357 218.926 133.105 220.064 131.253C220.521 130.509 221.618 130.994 221.391 131.895C220.846 134.053 219.799 136.129 218.998 138.183C218.183 140.278 217.374 142.377 216.579 144.484C215.044 148.556 213.586 152.666 212.198 156.801C210.811 160.942 209.513 165.113 208.261 169.303C207.612 171.47 206.968 173.64 206.358 175.822C206.087 176.797 205.862 177.829 205.608 178.852Z" fill="#6B9117"/>
<path d="M184.83 175.458C184.83 175.458 185.244 189.828 188.692 192.426C193.947 192.426 206.195 192.426 211.45 192.426C214.898 189.828 215.312 175.458 215.312 175.458H184.83Z" fill="#3E3F59"/>
<path d="M183.795 188.758L184.692 192.403C185.384 195.215 187.688 197.166 190.318 197.166H209.824C212.453 197.166 214.758 195.215 215.45 192.403L216.347 188.758H183.795Z" fill="#F9EFCD"/>
<path d="M113.108 41.0408H66.0165C64.0639 41.0408 62.4814 42.7947 62.4814 44.9588V75.5455C62.4814 77.709 64.0639 79.4636 66.0165 79.4636H110.068L116.643 86.7507C116.643 86.7507 116.643 75.8967 116.643 75.5455V44.9588C116.643 42.7947 115.06 41.0408 113.108 41.0408Z" fill="white"/>
<path d="M113.838 43.9456H65.2861V76.5083H113.838V43.9456Z" fill="#3E3F59"/>
<path d="M109.505 47.0792H69.1594C68.8356 47.0792 68.5732 46.7884 68.5732 46.4296C68.5732 46.0707 68.8356 45.7799 69.1594 45.7799H109.505C109.828 45.7799 110.091 46.0707 110.091 46.4296C110.091 46.7884 109.828 47.0792 109.505 47.0792Z" fill="#EB008B"/>
<path d="M109.505 64.1252H69.1594C68.8356 64.1252 68.5732 63.8344 68.5732 63.4756C68.5732 63.1167 68.8356 62.8259 69.1594 62.8259H109.505C109.828 62.8259 110.091 63.1167 110.091 63.4756C110.091 63.8344 109.828 64.1252 109.505 64.1252Z" fill="#EB008B"/>
<path d="M84.8845 50.5956H69.1604C68.8366 50.5956 68.5742 50.3048 68.5742 49.9459C68.5742 49.5871 68.8366 49.2963 69.1604 49.2963H84.8845C85.2082 49.2963 85.4706 49.5871 85.4706 49.9459C85.4706 50.3048 85.2082 50.5956 84.8845 50.5956Z" fill="#8BC53F"/>
<path d="M84.8845 68.1766H69.1604C68.8366 68.1766 68.5742 67.8858 68.5742 67.527C68.5742 67.1681 68.8366 66.8773 69.1604 66.8773H84.8845C85.2082 66.8773 85.4706 67.1681 85.4706 67.527C85.4706 67.8858 85.2082 68.1766 84.8845 68.1766Z" fill="#8BC53F"/>
<path d="M84.8845 71.8455H69.1604C68.8366 71.8455 68.5742 71.5546 68.5742 71.1958C68.5742 70.837 68.8366 70.5461 69.1604 70.5461H84.8845C85.2082 70.5461 85.4706 70.837 85.4706 71.1958C85.4706 71.5546 85.2082 71.8455 84.8845 71.8455Z" fill="#8BC53F"/>
<path d="M88.9533 55.1057H73.2292C72.9055 55.1057 72.6431 54.8149 72.6431 54.456C72.6431 54.0972 72.9055 53.8064 73.2292 53.8064H88.9533C89.2771 53.8064 89.5395 54.0972 89.5395 54.456C89.5395 54.8149 89.2771 55.1057 88.9533 55.1057Z" fill="#8BC53F"/>
<path d="M88.9533 59.9976H73.2292C72.9055 59.9976 72.6431 59.7067 72.6431 59.3479C72.6431 58.9891 72.9055 58.6982 73.2292 58.6982H88.9533C89.2771 58.6982 89.5395 58.9891 89.5395 59.3479C89.5395 59.7067 89.2771 59.9976 88.9533 59.9976Z" fill="#8BC53F"/>
<path d="M107.505 55.1057H91.781C91.4572 55.1057 91.1948 54.8149 91.1948 54.456C91.1948 54.0972 91.4572 53.8064 91.781 53.8064H107.505C107.829 53.8064 108.091 54.0972 108.091 54.456C108.091 54.8149 107.829 55.1057 107.505 55.1057Z" fill="#8BC53F"/>
<path d="M148.153 0H190.574C192.332 0 193.758 1.58042 193.758 3.52939V31.0829C193.758 33.0319 192.332 34.6123 190.574 34.6123H150.891L144.969 41.1769C144.969 41.1769 144.969 31.3994 144.969 31.0836V3.53008C144.969 1.57972 146.394 0 148.153 0Z" fill="white"/>
<path d="M147.495 31.9493L191.232 31.9493V2.61618L147.495 2.61618V31.9493Z" fill="#3E3F59"/>
<path d="M161.373 20.7946H183.764C184.056 20.7946 184.292 20.5322 184.292 20.2095C184.292 19.8861 184.055 19.6244 183.764 19.6244H161.373C161.081 19.6244 160.845 19.8868 160.845 20.2095C160.844 20.5322 161.081 20.7946 161.373 20.7946Z" fill="#EB008B"/>
<path d="M164.92 8.9959H187.312C187.604 8.9959 187.84 8.73354 187.84 8.41079C187.84 8.08735 187.603 7.82568 187.312 7.82568H164.92C164.629 7.82568 164.393 8.08805 164.393 8.41079C164.393 8.73354 164.629 8.9959 164.92 8.9959Z" fill="#EB008B"/>
<path d="M173.578 24.4441H187.743C188.034 24.4441 188.27 24.1818 188.27 23.859C188.27 23.5356 188.034 23.2739 187.743 23.2739H173.578C173.286 23.2739 173.05 23.5363 173.05 23.859C173.049 24.1818 173.286 24.4441 173.578 24.4441Z" fill="#8BC53F"/>
<path d="M173.578 27.7486H187.743C188.034 27.7486 188.27 27.4862 188.27 27.1635C188.27 26.84 188.034 26.5784 187.743 26.5784H173.578C173.286 26.5784 173.05 26.8407 173.05 27.1635C173.049 27.4869 173.286 27.7486 173.578 27.7486Z" fill="#EB008B"/>
<path d="M155.916 24.4441H170.081C170.373 24.4441 170.609 24.1818 170.609 23.859C170.609 23.5356 170.372 23.2739 170.081 23.2739H155.916C155.624 23.2739 155.388 23.5363 155.388 23.859C155.388 24.1818 155.624 24.4441 155.916 24.4441Z" fill="#8BC53F"/>
<path d="M155.916 27.7486H170.081C170.373 27.7486 170.609 27.4862 170.609 27.1635C170.609 26.84 170.372 26.5784 170.081 26.5784H155.916C155.624 26.5784 155.388 26.8407 155.388 27.1635C155.388 27.4869 155.624 27.7486 155.916 27.7486Z" fill="#EB008B"/>
<path d="M173.578 13.5928H187.743C188.034 13.5928 188.27 13.3305 188.27 13.0077C188.27 12.6843 188.034 12.4226 187.743 12.4226H173.578C173.286 12.4226 173.05 12.685 173.05 13.0077C173.049 13.3305 173.286 13.5928 173.578 13.5928Z" fill="#8BC53F"/>
<path d="M173.578 16.898H187.743C188.034 16.898 188.27 16.6356 188.27 16.3129C188.27 15.9894 188.034 15.7278 187.743 15.7278H173.578C173.286 15.7278 173.05 15.9901 173.05 16.3129C173.049 16.6356 173.286 16.898 173.578 16.898Z" fill="#EB008B"/>
<path d="M155.916 13.5928H170.081C170.373 13.5928 170.609 13.3305 170.609 13.0077C170.609 12.6843 170.372 12.4226 170.081 12.4226H155.916C155.624 12.4226 155.388 12.685 155.388 13.0077C155.388 13.3305 155.624 13.5928 155.916 13.5928Z" fill="#8BC53F"/>
<path d="M155.916 16.898H170.081C170.373 16.898 170.609 16.6356 170.609 16.3129C170.609 15.9894 170.372 15.7278 170.081 15.7278H155.916C155.624 15.7278 155.388 15.9901 155.388 16.3129C155.388 16.6356 155.624 16.898 155.916 16.898Z" fill="#EB008B"/>
<path d="M126.521 10.8047H106.601C105.246 10.8047 104.146 12.0228 104.146 13.5248V25.2068C104.146 26.7088 105.246 27.9269 106.601 27.9269H112.121C113.264 27.9269 114.3 28.6717 114.766 29.828L116.054 33.0228L117.493 29.7371C117.977 28.63 118.989 27.9276 120.1 27.9276H126.521C127.876 27.9276 128.975 26.7102 128.975 25.2075V13.5255C128.975 12.0228 127.876 10.8047 126.521 10.8047Z" fill="white"/>
<path d="M107.994 19.3224L111.781 21.3151C111.994 21.4269 112.144 21.5379 112.229 21.6469C112.314 21.7559 112.357 21.8884 112.357 22.0432C112.357 22.2237 112.306 22.3701 112.205 22.4819C112.104 22.5936 111.97 22.6498 111.804 22.6498C111.734 22.6498 111.657 22.6366 111.574 22.611C111.49 22.5853 111.388 22.5422 111.268 22.4819L106.684 20.1414C106.661 20.1282 106.624 20.1116 106.574 20.0901C106.163 19.8798 105.957 19.632 105.957 19.3488C105.957 19.0607 106.172 18.8074 106.603 18.5881L106.649 18.5561L111.268 16.1706C111.423 16.0936 111.537 16.0429 111.611 16.0193C111.685 15.9957 111.749 15.9839 111.804 15.9839C111.97 15.9839 112.104 16.0401 112.205 16.1519C112.306 16.2636 112.357 16.4101 112.357 16.5905C112.357 16.7453 112.313 16.8799 112.226 16.9938C112.139 17.1076 111.99 17.2207 111.78 17.3325L107.994 19.3224Z" fill="#3E3F59"/>
<path d="M118.803 15.3758L115.394 23.4681C115.289 23.7214 115.192 23.8977 115.103 23.9969C115.015 24.0955 114.909 24.1455 114.789 24.1455C114.611 24.1455 114.453 24.083 114.315 23.9588C114.177 23.8338 114.108 23.679 114.108 23.4944C114.108 23.3695 114.161 23.1765 114.266 22.9142L114.277 22.8885L117.681 14.8094C117.789 14.5471 117.888 14.3666 117.978 14.268C118.067 14.1695 118.172 14.1195 118.292 14.1195C118.467 14.1195 118.624 14.182 118.764 14.3062C118.903 14.4311 118.973 14.5859 118.973 14.7705C118.973 14.8483 118.962 14.9295 118.938 15.0156C118.914 15.1009 118.869 15.221 118.803 15.3758Z" fill="#3E3F59"/>
<path d="M124.929 19.3223L121.136 17.3296C120.93 17.2178 120.784 17.1047 120.697 16.9908C120.61 16.877 120.566 16.7424 120.566 16.5876C120.566 16.4071 120.614 16.2607 120.711 16.1489C120.808 16.0372 120.938 15.981 121.101 15.981C121.163 15.981 121.233 15.9941 121.313 16.0198C121.393 16.0455 121.506 16.0948 121.654 16.1684L126.262 18.5539L126.308 18.5858C126.739 18.8052 126.954 19.0585 126.954 19.3465C126.954 19.6346 126.746 19.8817 126.331 20.0878C126.292 20.1135 126.262 20.1309 126.238 20.1392L121.636 22.4796C121.52 22.54 121.42 22.583 121.337 22.6087C121.254 22.6344 121.175 22.6476 121.101 22.6476C120.939 22.6476 120.808 22.5927 120.712 22.4831C120.615 22.3734 120.567 22.2263 120.567 22.0417C120.567 21.8869 120.608 21.755 120.692 21.6453C120.775 21.5357 120.923 21.4253 121.137 21.3136L124.929 19.3223Z" fill="#3E3F59"/>
<path d="M60.1613 61.5745H58.2826C58.1097 61.5745 57.9695 61.4191 57.9695 61.2275C57.9695 61.0359 58.1097 60.8805 58.2826 60.8805H60.1613C60.3341 60.8805 60.4744 61.0359 60.4744 61.2275C60.4744 61.4191 60.3341 61.5745 60.1613 61.5745ZM56.4577 61.2233C56.4058 61.2233 56.3538 61.2087 56.3049 61.1789C55.68 60.7916 55.2147 60.1635 54.9955 59.4104C54.9429 59.2278 55.0331 59.0328 55.1978 58.9738C55.3618 58.9162 55.5384 59.0155 55.5917 59.198C55.762 59.7838 56.124 60.2724 56.6105 60.5737C56.7615 60.6674 56.8153 60.8784 56.7308 61.0463C56.6738 61.1595 56.5673 61.2233 56.4577 61.2233ZM55.174 57.5836C55.0011 57.5836 54.8608 57.4281 54.8608 57.2365V55.1543C54.8608 54.9627 55.0011 54.8073 55.174 54.8073C55.3468 54.8073 55.4871 54.9627 55.4871 55.1543V57.2365C55.4871 57.4281 55.3474 57.5836 55.174 57.5836ZM55.174 53.4191C55.0011 53.4191 54.8608 53.2636 54.8608 53.0721V50.9898C54.8608 50.7983 55.0011 50.6428 55.174 50.6428C55.3468 50.6428 55.4871 50.7983 55.4871 50.9898V53.0721C55.4871 53.2636 55.3474 53.4191 55.174 53.4191ZM55.174 49.2546C55.0011 49.2546 54.8608 49.0992 54.8608 48.9076V46.8254C54.8608 46.6338 55.0011 46.4783 55.174 46.4783C55.3468 46.4783 55.4871 46.6338 55.4871 46.8254V48.9076C55.4871 49.0992 55.3474 49.2546 55.174 49.2546ZM55.174 45.0902C55.0011 45.0902 54.8608 44.9347 54.8608 44.7431V42.6609C54.8608 42.4693 55.0011 42.3138 55.174 42.3138C55.3468 42.3138 55.4871 42.4693 55.4871 42.6609V44.7431C55.4871 44.9347 55.3474 45.0902 55.174 45.0902ZM55.3981 40.9514C55.3675 40.9514 55.3368 40.9465 55.3061 40.9361C55.1408 40.8799 55.0481 40.6855 55.0994 40.5023C55.2961 39.7943 55.6086 39.1405 56.0269 38.5589C56.1346 38.409 56.3319 38.3847 56.4671 38.504C56.6024 38.6234 56.6243 38.8421 56.5172 38.992C56.1477 39.5056 55.8722 40.0831 55.6981 40.7077C55.6562 40.8556 55.5322 40.9514 55.3981 40.9514ZM57.6845 37.7676C57.5768 37.7676 57.4722 37.7059 57.4134 37.5955C57.3263 37.4296 57.377 37.2172 57.5261 37.1207C58.1047 36.7466 58.7341 36.4995 59.396 36.3857C59.5664 36.3593 59.7273 36.4864 59.7536 36.6751C59.7799 36.8646 59.6628 37.0416 59.4918 37.0715C58.9076 37.1721 58.3521 37.39 57.8417 37.7204C57.7929 37.7523 57.7384 37.7676 57.6845 37.7676ZM128.953 37.0097C128.78 37.0097 128.641 36.8549 128.64 36.6626C128.64 36.4711 128.78 36.3156 128.953 36.3156C129.549 36.3142 130.134 36.2018 130.689 35.9804C130.851 35.9144 131.03 36.0088 131.09 36.19C131.148 36.3704 131.064 36.5689 130.901 36.6342C130.277 36.8827 129.622 37.009 128.953 37.0097ZM127.074 37.0097H125.196C125.023 37.0097 124.883 36.8542 124.883 36.6626C124.883 36.4711 125.023 36.3156 125.196 36.3156H127.074C127.247 36.3156 127.387 36.4711 127.387 36.6626C127.387 36.8549 127.247 37.0097 127.074 37.0097ZM123.317 37.0097H121.438C121.265 37.0097 121.125 36.8542 121.125 36.6626C121.125 36.4711 121.265 36.3156 121.438 36.3156H123.317C123.49 36.3156 123.63 36.4711 123.63 36.6626C123.63 36.8549 123.49 37.0097 123.317 37.0097ZM119.56 37.0097H117.681C117.508 37.0097 117.368 36.8542 117.368 36.6626C117.368 36.4711 117.508 36.3156 117.681 36.3156H119.56C119.732 36.3156 119.873 36.4711 119.873 36.6626C119.873 36.8549 119.732 37.0097 119.56 37.0097ZM115.802 37.0097H113.923C113.751 37.0097 113.61 36.8542 113.61 36.6626C113.61 36.4711 113.751 36.3156 113.923 36.3156H115.802C115.975 36.3156 116.115 36.4711 116.115 36.6626C116.115 36.8549 115.975 37.0097 115.802 37.0097ZM112.045 37.0097H110.166C109.993 37.0097 109.853 36.8542 109.853 36.6626C109.853 36.4711 109.993 36.3156 110.166 36.3156H112.045C112.218 36.3156 112.358 36.4711 112.358 36.6626C112.358 36.8549 112.218 37.0097 112.045 37.0097ZM108.287 37.0097H106.409C106.236 37.0097 106.096 36.8542 106.096 36.6626C106.096 36.4711 106.236 36.3156 106.409 36.3156H108.287C108.46 36.3156 108.6 36.4711 108.6 36.6626C108.6 36.8549 108.46 37.0097 108.287 37.0097ZM104.53 37.0097H102.651C102.478 37.0097 102.338 36.8542 102.338 36.6626C102.338 36.4711 102.478 36.3156 102.651 36.3156H104.53C104.703 36.3156 104.843 36.4711 104.843 36.6626C104.843 36.8549 104.703 37.0097 104.53 37.0097ZM100.773 37.0097H98.8938C98.721 37.0097 98.5807 36.8542 98.5807 36.6626C98.5807 36.4711 98.721 36.3156 98.8938 36.3156H100.773C100.945 36.3156 101.086 36.4711 101.086 36.6626C101.086 36.8549 100.945 37.0097 100.773 37.0097ZM97.0151 37.0097H95.1364C94.9636 37.0097 94.8233 36.8542 94.8233 36.6626C94.8233 36.4711 94.9636 36.3156 95.1364 36.3156H97.0151C97.188 36.3156 97.3283 36.4711 97.3283 36.6626C97.3283 36.8549 97.188 37.0097 97.0151 37.0097ZM93.2577 37.0097H91.379C91.2062 37.0097 91.0659 36.8542 91.0659 36.6626C91.0659 36.4711 91.2062 36.3156 91.379 36.3156H93.2577C93.4306 36.3156 93.5709 36.4711 93.5709 36.6626C93.5709 36.8549 93.4306 37.0097 93.2577 37.0097ZM89.5003 37.0097H87.6216C87.4488 37.0097 87.3085 36.8542 87.3085 36.6626C87.3085 36.4711 87.4488 36.3156 87.6216 36.3156H89.5003C89.6732 36.3156 89.8135 36.4711 89.8135 36.6626C89.8135 36.8549 89.6732 37.0097 89.5003 37.0097ZM85.7429 37.0097H83.8642C83.6914 37.0097 83.5511 36.8542 83.5511 36.6626C83.5511 36.4711 83.6914 36.3156 83.8642 36.3156H85.7429C85.9158 36.3156 86.056 36.4711 86.056 36.6626C86.056 36.8549 85.9158 37.0097 85.7429 37.0097ZM81.9855 37.0097H80.1068C79.934 37.0097 79.7937 36.8542 79.7937 36.6626C79.7937 36.4711 79.934 36.3156 80.1068 36.3156H81.9855C82.1584 36.3156 82.2986 36.4711 82.2986 36.6626C82.2986 36.8549 82.1584 37.0097 81.9855 37.0097ZM78.2281 37.0097H76.3494C76.1766 37.0097 76.0363 36.8542 76.0363 36.6626C76.0363 36.4711 76.1766 36.3156 76.3494 36.3156H78.2281C78.401 36.3156 78.5412 36.4711 78.5412 36.6626C78.5412 36.8549 78.401 37.0097 78.2281 37.0097ZM74.4707 37.0097H72.592C72.4192 37.0097 72.2789 36.8542 72.2789 36.6626C72.2789 36.4711 72.4192 36.3156 72.592 36.3156H74.4707C74.6436 36.3156 74.7838 36.4711 74.7838 36.6626C74.7838 36.8549 74.6436 37.0097 74.4707 37.0097ZM70.7133 37.0097H68.8346C68.6618 37.0097 68.5215 36.8542 68.5215 36.6626C68.5215 36.4711 68.6618 36.3156 68.8346 36.3156H70.7133C70.8862 36.3156 71.0264 36.4711 71.0264 36.6626C71.0264 36.8549 70.8862 37.0097 70.7133 37.0097ZM66.9559 37.0097H65.0772C64.9044 37.0097 64.7641 36.8542 64.7641 36.6626C64.7641 36.4711 64.9044 36.3156 65.0772 36.3156H66.9559C67.1288 36.3156 67.269 36.4711 67.269 36.6626C67.269 36.8549 67.1288 37.0097 66.9559 37.0097ZM63.1985 37.0097H61.3198C61.147 37.0097 61.0067 36.8542 61.0067 36.6626C61.0067 36.4711 61.147 36.3156 61.3198 36.3156H63.1985C63.3714 36.3156 63.5116 36.4711 63.5116 36.6626C63.5116 36.8549 63.3714 37.0097 63.1985 37.0097ZM132.419 35.6292C132.328 35.6292 132.239 35.5861 132.178 35.5028C132.067 35.355 132.086 35.1364 132.22 35.0142C132.678 34.595 133.065 34.0973 133.369 33.5337C133.458 33.3692 133.65 33.3158 133.798 33.4144C133.947 33.5129 133.995 33.726 133.906 33.8905C133.565 34.5221 133.132 35.0808 132.618 35.55C132.56 35.6028 132.489 35.6292 132.419 35.6292ZM134.307 32.1248C134.287 32.1248 134.267 32.1227 134.247 32.1185C134.077 32.0817 133.966 31.8992 133.999 31.7111C134.063 31.3495 134.096 30.9788 134.095 30.6089V29.7038C134.095 29.5122 134.235 29.3568 134.408 29.3568C134.581 29.3568 134.721 29.5122 134.721 29.7038V30.6089C134.721 31.0233 134.686 31.4397 134.614 31.845C134.585 32.0095 134.454 32.1248 134.307 32.1248ZM134.409 27.9679C134.236 27.9679 134.096 27.8125 134.096 27.6209V25.5386C134.096 25.3471 134.236 25.1916 134.409 25.1916C134.582 25.1916 134.722 25.3471 134.722 25.5386V27.6209C134.722 27.8125 134.582 27.9679 134.409 27.9679ZM134.409 23.8035C134.236 23.8035 134.096 23.648 134.096 23.4564V21.3742C134.096 21.1826 134.236 21.0271 134.409 21.0271C134.582 21.0271 134.722 21.1826 134.722 21.3742V23.4564C134.722 23.648 134.582 23.8035 134.409 23.8035ZM134.409 19.639C134.236 19.639 134.096 19.4835 134.096 19.2919V17.2097C134.096 17.0181 134.236 16.8627 134.409 16.8627C134.582 16.8627 134.722 17.0181 134.722 17.2097V19.2919C134.722 19.4835 134.582 19.639 134.409 19.639ZM134.409 15.4745C134.236 15.4745 134.096 15.319 134.096 15.1275V13.0452C134.096 12.8537 134.236 12.6982 134.409 12.6982C134.582 12.6982 134.722 12.8537 134.722 13.0452V15.1275C134.722 15.319 134.582 15.4745 134.409 15.4745ZM134.409 11.31C134.236 11.31 134.096 11.1546 134.096 10.963V8.88076C134.096 8.68919 134.236 8.53372 134.409 8.53372C134.582 8.53372 134.722 8.68919 134.722 8.88076V10.963C134.722 11.1546 134.582 11.31 134.409 11.31ZM134.445 7.14765C134.431 7.14765 134.416 7.14625 134.402 7.14417C134.23 7.1178 134.111 6.94289 134.135 6.75272C134.228 6.00797 134.491 5.29376 134.897 4.68644C134.999 4.53305 135.195 4.49904 135.334 4.61425C135.473 4.72808 135.503 4.94533 135.4 5.09942C135.057 5.61304 134.834 6.21758 134.755 6.8485C134.733 7.02202 134.599 7.14765 134.445 7.14765ZM136.586 3.93475C136.468 3.93475 136.356 3.86118 136.303 3.73486C136.229 3.56134 136.296 3.35519 136.453 3.27329C136.998 2.99011 137.582 2.84644 138.188 2.84644H138.412C138.585 2.84644 138.725 3.00191 138.725 3.19347C138.725 3.38504 138.585 3.54051 138.412 3.54051H138.188C137.675 3.54051 137.181 3.66198 136.719 3.90143C136.676 3.92364 136.631 3.93475 136.586 3.93475ZM140.503 3.54051H140.29C140.118 3.54051 139.977 3.38504 139.977 3.19347C139.977 3.00191 140.118 2.84644 140.29 2.84644H140.503C140.676 2.84644 140.816 3.00191 140.816 3.19347C140.816 3.38504 140.677 3.54051 140.503 3.54051Z" fill="white"/>
<path d="M61.2004 61.3808C61.2004 62.4407 60.4251 63.2999 59.4688 63.2999C58.5126 63.2999 57.7373 62.4407 57.7373 61.3808C57.7373 60.3209 58.5126 59.4617 59.4688 59.4617C60.4251 59.4617 61.2004 60.3209 61.2004 61.3808Z" fill="white"/>
<path d="M141.024 3.44598C141.024 4.50584 140.248 5.36511 139.292 5.36511C138.336 5.36511 137.561 4.50584 137.561 3.44598C137.561 2.38612 138.336 1.52686 139.292 1.52686C140.248 1.52686 141.024 2.38612 141.024 3.44598Z" fill="white"/>
<path d="M185.029 98.1947C184.856 98.1947 184.716 98.0393 184.716 97.8477V95.9883C184.716 95.7967 184.856 95.6412 185.029 95.6412C185.202 95.6412 185.342 95.7967 185.342 95.9883V97.8477C185.342 98.0393 185.202 98.1947 185.029 98.1947ZM185.029 94.2531C184.856 94.2531 184.716 94.0976 184.716 93.906V91.8238C184.716 91.6322 184.856 91.4768 185.029 91.4768C185.202 91.4768 185.342 91.6322 185.342 91.8238V93.906C185.342 94.0976 185.202 94.2531 185.029 94.2531ZM185.029 90.0886C184.856 90.0886 184.716 89.9331 184.716 89.7416V87.6593C184.716 87.4678 184.856 87.3123 185.029 87.3123C185.202 87.3123 185.342 87.4678 185.342 87.6593V89.7416C185.342 89.9331 185.202 90.0886 185.029 90.0886ZM185.029 85.9241C184.856 85.9241 184.716 85.7687 184.716 85.5771V83.4949C184.716 83.3033 184.856 83.1478 185.029 83.1478C185.202 83.1478 185.342 83.3033 185.342 83.4949V85.5771C185.342 85.7687 185.202 85.9241 185.029 85.9241ZM185.029 81.7597C184.856 81.7597 184.716 81.6042 184.716 81.4126V79.3304C184.716 79.1388 184.856 78.9833 185.029 78.9833C185.202 78.9833 185.342 79.1388 185.342 79.3304V81.4126C185.342 81.6042 185.202 81.7597 185.029 81.7597ZM185.029 77.5952C184.856 77.5952 184.716 77.4397 184.716 77.2481V75.1659C184.716 74.9743 184.856 74.8189 185.029 74.8189C185.202 74.8189 185.342 74.9743 185.342 75.1659V77.2481C185.342 77.4397 185.202 77.5952 185.029 77.5952ZM185.029 73.4307C184.856 73.4307 184.716 73.2752 184.716 73.0837V71.0014C184.716 70.8099 184.856 70.6544 185.029 70.6544C185.202 70.6544 185.342 70.8099 185.342 71.0014V73.0837C185.342 73.2752 185.202 73.4307 185.029 73.4307ZM185.029 69.2662C184.856 69.2662 184.716 69.1108 184.716 68.9192V66.837C184.716 66.6454 184.856 66.4899 185.029 66.4899C185.202 66.4899 185.342 66.6454 185.342 66.837V68.9192C185.342 69.1108 185.202 69.2662 185.029 69.2662ZM185.029 65.1018C184.856 65.1018 184.716 64.9463 184.716 64.7547V62.6725C184.716 62.4809 184.856 62.3254 185.029 62.3254C185.202 62.3254 185.342 62.4809 185.342 62.6725V64.7547C185.342 64.9463 185.202 65.1018 185.029 65.1018ZM185.029 60.9373C184.856 60.9373 184.716 60.7818 184.716 60.5903V58.508C184.716 58.3164 184.856 58.161 185.029 58.161C185.202 58.161 185.342 58.3164 185.342 58.508V60.5903C185.342 60.7818 185.202 60.9373 185.029 60.9373ZM185.029 56.7728C184.856 56.7728 184.716 56.6173 184.716 56.4258V54.3435C184.716 54.152 184.856 53.9965 185.029 53.9965C185.202 53.9965 185.342 54.152 185.342 54.3435V56.4258C185.342 56.6173 185.202 56.7728 185.029 56.7728ZM185.029 52.6083C184.856 52.6083 184.716 52.4529 184.716 52.2613V50.1791C184.716 49.9875 184.856 49.832 185.029 49.832C185.202 49.832 185.342 49.9875 185.342 50.1791V52.2613C185.342 52.4529 185.202 52.6083 185.029 52.6083ZM185.011 48.4446C184.85 48.4446 184.713 48.3078 184.699 48.1267C184.649 47.477 184.479 46.8586 184.194 46.2888C184.11 46.1208 184.165 45.9098 184.316 45.8168C184.468 45.7245 184.657 45.7842 184.742 45.9521C185.069 46.608 185.265 47.3202 185.323 48.0677C185.338 48.2586 185.21 48.4265 185.038 48.4425C185.029 48.4439 185.02 48.4446 185.011 48.4446ZM183.247 44.9055C183.181 44.9055 183.114 44.8826 183.057 44.8347C182.588 44.4397 182.06 44.1649 181.489 44.0163C181.32 43.9726 181.216 43.7859 181.255 43.5992C181.294 43.4132 181.457 43.2966 181.632 43.3403C182.29 43.5111 182.897 43.8276 183.437 44.2815C183.575 44.3974 183.602 44.6153 183.497 44.768C183.435 44.8583 183.341 44.9055 183.247 44.9055ZM179.691 43.8949H177.812C177.639 43.8949 177.499 43.7394 177.499 43.5478C177.499 43.3563 177.639 43.2008 177.812 43.2008H179.691C179.864 43.2008 180.004 43.3563 180.004 43.5478C180.004 43.7394 179.864 43.8949 179.691 43.8949ZM175.933 43.8949H174.055C173.882 43.8949 173.741 43.7394 173.741 43.5478C173.741 43.3563 173.882 43.2008 174.055 43.2008H175.933C176.106 43.2008 176.246 43.3563 176.246 43.5478C176.246 43.7394 176.107 43.8949 175.933 43.8949ZM172.176 43.8949H170.297C170.124 43.8949 169.984 43.7394 169.984 43.5478C169.984 43.3563 170.124 43.2008 170.297 43.2008H172.176C172.349 43.2008 172.489 43.3563 172.489 43.5478C172.489 43.7394 172.349 43.8949 172.176 43.8949ZM168.418 43.8949H166.54C166.367 43.8949 166.227 43.7394 166.227 43.5478C166.227 43.3563 166.367 43.2008 166.54 43.2008H168.418C168.591 43.2008 168.732 43.3563 168.732 43.5478C168.732 43.7394 168.592 43.8949 168.418 43.8949ZM164.661 43.8949H162.782C162.61 43.8949 162.469 43.7394 162.469 43.5478C162.469 43.3563 162.61 43.2008 162.782 43.2008H164.661C164.834 43.2008 164.974 43.3563 164.974 43.5478C164.974 43.7394 164.835 43.8949 164.661 43.8949ZM160.904 43.8949H159.025C158.852 43.8949 158.712 43.7394 158.712 43.5478C158.712 43.3563 158.852 43.2008 159.025 43.2008H160.904C161.077 43.2008 161.217 43.3563 161.217 43.5478C161.217 43.7394 161.077 43.8949 160.904 43.8949ZM157.146 43.8949H155.268C155.095 43.8949 154.954 43.7394 154.954 43.5478C154.954 43.3563 155.095 43.2008 155.268 43.2008H157.146C157.319 43.2008 157.459 43.3563 157.459 43.5478C157.459 43.7394 157.32 43.8949 157.146 43.8949ZM153.389 43.8949H151.51C151.337 43.8949 151.197 43.7394 151.197 43.5478C151.197 43.3563 151.337 43.2008 151.51 43.2008H153.389C153.562 43.2008 153.702 43.3563 153.702 43.5478C153.702 43.7394 153.562 43.8949 153.389 43.8949ZM149.631 43.8949H147.753C147.58 43.8949 147.44 43.7394 147.44 43.5478C147.44 43.3563 147.58 43.2008 147.753 43.2008H149.631C149.804 43.2008 149.945 43.3563 149.945 43.5478C149.945 43.7394 149.805 43.8949 149.631 43.8949ZM145.874 43.8949H143.995C143.823 43.8949 143.682 43.7394 143.682 43.5478C143.682 43.3563 143.823 43.2008 143.995 43.2008H145.874C146.047 43.2008 146.187 43.3563 146.187 43.5478C146.187 43.7394 146.048 43.8949 145.874 43.8949ZM142.117 43.8949H140.238C140.065 43.8949 139.925 43.7394 139.925 43.5478C139.925 43.3563 140.065 43.2008 140.238 43.2008H142.117C142.289 43.2008 142.43 43.3563 142.43 43.5478C142.43 43.7394 142.29 43.8949 142.117 43.8949ZM138.36 43.8949H136.481C136.308 43.8949 136.168 43.7394 136.168 43.5478C136.168 43.3563 136.308 43.2008 136.481 43.2008H138.36C138.533 43.2008 138.673 43.3563 138.673 43.5478C138.673 43.7394 138.533 43.8949 138.36 43.8949ZM134.602 43.8949H132.724C132.551 43.8949 132.411 43.7394 132.411 43.5478C132.411 43.3563 132.551 43.2008 132.724 43.2008H134.602C134.775 43.2008 134.916 43.3563 134.916 43.5478C134.916 43.7394 134.775 43.8949 134.602 43.8949ZM130.845 43.8949H128.966C128.794 43.8949 128.653 43.7394 128.653 43.5478C128.653 43.3563 128.794 43.2008 128.966 43.2008H130.845C131.018 43.2008 131.158 43.3563 131.158 43.5478C131.158 43.7394 131.018 43.8949 130.845 43.8949ZM127.105 43.6908C127.076 43.6908 127.046 43.6867 127.016 43.6763C126.369 43.4646 125.779 43.1099 125.263 42.6213C125.131 42.497 125.116 42.2777 125.228 42.1319C125.34 41.9862 125.538 41.9688 125.67 42.0931C126.12 42.5171 126.632 42.826 127.194 43.0099C127.36 43.0641 127.455 43.257 127.406 43.441C127.365 43.5937 127.24 43.6908 127.105 43.6908ZM124.328 41.0679C124.212 41.0679 124.1 40.9957 124.046 40.8715C123.754 40.1975 123.595 39.475 123.575 38.7233C123.57 38.5317 123.707 38.3721 123.879 38.3659C124.045 38.3686 124.196 38.5109 124.201 38.7025C124.218 39.3563 124.356 39.9851 124.61 40.5702C124.685 40.7431 124.62 40.9499 124.464 41.0332C124.421 41.0575 124.374 41.0679 124.328 41.0679ZM123.886 36.9784C123.714 36.9784 123.573 36.8229 123.573 36.6313V34.5491C123.573 34.3575 123.714 34.2021 123.886 34.2021C124.059 34.2021 124.199 34.3575 124.199 34.5491V36.6313C124.199 36.8229 124.059 36.9784 123.886 36.9784ZM123.886 32.8139C123.714 32.8139 123.573 32.6584 123.573 32.4669V30.3846C123.573 30.1931 123.714 30.0376 123.886 30.0376C124.059 30.0376 124.199 30.1931 124.199 30.3846V32.4669C124.199 32.6584 124.059 32.8139 123.886 32.8139Z" fill="white"/>
</svg>
