<svg width="287" height="149" viewBox="0 0 287 149" fill="none" xmlns="http://www.w3.org/2000/svg">
<path d="M21.5199 147.181C21.5199 147.181 5.41108 103.494 30.5924 77.1261C55.7736 50.758 63.5634 64.3311 92.1314 32.5789C120.699 0.827195 150.349 -6.32411 180.006 5.11763C209.662 16.5598 217.018 56.553 247.094 62.8733C277.171 69.1937 287.996 83.4499 286.874 107.931C285.752 132.411 274.882 146.142 274.882 146.142L21.5199 147.181Z" fill="#F5F8FF"/>
<path d="M278.118 146.23H16.4673V148.776H278.118V146.23Z" fill="#7295DD"/>
<path d="M248.08 133.709C248.08 133.709 276.958 131.229 283.798 133.867C290.639 136.504 276.407 138.094 272.444 141.9C268.48 145.706 265.086 145.91 260.071 143.883C255.056 141.856 253.186 148.814 246.085 145.351L248.08 133.709Z" fill="#78C2EF"/>
<path d="M281.063 135.736C281.063 135.736 257.394 137.399 247.737 142.805" stroke="#8DDCFF" stroke-width="0.9257" stroke-miterlimit="10"/>
<path d="M249.326 127.575C249.326 127.575 270.951 117.867 279.75 115.636C288.548 113.406 289.222 115.458 281.629 121.152C274.037 126.846 276.345 133.609 269.355 133.682C262.366 133.756 260.794 134.757 257.789 138.746C254.785 142.734 248.022 143.037 248.022 143.037L249.326 127.575Z" fill="#8DDCFF"/>
<path d="M280.935 118.422C280.935 118.422 262.268 128.171 250.925 137.676" stroke="#AEEAFF" stroke-width="0.9257" stroke-miterlimit="10"/>
<path d="M239.504 114.678C239.504 114.678 258.261 86.6779 265.629 82.3905C272.998 78.1031 264.089 92.1708 264.658 98.5345C265.227 104.898 262.944 108.127 257.457 111.202C251.97 114.277 256.921 121.034 248.615 124.957L239.504 114.678Z" fill="#78C2EF"/>
<path d="M264.209 87.6077C264.209 87.6077 253.134 105.174 248.847 119.315" stroke="#8DDCFF" stroke-width="0.9257" stroke-miterlimit="10"/>
<path d="M246.087 120.318C246.087 120.318 263.328 104.049 270.906 99.0539C278.485 94.0586 279.795 95.776 274.492 103.647C269.189 111.518 273.59 117.148 267.012 119.512C260.434 121.876 259.277 123.338 257.749 128.092C256.22 132.845 249.932 135.352 249.932 135.352L246.087 120.318Z" fill="#AEEAFF"/>
<path d="M271.086 102.524C271.086 102.524 256.17 119.137 249.561 129.408" stroke="#D9F2F9" stroke-width="0.9257" stroke-miterlimit="10"/>
<path d="M43.6826 114.678C43.6826 114.678 24.9261 86.6779 17.5577 82.3905C10.1892 78.1031 19.0982 92.1708 18.5291 98.5345C17.9599 104.898 20.2434 108.127 25.7302 111.202C31.217 114.277 26.266 121.034 34.5725 124.957L43.6826 114.678Z" fill="#78C2EF"/>
<path d="M38.4393 133.978C38.4393 133.978 10.1575 127.638 3.0244 129.332C-4.1087 131.025 9.77952 134.515 13.1952 138.819C16.6109 143.123 19.9473 143.782 25.1892 142.448C30.4311 141.114 31.3492 148.259 38.8507 145.783L38.4393 133.978Z" fill="#78C2EF"/>
<path d="M37.5477 127.575C37.5477 127.575 15.9221 117.867 7.12366 115.636C-1.6748 113.406 -2.34841 115.458 5.24416 121.152C12.8367 126.846 10.5285 133.609 17.5182 133.682C24.5078 133.756 26.0799 134.757 29.0843 138.746C32.0886 142.734 38.8516 143.037 38.8516 143.037L37.5477 127.575Z" fill="#8DDCFF"/>
<path d="M37.1001 120.318C37.1001 120.318 19.8595 104.049 12.2808 99.0539C4.70207 94.0586 3.3917 95.776 8.69471 103.647C13.9977 111.518 9.59719 117.148 16.175 119.512C22.7528 121.876 23.9098 123.338 25.4382 128.092C26.9666 132.845 33.2553 135.352 33.2553 135.352L37.1001 120.318Z" fill="#AEEAFF"/>
<path d="M18.978 87.6077C18.978 87.6077 30.0531 105.174 34.3405 119.315" stroke="#8DDCFF" stroke-width="0.9257" stroke-miterlimit="10"/>
<path d="M12.1011 102.524C12.1011 102.524 27.017 119.137 33.6261 129.407" stroke="#D9F2F9" stroke-width="0.9257" stroke-miterlimit="10"/>
<path d="M5.93799 118.422C5.93799 118.422 24.6052 128.171 35.9481 137.676" stroke="#AEEAFF" stroke-width="0.9257" stroke-miterlimit="10"/>
<path d="M5.48389 131.551C5.48389 131.551 28.7141 136.382 37.5564 143.038" stroke="#8DDCFF" stroke-width="0.9257" stroke-miterlimit="10"/>
<path d="M102.561 94.2453H60.6802V89.5157H102.561C103.108 89.5157 103.552 89.9596 103.552 90.5075V93.2539C103.552 93.8014 103.108 94.2453 102.561 94.2453Z" fill="#C9D7F4"/>
<path d="M48.3216 94.2454H28.335V146.577H48.3216V94.2454Z" fill="#C9D7F4"/>
<path d="M101.264 94.2454H84.0229V146.577H101.264V94.2454Z" fill="#2D2B52"/>
<path d="M84.3662 94.2454H76.814V146.577H84.3662V94.2454Z" fill="#C9D7F4"/>
<path d="M80.6668 98.8228H44.6602V146.577H80.6668V98.8228Z" fill="#6D87C6"/>
<path d="M80.6668 94.2454H44.6602V98.8223H80.6668V94.2454Z" fill="#C9D7F4"/>
<path d="M75.3508 107.062H46.772C45.6055 107.062 44.6602 106.116 44.6602 104.95V98.8232H77.463V104.95C77.4626 106.116 76.5172 107.062 75.3508 107.062Z" fill="#2D2B52"/>
<path d="M73.3117 102.942H48.8105C47.7399 102.942 46.8721 103.81 46.8721 104.88V107.061H75.2501V104.88C75.2501 103.81 74.3823 102.942 73.3117 102.942Z" fill="#5873AF"/>
<path d="M80.6668 120.411H44.6602V121.861H80.6668V120.411Z" fill="#5873AF"/>
<path d="M80.6668 133.227H44.6602V134.677H80.6668V133.227Z" fill="#5873AF"/>
<path d="M67.4687 124.149H57.8566C57.3668 124.149 56.9697 123.752 56.9697 123.262V121.861H68.3551V123.262C68.3555 123.752 67.9585 124.149 67.4687 124.149Z" fill="#2D2B52"/>
<path d="M67.4687 136.965H57.8566C57.3668 136.965 56.9697 136.568 56.9697 136.078V134.676H68.3551V136.078C68.3555 136.568 67.9585 136.965 67.4687 136.965Z" fill="#2D2B52"/>
<path d="M26.9238 89.5157H45.2086C45.7903 89.5157 46.2619 89.9874 46.2619 90.5691V93.1924C46.2619 93.7741 45.7903 94.2457 45.2086 94.2457H26.9238C26.3971 94.2457 25.9697 93.8188 25.9697 93.2917V90.4698C25.9697 89.9427 26.3967 89.5157 26.9238 89.5157Z" fill="#E8EEF9"/>
<path d="M85.5101 89.5157H43.5151V94.2453H85.5101V89.5157Z" fill="#E8EEF9"/>
<path d="M44.6601 128.155H28.335V129.642H44.6601V128.155Z" fill="#6D87C6"/>
<path d="M109.274 128.154H88.6768V146.578H109.274V128.154Z" fill="#6D87C6"/>
<path d="M109.275 128.154H104.392V146.578H109.275V128.154Z" fill="#5873AF"/>
<path d="M89.9572 111.105H98.0747C98.7825 111.105 99.356 111.678 99.356 112.386V122.872H88.6763V112.386C88.6763 111.678 89.2497 111.105 89.9572 111.105Z" fill="#22223F"/>
<path d="M109.587 117.951H101.522C100.848 117.951 100.18 118.085 99.5575 118.343L88.6763 122.871H99.356L109.709 118.563C110.03 118.43 109.935 117.951 109.587 117.951Z" fill="#6D87C6"/>
<path d="M87.9898 87.5323H68.8042V89.5159H87.9898V87.5323Z" fill="#6D87C6"/>
<path d="M90.4449 76.7762H78.1536L64.4795 87.5322H76.7708L90.4449 76.7762Z" fill="#5873AF"/>
<path d="M68.804 89.5158H39.396V86.5595C39.396 85.2639 40.4463 84.2136 41.7419 84.2136H68.804V89.5158Z" fill="#C9D7F4"/>
<path d="M189.268 144.53H186.591V144.154H189.268C190.371 144.154 191.268 143.257 191.268 142.154V96.2569C191.268 95.1542 190.371 94.2569 189.268 94.2569H180.294V93.8811H189.268C190.578 93.8811 191.644 94.9466 191.644 96.2569V142.154C191.644 143.464 190.578 144.53 189.268 144.53Z" fill="#6D87C6"/>
<path d="M189.858 146.25H184.022V145.874H189.858C191.344 145.874 192.553 144.665 192.553 143.179V96.5834C192.553 94.4265 190.799 92.6718 188.642 92.6718H180.005V92.296H188.642C191.005 92.296 192.929 94.2193 192.929 96.5834V143.179C192.929 144.872 191.552 146.25 189.858 146.25Z" fill="#6D87C6"/>
<path d="M109.334 89.3575H141.336C142.249 89.3575 142.99 88.6167 142.99 87.7029V67.9742C142.99 67.3392 142.475 66.8242 141.84 66.8242H108.83C108.195 66.8242 107.68 67.3392 107.68 67.9742V87.7029C107.68 88.6171 108.42 89.3575 109.334 89.3575Z" fill="#2D2B52"/>
<path d="M141.39 68.6394V85.8657C141.39 86.2905 141.045 86.6399 140.616 86.6399H110.054C109.626 86.6399 109.28 86.2905 109.28 85.8657V68.6394C109.28 68.3086 109.547 68.0416 109.874 68.0416H140.797C141.124 68.0416 141.39 68.3082 141.39 68.6394Z" fill="#8DDCFF"/>
<path d="M120.151 97.1325H123.694L125.466 89.3574H121.923L120.151 97.1325Z" fill="#6D87C6"/>
<path d="M121.369 97.1325H124.912L126.683 89.3574H123.141L121.369 97.1325Z" fill="#2D2B52"/>
<path d="M141.39 68.6394V69.4963H109.28V68.6394C109.28 68.3086 109.547 68.0416 109.874 68.0416H140.797C141.124 68.0416 141.39 68.3082 141.39 68.6394Z" fill="#5DB6E8"/>
<path d="M114.482 70.7916H110.125V84.7696H114.482V70.7916Z" fill="#5DB6E8"/>
<path d="M130.712 70.7916H116.734V84.7696H130.712V70.7916Z" fill="white"/>
<path d="M140.805 70.7916H133.436V84.7696H140.805V70.7916Z" fill="#5DB6E8"/>
<path d="M123.525 78.6736C124.869 78.6736 125.959 77.5839 125.959 76.2397C125.959 74.8955 124.869 73.8058 123.525 73.8058C122.181 73.8058 121.091 74.8955 121.091 76.2397C121.091 77.5839 122.181 78.6736 123.525 78.6736Z" fill="#F43737"/>
<path d="M121.892 81.6438C123.237 81.6438 124.326 80.5541 124.326 79.2099C124.326 77.8657 123.237 76.776 121.892 76.776C120.548 76.776 119.458 77.8657 119.458 79.2099C119.458 80.5541 120.548 81.6438 121.892 81.6438Z" fill="#F2E038"/>
<path d="M125.157 81.6438C126.501 81.6438 127.59 80.5541 127.59 79.2099C127.59 77.8657 126.501 76.776 125.157 76.776C123.812 76.776 122.723 77.8657 122.723 79.2099C122.723 80.5541 123.812 81.6438 125.157 81.6438Z" fill="#58AEED"/>
<path d="M114.145 102.135H111.953V146.578H114.145V102.135Z" fill="#C9D7F4"/>
<path d="M121.883 102.135H119.691V146.578H121.883V102.135Z" fill="#6D87C6"/>
<path d="M188.039 102.135H185.847V146.578H188.039V102.135Z" fill="#6D87C6"/>
<path d="M187.995 114.799H169.446V146.577H187.995V114.799Z" fill="#2D2B52"/>
<path d="M172.003 114.798H158.463V146.577H172.003V114.798Z" fill="#393966"/>
<path d="M163.557 117.206H160.069V118.032H163.557V117.206Z" fill="#6D87C6"/>
<path d="M170.67 117.527C170.67 118.199 170.125 118.744 169.454 118.744C168.782 118.744 168.237 118.199 168.237 117.527C168.237 116.855 168.782 116.311 169.454 116.311C170.125 116.311 170.67 116.856 170.67 117.527Z" fill="#C9D7F4"/>
<path d="M169.454 118.236C169.845 118.236 170.162 117.918 170.162 117.527C170.162 117.136 169.845 116.819 169.454 116.819C169.063 116.819 168.746 117.136 168.746 117.527C168.746 117.918 169.063 118.236 169.454 118.236Z" fill="#2D2B52"/>
<path d="M172.003 123.034H158.463V123.677H172.003V123.034Z" fill="#2D2B52"/>
<path d="M172.003 131.433H158.463V132.075H172.003V131.433Z" fill="#2D2B52"/>
<path d="M169.039 142.998H161.287C160.614 142.998 160.069 143.543 160.069 144.216V146.577H170.257V144.216C170.257 143.543 169.711 142.998 169.039 142.998Z" fill="#6D87C6"/>
<path d="M187.994 121.887H176.899C175.168 121.887 173.766 123.29 173.766 125.02V146.578H187.994V121.887Z" fill="#393966"/>
<path d="M180.3 102.135H178.109V146.578H180.3V102.135Z" fill="#C9D7F4"/>
<path d="M191.822 97.1324H115.91V99.3735H191.822V97.1324Z" fill="#C9D7F4"/>
<path d="M189.247 99.3734H117.446V103.938H189.247V99.3734Z" fill="#5873AF"/>
<path d="M183.442 97.1324H107.529V99.3735H183.442V97.1324Z" fill="#E8EEF9"/>
<path d="M180.866 99.3734H109.066V103.938H180.866V99.3734Z" fill="#6D87C6"/>
<path d="M184.971 78.3915H173.586C172.813 78.3915 172.003 79.0183 171.776 79.7916L169.386 87.9494H183.571L185.961 79.7916C186.188 79.0183 185.744 78.3915 184.971 78.3915Z" fill="#2D2B52"/>
<path d="M183.679 76.0443H171.929L170.59 89.3166L181.156 89.213L183.679 76.0443Z" fill="#6D87C6"/>
<path d="M182.434 74.7994H170.684L169.345 88.0717L180.413 88.4705L182.434 74.7994Z" fill="#C9D7F4"/>
<path d="M181.46 73.8254H169.71L168.371 87.0977H180.121L181.46 73.8254Z" fill="#F5F5FF"/>
<path d="M189.213 89.3573H164.211V87.5437C164.211 86.5684 165.002 85.7782 165.977 85.7782H187.447C188.423 85.7782 189.213 86.5684 189.213 87.5437V89.3573Z" fill="#2D2B52"/>
<path d="M188.117 97.1325H165.53L164.211 89.3574H189.213L188.117 97.1325Z" fill="#2D2B52"/>
<path d="M185.559 89.3573H160.558V87.5437C160.558 86.5684 161.349 85.7782 162.324 85.7782H183.794C184.769 85.7782 185.559 86.5684 185.559 87.5437V89.3573Z" fill="#393966"/>
<path d="M184.464 97.1325H161.877L160.558 89.3574H185.559L184.464 97.1325Z" fill="#393966"/>
<path d="M181.085 97.1325H165.033V91.3792C165.033 90.9531 165.378 90.608 165.804 90.608H180.314C180.74 90.608 181.085 90.9531 181.085 91.3792V97.1325Z" fill="#2D2B52"/>
<path d="M185.559 88.538H160.558V89.3572H185.559V88.538Z" fill="#2D2B52"/>
<path d="M175.941 90.608H169.772V91.9067H175.941V90.608Z" fill="#6D87C6"/>
<path d="M254.662 42.6552H196.636V97.781H254.662V42.6552Z" fill="#C9D7F4"/>
<path d="M257.165 38.2283H195.581V42.6544H257.165V38.2283Z" fill="#393966"/>
<path d="M254.663 42.6552H198.083V96.2804H254.663V42.6552Z" fill="white"/>
<path d="M257.165 41.0184H195.581V42.6543H257.165V41.0184Z" fill="#6D87C6"/>
<path d="M224.208 46.2151H201.98V83.959H224.208V46.2151Z" fill="white"/>
<path d="M208.656 53.7512C208.656 54.7876 207.816 55.6277 206.779 55.6277C205.743 55.6277 204.903 54.7876 204.903 53.7512C204.903 52.7148 205.743 51.8748 206.779 51.8748C207.816 51.8748 208.656 52.7148 208.656 53.7512Z" fill="#8DDCFF"/>
<path d="M208.656 60.2548C208.656 61.2912 207.816 62.1312 206.779 62.1312C205.743 62.1312 204.903 61.2912 204.903 60.2548C204.903 59.2183 205.743 58.3783 206.779 58.3783C207.816 58.3787 208.656 59.2183 208.656 60.2548Z" fill="#A3E3FF"/>
<path d="M208.656 66.7587C208.656 67.7951 207.816 68.6351 206.779 68.6351C205.743 68.6351 204.903 67.7951 204.903 66.7587C204.903 65.7223 205.743 64.8822 206.779 64.8822C207.816 64.8826 208.656 65.7227 208.656 66.7587Z" fill="#B8E9FF"/>
<path d="M208.656 73.2627C208.656 74.2991 207.816 75.1392 206.779 75.1392C205.743 75.1392 204.903 74.2991 204.903 73.2627C204.903 72.2263 205.743 71.3862 206.779 71.3862C207.816 71.3862 208.656 72.2263 208.656 73.2627Z" fill="#CEF0FF"/>
<path d="M208.656 79.7664C208.656 80.8028 207.816 81.6428 206.779 81.6428C205.743 81.6428 204.903 80.8028 204.903 79.7664C204.903 78.73 205.743 77.8899 206.779 77.8899C207.816 77.8899 208.656 78.73 208.656 79.7664Z" fill="#E3F6FF"/>
<path d="M213.491 55.6277C214.527 55.6277 215.367 54.7876 215.367 53.7512C215.367 52.7149 214.527 51.8748 213.491 51.8748C212.454 51.8748 211.614 52.7149 211.614 53.7512C211.614 54.7876 212.454 55.6277 213.491 55.6277Z" fill="#6D87C6"/>
<path d="M215.367 60.2548C215.367 61.2912 214.527 62.1312 213.491 62.1312C212.454 62.1312 211.614 61.2912 211.614 60.2548C211.614 59.2183 212.454 58.3783 213.491 58.3783C214.527 58.3783 215.367 59.2183 215.367 60.2548Z" fill="#899ED1"/>
<path d="M215.367 66.7587C215.367 67.7951 214.527 68.6351 213.491 68.6351C212.454 68.6351 211.614 67.7951 211.614 66.7587C211.614 65.7223 212.454 64.8822 213.491 64.8822C214.527 64.8822 215.367 65.7227 215.367 66.7587Z" fill="#A4B4DC"/>
<path d="M213.491 75.1392C214.527 75.1392 215.367 74.299 215.367 73.2627C215.367 72.2264 214.527 71.3862 213.491 71.3862C212.454 71.3862 211.614 72.2264 211.614 73.2627C211.614 74.299 212.454 75.1392 213.491 75.1392Z" fill="#BFCBE6"/>
<path d="M215.367 79.7664C215.367 80.8028 214.527 81.6428 213.491 81.6428C212.454 81.6428 211.614 80.8028 211.614 79.7664C211.614 78.73 212.454 77.8899 213.491 77.8899C214.527 77.8899 215.367 78.73 215.367 79.7664Z" fill="#DBE1F1"/>
<path d="M221.285 53.7512C221.285 54.7876 220.445 55.6277 219.408 55.6277C218.372 55.6277 217.532 54.7876 217.532 53.7512C217.532 52.7148 218.372 51.8748 219.408 51.8748C220.445 51.8748 221.285 52.7148 221.285 53.7512Z" fill="#393966"/>
<path d="M221.285 60.2548C221.285 61.2912 220.445 62.1312 219.408 62.1312C218.372 62.1312 217.532 61.2912 217.532 60.2548C217.532 59.2183 218.372 58.3783 219.408 58.3783C220.445 58.3783 221.285 59.2183 221.285 60.2548Z" fill="#5E5E83"/>
<path d="M221.285 66.7587C221.285 67.7951 220.445 68.6351 219.408 68.6351C218.372 68.6351 217.532 67.7951 217.532 66.7587C217.532 65.7223 218.372 64.8822 219.408 64.8822C220.445 64.8822 221.285 65.7227 221.285 66.7587Z" fill="#8484A0"/>
<path d="M221.285 73.2627C221.285 74.2991 220.445 75.1392 219.408 75.1392C218.372 75.1392 217.532 74.2991 217.532 73.2627C217.532 72.2263 218.372 71.3862 219.408 71.3862C220.445 71.3862 221.285 72.2263 221.285 73.2627Z" fill="#A9A9BC"/>
<path d="M221.285 79.7664C221.285 80.8028 220.445 81.6428 219.408 81.6428C218.372 81.6428 217.532 80.8028 217.532 79.7664C217.532 78.73 218.372 77.8899 219.408 77.8899C220.445 77.8899 221.285 78.73 221.285 79.7664Z" fill="#CECED9"/>
<path d="M220.503 47.899H205.684V49.7274H220.503V47.899Z" fill="#6D87C6"/>
<path d="M251.848 46.2151H229.837V50.5454H251.848V46.2151Z" fill="#6D87C6"/>
<path d="M232.869 55.5251C232.869 56.2824 232.255 56.8962 231.497 56.8962C230.74 56.8962 230.126 56.2824 230.126 55.5251C230.126 54.7678 230.74 54.1541 231.497 54.1541C232.255 54.1536 232.869 54.7674 232.869 55.5251Z" fill="#393966"/>
<path d="M250.67 54.8754H235.322V56.1745H250.67V54.8754Z" fill="#393966"/>
<path d="M232.869 60.6851C232.869 61.4424 232.255 62.0562 231.497 62.0562C230.74 62.0562 230.126 61.4424 230.126 60.6851C230.126 59.9279 230.74 59.3141 231.497 59.3141C232.255 59.3137 232.869 59.9279 232.869 60.6851Z" fill="#393966"/>
<path d="M250.67 60.0354H235.322V61.3345H250.67V60.0354Z" fill="#393966"/>
<path d="M232.869 65.8452C232.869 66.6024 232.255 67.2162 231.497 67.2162C230.74 67.2162 230.126 66.6024 230.126 65.8452C230.126 65.0879 230.74 64.4741 231.497 64.4741C232.255 64.4737 232.869 65.0879 232.869 65.8452Z" fill="#393966"/>
<path d="M250.67 65.1953H235.322V66.4944H250.67V65.1953Z" fill="#393966"/>
<path d="M232.869 71.005C232.869 71.7622 232.255 72.376 231.497 72.376C230.74 72.376 230.126 71.7622 230.126 71.005C230.126 70.2477 230.74 69.6339 231.497 69.6339C232.255 69.6339 232.869 70.2477 232.869 71.005Z" fill="#393966"/>
<path d="M250.67 70.3551H235.322V71.6542H250.67V70.3551Z" fill="#393966"/>
<path d="M246.797 76.7424H232.868V79.2682H246.797V76.7424Z" fill="#6D87C6"/>
<path d="M216.501 88.1294H201.98V91.6088H216.501V88.1294Z" fill="#6D87C6"/>
<path d="M233.867 88.1293H219.347V91.6087H233.867V88.1293Z" fill="#6D87C6"/>
<path d="M250.982 88.1293H236.461V91.6087H250.982V88.1293Z" fill="#6D87C6"/>
<path d="M254.32 130.922H216.422V146.578H254.32V130.922Z" fill="#393966"/>
<path d="M254.32 130.922H236.783V146.578H254.32V130.922Z" fill="#5873AF"/>
<path d="M250.357 132.409H241.341V134.589H250.357V132.409Z" fill="#6D87C6"/>
<path d="M233.959 130.922H196.061V146.578H233.959V130.922Z" fill="#6D87C6"/>
<path d="M233.959 130.922H216.422V146.578H233.959V130.922Z" fill="#5873AF"/>
<path d="M229.996 132.409H220.98V134.589H229.996V132.409Z" fill="#6D87C6"/>
<path d="M250.704 120.32H225.983V130.922H250.704V120.32Z" fill="#B8C9E8"/>
<path d="M241.142 120.32H216.422V130.922H241.142V120.32Z" fill="#C9D7F4"/>
<path d="M241.142 121.355H216.422V121.564H241.142V121.355Z" fill="#AFBEE2"/>
<path d="M241.142 122.305H216.422V122.514H241.142V122.305Z" fill="#AFBEE2"/>
<path d="M241.142 123.255H216.422V123.463H241.142V123.255Z" fill="#AFBEE2"/>
<path d="M241.142 124.204H216.422V124.413H241.142V124.204Z" fill="#AFBEE2"/>
<path d="M241.142 125.154H216.422V125.362H241.142V125.154Z" fill="#AFBEE2"/>
<path d="M241.142 126.104H216.422V126.312H241.142V126.104Z" fill="#AFBEE2"/>
<path d="M241.142 127.053H216.422V127.261H241.142V127.053Z" fill="#AFBEE2"/>
<path d="M241.142 128.002H216.422V128.211H241.142V128.002Z" fill="#AFBEE2"/>
<path d="M241.142 128.952H216.422V129.16H241.142V128.952Z" fill="#AFBEE2"/>
<path d="M241.142 129.901H216.422V130.11H241.142V129.901Z" fill="#AFBEE2"/>
<path d="M237.997 125.362L232.646 126.661L232.324 125.362H237.997Z" fill="#AFBEE2"/>
<path d="M218.33 128.211L222.9 129.424L223.42 128.211H218.33Z" fill="#AFBEE2"/>
<path d="M244.091 110.658H219.37V120.256H244.091V110.658Z" fill="#C9D7F4"/>
<path d="M234.529 110.658H209.808V120.257H234.529V110.658Z" fill="white"/>
<path d="M234.529 111.64H209.808V111.848H234.529V111.64Z" fill="#C9D7F4"/>
<path d="M234.529 112.589H209.808V112.797H234.529V112.589Z" fill="#C9D7F4"/>
<path d="M234.529 113.538H209.808V113.747H234.529V113.538Z" fill="#C9D7F4"/>
<path d="M234.529 114.488H209.808V114.697H234.529V114.488Z" fill="#C9D7F4"/>
<path d="M234.529 115.438H209.808V115.646H234.529V115.438Z" fill="#C9D7F4"/>
<path d="M234.529 116.387H209.808V116.596H234.529V116.387Z" fill="#C9D7F4"/>
<path d="M234.529 117.336H209.808V117.545H234.529V117.336Z" fill="#C9D7F4"/>
<path d="M234.529 118.286H209.808V118.494H234.529V118.286Z" fill="#C9D7F4"/>
<path d="M234.529 119.235H209.808V119.444H234.529V119.235Z" fill="#C9D7F4"/>
<path d="M211.716 117.545L216.286 118.759L216.806 117.545H211.716Z" fill="#C9D7F4"/>
<path d="M235.049 120.32H210.329V130.922H235.049V120.32Z" fill="#E8EEF9"/>
<path d="M225.488 120.32H200.767V130.922H225.488V120.32Z" fill="white"/>
<path d="M225.488 121.355H200.767V121.564H225.488V121.355Z" fill="#C9D7F4"/>
<path d="M225.488 122.305H200.767V122.514H225.488V122.305Z" fill="#C9D7F4"/>
<path d="M225.488 123.255H200.767V123.463H225.488V123.255Z" fill="#C9D7F4"/>
<path d="M225.488 124.204H200.767V124.413H225.488V124.204Z" fill="#C9D7F4"/>
<path d="M225.488 125.154H200.767V125.362H225.488V125.154Z" fill="#C9D7F4"/>
<path d="M225.488 126.104H200.767V126.312H225.488V126.104Z" fill="#C9D7F4"/>
<path d="M225.488 127.053H200.767V127.261H225.488V127.053Z" fill="#C9D7F4"/>
<path d="M225.488 128.002H200.767V128.211H225.488V128.002Z" fill="#C9D7F4"/>
<path d="M225.488 128.952H200.767V129.16H225.488V128.952Z" fill="#C9D7F4"/>
<path d="M225.488 129.901H200.767V130.11H225.488V129.901Z" fill="#C9D7F4"/>
<path d="M222.342 125.362L216.991 126.661L216.669 125.362H222.342Z" fill="#C9D7F4"/>
<path d="M202.674 128.211L207.244 129.424L207.764 128.211H202.674Z" fill="#C9D7F4"/>
<path d="M123.294 141.335H127.376V137.254H123.294V141.335Z" fill="#FFA197"/>
<path d="M144.828 141.335H148.91L148.225 137.253H144.143L144.828 141.335Z" fill="#ED827A"/>
<path d="M146.653 114.089C146.653 114.089 149.659 129.712 149.733 139.844C149.733 139.844 146.864 140.964 143.629 139.844L137.231 113.28L146.653 114.089Z" fill="#0D1028"/>
<path d="M134.893 104.05C134.893 104.05 122.301 110.191 120.904 113.5C119.507 116.81 122.743 139.386 122.743 139.386C122.743 139.386 125.978 140.416 128.479 139.386L129.508 115.338H140.959C145.216 115.338 148.389 111.218 147.088 107.165C147.043 107.023 146.992 106.879 146.937 106.734L134.893 104.05Z" fill="#181E47"/>
<path d="M127.376 141.335C127.376 141.335 128.075 142.916 127.781 147.181H114.874C114.874 147.181 114.507 146.593 117.485 145.085C120.463 143.578 123.295 141.335 123.295 141.335L127.376 141.335Z" fill="#8DDCFF"/>
<path d="M148.91 141.335C148.91 141.335 150.1 143.431 149.953 147.181H140.577C140.577 147.181 140.43 146.666 141.827 145.6C143.224 144.534 144.829 141.335 144.829 141.335H148.91Z" fill="#5DB6E8"/>
<path d="M137.398 69.4514C137.398 69.4514 137.675 75.0522 138.957 76.1541C140.239 77.2564 142.556 75.6842 142.556 75.6842L145.7 68.6239C145.7 68.6239 141.121 66.4176 140.929 66.3626C140.736 66.3075 137.619 65.7834 137.619 65.7834L137.398 66.8593V69.4514Z" fill="#FFA197"/>
<path d="M139.311 68.6446L139.627 70.372C139.627 70.372 140.061 68.5315 140.982 68.5566C141.902 68.5822 141.774 71.6503 140.215 71.7014C140.215 71.7014 140.858 74.9225 141.559 75.255C142.26 75.5874 146.726 75.3798 146.726 75.3798C146.726 75.3798 149.623 70.2441 149.265 67.3551C148.907 64.466 147.526 65.0798 147.526 65.0798C147.526 65.0798 147.986 62.9069 145.532 61.7309C143.078 60.5549 140.445 61.5007 138.783 63.3672L137.223 61.8843C137.223 61.8843 135.971 63.3161 137.096 64.8757L134.923 63.802C134.923 63.802 134.503 66.8523 136.881 67.3382C136.881 67.3382 136.45 68.4934 137.268 69.2602L137.888 67.0486C138.162 67.8648 138.621 68.4184 139.311 68.6446Z" fill="#810004"/>
<path d="M120.554 94.1632C120.554 94.1632 117.473 93.5546 116.051 94.1632C114.629 94.7718 114.482 97.181 114.482 97.181H121.052L120.554 94.1632Z" fill="#FFA197"/>
<path d="M148.998 76.4731C148.998 76.4731 148.317 75.2234 147.124 74.8259C145.931 74.4284 142.012 74.4566 140.763 75.053C139.513 75.6495 139.655 77.1259 139.655 77.1259L148.998 76.4731Z" fill="#FFD4C7"/>
<path d="M155.419 106.146C155.419 106.146 155.9 108.739 155.419 111.188C154.952 113.559 152.866 115.266 150.449 115.266H137.672L143.866 103.352L155.419 106.146Z" fill="#0D1028"/>
<path d="M136.054 95.2618L134.894 104.05C134.894 104.05 145.663 111.147 155.419 106.146L154.586 95.2618H136.054Z" fill="#E24E2B"/>
<path d="M120.392 97.1729H151.938C151.938 97.1729 154.245 97.2431 156.366 96.9748C156.366 96.9748 156.395 96.9748 156.44 96.9622C158.054 96.7559 159.539 96.3433 159.807 95.5552C160.431 93.7191 157.121 81.6947 153.997 78.5339C150.874 75.3688 139.951 74.8902 136.348 77.7212C132.746 80.556 130.39 91.879 130.39 91.879L120.722 93.8266C119.913 95.1881 120.392 97.1729 120.392 97.1729Z" fill="#F66A35"/>
<path d="M130.212 97.1728H151.938C151.938 97.1728 154.245 97.2431 156.366 96.9747C156.366 96.9747 156.395 96.9747 156.44 96.9622C156.807 96.8672 158.309 96.178 156.976 91.0697C155.47 85.2968 154.108 80.6999 153.077 79.3752C152.049 78.0549 147.708 77.1346 142.856 77.6132C138.003 78.0917 138.465 80.1247 138.014 82.1351C136.709 87.9496 135.487 95.1182 134.604 96.0016C133.837 96.7732 130.564 97.1234 130.212 97.1728Z" fill="#E24E2B"/>
<path d="M127.543 116.988V117.569C127.543 118.109 127.977 118.543 128.517 118.543H154.937C155.476 118.543 155.914 118.109 155.914 117.569V115.773C155.914 115.233 155.476 114.799 154.937 114.799H129.733C128.524 114.799 127.543 115.779 127.543 116.988Z" fill="#2D2B52"/>
<path d="M134.604 116.988V117.569C134.604 118.109 135.041 118.543 135.578 118.543H154.936C155.476 118.543 155.913 118.109 155.913 117.569V115.773C155.913 115.233 155.476 114.799 154.936 114.799H136.797C135.585 114.799 134.604 115.779 134.604 116.988Z" fill="#393966"/>
<path d="M141.728 143.655H143.695V118.543H141.728V143.655Z" fill="#6D87C6"/>
<path d="M139.176 120.643H146.249C146.75 120.643 147.156 120.236 147.156 119.735V118.543H138.268V119.735C138.268 120.236 138.674 120.643 139.176 120.643Z" fill="#2D2B52"/>
<path d="M141.382 140.327H144.426C144.717 140.327 144.953 140.091 144.953 139.8V134.442C144.953 134.151 144.717 133.915 144.426 133.915H141.382C141.091 133.915 140.854 134.151 140.854 134.442V139.8C140.854 140.091 141.09 140.327 141.382 140.327Z" fill="#393966"/>
<path d="M143.695 143.655L152.786 145.481V144.568L143.695 141.341V143.655Z" fill="#5873AF"/>
<path d="M153.092 146.578C153.937 146.578 154.622 145.893 154.622 145.048C154.622 144.203 153.937 143.518 153.092 143.518C152.247 143.518 151.562 144.203 151.562 145.048C151.562 145.893 152.247 146.578 153.092 146.578Z" fill="#2D2B52"/>
<path d="M153.091 145.774C153.492 145.774 153.817 145.449 153.817 145.048C153.817 144.647 153.492 144.322 153.091 144.322C152.691 144.322 152.366 144.647 152.366 145.048C152.366 145.449 152.691 145.774 153.091 145.774Z" fill="#5873AF"/>
<path d="M141.728 143.655L132.637 145.481V144.568L141.728 141.341V143.655Z" fill="#5873AF"/>
<path d="M133.863 145.048C133.863 145.893 133.178 146.578 132.332 146.578C131.488 146.578 130.802 145.893 130.802 145.048C130.802 144.203 131.487 143.518 132.332 143.518C133.178 143.518 133.863 144.203 133.863 145.048Z" fill="#2D2B52"/>
<path d="M133.058 145.048C133.058 145.448 132.733 145.774 132.332 145.774C131.932 145.774 131.606 145.449 131.606 145.048C131.606 144.647 131.931 144.322 132.332 144.322C132.733 144.323 133.058 144.647 133.058 145.048Z" fill="#5873AF"/>
<path d="M144.194 117.294H145.758C146.042 117.294 146.287 117.098 146.351 116.822L147.9 110.063C147.987 109.682 147.698 109.319 147.307 109.319H145.743C145.46 109.319 145.214 109.515 145.151 109.791L143.602 116.55C143.514 116.931 143.804 117.294 144.194 117.294Z" fill="#6D87C6"/>
<path d="M136.807 90.4973V108.278C136.807 109.453 137.658 110.43 138.782 110.621C138.911 110.645 139.048 110.659 139.188 110.659H153.532C154.847 110.659 155.913 109.593 155.913 108.278V90.4973C155.913 89.5237 155.653 88.6152 155.203 87.8293C154.277 86.2272 152.548 85.1514 150.567 85.1514H142.153C139.199 85.1509 136.807 87.5424 136.807 90.4973Z" fill="#6D87C6"/>
<path d="M138.745 91.0245V110.225C138.745 110.361 138.755 110.495 138.782 110.621C138.912 110.645 139.049 110.659 139.189 110.659H153.533C154.848 110.659 155.914 109.593 155.914 108.278V90.4974C155.914 89.5239 155.654 88.6153 155.203 87.8295C154.411 87.3648 153.489 87.0986 152.505 87.0986H142.671C140.502 87.0982 138.745 88.8563 138.745 91.0245Z" fill="#393966"/>
<path d="M46.3518 56.3409C46.3518 56.3409 42.5417 48.8736 43.4207 46.7384C44.3002 44.6031 45.9054 45.2728 45.9054 45.2728C45.9054 45.2728 45.8915 42.0908 49.0736 40.9599C52.2556 39.8294 55.3545 43.0951 55.9826 44.184C55.9826 44.184 58.3276 43.2629 58.537 43.7232C58.7463 44.184 57.2387 46.0682 57.2387 46.0682C57.2387 46.0682 58.9973 45.5659 59.0393 46.0682C59.0814 46.5706 57.1551 48.7063 57.1551 48.7063C57.1551 48.7063 56.82 50.5069 55.7732 50.7579C54.7264 51.0093 52.7584 54.8615 52.7584 54.8615L49.0319 58.2529L46.3518 56.3409Z" fill="#181E47"/>
<path d="M56.1507 47.9939C56.1507 47.9939 56.3757 53.6966 55.7042 56.1452C55.2296 57.876 52.7454 57.4014 52.7454 57.4014L52.5221 58.7412H45.7666L46.2131 56.3407C46.2131 56.3407 48.9487 56.8431 50.4563 56.2848C51.9638 55.7265 52.494 53.0745 52.494 53.0745C52.494 53.0745 50.3444 52.3489 51.126 50.5344C51.9075 48.7199 53.1359 49.8925 53.0241 50.8413L54.2525 49.2223C54.2525 49.2223 55.5087 49.6411 56.1507 47.9939Z" fill="#FFA197"/>
<path d="M54.9353 140.532C54.9353 140.532 54.2187 144.401 54.5239 146.231H68.5504C68.5504 146.231 67.9786 144.783 65.3488 143.639C62.719 142.496 60.3176 140.169 60.3176 140.169L54.9353 140.532Z" fill="#F66A35"/>
<path d="M40.4148 140.271C40.4148 140.271 41.2696 142.147 43.508 143.524C45.8331 144.954 45.6805 146.23 45.6805 146.23H34.208C34.208 146.23 34.1044 141.81 35.2427 139.808L40.4148 140.271Z" fill="#E24E2B"/>
<path d="M44.235 86.9332C44.235 86.9332 42.2506 93.8591 43.2159 98.8392L39.5315 116.881C39.5315 116.881 34.4499 127.172 34.6784 139.446C34.6784 139.446 37.7503 141.813 40.8349 140.06C40.8349 140.06 46.9004 122.217 47.815 119.778C48.7296 117.339 56.2766 95.8414 56.2766 95.8414L53.3798 85.6263L44.235 86.9332Z" fill="#0D1028"/>
<path d="M61.5786 86.9331C62.4573 100.159 61.8075 119.723 60.9787 140.03C60.9787 140.03 57.3194 142.164 53.9652 140.03C53.9652 140.03 51.6276 124.987 52.8473 117.058L51.0177 99.9826C51.0177 99.9826 48.0701 91.569 49.2899 86.9331H61.5786Z" fill="#181E47"/>
<path d="M75.4176 84.1261C75.4176 84.1261 78.3431 85.7243 79.4679 86.606C80.5932 87.4876 82.1307 89.6627 81.4931 89.6627C80.8554 89.6627 79.018 87.5301 79.018 87.5301C79.018 87.5301 78.9603 89.3866 76.8138 89.6627C74.6673 89.9393 73.6174 89.4139 73.392 89.0763C73.1671 88.7386 74.5923 88.5752 74.5923 88.5752C74.5923 88.5752 73.4939 88.3151 73.3682 86.9328L72.2295 85.7382L75.4176 84.1261Z" fill="#FFA197"/>
<path d="M72.448 80.0696C70.3019 81.7536 68.2681 83.0653 67.2009 82.9977C64.2954 82.8061 62.093 79.1073 62.093 79.1073L62.0856 79.2126L61.578 86.937C53.6096 89.6509 44.2355 86.937 44.2355 86.937L43.529 82.246L43.5177 82.2499C43.3413 82.2798 41.0934 82.6934 39.278 82.1823C38.2893 81.904 37.4323 81.3553 37.1094 80.3219C36.1735 77.3262 36.8389 63.3925 40.5485 60.04C44.3374 56.6083 56.5156 57.9165 59.282 60.0249C62.0483 62.1411 66.852 74.1987 66.852 74.1987L72.448 80.0696Z" fill="#5A8BED"/>
<path opacity="0.71" d="M62.0939 79.1051L54.2954 69.1597C54.2954 69.1597 55.6071 80.3968 61.774 83.9642L62.0939 79.1051Z" fill="#4A6BD3"/>
<path opacity="0.71" d="M43.5302 82.2469L43.5172 82.2512C43.3416 82.2811 41.0919 82.692 39.2783 82.1827V65.9581L43.5302 82.2469Z" fill="#4A6BD3"/>
<path d="M76.3805 83.9629C76.3805 83.9629 74.7637 86.0358 72.1993 86.337C72.1993 86.337 65.3809 84.0509 61.8365 78.7211C61.7047 78.5256 61.5807 78.3266 61.4607 78.1233C58.1191 72.4363 66.6024 73.7067 66.6024 73.7067L72.1989 79.578L76.3805 83.9629Z" fill="#5A8BED"/>
<path d="M253.39 139.86C253.39 139.86 253.932 141.992 251.854 143.407C249.461 145.036 249.207 146.309 249.207 146.309H258.066L257.608 139.493L253.39 139.86Z" fill="#181E47"/>
<path d="M237.911 139.86C237.911 139.86 238.453 141.992 236.376 143.407C233.982 145.036 233.728 146.309 233.728 146.309H238.442C239.203 146.309 239.931 146.033 240.53 145.564C241.194 145.044 241.876 144.678 242.588 144.563L242.13 139.493L237.911 139.86Z" fill="#0D1028"/>
<path d="M239.883 87.7393C239.883 87.7393 234.899 107.038 233.677 112.639C232.455 118.24 237.241 140.032 237.241 140.032C237.241 140.032 239.863 140.912 242.689 139.446C242.689 139.446 243.988 129.594 242.384 121.345C241.358 116.072 242.846 114.261 244.599 111.34C246.661 107.903 249.869 100.8 249.869 100.8C249.869 100.8 248.418 86.7475 247.959 86.8238C247.501 86.9001 239.883 87.7393 239.883 87.7393Z" fill="#4A6BD3"/>
<path d="M245.21 87.8421L252.924 140.515C252.924 140.515 255.47 141.407 258.016 140.515C258.016 140.515 260.053 128.728 258.728 120.479C257.405 112.231 257.532 106.63 258.499 101.64C259.467 96.6501 259.747 92.7806 255.164 87.8417H245.21V87.8421Z" fill="#5A8BED"/>
<path d="M259.506 72.007L256.297 77.9641C256.176 78.2168 256.069 78.4825 255.971 78.7525V78.7569C254.617 82.528 255.281 87.8423 255.281 87.8423C252.8 88.5194 250.318 89.1492 247.82 89.3165C245.189 89.4964 242.54 89.1622 239.853 87.8423C241.837 81.3238 239.343 77.3043 239.343 77.3043C239.343 77.3043 238.576 78.1743 237.432 79.2458C236.262 80.3386 234.702 81.6455 233.181 82.447C230.177 84.0239 228.141 82.447 225.848 80.0512C223.56 77.6598 220.033 71.1929 220.033 71.1929C217.11 70.58 215.889 68.4118 216.06 66.1747C216.232 63.9419 217.251 64.0104 218.07 65.446C218.893 66.8773 220.877 68.2874 220.877 68.2874C220.877 68.2874 220.341 65.8062 220.513 65.5791C220.689 65.3476 221.126 65.8275 221.602 66.7234C222.081 67.6233 222.579 69.7789 222.579 69.7789C222.579 69.7789 223.864 70.8245 226.307 72.6931C227.438 73.5588 228.677 74.5189 229.684 75.2987C230.867 76.2202 231.733 76.8973 231.733 76.8973C231.733 76.8973 233.22 73.9532 236.198 69.642C239.181 65.3221 242.575 65.0178 242.575 65.0178L251.437 64.3706C251.437 64.3706 254.313 64.5722 256.096 66.0507C257.878 67.5241 259.506 72.007 259.506 72.007Z" fill="#F4C737"/>
<path d="M255.971 78.7566C254.616 82.5278 255.28 87.842 255.28 87.842C252.799 88.5191 250.318 89.1489 247.819 89.3162C248.016 86.7666 248.235 81.7952 247.095 80.5611C245.539 78.881 241.417 79.2456 241.417 79.2456C244.42 77.9811 246.152 79.2369 250.579 78.757C254.89 78.2854 253.416 74.1246 253.335 73.9014L255.97 78.7527L255.971 78.7566Z" fill="#EDA532"/>
<path d="M229.568 75.2984C229.568 75.2984 226.538 76.2585 225.732 80.0509C223.444 77.6595 219.917 71.1927 219.917 71.1927C216.994 70.5797 215.773 68.4115 215.944 66.1744C216.116 63.9416 217.136 64.0101 217.954 65.4458C218.777 66.8771 220.761 68.2871 220.761 68.2871C220.761 68.2871 220.225 65.806 220.397 65.5788C220.572 65.3474 221.01 65.8272 221.485 66.7232C221.965 67.6231 222.462 69.7787 222.462 69.7787C222.462 69.7787 223.748 70.8242 226.191 72.6929C227.322 73.5585 228.561 74.5182 229.568 75.2984Z" fill="#FFA197"/>
<path d="M239.343 77.304C239.343 77.304 238.576 78.1739 237.432 79.2455C236.558 77.304 236.579 73.7431 237.993 71.5489C239.519 69.183 240.093 67.1947 240.093 67.1947C240.093 67.1947 240.17 68.3776 239.022 71.8917C237.877 75.4054 239.343 77.304 239.343 77.304Z" fill="#EDA532"/>
<path d="M254.38 91.0709L242.929 93.5438L239.619 78.2148L250.063 75.9595L251.304 76.8247L254.38 91.0709Z" fill="#F66A35"/>
<path d="M251.315 76.8187L241.235 78.9957L244.312 93.2426L254.392 91.0656L251.315 76.8187Z" fill="#D65129"/>
<path d="M251.304 76.8247L241.224 79.0011L239.619 78.2148L250.063 75.9595L251.304 76.8247Z" fill="#F79057"/>
<path d="M261.426 85.8575C260.668 86.3672 259.082 86.7405 257.239 87.0144C253.01 87.6399 247.426 87.7387 247.426 87.7387L247.109 84.7652C247.109 84.7652 248.806 84.3274 252.649 83.0547C254.085 82.5749 255.127 82.2489 255.868 82.0304C257.106 81.6577 257.505 81.5805 257.505 81.5805L253.331 73.8926C253.331 73.8926 254.501 65.8956 255.979 66.0503C257.454 66.2046 261.885 77.5055 262.446 80.0512C263.004 82.5961 263.92 84.1778 261.426 85.8575Z" fill="#FFA197"/>
<path d="M261.426 85.8575C260.667 86.3672 259.082 86.7405 257.239 87.0144C255.521 84.7387 255.868 82.0304 255.868 82.0304C257.106 81.6577 257.505 81.5805 257.505 81.5805L253.331 73.8926C253.331 73.8926 254.5 65.8956 255.979 66.0503C257.453 66.2046 261.885 77.5055 262.446 80.0512C263.003 82.5961 263.92 84.1778 261.426 85.8575Z" fill="#F4C737"/>
<path d="M247.109 84.7653C247.109 84.7653 245.259 83.4142 244.662 83.1974C244.065 82.9803 244.894 84.4809 245.545 85.132C245.545 85.132 243.602 85.676 242.218 85.4935C240.834 85.3114 240.193 84.6075 239.994 84.9512C239.795 85.2945 241.531 88.3141 242.905 88.8927C244.279 89.4714 247.426 87.8069 247.426 87.8069L247.109 84.7653Z" fill="#FFA197"/>
<path d="M252.11 62.4856C252.11 62.4856 253.128 55.968 252.364 52.7859C251.6 49.6034 250.308 49.4253 250.308 49.4253C250.308 49.4253 249.182 47.1847 246.254 47.134C243.326 47.0832 239.94 48.3052 239.253 50.8002C239.253 50.8002 238.158 51.3334 238.617 54.8093C239.075 58.2853 238.901 60.9329 238.504 62.7149C238.504 62.7149 243.097 64.1661 244.956 62.3585C246.814 60.551 244.064 55.7395 244.064 55.7395L248.999 57.9337L252.11 62.4856Z" fill="#181E47"/>
<path d="M249.029 57.5966C249.029 57.5966 248.418 62.9564 249.029 63.5675C249.64 64.1787 251.32 64.3694 251.32 64.3694C251.32 64.3694 249.449 68.112 246.241 68.1501C243.033 68.1883 242.46 65.0188 242.46 65.0188C242.46 65.0188 244.026 65.0951 244.332 64.255C244.637 63.415 244.217 61.5055 244.217 61.5055L249.029 57.5966Z" fill="#EF8981"/>
<path d="M240.526 53.1423C240.526 53.1423 240.042 57.9287 241.188 60.2451C242.333 62.562 245.107 62.4068 246.483 61.5945C248.036 60.6781 248.57 59.4033 249.029 57.5966C249.029 57.5966 249.69 57.9538 250.149 56.91C250.607 55.8662 250.021 55.0006 249.029 55.1788C248.163 55.3339 248.265 56.5026 248.265 56.5026C248.265 56.5026 245.744 56.477 246.101 53.6768C246.101 53.6768 243.784 55.4843 240.526 53.1423Z" fill="#FFA197"/>
<path d="M249.029 57.5966C249.029 57.5966 248.749 61.8103 247.094 62.8736C247.094 62.8736 250.276 63.7075 252.109 62.4856L249.029 57.5966Z" fill="#181E47"/>
</svg>
