<svg width="905" height="639" viewBox="0 0 905 639" fill="none" xmlns="http://www.w3.org/2000/svg">
<path d="M638.186 449.23C658.762 426.747 656.23 420.126 636.127 401.727L521.047 296.406L578.061 234.109L693.141 339.43C750.179 391.632 754.615 442.17 698.029 503.999L505.553 714.309C448.967 776.137 398.235 776.186 341.197 723.985L7.92437 418.973L64.9385 356.677L398.211 661.688C418.314 680.087 425.133 682.023 445.71 659.54L638.186 449.23Z" fill="black" fill-opacity="0.01"/>
<path d="M492.61 548.386L435.595 610.682L106.457 309.455L301.363 96.4898C357.949 34.6614 423.333 30.8074 478.968 81.7251L495.799 97.1288C553.305 149.758 569.04 195.46 508.167 261.972L451.391 324.009L392.015 269.669L448.792 207.631C473.655 180.464 461.187 179.068 439.214 158.957L421.915 143.126C402.747 125.583 381.315 128.348 360.739 150.831L222.847 301.499L492.61 548.386Z" fill="black" fill-opacity="0.01"/>
<path d="M381.569 282.612L579.422 463.686L522.408 525.983L324.555 344.908L381.569 282.612Z" fill="black" fill-opacity="0.01"/>
<path d="M330.283 235.675L359.869 262.751L302.855 325.048L273.269 297.972L330.283 235.675Z" fill="black" fill-opacity="0.01"/>
<path d="M519.203 294.718L517.515 296.563L519.359 298.251L634.439 403.571C639.459 408.166 643.244 411.903 645.843 415.276C648.428 418.63 649.689 421.435 649.92 424.158C650.15 426.866 649.392 429.863 647.205 433.663C645.002 437.491 641.452 441.958 636.342 447.542L443.865 657.853C438.755 663.436 434.619 667.368 431.001 669.9C427.409 672.414 424.491 673.434 421.773 673.445C419.04 673.455 416.135 672.447 412.565 670.169C408.976 667.878 404.918 664.438 399.899 659.843L66.6263 354.832L64.7821 353.145L63.0943 354.989L6.08013 417.286L4.39229 419.13L6.23652 420.818L339.509 725.829C368.258 752.14 395.824 765.664 423.657 764.405C451.487 763.147 478.893 747.142 507.397 715.997L699.873 505.686C728.377 474.542 741.898 445.828 740.692 417.996C739.485 390.16 723.578 363.897 694.829 337.586L579.749 232.265L577.905 230.577L576.217 232.422L519.203 294.718ZM494.454 550.073L496.142 548.229L494.297 546.541L226.379 301.342L362.583 152.518C372.644 141.525 382.643 135.656 392.169 134.449C401.607 133.252 411.053 136.574 420.227 144.97L437.526 160.802C441.034 164.012 444.39 166.825 447.324 169.283C448.977 170.668 450.495 171.94 451.831 173.109C455.71 176.499 458.148 179.088 459.278 181.655C460.304 183.984 460.361 186.569 458.608 190.339C456.793 194.24 453.13 199.188 446.947 205.944L390.171 267.981L388.483 269.825L390.327 271.513L449.703 325.854L451.547 327.542L453.235 325.697L510.012 263.66C540.673 230.158 552.507 201.39 548.853 174.014C545.217 146.777 526.329 121.681 497.487 95.2846L480.656 79.8809C452.447 54.0641 421.539 41.9437 390.331 44.335C359.152 46.724 328.108 63.5643 299.519 94.802L104.613 307.767L102.925 309.611L104.769 311.299L433.908 612.527L435.752 614.214L437.44 612.37L494.454 550.073ZM383.257 280.767L381.413 279.079L379.725 280.924L322.711 343.22L321.023 345.065L322.867 346.753L520.72 527.827L522.564 529.515L524.252 527.671L581.266 465.374L582.954 463.53L581.11 461.842L383.257 280.767ZM331.971 233.831L330.127 232.143L328.439 233.987L271.425 296.284L269.737 298.128L271.581 299.816L301.167 326.892L303.011 328.58L304.699 326.736L361.713 264.439L363.401 262.595L361.557 260.907L331.971 233.831Z" stroke="#448CFF" stroke-opacity="0.61" stroke-width="5"/>
<path d="M361.634 482.676C361.634 482.676 347.372 398.284 316.528 413.718C285.684 429.152 349.031 475.451 361.634 482.676Z" fill="#FF6666"/>
<path d="M379.211 486.287C379.211 486.287 340.407 441.301 364.95 430.792C389.492 420.285 379.211 486.287 379.211 486.287Z" fill="#FF6666"/>
<path d="M389.487 515.526C389.487 515.526 354.449 477.956 341.572 495.622C328.695 513.289 389.487 515.526 389.487 515.526Z" fill="#FF6666"/>
<path d="M322.167 426.524C322.167 426.524 374.9 526.02 450.517 538.827" stroke="#FF5640" stroke-width="1.9595" stroke-miterlimit="10"/>
<path d="M369.262 446.227C369.262 446.227 378.217 462.646 380.869 501.393" stroke="#FF5640" stroke-width="1.9595" stroke-miterlimit="10"/>
<path d="M354.85 501.429C354.85 501.429 368.365 511.044 402.841 519.194" stroke="#FF5640" stroke-width="1.7715" stroke-miterlimit="10"/>
<path d="M332.104 506.566C332.104 506.566 359.3 564.494 432.161 537.257" stroke="#FF5640" stroke-width="1.9595" stroke-miterlimit="10"/>
<path d="M339.897 519.604C339.897 519.604 347.216 509.278 327.247 498.348C327.247 498.348 320.717 515.864 339.897 519.604Z" fill="#FF5640"/>
<path d="M351.838 529.717C351.838 529.717 342.753 522.716 350.424 512.697C350.424 512.697 359.241 520.701 351.838 529.717Z" fill="#FF5640"/>
<path d="M350.581 530.421C350.581 530.421 342.067 539.344 332.007 530.172C332.007 530.172 341.58 521.637 350.581 530.421Z" fill="#FF5640"/>
<path d="M369.191 539.377C369.191 539.377 359.269 533.596 365.57 522.679C365.57 522.679 375.356 529.491 369.191 539.377Z" fill="#FF5640"/>
<path d="M368.036 540.236C368.036 540.236 360.756 550.172 349.585 542.363C349.585 542.363 357.965 532.676 368.036 540.236Z" fill="#FF5640"/>
<path d="M388.883 543.398C388.883 543.398 377.557 541.352 379.677 528.955C379.677 528.955 391.233 532.014 388.883 543.398Z" fill="#FF5640"/>
<path d="M388.096 544.598C388.096 544.598 384.715 556.408 371.512 552.884C371.512 552.884 376.013 540.932 388.096 544.598Z" fill="#FF5640"/>
<path d="M410.896 542.943C410.896 542.943 399.425 543.92 398.175 531.409C398.175 531.409 410.137 531.348 410.896 542.943Z" fill="#FF5640"/>
<path d="M410.456 544.305C410.456 544.305 410.335 556.58 396.66 556.62C396.66 556.62 397.824 543.918 410.456 544.305Z" fill="#FF5640"/>
<path d="M385.844 372.344C385.844 372.344 365.033 432.81 436.692 463.016" stroke="#FF5640" stroke-width="1.9595" stroke-miterlimit="10"/>
<path d="M382.368 387.097C382.368 387.097 394.867 384.648 388.075 363.081C388.075 363.081 371.124 371.265 382.368 387.097Z" fill="#FF5640"/>
<path d="M383.931 402.579C383.931 402.579 382.258 391.301 394.797 389.314C394.797 389.314 395.575 401.133 383.931 402.579Z" fill="#FF5640"/>
<path d="M382.532 402.226C382.532 402.226 370.149 402.842 369.287 389.329C369.287 389.329 382.164 389.718 382.532 402.226Z" fill="#FF5640"/>
<path d="M389.721 421.438C389.721 421.438 386.591 410.468 398.766 406.895C398.766 406.895 401.079 418.516 389.721 421.438Z" fill="#FF5640"/>
<path d="M388.286 421.266C388.286 421.266 376.088 423.46 373.472 410.17C373.472 410.17 386.291 408.91 388.286 421.266Z" fill="#FF5640"/>
<path d="M401.137 437.822C401.137 437.822 394.385 428.59 404.573 421.086C404.573 421.086 410.786 431.208 401.137 437.822Z" fill="#FF5640"/>
<path d="M399.732 438.15C399.732 438.15 389.041 444.368 381.965 432.781C381.965 432.781 393.562 427.229 399.732 438.15Z" fill="#FF5640"/>
<path d="M417.358 452.564C417.358 452.564 408.388 445.417 416.223 435.523C416.223 435.523 424.907 443.669 417.358 452.564Z" fill="#FF5640"/>
<path d="M416.088 453.247C416.088 453.247 407.428 462.032 397.52 452.698C397.52 452.698 407.234 444.32 416.088 453.247Z" fill="#FF5640"/>
<path d="M395.276 470.314C395.276 470.314 407.694 533 485.02 523.8" stroke="#FF5640" stroke-width="1.9595" stroke-miterlimit="10"/>
<path d="M399.695 484.819C399.695 484.819 409.295 476.524 392.544 461.185C392.544 461.185 381.975 476.647 399.695 484.819Z" fill="#FF5640"/>
<path d="M408.848 497.466C408.848 497.466 401.717 488.517 411.585 480.604C411.585 480.604 418.212 490.463 408.848 497.466Z" fill="#FF5640"/>
<path d="M407.457 497.851C407.457 497.851 397.034 504.499 389.481 493.211C389.481 493.211 400.838 487.19 407.457 497.851Z" fill="#FF5640"/>
<path d="M423.365 510.953C423.365 510.953 415.127 502.991 423.881 493.882C423.881 493.882 431.739 502.813 423.365 510.953Z" fill="#FF5640"/>
<path d="M422.035 511.513C422.035 511.513 412.566 519.438 403.605 509.211C403.605 509.211 414.083 501.788 422.035 511.513Z" fill="#FF5640"/>
<path d="M441.513 519.518C441.513 519.518 431.011 514.849 436.062 503.314C436.062 503.314 446.545 509.022 441.513 519.518Z" fill="#FF5640"/>
<path d="M440.46 520.497C440.46 520.497 434.325 531.165 422.356 524.617C422.356 524.617 429.612 514.077 440.46 520.497Z" fill="#FF5640"/>
<path d="M462.998 524.288C462.998 524.288 451.624 522.521 453.432 510.077C453.432 510.077 465.062 512.85 462.998 524.288Z" fill="#FF5640"/>
<path d="M462.243 525.507C462.243 525.507 459.16 537.396 445.872 534.199C445.872 534.199 450.07 522.14 462.243 525.507Z" fill="#FF5640"/>
<path d="M585.669 434.953C585.669 434.953 603.136 496.448 529.929 522.761" stroke="#FF5640" stroke-width="1.9595" stroke-miterlimit="10"/>
<path d="M588.332 449.872C588.332 449.872 575.985 446.755 583.95 425.584C583.95 425.584 600.426 434.667 588.332 449.872Z" fill="#FF5640"/>
<path d="M585.921 465.247C585.921 465.247 588.21 454.076 575.798 451.418C575.798 451.418 574.375 463.178 585.921 465.247Z" fill="#FF5640"/>
<path d="M587.339 464.97C587.339 464.97 599.67 466.251 601.271 452.804C601.271 452.804 588.391 452.5 587.339 464.97Z" fill="#FF5640"/>
<path d="M579.108 483.767C579.108 483.767 582.834 472.982 570.873 468.76C570.873 468.76 567.927 480.239 579.108 483.767Z" fill="#FF5640"/>
<path d="M580.55 483.673C580.55 483.673 592.61 486.519 595.951 473.389C595.951 473.389 583.219 471.443 580.55 483.673Z" fill="#FF5640"/>
<path d="M566.81 499.515C566.81 499.515 574.059 490.658 564.296 482.618C564.296 482.618 557.539 492.392 566.81 499.515Z" fill="#FF5640"/>
<path d="M568.196 499.918C568.196 499.918 578.53 506.701 586.231 495.512C586.231 495.512 574.955 489.344 568.196 499.918Z" fill="#FF5640"/>
<path d="M549.807 513.364C549.807 513.364 559.154 506.71 551.874 496.409C551.874 496.409 542.756 504.077 549.807 513.364Z" fill="#FF5640"/>
<path d="M551.037 514.114C551.037 514.114 559.203 523.351 569.607 514.564C569.607 514.564 560.367 505.675 551.037 514.114Z" fill="#FF5640"/>
<path d="M477.56 564.276C478.371 569.657 474.622 574.67 469.187 575.472L440.648 579.686C435.213 580.489 430.151 576.777 429.34 571.396L414.518 472.988C413.708 467.607 417.456 462.594 422.892 461.792L451.43 457.578C456.866 456.775 461.928 460.487 462.738 465.868L477.56 564.276Z" fill="#001433"/>
<path d="M498.275 276.99C498.275 276.99 535.91 253.719 557.823 288.12C579.737 322.521 587.836 410.547 554.488 416.618C521.141 422.689 497.799 418.136 502.086 368.052C506.373 317.968 498.275 276.99 498.275 276.99Z" fill="#000A19"/>
<path d="M518.671 372.837C518.671 372.837 510.214 396.48 525.138 400.42C540.063 404.361 555.983 395.494 557.474 427.511C558.967 459.527 450.018 430.466 451.51 416.675C453.003 402.884 487.329 413.227 488.821 382.688C490.314 352.15 490.812 350.673 490.812 350.673L518.671 372.837Z" fill="#FFB199"/>
<path d="M516.435 389.13C515.6 381.438 518.671 372.836 518.671 372.836L490.812 350.671C490.812 350.671 490.812 355.217 490.457 365.938C495.105 376.894 504.883 384.944 516.435 389.13Z" fill="#E2887D"/>
<path d="M508.722 289.086C508.722 289.086 555.982 275.446 555.982 333.905C555.982 392.364 498.771 386.518 485.34 342.187C471.328 295.941 508.722 289.086 508.722 289.086Z" fill="#FFB199"/>
<path d="M504.245 319.886C504.245 319.886 504.336 319.434 504.65 318.694C504.962 317.955 505.49 316.916 506.37 315.817C507.234 314.711 508.458 313.523 510.065 312.622C510.858 312.158 511.75 311.781 512.692 311.513C513.629 311.214 514.631 311.108 515.622 311.035C516.615 311.028 517.61 311.073 518.553 311.273C519.027 311.359 519.492 311.459 519.935 311.608C520.385 311.737 520.822 311.872 521.232 312.055C522.073 312.37 522.827 312.782 523.528 313.177C524.215 313.596 524.845 314.014 525.382 314.454C525.945 314.856 526.406 315.291 526.81 315.676C527.227 316.043 527.553 316.405 527.816 316.709C528.347 317.307 528.621 317.671 528.621 317.671C528.621 317.671 528.182 317.508 527.465 317.182C526.752 316.853 525.722 316.411 524.519 315.919C523.921 315.66 523.254 315.442 522.57 315.19C521.878 314.965 521.155 314.72 520.402 314.545C519.655 314.344 518.876 314.202 518.094 314.104C517.31 313.997 516.52 313.973 515.733 313.987C514.953 314.036 514.171 314.101 513.42 314.284C512.668 314.453 511.933 314.672 511.24 314.961C509.842 315.513 508.607 316.291 507.564 317.023C506.538 317.777 505.706 318.496 505.135 319.025C504.566 319.554 504.245 319.886 504.245 319.886Z" fill="#000A19"/>
<path d="M536.581 318.162C536.581 318.162 536.578 317.808 536.685 317.208C536.787 316.607 537.007 315.762 537.428 314.79C537.864 313.829 538.505 312.729 539.514 311.735C540.006 311.231 540.61 310.77 541.292 310.388C541.965 309.988 542.76 309.729 543.565 309.572C544.38 309.419 545.213 309.456 545.998 309.571C546.774 309.719 547.503 309.964 548.139 310.285C548.784 310.595 549.335 310.981 549.832 311.359C550.309 311.76 550.742 312.147 551.088 312.55C551.456 312.932 551.733 313.328 551.978 313.674C552.236 314.007 552.417 314.332 552.564 314.6C552.86 315.131 552.997 315.451 552.997 315.451C552.997 315.451 552.667 315.305 552.145 315.017C551.625 314.729 550.886 314.325 550.024 313.9C549.601 313.67 549.131 313.471 548.653 313.252C548.166 313.057 547.664 312.858 547.149 312.714C546.635 312.557 546.112 312.477 545.598 312.41C545.085 312.399 544.575 312.369 544.082 312.481C543.092 312.644 542.118 313.103 541.229 313.72C540.336 314.326 539.54 315.07 538.858 315.738C538.178 316.411 537.615 317.023 537.216 317.46C536.812 317.908 536.581 318.162 536.581 318.162Z" fill="#000A19"/>
<path d="M539.566 324.566C539.566 324.566 539.729 324.86 540.016 325.373C540.298 325.875 540.702 326.592 541.187 327.452C541.432 327.872 541.706 328.321 541.998 328.78C542.29 329.24 542.624 329.707 542.972 330.153C543.31 330.618 543.73 331.008 544.133 331.355C544.553 331.656 544.976 331.927 545.374 331.924L545.523 331.954L545.532 331.956C545.471 331.961 545.675 331.947 545.397 331.967L545.405 331.966L545.436 331.962L545.498 331.954L545.622 331.938C545.772 331.913 545.982 331.903 546.083 331.865C546.185 331.763 546.312 331.78 546.521 331.599C546.902 331.345 547.269 330.92 547.58 330.471C548.196 329.547 548.659 328.521 549.046 327.636C549.421 326.743 549.721 325.972 549.93 325.429C550.142 324.881 550.263 324.568 550.263 324.568C550.263 324.568 550.463 325.921 550.146 327.94C549.987 328.949 549.714 330.129 549.09 331.35C548.749 331.944 548.375 332.598 547.696 333.115C547.512 333.241 547.406 333.381 547.147 333.492C546.912 333.606 546.665 333.706 546.418 333.789C546.206 333.849 546.077 333.848 545.902 333.88L545.779 333.898L545.717 333.907L545.687 333.912L545.678 333.913C545.395 333.933 545.593 333.918 545.527 333.922L545.506 333.92L545.161 333.882C544.208 333.806 543.463 333.297 542.879 332.803C542.311 332.283 541.878 331.703 541.534 331.136C541.163 330.576 540.909 329.996 540.682 329.45C540.441 328.909 540.279 328.378 540.138 327.888C539.85 326.912 539.712 326.078 539.641 325.492C539.571 324.905 539.566 324.566 539.566 324.566Z" fill="#000A19"/>
<path d="M512.205 324.566C512.205 324.566 512.368 324.86 512.654 325.373C512.937 325.875 513.341 326.592 513.825 327.452C514.071 327.872 514.344 328.321 514.637 328.78C514.928 329.24 515.262 329.707 515.611 330.153C515.949 330.618 516.368 331.008 516.771 331.355C517.192 331.656 517.614 331.927 518.012 331.924L518.162 331.954L518.171 331.956C518.11 331.961 518.314 331.947 518.035 331.967L518.043 331.966L518.074 331.962L518.136 331.954L518.26 331.938C518.411 331.913 518.621 331.903 518.721 331.865C518.824 331.763 518.951 331.78 519.16 331.599C519.541 331.345 519.907 330.92 520.218 330.471C520.835 329.547 521.298 328.521 521.685 327.636C522.059 326.743 522.36 325.972 522.568 325.429C522.78 324.881 522.901 324.568 522.901 324.568C522.901 324.568 523.101 325.921 522.785 327.94C522.626 328.949 522.353 330.129 521.728 331.35C521.388 331.944 521.013 332.598 520.335 333.115C520.15 333.241 520.045 333.381 519.786 333.492C519.551 333.606 519.303 333.706 519.056 333.789C518.843 333.849 518.715 333.848 518.541 333.88L518.418 333.898L518.356 333.907L518.325 333.912L518.317 333.913C518.034 333.933 518.233 333.918 518.166 333.922L518.145 333.92L517.8 333.882C516.848 333.806 516.102 333.297 515.518 332.803C514.951 332.283 514.518 331.703 514.174 331.136C513.804 330.576 513.549 329.996 513.322 329.45C513.081 328.909 512.919 328.378 512.777 327.888C512.49 326.912 512.352 326.078 512.28 325.492C512.21 324.905 512.205 324.566 512.205 324.566Z" fill="#000A19"/>
<path d="M534.342 324.073C534.5 324.902 534.673 325.702 534.861 326.491C534.941 326.887 535.061 327.275 535.159 327.662C535.241 328.051 535.372 328.43 535.476 328.809C535.579 329.19 535.728 329.557 535.839 329.929C535.951 330.302 536.099 330.662 536.233 331.022C536.365 331.384 536.504 331.74 536.666 332.085C536.832 332.428 536.953 332.79 537.142 333.116L537.66 334.113L538.252 335.054C538.425 335.384 538.676 335.654 538.889 335.953C539.113 336.244 539.314 336.553 539.577 336.808C539.824 337.077 540.077 337.342 540.313 337.621L541.139 338.348C541.276 338.471 541.406 338.604 541.548 338.721L542.004 339.039L542.909 339.703L544.666 340.991L542.993 341.887C541.777 342.54 540.535 343.154 539.263 343.722C538.638 344.023 537.979 344.27 537.337 344.545C536.679 344.795 536.022 345.047 535.336 345.254C535.811 344.722 536.315 344.234 536.818 343.746C537.337 343.281 537.837 342.789 538.373 342.351C539.423 341.441 540.502 340.578 541.607 339.753L541.69 341.937L540.504 341.298L539.915 340.964C539.727 340.84 539.551 340.699 539.368 340.565L538.296 339.727C537.972 339.411 537.664 339.078 537.35 338.751C537.021 338.436 536.758 338.069 536.496 337.702C536.241 337.332 535.943 336.985 535.741 336.585L535.101 335.407C534.923 335.001 534.765 334.587 534.599 334.177C534.415 333.774 534.33 333.341 534.201 332.923C534.069 332.505 533.975 332.08 533.907 331.651C533.827 331.224 533.745 330.801 533.718 330.37C533.679 329.941 533.627 329.516 533.637 329.086C533.614 328.231 533.645 327.38 533.766 326.54C533.87 325.702 534.053 324.869 534.342 324.073Z" fill="#FF8255"/>
<path d="M518.671 351.656L544.042 352.148C544.042 352.148 535.835 369.142 518.671 351.656Z" fill="#FF553C"/>
<path d="M518.671 351.656C519.268 352.264 519.851 352.821 520.426 353.347C525.378 352.693 530.3 353.187 533.843 357.07C534.446 357.732 535.055 358.463 535.622 359.241C541.28 357.845 544.042 352.147 544.042 352.147L518.671 351.656Z" fill="#B2382B"/>
<path d="M563.445 446.719C563.445 446.719 562.449 504.841 564.937 504.841C567.425 504.841 627.122 520.603 629.61 530.946C632.097 541.289 634.088 561.977 625.133 534.394C625.133 534.394 632.595 572.814 618.666 533.901C618.666 533.901 613.193 570.843 613.193 533.408C613.193 533.408 608.218 566.902 607.72 533.901C607.72 533.901 544.043 532.916 526.133 518.632C508.224 504.348 538.571 438.838 538.571 438.838L563.445 446.719Z" fill="#E2887D"/>
<path d="M544.044 452.137C544.044 452.137 557.973 453.615 566.928 450.166C566.928 450.166 566.501 406.323 545.039 402.881C524.69 399.619 544.044 452.137 544.044 452.137Z" fill="#FFA94D"/>
<path d="M540.99 442.837C542.643 448.332 544.044 452.138 544.044 452.138C544.044 452.138 557.973 453.616 566.928 450.167C566.928 450.167 566.793 436.531 562.953 423.87C557.081 431.362 549.434 437.644 540.99 442.837Z" fill="#DD8D45"/>
<path d="M465.767 524.051C465.767 524.051 438.626 540.797 437.582 566.411H564.938C564.938 566.411 563.894 539.813 537.796 522.081C511.699 504.348 465.767 524.051 465.767 524.051Z" fill="#DD8D45"/>
<path d="M464.446 524.051C464.446 524.051 432.608 474.795 437.582 436.376C442.557 397.956 461.461 402.39 469.421 402.39C469.421 402.39 481.361 428.002 506.732 424.555C534.125 420.832 536.581 401.404 536.581 401.404C536.581 401.404 552.501 398.942 556.978 414.211C561.456 429.48 568.918 472.332 542.552 479.721L536.582 509.767C536.582 509.767 512.204 533.409 464.446 524.051Z" fill="#FFA94D"/>
<path d="M486.662 461.412C475.388 455.666 465.204 448.095 455.479 440.087C450.017 435.591 444.414 431.042 439.525 425.875C438.75 428.962 438.092 432.441 437.582 436.375C432.607 474.795 464.446 524.049 464.446 524.049C512.204 533.408 536.581 509.766 536.581 509.766L542.551 479.72C548.017 478.188 552.012 475.116 554.898 471.098C532.191 472.611 507.16 471.857 486.662 461.412Z" fill="#DD8D45"/>
<path d="M486.335 268.414C486.335 268.414 515.189 262.504 517.677 287.132C520.164 311.759 493.3 312.252 494.295 337.864C495.29 363.477 504.244 394.016 484.345 404.852C464.447 415.688 445.541 390.075 437.583 438.838C437.583 438.838 420.171 411.255 434.1 393.03C448.03 374.806 454.994 353.626 454.498 315.699C453.999 277.772 476.386 271.862 486.335 268.414Z" fill="#001433"/>
<path d="M485.34 342.186C485.34 342.186 499.27 359.044 517.676 360.029" stroke="#001433" stroke-width="0.9797" stroke-miterlimit="10"/>
<path d="M524.689 361.048C524.383 362.811 522.69 363.995 520.908 363.691L513.248 362.384C511.467 362.08 510.272 360.404 510.578 358.641C510.885 356.877 512.578 355.694 514.359 355.997L522.019 357.304C523.801 357.608 524.996 359.284 524.689 361.048Z" fill="#22689E"/>
<path d="M480.615 351.656C492.017 351.656 501.261 341.622 501.261 329.245C501.261 316.867 492.017 306.833 480.615 306.833C469.212 306.833 459.969 316.867 459.969 329.245C459.969 341.622 469.212 351.656 480.615 351.656Z" fill="#DD8D45"/>
<path d="M474.147 351.656C485.549 351.656 494.793 341.622 494.793 329.245C494.793 316.867 485.549 306.833 474.147 306.833C462.744 306.833 453.5 316.867 453.5 329.245C453.5 341.622 462.744 351.656 474.147 351.656Z" fill="#FFA94D"/>
<path d="M474.104 341.592C480.26 341.592 485.251 336.174 485.251 329.491C485.251 322.808 480.26 317.39 474.104 317.39C467.947 317.39 462.956 322.808 462.956 329.491C462.956 336.174 467.947 341.592 474.104 341.592Z" fill="#DD8D45"/>
<path d="M470.913 328.998C470.913 328.998 469.918 287.623 492.304 272.847C517.448 256.25 538.073 271.861 538.073 271.861C538.073 271.861 510.711 266.443 495.289 282.697C479.867 298.952 477.877 325.549 477.877 325.549L470.913 328.998Z" fill="#DD8D45"/>
<path d="M483.351 451.644C483.351 451.644 480.864 506.318 479.869 519.125C479.869 519.125 547.526 506.319 556.481 511.244C565.437 516.17 589.315 560.992 565.437 530.453C565.437 530.453 586.33 567.888 559.964 532.424C559.964 532.424 572.899 564.44 553.994 532.424C553.994 532.424 566.432 560.007 547.03 529.962C547.03 529.962 465.94 563.456 454.001 556.067C442.061 548.679 433.603 492.035 439.574 445.242C445.542 398.449 483.351 451.644 483.351 451.644Z" fill="#FFB199"/>
<path d="M466.608 474.384C472.002 474.478 477.23 473.894 482.356 472.868C482.926 460.996 483.351 451.645 483.351 451.645C483.351 451.645 445.542 398.449 439.573 445.242C438.604 452.833 438.018 460.682 437.762 468.539C447.03 471.808 456.521 474.208 466.608 474.384Z" fill="#E2887D"/>
<path d="M434.597 463.466C434.597 463.466 431.612 404.359 461.461 407.315C491.31 410.27 484.843 465.928 484.843 465.928C484.843 465.928 457.481 472.825 434.597 463.466Z" fill="#FFA94D"/>
<path d="M852.483 577.247C852.483 580.51 850.256 583.157 847.507 583.157H311.222C308.475 583.157 306.247 580.51 306.247 577.247V565.425C306.247 562.16 308.474 559.515 311.222 559.515H847.508C850.257 559.515 852.484 562.161 852.484 565.425L852.483 577.247Z" fill="#22689E"/>
<path d="M799.795 509.274C799.795 511.995 797.568 514.2 794.819 514.2H611.746C608.999 514.2 606.771 511.995 606.771 509.274V368.403C606.771 365.683 608.998 363.477 611.746 363.477H794.819C797.568 363.477 799.795 365.682 799.795 368.403V509.274Z" fill="#003154"/>
<path d="M813.721 509.274C813.721 511.995 811.494 514.2 808.746 514.2H625.673C622.926 514.2 620.698 511.995 620.698 509.274V368.403C620.698 365.683 622.925 363.477 625.673 363.477H808.747C811.495 363.477 813.722 365.682 813.722 368.403V509.274H813.721Z" fill="#001433"/>
<path d="M731.887 553.604C731.887 556.324 729.66 558.53 726.912 558.53H701.043C698.294 558.53 696.067 556.325 696.067 553.604V448.197C696.067 445.477 698.294 443.271 701.043 443.271H726.912C729.659 443.271 731.887 445.476 731.887 448.197V553.604Z" fill="#003154"/>
<path d="M774.172 554.589C774.172 557.31 771.945 559.515 769.197 559.515H658.755C656.008 559.515 653.78 557.31 653.78 554.589V553.604C653.78 550.883 656.007 548.678 658.755 548.678H769.197C771.945 548.678 774.172 550.883 774.172 553.604V554.589Z" fill="#003154"/>
<path d="M731.887 553.604C731.887 556.324 729.66 558.53 726.912 558.53H701.043C698.294 558.53 696.067 556.325 696.067 553.604V448.197C696.067 445.477 698.294 443.271 701.043 443.271H726.912C729.659 443.271 731.887 445.476 731.887 448.197V553.604Z" fill="#003154"/>
<path d="M633.84 554.589C633.84 557.31 631.613 559.515 628.864 559.515H518.424C515.677 559.515 513.449 557.31 513.449 554.589V553.604C513.449 550.883 515.676 548.678 518.424 548.678H628.866C631.614 548.678 633.841 550.883 633.841 553.604V554.589H633.84Z" fill="#003154"/>
<path d="M681.091 215.724H569.326C563.189 215.724 558.214 220.65 558.214 226.726V269.577C558.214 275.653 563.189 280.579 569.326 280.579H584.746V309.476L601.107 280.579H681.09C687.227 280.579 692.202 275.653 692.202 269.577V226.726C692.203 220.65 687.228 215.724 681.091 215.724Z" fill="#FF5640"/>
<g opacity="0.25">
<path d="M593.37 256.28C597.4 256.28 600.667 253.046 600.667 249.056C600.667 245.066 597.4 241.831 593.37 241.831C589.34 241.831 586.073 245.066 586.073 249.056C586.073 253.046 589.34 256.28 593.37 256.28Z" fill="black"/>
<path d="M627.199 256.28C631.228 256.28 634.495 253.046 634.495 249.056C634.495 245.066 631.228 241.831 627.199 241.831C623.169 241.831 619.902 245.066 619.902 249.056C619.902 253.046 623.169 256.28 627.199 256.28Z" fill="black"/>
<path d="M661.028 256.28C665.058 256.28 668.324 253.046 668.324 249.056C668.324 245.066 665.058 241.831 661.028 241.831C656.998 241.831 653.731 245.066 653.731 249.056C653.731 253.046 656.998 256.28 661.028 256.28Z" fill="black"/>
</g>
<path d="M591.379 254.309C595.409 254.309 598.676 251.075 598.676 247.085C598.676 243.095 595.409 239.861 591.379 239.861C587.349 239.861 584.083 243.095 584.083 247.085C584.083 251.075 587.349 254.309 591.379 254.309Z" fill="white"/>
<path d="M625.208 254.309C629.238 254.309 632.505 251.075 632.505 247.085C632.505 243.095 629.238 239.861 625.208 239.861C621.178 239.861 617.912 243.095 617.912 247.085C617.912 251.075 621.178 254.309 625.208 254.309Z" fill="white"/>
<path d="M659.037 254.309C663.067 254.309 666.334 251.075 666.334 247.085C666.334 243.095 663.067 239.861 659.037 239.861C655.007 239.861 651.74 243.095 651.74 247.085C651.74 251.075 655.007 254.309 659.037 254.309Z" fill="white"/>
<path d="M448.349 216.752L442.326 221.388C445.876 225.936 450.214 229.687 455.216 232.537L459.024 225.985C463.206 228.366 467.793 229.884 472.502 230.493L471.514 237.983C477.291 238.731 483.065 238.355 488.674 236.863L486.696 229.568C491.216 228.367 495.577 226.283 499.513 223.275L504.204 229.232C508.786 225.725 512.568 221.443 515.442 216.506L508.829 212.732C511.238 208.594 512.774 204.054 513.395 199.394L520.96 200.38C521.72 194.66 521.346 188.943 519.847 183.39L512.477 185.34C511.274 180.882 509.182 176.581 506.17 172.694L512.208 168.073L512.128 167.969C508.557 163.395 504.193 159.629 499.158 156.775L495.366 163.334C491.18 160.961 486.59 159.453 481.88 158.854L482.852 151.362C477.073 150.626 471.3 151.014 465.694 152.516L467.687 159.811C463.186 161.016 458.845 163.097 454.926 166.095L450.252 160.126C445.646 163.651 441.85 167.958 438.97 172.927L445.589 176.689C443.188 180.832 441.66 185.374 441.05 190.037L433.484 189.066C432.734 194.788 433.12 200.503 434.631 206.054L442.001 204.089C443.213 208.555 445.317 212.862 448.349 216.752ZM490.914 184.203C496.748 191.676 495.354 202.455 487.806 208.231C480.259 214.008 469.371 212.627 463.538 205.154C457.703 197.682 459.098 186.902 466.645 181.126C474.193 175.35 485.08 176.73 490.914 184.203Z" fill="#22689E"/>
<path d="M401.47 246.737L398.79 251.564C402.495 253.595 406.494 254.865 410.676 255.342L411.313 249.866C414.809 250.264 418.323 249.968 421.654 249.029L423.179 254.328C427.266 253.174 431.022 251.271 434.343 248.668L430.889 244.348C433.565 242.251 435.877 239.607 437.635 236.468L442.515 239.114C444.56 235.455 445.842 231.506 446.326 227.377L440.795 226.742C441.201 223.282 440.905 219.802 439.96 216.504L445.314 215C444.154 210.952 442.234 207.23 439.609 203.941L435.243 207.355C433.137 204.714 430.482 202.432 427.329 200.692L430.023 195.869L429.939 195.823C426.213 193.782 422.192 192.508 417.987 192.039L417.362 197.515C413.866 197.124 410.352 197.427 407.023 198.373L405.489 193.078C401.404 194.239 397.652 196.151 394.335 198.76L397.799 203.075C395.137 205.169 392.837 207.805 391.087 210.934L386.216 208.273C384.16 211.952 382.875 215.923 382.397 220.074L387.928 220.699C387.53 224.16 387.833 227.639 388.784 230.936L383.434 232.45C384.602 236.496 386.53 240.213 389.161 243.498L393.522 240.074C395.639 242.718 398.305 245.002 401.47 246.737ZM420.473 212.764C426.561 216.099 428.773 223.715 425.406 229.743C422.037 235.771 414.344 237.961 408.256 234.627C402.168 231.292 399.956 223.675 403.324 217.647C406.692 211.619 414.386 209.428 420.473 212.764Z" fill="#FF6666"/>
<path d="M332.055 366.558C362.461 366.558 387.11 342.153 387.11 312.049C387.11 281.944 362.461 257.539 332.055 257.539C301.649 257.539 277 281.944 277 312.049C277 342.153 301.649 366.558 332.055 366.558Z" fill="#22689E"/>
<g opacity="0.25">
<path d="M337.384 312.737C338.106 312.371 338.91 312.178 339.744 312.178C341.127 312.178 342.427 312.71 343.408 313.676L345.518 311.587C350.739 313.399 356.779 312.239 360.953 308.106C364.466 304.628 365.851 299.843 365.111 295.333C365.03 294.838 364.674 294.426 364.191 294.273C363.707 294.118 363.177 294.244 362.818 294.599L359.685 297.701C357.133 300.228 352.997 300.228 350.444 297.701C347.894 295.175 347.894 291.079 350.444 288.552L353.578 285.452C353.938 285.095 354.066 284.57 353.91 284.091C353.753 283.611 353.34 283.262 352.837 283.18C348.281 282.448 343.449 283.819 339.938 287.297C335.701 291.491 334.56 297.587 336.509 302.809L331.933 307.34L337.384 312.737Z" fill="black"/>
<path d="M329.044 320.949L323.616 315.575L304.635 334.368C302.166 336.81 302.166 340.772 304.635 343.216C307.103 345.659 311.104 345.659 313.572 343.216L329.934 327.015C328.285 325.372 327.988 322.892 329.044 320.949Z" fill="black"/>
<path d="M341.15 315.931C340.761 315.546 340.253 315.354 339.743 315.354C339.235 315.354 338.727 315.546 338.338 315.931L337.205 317.052L317.021 297.069L317.964 296.135C318.823 295.284 318.717 293.873 317.738 293.159L309.503 287.154C308.711 286.577 307.614 286.659 306.918 287.347L303.421 290.809C302.726 291.497 302.644 292.584 303.226 293.368L309.291 301.521C310.012 302.492 311.437 302.598 312.297 301.747L313.241 300.812L333.424 320.796L332.211 321.997C331.434 322.766 331.434 324.012 332.211 324.78L350.83 343.216C353.298 345.659 357.3 345.659 359.768 343.216C362.236 340.773 362.236 336.81 359.768 334.368L341.15 315.931Z" fill="black"/>
</g>
<path d="M335.393 310.768C336.115 310.402 336.92 310.209 337.754 310.209C339.138 310.209 340.437 310.742 341.418 311.706L343.529 309.617C348.75 311.429 354.79 310.269 358.965 306.136C362.478 302.658 363.863 297.873 363.123 293.364C363.041 292.868 362.686 292.457 362.203 292.303C361.719 292.148 361.189 292.274 360.83 292.63L357.697 295.732C355.145 298.258 351.008 298.258 348.456 295.732C345.906 293.205 345.906 289.11 348.456 286.583L351.589 283.482C351.949 283.125 352.077 282.6 351.92 282.121C351.764 281.642 351.351 281.292 350.848 281.21C346.292 280.478 341.46 281.849 337.948 285.327C333.712 289.522 332.571 295.617 334.52 300.84L329.944 305.37L335.393 310.768Z" fill="white"/>
<path d="M327.055 318.979L321.627 313.604L302.646 332.397C300.177 334.839 300.177 338.802 302.646 341.245C305.114 343.688 309.115 343.688 311.583 341.245L327.945 325.045C326.295 323.402 325.997 320.922 327.055 318.979Z" fill="white"/>
<path d="M339.16 313.961C338.772 313.577 338.264 313.384 337.754 313.384C337.245 313.384 336.737 313.576 336.348 313.961L335.215 315.082L315.031 295.099L315.974 294.165C316.834 293.315 316.727 291.903 315.748 291.189L307.512 285.184C306.721 284.607 305.623 284.69 304.927 285.377L301.431 288.839C300.735 289.527 300.653 290.614 301.236 291.398L307.301 299.552C308.022 300.522 309.446 300.628 310.307 299.777L311.25 298.843L331.433 318.826L330.22 320.027C329.444 320.797 329.444 322.042 330.22 322.811L348.839 341.246C351.307 343.689 355.309 343.689 357.777 341.246C360.245 338.803 360.245 334.84 357.777 332.398L339.16 313.961Z" fill="white"/>
<path d="M752.815 348.637C782.122 348.637 805.881 325.114 805.881 296.097C805.881 267.08 782.122 243.557 752.815 243.557C723.508 243.557 699.75 267.08 699.75 296.097C699.75 325.114 723.508 348.637 752.815 348.637Z" fill="#FFA94D"/>
<g opacity="0.25">
<path d="M788.904 277.356L767.851 298.067L788.904 318.778C789.285 317.991 789.515 317.12 789.515 316.19V279.944C789.515 279.014 789.284 278.143 788.904 277.356Z" fill="black"/>
<path d="M759.119 301.017L786.028 274.509C785.233 274.132 784.353 273.904 783.414 273.904H726.197C725.258 273.904 724.378 274.132 723.583 274.509L750.492 301.017C752.871 303.372 756.74 303.372 759.119 301.017Z" fill="black"/>
<path d="M720.707 277.356C720.326 278.143 720.096 279.014 720.096 279.944V316.19C720.096 317.12 720.326 317.991 720.707 318.778L741.76 298.067L720.707 277.356Z" fill="black"/>
<path d="M761.995 303.864C758.03 307.789 751.58 307.789 747.616 303.864L744.637 300.914L723.584 321.625C724.379 322.002 725.259 322.23 726.198 322.23H783.415C784.354 322.23 785.234 322.002 786.029 321.625L764.976 300.914L761.995 303.864Z" fill="black"/>
</g>
<path d="M786.914 275.386L765.86 296.097L786.914 316.808C787.294 316.02 787.525 315.15 787.525 314.22V277.974C787.525 277.044 787.294 276.174 786.914 275.386Z" fill="white"/>
<path d="M757.129 299.047L784.038 272.539C783.243 272.162 782.363 271.934 781.424 271.934H724.207C723.268 271.934 722.388 272.162 721.593 272.539L748.502 299.047C750.881 301.402 754.75 301.402 757.129 299.047Z" fill="white"/>
<path d="M718.717 275.386C718.336 276.173 718.106 277.044 718.106 277.974V314.22C718.106 315.15 718.336 316.02 718.717 316.808L739.771 296.097L718.717 275.386Z" fill="white"/>
<path d="M760.005 301.893C756.041 305.819 749.59 305.819 745.626 301.893L742.647 298.943L721.593 319.654C722.388 320.031 723.268 320.259 724.207 320.259H781.424C782.363 320.259 783.243 320.031 784.038 319.654L762.985 298.943L760.005 301.893Z" fill="white"/>
<path d="M796.919 232.588C817.983 232.588 835.058 215.681 835.058 194.826C835.058 173.97 817.983 157.064 796.919 157.064C775.855 157.064 758.779 173.97 758.779 194.826C758.779 215.681 775.855 232.588 796.919 232.588Z" fill="#22689E"/>
<g opacity="0.25">
<path d="M801.075 204.467L792.079 203.751V192.864C792.337 193.012 792.913 193.166 793.801 193.332C794.689 193.498 795.467 193.58 796.133 193.58C797.651 193.58 798.955 193.186 800.049 192.397C801.141 191.609 801.687 190.574 801.687 189.291C801.687 188.08 801.287 187.062 800.492 186.239C799.696 185.413 798.557 185.002 797.077 185.002C795.633 185.002 794.521 185.434 793.744 186.293C792.966 187.157 792.449 188.211 792.189 189.456L785.358 186.706C785.543 184.617 786.266 182.702 787.525 180.961C788.784 179.221 790.413 177.835 792.411 176.808C794.41 175.784 796.557 175.269 798.853 175.269C801.482 175.269 803.834 175.947 805.906 177.303C807.981 178.662 809.59 180.438 810.74 182.637C811.886 184.836 812.46 187.146 812.46 189.567C812.46 192.205 811.794 194.443 810.462 196.275C809.129 198.107 807.554 199.456 805.742 200.316C803.927 201.177 802.334 201.591 800.965 201.552L801.075 204.467ZM792.411 216.536C791.301 215.346 790.745 213.943 790.745 212.33C790.745 210.681 791.347 209.288 792.551 208.15C793.753 207.016 795.152 206.445 796.743 206.445C798.223 206.445 799.493 206.96 800.548 207.987C801.604 209.013 802.131 210.388 802.131 212.11C802.131 213.832 801.605 215.298 800.548 216.509C799.493 217.72 798.151 218.324 796.522 218.324C794.893 218.323 793.523 217.726 792.411 216.536Z" fill="black"/>
</g>
<path d="M799.085 202.497L790.09 201.781V190.894C790.348 191.042 790.923 191.196 791.812 191.362C792.701 191.528 793.477 191.61 794.144 191.61C795.662 191.61 796.966 191.216 798.06 190.427C799.151 189.639 799.698 188.603 799.698 187.321C799.698 186.11 799.298 185.093 798.502 184.269C797.707 183.444 796.568 183.032 795.088 183.032C793.644 183.032 792.532 183.465 791.755 184.323C790.977 185.187 790.46 186.241 790.2 187.487L783.369 184.737C783.553 182.647 784.278 180.732 785.536 178.991C786.794 177.251 788.424 175.865 790.422 174.839C792.421 173.814 794.568 173.299 796.864 173.299C799.492 173.299 801.844 173.977 803.917 175.333C805.992 176.692 807.601 178.469 808.751 180.668C809.897 182.867 810.471 185.176 810.471 187.596C810.471 190.234 809.804 192.472 808.473 194.304C807.14 196.136 805.564 197.485 803.753 198.345C801.938 199.207 800.345 199.62 798.976 199.582L799.085 202.497ZM790.422 214.566C789.312 213.375 788.756 211.972 788.756 210.36C788.756 208.711 789.357 207.317 790.562 206.18C791.764 205.046 793.163 204.474 794.754 204.474C796.235 204.474 797.504 204.989 798.559 206.016C799.614 207.042 800.141 208.417 800.141 210.139C800.141 211.862 799.615 213.328 798.559 214.538C797.504 215.749 796.162 216.353 794.533 216.353C792.903 216.353 791.534 215.756 790.422 214.566Z" fill="white"/>
<path d="M867.169 314.377C888.233 314.377 905.309 297.471 905.309 276.615C905.309 255.76 888.233 238.853 867.169 238.853C846.105 238.853 829.029 255.76 829.029 276.615C829.029 297.471 846.105 314.377 867.169 314.377Z" fill="#FF5640"/>
<g opacity="0.25">
<path d="M865.069 289.377C862.369 289.377 860.18 291.544 860.18 294.217C860.18 296.891 862.369 299.058 865.069 299.058C867.769 299.058 869.958 296.891 869.958 294.217C869.958 291.544 867.769 289.377 865.069 289.377Z" fill="black"/>
<path d="M879.336 289.377C876.636 289.377 874.447 291.544 874.447 294.217C874.447 296.891 876.636 299.058 879.336 299.058C882.036 299.058 884.225 296.891 884.225 294.217C884.225 291.544 882.035 289.377 879.336 289.377Z" fill="black"/>
<path d="M887.666 284.438H862.175L861.677 281.573H882.628C883.245 281.575 883.799 281.202 884.025 280.635L889.013 268.188C889.316 267.427 888.939 266.567 888.169 266.267C887.993 266.199 887.806 266.163 887.616 266.163H859.082L857.884 259.347C857.762 258.626 857.126 258.102 856.388 258.112H850.651C849.824 258.112 849.154 258.776 849.154 259.595C849.154 260.413 849.824 261.077 850.651 261.077H855.14L859.43 286.168C859.553 286.888 860.189 287.412 860.927 287.402H887.665C888.492 287.402 889.162 286.739 889.162 285.92C889.163 285.102 888.493 284.438 887.666 284.438Z" fill="black"/>
</g>
<path d="M863.078 287.407C860.378 287.407 858.189 289.574 858.189 292.248C858.189 294.921 860.378 297.088 863.078 297.088C865.779 297.088 867.967 294.921 867.967 292.248C867.967 289.574 865.779 287.407 863.078 287.407Z" fill="white"/>
<path d="M877.346 287.407C874.645 287.407 872.457 289.574 872.457 292.248C872.457 294.921 874.645 297.088 877.346 297.088C880.046 297.088 882.235 294.921 882.235 292.248C882.235 289.574 880.046 287.407 877.346 287.407Z" fill="white"/>
<path d="M885.676 282.468H860.185L859.686 279.604H880.638C881.254 279.606 881.809 279.232 882.034 278.665L887.023 266.218C887.325 265.457 886.949 264.597 886.179 264.297C886.003 264.229 885.815 264.193 885.625 264.193H857.091L855.893 257.377C855.77 256.656 855.135 256.132 854.396 256.142H848.66C847.833 256.142 847.163 256.806 847.163 257.625C847.163 258.443 847.833 259.107 848.66 259.107H853.149L857.439 284.198C857.562 284.919 858.198 285.442 858.936 285.432H885.674C886.501 285.432 887.171 284.769 887.171 283.95C887.171 283.132 886.503 282.468 885.676 282.468Z" fill="white"/>
</svg>
