<svg xmlns="http://www.w3.org/2000/svg" width="275" height="274" viewBox="0 0 275 274" fill="none">
  <g filter="url(#filter0_di_23_298)">
    <rect width="250" height="250" rx="50" fill="#275EF1"/>
  </g>
  <path d="M61.3242 71.2861V77.3176H52.4942V105.335H46.5465V77.3176H37.7622V71.2861H61.3242Z" fill="white"/>
  <path d="M85.2211 84.9056V71.2861H91.1688V105.335H85.2211V90.8884H70.4434V105.335H64.4499V71.2861H70.4434V84.9056H85.2211Z" fill="white"/>
  <path d="M103.685 91.0343V99.3033H117.09V105.335H97.6912V71.2861H116.861V77.3176H103.685V85.0515H115.717V91.0343H103.685Z" fill="white"/>
  <path d="M162.937 95.3147L168.93 71.2861H175.106L166.276 105.335H159.826L153.237 82.0844L146.649 105.335H140.198L131.368 71.2861H137.545L143.538 95.3147L150.126 71.2861H156.348L162.937 95.3147Z" fill="white"/>
  <path d="M201.853 105.335H195.493L193.114 98.4764H180.441L178.062 105.335H171.657L183.552 71.2861H189.957L201.853 105.335ZM186.801 80.382L182.546 92.4449H191.01L186.801 80.382Z" fill="white"/>
  <path d="M212.249 85.8297L219.981 71.2861H226.753L215.223 93.1745V105.335H209.23V93.0772L197.701 71.2861H204.472L212.249 85.8297Z" fill="white"/>
  <path d="M43.6767 127.223V133.255H30.5003V141.426H43.1734V147.458H30.5003V161.272H24.5068V127.223H43.6767Z" fill="white"/>
  <path d="M63.2826 161.904C60.2935 161.904 57.5331 161.126 55.0016 159.569C52.47 157.98 50.4569 155.84 48.9624 153.149C47.4983 150.457 46.7663 147.523 46.7663 144.345C46.7663 141.167 47.4983 138.232 48.9624 135.541C50.4569 132.849 52.47 130.725 55.0016 129.169C57.5331 127.58 60.2935 126.785 63.2826 126.785C66.2717 126.785 69.032 127.58 71.5636 129.169C74.0952 130.725 76.093 132.849 77.557 135.541C79.0516 138.232 79.7988 141.167 79.7988 144.345C79.7988 147.523 79.0516 150.457 77.557 153.149C76.093 155.84 74.0952 157.98 71.5636 159.569C69.032 161.126 66.2717 161.904 63.2826 161.904ZM63.2826 155.532C65.1736 155.532 66.9274 155.029 68.544 154.024C70.1605 153.019 71.4416 151.657 72.3871 149.938C73.3326 148.22 73.8054 146.355 73.8054 144.345C73.8054 142.334 73.3326 140.47 72.3871 138.751C71.4416 137.032 70.1605 135.67 68.544 134.665C66.9274 133.66 65.1736 133.157 63.2826 133.157C61.3915 133.157 59.6225 133.66 57.9754 134.665C56.3589 135.67 55.0778 137.032 54.1323 138.751C53.1868 140.47 52.714 142.334 52.714 144.345C52.714 146.355 53.1868 148.22 54.1323 149.938C55.0778 151.657 56.3589 153.019 57.9754 154.024C59.6225 155.029 61.3915 155.532 63.2826 155.532Z" fill="white"/>
  <path d="M102.05 161.272L95.7818 149.501H89.8341V161.272H83.8407V127.223H96.8341C98.7251 127.223 100.479 127.726 102.095 128.731C103.712 129.704 104.978 131.05 105.893 132.768C106.838 134.487 107.311 136.351 107.311 138.362C107.311 140.437 106.823 142.334 105.847 144.053C104.871 145.771 103.56 147.117 101.912 148.09L108.867 161.272H102.05ZM89.8341 133.255V143.421H96.8341C98.1456 143.421 99.2741 142.934 100.22 141.961C101.165 140.956 101.638 139.756 101.638 138.362C101.638 136.935 101.165 135.735 100.22 134.762C99.3046 133.757 98.1761 133.255 96.8341 133.255H89.8341Z" fill="white"/>
  <path d="M142.161 151.252L148.154 127.223H154.331L145.501 161.272H139.05L132.462 138.021L125.873 161.272H119.422L110.592 127.223H116.769L122.762 151.252L129.35 127.223H135.573L142.161 151.252Z" fill="white"/>
  <path d="M181.077 161.272H174.718L172.339 154.413H159.665L157.286 161.272H150.881L162.776 127.223H169.182L181.077 161.272ZM166.025 136.319L161.77 148.382H170.234L166.025 136.319Z" fill="white"/>
  <path d="M201.773 161.272L195.506 149.501H189.558V161.272H183.564V127.223H196.558C198.449 127.223 200.203 127.726 201.819 128.731C203.436 129.704 204.702 131.05 205.617 132.768C206.562 134.487 207.035 136.351 207.035 138.362C207.035 140.437 206.547 142.334 205.571 144.053C204.595 145.771 203.283 147.117 201.636 148.09L208.59 161.272H201.773ZM189.558 133.255V143.421H196.558C197.869 143.421 198.998 142.934 199.943 141.961C200.889 140.956 201.362 139.756 201.362 138.362C201.362 136.935 200.889 135.735 199.943 134.762C199.028 133.757 197.9 133.255 196.558 133.255H189.558Z" fill="white"/>
  <path d="M224.52 127.223C227.51 127.223 230.255 127.985 232.756 129.509C235.287 131.001 237.285 133.06 238.749 135.687C240.213 138.281 240.945 141.167 240.945 144.345C240.945 147.523 240.213 150.409 238.749 153.003C237.285 155.565 235.287 157.591 232.756 159.083C230.255 160.542 227.51 161.272 224.52 161.272H211.802V127.223H224.52ZM224.52 155.24C226.442 155.24 228.196 154.77 229.782 153.83C231.368 152.857 232.618 151.527 233.534 149.841C234.479 148.155 234.952 146.307 234.952 144.296C234.952 142.286 234.479 140.437 233.534 138.751C232.618 137.032 231.368 135.687 229.782 134.714C228.196 133.741 226.442 133.255 224.52 133.255H217.795V155.24H224.52Z" fill="white"/>
  <defs>
    <filter id="filter0_di_23_298" x="0" y="0" width="275" height="274" filterUnits="userSpaceOnUse" color-interpolation-filters="sRGB">
      <feFlood flood-opacity="0" result="BackgroundImageFix"/>
      <feColorMatrix in="SourceAlpha" type="matrix" values="0 0 0 0 0 0 0 0 0 0 0 0 0 0 0 0 0 0 127 0" result="hardAlpha"/>
      <feOffset dx="15" dy="14"/>
      <feGaussianBlur stdDeviation="5"/>
      <feComposite in2="hardAlpha" operator="out"/>
      <feColorMatrix type="matrix" values="0 0 0 0 0 0 0 0 0 0 0 0 0 0 0 0 0 0 0.25 0"/>
      <feBlend mode="normal" in2="BackgroundImageFix" result="effect1_dropShadow_23_298"/>
      <feBlend mode="normal" in="SourceGraphic" in2="effect1_dropShadow_23_298" result="shape"/>
      <feColorMatrix in="SourceAlpha" type="matrix" values="0 0 0 0 0 0 0 0 0 0 0 0 0 0 0 0 0 0 127 0" result="hardAlpha"/>
      <feOffset dx="22" dy="4"/>
      <feGaussianBlur stdDeviation="6.5"/>
      <feComposite in2="hardAlpha" operator="arithmetic" k2="-1" k3="1"/>
      <feColorMatrix type="matrix" values="0 0 0 0 0 0 0 0 0 0 0 0 0 0 0 0 0 0 0.25 0"/>
      <feBlend mode="normal" in2="shape" result="effect2_innerShadow_23_298"/>
    </filter>
  </defs>
</svg>