<svg width="682" height="641" viewBox="0 0 682 641" fill="none" xmlns="http://www.w3.org/2000/svg">
<g filter="url(#filter0_di_13_489)">
<rect x="0.4375" width="655.718" height="616.766" rx="50" fill="#275EF2"/>
</g>
<path d="M161.284 175.866V190.746H138.124V259.866H122.524V190.746H99.4835V175.866H161.284ZM223.962 209.466V175.866H239.562V259.866H223.962V224.226H185.202V259.866H169.482V175.866H185.202V209.466H223.962ZM272.389 224.586V244.986H307.549V259.866H256.669V175.866H306.949V190.746H272.389V209.826H303.949V224.586H272.389ZM427.8 235.146L443.52 175.866H459.72L436.56 259.866H419.64L402.36 202.506L385.08 259.866H368.16L345 175.866H361.2L376.92 235.146L394.2 175.866H410.52L427.8 235.146ZM529.872 259.866H513.192L506.952 242.946H473.712L467.472 259.866H450.672L481.872 175.866H498.672L529.872 259.866ZM490.392 198.306L479.232 228.066H501.432L490.392 198.306ZM557.141 211.746L577.421 175.866H595.181L564.941 229.866V259.866H549.221V229.626L518.981 175.866H536.741L557.141 211.746ZM114.996 313.866V328.746H80.4363V348.906H113.676V363.786H80.4363V397.866H64.7163V313.866H114.996ZM166.42 399.426C158.58 399.426 151.34 397.506 144.7 393.666C138.06 389.746 132.78 384.466 128.86 377.826C125.02 371.186 123.1 363.946 123.1 356.106C123.1 348.266 125.02 341.026 128.86 334.386C132.78 327.746 138.06 322.506 144.7 318.666C151.34 314.746 158.58 312.786 166.42 312.786C174.26 312.786 181.5 314.746 188.14 318.666C194.78 322.506 200.02 327.746 203.86 334.386C207.78 341.026 209.74 348.266 209.74 356.106C209.74 363.946 207.78 371.186 203.86 377.826C200.02 384.466 194.78 389.746 188.14 393.666C181.5 397.506 174.26 399.426 166.42 399.426ZM166.42 383.706C171.38 383.706 175.98 382.466 180.22 379.986C184.46 377.506 187.82 374.146 190.3 369.906C192.78 365.666 194.02 361.066 194.02 356.106C194.02 351.146 192.78 346.546 190.3 342.306C187.82 338.066 184.46 334.706 180.22 332.226C175.98 329.746 171.38 328.506 166.42 328.506C161.46 328.506 156.82 329.746 152.5 332.226C148.26 334.706 144.9 338.066 142.42 342.306C139.94 346.546 138.7 351.146 138.7 356.106C138.7 361.066 139.94 365.666 142.42 369.906C144.9 374.146 148.26 377.506 152.5 379.986C156.82 382.466 161.46 383.706 166.42 383.706ZM268.101 397.866L251.661 368.826H236.061V397.866H220.341V313.866H254.421C259.381 313.866 263.981 315.106 268.221 317.586C272.461 319.986 275.781 323.306 278.181 327.546C280.661 331.786 281.901 336.386 281.901 341.346C281.901 346.466 280.621 351.146 278.061 355.386C275.501 359.626 272.061 362.946 267.741 365.346L285.981 397.866H268.101ZM236.061 328.746V353.826H254.421C257.861 353.826 260.821 352.626 263.301 350.226C265.781 347.746 267.021 344.786 267.021 341.346C267.021 337.826 265.781 334.866 263.301 332.466C260.901 329.986 257.941 328.746 254.421 328.746H236.061ZM373.308 373.146L389.028 313.866H405.228L382.068 397.866H365.148L347.868 340.506L330.588 397.866H313.668L290.508 313.866H306.708L322.428 373.146L339.708 313.866H356.028L373.308 373.146ZM475.38 397.866H458.7L452.46 380.946H419.22L412.98 397.866H396.18L427.38 313.866H444.18L475.38 397.866ZM435.9 336.306L424.74 366.066H446.94L435.9 336.306ZM529.664 397.866L513.224 368.826H497.624V397.866H481.904V313.866H515.984C520.944 313.866 525.544 315.106 529.784 317.586C534.024 319.986 537.344 323.306 539.744 327.546C542.224 331.786 543.464 336.386 543.464 341.346C543.464 346.466 542.184 351.146 539.624 355.386C537.064 359.626 533.624 362.946 529.304 365.346L547.544 397.866H529.664ZM497.624 328.746V353.826H515.984C519.424 353.826 522.384 352.626 524.864 350.226C527.344 347.746 528.584 344.786 528.584 341.346C528.584 337.826 527.344 334.866 524.864 332.466C522.464 329.986 519.504 328.746 515.984 328.746H497.624ZM589.326 313.866C597.166 313.866 604.366 315.746 610.926 319.506C617.566 323.186 622.806 328.266 626.646 334.746C630.486 341.146 632.406 348.266 632.406 356.106C632.406 363.946 630.486 371.066 626.646 377.466C622.806 383.786 617.566 388.786 610.926 392.466C604.366 396.066 597.166 397.866 589.326 397.866H555.966V313.866H589.326ZM589.326 382.986C594.366 382.986 598.966 381.826 603.126 379.506C607.286 377.106 610.566 373.826 612.966 369.666C615.446 365.506 616.686 360.946 616.686 355.986C616.686 351.026 615.446 346.466 612.966 342.306C610.566 338.066 607.286 334.746 603.126 332.346C598.966 329.946 594.366 328.746 589.326 328.746H571.686V382.986H589.326Z" fill="white"/>
<defs>
<filter id="filter0_di_13_489" x="0.4375" y="0" width="680.718" height="640.766" filterUnits="userSpaceOnUse" color-interpolation-filters="sRGB">
<feFlood flood-opacity="0" result="BackgroundImageFix"/>
<feColorMatrix in="SourceAlpha" type="matrix" values="0 0 0 0 0 0 0 0 0 0 0 0 0 0 0 0 0 0 127 0" result="hardAlpha"/>
<feOffset dx="15" dy="14"/>
<feGaussianBlur stdDeviation="5"/>
<feComposite in2="hardAlpha" operator="out"/>
<feColorMatrix type="matrix" values="0 0 0 0 0 0 0 0 0 0 0 0 0 0 0 0 0 0 0.25 0"/>
<feBlend mode="normal" in2="BackgroundImageFix" result="effect1_dropShadow_13_489"/>
<feBlend mode="normal" in="SourceGraphic" in2="effect1_dropShadow_13_489" result="shape"/>
<feColorMatrix in="SourceAlpha" type="matrix" values="0 0 0 0 0 0 0 0 0 0 0 0 0 0 0 0 0 0 127 0" result="hardAlpha"/>
<feOffset dx="22" dy="4"/>
<feGaussianBlur stdDeviation="6.5"/>
<feComposite in2="hardAlpha" operator="arithmetic" k2="-1" k3="1"/>
<feColorMatrix type="matrix" values="0 0 0 0 0 0 0 0 0 0 0 0 0 0 0 0 0 0 0.25 0"/>
<feBlend mode="normal" in2="shape" result="effect2_innerShadow_13_489"/>
</filter>
</defs>
</svg>
