<svg width="67" height="65" viewBox="0 0 67 65" fill="none" xmlns="http://www.w3.org/2000/svg">
<path d="M57.0589 36.6095C58.919 34.5771 58.6901 33.9785 56.8727 32.3153L46.4696 22.7943L51.6236 17.1627L62.0268 26.6837C67.183 31.4027 67.5839 35.9713 62.4687 41.5606L45.0689 60.5725C39.9536 66.1618 35.3674 66.1661 30.2112 61.4472L0.0835621 33.8743L5.23761 28.2427L35.3652 55.8156C37.1826 57.4788 37.799 57.6539 39.6591 55.6214L57.0589 36.6095Z" fill="#579DFF"/>
<path d="M43.8988 45.5731L38.7448 51.2047L8.99089 23.9739L26.6103 4.72199C31.7256 -0.867266 37.6362 -1.21567 42.6657 3.38727L44.1872 4.77975C49.3856 9.53741 50.8081 13.6688 45.3053 19.6815L40.1727 25.2896L34.8051 20.3773L39.9377 14.7691C42.1853 12.3132 41.0583 12.187 39.0719 10.369L37.5081 8.93785C35.7753 7.35196 33.8379 7.60191 31.9778 9.63437L19.5125 23.2547L43.8988 45.5731Z" fill="#579DFF"/>
<path d="M33.8608 21.5473L51.7466 37.9164L46.5926 43.548L28.7068 27.1789L33.8608 21.5473Z" fill="#579DFF"/>
<path d="M29.2246 17.3042L31.8991 19.7519L26.7451 25.3835L24.0706 22.9358L29.2246 17.3042Z" fill="#579DFF"/>
</svg>
