<svg width="1119" height="1129" viewBox="0 0 1119 1129" fill="none" xmlns="http://www.w3.org/2000/svg">
<path d="M559.5 1128.64C868.503 1128.64 1119 984.219 1119 806.072C1119 627.925 868.503 483.508 559.5 483.508C250.497 483.508 0 627.925 0 806.072C0 984.219 250.497 1128.64 559.5 1128.64Z" fill="#F5F5F5"/>
<path d="M647.299 1031.94C714.121 1031.94 768.291 1000.71 768.291 962.188C768.291 923.664 714.121 892.433 647.299 892.433C580.476 892.433 526.306 923.664 526.306 962.188C526.306 1000.71 580.476 1031.94 647.299 1031.94Z" fill="#E0E0E0"/>
<path d="M584.423 726.012L260.789 912.625C251.684 917.874 235.78 917.216 225.266 911.154L110.367 844.912C99.8529 838.85 98.7115 829.681 107.816 824.432L431.45 637.818C440.555 632.569 456.459 633.227 466.973 639.29L581.873 705.532C592.386 711.591 593.53 720.763 584.423 726.012Z" fill="#E0E0E0"/>
<path d="M932.903 791.173L958.397 805.96C958.397 805.96 945.533 764.956 952.674 723.709C955.369 708.14 961.041 700.406 963.043 696.251C965.044 692.096 980.415 666.368 966.885 654.508C953.354 642.648 921.607 666.24 923.03 729.769C923.758 762.369 932.903 791.173 932.903 791.173Z" fill="#68C8C8"/>
<path opacity="0.5" d="M932.903 791.173L958.397 805.96C958.397 805.96 945.533 764.956 952.674 723.709C955.369 708.14 961.041 700.406 963.043 696.251C965.044 692.096 980.415 666.368 966.885 654.508C953.354 642.648 921.607 666.24 923.03 729.769C923.758 762.369 932.903 791.173 932.903 791.173Z" fill="black"/>
<path d="M944.754 799.202C944.282 799.202 943.84 798.913 943.668 798.445C943.572 798.18 933.932 771.45 934.441 728.581C934.95 685.452 957.646 662.454 957.877 662.227C958.327 661.78 959.061 661.777 959.509 662.232C959.959 662.684 959.959 663.415 959.506 663.864C959.284 664.083 937.249 686.474 936.753 728.605C936.249 771.016 945.742 797.385 945.841 797.648C946.061 798.247 945.753 798.91 945.153 799.13C945.022 799.181 944.888 799.202 944.754 799.202Z" fill="white"/>
<path d="M952.674 802.726L994.787 827.458C994.787 827.458 1014.07 824.622 1012.61 806.496C1011.15 788.369 1003.32 784.099 1013.07 776.134C1022.83 768.17 1025.35 767.643 1024.88 759.836C1024.41 752.029 1019.15 748.625 1016.68 745.533C1014.2 742.44 1007.31 735.949 1012.16 726.534C1017.02 717.119 1023.59 708.025 1013.82 703.71C1008 701.133 998.193 704.36 991.696 711.249C985.198 718.139 979.837 723.088 973.682 724.688C967.525 726.288 954.691 726.414 955.123 737.006C955.554 747.598 958.309 751.255 955.736 755.956C950.89 764.815 930.189 769.588 952.674 802.726Z" fill="#68C8C8"/>
<path opacity="0.2" d="M952.674 802.726L994.787 827.458C994.787 827.458 1014.07 824.622 1012.61 806.496C1011.15 788.369 1003.32 784.099 1013.07 776.134C1022.83 768.17 1025.35 767.643 1024.88 759.836C1024.41 752.029 1019.15 748.625 1016.68 745.533C1014.2 742.44 1007.31 735.949 1012.16 726.534C1017.02 717.119 1023.59 708.025 1013.82 703.71C1008 701.133 998.193 704.36 991.696 711.249C985.198 718.139 979.837 723.088 973.682 724.688C967.525 726.288 954.691 726.414 955.123 737.006C955.554 747.598 958.309 751.255 955.736 755.956C950.89 764.815 930.189 769.588 952.674 802.726Z" fill="black"/>
<path d="M969.824 813.952C969.229 813.952 968.723 813.495 968.672 812.893C968.621 812.264 964.04 749.559 1007.67 708.381C1008.13 707.942 1008.86 707.964 1009.3 708.427C1009.74 708.89 1009.72 709.62 1009.26 710.059C966.448 750.461 970.925 812.085 970.979 812.703C971.027 813.339 970.556 813.896 969.918 813.947C969.889 813.949 969.856 813.952 969.824 813.952Z" fill="white"/>
<path d="M977.377 760.215C976.775 760.215 976.268 759.752 976.223 759.145C975.001 742.696 963.539 734.231 963.421 734.148C962.906 733.774 962.789 733.054 963.161 732.535C963.531 732.021 964.251 731.898 964.774 732.273C965.28 732.639 977.225 741.412 978.532 758.974C978.58 759.608 978.101 760.162 977.466 760.21C977.434 760.213 977.404 760.215 977.377 760.215Z" fill="white"/>
<path d="M974.267 770.915C973.988 770.915 973.715 770.816 973.492 770.618C973.018 770.192 972.981 769.465 973.407 768.991C973.862 768.483 984.842 756.63 1010.24 760.114C1010.87 760.202 1011.31 760.785 1011.23 761.414C1011.14 762.046 1010.56 762.482 1009.92 762.401C985.831 759.1 975.231 770.425 975.127 770.535C974.896 770.786 974.583 770.915 974.267 770.915Z" fill="white"/>
<path d="M160.614 755.156L148.024 781.774C148.024 781.774 135.319 740.722 106.002 710.802C94.9363 699.509 85.8722 696.352 81.8612 694.067C77.8503 691.78 50.5776 679.302 54.9797 661.871C59.3818 644.438 98.9312 645.877 133.853 698.998C151.781 726.256 160.614 755.156 160.614 755.156Z" fill="#68C8C8"/>
<path opacity="0.5" d="M160.614 755.156L148.024 781.774C148.024 781.774 135.319 740.722 106.002 710.802C94.9363 699.509 85.8722 696.352 81.8612 694.067C77.8503 691.78 50.5776 679.302 54.9797 661.871C59.3818 644.438 98.9312 645.877 133.853 698.998C151.781 726.256 160.614 755.156 160.614 755.156Z" fill="black"/>
<path d="M154.76 768.686C154.246 768.686 153.774 768.341 153.64 767.819C153.57 767.549 146.406 740.455 121.893 705.818C97.5432 671.406 66.6802 665.454 66.3694 665.397C65.7424 665.282 65.3245 664.683 65.437 664.054C65.5522 663.428 66.1443 663.013 66.782 663.123C67.0982 663.179 98.8561 669.258 123.779 704.483C148.555 739.497 155.805 766.968 155.875 767.244C156.035 767.862 155.66 768.491 155.041 768.649C154.953 768.675 154.856 768.686 154.76 768.686Z" fill="white"/>
<path d="M150.899 775.869L130.274 820.097C130.274 820.097 112.783 828.688 103.684 812.935C94.5879 797.182 98.6122 789.228 86.0543 788.195C73.4963 787.165 71.1224 788.155 67.0713 781.464C63.0202 774.773 65.4155 768.988 65.6968 765.039C65.9755 761.09 67.9689 751.839 58.6234 746.835C49.278 741.832 38.6947 738.071 44.2838 728.985C47.6195 723.562 57.5249 720.664 66.79 722.655C76.0551 724.645 83.2812 725.686 89.2587 723.513C95.2363 721.341 105.879 714.176 111.54 723.142C117.201 732.11 117.014 736.679 121.804 739.095C130.828 743.644 150.586 735.842 150.899 775.869Z" fill="#68C8C8"/>
<path opacity="0.2" d="M150.899 775.869L130.274 820.097C130.274 820.097 112.783 828.688 103.684 812.935C94.5879 797.182 98.6122 789.228 86.0543 788.195C73.4963 787.165 71.1224 788.155 67.0713 781.464C63.0202 774.773 65.4155 768.988 65.6968 765.039C65.9755 761.09 67.9689 751.839 58.6234 746.835C49.278 741.832 38.6947 738.071 44.2838 728.985C47.6195 723.562 57.5249 720.664 66.79 722.655C76.0551 724.645 83.2812 725.686 89.2587 723.513C95.2363 721.341 105.879 714.176 111.54 723.142C117.201 732.11 117.014 736.679 121.804 739.095C130.828 743.644 150.586 735.842 150.899 775.869Z" fill="black"/>
<path d="M142.499 795.036C142.1 795.036 141.712 794.828 141.497 794.458C141.189 793.921 109.857 740.639 51.6519 731.623C51.0222 731.526 50.5909 730.935 50.6873 730.306C50.7838 729.672 51.3759 729.233 52.0082 729.343C111.334 738.531 143.188 792.762 143.501 793.308C143.82 793.862 143.63 794.568 143.075 794.884C142.896 794.985 142.698 795.036 142.499 795.036Z" fill="white"/>
<path d="M105.747 755.065C105.353 755.065 104.965 754.859 104.751 754.493C95.8445 739.294 100.691 725.301 100.903 724.712C101.115 724.113 101.771 723.797 102.379 724.014C102.982 724.228 103.296 724.889 103.081 725.488C103.033 725.622 98.4032 739.087 106.744 753.326C107.068 753.877 106.883 754.584 106.331 754.905C106.149 755.014 105.948 755.065 105.747 755.065Z" fill="white"/>
<path d="M80.066 775.399C79.7525 775.399 79.4417 775.273 79.214 775.021C78.7826 774.55 78.8175 773.82 79.2863 773.389C98.2103 756.138 114 759.68 114.659 759.835C115.278 759.983 115.661 760.606 115.511 761.224C115.366 761.842 114.758 762.233 114.12 762.08C113.965 762.045 98.8025 758.722 80.843 775.094C80.6233 775.3 80.342 775.399 80.066 775.399Z" fill="white"/>
<path d="M151.194 216.217C151.194 200.357 159.669 185.698 173.424 177.768L456.143 14.7766C464.494 9.96073 474.625 14.4796 477.291 22.9635C475.758 16.3578 471.632 10.544 465.66 6.99098L464.652 6.39167C457.617 2.20725 449.581 0 441.393 0V0.00535818C438.907 -0.0294228 436.348 0.580573 433.937 1.97181L151.218 164.961C137.462 172.891 128.988 187.547 128.988 203.41V813.933C128.988 825.124 141.12 832.118 150.827 826.524L151.194 826.312V216.217Z" fill="#37474F"/>
<path d="M455.749 676.337L173.031 839.328C163.323 844.923 151.191 837.929 151.191 826.738V216.217C151.191 200.357 159.666 185.698 173.422 177.768L456.14 14.7766C465.845 9.18218 477.977 16.1758 477.977 27.3673V637.891C477.979 653.751 469.505 668.407 455.749 676.337Z" fill="#455A64"/>
<path d="M151.194 826.74V216.217C151.194 209.448 152.751 202.901 155.588 197.002L133.727 183.483C130.665 189.567 128.988 196.368 128.988 203.41V812.662V813.933V819.032C128.988 823.961 131.587 828.525 135.828 831.048L147.1 837.75C151.004 840.072 155.465 841.298 160.012 841.298H165.577V841.292C158.048 841.191 151.194 835.152 151.194 826.74Z" fill="#263238"/>
<path d="M446.018 73.4575V586.608C446.018 600.614 438.534 613.557 426.386 620.559L176.73 764.491C174.729 765.644 172.61 766.171 170.539 766.206C173.432 772.897 181.813 776.225 188.779 772.209L438.435 628.278C450.583 621.273 458.067 608.332 458.067 594.326V86.2622C458.069 79.0786 452.403 73.8802 446.018 73.4575Z" fill="#37474F"/>
<path d="M170.541 766.208C172.612 766.174 174.732 765.646 176.733 764.493L426.389 620.562C438.537 613.557 446.02 600.616 446.02 586.61V73.4575C447.194 73.5351 442.272 73.1338 438.786 75.1457L189.13 219.077C176.982 226.082 169.499 239.023 169.499 253.029V761.096C169.499 762.974 169.89 764.715 170.576 766.275C170.565 766.254 170.552 766.232 170.541 766.208Z" fill="#68C8C8"/>
<g opacity="0.5">
<path d="M170.541 766.208C172.612 766.174 174.732 765.646 176.733 764.493L426.389 620.562C438.537 613.557 446.02 600.616 446.02 586.61V73.4575C447.194 73.5351 442.272 73.1338 438.786 75.1457L189.13 219.077C176.982 226.082 169.499 239.023 169.499 253.029V761.096C169.499 762.974 169.89 764.715 170.576 766.275C170.565 766.254 170.552 766.232 170.541 766.208Z" fill="white"/>
</g>
<path d="M275.021 143.868C275.021 146.73 273.009 150.211 270.525 151.643C268.042 153.074 266.03 151.913 266.03 149.05C266.03 146.187 268.042 142.707 270.525 141.275C273.006 139.844 275.021 141.005 275.021 143.868Z" fill="#263238"/>
<path d="M291.746 134.225C291.746 137.088 289.734 140.569 287.25 142C284.766 143.431 282.754 142.27 282.754 139.408C282.754 136.545 284.766 133.064 287.25 131.633C289.731 130.201 291.746 131.362 291.746 134.225Z" fill="#263238"/>
<path d="M359.251 100.49L304.874 131.841C302.723 133.08 300.981 131.764 300.981 128.901C300.981 126.038 302.725 122.713 304.874 121.474L359.251 90.1255C361.402 88.8868 363.144 90.2005 363.144 93.0632C363.144 95.9259 361.4 99.2515 359.251 100.49Z" fill="#263238"/>
<path d="M350.05 695.597C353.297 695.597 355.398 699.038 355.398 704.359C355.398 712.726 350.157 722.812 343.955 726.389L317.947 741.385C316.559 742.185 315.254 742.592 314.072 742.592C310.825 742.592 308.724 739.154 308.724 733.83C308.724 725.463 313.965 715.377 320.168 711.8L346.176 696.807C347.566 696.004 348.869 695.597 350.05 695.597ZM350.05 693.379C348.523 693.379 346.838 693.864 345.067 694.883L319.058 709.876C312.124 713.873 306.506 724.597 306.506 733.827C306.506 740.7 309.622 744.807 314.075 744.807C315.602 744.807 317.287 744.323 319.058 743.303L345.067 728.31C352.001 724.313 357.619 713.59 357.619 704.359C357.619 697.486 354.503 693.379 350.05 693.379Z" fill="#263238"/>
<path d="M206.326 288.995V864.183C206.326 874.602 210.16 881.601 216.02 883.899L216.183 883.952L216.21 883.979L241.104 897.597L240.967 875.477L238.202 279.039L211.913 265.614C208.435 273.054 206.326 281.311 206.326 288.995Z" fill="#E6E6E6"/>
<path d="M242.457 899.866L215.514 885.124C208.837 882.371 204.987 874.593 204.987 864.183V288.995C204.987 281.431 207.015 272.929 210.699 265.049L211.288 263.792L239.539 278.221L239.542 279.034L242.307 875.471L242.457 899.866ZM216.856 882.81L239.751 895.336L239.627 875.487L236.865 279.863L212.556 267.447C209.397 274.614 207.669 282.218 207.669 288.997V864.186C207.669 873.579 210.975 880.485 216.513 882.657L216.856 882.818V882.81Z" fill="#E6E6E6"/>
<path d="M211.913 265.614L238.202 279.04L519.549 115.599L538.334 104.688L512.374 90.0854L511.634 89.6493V89.6226C507.5 87.1344 502.077 87.2976 496.108 90.7436L229.794 244.285C222.619 248.416 216.213 256.373 211.913 265.614Z" fill="#E0E0E0"/>
<path d="M238.202 280.38C237.993 280.38 237.784 280.332 237.594 280.233L211.304 266.807C210.664 266.478 210.396 265.705 210.699 265.052C215.267 255.231 221.984 247.239 229.125 243.127L495.44 89.585C501.603 86.0293 507.602 85.6306 512.328 88.4773C512.398 88.5201 512.465 88.5683 512.524 88.6218L513.057 88.9402L538.993 103.527C539.411 103.762 539.673 104.204 539.676 104.683C539.679 105.161 539.424 105.608 539.009 105.849L238.875 280.201C238.668 280.318 238.435 280.38 238.202 280.38ZM213.686 265.017L238.162 277.52L535.638 104.709L510.954 90.7996C510.881 90.7568 510.814 90.7086 510.753 90.6551C506.927 88.4639 501.978 88.9054 496.78 91.9019L230.464 245.444C224.069 249.125 218 256.218 213.686 265.017Z" fill="#E0E0E0"/>
<path d="M232.123 303.461V876.052C232.123 885.076 234.998 891.556 239.598 894.593L241.104 895.414C245.101 897.3 250.114 896.891 255.564 893.747L384.297 819.533L521.877 736.842C534.829 729.378 545.345 712.694 545.345 695.466V122.902C545.345 114.18 542.661 107.864 538.334 104.691C537.594 104.145 536.801 103.679 535.952 103.35C532.035 101.681 527.161 102.176 521.877 105.21L255.564 261.341C248.662 265.306 242.473 270.264 238.202 279.042C234.424 286.726 232.123 295.395 232.123 303.461Z" fill="#FAFAFA"/>
<path d="M521.877 736.84C467.077 769.483 324.516 854.445 253.946 896.888C244.705 902.445 232.945 895.794 232.945 885.023V296.243C232.945 282.611 240.182 270.002 251.958 263.11L523.158 104.396C532.399 98.9894 544.033 105.643 544.033 116.34V697.874C544.033 713.855 535.622 728.653 521.877 736.84Z" fill="#FAFAFA"/>
<path d="M521.202 735.684C478.18 761.312 435.169 786.954 392.169 812.619C366.713 827.813 341.259 843.018 315.819 858.236C304.194 865.189 292.573 872.148 280.956 879.112C275.873 882.16 270.793 885.207 265.713 888.257C261.025 891.072 256.028 895.08 250.848 896.877C242.251 899.861 234.51 892.993 234.282 884.517C234.245 883.15 234.282 881.777 234.282 880.41C234.282 873.788 234.282 867.164 234.282 860.542C234.282 834.759 234.282 808.975 234.282 783.189C234.282 746.271 234.282 709.355 234.282 672.436C234.282 630.956 234.282 589.475 234.282 547.995C234.282 508.933 234.282 469.869 234.282 430.807C234.282 400.735 234.282 370.666 234.282 340.594C234.282 326.216 234.25 311.838 234.282 297.46C234.314 283.315 241.16 271.043 253.402 263.816C259.618 260.148 265.861 256.525 272.093 252.879C301.297 235.788 330.502 218.697 359.709 201.604C394.315 181.353 428.918 161.1 463.524 140.849C483.215 129.326 502.857 117.715 522.598 106.277C528.712 102.735 536.41 103.083 540.659 109.474C542.385 112.07 542.682 114.954 542.693 117.926C542.709 123.058 542.693 128.186 542.693 133.318C542.693 157.012 542.693 180.708 542.693 204.402C542.693 240.28 542.693 276.158 542.693 312.036C542.693 353.222 542.693 394.408 542.693 435.594C542.693 475.33 542.693 515.063 542.693 554.799C542.693 585.938 542.693 617.081 542.693 648.22C542.693 664.024 542.693 679.828 542.693 695.632C542.693 712.07 535.496 726.914 521.202 735.684C519.737 736.583 521.079 738.9 522.555 737.993C537.463 728.845 545.372 713.255 545.372 695.996C545.372 690.519 545.372 685.043 545.372 679.566C545.372 655.032 545.372 630.498 545.372 605.964C545.372 569.228 545.372 532.491 545.372 495.754C545.372 453.691 545.372 411.627 545.372 369.564C545.372 329.873 545.372 290.183 545.372 250.492C545.372 219.987 545.372 189.481 545.372 158.976C545.372 144.994 545.522 131.006 545.372 117.024C545.236 104.303 532.402 97.5338 521.585 103.765C515.056 107.524 508.58 111.377 502.077 115.181C472.069 132.743 442.058 150.304 412.049 167.866C377.133 188.301 342.213 208.736 307.296 229.169C288.774 240.01 270.19 250.755 251.725 261.689C238.899 269.285 231.648 282.483 231.606 297.294C231.592 302.11 231.606 306.923 231.606 311.739C231.606 335.136 231.606 358.533 231.606 381.932C231.606 417.92 231.606 453.91 231.606 489.898C231.606 531.782 231.606 573.666 231.606 615.55C231.606 655.816 231.606 696.079 231.606 736.345C231.606 768.359 231.606 800.374 231.606 832.388C231.606 848.997 231.606 865.607 231.606 882.216C231.606 883.136 231.576 884.059 231.606 884.98C231.922 895.055 241.629 902.769 251.561 899.449C256.62 897.758 261.394 893.964 265.949 891.23C271.128 888.118 276.31 885.012 281.492 881.903C293.074 874.96 304.663 868.023 316.251 861.088C366.919 830.775 417.625 800.526 468.339 770.294C486.409 759.522 504.48 748.753 522.552 737.987C524.034 737.112 522.689 734.798 521.202 735.684Z" fill="#EBEBEB"/>
<path d="M251.958 263.11L523.158 104.396C532.399 98.9894 544.03 105.643 544.03 116.34V141.885L543.95 141.89L232.945 321.189V296.24C232.945 282.611 240.182 270.002 251.958 263.11Z" fill="#EBEBEB"/>
<path d="M438.272 402.312C465.776 354.743 465.777 303.328 438.274 287.471C410.772 271.615 366.18 297.323 338.676 344.891C311.172 392.459 311.171 443.875 338.674 459.732C366.176 475.588 410.768 449.88 438.272 402.312Z" fill="#68C8C8"/>
<path opacity="0.5" d="M438.272 402.312C465.776 354.743 465.777 303.328 438.274 287.471C410.772 271.615 366.18 297.323 338.676 344.891C311.172 392.459 311.171 443.875 338.674 459.732C366.176 475.588 410.768 449.88 438.272 402.312Z" fill="white"/>
<path d="M375.854 373.903C374.108 373.903 372.693 372.49 372.693 370.746V349.95C372.693 340.76 378.936 329.961 386.907 325.365C391.301 322.831 395.596 322.518 399.001 324.482C402.406 326.446 404.282 330.317 404.282 335.382V356.178C404.282 357.923 402.867 359.335 401.12 359.335C399.373 359.335 397.959 357.923 397.959 356.178V335.382C397.959 332.706 397.187 330.727 395.839 329.948C394.492 329.172 392.389 329.493 390.068 330.831C384.077 334.285 379.016 343.039 379.016 349.947V370.743C379.016 372.49 377.601 373.903 375.854 373.903Z" fill="#37474F"/>
<path d="M414.016 342.771C412.789 342.183 411.24 342.295 409.552 343.269L367.425 367.557C365.737 368.531 364.189 370.203 362.962 372.209C361.303 374.92 360.237 378.237 360.237 381.277V417.695C360.237 420.333 361.038 422.257 362.335 423.241C362.562 423.415 362.812 423.549 363.072 423.664C364.283 424.196 365.788 424.068 367.428 423.123L409.555 398.838C413.526 396.548 416.746 390.405 416.746 385.119V348.7C416.744 345.656 415.675 343.566 414.016 342.771Z" fill="#68C8C8"/>
<path d="M393.278 380.72L397.337 392.38L383.065 400.607L386.639 386.208L387.143 384.169C384.731 384.238 383.065 382.376 383.065 379.099C383.065 377.844 383.303 376.522 383.732 375.217C384.876 371.76 387.346 368.405 390.202 366.76C394.144 364.488 397.34 366.324 397.34 370.875C397.34 374.152 395.666 377.94 393.254 380.656L393.278 380.72Z" fill="#455A64"/>
<path d="M386.636 386.208L387.14 384.169C384.729 384.238 383.062 382.376 383.062 379.099C383.062 377.844 383.3 376.522 383.729 375.217L393.276 380.723L397.335 392.383L386.636 386.208Z" fill="#37474F"/>
<path d="M492.375 508.246L284.602 628.034C276.007 632.989 269.038 627.729 269.038 616.286V584.855C269.038 573.412 276.007 560.118 284.602 555.163L492.378 435.377C500.973 430.422 507.942 435.682 507.942 447.125V478.556C507.939 489.997 500.971 503.291 492.375 508.246Z" fill="#68C8C8"/>
<path d="M321.992 552.329H317.973V585.596H321.992V552.329Z" fill="#FAFAFA"/>
<path d="M333.434 558.902L304.581 575.54L306.591 579.015L335.443 562.377L333.434 558.902Z" fill="#FAFAFA"/>
<path d="M310.766 561.364L308.757 564.84L329.159 576.602L331.169 573.127L310.766 561.364Z" fill="#FAFAFA"/>
<path d="M328.468 550.334L308.062 585.618L311.543 587.625L331.948 552.341L328.468 550.334Z" fill="#FAFAFA"/>
<path d="M390.5 515.068H386.481V548.338H390.5V515.068Z" fill="#FAFAFA"/>
<path d="M401.937 521.643L373.087 538.279L375.097 541.755L403.947 525.118L401.937 521.643Z" fill="#FAFAFA"/>
<path d="M379.278 524.109L377.268 527.584L397.668 539.345L399.678 535.87L379.278 524.109Z" fill="#FAFAFA"/>
<path d="M396.977 513.072L376.572 548.357L380.052 550.364L400.458 515.079L396.977 513.072Z" fill="#FAFAFA"/>
<path d="M459.005 477.81H454.986V511.077H459.005V477.81Z" fill="#FAFAFA"/>
<path d="M470.391 484.409L441.538 501.044L443.548 504.519L472.4 487.885L470.391 484.409Z" fill="#FAFAFA"/>
<path d="M447.787 486.849L445.778 490.324L466.178 502.085L468.187 498.61L447.787 486.849Z" fill="#FAFAFA"/>
<path d="M465.433 475.774L445.031 511.058L448.512 513.065L468.914 477.78L465.433 475.774Z" fill="#FAFAFA"/>
<path d="M498.557 551.554C501.338 551.554 502.581 555.703 502.581 559.815V591.247C502.581 600.803 496.681 612.281 489.696 616.305L281.923 736.091C280.621 736.842 279.41 737.238 278.424 737.238C275.643 737.238 274.4 733.089 274.4 728.977V697.545C274.4 687.989 280.299 676.511 287.284 672.487L495.06 552.701C496.357 551.95 497.568 551.554 498.557 551.554ZM498.554 546.203C496.66 546.203 494.57 546.802 492.375 548.067L284.602 667.853C276.007 672.808 269.038 686.102 269.038 697.545V728.977C269.038 737.498 272.899 742.589 278.421 742.589C280.316 742.589 282.405 741.99 284.6 740.725L492.375 620.939C500.971 615.984 507.939 602.69 507.939 591.247V559.815C507.939 551.294 504.076 546.203 498.554 546.203Z" fill="#68C8C8"/>
<path d="M340.591 661.235C340.062 661.54 339.606 661.668 339.223 661.62C338.842 661.567 338.548 661.358 338.341 660.99C338.136 660.619 338.034 660.109 338.034 659.461C338.034 658.812 338.136 658.182 338.341 657.569C338.548 656.952 338.836 656.398 339.205 655.908C339.576 655.414 340.01 655.024 340.505 654.738C340.791 654.573 341.073 654.466 341.351 654.415C341.63 654.364 341.883 654.397 342.112 654.512C342.34 654.625 342.523 654.845 342.658 655.17C342.794 655.496 342.862 655.954 342.862 656.545V656.958L338.634 659.395V658.554L342.005 656.611C342.005 656.253 341.943 655.97 341.819 655.761C341.698 655.551 341.524 655.43 341.298 655.398C341.074 655.365 340.81 655.436 340.505 655.612C340.169 655.806 339.879 656.069 339.633 656.403C339.391 656.733 339.204 657.088 339.073 657.468C338.942 657.849 338.876 658.214 338.876 658.563V659.123C338.876 659.602 338.948 659.966 339.091 660.216C339.236 660.462 339.437 660.597 339.694 660.622C339.951 660.645 340.25 660.557 340.591 660.361C340.812 660.234 341.012 660.082 341.191 659.908C341.371 659.73 341.527 659.53 341.658 659.309C341.789 659.085 341.891 658.842 341.962 658.581L342.776 658.376C342.69 658.744 342.546 659.107 342.344 659.466C342.142 659.821 341.892 660.152 341.594 660.459C341.296 660.762 340.962 661.021 340.591 661.235ZM344.987 654.76V658.569L344.144 659.055V652.723L344.958 652.253V653.242L345.03 653.201C345.158 652.806 345.353 652.435 345.615 652.089C345.877 651.74 346.215 651.446 346.63 651.207C347.001 650.993 347.326 650.894 347.605 650.909C347.883 650.921 348.1 651.06 348.254 651.326C348.409 651.588 348.487 651.989 348.487 652.527V656.551L347.644 657.037V653.079C347.644 652.582 347.532 652.259 347.308 652.11C347.084 651.959 346.777 651.996 346.387 652.221C346.118 652.376 345.877 652.582 345.665 652.839C345.456 653.094 345.29 653.386 345.169 653.715C345.048 654.043 344.987 654.391 344.987 654.76ZM352.412 647.956V648.78L349.57 650.419V649.594L352.412 647.956ZM350.398 647.6L351.241 647.114V653.149C351.241 653.424 351.275 653.61 351.345 653.708C351.416 653.801 351.506 653.84 351.616 653.823C351.728 653.803 351.846 653.757 351.969 653.685C352.062 653.632 352.139 653.582 352.198 653.537C352.258 653.489 352.305 653.451 352.341 653.422L352.512 654.197C352.455 654.255 352.375 654.325 352.273 654.409C352.171 654.496 352.041 654.584 351.884 654.675C351.646 654.812 351.412 654.887 351.184 654.901C350.958 654.913 350.77 654.842 350.62 654.686C350.472 654.53 350.398 654.267 350.398 653.899V647.6ZM355.921 652.397C355.393 652.701 354.937 652.829 354.553 652.781C354.172 652.729 353.878 652.519 353.671 652.152C353.466 651.781 353.364 651.271 353.364 650.622C353.364 649.974 353.466 649.343 353.671 648.73C353.878 648.113 354.166 647.56 354.535 647.07C354.907 646.575 355.34 646.185 355.835 645.9C356.121 645.735 356.403 645.627 356.682 645.577C356.96 645.526 357.214 645.558 357.442 645.674C357.671 645.787 357.853 646.006 357.989 646.332C358.125 646.657 358.192 647.116 358.192 647.707V648.119L353.964 650.557V649.716L357.335 647.772C357.335 647.415 357.273 647.132 357.15 646.923C357.028 646.712 356.854 646.591 356.628 646.56C356.404 646.527 356.14 646.598 355.835 646.774C355.5 646.967 355.209 647.231 354.964 647.565C354.721 647.894 354.534 648.249 354.403 648.63C354.272 649.01 354.207 649.375 354.207 649.724V650.285C354.207 650.763 354.278 651.127 354.421 651.377C354.566 651.623 354.768 651.759 355.025 651.784C355.282 651.806 355.581 651.719 355.921 651.523C356.143 651.395 356.343 651.244 356.521 651.069C356.702 650.891 356.858 650.691 356.989 650.47C357.12 650.246 357.221 650.004 357.292 649.743L358.107 649.537C358.021 649.905 357.877 650.269 357.675 650.627C357.472 650.983 357.222 651.314 356.925 651.62C356.627 651.924 356.293 652.182 355.921 652.397ZM359.474 650.216V643.884L360.289 643.415V644.371L360.346 644.338C360.446 643.967 360.627 643.608 360.889 643.262C361.151 642.916 361.446 642.648 361.774 642.459C361.836 642.423 361.914 642.38 362.007 642.329C362.099 642.279 362.17 642.242 362.217 642.22V643.21C362.189 643.218 362.123 643.243 362.021 643.286C361.921 643.324 361.815 643.376 361.703 643.44C361.436 643.594 361.198 643.796 360.989 644.046C360.782 644.292 360.617 644.562 360.496 644.857C360.377 645.149 360.317 645.437 360.317 645.723V649.73L359.474 650.216Z" fill="#68C8C8"/>
<path d="M804.365 194.292C804.365 198.161 807.138 202.867 810.557 204.801C813.976 206.736 816.749 205.168 816.749 201.299C816.749 197.43 813.976 192.724 810.557 190.79C807.138 188.853 804.365 190.421 804.365 194.292Z" fill="#455A64"/>
<path d="M721.376 219.214C716.631 219.214 711.39 217.67 705.981 214.607L686.336 203.493C685.693 203.129 685.465 202.313 685.829 201.668C686.194 201.023 687.016 200.801 687.654 201.165L707.299 212.279C715.771 217.074 723.643 217.844 729.462 214.457C735.156 211.142 738.293 204.154 738.293 194.779C738.293 184.412 741.902 176.599 748.456 172.787C755.135 168.899 763.953 169.67 773.285 174.948L805.032 192.909C805.675 193.273 805.903 194.089 805.536 194.733C805.169 195.376 804.346 195.598 803.711 195.239L771.964 177.279C763.492 172.487 755.623 171.714 749.804 175.101C744.107 178.416 740.97 185.404 740.97 194.782C740.97 205.149 737.361 212.959 730.807 216.771C728.005 218.401 724.819 219.214 721.376 219.214Z" fill="#455A64"/>
<path d="M678.229 197.492C678.229 200.622 680.471 204.427 683.236 205.992C686.001 207.557 688.244 206.289 688.244 203.159C688.244 200.031 686.001 196.224 683.236 194.661C680.471 193.096 678.229 194.364 678.229 197.492Z" fill="#455A64"/>
<path d="M804.365 428.145C804.365 432.014 807.138 436.72 810.557 438.655C813.976 440.589 816.749 439.021 816.749 435.152C816.749 431.284 813.976 426.578 810.557 424.643C807.138 422.706 804.365 424.277 804.365 428.145Z" fill="#455A64"/>
<path d="M804.604 431.072C804.379 431.072 804.151 431.016 803.945 430.899L772.198 412.938C753.63 402.432 738.529 376.79 738.529 355.774C738.529 335.62 724.034 311.019 706.217 300.938L686.333 289.688C685.69 289.324 685.463 288.508 685.827 287.863C686.191 287.219 687.014 286.994 687.652 287.358L707.535 298.608C726.103 309.114 741.206 334.756 741.206 355.772C741.206 375.926 755.698 400.524 773.516 410.608L805.263 428.568C805.906 428.932 806.134 429.748 805.767 430.393C805.523 430.829 805.07 431.072 804.604 431.072Z" fill="#455A64"/>
<path d="M678.229 283.2C678.229 286.327 680.471 290.135 683.236 291.7C686.001 293.265 688.244 291.997 688.244 288.866C688.244 285.736 686.001 281.932 683.236 280.367C680.471 278.801 678.229 280.07 678.229 283.2Z" fill="#455A64"/>
<path d="M995.141 169.073L863.91 94.853C860.151 92.6858 856.773 92.849 854.377 94.8342L843.039 102.663L850.771 112.209V250.329C850.771 259.99 856.652 271.214 863.91 275.398L991.883 347.74L992.485 358.027L1004.43 349.851C1006.81 348.056 1008.28 344.529 1008.28 339.7V194.139C1008.28 184.481 1002.4 173.257 995.141 169.073Z" fill="#68C8C8"/>
<path opacity="0.3" d="M995.141 169.073L863.91 94.853C860.151 92.6858 856.773 92.849 854.377 94.8342L843.039 102.663L850.771 112.209V250.329C850.771 259.99 856.652 271.214 863.91 275.398L991.883 347.74L992.485 358.027L1004.43 349.851C1006.81 348.056 1008.28 344.529 1008.28 339.7V194.139C1008.28 184.481 1002.4 173.257 995.141 169.073Z" fill="black"/>
<path d="M983.984 357.289L852.754 283.069C845.498 278.885 839.614 267.661 839.614 258V112.439C839.614 102.778 845.498 98.3367 852.754 102.521L983.984 176.741C991.239 180.925 997.123 192.149 997.123 201.81V347.371C997.123 357.032 991.239 361.473 983.984 357.289Z" fill="#68C8C8"/>
<path d="M956.408 231.331C955.816 231.331 955.275 230.937 955.114 230.338C952.376 220.145 947.931 210.042 942.264 201.122C941.867 200.499 942.052 199.672 942.677 199.276C943.296 198.88 944.126 199.062 944.523 199.688C950.334 208.835 954.892 219.195 957.7 229.645C957.892 230.359 957.469 231.09 956.756 231.282C956.639 231.315 956.523 231.331 956.408 231.331Z" fill="white"/>
<path d="M959.422 258.519C959.39 258.519 959.363 258.516 959.331 258.516C958.594 258.468 958.037 257.831 958.083 257.093C958.176 255.653 958.227 254.168 958.227 252.641C958.227 248.242 957.823 243.649 957.019 238.983C956.896 238.255 957.386 237.562 958.112 237.439C958.849 237.318 959.535 237.803 959.661 238.53C960.489 243.344 960.907 248.092 960.907 252.638C960.907 254.225 960.858 255.766 960.757 257.264C960.708 257.978 960.119 258.519 959.422 258.519Z" fill="white"/>
<path d="M877.468 214.122C876.782 214.122 876.195 213.598 876.136 212.9C875.932 210.58 875.831 208.266 875.831 206.021C875.831 193.042 879.335 182.322 885.696 175.831C886.21 175.304 887.06 175.293 887.59 175.81C888.118 176.326 888.129 177.174 887.612 177.701C881.744 183.689 878.513 193.746 878.513 206.018C878.513 208.185 878.612 210.419 878.807 212.664C878.872 213.4 878.325 214.05 877.591 214.114C877.545 214.122 877.508 214.122 877.468 214.122Z" fill="white"/>
<path d="M936.718 192.48C936.33 192.48 935.946 192.312 935.681 191.988C930.057 185.12 924.013 179.828 917.708 176.259C908.808 171.224 900.456 170.255 893.565 173.453C892.901 173.766 892.097 173.477 891.786 172.802C891.475 172.134 891.764 171.336 892.434 171.023C900.145 167.449 909.338 168.449 919.027 173.929C925.62 177.661 931.922 183.167 937.752 190.292C938.221 190.864 938.135 191.707 937.565 192.175C937.318 192.381 937.015 192.48 936.718 192.48Z" fill="white"/>
<path d="M886.703 215.147C885.988 215.147 885.396 214.585 885.363 213.865C885.329 213.033 885.312 212.209 885.312 211.388C885.312 201.885 887.643 194.129 892.054 188.962C892.539 188.398 893.383 188.331 893.943 188.812C894.505 189.291 894.572 190.137 894.095 190.699C890.103 195.375 887.995 202.529 887.995 211.388C887.995 212.172 888.011 212.961 888.045 213.753C888.075 214.491 887.502 215.115 886.762 215.144C886.741 215.147 886.722 215.147 886.703 215.147Z" fill="white"/>
<path d="M897.214 187.595C896.764 187.595 896.325 187.37 896.073 186.958C895.684 186.329 895.883 185.505 896.512 185.117C899.867 183.06 903.709 182.225 907.886 182.643C908.623 182.715 909.161 183.37 909.089 184.106C909.017 184.842 908.352 185.366 907.624 185.305C904.012 184.946 900.756 185.653 897.914 187.397C897.697 187.531 897.456 187.595 897.214 187.595Z" fill="white"/>
<path d="M956.408 275.73C955.881 275.73 955.377 275.414 955.165 274.893L953.595 271.013C950.407 263.123 948.729 254.95 948.743 247.373C948.743 224.685 934.821 198.428 917.711 188.745C917.068 188.382 916.84 187.566 917.207 186.921C917.572 186.276 918.394 186.051 919.032 186.418C936.895 196.523 951.425 223.823 951.425 247.276C951.412 254.615 953.024 262.438 956.084 270.013L957.654 273.892C957.933 274.577 957.598 275.358 956.915 275.634C956.746 275.701 956.575 275.73 956.408 275.73Z" fill="white"/>
<path d="M894.899 260.354C894.353 260.354 893.838 260.02 893.64 259.476C886.883 241.056 885.329 220.602 885.315 220.396C885.264 219.66 885.819 219.018 886.556 218.965C887.199 218.908 887.936 219.462 887.989 220.201C888.003 220.401 889.532 240.494 896.158 258.553C896.413 259.246 896.057 260.014 895.36 260.271C895.207 260.33 895.052 260.354 894.899 260.354Z" fill="white"/>
<path d="M948.523 284.754C947.979 284.754 947.467 284.423 947.266 283.882L943.695 274.272C939.925 264.127 937.932 253.957 937.932 244.861V234.341C937.932 221.86 928.953 206.626 917.92 200.384C912.765 197.468 908.009 196.981 904.521 199.014C901.104 200.999 899.226 205.229 899.226 210.928V220.214C899.226 233.84 902.323 249.099 908.189 264.341L912.612 275.853C912.877 276.543 912.532 277.317 911.84 277.582C911.155 277.844 910.375 277.501 910.11 276.811L905.686 265.299C899.708 249.754 896.547 234.164 896.547 220.212V210.925C896.547 204.237 898.899 199.185 903.17 196.7C907.524 194.166 913.231 194.653 919.238 198.054C931.022 204.721 940.611 220.998 940.611 234.341V244.861C940.611 253.642 942.548 263.49 946.208 273.341L949.78 282.951C950.037 283.644 949.683 284.412 948.989 284.672C948.834 284.728 948.678 284.754 948.523 284.754Z" fill="white"/>
<path d="M936.718 288.585C936.139 288.585 935.606 288.208 935.434 287.628L933.567 281.335C930.02 269.384 928.222 257.879 928.222 247.145V230.87C928.222 224.163 923.394 215.974 917.462 212.619C914.809 211.118 912.384 210.845 910.651 211.859C908.957 212.846 908.025 215 908.025 217.927C908.025 235.991 913.536 256.838 923.541 276.623L927.305 284.069C927.638 284.73 927.372 285.533 926.713 285.867C926.054 286.196 925.245 285.934 924.913 285.276L921.148 277.83C910.956 257.676 905.346 236.403 905.346 217.924C905.346 214.004 906.75 211.029 909.306 209.544C911.897 208.035 915.27 208.3 918.783 210.288C925.465 214.069 930.901 223.302 930.901 230.868V247.143C930.901 257.622 932.661 268.867 936.136 280.572L938.004 286.865C938.213 287.574 937.811 288.318 937.101 288.529C936.972 288.569 936.844 288.585 936.718 288.585Z" fill="white"/>
<path d="M921.698 260.354C921.082 260.354 920.524 259.926 920.39 259.297L919.158 253.575C917.979 248.085 917.379 242.453 917.379 236.84V221.761C917.379 221.022 917.979 220.423 918.719 220.423C919.458 220.423 920.058 221.022 920.058 221.761V236.84C920.058 242.265 920.637 247.71 921.781 253.013L923.013 258.736C923.169 259.458 922.708 260.17 921.985 260.325C921.885 260.346 921.792 260.354 921.698 260.354Z" fill="white"/>
<path d="M880.374 231.331C879.694 231.331 879.113 230.817 879.046 230.124L878.266 222.299C878.193 221.565 878.729 220.907 879.464 220.835C880.262 220.787 880.857 221.298 880.929 222.034L881.709 229.859C881.781 230.592 881.245 231.248 880.511 231.323C880.463 231.328 880.417 231.331 880.374 231.331Z" fill="white"/>
<path d="M995.141 416.959L863.91 342.739C860.151 340.572 856.773 340.736 854.377 342.721L843.039 350.549L850.771 360.095V498.218C850.771 507.879 856.652 519.103 863.91 523.287L991.883 595.629L992.485 605.916L1004.43 597.74C1006.81 595.945 1008.28 592.419 1008.28 587.589V442.028C1008.28 432.365 1002.4 421.141 995.141 416.959Z" fill="#68C8C8"/>
<path opacity="0.3" d="M995.141 416.959L863.91 342.739C860.151 340.572 856.773 340.736 854.377 342.721L843.039 350.549L850.771 360.095V498.218C850.771 507.879 856.652 519.103 863.91 523.287L991.883 595.629L992.485 605.916L1004.43 597.74C1006.81 595.945 1008.28 592.419 1008.28 587.589V442.028C1008.28 432.365 1002.4 421.141 995.141 416.959Z" fill="black"/>
<path d="M983.984 605.175L852.754 530.955C845.498 526.774 839.614 515.55 839.614 505.886V360.325C839.614 350.664 845.498 346.223 852.754 350.407L983.984 424.627C991.239 428.812 997.123 440.035 997.123 449.696V595.257C997.123 604.918 991.239 609.357 983.984 605.175Z" fill="#68C8C8"/>
<path d="M868.824 400.939C868.085 400.939 867.484 400.339 867.484 399.601V390.577C867.484 388.752 868.436 387.112 870.027 386.184C871.653 385.236 873.607 385.223 875.244 386.151L884.715 391.51C885.358 391.874 885.586 392.69 885.219 393.335C884.852 393.98 884.029 394.199 883.394 393.841L873.923 388.482C873.119 388.03 872.173 388.035 871.375 388.498C870.603 388.947 870.161 389.704 870.161 390.579V399.604C870.164 400.339 869.566 400.939 868.824 400.939Z" fill="white"/>
<path d="M884.059 525.018C883.834 525.018 883.606 524.962 883.4 524.844L874.55 519.836C870.19 517.372 867.484 512.773 867.484 507.834V499.516C867.484 498.778 868.085 498.178 868.824 498.178C869.564 498.178 870.164 498.778 870.164 499.516V507.834C870.164 511.81 872.347 515.518 875.868 517.508L884.718 522.517C885.361 522.881 885.588 523.697 885.221 524.341C884.978 524.772 884.525 525.018 884.059 525.018Z" fill="white"/>
<path d="M964.068 569.715C963.184 569.715 962.297 569.487 961.488 569.027L952.017 563.668C951.373 563.304 951.146 562.488 951.51 561.843C951.875 561.199 952.694 560.979 953.335 561.338L962.806 566.697C963.613 567.149 964.564 567.144 965.354 566.681C966.126 566.234 966.568 565.474 966.568 564.602V555.577C966.568 554.839 967.168 554.24 967.908 554.24C968.647 554.24 969.247 554.839 969.247 555.577V564.602C969.247 566.424 968.299 568.067 966.705 568.992C965.882 569.474 964.976 569.715 964.068 569.715Z" fill="white"/>
<path d="M967.91 457C967.171 457 966.571 456.401 966.571 455.663V447.345C966.571 443.369 964.387 439.661 960.866 437.67L952.017 432.662C951.373 432.298 951.146 431.482 951.51 430.837C951.875 430.195 952.694 429.968 953.335 430.331L962.185 435.34C966.544 437.804 969.25 442.403 969.25 447.342V455.66C969.25 456.404 968.65 457 967.91 457Z" fill="white"/>
<path d="M880.707 445.948C880.908 461.763 883.469 476.994 887.172 490.906C897.375 529.251 937.524 552.835 948.561 526.857C952.957 516.508 956.036 503.294 956.036 486.583C956.036 463.039 939.169 434.412 918.362 422.639C897.152 410.64 880.399 421.778 880.707 445.948Z" fill="white"/>
<path d="M917.025 467.376V492.584L906.059 484.386L917.025 467.376Z" fill="#E0E0E0"/>
<path d="M896.627 452.323C896.627 454.581 898.246 457.326 900.242 458.458C902.238 459.587 903.856 458.672 903.856 456.414C903.856 454.156 902.238 451.411 900.242 450.279C898.246 449.15 896.627 450.065 896.627 452.323Z" fill="#E0E0E0"/>
<path d="M930.197 471.517C930.197 473.775 931.815 476.52 933.811 477.652C935.807 478.781 937.426 477.866 937.426 475.608C937.426 473.35 935.807 470.605 933.811 469.473C931.812 468.344 930.197 469.259 930.197 471.517Z" fill="#E0E0E0"/>
<path d="M913.411 504.92L925.658 502.847C925.658 502.847 923.048 515.914 913.411 504.92Z" fill="#E0E0E0"/>
<path d="M715.913 528.441C715.913 528.441 735.443 527.127 746.522 554.232C753.408 571.082 761.794 597.12 767.152 614.414C770.483 625.158 767.045 636.842 758.418 644.071L724.364 672.602L712.178 650.476C712.178 650.476 725.315 632.973 735.443 623.925L712.178 554.229L715.913 528.441Z" fill="#FFA8A7"/>
<path d="M724.918 611.203C724.918 611.203 755.939 615.299 763.693 591.402C763.693 591.402 750.398 556.442 744.306 544.828C738.213 533.211 725.743 524.775 715.913 528.44C706.082 532.106 724.918 611.203 724.918 611.203Z" fill="#68C8C8"/>
<path opacity="0.4" d="M724.918 611.203C724.918 611.203 755.939 615.299 763.693 591.402C763.693 591.402 750.398 556.442 744.306 544.828C738.213 533.211 725.743 524.775 715.913 528.44C706.082 532.106 724.918 611.203 724.918 611.203Z" fill="white"/>
<path d="M704.218 924.932C704.218 924.932 689.468 912.32 683.745 911.729C678.022 911.138 668.098 920.935 676.479 937.938C678.81 942.668 688.284 947.791 694.205 956.856C700.126 965.92 705.453 972.735 714.533 971.496C723.611 970.257 724.795 965.134 724.203 959.221C723.611 953.308 720.947 943.16 720.947 943.16L704.218 924.932Z" fill="#37474F"/>
<path d="M715.015 968.78C705.659 970.056 700.167 963.033 694.063 953.691C687.96 944.348 678.196 939.066 675.793 934.189C674.735 932.046 673.968 930.015 673.435 928.1C673.775 931.038 674.694 934.312 676.479 937.935C678.81 942.665 688.284 947.788 694.205 956.853C700.126 965.917 705.453 972.732 714.533 971.493C721.486 970.543 723.793 967.309 724.232 963.194C723.029 965.968 720.39 968.047 715.015 968.78Z" fill="#263238"/>
<path d="M696.351 941.138C696.124 941.138 695.893 941.081 695.679 940.969C694.982 940.597 694.72 939.733 695.089 939.037C695.28 938.679 699.883 930.238 708.958 928.183C709.743 928.004 710.495 928.491 710.672 929.261C710.846 930.032 710.364 930.797 709.593 930.971C701.82 932.734 697.659 940.308 697.616 940.386C697.359 940.862 696.866 941.138 696.351 941.138Z" fill="#EBEBEB"/>
<path d="M690.845 936.07C690.618 936.07 690.387 936.017 690.173 935.902C689.476 935.53 689.214 934.666 689.584 933.97C689.774 933.612 694.374 925.171 703.452 923.116C704.234 922.937 704.99 923.423 705.166 924.194C705.341 924.964 704.858 925.73 704.087 925.904C696.311 927.667 692.153 935.241 692.11 935.319C691.85 935.795 691.357 936.07 690.845 936.07Z" fill="#EBEBEB"/>
<path d="M684.552 931.003C684.324 931.003 684.093 930.947 683.879 930.834C683.182 930.462 682.92 929.598 683.29 928.903C683.48 928.544 688.08 920.106 697.155 918.048C697.935 917.866 698.693 918.356 698.87 919.127C699.047 919.897 698.562 920.662 697.79 920.836C690.017 922.599 685.859 930.173 685.816 930.248C685.559 930.727 685.063 931.003 684.552 931.003Z" fill="#EBEBEB"/>
<path d="M625.765 966.271C625.765 966.271 606.007 959.871 600.113 961.637C594.218 963.403 588.452 977.152 603.727 990.5C607.977 994.213 619.442 995.385 629.017 1001.91C638.596 1008.43 646.661 1012.97 655.117 1008.02C663.573 1003.07 662.881 997.376 661.375 991.201C659.46 983.335 657.919 977.62 657.919 977.62L625.765 966.271Z" fill="#37474F"/>
<path d="M654.479 1005.14C645.766 1010.24 637.449 1005.56 627.579 998.839C617.705 992.116 605.889 990.909 601.509 987.083C599.582 985.4 597.991 983.712 596.675 982.04C598.221 984.801 600.475 987.658 603.73 990.502C607.979 994.216 619.444 995.388 629.02 1001.91C638.599 1008.43 646.663 1012.97 655.119 1008.02C661.595 1004.23 662.541 1000.09 661.282 995.842C661.236 999.069 659.486 1002.21 654.479 1005.14Z" fill="#263238"/>
<path d="M621.052 984.483C621.004 984.483 620.958 984.48 620.91 984.475C620.125 984.4 619.549 983.701 619.624 982.918C619.667 982.487 620.728 972.309 628.808 966.581C629.449 966.124 630.341 966.274 630.805 966.918C631.263 967.563 631.11 968.454 630.467 968.912C623.474 973.872 622.485 983.099 622.477 983.193C622.402 983.932 621.778 984.483 621.052 984.483Z" fill="#EBEBEB"/>
<path d="M629.211 987.15C629.162 987.15 629.117 987.147 629.069 987.142C628.281 987.067 627.705 986.369 627.782 985.585C627.825 985.154 628.889 974.977 636.967 969.248C637.607 968.791 638.502 968.941 638.963 969.586C639.421 970.23 639.269 971.121 638.626 971.579C631.635 976.539 630.641 985.767 630.633 985.86C630.561 986.596 629.937 987.15 629.211 987.15Z" fill="#EBEBEB"/>
<path d="M613.525 981.74C613.477 981.74 613.432 981.738 613.383 981.732C612.598 981.657 612.022 980.959 612.097 980.175C612.14 979.744 613.201 969.567 621.282 963.839C621.922 963.381 622.817 963.531 623.278 964.176C623.736 964.821 623.584 965.712 622.941 966.169C615.948 971.129 614.959 980.357 614.951 980.451C614.876 981.189 614.252 981.74 613.525 981.74Z" fill="#EBEBEB"/>
<path d="M721.869 928.691C723.637 909.155 727.471 878.548 729.066 864.237C731.914 838.67 729.304 819.169 727.522 809.896C726.705 805.65 726.477 801.356 726.906 797.053C730.78 758.147 733.323 695.094 731.174 681.236L676.481 692.791C676.481 692.791 683.177 781.258 686.114 810.685C689.069 840.308 700.065 928.945 700.065 928.945C704.636 931.634 712.939 934.575 721.869 928.691Z" fill="#455A64"/>
<path d="M713.987 948.776C718.724 948.038 720.942 943.16 720.942 943.16C720.942 940.081 721.301 934.941 721.867 928.691C712.936 934.575 704.636 931.634 700.06 928.946L701.997 945.378C704.221 947.89 709.252 949.517 713.987 948.776Z" fill="#FFA8A7"/>
<path d="M660.342 963.018C662.573 933.454 666.882 876.151 667.458 867.153C668.037 858.073 667.029 845.57 665.572 837.418C664.623 832.113 664.701 826.684 665.66 821.382L689.696 688.213L623.605 687.247L619.281 826.759C619.225 828.562 619.294 830.368 619.487 832.161L633.506 962.188C633.506 962.188 647.173 973.636 660.342 963.018Z" fill="#455A64"/>
<path d="M649.321 987.434C654.074 986.989 658.345 982.982 659.01 980.635C659.01 980.635 659.543 973.58 660.341 963.017C647.175 973.636 633.502 962.188 633.502 962.188L635.606 981.687C635.606 981.687 638.711 988.426 649.321 987.434Z" fill="#FFA8A7"/>
<path d="M654.141 537.307L638.551 542.628L621.775 621.848L622.587 692.095C622.587 692.095 634.566 701.628 681.355 701.628C707.621 701.628 724.717 691.75 731.169 681.236L726.963 638.797C726.963 638.797 731.169 596.98 731.169 576.307C731.169 555.636 732.094 538.687 715.91 528.44L701.504 529.623L654.141 537.307Z" fill="#68C8C8"/>
<path opacity="0.2" d="M654.141 537.307L638.551 542.628L621.775 621.848L622.587 692.095C622.587 692.095 634.566 701.628 681.355 701.628C707.621 701.628 724.717 691.75 731.169 681.236L726.963 638.797C726.963 638.797 731.169 596.98 731.169 576.307C731.169 555.636 732.094 538.687 715.91 528.44L701.504 529.623L654.141 537.307Z" fill="white"/>
<path d="M637.211 469.23L629.404 484.659C628.921 485.612 629.398 486.77 630.414 487.107L639.679 490.189L637.211 469.23Z" fill="#F28F8F"/>
<path d="M648.024 443.347C648.024 443.347 636.185 449.718 636.185 486.27C636.185 506.37 637.567 519.178 648.024 518.391C658.485 517.602 688.579 513.661 688.579 513.661V443.347H648.024Z" fill="#FFA8A7"/>
<path d="M648.024 518.389C651.7 518.113 657.806 517.444 664.172 516.695V512.968C658.315 515.968 647.866 518.07 646.277 518.378C646.832 518.426 647.408 518.437 648.024 518.389Z" fill="#F28F8F"/>
<path d="M662.38 511.411V534.353H693.809V502.116L662.38 511.411Z" fill="#FFA8A7"/>
<path d="M662.381 525.615C662.381 525.615 673.679 529.623 682.757 528.047C691.834 526.471 693.809 520.952 693.809 520.952C693.809 520.952 696.77 520.727 701.507 529.623C701.507 529.623 695.958 540.694 683.153 541.446C666.378 542.43 654.142 537.307 654.142 537.307C654.142 537.307 658.509 524.475 662.381 525.615Z" fill="#68C8C8"/>
<path opacity="0.4" d="M662.381 525.615C662.381 525.615 673.679 529.623 682.757 528.047C691.834 526.471 693.809 520.952 693.809 520.952C693.809 520.952 696.77 520.727 701.507 529.623C701.507 529.623 695.958 540.694 683.153 541.446C666.378 542.43 654.142 537.307 654.142 537.307C654.142 537.307 658.509 524.475 662.381 525.615Z" fill="white"/>
<path d="M592.273 593.673L583.833 606.641C583.833 606.641 563.337 597.515 548.935 591.982C534.534 586.452 525.947 578.768 525.947 578.768C525.947 578.768 527.056 567.788 528.717 562.186C530.378 556.583 530.933 551.88 525.947 554.371C520.961 556.859 517.638 566.539 517.362 567.646C517.362 567.646 488.557 538.746 484.956 539.367C481.355 539.99 482.188 544.343 489.942 553.263C497.693 562.186 497.693 562.186 497.693 562.186C497.693 562.186 480.026 572.347 482.906 583.41C485.787 594.473 509.051 599.452 509.051 599.452C509.051 599.452 577.17 651.723 592.273 642.321C607.374 632.917 628.701 605.814 628.701 605.814L592.273 593.673Z" fill="#FFA8A7"/>
<path d="M644.734 540.611C644.734 540.611 657.308 550.935 649.115 572.28C640.919 593.625 620.004 619.414 620.004 619.414C620.004 619.414 598.071 612.607 589.613 594.917L617.261 551.717C621.256 545.475 627.959 541.507 635.362 541.02C637.969 540.852 641.072 540.704 644.734 540.611Z" fill="#68C8C8"/>
<path opacity="0.4" d="M644.734 540.611C644.734 540.611 657.308 550.935 649.115 572.28C640.919 593.625 620.004 619.414 620.004 619.414C620.004 619.414 598.071 612.607 589.613 594.917L617.261 551.717C621.256 545.475 627.959 541.507 635.362 541.02C637.969 540.852 641.072 540.704 644.734 540.611Z" fill="white"/>
<path d="M643.486 421.829C643.486 421.829 631.065 420.181 627.895 428.726C625.92 434.048 632.238 438.186 632.238 438.186C632.238 438.186 624.224 445.718 636.185 448.04C636.185 448.04 635.199 458.287 645.854 456.907C645.854 456.907 644.472 465.032 654.932 467.868C654.932 467.868 649.646 481.936 659.591 482.131H668.902L665.148 492.969C665.148 492.969 672.101 509.72 693.811 509.72C693.811 509.72 699.339 498.291 701.903 494.941C704.47 491.591 717.888 474.447 717.888 460.85C717.888 447.254 712.65 439.198 705.402 437.411C705.402 437.411 702.3 429.911 694.996 424.983C687.695 420.058 672.302 415.662 663.618 421.703C663.618 421.703 655.921 411.625 650.594 411.625C645.262 411.622 643.486 417.098 643.486 421.829Z" fill="#263238"/>
<path d="M659.591 482.131C659.591 482.131 658.683 467.868 670.721 467.868C682.759 467.868 679.903 492.969 665.148 492.969L659.591 482.131Z" fill="#FFA8A7"/>
</svg>
