<svg width="874" height="869" viewBox="0 0 874 869" fill="none" xmlns="http://www.w3.org/2000/svg">
<path d="M873.932 244.046L723.932 294.046L719.932 430.046L566.932 499.046V646.046L404.932 715.046L411.932 868.046L869.932 652.046L873.932 244.046Z" fill="#70EEFF"/>
<path d="M339.109 317.15L182.989 373.451L567.932 499.046L650.932 464.046L720.932 434.046L339.109 317.15Z" fill="#07C5DF"/>
<path d="M183.094 502.936L26.9316 579.046L402.932 721.046L566.945 646.178V635.891L183.094 502.936Z" fill="#03A7B1"/>
<path d="M723.926 294.557L342 189.28L339 317.28L720.675 433.988L723.926 294.557Z" fill="#02F0FF"/>
<path d="M567.691 498.949L183.099 373.437L183.099 502.949L566.93 635.889L567.691 498.949Z" fill="#02F0FF"/>
<path d="M405.448 719.91L27.2285 578.807L25.334 723.199L411.859 868.321L405.448 719.91Z" fill="#02F0FF"/>
<path d="M492.931 143.046L342 189.28L723.93 294.574L874 243.78L492.931 143.046Z" fill="#46DDE6"/>
<path d="M413.083 111.036L336.991 74.4977L291.563 95.0503L281.342 141.865L262.035 190.962L255.221 269.747H281.342L306.327 182.97H313.141V206.948L306.327 285.733L322.227 304.002L313.141 419.325L291.563 544.924H325.634L348.348 468.423L374.469 379.361L394.912 299.435L401.726 399.914L443.747 396.489V269.747L406.269 248.053V196.672H413.083L443.747 221.791H458.511V190.962L421.033 141.865L413.083 111.036Z" fill="black"/>
<path d="M367.655 45.9523H339.263V10.5562L350.62 0.279877H367.655H385.826L399.455 10.5562V20.8325H385.826V40.2433H374.469V32.2506H367.655V45.9523Z" fill="black"/>
<path d="M396.047 81.3485H371.061L343.805 64.2213V50.5196H376.74V42.5269H388.097V26.5415H396.047V81.3485Z" fill="black"/>
<path d="M315.012 551.447H291.095L282.398 571.015H308.489L325.883 596.018H338.928V586.234L315.012 551.447Z" fill="black"/>
<path d="M305.228 572.102H285.66L305.228 599.28H316.099L332.406 593.844H325.883L305.228 572.102Z" fill="black"/>
<path d="M457.424 413.383L403.068 436.213V447.084L449.814 425.342L457.424 413.383Z" fill="black"/>
<path d="M442.204 402.512L400.894 407.948V436.213H406.329L462.859 407.948L442.204 402.512Z" fill="black"/>
</svg>
