<svg width="250" height="179" viewBox="0 0 250 179" fill="none" xmlns="http://www.w3.org/2000/svg">
<path d="M231.519 167.101C231.427 167.879 227.241 172.097 224.745 172.454C222.249 172.811 217.26 177.45 217.26 177.45H209.061C209.061 177.45 219.576 168.173 221.359 164.783C222.606 161.035 220.647 135.525 219.934 130.35C219.626 128.111 219.284 125.006 218.996 122.203C218.615 118.523 218.329 115.364 218.329 115.364C218.329 115.364 226.885 114.116 231.697 114.651C232.567 116.357 233.016 119.016 233.18 122.203C233.817 134.683 230.058 155.271 229.915 158.54C229.738 162.642 231.917 163.737 231.519 167.101Z" fill="#F67159"/>
<path d="M233.181 122.203H218.997C218.616 118.523 218.33 115.364 218.33 115.364C218.33 115.364 226.886 114.116 231.698 114.651C232.568 116.356 233.017 119.016 233.181 122.203Z" fill="#D84554"/>
<path d="M208.284 177.462C207.592 177.455 207.283 176.572 207.833 176.15C207.841 176.144 207.849 176.138 207.857 176.131C208.594 175.579 211.193 174.094 212.622 172.998C212.998 172.71 213.466 172.557 213.939 172.587C214.618 172.629 215.353 172.815 216.059 173.062C218.623 173.96 221.473 173.482 223.535 171.712C223.555 171.695 223.575 171.677 223.595 171.66C223.633 171.626 227.313 168.575 228.089 166.353C228.544 165.051 229.296 163.845 230.674 163.062C232.186 164.782 232.529 166.776 232.46 169.115C232.392 171.453 231.979 178.126 231.979 178.126H229.849L229.093 170.491C229.093 170.491 225.162 173.644 222.564 175.443C222.189 175.703 221.844 175.948 221.533 176.173C220.275 177.082 218.761 177.566 217.209 177.55L208.284 177.462Z" fill="#F39E23"/>
<path d="M246.802 167.789C246.711 168.566 242.525 172.785 240.029 173.141C237.533 173.498 232.544 178.137 232.544 178.137H224.344C224.344 178.137 234.859 168.861 236.643 165.471C237.889 161.723 235.93 136.212 235.217 131.038C234.908 128.799 234.567 125.693 234.279 122.891C233.898 119.211 233.612 116.052 233.612 116.052C233.612 116.052 242.168 114.804 246.98 115.338C247.849 117.045 248.299 119.704 248.463 122.891C249.101 135.37 245.342 155.958 245.199 159.227C245.021 163.329 247.201 164.424 246.802 167.789Z" fill="#F68962"/>
<path d="M248.464 122.891H234.28C233.899 119.211 233.613 116.052 233.613 116.052C233.613 116.052 242.169 114.804 246.981 115.338C247.852 117.045 248.301 119.704 248.464 122.891Z" fill="#D84554"/>
<path d="M223.567 178.151C222.875 178.144 222.567 177.26 223.116 176.838C223.124 176.832 223.132 176.826 223.141 176.82C223.877 176.267 226.476 174.782 227.905 173.687C228.281 173.398 228.749 173.246 229.222 173.275C229.901 173.317 230.636 173.503 231.342 173.75C233.907 174.648 236.756 174.171 238.818 172.4C238.838 172.383 238.858 172.366 238.878 172.348C238.917 172.314 242.596 169.263 243.372 167.041C243.827 165.739 244.579 164.533 245.957 163.75C247.469 165.47 247.813 167.465 247.743 169.803C247.675 172.141 247.262 177.337 247.262 177.337H245.132L244.376 171.178C244.376 171.178 240.445 174.331 237.848 176.131C237.472 176.391 237.127 176.636 236.816 176.86C235.558 177.77 234.044 178.254 232.492 178.238L223.567 178.151Z" fill="#FFCD08"/>
<path d="M249.393 119.454H229.892C221.545 119.454 214.483 119.454 214.483 119.454C214.483 119.454 209.694 95.1283 210.09 83.648C210.221 79.8256 211.192 75.9089 212.163 73.3656C213.182 70.6974 213.99 69.0142 213.99 69.0142C213.99 69.0142 233.588 60.668 244.72 69.151C244.72 69.151 245.857 70.7037 247.076 73.3425C248.36 76.1287 249.731 80.1254 249.942 84.7878C250.354 93.866 248.43 116.29 249.393 119.454Z" fill="#3E3F59"/>
<path d="M247.075 73.3423C238.722 73.3629 218.593 73.4067 212.162 73.3648C213.181 70.6966 213.989 69.0134 213.989 69.0134C213.989 69.0134 233.587 60.6672 244.719 69.1502C244.719 69.1502 245.857 70.7035 247.075 73.3423Z" fill="#2E2D44"/>
<path d="M233.308 119.454H229.893C228.58 112.952 226.027 86.0257 226.027 86.0257C228.043 88.5021 231.308 91.7168 233.1 98.3636C234.892 105.01 233.308 119.454 233.308 119.454Z" fill="#2E2D44"/>
<path d="M207.816 17.1277C208.55 19.5167 205.718 21.431 206.879 23.7538C208.436 26.8717 211.521 24.9067 213.11 27.7892C214.575 30.4486 213.384 33.9337 218.791 34.484C222.942 34.9068 227.666 32.248 234.368 35.0342C240.323 37.5107 243.805 34.0255 243.256 31.0907C242.706 28.1558 240.232 26.7805 241.331 22.6533C242.431 18.5261 243.714 15.9584 240.69 14.2159C237.666 12.4733 233.176 14.3995 230.152 10.9144C227.128 7.42925 222.73 2.7518 217.599 2.84362C212.297 2.93855 208.252 5.04462 207.611 10.4559C207.307 13.0204 207.47 16.004 207.816 17.1277Z" fill="#3E3F59"/>
<path d="M236.416 17.7822C236.269 17.6198 236.109 17.4724 235.935 17.3443C234.781 16.4918 233.257 16.3275 231.825 16.4062C229.762 16.5199 226.27 16.4999 224.931 14.4906L211.704 12.9073C211.356 15.0546 211.008 17.2019 210.661 19.3492C210.476 20.4903 210.324 21.7776 211.024 22.6976C212.219 24.269 214.975 23.6507 216.294 25.1197C217.454 26.4119 216.859 28.5967 217.862 30.0151C218.538 30.9713 219.813 31.3448 220.981 31.2674C222.149 31.1899 223.254 30.7383 224.356 30.3417C225.458 29.9451 226.619 29.5941 227.782 29.7297C229.814 29.967 231.76 31.8032 233.788 30.526C234.616 30.0051 235.169 29.0726 235.229 28.0964C235.328 26.4944 234.207 24.8105 234.922 23.3734C235.374 22.464 236.432 22.0005 236.957 21.1311C237.587 20.0881 237.242 18.699 236.416 17.7822Z" fill="#2E2D44"/>
<path d="M211.646 58.4665C209.463 62.7349 200.192 75.2957 196.733 75.6855C195.219 77.1426 194.161 78.0801 193.962 78.1382C193.183 78.368 190.458 76.5336 189.815 75.0203C189.815 75.0203 188.579 73.2559 188.854 72.6132C189.128 71.9705 189.656 71.6719 189.884 70.7557C190.114 69.8394 189.656 68.4173 190.756 66.5829C191.853 64.7485 201.431 52.7348 202.162 51.5431C203.492 46.1324 205.232 34.8051 207.295 32.9252C208.668 32.1457 211.51 31.6879 212.61 34.99C213.709 38.2896 214.579 52.7348 211.646 58.4665Z" fill="#FF5E6B"/>
<path d="M196.733 75.6855C195.219 77.1426 194.161 78.0801 193.962 78.1382C193.183 78.368 190.458 76.5337 189.815 75.0203C189.815 75.0203 188.579 73.2559 188.854 72.6132C189.128 71.9705 189.656 71.672 189.884 70.7557C189.884 70.7557 192.291 69.4497 194.559 71.5127C196.824 73.575 196.733 75.6855 196.733 75.6855Z" fill="white"/>
<path d="M194.695 83.87C194.329 83.366 193.32 82.5409 192.908 81.8533C192.532 81.2256 192.526 79.8353 191.772 78.5511C192.415 77.7679 193.317 76.6599 194.18 75.5713C193.218 72.2011 190.263 72.8888 190.263 72.8888C190.263 72.8888 188.471 74.8487 187.308 76.1134C187.176 76.1109 187.043 76.1128 186.908 76.1209C184.663 76.2577 182.051 77.5887 180.264 79.9271C178.574 79.9521 175.187 83.7851 175.636 84.4215C175.912 84.8113 176.622 84.6495 177.285 84.2142C177.252 84.5415 177.724 84.6476 178.273 84.5689C178.493 84.5377 178.725 84.4777 178.94 84.3903C179.014 84.4359 179.102 84.4771 179.209 84.5127C180.217 84.8338 181.272 84.5583 182.508 83.5965C183.745 82.6327 184.708 80.6154 186.677 80.3399C188.647 80.0645 189.747 80.7528 190.389 81.7165C191.029 82.6783 191.35 84.2829 192.953 84.5133C194.559 84.7432 195.062 84.3759 194.695 83.87Z" fill="#F68962"/>
<path d="M180.263 79.9271C180.263 79.9271 179.133 81.4655 178.6 82.2218C178.068 82.9788 177.093 83.4035 177.285 84.2142C176.622 84.6495 175.912 84.8113 175.636 84.4216C175.187 83.7851 178.574 79.9521 180.263 79.9271Z" fill="#D84554"/>
<path d="M184.387 78.0927C183.517 78.5512 183.677 79.7447 181.775 81.4411C180.156 82.8882 179.806 83 179.164 83.4584C178.505 83.9312 178.941 84.3915 178.941 84.3915C178.725 84.4784 178.493 84.5389 178.273 84.5702C177.619 82.9119 179.562 82.5035 180.952 81.3736C183.264 79.4899 183.448 78.4824 184.387 78.0927Z" fill="#D84554"/>
<path d="M244.72 69.1509C244.72 69.1509 233.597 69.0804 223.92 69.041C223.51 69.0391 223.104 69.0366 222.7 69.0366C219.38 69.0223 216.298 69.0135 213.989 69.0135C212.597 68.4333 211.555 66.9818 211.149 66.2273C210.96 65.8769 211.045 65.5265 211.443 65.0081C213.732 62.0127 214.332 58.0179 212.765 54.589C212.152 53.2499 211.294 51.8939 210.105 50.6148C207.555 47.8723 210.221 44.2298 209.119 41.3274C208.017 38.425 205.407 35.5806 207.089 33.201C208.771 30.8214 215.902 27.8609 215.902 27.8609L225.819 26.816C225.819 26.816 233.184 27.1645 237.07 28.9639C240.956 30.7633 241.246 32.8531 240.666 46.1453C240.086 59.4357 243.792 63.7521 244.951 64.8545C246.112 65.9587 244.72 69.1509 244.72 69.1509Z" fill="#CD4353"/>
<path d="M223.917 69.041C223.507 69.0391 223.101 69.0366 222.697 69.0366C222.213 66.271 220.372 55.5246 219.976 49.2495C219.519 42.0044 219.846 31.5515 219.846 31.5515L220.61 31.4853C220.61 31.4853 219.637 51.082 223.917 69.041Z" fill="#D84554"/>
<path d="M220.614 31.4854C220.355 31.4442 220.098 31.4585 219.849 31.5516C219.667 30.3842 219.889 29.1632 219.889 29.1632C219.889 29.1632 220.116 28.9808 220.529 29.0264C220.413 29.3506 220.52 30.6191 220.614 31.4854Z" fill="#00A376"/>
<path d="M209.461 56.8611C209.667 56.9985 222.038 64.2898 231.108 59.6811C237.468 56.4501 242.997 31.9612 238.118 30.2417C233.239 28.5223 230.764 32.0299 230.009 34.1622C229.253 36.2945 225.954 50.4636 225.954 50.4636L212.209 51.1513L209.461 56.8611Z" fill="#FF5E6B"/>
<path d="M206.542 53.938C206.542 53.938 206.404 55.2796 206.885 55.8299C207.367 56.3801 208.5 56.2084 208.81 56.7243C209.119 57.2402 209.291 57.7904 210.047 57.7217C210.802 57.653 213.448 56.6212 213.861 54.5232C214.273 52.4253 213.62 50.4304 213.036 50.2586C212.451 50.0869 211.902 50.4991 211.18 49.9145C210.459 49.3299 210.08 48.9514 209.221 49.536C208.362 50.1206 207.194 50.6022 206.542 53.938Z" fill="white"/>
<path d="M203.62 48.6531C203.62 48.6531 211.037 50.6767 211.351 51.4274C212.073 53.1469 211.18 55.1418 209.599 55.2792C208.289 55.3935 203.919 52.5867 203.277 52.0464C201.559 50.6024 201.706 48.8929 203.62 48.6531Z" fill="#F68962"/>
<path d="M199.768 50.8446C199.768 50.8446 198.275 51.5747 199.109 53.702C199.806 55.1123 201.582 55.474 202.642 55.9717C203.703 56.4695 204.169 55.0836 203.442 54.4546C202.715 53.8257 200.082 52.2605 199.768 50.8446Z" fill="#D84554"/>
<path d="M206.984 50.2938C207.008 51.2244 206.611 52.1675 205.599 52.3761C206.041 52.814 205.918 53.6809 205.471 54.095C205.027 54.5059 204.524 55.0012 203.898 54.476C203.893 54.4722 203.888 54.4672 203.883 54.4635C203.661 54.5141 203.465 54.5684 203.271 54.5865C203.162 54.5996 203.054 54.6003 202.943 54.5828C202.73 54.5503 202.504 54.4578 202.232 54.258C202.229 54.2555 202.225 54.2536 202.222 54.2511C201.989 54.3117 201.795 54.3086 201.636 54.2705C201.2 54.1699 201.022 53.8045 200.992 53.7358L200.987 53.7246C200.987 53.7246 200.648 53.8376 200.23 53.5797C200.097 53.4979 199.956 53.3786 199.817 53.2037C199.237 52.4842 198.94 51.0808 198.94 51.0808C198.94 51.0808 198.612 51.2432 198.142 51.4636C197.266 51.8759 195.895 52.4911 195.254 52.6197C194.268 52.8177 193.745 52.1675 193.817 51.8053C193.89 51.4424 195.371 50.874 196.849 50.2132C198.326 49.5543 200.279 48.5025 201.409 48.3383C203.021 48.1034 206.959 49.3601 206.984 50.2938Z" fill="#F68962"/>
<path d="M198.934 51.0927C198.934 51.0927 198.607 51.2582 198.139 51.4824C198.304 50.6923 198.664 49.8935 199.441 49.7979C199.5 49.7892 198.887 50.1964 198.934 51.0927Z" fill="#D84554"/>
<path d="M200.998 53.7234C200.996 53.7278 200.994 53.7309 200.992 53.7353L200.988 53.724C200.988 53.724 200.649 53.8371 200.23 53.5791C200.031 52.7759 199.839 51.6636 200.047 50.8791C200.047 50.8791 200.326 52.2126 200.998 53.7234Z" fill="#D84554"/>
<path d="M202.234 54.2418C202.232 54.248 202.231 54.2536 202.23 54.2574C202.227 54.2549 202.223 54.253 202.22 54.2505C201.987 54.3111 201.794 54.308 201.634 54.2699C201.459 53.4392 201.33 52.3056 201.585 51.2894C201.618 51.1576 201.505 52.5379 202.234 54.2418Z" fill="#D84554"/>
<path d="M203.896 54.4429C203.896 54.4536 203.897 54.4648 203.898 54.4754C203.893 54.4717 203.887 54.4667 203.882 54.4629C203.66 54.5135 203.465 54.5679 203.27 54.586C203.048 53.7846 202.684 52.6885 202.93 51.7567C202.905 51.924 203.074 52.9683 203.896 54.4429Z" fill="#D84554"/>
<path d="M205.596 52.3749C205.596 52.3749 204.606 53.3099 204.403 53.3086C204.199 53.3074 204.096 52.0077 204.264 52.0233C204.305 52.027 204.356 52.0476 204.412 52.0764C204.776 52.2669 205.184 52.358 205.596 52.3749Z" fill="#D84554"/>
<path d="M219.707 33.6814C219.707 33.6814 218.297 43.07 218.676 45.6152C217.782 44.3773 217.267 42.9326 217.267 42.9326C217.267 42.9326 215.033 45.0649 215.033 44.9619C215.033 44.8588 215.858 41.5392 217.232 37.6019C218.469 34.0593 219.466 32.7183 219.466 32.7183L219.707 33.6814Z" fill="#FFCD08"/>
<path d="M220.457 33.3997C220.457 33.3997 221.866 42.7889 221.488 45.3334C222.382 44.0955 222.897 42.6509 222.897 42.6509C222.897 42.6509 225.13 44.7832 225.13 44.6801C225.13 44.5771 224.306 41.2575 222.931 37.3201C221.694 33.7775 220.698 32.4366 220.698 32.4366L220.457 33.3997Z" fill="#FFCD08"/>
<path d="M219.846 33.2354C219.434 34.1623 215.618 41.3511 214.691 41.2474C213.763 41.1438 213.706 39.7691 213.363 38.4968C213.294 38.3288 213.151 38.1214 213.008 37.8854C212.714 37.3982 212.42 36.7823 212.766 36.0903C213.282 35.0579 218.539 32.993 218.539 32.993C218.539 32.993 220.257 32.3066 219.846 33.2354Z" fill="#FFCD08"/>
<path d="M219.409 33.4983C219.546 33.2884 213.8 39.6035 214.272 40.3711C214.744 41.1387 216.046 38.636 219.409 33.4983Z" fill="#F39E23"/>
<path d="M216.73 35.3082C214.485 36.7759 213.362 38.4966 213.362 38.4966C213.294 38.3286 213.151 38.1213 213.008 37.8852C213.727 36.7053 214.997 36.0958 216.73 35.3082Z" fill="#F39E23"/>
<path d="M220.825 32.5935C221.238 33.5203 225.053 40.7098 225.981 40.6062C226.908 40.5025 226.965 39.1278 227.308 37.8549C227.376 37.6869 227.52 37.4795 227.663 37.2434C227.957 36.7563 228.251 36.1404 227.905 35.4484C227.39 34.416 222.133 32.3511 222.133 32.3511C222.133 32.3511 220.414 31.6647 220.825 32.5935Z" fill="#FFCD08"/>
<path d="M221.262 32.8563C221.125 32.6471 226.871 38.9616 226.399 39.7292C225.927 40.4968 224.625 37.9941 221.262 32.8563Z" fill="#F39E23"/>
<path d="M223.941 34.6664C226.187 36.1341 227.309 37.8548 227.309 37.8548C227.377 37.6868 227.521 37.4795 227.664 37.2434C226.945 36.0636 225.675 35.4546 223.941 34.6664Z" fill="#F39E23"/>
<path d="M218.427 32.0769C218.427 32.0769 218.106 34.5071 219.801 34.4615C221.497 34.4159 222.298 33.1774 221.68 31.6416C221.061 30.1051 218.816 30.3343 218.427 32.0769Z" fill="#F39E23"/>
<path d="M228.661 27.7442C228.544 28.1339 225.773 33.6358 224.767 33.9112C223.947 34.1348 222.207 31.7408 220.612 31.486C220.353 31.4448 220.096 31.4591 219.847 31.5522C219.744 31.5915 219.642 31.6434 219.543 31.7096C219.427 31.7883 217.894 33.4303 217.343 33.9793C216.794 34.5289 216.656 34.7132 215.854 34.5533C215.052 34.3915 214.754 31.3423 214.48 30.1275C214.205 28.9127 214.091 28.0421 214.617 27.3307C214.795 27.0884 215.217 26.6424 215.507 26.2858C215.551 26.2339 215.59 26.1865 215.625 26.1384C216.176 25.4064 216.711 24.6812 217.599 24.4633C219.718 23.9467 223.641 23.0474 224.695 23.1798C225.242 23.2478 225.751 23.4783 226.211 23.8056C226.99 24.3571 227.622 25.184 228.04 25.976C228.706 27.2383 228.774 27.3538 228.661 27.7442Z" fill="white"/>
<path d="M226.218 23.8068C226.042 24.4577 225.756 24.9923 225.756 24.9923C225.756 24.9923 222.135 29.1176 216.203 27.2145C216.203 27.2145 215.864 26.841 215.514 26.2858C215.557 26.2339 215.597 26.1865 215.632 26.1384C216.183 25.4064 216.717 24.6812 217.605 24.4633C219.725 23.9467 223.647 23.0474 224.701 23.1798C225.248 23.2497 225.758 23.4796 226.218 23.8068Z" fill="#F9EFCD"/>
<path d="M208.164 12.6943C207.275 12.5869 206.516 13.6343 206.567 15.1158C206.618 16.5973 208.027 18.5741 208.918 18.674C209.808 18.774 210.294 18.6534 210.587 18.1132C210.881 17.5735 209.774 12.8886 208.164 12.6943Z" fill="#F67159"/>
<path d="M207.537 15.0184C207.54 14.9266 207.418 13.8442 208.043 13.6593C208.668 13.4751 209.313 15.3557 209.501 15.8903C208.846 15.5918 208.507 16.1077 208.471 16.4968C208.435 16.8852 209.088 17.8721 209.935 17.2363C210.056 17.7222 210.056 17.7222 210.056 17.7222C210.056 17.7222 208.894 18.1631 208.24 17.2225C207.585 16.2819 208.46 15.5099 208.919 15.5031C208.708 14.9678 208.364 14.3364 208.157 14.3295C207.874 14.3189 207.537 15.0184 207.537 15.0184Z" fill="#D84554"/>
<path d="M225.754 24.9918C224.976 27.5357 221.7 29.9678 219.569 29.7611C217.438 29.5537 216.201 27.2153 216.201 27.2153C216.201 27.2153 217.645 26.4583 217.37 25.1523C217.337 24.9968 217.28 24.8188 217.206 24.624C216.663 23.1856 215.17 20.8884 215.17 20.8884L221.906 16.2115C221.906 16.2115 221.931 18.5337 222.838 20.8884C223.453 22.4867 224.06 24.0756 225.754 24.9918Z" fill="#F68962"/>
<path d="M222.834 20.8884C222.345 21.7759 221.664 22.7477 220.802 23.3636C219.717 24.1387 218.284 24.4791 217.202 24.624C216.659 23.1856 215.166 20.8884 215.166 20.8884L221.902 16.2115C221.902 16.2115 221.927 18.5337 222.834 20.8884Z" fill="#D84554"/>
<path d="M211.62 10.6003C210.113 10.8651 209.104 12.3091 209.344 13.8218C209.791 16.6468 210.815 21.6527 212.556 22.6071C214.481 23.662 219.703 22.1942 221.353 19.9014C223.002 17.6086 222.91 12.702 222.91 12.702C222.91 12.702 219.749 11.647 219.153 7.74969C216.438 10.2567 213.683 10.2374 211.62 10.6003Z" fill="#F68962"/>
<path d="M224.702 11.7115C225.595 11.6353 226.317 12.7089 226.214 14.1879C226.111 15.6669 224.633 17.5924 223.74 17.6612C222.846 17.7299 222.365 17.5924 222.09 17.0422C221.816 16.4913 223.087 11.8489 224.702 11.7115Z" fill="#F68962"/>
<path d="M225.244 14.0556C225.244 13.9638 225.405 12.8864 224.786 12.6803C224.168 12.4742 223.458 14.331 223.251 14.8582C223.916 14.5827 224.236 15.1105 224.259 15.5002C224.282 15.89 223.594 16.853 222.77 16.1879C222.633 16.6694 222.633 16.6694 222.633 16.6694C222.633 16.6694 223.779 17.151 224.466 16.2335C225.153 15.3166 224.305 14.514 223.847 14.4909C224.076 13.9638 224.442 13.3442 224.649 13.3442C224.932 13.3448 225.244 14.0556 225.244 14.0556Z" fill="#D84554"/>
<path d="M213.87 13.1748C213.685 13.148 213.486 17.0715 213.667 17.2096C213.847 17.3476 215.602 17.3395 215.494 17.1134C215.387 16.8873 214.407 16.9622 214.196 16.7649C213.984 16.5681 214.054 13.2017 213.87 13.1748Z" fill="#D84554"/>
<path d="M213.143 19.2569C213.143 19.2569 213.898 20.0476 215.342 19.9446C216.785 19.8415 217.506 17.9153 217.506 17.9153C217.506 17.9153 215.823 19.498 213.143 19.2569Z" fill="#D84554"/>
<path d="M216.917 13.8894C216.471 13.6951 215.92 13.9781 215.835 14.4609C215.78 14.7775 215.936 15.0842 216.19 15.241C216.494 15.4677 216.998 15.3796 217.227 15.0623C217.511 14.6707 217.366 14.0849 216.917 13.8894Z" fill="#002734"/>
<path d="M215.488 12.9919C215.488 12.9919 216.268 12.6796 216.811 12.767C217.354 12.8538 218.117 13.2311 218.117 13.2311C218.117 13.2311 217.769 12.1437 216.9 12.035C216.031 11.9263 215.488 12.9919 215.488 12.9919Z" fill="#664341"/>
<path d="M212.347 13.8891C211.9 13.6948 211.35 13.9778 211.265 14.4606C211.21 14.7772 211.366 15.0839 211.62 15.2407C211.923 15.4674 212.428 15.3793 212.657 15.062C212.94 14.6704 212.795 14.0846 212.347 13.8891Z" fill="#002734"/>
<path d="M210.508 13.0947C210.508 13.0947 211.288 12.7824 211.831 12.8698C212.374 12.9567 213.136 13.3339 213.136 13.3339C213.136 13.3339 212.789 12.2465 211.919 12.1378C211.051 12.0292 210.508 13.0947 210.508 13.0947Z" fill="#664341"/>
<path d="M6.74669 132.619C7.22782 135.322 6.15637 138.57 8.04654 140.558C9.35012 141.93 11.6259 142.083 12.796 143.57C14.0528 145.164 13.4681 147.448 13.3732 149.476C13.2303 152.489 14.4709 155.485 16.5326 157.657C17.571 158.754 19.6665 161.011 21.4693 161.087C21.9105 161.106 22.3354 160.994 22.7223 160.703C22.8484 160.609 22.967 160.509 23.0824 160.407C26.3829 157.459 25.83 150.96 23.8949 147.55C22.5782 145.231 20.4197 143.159 20.3741 140.491C20.3392 138.369 21.7021 136.338 21.3576 134.242C20.889 131.412 17.6808 130.008 16.0759 127.632C13.8537 124.341 14.9975 119.669 13.0169 116.227C11.3626 113.355 7.48866 111.999 4.40723 113.214C1.3233 114.428 -0.586214 118.064 0.162615 121.293C1.15918 125.595 5.97041 128.274 6.74669 132.619Z" fill="#80B230"/>
<path d="M21.4701 161.086C21.9113 161.106 22.3362 160.993 22.7231 160.702C22.8492 160.609 22.9678 160.509 23.0832 160.406C22.8211 159.563 22.5291 158.727 22.2901 157.912C21.7116 155.942 21.1275 153.974 20.5054 152.016C19.2823 148.168 17.9493 144.351 16.5534 140.562C15.1575 136.773 13.6792 133.01 12.1272 129.282C11.3603 127.438 10.5703 125.604 9.74967 123.781C8.92409 121.947 8.1996 119.921 7.06574 118.254C6.60958 117.584 5.51692 118.021 5.74344 118.832C6.28634 120.774 7.32908 122.641 8.12721 124.49C8.93969 126.376 9.74593 128.264 10.5378 130.16C12.0673 133.824 13.5207 137.522 14.9035 141.244C16.2857 144.97 17.5787 148.724 18.8267 152.493C19.4732 154.444 20.1153 156.396 20.7225 158.36C20.9921 159.237 21.2161 160.166 21.4701 161.086Z" fill="#6B9117"/>
<path d="M32.2019 129.62C32.7342 132.313 34.9108 134.95 33.8712 137.489C33.1548 139.241 31.0899 140.211 30.5389 142.021C29.9467 143.964 31.3196 145.879 32.1439 147.735C33.3701 150.49 33.3015 153.732 32.1689 156.506C31.5991 157.905 30.4665 160.77 28.8135 161.495C28.4097 161.673 27.9723 161.723 27.5068 161.593C27.3558 161.552 27.2085 161.502 27.0637 161.448C22.919 159.901 21.0756 153.645 21.6409 149.764C22.026 147.125 23.2853 144.41 22.3598 141.907C21.6222 139.917 19.6154 138.52 19.1761 136.442C18.5857 133.636 21.065 131.16 21.699 128.364C22.5751 124.489 19.8144 120.552 20.4104 116.626C20.9096 113.349 24.0266 110.676 27.3389 110.689C30.6531 110.699 33.7514 113.392 34.2256 116.673C34.859 121.043 31.3483 125.289 32.2019 129.62Z" fill="#8BC53F"/>
<path d="M28.813 161.495C28.4092 161.673 27.9718 161.723 27.5063 161.592C27.3552 161.551 27.208 161.501 27.0632 161.447C27.0008 160.566 26.9702 159.681 26.8972 158.835C26.7212 156.789 26.5515 154.743 26.4211 152.693C26.164 148.663 26.0211 144.622 25.9468 140.584C25.8726 136.545 25.8844 132.503 25.978 128.465C26.0236 126.469 26.0941 124.472 26.1977 122.476C26.3013 120.467 26.2414 118.315 26.6925 116.35C26.8747 115.56 28.051 115.57 28.134 116.408C28.3331 118.415 28.0385 120.533 27.9662 122.546C27.8938 124.599 27.8276 126.651 27.7777 128.705C27.6822 132.675 27.6697 136.649 27.7322 140.619C27.7964 144.593 27.9537 148.561 28.159 152.526C28.2644 154.579 28.3743 156.631 28.5215 158.682C28.5877 159.598 28.7162 160.545 28.813 161.495Z" fill="#80B230"/>
<path d="M48.2163 132.619C47.7351 135.322 48.8066 138.57 46.9164 140.558C45.6128 141.93 43.337 142.083 42.167 143.569C40.9102 145.164 41.4949 147.448 41.5897 149.476C41.7326 152.489 40.4921 155.484 38.4303 157.657C37.3919 158.754 35.2965 161.011 33.4937 161.087C33.0525 161.106 32.6275 160.994 32.2406 160.703C32.1146 160.609 31.996 160.509 31.8806 160.407C28.5801 157.459 29.133 150.96 31.0681 147.55C32.3848 145.231 34.5433 143.158 34.5888 140.491C34.6238 138.369 33.2609 136.337 33.6054 134.242C34.074 131.412 37.2821 130.007 38.8871 127.632C41.1092 124.341 39.9654 119.669 41.9461 116.227C43.6004 113.355 47.4743 111.998 50.5557 113.214C53.6397 114.428 55.5498 118.064 54.8003 121.293C53.8044 125.595 48.9925 128.274 48.2163 132.619Z" fill="#80B230"/>
<path d="M33.492 161.086C33.0508 161.106 32.6259 160.993 32.239 160.702C32.1129 160.609 31.9944 160.509 31.8789 160.406C32.1404 159.563 32.433 158.727 32.672 157.912C33.2505 155.942 33.8346 153.974 34.4567 152.016C35.6798 148.168 37.0128 144.352 38.4087 140.562C39.8046 136.773 41.283 133.01 42.8349 129.282C43.6018 127.438 44.3918 125.604 45.2124 123.781C46.038 121.947 46.7625 119.921 47.8964 118.254C48.3525 117.584 49.4452 118.021 49.2187 118.832C48.6758 120.774 47.633 122.641 46.8349 124.49C46.0224 126.376 45.2162 128.264 44.4243 130.16C42.8948 133.824 41.4415 137.522 40.0586 141.244C38.6764 144.97 37.3834 148.724 36.1354 152.493C35.4889 154.444 34.8468 156.396 34.2396 158.36C33.97 159.237 33.746 160.166 33.492 161.086Z" fill="#6B9117"/>
<path d="M12.793 158.032C12.793 158.032 13.2054 170.963 16.6413 173.302C21.8781 173.302 34.0834 173.302 39.3196 173.302C42.7555 170.963 43.168 158.032 43.168 158.032H12.793Z" fill="#3E3F59"/>
<path d="M11.7598 171.083L12.6534 173.894C13.3429 176.062 15.6393 177.566 18.2602 177.566H37.6967C40.3176 177.566 42.614 176.062 43.3036 173.894L44.1972 171.083H11.7598Z" fill="#F9EFCD"/>
<path d="M72.7447 141.249H30.5488V144.276H32.6275C33.2153 149.03 34.3211 153.767 35.2221 158.467C35.6958 160.936 36.1576 163.407 36.5987 165.88C36.8134 167.084 37.0187 168.289 37.2321 169.492C37.3831 170.343 37.4955 171.236 37.6958 172.094V177.567H65.7344V172.204C65.8549 171.692 65.9528 171.176 66.0508 170.691C66.3098 169.413 66.6081 168.144 66.8739 166.868C67.4199 164.25 67.9472 161.626 68.4383 158.998L69.8748 151.315C70.3054 149.01 70.8989 146.632 71.0149 144.276H72.7447V141.249ZM65.2221 147.346C66.0957 148.417 66.9351 149.512 67.7469 150.628C67.1928 151.163 66.6979 151.765 66.1875 152.338C66.1769 152.35 66.1663 152.362 66.1557 152.375C65.0486 151.113 63.8536 149.913 62.7067 148.741C63.0642 148.323 63.4224 147.905 63.7787 147.486C64.0259 147.196 64.3029 146.899 64.5862 146.595C64.804 146.847 65.0187 147.096 65.2221 147.346ZM67.6845 154.256C67.501 154.009 67.3126 153.764 67.1191 153.523C67.141 153.498 67.1628 153.473 67.1847 153.448C67.4574 153.14 67.7394 152.836 68.0159 152.528C67.906 153.104 67.7956 153.68 67.6845 154.256ZM65.9123 163.709C65.7975 163.588 65.6801 163.47 65.5628 163.352C65.7276 163.157 65.9017 162.964 66.0789 162.769C66.0227 163.082 65.9678 163.395 65.9123 163.709ZM39.098 170.963C38.9763 169.857 38.7591 168.74 38.5451 167.644C39.2502 168.304 40.0296 168.901 40.7547 169.496C40.9962 169.695 41.2402 169.902 41.4867 170.113C41.2596 170.388 41.0487 170.67 40.8571 170.963L39.098 170.963ZM62.8277 144.275C63.0692 144.702 63.3588 145.109 63.6695 145.502C63.3625 145.893 63.0649 146.281 62.7666 146.625C62.4321 147.012 62.0939 147.395 61.7582 147.78C60.9245 146.951 60.0689 146.142 59.1828 145.37C58.7959 145.033 58.384 144.642 57.9472 144.275H62.8277ZM66.5045 160.432C65.8174 160.991 65.2614 161.755 64.6929 162.415C64.6786 162.431 64.6648 162.448 64.6511 162.464C63.6783 161.552 62.6592 160.683 61.6483 159.813C62.2823 159.076 62.9176 158.339 63.5547 157.604C63.906 157.945 64.2567 158.286 64.6081 158.626C65.1822 159.184 65.8087 159.877 66.5313 160.289C66.5226 160.337 66.5132 160.384 66.5045 160.432ZM61.4081 166.42C60.3953 165.499 59.375 164.586 58.3516 163.676C58.9426 162.98 59.5335 162.283 60.1263 161.588C60.2823 161.405 60.4396 161.223 60.5956 161.041C61.5984 161.925 62.6062 162.813 63.6527 163.644C63.2059 164.18 62.7628 164.718 62.3266 165.262C62.0209 165.644 61.7132 166.03 61.4081 166.42ZM58.5157 170.62C58.0533 170.183 57.5348 169.785 57.1036 169.387C56.4352 168.769 55.7544 168.165 55.0711 167.562C55.1666 167.449 55.2633 167.337 55.3582 167.223C55.9566 166.508 56.5582 165.796 57.1597 165.084C58.2087 166.013 59.2614 166.938 60.3204 167.853C59.6689 168.748 59.0549 169.668 58.5157 170.62ZM54.0415 166.657C52.6692 165.455 51.2989 164.251 49.9254 163.051C50.6742 162.247 51.4193 161.44 52.1619 160.63C53.4786 161.807 54.7953 162.986 56.1163 164.16C55.5653 164.841 55.0137 165.521 54.4683 166.206C54.3391 166.368 54.2137 166.533 54.0858 166.696C54.0708 166.682 54.0558 166.669 54.0415 166.657ZM41.5766 168.527C40.7959 167.895 39.9997 167.201 39.1454 166.615C39.7045 165.938 40.2387 165.239 40.7591 164.529C41.4143 165.128 42.0771 165.719 42.7404 166.31C43.1579 166.681 43.5797 167.047 44.0028 167.412C43.9148 167.507 43.8262 167.602 43.7388 167.697C43.2995 168.178 42.8221 168.654 42.3579 169.142C42.092 168.936 41.8293 168.732 41.5766 168.527ZM43.6764 165.206C42.9738 164.607 42.2774 164.001 41.5803 163.395C42.1526 162.596 42.7204 161.793 43.3045 161.006C43.5404 160.687 43.7788 160.37 44.0165 160.053C44.8976 160.821 45.78 161.589 46.6593 162.36C47.0318 162.686 47.4087 163.009 47.7831 163.335C47.5223 163.616 47.2633 163.899 47.0025 164.181C46.336 164.9 45.6664 165.617 44.9987 166.335C44.5582 165.959 44.1176 165.583 43.6764 165.206ZM42.3529 144.381C43.3045 145.526 44.4359 146.566 45.5541 147.569C44.7741 148.464 44.0109 149.37 43.2621 150.29C42.1432 149.31 41.0156 148.341 39.8749 147.39C40.4976 146.616 41.1204 145.842 41.7426 145.069C41.9279 144.84 42.1532 144.616 42.3529 144.381ZM52.809 147.329C52.4402 147.742 52.0727 148.156 51.7082 148.572C51.3032 149.035 50.9001 149.499 50.4995 149.965C49.6558 149.216 48.8115 148.468 47.9703 147.717C47.8012 147.565 47.6315 147.411 47.4618 147.256C48.2568 146.319 49.0867 145.406 49.8524 144.449C50.7566 145.48 51.8268 146.412 52.809 147.329ZM56.7304 144.935C57.2333 145.474 57.8043 145.97 58.2705 146.446C59.0898 147.283 59.9185 148.111 60.7435 148.941C60.3647 149.374 59.9884 149.809 59.6084 150.241C59.3981 150.48 59.1859 150.718 58.9756 150.957C58.9719 150.953 58.9675 150.949 58.9638 150.946C57.5728 149.617 56.1607 148.313 54.7335 147.023C54.8022 146.948 54.8695 146.873 54.9382 146.798C55.4798 146.207 56.1956 145.605 56.7304 144.935ZM57.7837 152.033C57.8274 152.074 57.8705 152.116 57.9142 152.158C57.1897 152.977 56.4639 153.794 55.7357 154.609C55.2234 154.156 54.7098 153.705 54.1993 153.25C53.2708 152.424 52.341 151.6 51.4106 150.775C51.775 150.35 52.1413 149.926 52.5107 149.505C52.9039 149.057 53.2995 148.612 53.697 148.168C55.0592 149.456 56.4234 150.743 57.7837 152.033ZM52.341 158.371C51.566 157.687 50.7915 157.003 50.0203 156.316C49.4081 155.77 48.7965 155.223 48.1844 154.674C48.9101 153.769 49.6446 152.872 50.3891 151.983C51.3076 152.82 52.2281 153.654 53.1553 154.482C53.6539 154.927 54.1525 155.371 54.6518 155.816C54.2199 156.296 53.7912 156.779 53.3569 157.258C53.0193 157.63 52.6792 158 52.341 158.371ZM54.4146 158.156C54.8402 157.685 55.2621 157.209 55.687 156.737C56.9195 157.831 58.1557 158.92 59.4031 159.997C59.4318 160.021 59.4599 160.046 59.4886 160.071C59.3294 160.261 59.1678 160.449 59.0087 160.639C58.429 161.332 57.8568 162.03 57.2839 162.728C55.9865 161.58 54.6855 160.436 53.385 159.292C53.7282 158.913 54.072 158.535 54.4146 158.156ZM60.4452 158.767C59.2234 157.683 57.9978 156.604 56.7722 155.525C57.488 154.723 58.1987 153.917 58.9095 153.11C60.0577 154.21 61.2003 155.315 62.3397 156.424C62.3872 156.471 62.4346 156.516 62.4814 156.562C61.8268 157.319 61.1759 158.078 60.5288 158.841C60.5014 158.815 60.4727 158.791 60.4452 158.767ZM46.9937 148.869C47.8218 149.633 48.6524 150.395 49.4842 151.157C48.7329 152.044 47.9903 152.94 47.2571 153.842C46.2692 152.957 45.2789 152.07 44.283 151.189C45.0231 150.267 45.7638 149.345 46.5039 148.422C46.6692 148.572 46.8327 148.72 46.9937 148.869ZM46.1082 155.273C45.4075 156.156 44.7179 157.048 44.039 157.947C43.1928 157.218 42.3454 156.49 41.4911 155.77C41.3232 155.629 41.1554 155.489 40.9881 155.348C41.6952 154.441 42.4065 153.539 43.1229 152.64C44.1151 153.523 45.1123 154.4 46.1082 155.273ZM40.341 156.81C41.2465 157.625 42.1619 158.431 43.0792 159.233C42.8402 159.557 42.6006 159.881 42.3641 160.207C41.7931 160.998 41.2159 161.791 40.6555 162.597C40.3572 162.339 40.0608 162.08 39.7607 161.824C38.9613 161.144 38.1576 160.382 37.2858 159.748C37.9273 159.485 38.2736 158.824 38.6986 158.284C39.1522 157.708 39.6009 157.128 40.0508 156.548C40.1469 156.635 40.2437 156.723 40.341 156.81ZM47.7095 161.122C46.8009 160.339 45.8955 159.553 44.9881 158.768C45.6683 157.873 46.356 156.984 47.0505 156.101C47.654 156.63 48.2561 157.16 48.8558 157.689C49.6134 158.358 50.3691 159.031 51.1242 159.704C50.3784 160.518 49.6315 161.332 48.8833 162.144C48.492 161.803 48.1026 161.46 47.7095 161.122ZM63.8087 155.03C63.7101 155.142 63.6134 155.256 63.5154 155.368C62.3472 154.2 61.1603 153.05 59.9678 151.906C60.1956 151.645 60.4259 151.387 60.653 151.126C61.0037 150.723 61.3519 150.318 61.7001 149.913C62.8521 151.104 63.9572 152.358 65.0917 153.578C64.6636 154.062 64.2343 154.544 63.8087 155.03ZM54.2624 145.722C54.117 145.88 53.9741 146.041 53.8293 146.199C53.1273 145.558 52.404 144.889 51.6465 144.275H55.5479C55.0911 144.736 54.6811 145.264 54.2624 145.722ZM46.5501 146.414C45.7619 145.684 44.9588 144.947 44.1182 144.275H48.3934C47.7625 144.972 47.1579 145.699 46.5501 146.414ZM40.9469 144.394L39.063 146.719C38.0477 145.886 37.0206 145.07 35.9797 144.275H41.0393C41.0087 144.316 40.9781 144.355 40.9469 144.394ZM42.1101 151.736C41.3894 152.649 40.6811 153.572 39.9816 154.502C39.4368 154.047 38.8889 153.594 38.336 153.149C37.6927 152.632 37.0518 152.055 36.3273 151.65C37.2558 150.808 38.0608 149.746 38.834 148.728C39.9117 149.743 41.0062 150.744 42.1101 151.736ZM37.3058 154.047C37.8948 154.6 38.4933 155.144 39.0936 155.686C38.5713 156.396 38.0621 157.112 37.5622 157.838C37.3532 158.141 37.1398 158.404 36.985 158.69C36.9507 158.495 36.9182 158.301 36.8833 158.106C36.565 156.311 36.2543 154.497 35.9173 152.684C36.3416 153.172 36.8384 153.608 37.3058 154.047ZM38.927 162.808C39.2452 163.117 39.5666 163.423 39.8905 163.726C39.3688 164.52 38.8746 165.329 38.4271 166.162C38.3666 166.127 38.3067 166.092 38.2455 166.059C38.2262 165.949 38.2069 165.839 38.1888 165.729C37.9473 164.277 37.7014 162.826 37.4524 161.375C37.9404 161.871 38.4502 162.343 38.927 162.808ZM42.3941 170.885C42.4253 170.911 42.4571 170.937 42.4883 170.963H42.3086C42.3373 170.938 42.3654 170.911 42.3941 170.885ZM44.5494 170.963C44.1763 170.603 43.775 170.262 43.3657 169.932C43.8218 169.456 44.2643 168.968 44.7086 168.521C44.799 168.429 44.887 168.336 44.9775 168.244C45.5416 168.722 46.1082 169.197 46.6774 169.669C47.2028 170.106 47.7332 170.535 48.2661 170.963H44.5494ZM50.4533 170.963C50.1613 170.643 49.8037 170.377 49.4543 170.087C48.8421 169.578 48.2318 169.066 47.6209 168.556C47.0792 168.105 46.5419 167.648 46.0047 167.191C46.6861 166.484 47.3638 165.774 48.039 165.061C48.2998 164.786 48.5582 164.509 48.8184 164.232C50.1669 165.398 51.5185 166.56 52.8683 167.724C52.9519 167.796 53.0362 167.867 53.1198 167.94C52.8365 168.309 52.5538 168.68 52.2724 169.051C51.8062 169.666 51.2646 170.291 50.8334 170.963H50.4533ZM53.0324 169.959C53.375 169.555 53.7195 169.154 54.0633 168.752C54.7023 169.299 55.3444 169.845 55.994 170.379C56.2137 170.56 56.4365 170.76 56.6636 170.964H52.2056C52.4864 170.627 52.7566 170.283 53.0324 169.959ZM61.3351 168.722C62.2156 169.476 63.1004 170.224 63.9928 170.963H59.556C60.1694 170.236 60.7566 169.483 61.3351 168.722ZM65.4399 166.406C65.2514 167.491 65.0898 168.581 64.9082 169.669C64.0764 168.88 63.2365 168.099 62.3915 167.323C62.7391 166.864 63.0886 166.406 63.4436 165.955C63.8493 165.44 64.2605 164.931 64.6755 164.424C65.0006 164.661 65.3294 164.892 65.6652 165.113C65.5903 165.543 65.5148 165.975 65.4399 166.406ZM66.8284 158.713C66.824 158.737 66.8196 158.761 66.8152 158.785C66.5538 158.474 66.2667 158.182 66.0009 157.898C65.5354 157.399 65.0561 156.912 64.5744 156.428C64.6555 156.334 64.736 156.24 64.8171 156.147C65.2496 155.65 65.6864 155.156 66.1213 154.661C66.5294 155.078 66.9469 155.485 67.3725 155.882C67.1909 156.826 67.0093 157.77 66.8284 158.713ZM64.5619 144.419C64.507 144.371 64.4514 144.323 64.3953 144.275H64.6948C64.6505 144.323 64.6062 144.371 64.5619 144.419ZM34.351 144.275C35.541 145.532 36.7697 146.758 38.0259 147.96C37.1666 148.961 36.263 150.004 35.6203 151.128C35.1666 148.817 34.653 146.519 34.0072 144.275H34.351ZM68.6305 149.252C67.9216 148.239 67.1684 147.254 66.356 146.324C66.1107 146.043 65.858 145.751 65.5965 145.462C65.9092 145.08 66.1918 144.685 66.4071 144.275H69.745C69.2271 145.88 68.9263 147.579 68.6305 149.252Z" fill="#3E3F59"/>
<path d="M103.409 106.375H100.209V175.154H103.409V106.375Z" fill="#F9EFCD"/>
<path d="M103.408 163.688H65.6602V166.89H103.408V163.688Z" fill="#F9EFCD"/>
<path d="M164.104 125.536H142.752C137.298 125.536 132.877 121.111 132.877 115.653V77.4393C132.877 71.9811 137.298 67.556 142.752 67.556H164.104C169.558 67.556 173.979 71.9811 173.979 77.4393V115.653C173.979 121.111 169.558 125.536 164.104 125.536Z" fill="#2E2D44"/>
<path d="M145.53 134.363H142.088V160.025H145.53V134.363Z" fill="#2E2D44"/>
<path d="M125.404 176.071H115.24L118.954 172.818L142.428 171.527L167.243 173.128L169.719 175.916C169.719 175.916 125.842 176.51 125.404 176.071Z" fill="#2E2D44"/>
<path d="M145.53 134.363H143.689V160.025H145.53V134.363Z" fill="#4F5068"/>
<path d="M146.831 176.036H140.293V154.552C140.293 153.832 140.876 153.248 141.596 153.248H145.528C146.247 153.248 146.831 153.832 146.831 154.552V176.036H146.831Z" fill="#2E2D44"/>
<path d="M125.687 138.845C126.115 138.845 159.524 138.845 161.665 138.845C163.806 138.845 165.519 138.222 165.805 134.482C158.238 134.482 120.689 134.482 120.689 134.482C120.689 134.482 120.689 138.845 125.687 138.845Z" fill="#2E2D44"/>
<path d="M167.785 132.697V135.33H118.877V132.697C118.877 132.697 167.63 132.697 167.785 132.697Z" fill="#3E3F59"/>
<path d="M124.294 128.359C124.758 128.359 160.975 128.359 163.296 128.359C165.618 128.359 167.475 128.979 167.785 132.697C159.582 132.697 118.877 132.697 118.877 132.697C118.877 132.697 118.877 128.359 124.294 128.359Z" fill="#2E2D44"/>
<path d="M124.571 111.362C124.571 111.362 121.914 116.59 121.822 116.864C121.731 117.139 102.122 118.607 97.4486 122.092C94.1501 128.053 93.3251 132.639 93.9666 134.198C94.6081 135.757 102.213 166.113 102.488 166.755C102.763 167.398 102.305 172.075 102.305 172.075C102.305 172.075 122.005 178.128 122.097 177.669C122.189 177.211 120.997 172.075 120.356 168.315C119.714 164.555 108.81 132.823 109.177 132.547C109.543 132.273 128.969 130.805 133.367 129.704C137.766 128.604 141.797 111.271 141.797 111.271L124.571 111.362Z" fill="#2E2D44"/>
<path d="M122.099 177.669H92.1426C92.1426 177.669 92.8839 175.054 95.5341 174.022C97.8855 173.107 101.803 170.699 103.246 170.287C105.308 170.08 119.854 174.666 122.099 177.669Z" fill="#2E2D44"/>
<path d="M157.013 126.127C156.41 127.417 154.94 128.473 153.202 129.319C149.383 131.172 144.275 131.995 144.275 131.995C144.275 131.995 142.914 132.188 141.119 132.244C140.224 132.271 139.219 132.263 138.221 132.178C135.703 131.966 133.225 131.271 132.64 129.429C131.357 125.393 136.306 119.799 136.579 119.524C136.854 119.248 137.496 112.003 137.496 112.003H157.104C157.104 112.003 158.937 122 157.013 126.127Z" fill="#3E3F59"/>
<path d="M157.102 112.003H153.786C154.421 119.305 153.612 122.006 151.009 124.119C148.969 121.179 145.336 120.666 142.907 120.692C141.277 120.711 139.754 121.5 138.812 122.831C135.945 126.88 137.112 130.323 138.219 132.178C139.217 132.263 140.222 132.271 141.116 132.245C142.912 132.188 144.272 131.996 144.272 131.996C144.272 131.996 144.277 131.995 144.284 131.994C144.287 131.994 144.288 131.994 144.291 131.993C144.299 131.992 144.311 131.99 144.325 131.987C144.328 131.987 144.33 131.987 144.332 131.986C144.37 131.98 144.424 131.97 144.494 131.958C144.498 131.957 144.501 131.957 144.504 131.956C144.577 131.943 144.665 131.927 144.768 131.908C144.769 131.908 144.77 131.908 144.771 131.907C144.823 131.897 144.879 131.887 144.938 131.875C144.939 131.875 144.939 131.875 144.939 131.875C145.241 131.818 145.632 131.739 146.09 131.638C146.364 131.577 146.662 131.509 146.979 131.433C146.98 131.432 146.982 131.432 146.983 131.431C147.192 131.381 147.409 131.327 147.633 131.269C147.638 131.268 147.642 131.267 147.647 131.265C147.756 131.237 147.867 131.208 147.978 131.178C147.98 131.178 147.983 131.177 147.985 131.177C148.209 131.117 148.439 131.054 148.672 130.987C148.689 130.982 148.705 130.977 148.721 130.973C148.833 130.941 148.945 130.908 149.059 130.875C149.061 130.874 149.063 130.874 149.065 130.873C149.183 130.838 149.302 130.802 149.421 130.766C149.438 130.761 149.454 130.756 149.471 130.75C149.57 130.719 149.669 130.688 149.769 130.657C149.794 130.649 149.82 130.641 149.846 130.633C150.075 130.559 150.305 130.483 150.536 130.403C150.569 130.391 150.601 130.38 150.633 130.369C150.719 130.339 150.805 130.308 150.891 130.278C150.924 130.266 150.957 130.254 150.99 130.242C151.1 130.202 151.21 130.162 151.321 130.12C151.35 130.109 151.379 130.097 151.408 130.087C151.491 130.055 151.574 130.023 151.657 129.991C151.699 129.974 151.742 129.957 151.784 129.94C151.859 129.91 151.933 129.88 152.008 129.849C152.047 129.833 152.086 129.817 152.125 129.801C152.227 129.759 152.328 129.716 152.428 129.672C152.474 129.652 152.519 129.632 152.565 129.612C152.627 129.585 152.689 129.556 152.751 129.529C152.801 129.506 152.851 129.483 152.902 129.46C152.964 129.431 153.025 129.402 153.087 129.373C153.125 129.355 153.163 129.337 153.201 129.319C153.201 129.319 153.201 129.319 153.201 129.318C154.939 128.475 156.41 127.417 157.012 126.126C158.935 122 157.102 112.003 157.102 112.003Z" fill="#2E2D44"/>
<path d="M137.815 120.212C135.019 121.117 132.592 125.577 132.317 127.778C132.042 129.979 130.668 178.265 130.668 178.265C130.668 178.265 140.839 171.983 148.674 173.084C147.574 166.939 147.482 162.445 147.482 162.445C147.482 162.445 149.086 131.08 147.162 126.54C145.237 122 142.488 118.699 137.815 120.212Z" fill="#3E3F59"/>
<path d="M130.668 178.265L158.934 178.586C158.934 178.586 158.385 176.477 156.735 175.559C155.086 174.642 150.323 171.708 146.841 170.882C139.965 169.252 130.668 178.265 130.668 178.265Z" fill="#2E2D44"/>
<path d="M102.399 105.951L106.339 105.217C106.339 105.217 111.196 105.126 113.669 104.943C116.143 104.759 125.628 102.511 128.422 96.8718C131.296 91.0707 134.009 70.0912 129.016 72.1554C125.581 76.0534 117.885 92.7452 117.885 92.7452C117.885 92.7452 105.789 94.8544 104.598 95.7719C103.407 96.6888 103.04 99.3488 103.04 99.3488C103.04 99.3488 100.566 99.7155 100.291 100.083C100.016 100.449 99.6499 102.834 100.108 103.384C100.566 103.933 102.399 105.951 102.399 105.951Z" fill="#F39E23"/>
<path d="M89.6953 106.438H101.16C101.16 106.438 99.0476 102.023 95.6523 102.098C92.2576 102.174 90.0753 105.267 89.6953 106.438Z" fill="white"/>
<path d="M94.3122 102.104C94.3122 102.104 92.6598 102.247 92.2611 102.504C91.8623 102.76 91.7201 103.274 91.7201 103.274C91.7201 103.274 90.6661 103.673 90.5238 103.958C90.3815 104.244 90.296 104.785 90.296 104.785C90.296 104.785 89.5553 105.099 89.4411 105.441C89.3269 105.783 89.3556 106.325 89.6976 106.439C90.0396 106.553 90.4951 105.754 90.4951 105.754C90.4951 105.754 91.3213 105.441 91.4923 104.928C92.1762 105.013 92.8595 104.472 93.0305 103.53C93.999 102.96 94.3122 102.104 94.3122 102.104Z" fill="#D84554"/>
<path d="M101.803 106.553C101.234 106.838 97.6436 106.609 96.4486 106.496C95.4782 105.47 98.7837 105.184 98.7837 105.184C98.7837 105.184 98.8404 104.613 98.3269 103.815C97.8152 103.017 96.5615 102.333 96.1634 102.274C95.7634 102.217 95.1949 103.017 94.4823 103.359C93.9531 103.613 93.0127 103.876 93.0295 103.529C93.0457 103.193 94.056 102.18 94.881 101.407C95.5693 100.762 96.5584 100.552 97.4464 100.869C98.7113 101.321 100.357 101.992 101.176 102.104C102.429 102.274 103.284 103.529 103.456 104.67C103.627 105.812 102.373 106.267 101.803 106.553Z" fill="#F68962"/>
<path d="M98.7843 105.185C98.7843 105.185 98.8411 104.614 98.3276 103.815C97.8159 103.018 96.5622 102.334 96.1641 102.275C99.5057 102.657 100.608 105.185 100.608 105.185H98.7843Z" fill="#D84554"/>
<path d="M157.464 112.876C157.464 112.876 147.11 112.959 137.7 112.988C137.38 112.99 137.06 112.99 136.744 112.992C129.416 113.011 122.908 112.994 122.691 112.876C122.187 112.6 121.408 109.804 121.545 109.298C121.682 108.794 125.027 106.914 125.027 106.914L125.624 102.51C125.624 102.51 127.685 73.577 129.012 72.1548C129.86 71.2485 133.082 70.1399 135.313 69.4516C136.587 69.06 137.535 68.8071 137.535 68.8071C139.687 68.1663 146.064 68.1663 146.064 68.1663C146.064 68.1663 148.192 68.9001 150.567 69.7564C153.432 70.787 156.661 71.993 156.961 72.2941C157.51 72.8437 156.777 104.713 156.777 104.713C156.777 104.713 158.38 107.785 158.701 109.344C159.022 110.903 157.464 112.876 157.464 112.876Z" fill="#FFCD08"/>
<path d="M137.945 102.098C137.39 106.483 137.542 110.702 137.699 112.988C137.378 112.99 137.059 112.99 136.742 112.992C136.757 111.717 136.8 109.599 136.914 106.112C137.167 98.3851 140.785 71.9725 140.785 71.9725L141.518 71.5602C141.518 71.5602 138.77 95.587 137.945 102.098Z" fill="#F39E23"/>
<path d="M150.566 69.7565C149.736 73.542 146.124 76.5356 146.124 76.5356C146.124 76.5356 143.855 72.8893 142.963 72.5452C142.07 72.2011 140.558 73.5776 140.558 73.5776C140.558 73.5776 140.558 73.5776 139.251 73.0967C137.946 72.6139 137.122 74.0585 134.715 75.9847C134.616 74.482 135.063 71.148 135.312 69.4523C136.585 69.0607 137.534 68.8077 137.534 68.8077C139.686 68.1669 146.063 68.1669 146.063 68.1669C146.063 68.1669 148.19 68.9002 150.566 69.7565Z" fill="#F39E23"/>
<path d="M144.279 85.2246H152.571C152.571 85.2246 154.385 93.0049 149.073 93.6533C143.761 94.3016 144.279 85.2246 144.279 85.2246Z" fill="#F39E23"/>
<path d="M97.5625 88.8503L98.0698 87.8041L121.525 87.7054L127.929 104.893H126.931L97.5625 88.8503Z" fill="#242435"/>
<path d="M97.5625 88.8503L120.923 88.9071L126.931 104.893H103.598L97.5625 88.8503Z" fill="#3E3F59"/>
<path d="M126.929 104.893H103.596V106.693H126.929V104.893Z" fill="#242435"/>
<path d="M126.93 106.693H139.877V104.853L126.93 104.893V106.693Z" fill="#3E3F59"/>
<path d="M172.108 104.667C162.704 102.374 158.276 101.717 156.962 98.9265C155.651 96.1359 153.197 74.2239 156.967 72.294C156.967 72.294 158.767 72.9885 160.571 76.5998C162.375 80.2111 171.998 100.394 172.108 104.667Z" fill="#FFCD08"/>
<path d="M172.108 104.667C162.704 102.374 158.276 101.717 156.962 98.9265C155.651 96.1359 153.197 74.2239 156.967 72.294C156.967 72.294 155.546 74.9516 157.012 82.4727C158.477 89.9939 159.943 96.0472 159.943 95.7712C159.943 95.4957 166.083 95.0373 166.449 95.68C166.815 96.3208 162.785 97.1459 163.059 97.1459C163.334 97.1459 170.252 98.5224 172.108 104.667Z" fill="#F39E23"/>
<path d="M154.289 106.864C152.713 106.778 151.663 106.659 151.557 106.543C150.567 105.451 151.557 101.848 151.557 101.848C151.557 101.848 152.589 100.059 153.14 100.059C153.689 100.059 155.532 100.096 155.532 100.096C155.532 100.096 156.162 97.4451 157.813 97.4451C159.461 97.4451 171.557 101.641 172.106 104.668C172.537 107.036 159.985 107.171 154.289 106.864Z" fill="#FFCD08"/>
<path d="M172.106 104.667C168.784 100.815 159.529 99.2563 158.43 99.2563C157.33 99.2563 156.46 101.319 156.46 101.319L154.078 101C154.078 101 154.902 101.459 155.406 103.384C155.588 105.275 154.919 106.303 154.289 106.865C152.713 106.778 151.663 106.659 151.557 106.544C150.567 105.451 151.557 101.848 151.557 101.848C151.557 101.848 152.589 100.06 153.14 100.06C153.689 100.06 155.532 100.097 155.532 100.097C155.532 100.097 156.162 97.4457 157.813 97.4457C159.461 97.4444 171.557 101.64 172.106 104.667Z" fill="#F39E23"/>
<path d="M145.118 100.861C145.118 100.861 143.517 100.753 142.922 100.914C142.326 101.074 140.306 104.984 140.398 105.58C140.489 106.176 140.98 106.331 141.286 105.901C141.481 105.628 143.31 102.979 143.31 102.979C143.31 102.979 147.706 104.345 148.187 104.162C148.668 103.979 150.089 102.856 145.118 100.861Z" fill="#D84554"/>
<path d="M149.837 105.905C149.837 105.905 148.943 106.524 148.233 106.318C147.523 106.112 143.445 105.217 143.445 104.277C143.445 103.337 144.613 103.796 144.728 103.819C144.843 103.842 145.622 104.392 146.698 104.232C147.775 104.071 148.393 103.658 149.173 104.3C149.951 104.942 149.837 105.905 149.837 105.905Z" fill="#D84554"/>
<path d="M152.288 106.41C152.037 106.491 151.791 106.534 151.555 106.542C149.925 106.613 148.669 105.218 148.669 105.218C148.669 105.218 148.669 107.005 147.891 106.959C147.112 106.913 147.385 104.712 147.433 102.604C146.973 103.292 146.492 105.813 146.239 106.569C146.051 107.137 145.803 106.945 145.415 106.913C144.341 106.825 145.085 105.546 145.691 102.443C145.051 103.04 144.179 106.043 143.997 106.501C143.813 106.959 143.17 107.281 142.758 106.729C142.346 106.18 144.454 100.448 145.049 100.402C145.645 100.357 146.149 100.769 146.195 100.999C146.195 100.999 146.402 100.62 146.95 100.62C147.501 100.62 148.019 101.128 148.019 101.128C148.019 101.128 148.245 100.778 148.796 100.728C149.349 100.676 152.243 102.052 152.93 102.328C153.618 102.604 154.258 105.767 152.288 106.41Z" fill="#F68962"/>
<path d="M141.867 72.6838C141.867 72.6838 141.859 73.7118 141.847 75.3726C141.845 75.4888 141.845 75.6087 141.842 75.7311C141.84 76.0546 141.838 76.4006 141.836 76.7654C141.834 76.8834 141.834 77.0015 141.832 77.1239C141.83 77.4555 141.827 77.7997 141.824 78.1582C141.824 78.2762 141.822 78.3968 141.822 78.5167C141.82 78.8527 141.815 79.1969 141.814 79.5491C141.812 79.6697 141.812 79.7896 141.812 79.9095C141.807 80.2474 141.805 80.5915 141.801 80.9419C141.801 81.0625 141.799 81.1824 141.799 81.3023C141.795 81.6421 141.793 81.9862 141.791 82.3347C141.789 82.4528 141.789 82.5733 141.787 82.6932C141.785 83.033 141.781 83.3796 141.779 83.7275C141.777 83.8456 141.777 83.9661 141.774 84.086C141.772 84.4302 141.77 84.7743 141.766 85.1203C141.766 85.2409 141.764 85.3589 141.764 85.4788C141.762 85.823 141.758 86.169 141.756 86.5131C141.754 86.6337 141.752 86.7517 141.752 86.8716C141.747 87.2158 141.746 87.5618 141.741 87.9041C141.741 88.0265 141.739 88.1464 141.739 88.2651C141.735 88.6111 141.733 88.9552 141.731 89.2975C141.729 89.418 141.727 89.538 141.727 89.6585C141.723 90.007 141.721 90.3512 141.716 90.6909C141.716 90.8115 141.714 90.9314 141.712 91.0494C141.71 91.3998 141.706 91.7439 141.704 92.0837C141.702 92.2043 141.699 92.3242 141.699 92.4441C141.695 92.7945 141.693 93.1405 141.689 93.4765C141.687 93.5989 141.687 93.717 141.684 93.835C141.68 94.1898 141.678 94.5358 141.674 94.8693C141.672 94.9893 141.672 95.1098 141.669 95.2278C141.665 95.5863 141.661 95.933 141.657 96.2621C141.657 96.3845 141.655 96.5045 141.655 96.6225C141.649 96.9891 141.644 97.3358 141.643 97.6549C141.641 97.7792 141.638 97.8998 141.636 98.0153C141.63 98.4069 141.626 98.7554 141.62 99.0496C141.62 99.1802 141.618 99.3007 141.614 99.41C141.606 99.8953 141.598 100.171 141.591 100.191C141.583 100.216 141.511 100.32 141.386 100.482C141.303 100.595 141.193 100.739 141.065 100.903C140.811 101.232 140.481 101.653 140.119 102.109C140.009 102.246 139.897 102.387 139.783 102.53C138.47 104.187 136.919 106.109 136.919 106.109C136.919 106.109 136.355 104.736 135.794 103.27C135.751 103.161 135.709 103.049 135.666 102.937C135.542 102.609 135.421 102.284 135.308 101.971C135.266 101.855 135.227 101.743 135.187 101.633C135.061 101.274 134.949 100.943 134.864 100.663C134.826 100.539 134.793 100.422 134.767 100.321C134.748 100.248 134.732 100.182 134.719 100.124C134.696 100.014 134.713 99.726 134.767 99.2907C134.779 99.1789 134.793 99.0565 134.812 98.9241C134.853 98.6193 134.905 98.2627 134.969 97.8629C134.988 97.7424 135.009 97.6206 135.027 97.4919C135.084 97.1621 135.142 96.8055 135.208 96.4264C135.228 96.3065 135.249 96.1816 135.272 96.0573C135.33 95.7175 135.394 95.3609 135.46 94.9917C135.481 94.8693 135.504 94.7469 135.527 94.6208C135.589 94.2747 135.655 93.9181 135.721 93.5508C135.744 93.4284 135.767 93.3041 135.792 93.1799C135.856 92.8313 135.922 92.4728 135.991 92.11C136.014 91.9875 136.036 91.8632 136.061 91.739C136.127 91.3886 136.196 91.0301 136.264 90.6691C136.287 90.5466 136.312 90.4224 136.335 90.2981C136.403 89.9458 136.471 89.5892 136.542 89.2282C136.564 89.1039 136.587 88.9796 136.614 88.8553C136.68 88.5005 136.751 88.1445 136.821 87.7854C136.844 87.6611 136.869 87.5368 136.894 87.4125C136.962 87.0559 137.032 86.6993 137.103 86.3426C137.125 86.2183 137.15 86.0941 137.175 85.9716C137.246 85.6131 137.316 85.2565 137.387 84.8999C137.412 84.7756 137.437 84.6513 137.461 84.527C137.532 84.1685 137.602 83.81 137.674 83.4552C137.697 83.3309 137.722 83.2066 137.747 83.0842C137.819 82.7232 137.892 82.3647 137.96 82.0125C137.987 81.8882 138.012 81.7639 138.037 81.639C138.109 81.2761 138.182 80.9176 138.252 80.5672C138.277 80.441 138.302 80.3161 138.327 80.1943C138.401 79.8296 138.474 79.4711 138.544 79.1225C138.569 78.9964 138.594 78.8715 138.619 78.7497C138.693 78.3805 138.766 78.0239 138.836 77.6798C138.861 77.5536 138.888 77.4287 138.911 77.3044C138.989 76.929 139.062 76.5724 139.13 76.2326C139.157 76.1065 139.182 75.9816 139.207 75.8591C139.242 75.6911 139.275 75.5294 139.306 75.3738C139.654 73.67 139.874 72.6107 139.874 72.6107L141.867 72.6838Z" fill="#D84554"/>
<path d="M141.868 72.684C141.868 72.684 141.663 99.9904 141.593 100.195C141.525 100.403 136.92 106.112 136.92 106.112L139.051 99.4389C139.051 99.4389 140.151 82.7259 140.7 75.7088C140.26 75.7381 139.755 75.5782 139.308 75.3771C139.656 73.6733 139.875 72.614 139.875 72.614L141.868 72.684Z" fill="#CD4353"/>
<path d="M141.845 75.3725C141.843 75.4887 141.843 75.6086 141.84 75.731L139.129 76.235C139.156 76.1089 139.181 75.984 139.206 75.8615L141.845 75.3725Z" fill="#CD4353"/>
<path d="M141.837 76.7653C141.835 76.8834 141.835 77.0014 141.833 77.1238L138.838 77.6816C138.863 77.5554 138.89 77.4305 138.912 77.3062L141.837 76.7653Z" fill="#CD4353"/>
<path d="M141.824 78.1587C141.824 78.2767 141.822 78.3973 141.822 78.5172L138.545 79.1243C138.57 78.9981 138.595 78.8732 138.619 78.7514L141.824 78.1587Z" fill="#CD4353"/>
<path d="M141.814 79.5497C141.812 79.6702 141.812 79.7901 141.812 79.9101L138.254 80.569C138.279 80.4428 138.304 80.3179 138.328 80.1961L141.814 79.5497Z" fill="#CD4353"/>
<path d="M141.799 80.9424C141.799 81.0629 141.797 81.1829 141.797 81.3028L137.959 82.0142C137.986 81.8899 138.011 81.7656 138.036 81.6407L141.799 80.9424Z" fill="#CD4353"/>
<path d="M141.788 82.3358C141.786 82.4539 141.786 82.5744 141.784 82.6943L137.672 83.4569C137.694 83.3326 137.719 83.2083 137.744 83.0859L141.788 82.3358Z" fill="#CD4353"/>
<path d="M141.778 83.7286C141.776 83.8466 141.776 83.9672 141.774 84.0871L137.387 84.9015C137.412 84.7772 137.437 84.653 137.461 84.5287L141.778 83.7286Z" fill="#CD4353"/>
<path d="M141.766 85.1223C141.766 85.2428 141.764 85.3608 141.764 85.4808L137.104 86.3452C137.126 86.2209 137.151 86.0966 137.176 85.9742L141.766 85.1223Z" fill="#CD4353"/>
<path d="M141.756 86.515C141.755 86.6356 141.752 86.7536 141.752 86.8735L136.822 87.7879C136.845 87.6636 136.87 87.5393 136.895 87.415L141.756 86.515Z" fill="#CD4353"/>
<path d="M141.742 87.9058C141.742 88.0282 141.74 88.1481 141.74 88.2668L136.543 89.2305C136.565 89.1062 136.589 88.9819 136.615 88.8576L141.742 87.9058Z" fill="#CD4353"/>
<path d="M141.732 89.2994C141.73 89.4199 141.728 89.5398 141.728 89.6604L136.266 90.6722C136.288 90.5498 136.313 90.4255 136.336 90.3012L141.732 89.2994Z" fill="#CD4353"/>
<path d="M141.717 90.6922C141.717 90.8127 141.715 90.9327 141.713 91.0507L135.992 92.1119C136.015 91.9894 136.038 91.8652 136.063 91.7409L141.717 90.6922Z" fill="#CD4353"/>
<path d="M141.705 92.0856C141.703 92.2061 141.7 92.326 141.7 92.4459L135.723 93.5533C135.746 93.4309 135.768 93.3066 135.793 93.1823L141.705 92.0856Z" fill="#CD4353"/>
<path d="M141.689 93.4783C141.687 93.6007 141.687 93.7187 141.685 93.8368L135.461 94.9935C135.482 94.8711 135.505 94.7487 135.527 94.6225L141.689 93.4783Z" fill="#CD4353"/>
<path d="M141.676 94.8717C141.674 94.9916 141.674 95.1122 141.671 95.2302L135.209 96.4281C135.23 96.3082 135.25 96.1833 135.273 96.059L141.676 94.8717Z" fill="#CD4353"/>
<path d="M141.662 96.2645C141.662 96.3869 141.66 96.5069 141.66 96.6249L134.975 97.8647C134.993 97.7442 135.014 97.6224 135.033 97.4937L141.662 96.2645Z" fill="#CD4353"/>
<path d="M141.644 97.6579C141.642 97.7822 141.64 97.9027 141.638 98.0182L134.768 99.293C134.78 99.1812 134.794 99.0588 134.813 98.9264L141.644 97.6579Z" fill="#CD4353"/>
<path d="M141.621 99.0527C141.621 99.1833 141.619 99.3038 141.615 99.4131L134.865 100.665C134.827 100.541 134.794 100.425 134.768 100.323L141.621 99.0527Z" fill="#CD4353"/>
<path d="M141.389 100.485C141.306 100.599 141.196 100.743 141.068 100.906L135.31 101.974C135.269 101.858 135.229 101.746 135.189 101.636L141.389 100.485Z" fill="#CD4353"/>
<path d="M140.122 102.112C140.012 102.249 139.9 102.39 139.786 102.533L135.797 103.274C135.753 103.164 135.712 103.052 135.668 102.94L140.122 102.112Z" fill="#CD4353"/>
<path d="M144.549 70.7907C144.573 71.0599 144.226 71.7132 143.785 72.2959C143.549 72.6051 143.286 72.893 143.037 73.096C142.317 73.6806 141.525 74.402 140.082 73.9542C139.326 73.72 138.883 73.0442 138.636 72.4327C138.415 71.8794 138.352 71.3797 138.365 71.3072C138.605 69.9657 140.324 69.1406 141.32 69.0019C142.317 68.8652 144.515 70.3785 144.549 70.7907Z" fill="#D84554"/>
<path d="M144.549 70.7907C144.573 71.0599 144.226 71.7132 143.785 72.2959C142.729 72.7625 141.386 73.2409 140.908 73.1978C140.117 73.1291 139.498 72.4077 139.258 72.3041C139.129 72.2479 138.868 72.3328 138.636 72.4327C138.415 71.8794 138.352 71.3797 138.365 71.3072C138.605 69.9657 140.324 69.1406 141.32 69.0019C142.317 68.8652 144.515 70.3785 144.549 70.7907Z" fill="#CD4353"/>
<path d="M150.805 55.2801C150 56.4905 149.094 57.4317 148.133 58.1531C143.005 62.003 136.292 59.5609 134.538 58.3586C134.494 58.3299 134.453 58.3005 134.415 58.2718C132.594 56.8971 132.616 53.3233 132.823 51.7393C133.129 49.3841 134.826 48.5652 134.931 48.5159C134.809 48.5328 132.286 48.9013 132.388 48.1968C134.107 45.1351 138.332 44.0009 140.6 43.8972C142.868 43.7935 146.476 45.1351 148.023 47.9544C153.245 50.191 150.805 55.2801 150.805 55.2801Z" fill="#3E3F59"/>
<path d="M149.327 56.7583L149.224 56.4492C148.903 57.0981 148.534 57.6621 148.132 58.153C143.004 62.0029 136.291 59.5608 134.537 58.3585C134.191 57.6352 133.921 56.7665 133.762 55.7278C132.799 49.467 137.37 47.4397 137.37 47.4397C137.37 47.4397 134.45 47.6801 134.106 47.7132C133.762 47.7488 134.389 45.6934 138.092 45.1C145.823 43.8621 147.267 49.7781 147.267 49.7781C147.267 49.7781 148.915 50.0185 149.775 51.7043C150.632 53.39 149.327 56.7583 149.327 56.7583Z" fill="#2E2D44"/>
<path d="M140.52 65.5982C140.52 65.5982 137.313 67.3408 136.854 68.6249C136.396 69.909 136.213 73.4854 136.213 73.4854C136.213 73.4854 138.549 71.0089 139.374 71.1925C140.199 71.3762 140.794 71.972 140.794 71.972C140.794 71.972 142.673 70.4587 143.589 71.1463C144.506 71.834 146.201 73.9894 146.201 73.9894C146.201 73.9894 148.629 70.9171 148.904 69.2664C149.179 67.6156 146.247 65.0018 145.193 64.7269C144.139 64.4521 140.52 65.5982 140.52 65.5982Z" fill="#FFCD08"/>
<path d="M146.073 68.1666C145.534 69.3377 144.592 70.1815 143.177 70.4138C141.208 70.733 140.062 70.5506 139.192 69.2221C138.322 67.8911 139.741 66.8818 139.741 66.6083C139.74 66.5483 139.735 66.4821 139.731 66.4115C139.646 65.1948 139.238 62.5723 139.238 62.5723L145.377 61.3799C145.377 61.4668 145.576 63.1962 145.882 64.6758C145.978 65.1361 146.083 65.5733 146.198 65.9281C146.431 66.6638 146.394 67.4658 146.073 68.1666Z" fill="#F68962"/>
<path d="M145.883 64.6757C145.185 65.1422 144.187 65.6544 142.904 65.9423C141.701 66.214 140.593 66.3464 139.731 66.4107C139.646 65.1941 139.238 62.5715 139.238 62.5715L145.377 61.3792C145.377 61.4666 145.577 63.1954 145.883 64.6757Z" fill="#D84554"/>
<path d="M147.812 58.2388C147.671 59.6691 147.384 61.2655 146.798 62.1593C145.561 64.0392 140.474 65.0017 139.513 65.0948C138.551 65.1859 137.291 65.2771 136.1 63.8094C135.371 62.9119 134.812 58.7616 134.729 55.5356C134.725 55.382 134.723 55.2308 134.721 55.0816C134.698 53.2197 136.196 51.6982 138.056 51.6839C140.166 51.6695 142.752 51.7151 144.205 51.7463C144.826 51.7588 145.371 52.1754 145.537 52.7744C145.638 53.1435 145.791 53.5851 146.019 54.0429C146.302 54.6106 146.752 54.9186 147.145 55.0847C147.635 55.2921 147.948 55.7773 147.932 56.3095C147.917 56.8348 147.883 57.5155 147.812 58.2388Z" fill="#F68962"/>
<path d="M147.812 58.2388L147.473 56.0721C147.473 56.0721 147.233 56.1409 146.064 55.728C144.896 55.3152 144.312 53.0786 144.004 52.8737C143.693 52.6663 139.124 52.5295 136.856 53.0792C135.576 53.3902 134.999 54.5551 134.729 55.5356C134.725 55.382 134.723 55.2308 134.721 55.0816C134.698 53.2197 136.196 51.6982 138.056 51.6839C140.166 51.6695 142.752 51.7151 144.205 51.7463C144.826 51.7588 145.371 52.1754 145.537 52.7744C145.638 53.1435 145.791 53.5851 146.019 54.0429C146.302 54.6106 146.752 54.9186 147.145 55.0847C147.635 55.2921 147.948 55.7773 147.932 56.3095C147.917 56.8348 147.883 57.5155 147.812 58.2388Z" fill="#F67159"/>
<path d="M137.818 60.955C137.818 60.955 138.574 61.7458 140.017 61.6427C141.461 61.5397 142.182 59.6135 142.182 59.6135C142.182 59.6135 140.499 61.1961 137.818 60.955Z" fill="#D84554"/>
<path d="M138.825 54.6843C138.64 54.6574 138.441 58.581 138.622 58.719C138.802 58.8571 140.558 58.8489 140.449 58.6229C140.341 58.3968 139.362 58.4717 139.15 58.2743C138.939 58.0776 139.01 54.7118 138.825 54.6843Z" fill="#D84554"/>
<path d="M142.114 55.5094C141.668 55.3152 141.118 55.5981 141.033 56.0809C140.977 56.3976 141.133 56.7043 141.388 56.861C141.691 57.0878 142.195 56.9997 142.424 56.6824C142.708 56.2908 142.563 55.7049 142.114 55.5094Z" fill="#002734"/>
<path d="M140.686 54.6119C140.686 54.6119 141.466 54.2996 142.008 54.3871C142.551 54.4739 143.314 54.8511 143.314 54.8511C143.314 54.8511 142.966 53.7637 142.097 53.6551C141.228 53.5464 140.686 54.6119 140.686 54.6119Z" fill="#002734"/>
<path d="M137.315 55.5093C136.869 55.3151 136.319 55.598 136.234 56.0808C136.178 56.3975 136.334 56.7041 136.589 56.8609C136.892 57.0876 137.396 56.9996 137.625 56.6823C137.909 56.2907 137.764 55.7048 137.315 55.5093Z" fill="#002734"/>
<path d="M135.791 54.7167C135.791 54.7167 136.487 54.3445 137.002 54.3732C137.516 54.4019 138.265 54.683 138.265 54.683C138.265 54.683 137.832 53.6893 137.011 53.6724C136.191 53.6556 135.791 54.7167 135.791 54.7167Z" fill="#002734"/>
<path d="M150.12 54.249C151.013 54.1728 151.735 55.2464 151.632 56.7254C151.529 58.2044 150.051 60.13 149.157 60.1987C148.264 60.2674 147.783 60.13 147.508 59.5797C147.234 59.0295 148.505 54.3864 150.12 54.249Z" fill="#F68962"/>
<path d="M150.662 56.5938C150.662 56.502 150.823 55.4246 150.204 55.2179C149.586 55.0118 148.876 56.8686 148.669 57.3958C149.333 57.1209 149.654 57.6481 149.677 58.0378C149.7 58.4276 149.012 59.3906 148.188 58.7255C148.051 59.207 148.051 59.207 148.051 59.207C148.051 59.207 149.196 59.6886 149.884 58.7717C150.571 57.8548 149.723 57.0522 149.265 57.0291C149.494 56.502 149.86 55.883 150.067 55.883C150.35 55.883 150.662 56.5938 150.662 56.5938Z" fill="#D84554"/>
<path d="M132.807 54.249C131.914 54.1728 131.192 55.2464 131.295 56.7254C131.398 58.2044 132.876 60.13 133.769 60.1987C134.663 60.2674 135.143 60.13 135.419 59.5797C135.694 59.0295 134.422 54.3864 132.807 54.249Z" fill="#F68962"/>
<path d="M132.263 56.5937C132.263 56.5019 132.102 55.4245 132.721 55.2178C133.339 55.0117 134.049 56.8686 134.256 57.3957C133.591 57.1209 133.271 57.648 133.248 58.0378C133.225 58.4275 133.913 59.3906 134.737 58.7254C134.874 59.207 134.874 59.207 134.874 59.207C134.874 59.207 133.729 59.6885 133.042 58.7716C132.355 57.8548 133.202 57.0522 133.66 57.0291C133.431 56.5019 133.065 55.883 132.858 55.883C132.575 55.883 132.263 56.5937 132.263 56.5937Z" fill="#D84554"/>
<path d="M203.532 101.413C203.759 101.472 204.363 102.509 204.363 102.509L201.748 104.315H166.387L167.622 103.046L166.672 101.391L168.024 100.767L166.538 99.3119L168.007 97.811L166.953 96.061L167.931 95.3558L167.345 94.4402L167.959 93.6882L166.178 93.1098L167.838 92.0993L166.781 91.0544L167.732 90.4273L166.18 89.4511L168.05 88.7728L166.945 88.1651L167.971 87.4474L167.014 86.3932L168.339 85.9341L167.148 85.0947L168.171 84.294L167.869 83.557L187.984 83.4252L204.143 83.3203L203.429 84.1722L204.49 85.2708L203.488 86.3401L204.987 88.0758L203.827 89.328L204.912 90.4217L203.526 91.1149L205.056 92.1717L203.66 93.3016L204.538 94.8149L203.423 95.4202L205.204 97.5143L203.475 98.5224L204.601 100.499C204.6 100.497 203.306 101.357 203.532 101.413Z" fill="white"/>
<path d="M203.532 101.413C203.758 101.472 204.362 102.509 204.362 102.509L201.748 104.315H187.088L189.264 103.154L187.441 102.587L189.15 101.616L187.441 100.725L188.694 99.5904L186.985 99.2682L188.923 97.9722L186.758 97.001L189.263 95.219H186.418L189.832 93.923L187.897 93.3566L189.946 92.3023L187.441 91.5746L189.376 90.5204L188.237 89.4686L190.176 88.1726L187.214 87.0402L190.176 85.6612L188.124 84.9335L189.72 84.2846L187.984 83.4252L204.143 83.3203L203.429 84.1722L204.489 85.2708L203.487 86.3401L204.986 88.0758L203.826 89.328L204.911 90.4217L203.525 91.1149L205.056 92.1717L203.659 93.3016L204.538 94.8149L203.423 95.4202L205.204 97.5143L203.474 98.5224L204.6 100.499C204.599 100.497 203.305 101.357 203.532 101.413Z" fill="#F9EFCD"/>
<path d="M170.252 85.9041H201.335C201.335 85.9041 176.286 88.9814 170.252 85.9041Z" fill="#EFD7B2"/>
<path d="M170.135 89.4673C170.135 89.4673 173.854 88.2256 181.748 89.1975C178.636 90.2236 170.135 89.4673 170.135 89.4673Z" fill="#F9EFCD"/>
<path d="M169.604 100.158C169.604 100.158 173.323 98.916 181.217 99.8878C178.105 100.913 169.604 100.158 169.604 100.158Z" fill="#EFD7B2"/>
<path d="M176.967 95.4601C176.967 94.8661 201.711 94.7043 202.85 95.352C201.636 96.1084 176.967 96.0541 176.967 95.4601Z" fill="#F9EFCD"/>
<path d="M74.7226 94.3054C74.1797 93.7757 74.1478 92.8851 74.4262 92.1793C74.7045 91.4735 75.2318 90.9014 75.721 90.3218C76.2102 89.7422 76.6851 89.1064 76.8193 88.36C77.0783 86.9229 76.0449 85.3052 76.8099 84.0617C77.5195 82.9087 79.3447 82.8937 80.0723 81.752C80.556 80.9938 80.3831 80.0138 80.3981 79.1144C80.428 77.2545 81.4115 75.4213 82.9784 74.4208C84.5453 73.4202 86.657 73.3109 88.2901 74.199C91.4689 75.9272 91.8265 81.3154 88.2496 82.8606C87.6767 83.108 87.0552 83.2235 86.4717 83.444C85.8876 83.6651 85.3148 84.023 85.0458 84.5863C84.6115 85.4963 85.077 86.6868 84.5229 87.5293C83.8414 88.5655 82.2227 88.2932 81.1731 88.9534C80.4923 89.3812 80.1223 90.1619 79.8708 90.9258C79.6193 91.6903 79.4433 92.496 79.0028 93.1686C78.1666 94.4465 76.0848 94.652 74.7226 94.3054Z" fill="white"/>
<path d="M72.8398 101.835V104.315H79.8389L79.6529 101.65L72.8398 101.835Z" fill="#F9EFCD"/>
<path d="M73.3055 102.993H71.444C69.7804 102.993 68.3688 101.772 68.1273 100.125L67.7766 97.7299C67.5738 96.3433 68.6471 95.0998 70.0474 95.0998H72.8418V96.3396H69.8971C69.2755 96.3396 68.8006 96.8955 68.898 97.51L69.2406 99.681C69.4365 100.922 70.5049 101.836 71.7604 101.836H73.1732L73.3055 102.993Z" fill="#F9EFCD"/>
<path d="M81.4688 93.0737V101.119C81.4688 102.154 80.6308 102.993 79.5968 102.993H73.3041C72.2869 102.993 71.4582 102.182 71.432 101.165L71.2305 93.0737H81.4688Z" fill="white"/>
<path d="M81.4702 93.0737V101.119C81.4702 102.154 80.6321 102.993 79.5981 102.993H77.8789V93.0737H81.4702Z" fill="#F9EFCD"/>
<path d="M169.817 106.375H166.617V177.566H169.817V106.375Z" fill="#F9EFCD"/>
<path d="M204.368 106.375H201.168V176.088H204.368V106.375Z" fill="white"/>
<path d="M67.7977 106.376H64.5977V177.567H67.7977V106.376Z" fill="#F9EFCD"/>
<path d="M204.545 107.599H167.674V128.662H204.545V107.599Z" fill="#F9EFCD"/>
<path d="M64.5977 104.315V128.661H96.9627C101.257 128.661 105.375 126.954 108.41 123.915H129.783L130.047 124.167C133.073 127.049 137.095 128.649 141.272 128.633C151.389 128.593 169.743 128.537 169.743 128.662C169.743 128.834 169.743 104.315 169.743 104.315H64.5977V104.315Z" fill="#F9EFCD"/>
<path d="M208.304 104.315H64.5977V113.101H208.304V104.315Z" fill="#B76D5C"/>
<path d="M208.304 104.315H169.744V113.101H208.304V104.315Z" fill="#B25842"/>
<path d="M204.367 163.687H166.619V166.89H204.367V163.687Z" fill="#F9EFCD"/>
<path d="M178.13 132.619C178.611 135.322 177.539 138.57 179.43 140.558C180.733 141.93 183.009 142.083 184.179 143.57C185.436 145.164 184.851 147.448 184.756 149.476C184.613 152.489 185.854 155.485 187.916 157.657C188.954 158.754 191.05 161.011 192.852 161.087C193.294 161.106 193.718 160.994 194.105 160.703C194.231 160.609 194.35 160.509 194.465 160.407C197.766 157.459 197.213 150.96 195.278 147.55C193.961 145.231 191.803 143.159 191.757 140.491C191.722 138.369 193.085 136.338 192.741 134.242C192.272 131.412 189.064 130.008 187.459 127.632C185.237 124.341 186.381 119.669 184.4 116.228C182.746 113.355 178.872 111.999 175.79 113.214C172.706 114.428 170.796 118.064 171.546 121.293C172.542 125.595 177.353 128.274 178.13 132.619Z" fill="#80B230"/>
<path d="M192.854 161.087C193.295 161.106 193.72 160.993 194.107 160.702C194.233 160.609 194.352 160.509 194.467 160.406C194.206 159.563 193.913 158.727 193.674 157.912C193.096 155.942 192.512 153.974 191.889 152.016C190.666 148.168 189.333 144.352 187.937 140.562C186.541 136.772 185.063 133.011 183.51 129.282C182.743 127.438 181.953 125.604 181.132 123.781C180.307 121.948 179.582 119.921 178.449 118.254C177.992 117.584 176.9 118.021 177.126 118.832C177.669 120.774 178.712 122.641 179.51 124.49C180.323 126.376 181.129 128.264 181.921 130.16C183.45 133.824 184.903 137.523 186.286 141.244C187.669 144.97 188.961 148.724 190.21 152.494C190.856 154.444 191.498 156.397 192.105 158.36C192.376 159.237 192.6 160.167 192.854 161.087Z" fill="#6B9117"/>
<path d="M203.585 129.62C204.118 132.313 206.294 134.95 205.255 137.489C204.538 139.241 202.473 140.211 201.922 142.021C201.33 143.964 202.702 145.879 203.527 147.735C204.753 150.49 204.684 153.732 203.552 156.506C202.982 157.905 201.849 160.77 200.196 161.495C199.793 161.673 199.355 161.723 198.89 161.593C198.739 161.552 198.591 161.502 198.447 161.448C194.302 159.901 192.458 153.645 193.024 149.764C193.409 147.125 194.668 144.41 193.743 141.907C193.005 139.917 190.998 138.52 190.559 136.442C189.969 133.636 192.448 131.16 193.082 128.364C193.958 124.489 191.197 120.552 191.794 116.626C192.293 113.349 195.41 110.676 198.722 110.689C202.036 110.699 205.134 113.392 205.608 116.673C206.242 121.043 202.732 125.289 203.585 129.62Z" fill="#8BC53F"/>
<path d="M200.198 161.495C199.794 161.673 199.356 161.723 198.891 161.592C198.74 161.551 198.593 161.501 198.448 161.447C198.385 160.566 198.355 159.681 198.282 158.835C198.106 156.789 197.936 154.743 197.806 152.693C197.549 148.663 197.406 144.622 197.331 140.584C197.257 136.545 197.27 132.503 197.363 128.465C197.408 126.469 197.479 124.472 197.582 122.476C197.686 120.467 197.626 118.315 198.077 116.35C198.259 115.56 199.436 115.57 199.519 116.408C199.718 118.415 199.423 120.533 199.351 122.546C199.278 124.599 199.212 126.651 199.162 128.705C199.067 132.675 199.054 136.649 199.117 140.619C199.181 144.593 199.338 148.561 199.544 152.526C199.649 154.579 199.759 156.631 199.906 158.682C199.972 159.598 200.1 160.545 200.198 161.495Z" fill="#80B230"/>
<path d="M219.602 132.619C219.121 135.322 220.192 138.57 218.302 140.558C216.998 141.93 214.722 142.083 213.552 143.57C212.296 145.164 212.88 147.448 212.975 149.476C213.117 152.489 211.877 155.485 209.815 157.657C208.777 158.754 206.681 161.011 204.878 161.087C204.437 161.106 204.012 160.994 203.625 160.703C203.499 160.609 203.381 160.509 203.265 160.407C199.965 157.459 200.518 150.96 202.453 147.55C203.77 145.231 205.928 143.159 205.974 140.491C206.009 138.369 204.646 136.338 204.99 134.242C205.459 131.412 208.667 130.008 210.272 127.632C212.494 124.341 211.35 119.669 213.331 116.228C214.985 113.355 218.859 111.999 221.94 113.214C225.024 114.428 226.935 118.064 226.186 121.293C225.189 125.595 220.378 128.274 219.602 132.619Z" fill="#80B230"/>
<path d="M204.877 161.086C204.436 161.106 204.011 160.993 203.624 160.702C203.498 160.609 203.379 160.509 203.264 160.406C203.526 159.563 203.818 158.727 204.057 157.912C204.635 155.942 205.219 153.974 205.842 152.016C207.065 148.168 208.398 144.352 209.793 140.562C211.189 136.772 212.668 133.01 214.22 129.282C214.987 127.438 215.777 125.604 216.598 123.781C217.423 121.947 218.148 119.921 219.282 118.254C219.738 117.584 220.831 118.021 220.604 118.832C220.061 120.774 219.018 122.641 218.22 124.49C217.408 126.376 216.602 128.264 215.81 130.16C214.28 133.824 212.827 137.522 211.444 141.244C210.062 144.97 208.769 148.724 207.521 152.493C206.874 154.444 206.232 156.396 205.625 158.36C205.355 159.237 205.131 160.166 204.877 161.086Z" fill="#6B9117"/>
<path d="M184.176 158.032C184.176 158.032 184.588 170.963 188.024 173.302C193.261 173.302 205.466 173.302 210.702 173.302C214.138 170.963 214.551 158.032 214.551 158.032H184.176Z" fill="#3E3F59"/>
<path d="M183.146 170L184.04 173.281C184.73 175.811 187.026 177.566 189.647 177.566H209.083C211.704 177.566 214 175.811 214.69 173.281L215.583 170H183.146Z" fill="#F9EFCD"/>
<path d="M112.708 37.0754H65.7824C63.8367 37.0754 62.2598 38.6537 62.2598 40.6011V68.1249C62.2598 70.0717 63.8367 71.6506 65.7824 71.6506H109.679L116.23 78.208C116.23 78.208 116.23 68.4409 116.23 68.1249V40.6011C116.23 38.6537 114.653 37.0754 112.708 37.0754Z" fill="white"/>
<path d="M113.435 39.6893H65.0547V68.9912H113.435V39.6893Z" fill="#3E3F59"/>
<path d="M109.115 42.5092H68.9122C68.5896 42.5092 68.3281 42.2475 68.3281 41.9246C68.3281 41.6017 68.5896 41.34 68.9122 41.34H109.115C109.438 41.34 109.699 41.6017 109.699 41.9246C109.699 42.2475 109.438 42.5092 109.115 42.5092Z" fill="#EB008B"/>
<path d="M109.115 57.8481H68.9122C68.5896 57.8481 68.3281 57.5864 68.3281 57.2635C68.3281 56.9406 68.5896 56.6789 68.9122 56.6789H109.115C109.438 56.6789 109.699 56.9406 109.699 57.2635C109.699 57.5864 109.438 57.8481 109.115 57.8481Z" fill="#EB008B"/>
<path d="M84.5808 45.6734H68.9122C68.5896 45.6734 68.3281 45.4117 68.3281 45.0887C68.3281 44.7658 68.5896 44.5042 68.9122 44.5042H84.5808C84.9035 44.5042 85.1649 44.7658 85.1649 45.0887C85.1649 45.4117 84.9035 45.6734 84.5808 45.6734Z" fill="#8BC53F"/>
<path d="M84.5808 61.4938H68.9122C68.5896 61.4938 68.3281 61.2321 68.3281 60.9092C68.3281 60.5863 68.5896 60.3246 68.9122 60.3246H84.5808C84.9035 60.3246 85.1649 60.5863 85.1649 60.9092C85.1649 61.2321 84.9035 61.4938 84.5808 61.4938Z" fill="#8BC53F"/>
<path d="M84.5808 64.7954H68.9122C68.5896 64.7954 68.3281 64.5337 68.3281 64.2108C68.3281 63.8879 68.5896 63.6262 68.9122 63.6262H84.5808C84.9035 63.6262 85.1649 63.8879 85.1649 64.2108C85.1649 64.5337 84.9035 64.7954 84.5808 64.7954Z" fill="#8BC53F"/>
<path d="M88.6394 49.7319H72.9708C72.6482 49.7319 72.3867 49.4702 72.3867 49.1473C72.3867 48.8244 72.6482 48.5627 72.9708 48.5627H88.6394C88.962 48.5627 89.2235 48.8244 89.2235 49.1473C89.2235 49.4702 88.962 49.7319 88.6394 49.7319Z" fill="#8BC53F"/>
<path d="M88.6394 54.1338H72.9708C72.6482 54.1338 72.3867 53.8721 72.3867 53.5492C72.3867 53.2263 72.6482 52.9646 72.9708 52.9646H88.6394C88.962 52.9646 89.2235 53.2263 89.2235 53.5492C89.2235 53.8721 88.962 54.1338 88.6394 54.1338Z" fill="#8BC53F"/>
<path d="M107.124 49.7319H91.4552C91.1326 49.7319 90.8711 49.4702 90.8711 49.1473C90.8711 48.8244 91.1326 48.5627 91.4552 48.5627H107.124C107.446 48.5627 107.708 48.8244 107.708 49.1473C107.708 49.4702 107.446 49.7319 107.124 49.7319Z" fill="#8BC53F"/>
<path d="M147.632 0.144287H189.903C191.655 0.144287 193.076 1.56644 193.076 3.32025V28.1146C193.076 29.8685 191.655 31.2906 189.903 31.2906H150.36L144.459 37.1978C144.459 37.1978 144.459 28.3994 144.459 28.1153V3.32088C144.459 1.56582 145.879 0.144287 147.632 0.144287Z" fill="white"/>
<path d="M146.978 28.8943L190.561 28.8943V2.49849L146.978 2.49849V28.8943Z" fill="#3E3F59"/>
<path d="M160.805 18.8566H183.118C183.409 18.8566 183.644 18.6205 183.644 18.33C183.644 18.039 183.408 17.8035 183.118 17.8035H160.805C160.515 17.8035 160.279 18.0396 160.279 18.33C160.279 18.6205 160.515 18.8566 160.805 18.8566Z" fill="#EB008B"/>
<path d="M164.342 8.23944H186.655C186.946 8.23944 187.181 8.00335 187.181 7.71292C187.181 7.42187 186.945 7.1864 186.655 7.1864H164.342C164.052 7.1864 163.816 7.42249 163.816 7.71292C163.816 8.00335 164.052 8.23944 164.342 8.23944Z" fill="#EB008B"/>
<path d="M172.965 22.1406H187.08C187.371 22.1406 187.606 21.9045 187.606 21.6141C187.606 21.3231 187.37 21.0876 187.08 21.0876H172.965C172.675 21.0876 172.439 21.3237 172.439 21.6141C172.439 21.9045 172.675 22.1406 172.965 22.1406Z" fill="#8BC53F"/>
<path d="M172.965 25.1143H187.08C187.371 25.1143 187.606 24.8782 187.606 24.5877C187.606 24.2967 187.37 24.0612 187.08 24.0612H172.965C172.675 24.0612 172.439 24.2973 172.439 24.5877C172.439 24.8788 172.675 25.1143 172.965 25.1143Z" fill="#EB008B"/>
<path d="M155.368 22.1406H169.483C169.773 22.1406 170.009 21.9045 170.009 21.6141C170.009 21.3231 169.773 21.0876 169.483 21.0876H155.368C155.077 21.0876 154.842 21.3237 154.842 21.6141C154.842 21.9045 155.077 22.1406 155.368 22.1406Z" fill="#8BC53F"/>
<path d="M155.368 25.1143H169.483C169.773 25.1143 170.009 24.8782 170.009 24.5877C170.009 24.2967 169.773 24.0612 169.483 24.0612H155.368C155.077 24.0612 154.842 24.2973 154.842 24.5877C154.842 24.8788 155.077 25.1143 155.368 25.1143Z" fill="#EB008B"/>
<path d="M172.965 12.376H187.08C187.371 12.376 187.606 12.1399 187.606 11.8495C187.606 11.5585 187.37 11.323 187.08 11.323H172.965C172.675 11.323 172.439 11.5591 172.439 11.8495C172.439 12.1399 172.675 12.376 172.965 12.376Z" fill="#8BC53F"/>
<path d="M172.965 15.3501H187.08C187.371 15.3501 187.606 15.1141 187.606 14.8236C187.606 14.5326 187.37 14.2971 187.08 14.2971H172.965C172.675 14.2971 172.439 14.5332 172.439 14.8236C172.439 15.1141 172.675 15.3501 172.965 15.3501Z" fill="#EB008B"/>
<path d="M155.368 12.376H169.483C169.773 12.376 170.009 12.1399 170.009 11.8495C170.009 11.5585 169.773 11.323 169.483 11.323H155.368C155.077 11.323 154.842 11.5591 154.842 11.8495C154.842 12.1399 155.077 12.376 155.368 12.376Z" fill="#8BC53F"/>
<path d="M155.368 15.3501H169.483C169.773 15.3501 170.009 15.1141 170.009 14.8236C170.009 14.5326 169.773 14.2971 169.483 14.2971H155.368C155.077 14.2971 154.842 14.5332 154.842 14.8236C154.842 15.1141 155.077 15.3501 155.368 15.3501Z" fill="#EB008B"/>
<path d="M126.074 9.867H106.225C104.874 9.867 103.779 10.9631 103.779 12.3147V22.8269C103.779 24.1785 104.874 25.2746 106.225 25.2746H111.726C112.864 25.2746 113.897 25.9448 114.361 26.9854L115.645 29.8603L117.078 26.9035C117.561 25.9073 118.57 25.2753 119.676 25.2753H126.074C127.425 25.2753 128.52 24.1798 128.52 22.8276V12.3153C128.52 10.9631 127.425 9.867 126.074 9.867Z" fill="white"/>
<path d="M107.615 17.5318L111.389 19.325C111.602 19.4255 111.751 19.5254 111.836 19.6235C111.92 19.7216 111.963 19.8409 111.963 19.9801C111.963 20.1425 111.912 20.2743 111.812 20.3749C111.711 20.4754 111.578 20.526 111.412 20.526C111.343 20.526 111.266 20.5141 111.183 20.491C111.1 20.4679 110.998 20.4292 110.878 20.3749L106.31 18.2688C106.287 18.2569 106.251 18.2419 106.201 18.2226C105.791 18.0333 105.586 17.8104 105.586 17.5555C105.586 17.2963 105.801 17.0684 106.229 16.871L106.275 16.8423L110.878 14.6956C111.033 14.6263 111.147 14.5807 111.22 14.5594C111.294 14.5382 111.358 14.5276 111.412 14.5276C111.578 14.5276 111.711 14.5782 111.812 14.6787C111.912 14.7793 111.963 14.9111 111.963 15.0735C111.963 15.2128 111.919 15.3339 111.832 15.4363C111.746 15.5388 111.598 15.6406 111.389 15.7411L107.615 17.5318Z" fill="#3E3F59"/>
<path d="M118.383 13.9805L114.986 21.2624C114.882 21.4903 114.785 21.649 114.697 21.7383C114.608 21.827 114.503 21.872 114.383 21.872C114.206 21.872 114.048 21.8158 113.911 21.704C113.774 21.5915 113.705 21.4522 113.705 21.2861C113.705 21.1737 113.757 21.0001 113.862 20.764L113.874 20.7409L117.265 13.4708C117.373 13.2347 117.472 13.0723 117.561 12.9836C117.65 12.8949 117.754 12.85 117.874 12.85C118.048 12.85 118.205 12.9062 118.344 13.018C118.483 13.1304 118.552 13.2697 118.552 13.4358C118.552 13.5058 118.541 13.5789 118.518 13.6563C118.494 13.7331 118.449 13.8412 118.383 13.9805Z" fill="#3E3F59"/>
<path d="M124.49 17.5317L120.71 15.7386C120.506 15.638 120.36 15.5362 120.273 15.4338C120.186 15.3314 120.143 15.2102 120.143 15.0709C120.143 14.9085 120.191 14.7767 120.287 14.6762C120.384 14.5756 120.513 14.525 120.675 14.525C120.737 14.525 120.808 14.5369 120.887 14.56C120.966 14.5831 121.079 14.6275 121.227 14.6937L125.818 16.8403L125.864 16.8691C126.294 17.0664 126.508 17.2944 126.508 17.5536C126.508 17.8128 126.301 18.0351 125.887 18.2206C125.849 18.2438 125.818 18.2594 125.794 18.2669L121.209 20.3729C121.093 20.4273 120.994 20.466 120.911 20.4891C120.828 20.5122 120.749 20.5241 120.676 20.5241C120.514 20.5241 120.384 20.4747 120.288 20.376C120.191 20.2774 120.143 20.145 120.143 19.9788C120.143 19.8395 120.184 19.7209 120.268 19.6222C120.351 19.5235 120.499 19.4242 120.712 19.3236L124.49 17.5317Z" fill="#3E3F59"/>
<path d="M59.9438 55.5528H58.0718C57.8995 55.5528 57.7598 55.4129 57.7598 55.2405C57.7598 55.0682 57.8995 54.9283 58.0718 54.9283H59.9438C60.1161 54.9283 60.2559 55.0682 60.2559 55.2405C60.2559 55.4129 60.1161 55.5528 59.9438 55.5528ZM56.2534 55.2368C56.2016 55.2368 56.1498 55.2237 56.1011 55.1968C55.4783 54.8483 55.0147 54.2831 54.7963 53.6054C54.7439 53.4411 54.8337 53.2656 54.9978 53.2125C55.1613 53.1607 55.3373 53.25 55.3903 53.4143C55.5601 53.9414 55.9208 54.3811 56.4056 54.6522C56.556 54.7365 56.6097 54.9264 56.5254 55.0775C56.4687 55.1793 56.3626 55.2368 56.2534 55.2368ZM54.9741 51.9615C54.8019 51.9615 54.6621 51.8216 54.6621 51.6492V49.7755C54.6621 49.6031 54.8019 49.4632 54.9741 49.4632C55.1464 49.4632 55.2861 49.6031 55.2861 49.7755V51.6492C55.2861 51.8216 55.147 51.9615 54.9741 51.9615ZM54.9741 48.2141C54.8019 48.2141 54.6621 48.0742 54.6621 47.9018V46.0281C54.6621 45.8557 54.8019 45.7158 54.9741 45.7158C55.1464 45.7158 55.2861 45.8557 55.2861 46.0281V47.9018C55.2861 48.0742 55.147 48.2141 54.9741 48.2141ZM54.9741 44.4666C54.8019 44.4666 54.6621 44.3267 54.6621 44.1543V42.2806C54.6621 42.1082 54.8019 41.9683 54.9741 41.9683C55.1464 41.9683 55.2861 42.1082 55.2861 42.2806V44.1543C55.2861 44.3267 55.147 44.4666 54.9741 44.4666ZM54.9741 40.7192C54.8019 40.7192 54.6621 40.5793 54.6621 40.4069V38.5331C54.6621 38.3608 54.8019 38.2209 54.9741 38.2209C55.1464 38.2209 55.2861 38.3608 55.2861 38.5331V40.4069C55.2861 40.5793 55.147 40.7192 54.9741 40.7192ZM55.1975 36.9948C55.1669 36.9948 55.1364 36.9904 55.1058 36.9811C54.941 36.9305 54.8487 36.7556 54.8999 36.5907C55.0958 35.9537 55.4072 35.3653 55.824 34.8419C55.9314 34.707 56.1279 34.6851 56.2627 34.7926C56.3975 34.9 56.4194 35.0967 56.3127 35.2316C55.9445 35.6938 55.6699 36.2135 55.4964 36.7756C55.4546 36.9086 55.3311 36.9948 55.1975 36.9948ZM57.4758 34.1299C57.3685 34.1299 57.2643 34.0743 57.2056 33.975C57.1189 33.8257 57.1694 33.6346 57.318 33.5478C57.8946 33.2111 58.5217 32.9888 59.1813 32.8864C59.351 32.8626 59.5114 32.9769 59.5376 33.1468C59.5638 33.3173 59.4471 33.4766 59.2768 33.5034C58.6946 33.594 58.141 33.7901 57.6325 34.0874C57.5838 34.1161 57.5295 34.1299 57.4758 34.1299ZM128.493 33.4478C128.321 33.4478 128.182 33.3086 128.181 33.1356C128.181 32.9632 128.32 32.8233 128.493 32.8233C129.087 32.822 129.669 32.7208 130.223 32.5216C130.384 32.4623 130.563 32.5472 130.622 32.7102C130.68 32.8726 130.596 33.0512 130.434 33.11C129.812 33.3335 129.159 33.4472 128.493 33.4478ZM126.621 33.4478H124.749C124.577 33.4478 124.437 33.3079 124.437 33.1356C124.437 32.9632 124.577 32.8233 124.749 32.8233H126.621C126.793 32.8233 126.933 32.9632 126.933 33.1356C126.933 33.3086 126.793 33.4478 126.621 33.4478ZM122.877 33.4478H121.005C120.832 33.4478 120.693 33.3079 120.693 33.1356C120.693 32.9632 120.832 32.8233 121.005 32.8233H122.877C123.049 32.8233 123.189 32.9632 123.189 33.1356C123.189 33.3086 123.049 33.4478 122.877 33.4478ZM119.133 33.4478H117.26C117.088 33.4478 116.948 33.3079 116.948 33.1356C116.948 32.9632 117.088 32.8233 117.26 32.8233H119.133C119.305 32.8233 119.445 32.9632 119.445 33.1356C119.445 33.3086 119.305 33.4478 119.133 33.4478ZM115.388 33.4478H113.516C113.344 33.4478 113.204 33.3079 113.204 33.1356C113.204 32.9632 113.344 32.8233 113.516 32.8233H115.388C115.561 32.8233 115.7 32.9632 115.7 33.1356C115.7 33.3086 115.561 33.4478 115.388 33.4478ZM111.644 33.4478H109.772C109.6 33.4478 109.46 33.3079 109.46 33.1356C109.46 32.9632 109.6 32.8233 109.772 32.8233H111.644C111.816 32.8233 111.956 32.9632 111.956 33.1356C111.956 33.3086 111.816 33.4478 111.644 33.4478ZM107.9 33.4478H106.028C105.856 33.4478 105.716 33.3079 105.716 33.1356C105.716 32.9632 105.856 32.8233 106.028 32.8233H107.9C108.072 32.8233 108.212 32.9632 108.212 33.1356C108.212 33.3086 108.072 33.4478 107.9 33.4478ZM104.156 33.4478H102.284C102.112 33.4478 101.972 33.3079 101.972 33.1356C101.972 32.9632 102.112 32.8233 102.284 32.8233H104.156C104.328 32.8233 104.468 32.9632 104.468 33.1356C104.468 33.3086 104.328 33.4478 104.156 33.4478ZM100.412 33.4478H98.5397C98.3675 33.4478 98.2277 33.3079 98.2277 33.1356C98.2277 32.9632 98.3675 32.8233 98.5397 32.8233H100.412C100.584 32.8233 100.724 32.9632 100.724 33.1356C100.724 33.3086 100.584 33.4478 100.412 33.4478ZM96.6677 33.4478H94.7956C94.6234 33.4478 94.4836 33.3079 94.4836 33.1356C94.4836 32.9632 94.6234 32.8233 94.7956 32.8233H96.6677C96.8399 32.8233 96.9797 32.9632 96.9797 33.1356C96.9797 33.3086 96.8399 33.4478 96.6677 33.4478ZM92.9235 33.4478H91.0515C90.8792 33.4478 90.7394 33.3079 90.7394 33.1356C90.7394 32.9632 90.8792 32.8233 91.0515 32.8233H92.9235C93.0958 32.8233 93.2355 32.9632 93.2355 33.1356C93.2355 33.3086 93.0958 33.4478 92.9235 33.4478ZM89.1794 33.4478H87.3073C87.1351 33.4478 86.9953 33.3079 86.9953 33.1356C86.9953 32.9632 87.1351 32.8233 87.3073 32.8233H89.1794C89.3516 32.8233 89.4914 32.9632 89.4914 33.1356C89.4914 33.3086 89.3516 33.4478 89.1794 33.4478ZM85.4352 33.4478H83.5632C83.3909 33.4478 83.2512 33.3079 83.2512 33.1356C83.2512 32.9632 83.3909 32.8233 83.5632 32.8233H85.4352C85.6075 32.8233 85.7473 32.9632 85.7473 33.1356C85.7473 33.3086 85.6075 33.4478 85.4352 33.4478ZM81.6911 33.4478H79.819C79.6468 33.4478 79.507 33.3079 79.507 33.1356C79.507 32.9632 79.6468 32.8233 79.819 32.8233H81.6911C81.8633 32.8233 82.0031 32.9632 82.0031 33.1356C82.0031 33.3086 81.8633 33.4478 81.6911 33.4478ZM77.947 33.4478H76.0749C75.9026 33.4478 75.7629 33.3079 75.7629 33.1356C75.7629 32.9632 75.9026 32.8233 76.0749 32.8233H77.947C78.1192 32.8233 78.259 32.9632 78.259 33.1356C78.259 33.3086 78.1192 33.4478 77.947 33.4478ZM74.2028 33.4478H72.3307C72.1585 33.4478 72.0187 33.3079 72.0187 33.1356C72.0187 32.9632 72.1585 32.8233 72.3307 32.8233H74.2028C74.375 32.8233 74.5148 32.9632 74.5148 33.1356C74.5148 33.3086 74.375 33.4478 74.2028 33.4478ZM70.4587 33.4478H68.5866C68.4144 33.4478 68.2746 33.3079 68.2746 33.1356C68.2746 32.9632 68.4144 32.8233 68.5866 32.8233H70.4587C70.6309 32.8233 70.7707 32.9632 70.7707 33.1356C70.7707 33.3086 70.6309 33.4478 70.4587 33.4478ZM66.7145 33.4478H64.8424C64.6702 33.4478 64.5304 33.3079 64.5304 33.1356C64.5304 32.9632 64.6702 32.8233 64.8424 32.8233H66.7145C66.8867 32.8233 67.0265 32.9632 67.0265 33.1356C67.0265 33.3086 66.8867 33.4478 66.7145 33.4478ZM62.9704 33.4478H61.0983C60.9261 33.4478 60.7863 33.3079 60.7863 33.1356C60.7863 32.9632 60.9261 32.8233 61.0983 32.8233H62.9704C63.1426 32.8233 63.2824 32.9632 63.2824 33.1356C63.2824 33.3086 63.1426 33.4478 62.9704 33.4478ZM131.947 32.2056C131.856 32.2056 131.767 32.1668 131.706 32.0919C131.596 31.9589 131.615 31.7621 131.748 31.6522C132.205 31.275 132.59 30.8271 132.893 30.32C132.982 30.172 133.173 30.1239 133.321 30.2126C133.469 30.3012 133.517 30.493 133.428 30.641C133.088 31.2094 132.657 31.7122 132.145 32.1344C132.087 32.1818 132.017 32.2056 131.947 32.2056ZM133.828 29.0521C133.808 29.0521 133.788 29.0502 133.768 29.0465C133.599 29.0134 133.488 28.8491 133.521 28.6798C133.585 28.3544 133.617 28.0209 133.617 27.688V26.8736C133.617 26.7012 133.757 26.5613 133.929 26.5613C134.101 26.5613 134.241 26.7012 134.241 26.8736V27.688C134.241 28.0609 134.205 28.4356 134.133 28.8004C134.105 28.9484 133.974 29.0521 133.828 29.0521ZM133.929 25.3115C133.757 25.3115 133.617 25.1716 133.617 24.9992V23.1255C133.617 22.9531 133.757 22.8132 133.929 22.8132C134.102 22.8132 134.241 22.9531 134.241 23.1255V24.9992C134.241 25.1716 134.102 25.3115 133.929 25.3115ZM133.929 21.5641C133.757 21.5641 133.617 21.4242 133.617 21.2518V19.378C133.617 19.2057 133.757 19.0658 133.929 19.0658C134.102 19.0658 134.241 19.2057 134.241 19.378V21.2518C134.241 21.4242 134.102 21.5641 133.929 21.5641ZM133.929 17.8166C133.757 17.8166 133.617 17.6767 133.617 17.5043V15.6306C133.617 15.4582 133.757 15.3183 133.929 15.3183C134.102 15.3183 134.241 15.4582 134.241 15.6306V17.5043C134.241 17.6767 134.102 17.8166 133.929 17.8166ZM133.929 14.0692C133.757 14.0692 133.617 13.9292 133.617 13.7569V11.8831C133.617 11.7108 133.757 11.5709 133.929 11.5709C134.102 11.5709 134.241 11.7108 134.241 11.8831V13.7569C134.241 13.9292 134.102 14.0692 133.929 14.0692ZM133.929 10.3217C133.757 10.3217 133.617 10.1818 133.617 10.0094V8.13569C133.617 7.9633 133.757 7.8234 133.929 7.8234C134.102 7.8234 134.241 7.9633 134.241 8.13569V10.0094C134.241 10.1818 134.102 10.3217 133.929 10.3217ZM133.966 6.57612C133.951 6.57612 133.937 6.57487 133.923 6.573C133.752 6.54927 133.633 6.39188 133.657 6.22074C133.75 5.55057 134.012 4.90788 134.416 4.36138C134.518 4.22335 134.713 4.19274 134.852 4.29642C134.99 4.39885 135.02 4.59434 134.917 4.733C134.575 5.19519 134.353 5.73919 134.274 6.30693C134.253 6.46308 134.118 6.57612 133.966 6.57612ZM136.099 3.68496C135.982 3.68496 135.869 3.61876 135.816 3.50508C135.743 3.34894 135.81 3.16344 135.967 3.08974C136.51 2.83491 137.091 2.70563 137.695 2.70563H137.919C138.091 2.70563 138.231 2.84553 138.231 3.01792C138.231 3.1903 138.091 3.3302 137.919 3.3302H137.695C137.184 3.3302 136.691 3.4395 136.231 3.65498C136.188 3.67497 136.143 3.68496 136.099 3.68496ZM140.002 3.3302H139.79C139.618 3.3302 139.478 3.1903 139.478 3.01792C139.478 2.84553 139.618 2.70563 139.79 2.70563H140.002C140.175 2.70563 140.314 2.84553 140.314 3.01792C140.314 3.1903 140.175 3.3302 140.002 3.3302Z" fill="white"/>
<path d="M60.9802 55.3784C60.9802 56.3322 60.2076 57.1054 59.2547 57.1054C58.3018 57.1054 57.5293 56.3322 57.5293 55.3784C57.5293 54.4247 58.3018 53.6515 59.2547 53.6515C60.2076 53.6515 60.9802 54.4247 60.9802 55.3784Z" fill="white"/>
<path d="M140.519 3.24514C140.519 4.19887 139.747 4.97209 138.794 4.97209C137.841 4.97209 137.068 4.19887 137.068 3.24514C137.068 2.29141 137.841 1.51819 138.794 1.51819C139.747 1.51819 140.519 2.29141 140.519 3.24514Z" fill="white"/>
<path d="M184.373 88.5059C184.201 88.5059 184.061 88.366 184.061 88.1936V86.5204C184.061 86.348 184.201 86.2081 184.373 86.2081C184.546 86.2081 184.685 86.348 184.685 86.5204V88.1936C184.685 88.366 184.546 88.5059 184.373 88.5059ZM184.373 84.9589C184.201 84.9589 184.061 84.819 184.061 84.6466V82.7729C184.061 82.6005 184.201 82.4606 184.373 82.4606C184.546 82.4606 184.685 82.6005 184.685 82.7729V84.6466C184.685 84.819 184.546 84.9589 184.373 84.9589ZM184.373 81.2115C184.201 81.2115 184.061 81.0716 184.061 80.8992V79.0254C184.061 78.8531 184.201 78.7132 184.373 78.7132C184.546 78.7132 184.685 78.8531 184.685 79.0254V80.8992C184.685 81.0716 184.546 81.2115 184.373 81.2115ZM184.373 77.464C184.201 77.464 184.061 77.3241 184.061 77.1517V75.278C184.061 75.1056 184.201 74.9657 184.373 74.9657C184.546 74.9657 184.685 75.1056 184.685 75.278V77.1517C184.685 77.3241 184.546 77.464 184.373 77.464ZM184.373 73.7166C184.201 73.7166 184.061 73.5766 184.061 73.4043V71.5305C184.061 71.3582 184.201 71.2183 184.373 71.2183C184.546 71.2183 184.685 71.3582 184.685 71.5305V73.4043C184.685 73.5766 184.546 73.7166 184.373 73.7166ZM184.373 69.9691C184.201 69.9691 184.061 69.8292 184.061 69.6568V67.7831C184.061 67.6107 184.201 67.4708 184.373 67.4708C184.546 67.4708 184.685 67.6107 184.685 67.7831V69.6568C184.685 69.8292 184.546 69.9691 184.373 69.9691ZM184.373 66.2216C184.201 66.2216 184.061 66.0817 184.061 65.9094V64.0356C184.061 63.8633 184.201 63.7234 184.373 63.7234C184.546 63.7234 184.685 63.8633 184.685 64.0356V65.9094C184.685 66.0817 184.546 66.2216 184.373 66.2216ZM184.373 62.4742C184.201 62.4742 184.061 62.3343 184.061 62.1619V60.2882C184.061 60.1158 184.201 59.9759 184.373 59.9759C184.546 59.9759 184.685 60.1158 184.685 60.2882V62.1619C184.685 62.3343 184.546 62.4742 184.373 62.4742ZM184.373 58.7267C184.201 58.7267 184.061 58.5868 184.061 58.4145V56.5407C184.061 56.3684 184.201 56.2284 184.373 56.2284C184.546 56.2284 184.685 56.3684 184.685 56.5407V58.4145C184.685 58.5868 184.546 58.7267 184.373 58.7267ZM184.373 54.9793C184.201 54.9793 184.061 54.8394 184.061 54.667V52.7933C184.061 52.6209 184.201 52.481 184.373 52.481C184.546 52.481 184.685 52.6209 184.685 52.7933V54.667C184.685 54.8394 184.546 54.9793 184.373 54.9793ZM184.373 51.2318C184.201 51.2318 184.061 51.0919 184.061 50.9196V49.0458C184.061 48.8734 184.201 48.7335 184.373 48.7335C184.546 48.7335 184.685 48.8734 184.685 49.0458V50.9196C184.685 51.0919 184.546 51.2318 184.373 51.2318ZM184.373 47.4844C184.201 47.4844 184.061 47.3445 184.061 47.1721V45.2984C184.061 45.126 184.201 44.9861 184.373 44.9861C184.546 44.9861 184.685 45.126 184.685 45.2984V47.1721C184.685 47.3445 184.546 47.4844 184.373 47.4844ZM184.355 43.7376C184.195 43.7376 184.059 43.6145 184.045 43.4515C183.995 42.8669 183.825 42.3104 183.542 41.7976C183.458 41.6465 183.513 41.4566 183.663 41.3729C183.814 41.2899 184.003 41.3436 184.088 41.4947C184.414 42.0849 184.609 42.7258 184.667 43.3984C184.682 43.5702 184.554 43.7213 184.383 43.7357C184.374 43.7369 184.365 43.7376 184.355 43.7376ZM182.598 40.5529C182.533 40.5529 182.466 40.5322 182.409 40.4891C181.942 40.1338 181.416 39.8864 180.846 39.7528C180.678 39.7134 180.574 39.5454 180.613 39.3774C180.652 39.21 180.814 39.1051 180.989 39.1444C181.644 39.2981 182.249 39.5829 182.787 39.9914C182.924 40.0957 182.951 40.2918 182.847 40.4292C182.785 40.5104 182.692 40.5529 182.598 40.5529ZM179.054 39.6435H177.182C177.01 39.6435 176.87 39.5036 176.87 39.3312C176.87 39.1588 177.01 39.0189 177.182 39.0189H179.054C179.226 39.0189 179.366 39.1588 179.366 39.3312C179.366 39.5036 179.227 39.6435 179.054 39.6435ZM175.31 39.6435H173.438C173.266 39.6435 173.126 39.5036 173.126 39.3312C173.126 39.1588 173.266 39.0189 173.438 39.0189H175.31C175.482 39.0189 175.622 39.1588 175.622 39.3312C175.622 39.5036 175.483 39.6435 175.31 39.6435ZM171.566 39.6435H169.694C169.522 39.6435 169.382 39.5036 169.382 39.3312C169.382 39.1588 169.522 39.0189 169.694 39.0189H171.566C171.738 39.0189 171.878 39.1588 171.878 39.3312C171.878 39.5036 171.739 39.6435 171.566 39.6435ZM167.822 39.6435H165.95C165.777 39.6435 165.638 39.5036 165.638 39.3312C165.638 39.1588 165.777 39.0189 165.95 39.0189H167.822C167.994 39.0189 168.134 39.1588 168.134 39.3312C168.134 39.5036 167.995 39.6435 167.822 39.6435ZM164.078 39.6435H162.206C162.033 39.6435 161.894 39.5036 161.894 39.3312C161.894 39.1588 162.033 39.0189 162.206 39.0189H164.078C164.25 39.0189 164.39 39.1588 164.39 39.3312C164.39 39.5036 164.25 39.6435 164.078 39.6435ZM160.333 39.6435H158.461C158.289 39.6435 158.149 39.5036 158.149 39.3312C158.149 39.1588 158.289 39.0189 158.461 39.0189H160.333C160.506 39.0189 160.645 39.1588 160.645 39.3312C160.645 39.5036 160.506 39.6435 160.333 39.6435ZM156.589 39.6435H154.717C154.545 39.6435 154.405 39.5036 154.405 39.3312C154.405 39.1588 154.545 39.0189 154.717 39.0189H156.589C156.762 39.0189 156.901 39.1588 156.901 39.3312C156.901 39.5036 156.762 39.6435 156.589 39.6435ZM152.845 39.6435H150.973C150.801 39.6435 150.661 39.5036 150.661 39.3312C150.661 39.1588 150.801 39.0189 150.973 39.0189H152.845C153.017 39.0189 153.157 39.1588 153.157 39.3312C153.157 39.5036 153.018 39.6435 152.845 39.6435ZM149.101 39.6435H147.229C147.057 39.6435 146.917 39.5036 146.917 39.3312C146.917 39.1588 147.057 39.0189 147.229 39.0189H149.101C149.273 39.0189 149.413 39.1588 149.413 39.3312C149.413 39.5036 149.274 39.6435 149.101 39.6435ZM145.357 39.6435H143.485C143.313 39.6435 143.173 39.5036 143.173 39.3312C143.173 39.1588 143.313 39.0189 143.485 39.0189H145.357C145.529 39.0189 145.669 39.1588 145.669 39.3312C145.669 39.5036 145.53 39.6435 145.357 39.6435ZM141.613 39.6435H139.741C139.568 39.6435 139.429 39.5036 139.429 39.3312C139.429 39.1588 139.568 39.0189 139.741 39.0189H141.613C141.785 39.0189 141.925 39.1588 141.925 39.3312C141.925 39.5036 141.786 39.6435 141.613 39.6435ZM137.869 39.6435H135.997C135.825 39.6435 135.685 39.5036 135.685 39.3312C135.685 39.1588 135.825 39.0189 135.997 39.0189H137.869C138.041 39.0189 138.181 39.1588 138.181 39.3312C138.181 39.5036 138.041 39.6435 137.869 39.6435ZM134.125 39.6435H132.253C132.081 39.6435 131.941 39.5036 131.941 39.3312C131.941 39.1588 132.081 39.0189 132.253 39.0189H134.125C134.297 39.0189 134.437 39.1588 134.437 39.3312C134.437 39.5036 134.297 39.6435 134.125 39.6435ZM130.381 39.6435H128.509C128.337 39.6435 128.197 39.5036 128.197 39.3312C128.197 39.1588 128.337 39.0189 128.509 39.0189H130.381C130.553 39.0189 130.693 39.1588 130.693 39.3312C130.693 39.5036 130.553 39.6435 130.381 39.6435ZM126.654 39.4599C126.625 39.4599 126.596 39.4561 126.566 39.4467C125.921 39.2562 125.333 38.9371 124.819 38.4974C124.687 38.3856 124.672 38.1882 124.784 38.0571C124.896 37.9259 125.093 37.9103 125.224 38.0221C125.672 38.4037 126.183 38.6816 126.743 38.8471C126.908 38.8959 127.002 39.0695 126.954 39.235C126.913 39.3724 126.789 39.4599 126.654 39.4599ZM123.887 37.0996C123.771 37.0996 123.66 37.0346 123.606 36.9228C123.314 36.3164 123.157 35.6662 123.137 34.9898C123.132 34.8174 123.268 34.6737 123.439 34.6681C123.605 34.6706 123.755 34.7986 123.761 34.971C123.778 35.5594 123.915 36.1252 124.168 36.6518C124.243 36.8073 124.178 36.9934 124.022 37.0684C123.979 37.0902 123.933 37.0996 123.887 37.0996ZM123.447 33.4196C123.275 33.4196 123.135 33.2797 123.135 33.1073V31.2336C123.135 31.0612 123.275 30.9213 123.447 30.9213C123.619 30.9213 123.759 31.0612 123.759 31.2336V33.1073C123.759 33.2797 123.619 33.4196 123.447 33.4196ZM123.447 29.6721C123.275 29.6721 123.135 29.5322 123.135 29.3598V27.4861C123.135 27.3137 123.275 27.1738 123.447 27.1738C123.619 27.1738 123.759 27.3137 123.759 27.4861V29.3598C123.759 29.5322 123.619 29.6721 123.447 29.6721Z" fill="white"/>
</svg>
