<?xml version="1.0" encoding="UTF-8"?>
<svg version="1.1" viewBox="0 0 2048 437" width="1280" height="1280" xmlns="http://www.w3.org/2000/svg">
<path transform="translate(856,72)" d="m0 0h194v37l-191 1-6 2-5 5-1 4-1 30h204v38h-204l1 46 3 5 3 1 39 1h157l1 1v37h-201l-14-3-10-5-9-8-7-14-2-9-1-15v-101l2-18 4-11 6-9 8-7 11-5 9-2z" fill="#fff"/>
<path transform="translate(1927,105)" d="m0 0 4 1 16 15 10 9 24 22 10 9 7 7 9 14 4 13v10l-3 12-8 14-8 10-12 13-55 60-9 10-24 26-12 12-14 9-9 3-13 1-13-3-11-6-14-11-7-7-8-7-15-14-10-9-13-12-10-9-13-12-10-9-13-12-10-9-13-12-10-9-13-12-10-9-13-12-2-3 10-10 7-8 12-13 7 6 12 11 10 9 13 12 24 22 10 9 13 12 10 9 13 12 12 11 10 9 36 33 9 7 5 1 6-3 14-14 7-8 14-15 9-10 44-48 12-13 9-11 2-4-1-6-9-10-8-7-15-14-8-7-15-14-8-7-2-4 16-17 7-8z" fill="#fff"/>
<path transform="translate(303,72)" d="m0 0h199l15 2 12 4 10 6 9 9 7 14 3 14v27l-3 15-6 12-7 8-9 6-15 5-22 2h-135l-3-1v-37l147-1 9-3 3-5 1-5v-19l-3-8-5-4-6-2-162-1v170h-39l-1-14v-190z" fill="#fff"/>
<path transform="translate(1320,72)" d="m0 0h39v85h164v-85h39v208h-39v-85h-164v85h-39z" fill="#fff"/>
<path transform="translate(1831,8)" d="m0 0h10l10 2 12 5 10 7 10 9 8 7 8 8 7 10 5 10 2 9v7l-3 12-8 14-11 13-16 17-9 10-3 2-8-7-15-14-6-5 1-4 15-16 7-8 9-10 2-4-1-7-16-15-8-6-3-1h-10l-10 6-15 16-9 10-12 13-9 10-12 13-11 12-4 5 2 4 10 9 13 12 12 11 10 9 13 12 10 9 13 12 12 11 10 9 13 12 10 9 8 7-1 4-8 8-7 8-12 13-8-6-7-7-8-7-13-12-12-11-10-9-15-14-8-7-15-14-8-7-15-14-8-7-15-14-8-7-15-14-4-3 2-4 11-12 9-10 5-6h2l2-4 29-31 7-8 15-16 7-8 15-16 10-9 14-8z" fill="#fff"/>
<path transform="translate(31,72)" d="m0 0h39l1 1 1 163 3 4 3 1h150l4-2 2-7v-117l1-43h39v166l-3 14-5 10-6 7-10 6-13 4-8 1h-153l-16-3-12-6-8-8-6-12-2-8-1-9z" fill="#fff"/>
<path transform="translate(1122,72)" d="m0 0h166l7 1v36l-169 1-9 3-3 5-1 7v106l2 8 4 2 8 1 168 1v37h-180l-14-3-10-5-8-7-6-10-4-16v-125l3-14 6-11 7-7 14-7 9-2z" fill="#fff"/>
<path transform="translate(563,72)" d="m0 0h229l1 1v36l-1 1h-95v170h-39l-1-169-94-1z" fill="#fff"/>
<path transform="translate(1827,130)" d="m0 0 4 2 10 9 8 7 15 14 10 9 13 12 10 9 15 14 8 7 6 5 3 3-2 4-16 17-9 10-3 2-12-12-8-7-14-13-8-7-16-15-8-7-15-14-8-7-11-10 2-4 15-16 7-8z" fill="#fff"/>
<path transform="translate(510,325)" d="m0 0h22l16 3 9 5 6 7 4 12 1 9v9l-2 13-4 9-5 5-8 5-13 3h-31l-12-4-5-4-1 32h-13v-102h12l1 2-1 4 12-6zm-3 11-9 2-6 4-4 7-1 4v24l3 9 5 5 8 3h34l8-2 5-3 3-5 2-14v-10l-2-13-4-6-9-4-7-1z" fill="#fff"/>
<path transform="translate(1549,301)" d="m0 0h12v102l-1 1h-11v-11l-10 8-13 4h-28l-12-3-10-6-6-10-2-8v-26l4-12 7-8 8-4 16-3h22l15 3 6 4h2v-30zm-48 35-12 3-5 4-3 7-1 10v11l2 13 6 7 10 3h33l9-3 6-7 3-14v-9l-2-12-5-8-8-4-6-1z" fill="#fff"/>
<path transform="translate(1152,301)" d="m0 0h12l1 2-1 101h-12l-1-5 1-6h-2l-2 4-8 5-11 3h-28l-12-3-8-5-6-7-4-12-1-14 2-16 4-9 6-7 8-4 16-3h23l14 3 8 5v-31zm-48 35-12 3-5 4-3 8-1 10v9l2 13 3 5 5 4 8 2h34l8-3 5-5 3-7 1-17-2-14-4-6-3-3-12-3z" fill="#fff"/>
<path transform="translate(808,325)" d="m0 0h24l14 3 8 5 5 6 4 11 1 11v42l-1 1h-11l-1-1-1-7-7 6-10 3h-33l-13-3-8-5-4-6-1-4v-7l3-9 5-6 10-4 6-1h34l13 3 5 3-1-16-4-8-4-3-8-2h-27l-9 2-4 3-2 5h-12v-7l5-8 8-4zm-11 46-8 3-2 4v8l3 5 9 3h38l9-3 5-6v-6l-5-5-5-2-6-1z" fill="#fff"/>
<path transform="translate(1e3 325)" d="m0 0h21l16 4 6 4 7 8 3 8 1 7v11l-1 2h-76l3 15 4 6 9 3h37l7-2 3-3 2-5h11l1 5-3 7-5 5-11 4-6 1h-35l-12-3-8-5-6-7-3-9-1-14 1-14 4-12 5-7 10-6zm-3 11-9 2-6 4-3 4-2 8v7h64v-8l-4-10-7-5-9-2z" fill="#fff"/>
<path transform="translate(616,325)" d="m0 0h23l16 3 9 5 6 7 4 13v23l-3 12-6 8-7 5-9 3-6 1h-32l-12-3-8-5-6-7-3-8-2-12v-10l3-16 5-8 7-6 13-4zm-3 11-9 2-6 4-4 9-1 8v13l2 12 6 7 10 3h33l9-3 6-7 2-7v-25l-3-8-5-5-12-3z" fill="#fff"/>
<path transform="translate(315,325)" d="m0 0h23l16 3 8 4 7 8 3 8 1 4v26l-4 12-7 8-10 5-10 2h-32l-12-3-8-5-6-7-4-12v-26l4-12 7-8 8-4zm-3 11-9 2-5 3-4 7-2 12v11l2 12 4 6 4 3 8 2h33l9-3 5-5 3-8v-26l-3-8-7-6-10-2z" fill="#fff"/>
<path transform="translate(209,325)" d="m0 0h25l16 3 8 5 4 5 2 6v7h-12l-3-9-5-3-10-2h-27l-12 3-5 5-2 13v16l1 9 4 6 6 3 5 1h34l9-3 3-3 1-8h13v7l-4 9-5 5-11 4-6 1h-35l-12-3-8-5-4-5-3-7-2-15v-9l2-15 3-8 4-5 12-6z" fill="#fff"/>
<path transform="translate(112,325)" d="m0 0h20l13 3 8 5 5 8 2 9v53l-1 1h-11l-1-1-1-52-3-7-4-4-12-3h-21l-12 3-6 4-3 5-1 6-1 49h-12l-1-1v-76h13l1 11 5-5 6-4 10-3z" fill="#fff"/>
<path transform="translate(892,307)" d="m0 0h13v20h48v11h-48l1 45 3 7 7 2h15l8-2 3-4 1-3 1-12 1-1h10v12l-3 10-6 7-6 3-13 2h-10l-14-3-7-6-3-7-1-7v-43h-15v-11h15z" fill="#fff"/>
<path transform="translate(1393,307)" d="m0 0h13v20h48v11h-48l1 44 2 7 3 2 5 1h15l8-2 4-6 2-14h10v13l-4 11-7 6-9 3-8 1h-9l-12-2-8-5-4-6-2-10v-43h-15v-11h15z" fill="#fff"/>
<path transform="translate(1276,301)" d="m0 0h12l1 3v88l80 1v10l-1 1h-92l-1-1v-101z" fill="#fff"/>
<path transform="translate(424,325)" d="m0 0h18l11 3 6 4 4 6 2 11v3h-11l-3-11-6-3-5-1h-21l-10 3-5 5-2 4-1 54-1 1h-12v-77h12l1 1v9l5-5 6-4z" fill="#fff"/>
<path transform="translate(725,325)" d="m0 0h18l11 3 6 4 4 6 2 14h-11l-3-11-6-3-5-1h-21l-10 3-5 4-2 5-1 54-1 1h-12v-77h12l1 1-1 9 8-7 10-4z" fill="#fff"/>
<path transform="translate(36,301)" d="m0 0h13v103h-12l-1-1z" fill="#fff"/>
<path transform="translate(1801,105)" d="m0 0 8 6 7 7-2 4-22 24-3 4-4-1-12-11 2-5 9-9 7-8z" fill="#fff"/>
</svg>
