<svg width="277" height="295" viewBox="0 0 277 295" fill="none" xmlns="http://www.w3.org/2000/svg">
<path d="M76.7987 223.598C80.6809 226.602 80.6742 233.795 77.9619 240.614C73.8031 251.069 61.1618 255.636 50.7405 251.394C18.135 238.122 -5.75828 174.906 1.21585 124.145C12.9026 39.0839 107.4 -3.29646 154.876 9.38175C196.047 20.3764 204.329 5.7166 205.803 1.22138C205.989 0.489466 206.081 0.0627549 206.093 0.00640136L206.095 0C206.095 0.083056 206.029 0.533037 205.803 1.22138C203.97 8.42329 192.999 45.1756 158.937 49.4038C121.148 54.0947 83.6699 42.5239 49.3158 105.694C29.0529 142.954 41.8204 196.534 76.7987 223.598Z" fill="white"/>
<path d="M199.032 69.7732C195.203 66.7019 195.335 59.5102 198.166 52.7401C202.506 42.3595 215.225 38.0136 225.571 42.4371C257.94 56.2768 280.728 119.901 272.87 170.532C259.702 255.376 164.48 296.099 117.233 282.593C76.26 270.88 67.7234 285.393 66.1715 289.862C65.9725 290.591 65.8732 291.016 65.8601 291.072L65.8586 291.078C65.8601 290.995 65.9339 290.546 66.1715 289.862C68.1296 282.693 79.7401 246.138 113.871 242.506C151.736 238.476 189.006 250.7 224.456 188.14C245.365 151.24 233.533 97.4449 199.032 69.7732Z" fill="white"/>
<g filter="url(#filter0_d_1345_801)">
<ellipse cx="137.382" cy="146.35" rx="71.5189" ry="71.614" fill="white"/>
<path d="M185.401 146.35C185.401 172.952 163.873 194.464 137.382 194.464C110.892 194.464 89.3633 172.952 89.3633 146.35C89.3633 119.748 110.892 98.2363 137.382 98.2363C163.873 98.2363 185.401 119.748 185.401 146.35Z" stroke="white" stroke-width="47"/>
</g>
<defs>
<filter id="filter0_d_1345_801" x="61.8633" y="74.7363" width="151.038" height="151.229" filterUnits="userSpaceOnUse" color-interpolation-filters="sRGB">
<feFlood flood-opacity="0" result="BackgroundImageFix"/>
<feColorMatrix in="SourceAlpha" type="matrix" values="0 0 0 0 0 0 0 0 0 0 0 0 0 0 0 0 0 0 127 0" result="hardAlpha"/>
<feOffset dy="4"/>
<feGaussianBlur stdDeviation="2"/>
<feComposite in2="hardAlpha" operator="out"/>
<feColorMatrix type="matrix" values="0 0 0 0 0 0 0 0 0 0 0 0 0 0 0 0 0 0 0.25 0"/>
<feBlend mode="normal" in2="BackgroundImageFix" result="effect1_dropShadow_1345_801"/>
<feBlend mode="normal" in="SourceGraphic" in2="effect1_dropShadow_1345_801" result="shape"/>
</filter>
</defs>
</svg>
