<?xml version="1.0" encoding="utf-8"?>
<!-- Generator: Adobe Illustrator 27.5.0, SVG Export Plug-In . SVG Version: 6.00 Build 0)  -->
<svg version="1.1" xmlns="http://www.w3.org/2000/svg" xmlns:xlink="http://www.w3.org/1999/xlink" x="0px" y="0px"
	 viewBox="0 0 500 500" style="enable-background:new 0 0 500 500;" xml:space="preserve">
<g id="BACKGROUND">
	<radialGradient id="SVGID_1_" cx="250" cy="250" r="250" gradientUnits="userSpaceOnUse">
		<stop  offset="0" style="stop-color:#22408D"/>
		<stop  offset="1" style="stop-color:#22226B"/>
	</radialGradient>
	<rect style="fill:url(#SVGID_1_);" width="500" height="500"/>
</g>
<g id="OBJECTS">
	<g>
		
			<linearGradient id="SVGID_00000132797916748855997680000016121485510627470988_" gradientUnits="userSpaceOnUse" x1="94.2599" y1="364.7019" x2="94.2599" y2="497.7341">
			<stop  offset="0" style="stop-color:#22408D"/>
			<stop  offset="1" style="stop-color:#38C0E5"/>
		</linearGradient>
		
			<rect x="42.47" y="361.978" style="opacity:0.23;fill:url(#SVGID_00000132797916748855997680000016121485510627470988_);" width="103.58" height="138.022"/>
		
			<linearGradient id="SVGID_00000098223225663561076230000010514709431005402028_" gradientUnits="userSpaceOnUse" x1="409.2752" y1="1.9083" x2="409.2752" y2="95.1048">
			<stop  offset="0" style="stop-color:#22408D"/>
			<stop  offset="1" style="stop-color:#38C0E5"/>
		</linearGradient>
		
			<rect x="357.485" style="opacity:0.23;fill:url(#SVGID_00000098223225663561076230000010514709431005402028_);" width="103.58" height="96.692"/>
		
			<linearGradient id="SVGID_00000095324827055631397070000018351583094336020396_" gradientUnits="userSpaceOnUse" x1="461.0654" y1="71.6043" x2="461.0654" y2="261.5374">
			<stop  offset="0" style="stop-color:#22408D"/>
			<stop  offset="1" style="stop-color:#38C0E5"/>
		</linearGradient>
		
			<rect x="438.837" y="67.715" style="opacity:0.23;fill:url(#SVGID_00000095324827055631397070000018351583094336020396_);" width="44.457" height="197.057"/>
		
			<linearGradient id="SVGID_00000072240220815419272550000003518741327102480534_" gradientUnits="userSpaceOnUse" x1="42.9716" y1="318.6176" x2="42.9716" y2="378.9286">
			<stop  offset="0" style="stop-color:#22408D"/>
			<stop  offset="1" style="stop-color:#38C0E5"/>
		</linearGradient>
		
			<rect y="317.383" style="opacity:0.23;fill:url(#SVGID_00000072240220815419272550000003518741327102480534_);" width="85.943" height="62.573"/>
		
			<linearGradient id="SVGID_00000147906157206205177340000001643699534369550477_" gradientUnits="userSpaceOnUse" x1="86.1525" y1="57.7657" x2="86.1525" y2="82.0737">
			<stop  offset="0" style="stop-color:#22408D"/>
			<stop  offset="1" style="stop-color:#38C0E5"/>
		</linearGradient>
		
			<rect x="15.048" y="57.268" style="opacity:0.23;fill:url(#SVGID_00000147906157206205177340000001643699534369550477_);" width="142.209" height="25.22"/>
		
			<linearGradient id="SVGID_00000095297107332506149170000011370378460003597481_" gradientUnits="userSpaceOnUse" x1="319.4861" y1="439.6676" x2="319.4861" y2="469.8231">
			<stop  offset="0" style="stop-color:#22408D"/>
			<stop  offset="1" style="stop-color:#38C0E5"/>
		</linearGradient>
		
			<rect x="270.021" y="439.05" style="opacity:0.23;fill:url(#SVGID_00000095297107332506149170000011370378460003597481_);" width="98.931" height="31.287"/>
		<rect x="37.177" y="33.852" style="fill:none;" width="172.808" height="83.663"/>
		<text transform="matrix(1 0 0 1 40.7996 44.3517)" style="opacity:0.25;"><tspan x="0" y="0" style="fill:#38C0E5; font-family:'FiraSans-Regular'; font-size:14px;">0100110100100111101011</tspan><tspan x="-1.75" y="16.8" style="fill:#38C0E5; font-family:'FiraSans-Regular'; font-size:14px;">0101010101001001010110</tspan><tspan x="-1.75" y="33.6" style="fill:#38C0E5; font-family:'FiraSans-Regular'; font-size:14px;">1001010101010101001010</tspan><tspan x="-2.625" y="50.4" style="fill:#38C0E5; font-family:'FiraSans-Regular'; font-size:14px;">0100101010010101010010</tspan><tspan x="-0.875" y="67.2" style="fill:#38C0E5; font-family:'FiraSans-Regular'; font-size:14px;">1010101010101010010101</tspan></text>
		<rect x="333.023" y="314.179" style="fill:none;" width="108.952" height="185.821"/>
		<text transform="matrix(1 0 0 1 333.5148 324.6789)" style="opacity:0.25;"><tspan x="0" y="0" style="fill:#38C0E5; font-family:'FiraSans-Regular'; font-size:14px;">01001101001001</tspan><tspan x="2.625" y="16.8" style="fill:#38C0E5; font-family:'FiraSans-Regular'; font-size:14px;">11101011010101</tspan><tspan x="0" y="33.6" style="fill:#38C0E5; font-family:'FiraSans-Regular'; font-size:14px;">01010010010101</tspan><tspan x="0.875" y="50.4" style="fill:#38C0E5; font-family:'FiraSans-Regular'; font-size:14px;">01101001010101</tspan><tspan x="0" y="67.2" style="fill:#38C0E5; font-family:'FiraSans-Regular'; font-size:14px;">01010100101001</tspan><tspan x="0" y="84" style="fill:#38C0E5; font-family:'FiraSans-Regular'; font-size:14px;">00101010010101</tspan><tspan x="0" y="100.8" style="fill:#38C0E5; font-family:'FiraSans-Regular'; font-size:14px;">01001010101010</tspan><tspan x="0" y="117.6" style="fill:#38C0E5; font-family:'FiraSans-Regular'; font-size:14px;">10101010010010</tspan><tspan x="0.875" y="134.4" style="fill:#38C0E5; font-family:'FiraSans-Regular'; font-size:14px;">10101010101001</tspan><tspan x="3.381" y="151.2" style="fill:#38C0E5; font-family:'FiraSans-Regular'; font-size:14px;">0100100101010</tspan><tspan x="0.875" y="168" style="fill:#38C0E5; font-family:'FiraSans-Regular'; font-size:14px;">01010101010101</tspan></text>
	</g>
	<g>
		
			<linearGradient id="SVGID_00000073688762076107259550000015450471592897183660_" gradientUnits="userSpaceOnUse" x1="215.5693" y1="388.7157" x2="284.4307" y2="111.2843">
			<stop  offset="0" style="stop-color:#22408D"/>
			<stop  offset="1" style="stop-color:#38C0E5"/>
		</linearGradient>
		
			<circle style="fill:none;stroke:url(#SVGID_00000073688762076107259550000015450471592897183660_);stroke-width:5;stroke-linecap:round;stroke-linejoin:round;stroke-miterlimit:10;" cx="250" cy="250" r="140.392"/>
		
			<linearGradient id="SVGID_00000044144415779378529270000013237499258494717878_" gradientUnits="userSpaceOnUse" x1="211.2541" y1="415.5946" x2="227.9848" y2="348.1897">
			<stop  offset="0" style="stop-color:#22408D"/>
			<stop  offset="1" style="stop-color:#38C0E5"/>
		</linearGradient>
		
			<path style="fill:none;stroke:url(#SVGID_00000044144415779378529270000013237499258494717878_);stroke-width:5;stroke-linecap:round;stroke-linejoin:round;stroke-miterlimit:10;" d="
			M353.308,381.872c-28.461,22.327-64.33,35.64-103.308,35.64c-20.783,0-40.681-3.785-59.044-10.702
			c-39.613-14.923-72.08-44.426-90.86-81.967"/>
		
			<linearGradient id="SVGID_00000132784827551406598810000009679283228997232816_" gradientUnits="userSpaceOnUse" x1="373.6178" y1="241.6808" x2="401.3796" y2="129.8331">
			<stop  offset="0" style="stop-color:#22408D"/>
			<stop  offset="1" style="stop-color:#38C0E5"/>
		</linearGradient>
		
			<path style="fill:none;stroke:url(#SVGID_00000132784827551406598810000009679283228997232816_);stroke-width:5;stroke-linecap:round;stroke-linejoin:round;stroke-miterlimit:10;" d="
			M357.485,121.514c9.697,8.12,18.46,17.318,26.107,27.408c21.289,28.094,33.921,63.111,33.921,101.078"/>
		
			<linearGradient id="SVGID_00000122688123479535410650000008947216199981631656_" gradientUnits="userSpaceOnUse" x1="138.7852" y1="266.5495" x2="188.8763" y2="64.7403">
			<stop  offset="0" style="stop-color:#22408D"/>
			<stop  offset="1" style="stop-color:#38C0E5"/>
		</linearGradient>
		
			<path style="fill:none;stroke:url(#SVGID_00000122688123479535410650000008947216199981631656_);stroke-width:5;stroke-linecap:round;stroke-linejoin:round;stroke-miterlimit:10;" d="
			M82.488,250c0-51.007,22.797-96.689,58.758-127.413c13.366-11.42,28.551-20.773,45.061-27.565
			c19.636-8.079,41.144-12.534,63.693-12.534"/>
		
			<linearGradient id="SVGID_00000116213900967696777780000005626685143238707619_" gradientUnits="userSpaceOnUse" x1="122.8379" y1="367.1277" x2="139.4551" y2="300.1795">
			<stop  offset="0" style="stop-color:#22408D"/>
			<stop  offset="1" style="stop-color:#38C0E5"/>
		</linearGradient>
		
			<path style="fill:none;stroke:url(#SVGID_00000116213900967696777780000005626685143238707619_);stroke-width:5;stroke-linecap:round;stroke-linejoin:round;stroke-miterlimit:10;" d="
			M159.279,373.597c-26.591-19.55-46.642-47.476-56.266-79.887"/>
		
			<linearGradient id="SVGID_00000022551542121987096830000005584375603214984356_" gradientUnits="userSpaceOnUse" x1="305.7643" y1="419.7249" x2="340.6511" y2="279.1718">
			<stop  offset="0" style="stop-color:#22408D"/>
			<stop  offset="1" style="stop-color:#38C0E5"/>
		</linearGradient>
		
			<path style="fill:none;stroke:url(#SVGID_00000022551542121987096830000005584375603214984356_);stroke-width:5;stroke-linecap:round;stroke-linejoin:round;stroke-miterlimit:10;" d="
			M396.415,295.589C377.005,357.996,318.794,403.308,250,403.308"/>
		
			<linearGradient id="SVGID_00000023278471326336438310000007736970323187189125_" gradientUnits="userSpaceOnUse" x1="314.0145" y1="182.5178" x2="332.0647" y2="109.7965">
			<stop  offset="0" style="stop-color:#22408D"/>
			<stop  offset="1" style="stop-color:#38C0E5"/>
		</linearGradient>
		
			<path style="fill:none;stroke:url(#SVGID_00000023278471326336438310000007736970323187189125_);stroke-width:5;stroke-linecap:round;stroke-linejoin:round;stroke-miterlimit:10;" d="
			M250,96.692c67.177,0,124.263,43.207,144.983,103.347"/>
		
			<linearGradient id="SVGID_00000011744546341998550440000018012977690938366882_" gradientUnits="userSpaceOnUse" x1="158.3486" y1="162.7779" x2="175.2279" y2="94.774">
			<stop  offset="0" style="stop-color:#22408D"/>
			<stop  offset="1" style="stop-color:#38C0E5"/>
		</linearGradient>
		
			<path style="fill:none;stroke:url(#SVGID_00000011744546341998550440000018012977690938366882_);stroke-width:5;stroke-linecap:round;stroke-linejoin:round;stroke-miterlimit:10;" d="
			M130.948,153.401c18.438-22.696,43.237-40.018,71.681-49.25"/>
	</g>
	<g>
		
			<linearGradient id="SVGID_00000150801266982946613230000009672147034579023497_" gradientUnits="userSpaceOnUse" x1="219.2422" y1="344.382" x2="261.3792" y2="174.6187">
			<stop  offset="0" style="stop-color:#22408D"/>
			<stop  offset="1" style="stop-color:#38C0E5"/>
		</linearGradient>
		<path style="fill:url(#SVGID_00000150801266982946613230000009672147034579023497_);" d="M250,148.924l-86.827,25.568v80.73
			c0,30.744,15.411,59.441,41.04,76.421L250,361.978l45.787-30.335c25.629-16.98,41.04-45.677,41.04-76.421v-80.73L250,148.924z
			 M220.626,275.709l14.113-21.802c-6.347-4.685-10.466-12.216-10.466-20.71c0-14.209,11.519-25.728,25.728-25.728
			c14.209,0,25.728,11.519,25.728,25.728c0,8.495-4.119,16.025-10.466,20.71l14.113,21.802H220.626z"/>
		
			<linearGradient id="SVGID_00000067958895625812847300000018347454237911909290_" gradientUnits="userSpaceOnUse" x1="265.7358" y1="203.9663" x2="200.7774" y2="314.8044">
			<stop  offset="0" style="stop-color:#FFFFFF;stop-opacity:0"/>
			<stop  offset="1" style="stop-color:#FFFFFF"/>
		</linearGradient>
		<path style="opacity:0.24;fill:url(#SVGID_00000067958895625812847300000018347454237911909290_);" d="M250,162.233l-75.98,22.374
			v70.644c0,26.903,13.486,52.015,35.913,66.873L250,348.669l40.067-26.545c22.427-14.859,35.913-39.97,35.913-66.873v-70.644
			L250,162.233z M220.626,275.709l14.113-21.802c-6.347-4.685-10.466-12.216-10.466-20.71c0-14.209,11.519-25.728,25.728-25.728
			c14.209,0,25.728,11.519,25.728,25.728c0,8.495-4.119,16.025-10.466,20.71l14.113,21.802H220.626z"/>
	</g>
	<g>
		
			<linearGradient id="SVGID_00000041260847618851536000000001849855801839154344_" gradientUnits="userSpaceOnUse" x1="27.3486" y1="436.6558" x2="27.3486" y2="219.9347">
			<stop  offset="0" style="stop-color:#22408D"/>
			<stop  offset="1" style="stop-color:#38C0E5"/>
		</linearGradient>
		
			<line style="fill:none;stroke:url(#SVGID_00000041260847618851536000000001849855801839154344_);stroke-width:2;stroke-linecap:round;stroke-linejoin:round;stroke-miterlimit:10;" x1="27.349" y1="220.935" x2="27.349" y2="435.656"/>
		
			<linearGradient id="SVGID_00000039822529180471227720000012262055128821182898_" gradientUnits="userSpaceOnUse" x1="59.1031" y1="500.5" x2="59.1031" y2="465.3982">
			<stop  offset="0" style="stop-color:#22408D"/>
			<stop  offset="1" style="stop-color:#38C0E5"/>
		</linearGradient>
		
			<line style="fill:none;stroke:url(#SVGID_00000039822529180471227720000012262055128821182898_);stroke-linecap:round;stroke-linejoin:round;stroke-miterlimit:10;" x1="59.103" y1="500" x2="59.103" y2="465.898"/>
		
			<linearGradient id="SVGID_00000016063987731511213190000008888963035813082773_" gradientUnits="userSpaceOnUse" x1="229.9728" y1="501" x2="229.9728" y2="446.7528">
			<stop  offset="0" style="stop-color:#22408D"/>
			<stop  offset="1" style="stop-color:#38C0E5"/>
		</linearGradient>
		
			<line style="fill:none;stroke:url(#SVGID_00000016063987731511213190000008888963035813082773_);stroke-width:2;stroke-linecap:round;stroke-linejoin:round;stroke-miterlimit:10;" x1="229.973" y1="447.753" x2="229.973" y2="500"/>
		
			<linearGradient id="SVGID_00000039133935791805669690000001897481559169834637_" gradientUnits="userSpaceOnUse" x1="323.2077" y1="76.6831" x2="323.2077" y2="-1">
			<stop  offset="0" style="stop-color:#22408D"/>
			<stop  offset="1" style="stop-color:#38C0E5"/>
		</linearGradient>
		
			<line style="fill:none;stroke:url(#SVGID_00000039133935791805669690000001897481559169834637_);stroke-width:2;stroke-linecap:round;stroke-linejoin:round;stroke-miterlimit:10;" x1="323.208" y1="0" x2="323.208" y2="75.683"/>
		
			<linearGradient id="SVGID_00000093138578522794553730000000165881938075057333_" gradientUnits="userSpaceOnUse" x1="473.4242" y1="436.6558" x2="473.4242" y2="195.7407">
			<stop  offset="0" style="stop-color:#22408D"/>
			<stop  offset="1" style="stop-color:#38C0E5"/>
		</linearGradient>
		
			<line style="fill:none;stroke:url(#SVGID_00000093138578522794553730000000165881938075057333_);stroke-width:2;stroke-linecap:round;stroke-linejoin:round;stroke-miterlimit:10;" x1="473.424" y1="196.741" x2="473.424" y2="435.656"/>
		
			<linearGradient id="SVGID_00000170248442681652936790000017286562955593362066_" gradientUnits="userSpaceOnUse" x1="74.9804" y1="153.9009" x2="74.9804" y2="15.5423">
			<stop  offset="0" style="stop-color:#22408D"/>
			<stop  offset="1" style="stop-color:#38C0E5"/>
		</linearGradient>
		
			<line style="fill:none;stroke:url(#SVGID_00000170248442681652936790000017286562955593362066_);stroke-linecap:round;stroke-linejoin:round;stroke-miterlimit:10;" x1="74.98" y1="16.042" x2="74.98" y2="153.401"/>
		
			<linearGradient id="SVGID_00000118362850090616849430000009009102005718668169_" gradientUnits="userSpaceOnUse" x1="109.6082" y1="23.0908" x2="109.6082" y2="-1">
			<stop  offset="0" style="stop-color:#22408D"/>
			<stop  offset="1" style="stop-color:#38C0E5"/>
		</linearGradient>
		
			<line style="fill:none;stroke:url(#SVGID_00000118362850090616849430000009009102005718668169_);stroke-width:2;stroke-linecap:round;stroke-linejoin:round;stroke-miterlimit:10;" x1="109.608" y1="0" x2="109.608" y2="22.091"/>
		
			<linearGradient id="SVGID_00000080909202651252803790000002628218127479780506_" gradientUnits="userSpaceOnUse" x1="457.547" y1="474.3764" x2="457.547" y2="395.8407">
			<stop  offset="0" style="stop-color:#22408D"/>
			<stop  offset="1" style="stop-color:#38C0E5"/>
		</linearGradient>
		
			<line style="fill:none;stroke:url(#SVGID_00000080909202651252803790000002628218127479780506_);stroke-linecap:round;stroke-linejoin:round;stroke-miterlimit:10;" x1="457.547" y1="396.341" x2="457.547" y2="473.876"/>
		
			<linearGradient id="SVGID_00000084522317806429855360000016746704749670168756_" gradientUnits="userSpaceOnUse" x1="146.0501" y1="309.1377" x2="146.0501" y2="249.5">
			<stop  offset="0" style="stop-color:#22408D"/>
			<stop  offset="1" style="stop-color:#38C0E5"/>
		</linearGradient>
		
			<line style="fill:none;stroke:url(#SVGID_00000084522317806429855360000016746704749670168756_);stroke-linecap:round;stroke-linejoin:round;stroke-miterlimit:10;" x1="146.05" y1="250" x2="146.05" y2="308.638"/>
		
			<linearGradient id="SVGID_00000152234885694548241770000002856787433204995489_" gradientUnits="userSpaceOnUse" x1="357.4851" y1="221.9347" x2="357.4851" y2="192.7165">
			<stop  offset="0" style="stop-color:#22408D"/>
			<stop  offset="1" style="stop-color:#38C0E5"/>
		</linearGradient>
		
			<line style="fill:none;stroke:url(#SVGID_00000152234885694548241770000002856787433204995489_);stroke-width:2;stroke-linecap:round;stroke-linejoin:round;stroke-miterlimit:10;" x1="357.485" y1="193.717" x2="357.485" y2="220.935"/>
	</g>
</g>
</svg>
