<?xml version="1.0" encoding="utf-8"?>
<!-- Generator: Adobe Illustrator 27.5.0, SVG Export Plug-In . SVG Version: 6.00 Build 0)  -->
<svg version="1.1" xmlns="http://www.w3.org/2000/svg" xmlns:xlink="http://www.w3.org/1999/xlink" x="0px" y="0px"
	 viewBox="0 0 3710 3710" style="enable-background:new 0 0 3710 3710;" xml:space="preserve">
<g id="Background">
	<g>
		<g>
			<rect style="fill:#FFFFFF;" width="3710" height="3710"/>
		</g>
	</g>
</g>
<g id="Illustration">
	<g>
		<linearGradient id="SVGID_1_" gradientUnits="userSpaceOnUse" x1="3592.3555" y1="3415.5647" x2="1484.2072" y2="1524.4297">
			<stop  offset="0" style="stop-color:#DAE3FE"/>
			<stop  offset="1" style="stop-color:#E9EFFD"/>
		</linearGradient>
		<path style="fill:url(#SVGID_1_);" d="M2889.857,2760.955c-71.041,73.227-85.938,83.776-134.606,116.271
			c-474.645,316.925-1161.431,240.323-1329.18,209.101c-270.643-50.372-403.556-68.155-599.844-245.493
			c-446.026-402.967-424.332-1243.586-83.514-1764.312c40.411-61.743,374.766-540.814,918.511-611.894
			c13.299-1.738,643.228-84.921,1068.257,271.168c60.841,50.972,158.751,142.913,249.546,283.138
			C3311.012,1531.661,3312.064,2325.76,2889.857,2760.955z"/>
		<g>
			<path style="fill:#91B3FA;" d="M993.821,527.657c0.454-9.694,14.956-12.093,20.975-3.516
				c61.119,87.089,197.102,334.483,53.431,658.198c-180.256,406.148-122.16,589.635-21.923,720.017
				c0,0-161.888-94.003-227.045-281.958C659.282,1158.925,985.75,700.024,993.821,527.657z"/>
			<path style="fill:#FFFFFF;" d="M1016.653,677.056c-3.477,49.94-8.076,99.717-14.749,149.132
				c-6.375,49.457-14.464,98.605-24.302,147.34c-10.052,48.683-21.155,97.12-34.615,144.908
				c-13.211,47.856-28.786,94.996-44.616,142.265c-15.514,47.34-31.456,94.931-41.784,144.49
				c-10.359,49.444-14.084,101.235-6.896,152.828c1.807,12.863,3.884,25.765,6.795,38.488c2.648,12.759,5.93,25.461,9.464,38.123
				c7.211,25.309,16.304,50.369,27.417,74.86c22.365,48.951,52.917,95.426,89.115,137.705c3.81,4.45,10.756,5.602,15.516,2.573
				c4.673-2.974,5.499-8.873,1.92-13.299l-0.025-0.031c-8.493-10.481-16.847-21.026-24.666-31.829
				c-4.004-5.354-7.743-10.835-11.593-16.259c-3.623-5.531-7.48-10.956-10.914-16.567c-14.143-22.261-26.571-45.254-37.076-68.814
				c-21.244-46.996-34.865-96.502-41.83-145.786c-3.17-24.663-4.289-49.348-3.252-73.877c1.058-24.529,4.265-48.878,9.067-72.975
				c9.606-48.223,24.933-95.473,40.051-142.935c15.05-47.495,29.795-95.339,42.233-143.799
				c6.294-24.207,12.084-48.545,17.368-72.996c2.723-12.206,5.173-24.475,7.648-36.737c2.34-12.292,4.601-24.599,6.746-36.927
				c8.477-49.337,15.219-98.996,20.154-148.895c4.661-49.939,7.805-100.074,8.741-150.381c0.026-1.439-1.277-2.713-2.913-2.848
				C1018.069,674.682,1016.752,675.681,1016.653,677.056z"/>
		</g>
		<g>
			<g>
				<path style="fill:#BDD0FB;" d="M911.169,1599.172c-12.69,7.563-28.981-0.292-31.156-14.904
					c-12.004-80.626-25.328-311.654,164.538-519.351c160.333-175.39,230.605-285.731,259.035-338.032
					c6.012-11.059,22.648-8.016,24.379,4.452C1347.066,868.897,1371.011,1325.112,911.169,1599.172z"/>
				<path style="fill:#FFFFFF;" d="M895.615,1586.594c-0.364-0.037-0.729-0.109-1.093-0.219c-3.049-0.919-4.777-4.137-3.857-7.187
					c1.043-3.457,106.682-348.639,318.597-602.578c2.04-2.443,5.677-2.772,8.125-0.733c2.445,2.042,2.773,5.678,0.733,8.125
					c-210.374,252.09-315.375,595.081-316.411,598.516C900.899,1585.204,898.306,1586.864,895.615,1586.594z"/>
			</g>
		</g>
		<g>
			
				<linearGradient id="SVGID_00000033368810305297132870000013345629953024600230_" gradientUnits="userSpaceOnUse" x1="1924.6615" y1="2582.6189" x2="1904.5851" y2="3874.2512">
				<stop  offset="0" style="stop-color:#09005D"/>
				<stop  offset="1" style="stop-color:#1A0F91"/>
			</linearGradient>
			<polygon style="fill:url(#SVGID_00000033368810305297132870000013345629953024600230_);" points="1655.856,2613.387 
				1601.543,3100.5 2231.681,3100.5 2149.605,2613.387 			"/>
			
				<linearGradient id="SVGID_00000028288435286542482500000016459950789060577176_" gradientUnits="userSpaceOnUse" x1="1880.9087" y1="1169.3856" x2="1827.3693" y2="2788.9409">
				<stop  offset="0" style="stop-color:#09005D"/>
				<stop  offset="1" style="stop-color:#1A0F91"/>
			</linearGradient>
			<path style="fill:url(#SVGID_00000028288435286542482500000016459950789060577176_);" d="M484.549,1424.4v1215.663
				c0,100.005,79.692,181.784,179.663,184.363c444.019,11.449,1996.984,39.212,2419.661,32.981
				c72.647-1.071,131.498-59.206,133.594-131.83c8.15-282.415,21.387-961.528-27.598-1276.814
				c-10.316-66.396-66.36-116.045-133.518-118.194c-372.032-11.901-2018.278-49.693-2440.757-40.204
				C542.73,1292,484.549,1351.518,484.549,1424.4z"/>
			
				<linearGradient id="SVGID_00000079473155634965847690000016765388886570915509_" gradientUnits="userSpaceOnUse" x1="2009.7902" y1="964.9586" x2="1609.3623" y2="3506.7976">
				<stop  offset="0" style="stop-color:#FDF53F"/>
				<stop  offset="1" style="stop-color:#D93C65"/>
			</linearGradient>
			<path style="fill:url(#SVGID_00000079473155634965847690000016765388886570915509_);" d="M560.828,1418.482v1154.964
				c0,58.388,46.87,105.963,105.252,106.837l2356.985,29.12c57.881,0.865,105.326-45.702,105.542-103.59l3.943-1144.644
				c0.154-41.391-32.822-75.305-74.2-76.312l-2413.115-48.751C598.954,1334.98,560.828,1372.189,560.828,1418.482z"/>
			<path style="fill:#91B3FA;" d="M3146.352,2756.543c-0.018,0-0.036,0-0.036,0l-2585.54-44.052c-1.699-0.03-3.052-1.43-3.023-3.127
				c0.029-1.7,1.359-2.944,3.128-3.025l2585.522,44.052c1.699,0.03,3.052,1.43,3.023,3.127
				C3149.397,2755.2,3148.026,2756.543,3146.352,2756.543z"/>
			
				<linearGradient id="SVGID_00000091016906236560376080000011293783734719832234_" gradientUnits="userSpaceOnUse" x1="1952.7957" y1="1326.7489" x2="1552.3677" y2="3868.5881">
				<stop  offset="0" style="stop-color:#FF928E"/>
				<stop  offset="1" style="stop-color:#FE7062"/>
			</linearGradient>
			<path style="fill:url(#SVGID_00000091016906236560376080000011293783734719832234_);" d="M560.828,1418.482v1154.964
				c0,58.388,46.87,105.963,105.252,106.837l2356.985,29.12c57.881,0.865,105.326-45.702,105.542-103.59l3.943-1144.644
				c0.154-41.391-32.822-75.305-74.2-76.312l-2413.115-48.751C598.954,1334.98,560.828,1372.189,560.828,1418.482z"/>
			<g>
				<path style="fill:#91B3FA;" d="M1879.095,2810.348c-16.531,0-29.978-13.447-29.978-29.977c0-16.532,13.447-29.979,29.978-29.979
					c16.529,0,29.976,13.448,29.976,29.979C1909.072,2796.9,1895.624,2810.348,1879.095,2810.348z M1879.095,2756.543
					c-13.138,0-23.827,10.69-23.827,23.828c0,13.138,10.689,23.825,23.827,23.825c13.136,0,23.825-10.687,23.825-23.825
					C1902.92,2767.233,1892.232,2756.543,1879.095,2756.543z"/>
			</g>
			
				<linearGradient id="SVGID_00000022521051662101530810000004614705099685215889_" gradientUnits="userSpaceOnUse" x1="1936.8619" y1="2398.762" x2="1903.4009" y2="3241.9988">
				<stop  offset="0" style="stop-color:#09005D"/>
				<stop  offset="1" style="stop-color:#1A0F91"/>
			</linearGradient>
			<path style="fill:url(#SVGID_00000022521051662101530810000004614705099685215889_);" d="M2367.413,3200.163h-922.251
				c-25.055,0-43.87-17.836-39.025-36.995l11.834-46.802c3.559-14.075,19.043-24.408,37.434-24.981l889.083-27.743
				c19.214-0.599,36.227,9.6,40.413,24.227l21.333,74.544C2411.777,3181.78,2392.872,3200.163,2367.413,3200.163z"/>
			<path style="fill:#91B3FA;" d="M1941.625,3104.133c-1.678,0-3.049-1.349-3.074-3.031c-0.024-1.7,1.332-3.097,3.031-3.121
				l38.098-0.556c1.652-0.048,3.095,1.333,3.121,3.031c0.024,1.7-1.332,3.097-3.031,3.121l-38.099,0.556H1941.625z"/>
			<path style="fill:#91B3FA;" d="M1440.28,3174.43c-0.161,0-0.324-0.012-0.488-0.039c-1.677-0.267-2.82-1.844-2.552-3.52
				l5.435-34.041c2.926-18.328,18.518-31.824,37.073-32.097l404.092-5.908c1.733,0.12,3.095,1.331,3.121,3.031
				c0.024,1.7-1.332,3.097-3.031,3.121l-404.091,5.908c-15.56,0.228-28.635,11.546-31.089,26.913l-5.435,34.041
				C1443.072,3173.352,1441.765,3174.43,1440.28,3174.43z"/>
		</g>
		<g>
			<path style="opacity:0.54;fill:#FFFFFF;" d="M2568.338,2204.289h354.471c48.429,0,87.012,17.917,84.643,39.309l0.104,347.282
				c-2.212,19.961-34.703,52.673-79.893,52.673h-359.324c-46.802,0-84.743-16.779-84.743-37.476v-364.312
				C2483.595,2221.067,2521.536,2204.289,2568.338,2204.289z"/>
			<path style="opacity:0.54;fill:#FFFFFF;" d="M1513.901,1530.564l1396.446,19.551c53.778,0.752,96.172,41.738,93.542,90.432
				l0.116,429.791c-2.481,45.926-67.653,82.662-118.379,82.662H1512.431c-52.535,0-95.124-38.606-95.124-86.226V1616.78
				C1417.307,1568.637,1460.796,1529.821,1513.901,1530.564z"/>
			<path style="opacity:0.54;fill:#FFFFFF;" d="M1978.376,2204.286h380.523c30.742,0,55.662,17.015,55.662,38.006v369.458
				c0,20.99-24.92,38.005-55.662,38.005h-380.523c-30.741,0-55.662-17.016-55.662-38.005v-369.458
				C1922.714,2221.301,1947.635,2204.286,1978.376,2204.286z"/>
			<path style="opacity:0.54;fill:#FFFFFF;" d="M790.963,1531.951h488.747c39.485,0,71.493,23.527,71.493,52.55v510.846
				c0,29.022-32.008,52.549-71.493,52.549H790.963c-39.484,0-71.492-23.527-71.492-52.549v-510.846
				C719.471,1555.478,751.48,1531.951,790.963,1531.951z"/>
			<path style="opacity:0.54;fill:#FFFFFF;" d="M803.538,2200.141h602.332c48.661,0,88.108,17.196,88.108,38.409v373.383
				c0,21.212-39.447,38.409-88.108,38.409H803.538c-48.66,0-88.107-17.197-88.107-38.409v-373.383
				C715.43,2217.337,754.878,2200.141,803.538,2200.141z"/>
			<g style="opacity:0.6;">
				<path style="fill:#FFFFFF;" d="M1168.411,2497.216c-0.952,7.449-1.728,14.922-2.326,22.41c-0.143,1.787,0.206,4.215,1.93,4.389
					c1.039,0.105,1.903-0.766,2.603-1.566c2.971-3.4,6.164-7.784,4.726-12.12c-0.535-1.613-1.674-2.97-2.112-4.615
					c-0.659-2.473,0.374-5.105,0.108-7.656c-0.266-2.551-3.33-5.059-5.046-3.207L1168.411,2497.216z"/>
				<path style="fill:#FFFFFF;" d="M977.23,2252.19c-11.688-6.178-19.039-7.013-31.622-5.644
					c-11.869,1.292-19.889,7.255-28.038,15.752c-1.854,1.933-3.655,4.048-6.058,5.158c-10.071,4.649-22.843,3.712-33.127,8.301
					c-12.241,5.463-15.695,22.453-26.875,29.965c-6.472,4.348-14.628,4.898-21.734,8.01c-10.52,4.606-15.372,14.175-21.346,23.487
					c-3.674,5.726-17.205,15.539-16.438,22.236c0.14,1.219,0.651,2.365,1.292,3.399c3.726,6.006,9.291,6.638,15.162,8.353
					c7.757,2.266,12.436,5.748,19.299,10.602c7.157,5.063,16.895,9.49,17.515,18.437c0.288,4.151-1.65,8.075-2.598,12.12
					c-4.274,18.245,11.588,34.633,27.026,44.499c15.438,9.866,33.654,19.614,38.564,37.686c0.448,1.647,0.824,3.435,2.023,4.613
					c4.507,4.434,7.882-5.596,9.248-8.784c0.879-2.053,0.083-4.518-1.291-6.256c-1.374-1.738-3.248-2.957-4.938-4.366
					c-5.702-4.755-9.401-11.996-9.985-19.548c-0.074-0.96-0.081-1.999,0.444-2.794c2.676-4.051,9.347-5.713,12.619-10.622
					c4.681-7.022,5.749-13.685,6.546-22.019c2.927-30.618,30.802-19.779,48.301-33.355c3.257-2.527,5.705-6.517,6.266-10.593
					c0.309-2.248,0.044-4.522-0.975-6.591c-1.722-3.497-5.245-5.747-8.911-6.754c-3.667-1.007-7.519-0.934-11.312-0.854
					c-3.52,0.075-7.04,0.149-10.561,0.224c-1.041,0.022-2.112,0.051-3.066,0.481c-1.348,0.608-2.262,1.925-2.993,3.245
					c-2.355,4.254-3.516,9.207-3.307,14.105c-4.64,1.631-9.146-2.792-11.677-7.134c-2.922-5.011-5.022-10.533-6.184-16.261
					c-0.449-2.213-0.725-4.662,0.382-6.612c0.61-1.075,1.58-1.876,2.558-2.604c3.941-2.936,8.489-5.155,13.319-5.683
					c8.249-0.902,16.266,3.168,23.029,8.157c6.494,4.791,17.087,10.524,24.373,3.639c3.762-3.554,3.829-10.024,1.208-14.544
					c-4.257-7.341-15.114-11.182-22.187-14.889c-3.311-1.735-5.437-5.307-6.377-9.021c-0.94-3.714-0.851-7.613-0.755-11.451
					c9.79-4,21.295-3.218,30.494,2.074c1.306,0.751,2.698,1.796,2.852,3.333c0.159,1.58-1.048,2.898-2.001,4.145
					c-8.468,11.079-0.856,20.024,9.108,26.275c0.238-28.09,0.302-56.325,0.318-84.445
					C988.773,2257.668,982.881,2255.177,977.23,2252.19z"/>
				<path style="fill:#FFFFFF;" d="M1065.744,2275.979c-1.364-1.839-4.071-1.375-6.312-1.361c-7.155,0.046-12.84-6.193-19.719-8.234
					c-3.604-1.069-7.42-0.948-11.169-1.005c-11.433-0.174-22.832-2.127-33.725-5.719c-0.016,28.12-0.08,56.354-0.318,84.445
					c6.21,3.896,13.334,6.748,18.05,8.415c5.005,1.769,9.782,4.678,15.131,3.59c4.964-1.01,9.431-6.615,14.576-8.043
					c3.727-1.034,7.707-0.492,11.49-1.278c3.783-0.786,7.727-3.719,7.57-7.707c-0.128-3.248-2.887-5.691-5.632-7.271
					c0,0.31-4.757-3.582-5.207-4.425c-4.151-8.319,1.885-15.646,4.194-22.828c3.344-10.398-1.608-16.511,8.677-22.269
					C1065.537,2281.063,1067.257,2278.02,1065.744,2275.979z"/>
				<path style="fill:#FFFFFF;" d="M926.754,2539.286c1.791,3.772,3.261,7.334,3.651,10.366c1.697,13.189-9.281,29.419-13.948,41.46
					c-1.298,3.349-2.621,6.912-2.036,10.469c0.246,1.498,0.823,2.914,1.397,4.313c4.238,10.326,12.566,19.673,19.965,27.636
					c2.53-6.827,2.342-23.223,1.648-30.496c-0.229-2.399-0.629-4.91,0.225-7.153c2.74-7.193,11.656-17.089,17.805-21.38
					c6.026-4.205,13.947-7.581,15.508-14.926c0.601-2.824,0.095-5.848,0.979-8.591c0.53-1.645,1.526-3.077,2.321-4.604
					c3.898-7.495,6.11-21.965-1.696-27.289c-8.725-5.951-21.074,2.765-28.56-6.943c-1.129-1.464-1.971-3.17-3.256-4.49
					c-2.385-2.45-6.049-3.225-9.364-2.651C909.325,2508.828,920.194,2525.471,926.754,2539.286z"/>
				<path style="fill:#FFFFFF;" d="M1065.324,2430.329c6.968,4.61,18.997-5.504,23.42-17.329c0.554-1.48,1.067-3.025,2.08-4.216
					c2.064-2.425,5.615-2.736,8.708-2.288c3.093,0.447,6.177,1.474,9.276,1.063c4.445-0.59,8.118-4.12,10.193-8.229
					c2.076-4.109,2.823-8.776,3.541-13.353c3.289-0.839,6.844-0.515,9.94,0.904c2.391,1.096,4.752,3.512,4.084,6.128
					c-0.307,1.201-1.193,2.135-2.028,3.028c-2.608,2.791-5.038,5.76-7.269,8.881c-1.376,1.926-2.726,4.437-1.694,6.58
					c2.815,5.841,7.962,2.802,6.483,11.154c-1.861,10.462-15.601,14.739-7.752,27.238c2.872,4.574,8.096,7.31,13.363,7.557
					c3.779,0.177,8.432-1.847,8.481-5.761c0.014-1.16-0.4-2.354-0.048-3.455c0.458-1.433,2.027-2.135,3.47-2.362
					c4.72-0.742,9.281,1.708,13.637,3.73c1.315,0.61,2.884,1.179,4.134,0.438c4.072-2.415,2.172-4.407,7.709-4.941
					c4.721-0.455,10.246,3.31,12.92,7.033c0.643,0.895,1.224,2.048,0.817,3.081c-0.354,0.897-1.333,1.359-1.827,2.183
					c-0.814,1.357,0.006,3.231,1.29,4.118c1.284,0.886,2.881,1.082,4.393,1.403c7.094,1.511,7.26,8.506,12.272,11.997
					c4.069,2.834,14.436,3.393,13.521-4.759c-0.334-2.98-3.227-5.432-2.752-8.391c0.417-2.605,3.248-3.992,5.78-4.324
					c2.532-0.332,5.235-0.084,7.499-1.304c1.509-0.813,2.648-2.195,4.024-3.231c8.466-6.375,28.52-0.959,35.016,6.188
					c6.069,6.678,6.749,18.187,14.56,22.514c-0.912-8.874-5.241-17.323-11.829-23.086c-1.211-1.06-2.544-2.096-3.179-3.6
					c-0.534-1.262-0.503-2.694-0.435-4.07c0.346-7.029,1.68-13.574,3.534-20.135c-0.222,0.784,4.958-13.473,1.233-10.776
					c6.665-4.826,21.211-12.754,29.563-12.238c4.349,0.269,8.643,2.871,10.469,6.964c1.826,4.093,0.725,9.534-2.871,12.08
					c-3.442,2.438-8.219,1.969-11.716,4.323c-3.366,2.266-4.804,7.157-3.227,10.979c2.192-3.125,5.503-5.389,9.141-6.25
					c4.883-1.155,10.428,0.061,14.644-2.736c3.111-2.064,4.744-6.007,4.782-9.83c0.038-3.823-1.33-7.531-3.161-10.852
					c-1.324-2.402-2.918-4.703-3.626-7.369c-1.136-4.275,0.209-8.929,2.601-12.609c8.893-13.681,25.353-19.594,40.581-14.564
					c1.014,0.335,2.095,0.784,2.623,1.74c0.765,1.387,0.028,3.157,0.352,4.719c0.51,2.46,4.138,3.392,5.701,1.464
					c1.081-1.333,1.014-3.255,1.423-4.942c1.064-4.386,5.385-7.07,9.586-8.321c5.135-1.529,18.934-8.587,20.353,0.745
					c0.124,0.817,0.099,1.679,0.441,2.427c0.963,2.104,4.188,1.802,5.722,0.099c3.163-3.512,3.718-9.281,6.781-13.205
					c2.711-3.473,6.714-5.554,8.982-9.431c5.622-9.606,1.34-22.161-8.441-26.813c-9.371-4.458-20.276-2.481-30.428-0.593
					c-6.989,1.3-30.992,6.282-32.701-5.43c-0.14-0.96-0.11-1.983-0.559-2.835c-0.556-1.055-1.72-1.609-2.429-2.561
					c-0.905-1.216-0.942-2.876-1.429-4.325c-1.771-5.262-8.444-6.227-13.83-6.292c0.543-3.264,0.838-7.24-1.699-9.26
					c-1.434-1.142-3.369-1.268-5.177-1.347c-4.697-0.208-16.026,1.537-19.921-1.306c-5.158-3.766-1.606-10.181-3.853-15.375
					c-2.39-5.516-11.275-6.282-12.263-12.24c-0.214-1.288,0.02-2.616-0.129-3.914c-0.363-3.166-2.856-5.552-5.189-7.637
					c-4.227-3.778-9.016-7.776-14.601-7.628c-1.05,0.858-0.107,2.659,1.077,3.305c1.183,0.646,2.696,0.981,3.295,2.219
					c1.149,2.374-2.146,4.323-4.667,4.82c-0.123,3.469,3.249,5.768,5.854,7.957c4.4,3.697,7.526,8.984,8.704,14.719
					c-8.876,1.649-17.971,2.035-26.948,1.145c-10.817-1.073-17.765,16.688-30.585,11.765c-1.894-0.728-3.587-2.033-5.571-2.421
					c-4.991-0.978-9.011,3.913-13.496,6.38c-6.829,3.755-15.202,1.808-22.52-0.778c-8.745-3.09-19.379-7.526-28.193-2.196
					c-3.294,1.992-5.926,5.092-9.414,6.694c-7.321,3.361-15.626-0.766-23.599-1.557c-19.67-1.953-31.508,17.959-37.898,34.541
					c-0.97,2.517-1.84,5.16-1.713,7.866c0.127,2.706,1.455,5.507,3.843,6.621c3.537,1.651,7.648-0.971,9.956-4.198
					c2.309-3.226,3.713-7.169,6.538-9.922c2.825-2.752,8.016-3.637,10.248-0.353c1.098,1.616,1.143,3.731,1.147,5.707
					c0.008,3.751,0.015,7.503,0.023,11.254c0.004,2.063-0.005,4.197-0.815,6.083c-1.352,3.148-4.579,4.885-7.576,6.386
					c-6.51,3.26-13.02,6.519-19.53,9.779c-2.198,1.1-4.421,2.218-6.286,3.847c-8.504,7.425-2.79,17.702-9.35,24.851
					c-2.648,2.886-7.042,3.754-9.214,7.038c-1.605,2.427-1.597,5.585-1.53,8.525
					C1060.344,2423.816,1062.383,2428.384,1065.324,2430.329z"/>
				<path style="fill:#FFFFFF;" d="M1292.291,2492.721c-2.636,4.93-2.272,11.375-8.229,14.097
					c-3.963,1.811-9.035,0.984-12.262,3.974c-3.682,3.41-2.72,9.459-2.009,14.518c0.128,0.907,0.23,1.87-0.128,2.708
					c-0.949,2.22-4.35,2.162-5.516,4.267c-1.001,1.808,0.24,4.086,1.733,5.484c4.55,4.258,11.944,4.816,17.043,1.286
					c1.357-0.939,2.827-2.195,4.412-1.792c1.85,0.47,2.47,2.793,2.973,4.694c1.069,4.046,3.181,7.935,6.518,10.322
					c10.497,7.507,25.265-1.628,36.923,8.964c1.432,1.301,2.794,2.848,3.213,4.772c0.452,2.079-0.224,4.466,0.906,6.248
					c1.414,2.231,4.896,1.928,6.799,0.128c1.904-1.8,2.668-4.511,3.463-7.049c0.795-2.538,1.838-5.22,4.024-6.64
					c3.682-2.388,7.878-1.475,9.916-6.333c2.542-6.197-5.043-11.33-2.635-16.976c1.075-2.521,2.793-5.272,1.715-7.792
					c-0.548-1.279-1.71-2.135-2.67-3.127c-4.493-4.646-5.257-9.018-11.244-11.852c-3.82-1.808-11.734,0.531-13.302-6.06
					c-0.409-1.718,0.177-3.874-1.104-5.046c-0.726-0.664-1.787-0.71-2.756-0.706c-6.699,0.024-14.665,0.128-18.483-5.566
					c-4.219-6.293-4.714-10.831-13.282-7.706C1295.192,2488.675,1293.451,2490.552,1292.291,2492.721z"/>
				<path style="fill:#FFFFFF;" d="M1092.622,2458.095c-1.396,2.003-2.183,4.416-3.655,6.36c-4.143,5.469-5.941,0.635-10.623,2.476
					c-1.616,0.637-3.047,1.771-4.733,2.172c-3.409,0.811-6.794-1.542-10.292-1.556c-13.472-0.056-6.4,22.348,0.122,26.644
					c1.207,0.795,2.729,0.806,4.16,0.792c4.441-0.045,8.883-0.09,13.324-0.135c1.266-0.013,2.623,0.001,3.666,0.744
					c3.213,2.286,0.152,7.933,2.084,11.437c1.326,2.404,4.406,2.851,7.041,3.346c5.568,1.045,6.786,7.314,10.195,11.181
					c4.381,4.97,8.562,6.975,11.031,14.191c1.466,4.285,1.975,8.921,3.909,13.003c3.978,8.394,14.296,12.917,22.892,10.035
					c8.596-2.882,14.389-12.805,12.853-22.017c-0.898-5.381-3.893-10.095-5.973-15.114c-4.207-10.152-1.361-22.515,10.296-24.452
					c2.942-0.489,6.679-0.66,7.777-3.526c1.582-4.13-4.522-8.961-1.991-12.549c0.911-1.292,2.674-1.754,3.475-3.122
					c1.076-1.839-0.149-4.218-1.648-5.706c-1.499-1.488-3.389-2.777-4.009-4.83c-3.486-11.558-14.934-4.334-22.573-2.811
					c-6.814,1.359-10.699,0.476-16.368-2.915C1114.806,2456.491,1101.505,2445.346,1092.622,2458.095z"/>
				<path style="fill:#FFFFFF;" d="M1121.649,2277.351c1.007-1.945,3.467-2.4,5.595-2.55c7.331-0.514,14.728-0.02,21.935,1.466
					c-5.966,4.853-12.625,9.954-20.21,9.69c-3.441-0.12-7.011-1.347-10.23-0.083c-0.753-2.346-0.338-5.059,1.08-7.05
					L1121.649,2277.351z"/>
				<path style="fill:#FFFFFF;" d="M1036.882,2366.591c7.481,6.125,33.872-2.048,21.56-9.954c-1.989-1.278-4.375-1.67-6.69-2.037
					c-3.111-0.492-6.302-0.983-9.383-0.323s-6.082,2.724-7.007,5.837C1034.472,2363.108,1035.198,2365.212,1036.882,2366.591z"/>
				<path style="fill:#FFFFFF;" d="M1362.832,2312.7c4.628,4.197,11.107,5.23,17.206,6.089c3.044,0.429,7.029,0.313,8.08-2.674
					c1.109-3.149-2.469-6.057-5.69-6.422c-3.22-0.365-6.641,0.515-9.624-0.791c-2.646-1.159-4.73-3.956-7.603-3.931
					c-3.345,0.029-5.37,5.079-3.027,7.549L1362.832,2312.7z"/>
			</g>
			<path style="fill:#FFFFFF;" d="M2349.583,2100.21H1517.89c-22.438,0-40.628-18.19-40.628-40.628v-427.357
				c0-23.368,19.166-42.193,42.531-41.772l821.794,14.784c24.725,0.445,44.535,20.615,44.535,45.344v413.091
				C2386.122,2083.851,2369.763,2100.21,2349.583,2100.21z"/>
			<path style="opacity:0.54;fill:#FFFFFF;" d="M2914.842,1863.626h-445.201c-5.891,0-10.667-4.776-10.667-10.667v-246.205
				c0-5.891,4.776-10.667,10.667-10.667h445.201c5.891,0,10.667,4.776,10.667,10.667v246.205
				C2925.509,1858.851,2920.733,1863.626,2914.842,1863.626z"/>
			<path style="opacity:0.54;fill:#FFFFFF;" d="M2917.053,2100.21h-445.201c-5.891,0-10.667-4.775-10.667-10.667v-185.476
				c0-5.891,4.775-10.667,10.667-10.667h445.201c5.891,0,10.667,4.776,10.667,10.667v185.476
				C2927.719,2095.435,2922.944,2100.21,2917.053,2100.21z"/>
		</g>
		<path style="opacity:0.54;fill:#FFFFFF;" d="M1613.068,2251.493h207.477c9.114,0,16.504,7.389,16.504,16.504
			c0,9.114-7.39,16.504-16.504,16.504h-207.477c-9.115,0-16.504-7.39-16.504-16.504
			C1596.564,2258.883,1603.953,2251.493,1613.068,2251.493z"/>
		<path style="opacity:0.54;fill:#FFFFFF;" d="M1613.068,2199.849h207.477c9.114,0,16.504,7.389,16.504,16.504
			c0,9.114-7.39,16.504-16.504,16.504h-207.477c-9.115,0-16.504-7.39-16.504-16.504
			C1596.564,2207.238,1603.953,2199.849,1613.068,2199.849z"/>
		<path style="opacity:0.54;fill:#FFFFFF;" d="M1619.702,2571.865h207.477c9.114,0,16.503,7.39,16.503,16.504
			c0,9.114-7.389,16.504-16.503,16.504h-207.477c-9.115,0-16.504-7.39-16.504-16.504
			C1603.198,2579.254,1610.587,2571.865,1619.702,2571.865z"/>
		<path style="opacity:0.54;fill:#FFFFFF;" d="M1613.069,2520.22h207.477c9.114,0,16.503,7.389,16.503,16.504
			c0,9.114-7.389,16.504-16.503,16.504h-207.477c-9.115,0-16.504-7.39-16.504-16.504
			C1596.564,2527.61,1603.953,2520.22,1613.069,2520.22z"/>
		
			<linearGradient id="SVGID_00000064331989352133284440000008582457343104183194_" gradientUnits="userSpaceOnUse" x1="1576.1198" y1="3192.0779" x2="1863.8916" y2="1331.5953">
			<stop  offset="0" style="stop-color:#FF928E"/>
			<stop  offset="1" style="stop-color:#FE7062"/>
		</linearGradient>
		<path style="fill:url(#SVGID_00000064331989352133284440000008582457343104183194_);" d="M3132.448,1491.339l0.102-30.147
			c0.154-41.391-32.863-75.317-74.295-76.323l-2415.892-48.756c-46.34-1.125-84.175,36.077-84.175,82.37v72.856H3132.448z"/>
		<g style="opacity:0.85;">
			<path style="fill:#FFFFFF;" d="M728.604,1445.31c11.892,0.144,21.649-9.379,21.794-21.271c0.145-11.892-9.379-21.65-21.27-21.794
				c-11.892-0.144-21.65,9.38-21.794,21.271C707.189,1435.408,716.712,1445.165,728.604,1445.31z"/>
			<path style="fill:#FFFFFF;" d="M791.699,1446.076c11.892,0.144,21.651-9.379,21.795-21.271
				c0.144-11.892-9.379-21.65-21.272-21.794c-11.892-0.144-21.65,9.38-21.794,21.271
				C770.284,1436.174,779.807,1445.932,791.699,1446.076z"/>
			<path style="fill:#FFFFFF;" d="M854.795,1446.843c11.892,0.144,21.65-9.379,21.794-21.271
				c0.144-11.892-9.379-21.65-21.271-21.794c-11.892-0.144-21.649,9.38-21.794,21.271
				C833.38,1436.941,842.902,1446.698,854.795,1446.843z"/>
		</g>
		<g>
			<g>
				
					<ellipse transform="matrix(0.7071 -0.7071 0.7071 0.7071 -723.8475 1823.1805)" style="fill:#91B3FA;" cx="1838.85" cy="1785.352" rx="917.789" ry="917.789"/>
				<g>
					
						<linearGradient id="SVGID_00000077325012004057854520000013380550852521234346_" gradientUnits="userSpaceOnUse" x1="1318.0615" y1="2494.1921" x2="-563.3607" y2="4992.085">
						<stop  offset="0" style="stop-color:#4F52FF"/>
						<stop  offset="1" style="stop-color:#4042E2"/>
					</linearGradient>
					
						<circle style="fill:url(#SVGID_00000077325012004057854520000013380550852521234346_);" cx="1851.276" cy="1786.264" r="835.586"/>
					<path style="fill:#FFFFFF;" d="M1851.277,2640.255c-228.11,0-442.564-88.831-603.864-250.128
						c-161.297-161.299-250.128-375.754-250.128-603.862s88.831-442.564,250.128-603.862
						c161.3-161.297,375.754-250.128,603.864-250.128s442.563,88.831,603.861,250.128
						c161.297,161.299,250.128,375.754,250.128,603.862s-88.831,442.564-250.128,603.862
						C2293.84,2551.424,2079.386,2640.255,1851.277,2640.255z M1851.277,969.082c-450.596,0-817.184,366.586-817.184,817.182
						s366.588,817.182,817.184,817.182s817.18-366.586,817.18-817.182S2301.872,969.082,1851.277,969.082z"/>
				</g>
				<g>
					
						<linearGradient id="SVGID_00000130607952971722841670000001639793721099121826_" gradientUnits="userSpaceOnUse" x1="2750.6362" y1="124.0547" x2="1251.54" y2="2894.7021">
						<stop  offset="0" style="stop-color:#4F52FF"/>
						<stop  offset="1" style="stop-color:#4042E2"/>
					</linearGradient>
					
						<circle style="fill:url(#SVGID_00000130607952971722841670000001639793721099121826_);" cx="1851.276" cy="1786.264" r="509.413"/>
					<path style="fill:#FFFFFF;" d="M1851.277,2314.081c-291.041,0-527.82-236.777-527.82-527.816
						c0-291.041,236.779-527.818,527.82-527.818s527.816,236.777,527.816,527.818
						C2379.093,2077.303,2142.317,2314.081,1851.277,2314.081z M1851.277,1295.255c-270.744,0-491.012,220.266-491.012,491.01
						c0,270.743,220.267,491.008,491.012,491.008s491.008-220.265,491.008-491.008
						C2342.285,1515.52,2122.021,1295.255,1851.277,1295.255z"/>
				</g>
				<g>
					
						<linearGradient id="SVGID_00000039812079973992750970000015991058927530437800_" gradientUnits="userSpaceOnUse" x1="4052.7559" y1="-1136.5576" x2="2171.3384" y2="1361.3285">
						<stop  offset="0" style="stop-color:#4F52FF"/>
						<stop  offset="1" style="stop-color:#4042E2"/>
					</linearGradient>
					
						<circle style="fill:url(#SVGID_00000039812079973992750970000015991058927530437800_);" cx="1851.276" cy="1786.264" r="197.362"/>
					<path style="fill:#FFFFFF;" d="M1851.277,2002.03c-118.976,0-215.767-96.793-215.767-215.766s96.791-215.766,215.767-215.766
						c118.973,0,215.764,96.793,215.764,215.766S1970.25,2002.03,1851.277,2002.03z M1851.277,1607.307
						c-98.68,0-178.959,80.281-178.959,178.958c0,98.677,80.279,178.958,178.959,178.958c98.677,0,178.956-80.281,178.956-178.958
						C2030.233,1687.588,1949.953,1607.307,1851.277,1607.307z"/>
				</g>
			</g>
			<g>
				
					<linearGradient id="SVGID_00000108291232301291243020000016614127574955435683_" gradientUnits="userSpaceOnUse" x1="89.211" y1="4087.1838" x2="-190.6429" y2="5224.0859" gradientTransform="matrix(-0.7071 -0.7071 0.7071 -0.7071 -1192.2574 4633.1733)">
					<stop  offset="0" style="stop-color:#09005D"/>
					<stop  offset="1" style="stop-color:#1A0F91"/>
				</linearGradient>
				<polygon style="fill:url(#SVGID_00000108291232301291243020000016614127574955435683_);" points="3010.852,642.693 
					3035.588,667.428 2098.917,1604.099 2074.181,1579.364 				"/>
				
					<linearGradient id="SVGID_00000179631379392565152380000008589296019342813104_" gradientUnits="userSpaceOnUse" x1="23937.6777" y1="-19719.9141" x2="22532.2773" y2="-18314.5117" gradientTransform="matrix(-0.7071 -0.7071 0.7071 -0.7071 -1192.2574 4633.1733)">
					<stop  offset="0" style="stop-color:#FF928E"/>
					<stop  offset="1" style="stop-color:#FE7062"/>
				</linearGradient>
				<path style="fill:url(#SVGID_00000179631379392565152380000008589296019342813104_);" d="M2091.7,1519.68
					c14.191-14.191,81.091,52.709,66.9,66.9l-248.129,195.068c-9.167,7.207-21.045-4.672-13.838-13.84L2091.7,1519.68z"/>
				
					<linearGradient id="SVGID_00000005235078377756147900000008447809976896487093_" gradientUnits="userSpaceOnUse" x1="24539.3535" y1="-19118.2129" x2="23133.9512" y2="-17712.8105" gradientTransform="matrix(-0.7071 -0.7071 0.7071 -0.7071 -1192.2574 4633.1733)">
					<stop  offset="0" style="stop-color:#FF928E"/>
					<stop  offset="1" style="stop-color:#FE7062"/>
				</linearGradient>
				<path style="fill:url(#SVGID_00000005235078377756147900000008447809976896487093_);" d="M3035.053,667.963l126.011,12.524
					l-172.989,172.99c-56.679,56.678-135.792,84.946-215.554,77.017l0,0L3035.053,667.963z"/>
				
					<linearGradient id="SVGID_00000005974280704745909360000001893452333378565564_" gradientUnits="userSpaceOnUse" x1="19171.1699" y1="-12721.585" x2="17765.7676" y2="-11316.1826" gradientTransform="matrix(0.7071 0.7071 0.7071 -0.7071 -1682.106 4143.3247)">
					<stop  offset="0" style="stop-color:#FF928E"/>
					<stop  offset="1" style="stop-color:#FE7062"/>
				</linearGradient>
				<path style="fill:url(#SVGID_00000005974280704745909360000001893452333378565564_);" d="M3010.317,643.228l-12.524-126.011
					l-172.989,172.989c-56.679,56.679-84.946,135.791-77.018,215.554l0,0L3010.317,643.228z"/>
			</g>
		</g>
		<g>
			
				<linearGradient id="SVGID_00000170243971537315156070000008039001688532677289_" gradientUnits="userSpaceOnUse" x1="1321.0419" y1="2984.665" x2="1738.0319" y2="3409.752">
				<stop  offset="0" style="stop-color:#4F52FF"/>
				<stop  offset="1" style="stop-color:#4042E2"/>
			</linearGradient>
			<path style="fill:url(#SVGID_00000170243971537315156070000008039001688532677289_);" d="M1468.674,3199.612
				c-0.01-0.643,0.033-1.294,0.198-1.95c9.723-38.549,49.48-58.309,49.48-58.309l19.124,1.5
				c10.995,33.977,18.085,50.563,16.319,59.845c-0.049,0.26-0.128,0.507-0.197,0.759
				C1537.823,3202.866,1505.353,3203.786,1468.674,3199.612z"/>
			<path style="fill:#91B3FA;" d="M1553.598,3201.457c-0.852,3.099-3.14,5.512-6.068,6.128c-22.44,4.72-58.107,0.921-73.082-1.036
				c-3.304-0.431-5.718-3.487-5.773-6.937C1505.353,3203.786,1537.823,3202.866,1553.598,3201.457z"/>
			
				<linearGradient id="SVGID_00000167367273467058872170000004093078887895348646_" gradientUnits="userSpaceOnUse" x1="3337.8792" y1="3070.7981" x2="3320.8315" y2="3219.5784" gradientTransform="matrix(1 0 0 1 -1811.8352 0)">
				<stop  offset="0" style="stop-color:#FEBBBA"/>
				<stop  offset="1" style="stop-color:#FF928E"/>
			</linearGradient>
			<path style="fill:url(#SVGID_00000167367273467058872170000004093078887895348646_);" d="M1502.605,3109.594l8.373,40.307
				c0.613,2.954,2.883,5.165,5.632,5.424c3.365,0.316,8.155,0.501,12.972-0.206c4.32-0.635,7.328-5.024,6.562-9.735l-5.82-35.789
				H1502.605z"/>
			<path style="fill:#91B3FA;" d="M1716.086,3201.123c-20.424-0.572-30.988-2.977-36.45-5.209c-0.012,2.031-0.001,4.097,0.064,6.239
				c0.071,2.287,1.765,4.114,3.849,4.101l112.141-0.724c3.579-0.023,5.67-4.173,4.119-7.455
				C1785.107,3199.288,1747.658,3202.006,1716.086,3201.123z"/>
			
				<linearGradient id="SVGID_00000100344776908948544090000002485381882579943084_" gradientUnits="userSpaceOnUse" x1="1916.3314" y1="2998.6282" x2="1477.0751" y2="3439.9084">
				<stop  offset="0" style="stop-color:#4F52FF"/>
				<stop  offset="1" style="stop-color:#4042E2"/>
			</linearGradient>
			<path style="fill:url(#SVGID_00000100344776908948544090000002485381882579943084_);" d="M1799.81,3198.073
				c-0.135-0.285-0.251-0.577-0.444-0.845c-9.903-13.838-35.127-41.394-84.97-53.345l-23.911-0.754c0,0-10.647,18.506-10.848,52.785
				c5.462,2.232,16.025,4.637,36.45,5.209C1747.658,3202.006,1785.107,3199.288,1799.81,3198.073z"/>
			
				<linearGradient id="SVGID_00000160187094830287457290000008920471319001434786_" gradientUnits="userSpaceOnUse" x1="3517.4634" y1="3089.833" x2="3501.5166" y2="3229.0061" gradientTransform="matrix(1 0 0 1 -1811.8352 0)">
				<stop  offset="0" style="stop-color:#FEBBBA"/>
				<stop  offset="1" style="stop-color:#FF928E"/>
			</linearGradient>
			<path style="fill:url(#SVGID_00000160187094830287457290000008920471319001434786_);" d="M1686.051,3106.891
				c0.266,1.782,3.543,28.871,4.812,39.374c0.301,2.497,2.109,4.428,4.389,4.7c4.071,0.486,10.66,0.929,16.424-0.253
				c3.109-0.637,5.36-3.625,5.36-7.098v-42.522L1686.051,3106.891z"/>
			
				<linearGradient id="SVGID_00000067194867861613887200000002396158188648675519_" gradientUnits="userSpaceOnUse" x1="1131.8806" y1="3192.6919" x2="1972.6541" y2="2607.2634">
				<stop  offset="0" style="stop-color:#4F52FF"/>
				<stop  offset="1" style="stop-color:#4042E2"/>
			</linearGradient>
			<path style="fill:url(#SVGID_00000067194867861613887200000002396158188648675519_);" d="M1518.583,2580.299
				c0,0-38.261,340.109-17.005,552.677c0,0,25.508,0,38.262-4.251c0,0,39.76-332.54,52.623-427.697
				c0.485-3.587,5.606-3.75,6.31-0.199c15.87,80.056,78.202,393.997,85.614,423.645c0,0,21.257,8.502,38.263,0
				c0,0-34.011-454.896-59.52-535.672L1518.583,2580.299z"/>
			
				<linearGradient id="SVGID_00000132049612834454173410000007917271867655646091_" gradientUnits="userSpaceOnUse" x1="1258.0166" y1="2761.3259" x2="1652.8679" y2="2259.3953">
				<stop  offset="0" style="stop-color:#FF928E"/>
				<stop  offset="1" style="stop-color:#FE7062"/>
			</linearGradient>
			<path style="fill:url(#SVGID_00000132049612834454173410000007917271867655646091_);" d="M1442.059,2184.923
				c0,0,161.552-25.508,289.093,8.503l-8.503,131.792c0,0-34.011,182.809-59.52,263.585c0,0-97.781,17.005-144.546-8.503
				c0,0-38.261-229.573-59.519-263.585C1459.064,2316.715,1437.807,2227.436,1442.059,2184.923z"/>
			
				<linearGradient id="SVGID_00000054946114739497047350000016050912859927002786_" gradientUnits="userSpaceOnUse" x1="1538.193" y1="2127.6343" x2="1614.6403" y2="2127.6343">
				<stop  offset="0" style="stop-color:#FEBBBA"/>
				<stop  offset="1" style="stop-color:#FF928E"/>
			</linearGradient>
			<path style="fill:url(#SVGID_00000054946114739497047350000016050912859927002786_);" d="M1554.287,2068.755l-16.094,108.835
				c0,0,44.963,20.655,76.447-0.886l-6.778-76.809L1554.287,2068.755z"/>
			
				<linearGradient id="SVGID_00000078727511960664339020000008472844845926492606_" gradientUnits="userSpaceOnUse" x1="1064.8666" y1="2609.3809" x2="1459.7178" y2="2107.4507">
				<stop  offset="0" style="stop-color:#FF928E"/>
				<stop  offset="1" style="stop-color:#FE7062"/>
			</linearGradient>
			<path style="fill:url(#SVGID_00000078727511960664339020000008472844845926492606_);" d="M1514.777,2331.72
				c0,0-365.038-99.364-183.783-354.898l12.263,17.363c0,0-54.61,173.077,126.294,189.523
				C1469.551,2183.708,1516.404,2304.547,1514.777,2331.72z"/>
			
				<linearGradient id="SVGID_00000125574439518930949930000005310102031348186521_" gradientUnits="userSpaceOnUse" x1="1375.9401" y1="1900.5472" x2="1332.77" y2="2042.392">
				<stop  offset="0" style="stop-color:#FEBBBA"/>
				<stop  offset="1" style="stop-color:#FF928E"/>
			</linearGradient>
			<path style="fill:url(#SVGID_00000125574439518930949930000005310102031348186521_);" d="M1329.762,1978.137
				c0,0-4.111-49.337,20.557-53.449c24.668-4.112,32.891,20.557,37.003,32.891c4.111,12.334-37.003,37.003-45.226,37.003
				C1333.873,1994.582,1329.762,1978.137,1329.762,1978.137z"/>
			
				<linearGradient id="SVGID_00000109733513489804980350000002528173251822537662_" gradientUnits="userSpaceOnUse" x1="1297.6466" y1="2792.5005" x2="1692.4963" y2="2290.5718">
				<stop  offset="0" style="stop-color:#FF928E"/>
				<stop  offset="1" style="stop-color:#FE7062"/>
			</linearGradient>
			<path style="fill:url(#SVGID_00000109733513489804980350000002528173251822537662_);" d="M1646.464,2344.055
				c0,0,365.038-99.364,183.783-354.898l-12.263,17.363c0,0,54.61,173.078-126.293,189.523
				C1691.69,2196.043,1644.836,2316.881,1646.464,2344.055z"/>
			
				<linearGradient id="SVGID_00000063608803831403788530000009408766853693677236_" gradientUnits="userSpaceOnUse" x1="111.7286" y1="1912.8817" x2="68.5588" y2="2054.7258" gradientTransform="matrix(-1 0 0 1 1897.0294 0)">
				<stop  offset="0" style="stop-color:#FEBBBA"/>
				<stop  offset="1" style="stop-color:#FF928E"/>
			</linearGradient>
			<path style="fill:url(#SVGID_00000063608803831403788530000009408766853693677236_);" d="M1831.479,1990.47
				c0,0,4.112-49.336-20.557-53.448c-24.669-4.111-32.892,20.557-37.003,32.891c-4.111,12.335,37.003,37.003,45.226,37.003
				C1827.367,2006.916,1831.479,1990.47,1831.479,1990.47z"/>
			<g>
				
					<linearGradient id="SVGID_00000140729797786026626070000000867379587036809141_" gradientUnits="userSpaceOnUse" x1="-4535.7759" y1="-169.9151" x2="-4573.0293" y2="-292.7844" gradientTransform="matrix(0.746 -0.6659 0.6659 0.746 5126.3354 -803.1727)">
					<stop  offset="0" style="stop-color:#FEBBBA"/>
					<stop  offset="1" style="stop-color:#FF928E"/>
				</linearGradient>
				<path style="fill:url(#SVGID_00000140729797786026626070000000867379587036809141_);" d="M1610.393,2012.318
					c0,0,35.995,67.755,31.381,95.126c-4.614,27.37-49.224,25.405-88.179,3.176l-27.221-73.161L1610.393,2012.318z"/>
				
					<linearGradient id="SVGID_00000081638530241956027020000001742006399252080294_" gradientUnits="userSpaceOnUse" x1="-4569.3853" y1="-383.9966" x2="-4538.2236" y2="-206.2585" gradientTransform="matrix(0.746 -0.6659 0.6659 0.746 5126.3354 -803.1727)">
					<stop  offset="0" style="stop-color:#09005D"/>
					<stop  offset="1" style="stop-color:#1A0F91"/>
				</linearGradient>
				<path style="fill:url(#SVGID_00000081638530241956027020000001742006399252080294_);" d="M1555.317,2074.69
					c1.583-0.701,2.167-2.638,1.219-4.087c-2.884-4.405-8.29-13.393-10.014-21.262c0,0-6.471-4.144,16.469-9.635
					c22.94-5.491,57.15-14.013,64.341-33.54c7.01-19.038-11.41-66.914-40.797-28.767c-1.118,1.451-3.309,1.484-4.426,0.031
					c-4.817-6.27-17.483-19.285-35.068-11.395c-16.455,7.384-18.309,19.442-18.083,25.519c0.067,1.789-1.532,3.178-3.289,2.843
					c-8.321-1.586-28.285-2.949-37.604,17.532c-7.676,16.87-2.687,26.42,1.856,31.09c1.472,1.513,0.827,4.005-1.191,4.623
					c-5.468,1.673-12.53,6.31-11.823,19.121c0.977,17.709,20.779,16.149,26.416,15.342c0.923-0.133,1.854,0.185,2.479,0.877
					c4.835,5.349,26.613,28.063,50.185,30.801c2.041,0.237,3.623-1.779,2.954-3.722l-10.2-29.653
					c-0.474-1.378,0.185-2.888,1.517-3.478L1555.317,2074.69z"/>
				
					<linearGradient id="SVGID_00000169525153966975795450000005909529023020904887_" gradientUnits="userSpaceOnUse" x1="-4573.8579" y1="-170.4875" x2="-4607.375" y2="-281.0349" gradientTransform="matrix(0.746 -0.6659 0.6659 0.746 5126.3354 -803.1727)">
					<stop  offset="0" style="stop-color:#FEBBBA"/>
					<stop  offset="1" style="stop-color:#FF928E"/>
				</linearGradient>
				<path style="fill:url(#SVGID_00000169525153966975795450000005909529023020904887_);" d="M1559.417,2078.899
					c0,0-25.628-17.584-27.501-2.776c-1.872,14.808,23.079,21.448,35.437,15.927L1559.417,2078.899z"/>
			</g>
		</g>
	</g>
</g>
</svg>
