<svg width="236" height="360" viewBox="0 0 236 360" fill="none" xmlns="http://www.w3.org/2000/svg">
<g filter="url(#filter0_ii_133_453)">
<path d="M236 161L218 154H0V358L219 360L236 346V161Z" fill="#52CAC8"/>
</g>
<g filter="url(#filter1_ii_133_453)">
<path d="M48 97V153H16V87L20 65L30 45L50 25L76 8L96 2.5L116 0L137 2.5L158 8L188 25L201 41L210 57L219 74.5L222 96L220 154H190V97L187 81L178 61L161 45L136 37L116 35L99 37L82 45L60 63L52 81L48 97Z" fill="#9FE3DD"/>
</g>
<path d="M99.5 255L105.5 258V306H132V258L138.5 250.5L142 244.5L141 234.5L138.5 229.5L135.5 224.5L132 220L127 218L120.5 216L113 217L105.5 220L99.5 224.5L96 229.5L93.5 236.5V244.5L96 250.5L99.5 255Z" fill="#CEF1EE"/>
<defs>
<filter id="filter0_ii_133_453" x="-13" y="154" width="257" height="210" filterUnits="userSpaceOnUse" color-interpolation-filters="sRGB">
<feFlood flood-opacity="0" result="BackgroundImageFix"/>
<feBlend mode="normal" in="SourceGraphic" in2="BackgroundImageFix" result="shape"/>
<feColorMatrix in="SourceAlpha" type="matrix" values="0 0 0 0 0 0 0 0 0 0 0 0 0 0 0 0 0 0 127 0" result="hardAlpha"/>
<feOffset dx="-21" dy="4"/>
<feGaussianBlur stdDeviation="6.5"/>
<feComposite in2="hardAlpha" operator="arithmetic" k2="-1" k3="1"/>
<feColorMatrix type="matrix" values="0 0 0 0 0 0 0 0 0 0 0 0 0 0 0 0 0 0 0.44 0"/>
<feBlend mode="normal" in2="shape" result="effect1_innerShadow_133_453"/>
<feColorMatrix in="SourceAlpha" type="matrix" values="0 0 0 0 0 0 0 0 0 0 0 0 0 0 0 0 0 0 127 0" result="hardAlpha"/>
<feOffset dx="8" dy="4"/>
<feGaussianBlur stdDeviation="7"/>
<feComposite in2="hardAlpha" operator="arithmetic" k2="-1" k3="1"/>
<feColorMatrix type="matrix" values="0 0 0 0 0 0 0 0 0 0 0 0 0 0 0 0 0 0 0.25 0"/>
<feBlend mode="normal" in2="effect1_innerShadow_133_453" result="effect2_innerShadow_133_453"/>
</filter>
<filter id="filter1_ii_133_453" x="16" y="-4" width="214" height="162" filterUnits="userSpaceOnUse" color-interpolation-filters="sRGB">
<feFlood flood-opacity="0" result="BackgroundImageFix"/>
<feBlend mode="normal" in="SourceGraphic" in2="BackgroundImageFix" result="shape"/>
<feColorMatrix in="SourceAlpha" type="matrix" values="0 0 0 0 0 0 0 0 0 0 0 0 0 0 0 0 0 0 127 0" result="hardAlpha"/>
<feOffset dx="9" dy="4"/>
<feGaussianBlur stdDeviation="4"/>
<feComposite in2="hardAlpha" operator="arithmetic" k2="-1" k3="1"/>
<feColorMatrix type="matrix" values="0 0 0 0 0 0 0 0 0 0 0 0 0 0 0 0 0 0 0.25 0"/>
<feBlend mode="normal" in2="shape" result="effect1_innerShadow_133_453"/>
<feColorMatrix in="SourceAlpha" type="matrix" values="0 0 0 0 0 0 0 0 0 0 0 0 0 0 0 0 0 0 127 0" result="hardAlpha"/>
<feOffset dy="-4"/>
<feGaussianBlur stdDeviation="12"/>
<feComposite in2="hardAlpha" operator="arithmetic" k2="-1" k3="1"/>
<feColorMatrix type="matrix" values="0 0 0 0 1 0 0 0 0 1 0 0 0 0 1 0 0 0 1 0"/>
<feBlend mode="normal" in2="effect1_innerShadow_133_453" result="effect2_innerShadow_133_453"/>
</filter>
</defs>
</svg>
