<?xml version="1.0" encoding="utf-8"?>
<!-- Generator: Adobe Illustrator 27.5.0, SVG Export Plug-In . SVG Version: 6.00 Build 0)  -->
<svg version="1.1" id="Layer_1" xmlns="http://www.w3.org/2000/svg" xmlns:xlink="http://www.w3.org/1999/xlink" x="0px" y="0px"
	 viewBox="0 0 3000 2000" style="enable-background:new 0 0 3000 2000;" xml:space="preserve">
<linearGradient id="SVGID_1_" gradientUnits="userSpaceOnUse" x1="0" y1="1000" x2="3000" y2="1000">
	<stop  offset="0" style="stop-color:#151919"/>
	<stop  offset="0.5" style="stop-color:#2A2C35"/>
	<stop  offset="1" style="stop-color:#151919"/>
</linearGradient>
<rect style="fill:url(#SVGID_1_);" width="3000" height="2000"/>
<g>
	<path style="fill:#00AEEF;" d="M2089.172,592.635c-193.912-54.78-376.834-143.226-543.674-262.888l-45.518-32.612l-45.469,32.612
		c-82.839,59.401-170.904,111.797-261.754,155.732c-90.87,43.955-185.735,80.005-281.959,107.156l-7.415,2.091l89.043,332.977
		c41.376,154.696,105.798,299.935,191.46,431.682c42.87,65.917,90.489,127.624,142.484,184.69
		c52.005,57.076,108.387,109.52,168.784,156.943l4.826,3.791l4.826-3.791c120.854-94.836,225.596-209.769,311.307-341.614
		c85.711-131.835,150.134-277.083,191.47-431.702l89.004-332.977L2089.172,592.635z M1992.49,923.658
		c-40.926,153.035-104.675,296.77-189.477,427.227c-83.64,128.64-185.569,240.994-303.022,334.032
		c-117.414-93.048-219.334-205.412-303.003-334.052c-84.754-130.359-148.512-274.104-189.457-427.207l-85.066-318.088
		c94.553-27.151,187.738-62.801,277.103-106.013c91.651-44.326,180.489-97.181,264.05-157.109l36.373-26.076l36.403,26.076
		c166.185,119.202,348.198,207.698,541.114,263.122L1992.49,923.658z"/>
	<path style="fill:#00AEEF;" d="M2261.152,575.411c-141.575-30.853-278.207-83.191-406.105-155.566
		c-127.907-72.385-245.478-163.9-349.429-272.013l-5.627-5.862l-5.637,5.862c-103.932,108.113-221.493,199.628-349.4,272.013
		c-127.888,72.375-264.539,124.712-406.134,155.566l-8.207,1.788l2.364,8.06c61.032,207.248,170.054,461.265,291.641,679.475
		c106.159,190.522,274.006,447.529,470.781,589.973l4.592,3.322l4.582-3.322c197.322-142.875,364.895-399.725,470.732-590.042
		c120.277-216.256,229.309-470.234,291.68-679.387l2.403-8.07L2261.152,575.411z M1961.646,1257.075
		c-104.245,187.435-268.652,439.781-461.656,581.63c-192.496-141.438-357.157-393.931-461.714-581.581
		c-119.486-214.449-226.769-463.542-287.918-668.25c140.208-31.41,275.511-83.679,402.294-155.419
		c126.93-71.828,243.739-162.287,347.339-268.965c103.61,106.677,220.428,197.136,347.358,268.965
		c126.774,71.74,262.067,124.009,402.236,155.409C2187.145,795.429,2079.852,1044.521,1961.646,1257.075z"/>
	<g style="opacity:0.85;">
		<path style="fill:none;stroke:#FFFFFF;stroke-width:7.8159;stroke-miterlimit:10;" d="M2261.152,575.411
			c-141.575-30.853-278.207-83.191-406.105-155.566c-127.907-72.385-245.478-163.9-349.429-272.013l-5.627-5.862l-5.637,5.862
			c-103.932,108.113-221.493,199.628-349.4,272.013c-127.888,72.375-264.539,124.712-406.134,155.566l-8.207,1.788l2.364,8.06
			c61.032,207.248,170.054,461.265,291.641,679.475c106.159,190.522,274.006,447.529,470.781,589.973l4.592,3.322l4.582-3.322
			c197.322-142.875,364.895-399.725,470.732-590.042c120.277-216.256,229.309-470.234,291.68-679.387l2.403-8.07L2261.152,575.411z
			 M1961.646,1257.075c-104.245,187.435-268.652,439.781-461.656,581.63c-192.496-141.438-357.157-393.931-461.714-581.581
			c-119.486-214.449-226.769-463.542-287.918-668.25c140.208-31.41,275.511-83.679,402.294-155.419
			c126.93-71.828,243.739-162.287,347.339-268.965c103.61,106.677,220.428,197.136,347.358,268.965
			c126.774,71.74,262.067,124.009,402.236,155.409C2187.145,795.429,2079.852,1044.521,1961.646,1257.075z"/>
		<path style="fill:none;stroke:#FFFFFF;stroke-width:7.8159;stroke-miterlimit:10;" d="M2089.172,592.635
			c-193.912-54.78-376.834-143.226-543.674-262.888l-45.518-32.612l-45.469,32.612c-82.839,59.401-170.904,111.797-261.754,155.732
			c-90.87,43.955-185.735,80.005-281.959,107.156l-7.415,2.091l89.043,332.977c41.376,154.696,105.798,299.935,191.46,431.682
			c42.87,65.917,90.489,127.624,142.484,184.69c52.005,57.076,108.387,109.52,168.784,156.943l4.826,3.791l4.826-3.791
			c120.854-94.836,225.596-209.769,311.307-341.614c85.711-131.835,150.134-277.083,191.47-431.702l89.004-332.977L2089.172,592.635
			z M1992.49,923.658c-40.926,153.035-104.675,296.77-189.477,427.227c-83.64,128.64-185.569,240.994-303.022,334.032
			c-117.414-93.048-219.334-205.412-303.003-334.052c-84.754-130.359-148.512-274.104-189.457-427.207l-85.066-318.088
			c94.553-27.151,187.738-62.801,277.103-106.013c91.651-44.326,180.489-97.181,264.05-157.109l36.373-26.076l36.403,26.076
			c166.185,119.202,348.198,207.698,541.114,263.122L1992.49,923.658z"/>
	</g>
</g>
<g style="opacity:0.92;">
	<g>
		<path style="fill:#D35440;" d="M2489.718,303.469c22.812-41.011,79.842-41.011,102.655,0l38.554,69.311l38.554,69.311
			c22.812,41.011-5.703,92.274-51.327,92.274h-77.108h-77.108c-45.624,0-74.139-51.263-51.327-92.274l38.554-69.311
			L2489.718,303.469z"/>
		<path style="fill:#3E3632;" d="M2499.445,330.181c18.489-32.023,64.711-32.023,83.199,0l31.248,54.122l31.247,54.122
			c18.489,32.023-4.622,72.053-41.6,72.053h-62.495h-62.495c-36.978,0-60.088-40.029-41.6-72.053l31.247-54.122L2499.445,330.181z"
			/>
		<g>
			<path style="fill:#EDEAE6;" d="M2534.385,442.889l-5.933-60.46v-27.954h24.704v27.954l-5.851,60.46H2534.385z M2529.427,473.606
				v-22.835h22.835v22.835H2529.427z"/>
		</g>
	</g>
</g>
<g style="opacity:0.92;">
	<g>
		<path style="fill:#D35440;" d="M637.054,1547.765c22.225-39.955,77.788-39.955,100.013,0l37.562,67.528l37.562,67.528
			c22.225,39.955-5.556,89.9-50.006,89.9H687.06h-75.124c-44.45,0-72.231-49.944-50.006-89.9l37.562-67.528L637.054,1547.765z"/>
		<path style="fill:#3E3632;" d="M646.531,1573.789c18.013-31.199,63.045-31.199,81.058,0l30.443,52.729l30.443,52.729
			c18.013,31.199-4.503,70.198-40.529,70.198H687.06h-60.886c-36.026,0-58.542-38.999-40.529-70.198l30.443-52.729L646.531,1573.789
			z"/>
		<g>
			<path style="fill:#EDEAE6;" d="M680.571,1683.597l-5.78-58.904v-27.235h24.068v27.235l-5.7,58.904H680.571z M675.741,1713.524
				v-22.247h22.247v22.247H675.741z"/>
		</g>
	</g>
</g>
<g style="opacity:0.92;">
	<g>
		<path style="fill:#D35440;" d="M2142.128,1259.525c13.656-24.551,47.797-24.551,61.454,0l23.081,41.493l23.08,41.493
			c13.656,24.551-3.414,55.24-30.727,55.24h-46.161h-46.161c-27.313,0-44.383-30.689-30.727-55.24l23.08-41.493L2142.128,1259.525z"
			/>
		<path style="fill:#3E3632;" d="M2147.952,1275.516c11.068-19.171,38.739-19.171,49.807,0l18.706,32.4l18.706,32.4
			c11.068,19.171-2.767,43.134-24.904,43.134h-37.412h-37.412c-22.137,0-35.972-23.963-24.904-43.134l18.706-32.4L2147.952,1275.516
			z"/>
		<g>
			<path style="fill:#EDEAE6;" d="M2168.868,1342.989l-3.552-36.194v-16.735h14.789v16.735l-3.503,36.194H2168.868z
				 M2165.9,1361.377v-13.67h13.67v13.67H2165.9z"/>
		</g>
	</g>
</g>
<g style="opacity:0.92;">
	<g>
		<path style="fill:#D35440;" d="M823.023,204.108c15.443-27.763,54.051-27.763,69.494,0l26.1,46.922l26.1,46.922
			c15.443,27.763-3.861,62.467-34.747,62.467h-52.2h-52.2c-30.886,0-50.19-34.704-34.747-62.467l26.1-46.922L823.023,204.108z"/>
		<path style="fill:#3E3632;" d="M829.608,222.191c12.516-21.679,43.807-21.679,56.323,0l21.154,36.639l21.154,36.639
			c12.516,21.679-3.129,48.777-28.162,48.777H857.77h-42.307c-25.033,0-40.678-27.099-28.162-48.777l21.154-36.639L829.608,222.191z
			"/>
		<g>
			<path style="fill:#EDEAE6;" d="M853.261,298.491l-4.016-40.929v-18.924h16.724v18.924l-3.961,40.929H853.261z M849.905,319.285
				v-15.459h15.459v15.459H849.905z"/>
		</g>
	</g>
</g>
<g>
	<path style="fill:#D35440;" d="M2446.525,1015.705v91.849h-20.877l-0.028-62.008l-8.312,62.008h-14.807l-8.766-60.59l-0.028,60.59
		h-20.877v-91.849h30.904c0.917,5.522,1.862,12.03,2.835,19.526l3.392,23.362l5.489-42.889H2446.525z"/>
	<path style="fill:#D35440;" d="M2475.912,1061.431h-21.502v-5.049c0-5.824,0.671-10.315,2.014-13.475
		c1.343-3.157,4.037-5.946,8.085-8.367c4.046-2.42,9.304-3.631,15.771-3.631c7.753,0,13.596,1.371,17.53,4.112
		c3.933,2.743,6.297,6.108,7.091,10.099c0.795,3.991,1.191,12.207,1.191,24.65v37.783h-22.295v-6.709
		c-1.4,2.69-3.206,4.708-5.418,6.053c-2.213,1.345-4.851,2.018-7.914,2.018c-4.01,0-7.688-1.126-11.035-3.375
		c-3.347-2.25-5.021-7.177-5.021-14.779v-6.184c0-5.635,0.889-9.475,2.666-11.517s6.185-4.425,13.219-7.148
		c7.526-2.95,11.554-4.936,12.084-5.956c0.529-1.021,0.794-3.102,0.794-6.241c0-3.933-0.293-6.495-0.879-7.687
		c-0.587-1.191-1.561-1.787-2.922-1.787c-1.551,0-2.516,0.501-2.894,1.503c-0.378,1.003-0.566,3.603-0.566,7.801V1061.431z
		 M2483.173,1071.756c-3.669,2.686-5.796,4.936-6.382,6.751c-0.587,1.815-0.879,4.425-0.879,7.829c0,3.896,0.255,6.411,0.766,7.545
		c0.511,1.135,1.521,1.702,3.035,1.702c1.437,0,2.373-0.443,2.808-1.333c0.435-0.888,0.652-3.224,0.652-7.006V1071.756z"/>
	<path style="fill:#D35440;" d="M2537.58,1015.705v91.849h-23.601v-91.849H2537.58z"/>
	<path style="fill:#D35440;" d="M2619.898,1032.271l-9.148,75.283h-24.877c-1.354-9.197-2.938-21.318-4.751-36.365
		c-0.621,6.62-1.479,13.296-2.575,20.027l-2.517,16.338h-24.934l-9.716-75.283h19.755c0.151,1.966,1.821,16.338,5.009,43.116
		c0.252-2.755,1.968-17.128,5.148-43.116h18.978l4.638,43.116c0.733-12.59,2.486-26.962,5.256-43.116H2619.898z"/>
	<path style="fill:#D35440;" d="M2644.067,1061.431h-21.502v-5.049c0-5.824,0.671-10.315,2.014-13.475
		c1.343-3.157,4.037-5.946,8.085-8.367c4.046-2.42,9.304-3.631,15.771-3.631c7.753,0,13.596,1.371,17.53,4.112
		c3.933,2.743,6.297,6.108,7.091,10.099c0.795,3.991,1.191,12.207,1.191,24.65v37.783h-22.295v-6.709
		c-1.4,2.69-3.206,4.708-5.418,6.053c-2.213,1.345-4.851,2.018-7.914,2.018c-4.01,0-7.688-1.126-11.035-3.375
		c-3.347-2.25-5.021-7.177-5.021-14.779v-6.184c0-5.635,0.889-9.475,2.666-11.517s6.185-4.425,13.219-7.148
		c7.526-2.95,11.554-4.936,12.084-5.956c0.529-1.021,0.794-3.102,0.794-6.241c0-3.933-0.293-6.495-0.879-7.687
		c-0.587-1.191-1.561-1.787-2.922-1.787c-1.551,0-2.516,0.501-2.894,1.503c-0.378,1.003-0.566,3.603-0.566,7.801V1061.431z
		 M2651.327,1071.756c-3.669,2.686-5.796,4.936-6.382,6.751c-0.587,1.815-0.879,4.425-0.879,7.829c0,3.896,0.255,6.411,0.766,7.545
		c0.511,1.135,1.521,1.702,3.035,1.702c1.437,0,2.373-0.443,2.808-1.333c0.435-0.888,0.652-3.224,0.652-7.006V1071.756z"/>
	<path style="fill:#D35440;" d="M2705.053,1032.271l-0.908,9.899c3.328-7.09,8.15-10.844,14.467-11.261v26.493
		c-4.198,0-7.281,0.567-9.247,1.702c-1.968,1.135-3.178,2.715-3.631,4.737c-0.454,2.023-0.681,6.686-0.681,13.984v29.728h-22.92
		v-75.283H2705.053z"/>
	<path style="fill:#D35440;" d="M2775.627,1071.245h-29.671v16.282c0,3.404,0.246,5.598,0.738,6.581
		c0.49,0.983,1.437,1.475,2.836,1.475c1.739,0,2.902-0.652,3.489-1.957c0.586-1.305,0.879-3.829,0.879-7.573v-9.929h21.729v5.56
		c0,4.652-0.293,8.227-0.879,10.723c-0.587,2.496-1.957,5.163-4.113,7.999c-2.155,2.837-4.889,4.964-8.197,6.383
		c-3.311,1.418-7.461,2.127-12.453,2.127c-4.842,0-9.115-0.7-12.821-2.099c-3.707-1.399-6.591-3.319-8.651-5.759
		c-2.063-2.439-3.489-5.124-4.283-8.056c-0.795-2.931-1.191-7.195-1.191-12.793v-21.955c0-6.581,0.888-11.772,2.666-15.573
		c1.777-3.801,4.689-6.713,8.736-8.736s8.699-3.035,13.956-3.035c6.43,0,11.734,1.22,15.914,3.659
		c4.179,2.439,7.109,5.673,8.793,9.701c1.683,4.027,2.524,9.692,2.524,16.991V1071.245z M2752.651,1058.991v-5.503
		c0-3.896-0.208-6.411-0.624-7.546c-0.416-1.134-1.268-1.701-2.553-1.701c-1.588,0-2.572,0.481-2.95,1.446s-0.567,3.565-0.567,7.801
		v5.503H2752.651z"/>
</g>
<g>
	<path style="fill:#D35440;" d="M223.324,388.613l-12.154,91.849h-36.28l-13.8-91.849h25.188c2.928,25.3,5.018,46.708,6.27,64.22
		c1.233-17.699,2.543-33.413,3.93-47.141l1.658-17.079H223.324z"/>
	<path style="fill:#D35440;" d="M250.272,388.613v11.97h-23.601v-11.97H250.272z M250.272,405.178v75.283h-23.601v-75.283H250.272z"
		/>
	<path style="fill:#D35440;" d="M281.418,405.178l-0.908,9.899c3.328-7.09,8.15-10.844,14.467-11.261v26.493
		c-4.198,0-7.281,0.567-9.247,1.702c-1.968,1.135-3.178,2.715-3.631,4.737c-0.454,2.023-0.681,6.686-0.681,13.984v29.728h-22.92
		v-75.283H281.418z"/>
	<path style="fill:#D35440;" d="M352.559,405.178v75.283h-23.316l0.396-6.255c-1.588,2.539-3.545,4.443-5.871,5.712
		c-2.326,1.27-5.002,1.904-8.027,1.904c-3.442,0-6.298-0.606-8.567-1.816c-2.269-1.21-3.942-2.816-5.021-4.822
		c-1.078-2.004-1.75-4.094-2.014-6.269c-0.266-2.175-0.397-6.496-0.397-12.963v-50.775h22.92v51.229
		c0,5.863,0.179,9.343,0.539,10.439c0.358,1.097,1.333,1.645,2.922,1.645c1.701,0,2.713-0.567,3.035-1.702
		c0.32-1.134,0.481-4.783,0.481-10.949v-50.661H352.559z"/>
	<path style="fill:#D35440;" d="M407.589,429.233h-20.31v-4.085c0-3.479-0.198-5.683-0.596-6.609c-0.397-0.927-1.39-1.39-2.978-1.39
		c-1.287,0-2.251,0.425-2.893,1.276c-0.644,0.851-0.965,2.127-0.965,3.829c0,2.308,0.16,4,0.482,5.077
		c0.321,1.078,1.285,2.261,2.894,3.546c1.606,1.286,4.907,3.158,9.899,5.617c6.656,3.253,11.024,6.316,13.105,9.19
		c2.079,2.874,3.12,7.054,3.12,12.537c0,6.127-0.795,10.751-2.383,13.871c-1.589,3.12-4.246,5.522-7.971,7.205
		c-3.726,1.683-8.218,2.525-13.474,2.525c-5.825,0-10.808-0.907-14.949-2.723s-6.988-4.273-8.538-7.375
		c-1.552-3.102-2.326-7.791-2.326-14.07v-3.631h20.309v4.766c0,4.048,0.256,6.676,0.767,7.886c0.511,1.211,1.522,1.815,3.035,1.815
		c1.625,0,2.76-0.405,3.403-1.22c0.643-0.813,0.965-2.524,0.965-5.134c0-3.593-0.417-5.844-1.248-6.751
		c-0.871-0.908-5.314-3.593-13.332-8.057c-6.732-3.781-10.836-7.214-12.311-10.297c-1.475-3.082-2.213-6.741-2.213-10.978
		c0-6.014,0.794-10.447,2.383-13.304c1.588-2.854,4.283-5.058,8.084-6.609c3.801-1.55,8.217-2.325,13.247-2.325
		c4.992,0,9.237,0.634,12.736,1.9c3.498,1.268,6.184,2.941,8.056,5.021c1.872,2.08,3.007,4.01,3.404,5.787
		c0.398,1.777,0.596,4.558,0.596,8.339V429.233z"/>
</g>
<path style="fill:#D35440;" d="M2172.15,137.353l-16.172,126.848l-0.651,5.107l-5.163,2.816l-80.815,44.074l6.485-12.463
	l4.17,101.719l-7.848,0.977l-20.887-99.639l-1.726-8.234c1.933-0.929,85.817-44.255,90.044-46.385c0,0-5.814,7.922-5.814,7.922
	l30.266-124.241L2172.15,137.353L2172.15,137.353z"/>
<path style="fill:#D35440;" d="M784.144,1108.558l-127.501,26.131l-11.111,2.277l-4.706-11.614l-53.852-132.9l20.028,9.652
	l-193.842,47.817l-3.067-9.997l187.309-69.111l14.322-5.284c1.071,3,54.073,141.383,56.886,148.888c0,0-15.817-9.337-15.817-9.337
	l129.944-7.337L784.144,1108.558L784.144,1108.558z"/>
<polygon style="fill:#D35440;" points="2138.06,1877.422 2101.366,1757.49 2107.111,1765.315 1985.826,1694.361 1979.507,1690.664 
	1979.218,1683.922 1971.706,1508.115 1980.404,1507.281 2006.445,1681.31 1999.838,1670.872 2119.894,1743.887 2124.806,1746.874 
	2125.639,1751.711 2146.927,1875.312 2138.06,1877.422 "/>
<g>
	<path style="fill:#00AEEF;" d="M1645.249,888.852h-21.965v-87.917c0-67.987-55.307-123.284-123.284-123.284
		s-123.284,55.297-123.284,123.284v87.917h-21.965c-18.073,0-32.723,14.659-32.723,32.723v198.436
		c0,18.063,14.65,32.723,32.723,32.723h290.499c18.073,0,32.723-14.659,32.723-32.723V921.575
		C1677.972,903.511,1663.322,888.852,1645.249,888.852z M1517.182,1016.469l-3.133,2.073l13.111,74.89h-54.322l13.111-74.89
		l-3.133-2.073c-8.694-5.787-13.89-15.466-13.89-25.895c0-17.126,13.937-31.072,31.072-31.072s31.072,13.946,31.072,31.072
		C1531.072,1001.004,1525.876,1010.683,1517.182,1016.469z M1597.971,888.852h-195.942v-87.917
		c0-54.022,43.949-97.971,97.971-97.971s97.971,43.949,97.971,97.971V888.852z"/>
	<g style="opacity:0.85;">
		<path style="fill:none;stroke:#FFFFFF;stroke-width:13.8176;stroke-miterlimit:10;" d="M1645.249,888.852h-21.965v-87.917
			c0-67.987-55.307-123.284-123.284-123.284s-123.284,55.297-123.284,123.284v87.917h-21.965c-18.073,0-32.723,14.659-32.723,32.723
			v198.436c0,18.063,14.65,32.723,32.723,32.723h290.499c18.073,0,32.723-14.659,32.723-32.723V921.575
			C1677.972,903.511,1663.322,888.852,1645.249,888.852z M1517.182,1016.469l-3.133,2.073l13.111,74.89h-54.322l13.111-74.89
			l-3.133-2.073c-8.694-5.787-13.89-15.466-13.89-25.895c0-17.126,13.937-31.072,31.072-31.072s31.072,13.946,31.072,31.072
			C1531.072,1001.004,1525.876,1010.683,1517.182,1016.469z M1597.971,888.852h-195.942v-87.917
			c0-54.022,43.949-97.971,97.971-97.971s97.971,43.949,97.971,97.971V888.852z"/>
		<g>
			<path style="fill:#FFFFFF;" d="M1542.57,990.575c0-23.475-19.095-42.57-42.57-42.57s-42.57,19.095-42.57,42.57
				c0,13.008,5.89,25.163,15.925,33.21l-14.209,81.145h81.708l-14.209-81.145C1536.68,1015.738,1542.57,1003.583,1542.57,990.575z
				 M1527.161,1093.432h-54.322l13.111-74.89l-3.133-2.073c-8.694-5.787-13.89-15.466-13.89-25.895
				c0-17.126,13.937-31.072,31.072-31.072s31.072,13.946,31.072,31.072c0,10.429-5.196,20.108-13.89,25.895l-3.133,2.073
				L1527.161,1093.432z"/>
		</g>
	</g>
</g>
</svg>
