<svg width="617" height="610" viewBox="0 0 617 610" fill="none" xmlns="http://www.w3.org/2000/svg">
<path d="M396.13 223.753L394.442 225.597L396.286 227.285L483.814 307.39C487.63 310.883 490.475 313.696 492.417 316.216C494.346 318.718 495.234 320.743 495.396 322.657C495.557 324.555 495.035 326.712 493.409 329.537C491.767 332.39 489.102 335.75 485.223 339.988L338.83 499.946C334.951 504.184 331.84 507.135 329.143 509.023C326.473 510.892 324.371 511.603 322.466 511.61C320.545 511.618 318.45 510.912 315.787 509.212C313.105 507.501 310.051 504.915 306.235 501.422L52.7547 269.437L50.9105 267.749L49.2226 269.593L5.85882 316.975L4.17098 318.819L6.01521 320.507L259.496 552.493C281.416 572.555 302.532 582.957 323.928 581.99C345.321 581.022 366.304 568.72 388.034 544.977L534.427 385.019C556.157 361.276 566.557 339.288 565.629 317.894C564.702 296.496 552.474 276.382 530.553 256.32L443.026 176.215L441.182 174.527L439.494 176.371L396.13 223.753ZM378.189 418.779L379.877 416.935L378.033 415.247L174.701 229.158L277.891 116.407C285.489 108.105 292.973 103.747 300.027 102.853C306.993 101.97 314.009 104.407 320.888 110.703L334.045 122.744C336.719 125.191 339.299 127.353 341.539 129.231C342.792 130.281 343.938 131.242 344.936 132.114C347.888 134.694 349.646 136.587 350.446 138.405C351.142 139.984 351.219 141.767 349.941 144.515C348.601 147.396 345.868 151.103 341.174 156.233L297.991 203.417L296.303 205.261L298.147 206.949L343.307 248.279L345.151 249.967L346.839 248.123L390.022 200.939C413.396 175.399 422.529 153.348 419.716 132.272C416.922 111.337 402.417 92.1263 380.459 72.0301L367.657 60.3143C346.109 40.5929 322.444 31.2895 298.508 33.1236C274.601 34.9554 250.857 47.8643 229.043 71.7005L80.801 233.677L79.1132 235.522L80.9574 237.21L331.293 466.317L333.138 468.005L334.826 466.161L378.189 418.779ZM293.578 213.105L291.733 211.417L290.046 213.261L246.682 260.643L244.994 262.487L246.838 264.175L397.321 401.897L399.165 403.585L400.853 401.74L444.217 354.359L445.905 352.514L444.061 350.827L293.578 213.105ZM254.571 177.405L252.727 175.718L251.039 177.562L207.675 224.943L205.987 226.788L207.831 228.476L230.333 249.069L232.178 250.757L233.865 248.913L277.229 201.531L278.917 199.687L277.073 197.999L254.571 177.405Z" stroke="#448CFF" stroke-opacity="0.58" stroke-width="5"/>
<path d="M405.382 336.227C385.947 308.588 357.296 314.803 340.977 322.748C322.019 331.979 292.686 377.471 243.522 390.172C194.359 402.874 153.411 448.166 169.59 498.128C184.288 543.516 227.944 548.601 252.899 556.583H405.382V336.227Z" fill="#EDEBEB"/>
<path d="M209.901 404.772H405.381V404.113H210.94C210.592 404.329 210.248 404.552 209.901 404.772Z" fill="#CBC8C7"/>
<path d="M313.311 376.175L313.642 376.176V345.864C313.423 346.071 313.203 346.28 312.983 346.488V375.514L277.167 375.361C276.815 375.58 276.462 375.798 276.108 376.016L313.311 376.175Z" fill="#CBC8C7"/>
<path d="M353.983 397.444C345.356 397.444 338.338 390.426 338.338 381.799C338.338 373.173 345.356 366.154 353.983 366.154C362.609 366.154 369.628 373.173 369.628 381.799C369.628 390.425 362.61 397.444 353.983 397.444ZM353.983 366.813C345.72 366.813 338.997 373.535 338.997 381.799C338.997 390.062 345.72 396.784 353.983 396.784C362.246 396.784 368.968 390.062 368.968 381.799C368.968 373.535 362.246 366.813 353.983 366.813Z" fill="#CBC8C7"/>
<path d="M405.276 396.896H313.227V397.556H405.276V396.896Z" fill="#CBC8C7"/>
<path d="M382.671 397.521H374.441V363.211H382.671V397.521ZM375.1 396.862H382.012V363.87H375.1V396.862Z" fill="#CBC8C7"/>
<path d="M391.624 397.521H383.394V363.211H391.624V397.521ZM384.053 396.862H390.964V363.87H384.053V396.862Z" fill="#CBC8C7"/>
<path d="M396.539 397.413L391.151 365.763L399.266 364.382L404.654 396.032L396.539 397.413ZM391.912 366.302L397.078 396.652L403.892 395.492L398.726 365.142L391.912 366.302Z" fill="#CBC8C7"/>
<path d="M192.423 518.235L198.825 517.871C200.76 514.56 202.343 511.031 203.466 507.686L197.822 506.807L203.938 506.204C204.865 503.108 205.366 500.235 205.352 497.916L200.052 498.127L205.325 497.081C205.13 494.095 203.94 492.239 201.518 492.394C200.93 492.431 200.373 492.544 199.833 492.696L200.711 494.919L199.043 492.963C189.491 496.752 187.441 518.345 187.004 527.033C187.739 527.761 188.484 528.472 189.241 529.159C192.493 526.783 195.448 523.283 197.913 519.373L192.423 518.235Z" fill="#679C93"/>
<path d="M183.544 518.055C183.544 518.055 183.91 503.899 182.524 490.144L177.401 497.819L182.215 487.335C181.581 482.046 180.66 476.972 179.332 472.954L174.338 476.369L178.186 469.992C176.726 466.803 174.876 464.747 172.532 464.533C169.998 464.302 168.537 466.195 167.88 469.443L171.701 470.765H167.665C167.241 474.122 167.493 478.582 168.203 483.512L175.437 486.31H168.644C169.406 490.749 170.484 495.458 171.735 500.017L177.401 502.522L172.207 501.705C173.217 505.238 174.32 508.649 175.448 511.735C178.047 516.425 181.026 520.543 184.288 524.181L183.544 518.055Z" fill="#679C93"/>
<path d="M305.745 441.288L295.841 547.766L276.739 548.55L271.499 442.047L305.745 441.288Z" fill="#7F7767"/>
<path d="M291.474 547.945C291.474 547.945 299.361 550.377 302.081 552.026C304.801 553.674 304.224 558.289 291.12 555.817C278.016 553.344 282.394 547.945 282.394 547.945H291.474Z" fill="#191931"/>
<path d="M223.854 493.892L208.923 551.694L210.199 552.024L225.13 494.222L223.854 493.892Z" fill="#191931"/>
<path d="M358.228 493.774L356.959 494.136L373.467 552.055L374.736 551.693L358.228 493.774Z" fill="#191931"/>
<path d="M208.325 444.623C208.325 444.623 202.332 443.836 199.041 451.095C196.424 456.867 194.049 495.983 237.124 495.653L238.388 489.39L208.325 444.623Z" fill="#6C93FB"/>
<path d="M237.347 494.549C232.899 493.681 216.43 492.355 207.808 479.995C199.282 467.771 203.972 449.148 203.972 449.148L206.86 444.659C204.874 444.907 201.313 446.082 199.041 451.095C196.44 456.831 194.086 495.486 236.326 495.648C236.698 495.25 237.039 494.883 237.347 494.549Z" fill="#4678E7"/>
<path d="M371.839 444.623C371.839 444.623 377.832 443.836 381.123 451.095C383.74 456.867 386.115 495.983 343.04 495.653L341.776 489.39L371.839 444.623Z" fill="#6C93FB"/>
<path d="M342.817 494.549C347.265 493.681 363.734 492.355 372.356 479.995C380.882 467.771 376.191 449.148 376.191 449.148L373.304 444.659C375.29 444.907 378.851 446.082 381.123 451.095C383.724 456.831 386.078 495.486 343.838 495.648C343.466 495.25 343.125 494.883 342.817 494.549Z" fill="#4678E7"/>
<path d="M271.916 360.329L262.233 360.908C262.233 360.908 251.642 360.57 249.732 372.954C247.822 385.339 243.911 431.98 243.911 431.98C243.911 431.98 243.021 441.299 249.616 441.802C256.212 442.306 303.948 441.287 303.948 441.287C303.948 441.287 311.029 441.503 309.826 432.843C308.894 426.131 303.233 371.549 303.233 371.549C303.233 371.549 301.816 359.405 288.113 359.47L271.916 360.329Z" fill="#679C93"/>
<path d="M271.467 366.73C271.467 366.73 274.107 369.285 280.319 368.845C286.531 368.405 289.752 362.92 289.773 360.83C289.778 360.362 289.74 359.927 289.684 359.525C289.177 359.491 288.658 359.467 288.112 359.469L271.916 360.329L266.534 360.65L271.467 366.73Z" fill="#7F7767"/>
<path d="M283.35 336.577C283.35 336.577 284.435 334.778 286.084 335.643C288.015 336.657 287.306 340.368 283.35 340.039V336.577Z" fill="#CF9B89"/>
<path d="M269.347 360.483C269.347 360.483 269.631 366.491 278.185 366.915C285.111 367.258 288.386 362.206 288.113 359.471L269.347 360.483Z" fill="#EABFAD"/>
<path d="M270.962 350.269C270.962 350.269 271.187 359.603 269.347 360.483L273.453 361.838L288.113 359.47L284.266 349.915L272.794 347.772L270.962 350.269Z" fill="#EABFAD"/>
<path d="M299.199 363.54C299.199 363.54 312.77 382.911 327.427 394.178L321.256 410.657C321.256 410.657 311.559 406.379 303.606 399.727L299.199 363.54Z" fill="#553B8A"/>
<path d="M303.605 399.727C305.914 401.658 308.368 403.387 310.691 404.871C308.363 395.686 308.541 376.64 304.292 370.297C302.912 368.236 301.691 366.932 301.691 366.932L299.391 365.118L303.605 399.727Z" fill="#463374"/>
<path d="M275.239 441.808C275.946 427.112 277.091 384.791 274.106 374.985C271.289 365.728 269.78 362.5 269.964 360.446L262.233 360.908C262.233 360.908 251.642 360.57 249.732 372.954C247.822 385.339 243.911 431.98 243.911 431.98C243.911 431.98 243.021 441.299 249.616 441.802C252.371 442.013 264.606 441.943 275.239 441.808Z" fill="#553B8A"/>
<path d="M259.134 431.108C253.865 434.424 244.934 433.36 240.941 425.812C235.357 432.22 233.51 438.446 246.424 439.117C273.895 440.546 276.054 404.442 276.054 404.442L276.056 402.873C271.384 416.428 264.038 428.022 259.134 431.108Z" fill="#463374"/>
<path d="M310.292 467.771C310.292 467.771 301.357 472.96 301.527 489.389C301.696 505.818 301.524 549.553 301.524 549.553H322.135L324.332 499.114L334.222 465.393L310.292 467.771Z" fill="#2B1E45"/>
<path d="M334.222 465.393L326.565 466.153L316.757 471.862C316.757 471.862 311.863 478.776 311.888 487.49C311.913 496.204 320.376 514.5 320.376 514.5L319.722 549.554H322.135L324.332 499.115L334.222 465.393Z" fill="#1E162E"/>
<path d="M251.36 367.701C251.36 367.701 239.94 397.863 238.951 414.947C237.962 432.031 251.954 435.626 259.134 431.109C266.312 426.591 278.729 403.845 280.319 383.398L272.607 381.593C272.607 381.593 268.743 394.614 257.632 409.779C257.632 409.779 266.625 367.93 251.36 367.701Z" fill="#553B8A"/>
<path d="M259.298 361.482C262.041 373.833 261.823 386.489 258.659 398.74C258.605 398.945 258.924 399.033 258.977 398.827C262.153 386.532 262.369 373.791 259.616 361.394C259.57 361.187 259.252 361.275 259.298 361.482Z" fill="#372723"/>
<path d="M258.417 408.479C262.998 399.472 268.353 390.889 272.934 381.882C273.031 381.693 272.746 381.526 272.649 381.715C268.069 390.722 262.714 399.305 258.133 408.313C258.037 408.501 258.321 408.669 258.417 408.479Z" fill="#372723"/>
<path d="M280.155 383.397C279.187 390.755 277.358 397.873 274.698 404.8C272.12 411.516 269.342 418.757 265.216 424.702C260.789 431.081 252.055 436.734 244.448 431.888C236.305 426.702 236.968 415.894 238.342 407.631C238.376 407.423 238.059 407.334 238.024 407.543C236.741 415.262 236.031 424.274 242.017 430.333C247.203 435.583 255.059 434.599 260.531 430.318C267.077 425.196 270.244 416.419 273.352 409.012C276.821 400.75 279.315 392.294 280.485 383.397C280.512 383.188 280.182 383.19 280.155 383.397Z" fill="#372723"/>
<path d="M267.467 464.533C267.467 464.533 284.126 471.094 286.152 495.041C287.271 508.271 286.642 551.861 286.642 551.861H265.433C265.433 551.861 265.068 505.873 259.838 495.489C254.609 485.105 230.327 464.533 230.327 464.533H267.467Z" fill="#5E5B42"/>
<path d="M262.838 508.087C265.874 502.78 269.543 489.406 267.852 482.795C266.093 475.925 260.61 471.878 260.61 471.878L260.075 464.532H233.081C233.83 465.894 234.71 467.483 235.685 469.231C243.147 475.927 256.172 488.208 259.839 495.488C261.101 497.996 262.079 502.579 262.838 508.087Z" fill="#4C4936"/>
<path d="M309.826 432.844C308.894 426.132 303.233 371.55 303.233 371.55C303.233 371.55 301.815 359.405 288.113 359.471C288.432 361.683 288.725 367.001 287.682 372.527C286.312 379.78 290.927 432.635 295.432 440.107C295.759 440.649 296.166 441.081 296.626 441.435C301.066 441.35 303.948 441.289 303.948 441.289C303.948 441.289 311.029 441.504 309.826 432.844Z" fill="#553B8A"/>
<path d="M217.876 462.145C200.903 462.145 202.363 449.941 202.363 449.941C202.363 449.941 204.63 428.185 207.583 409.318C210.537 390.451 225.028 389.009 225.028 389.009H238.249H255.247C255.247 389.009 268.469 389.009 269.224 404.451C269.882 417.906 271.869 451.523 271.869 451.523C271.869 451.523 273.002 462.145 264.314 462.145H217.876Z" fill="#EAAC29"/>
<path d="M364.225 462.145C382.218 462.145 380.67 449.208 380.67 449.208C380.67 449.208 378.268 426.144 375.136 406.143C372.004 386.142 356.643 384.615 356.643 384.615H342.628H324.607C324.607 384.615 310.591 384.614 309.79 400.984C309.093 415.248 306.987 450.885 306.987 450.885C306.987 450.885 305.786 462.145 314.996 462.145H364.225Z" fill="#7F7767"/>
<path d="M230.957 389.009C230.957 389.009 234.31 401.536 245.599 401.159C257.453 400.763 249.992 389.009 249.992 389.009H230.957Z" fill="#EABFAD"/>
<path d="M247.104 360.831H232.408V380.114H247.104V360.831Z" fill="#EABFAD"/>
<path d="M247.105 360.831C247.105 360.831 253.6 379.679 247.105 380.114C240.609 380.548 237.397 375.714 237.397 375.714L247.105 360.831Z" fill="#EABFAD"/>
<path d="M284.183 349.157L270.962 350.269L270.536 332.033H285.232L284.183 349.157Z" fill="#EABFAD"/>
<path d="M285.232 332.033C285.232 332.033 290.122 349.857 283.626 350.291C277.13 350.726 273.919 345.891 273.919 345.891L285.232 332.033Z" fill="#EABFAD"/>
<path d="M331.693 375.833L346.389 375.833L346.389 356.55L331.693 356.55L331.693 375.833Z" fill="#EABFAD"/>
<path d="M331.693 356.551C331.693 356.551 325.197 375.399 331.693 375.834C338.188 376.268 341.4 371.433 341.4 371.433L331.693 356.551Z" fill="#EABFAD"/>
<path d="M206.14 418.675C206.352 418.675 206.352 418.345 206.14 418.345C205.928 418.345 205.927 418.675 206.14 418.675Z" fill="#372723"/>
<path d="M237.797 498.291C238.009 498.291 238.009 497.962 237.797 497.962C237.585 497.962 237.585 498.291 237.797 498.291Z" fill="#372723"/>
<path d="M237.658 498.128C236.871 514.445 236.085 530.762 235.298 547.079C235.287 547.292 235.617 547.291 235.627 547.079C236.414 530.762 237.2 514.445 237.988 498.128C237.998 497.915 237.668 497.916 237.658 498.128Z" fill="#372723"/>
<path d="M239.941 467.914C251.165 474.599 259.378 485.294 262.94 497.863C262.998 498.067 263.316 497.981 263.258 497.776C259.674 485.127 251.402 474.357 240.108 467.629C239.925 467.52 239.759 467.805 239.941 467.914Z" fill="#372723"/>
<path d="M236.641 547.393C242.894 547.577 249.584 548.419 255.807 547.814C256.016 547.794 256.019 547.464 255.807 547.485C249.583 548.089 242.894 547.247 236.641 547.063C236.429 547.056 236.429 547.386 236.641 547.393Z" fill="#372723"/>
<path d="M259.412 458.616C255.558 457.208 222.345 448.693 222.345 448.693L223.923 435.945L204.274 433.351C203.097 442.896 202.363 449.941 202.363 449.941C202.363 449.941 200.903 462.145 217.876 462.145H261.762C262.046 461.207 262.112 459.603 259.412 458.616Z" fill="#EABFAD"/>
<path d="M272.74 432.383C272.74 432.383 274.27 454.117 273.547 457.414C272.824 460.71 268.008 462.59 261.762 462.145L228.979 462.209V460.38C228.979 460.38 241.327 451.401 258.311 450.822C258.311 450.822 261.657 437.283 261.897 433.898C261.897 433.898 266.146 432.942 272.74 432.383Z" fill="#EABFAD"/>
<path d="M269.378 407.501C269.378 407.501 272.092 425.817 275.59 431.066C275.59 431.066 271.436 434.008 261.896 433.898" fill="#EAAC29"/>
<path d="M340.818 497.7C343.879 513.765 347.323 529.753 351.149 545.654C351.199 545.861 351.517 545.773 351.467 545.567C347.641 529.666 344.197 513.678 341.136 497.612C341.096 497.404 340.778 497.492 340.818 497.7Z" fill="#372723"/>
<path d="M328.854 384.614L327.427 392.141L348.095 384.614H328.854Z" fill="#EABFAD"/>
<path d="M367.6 464.533C367.6 464.533 371.364 485.27 346.318 491.78L359.688 551.861H335.046C335.046 551.861 316.715 494.925 316.36 492.061C314.454 476.668 330.596 464.532 330.596 464.532H367.6V464.533Z" fill="#2B1E45"/>
<path d="M311.21 393.979C311.21 393.979 309.663 397.416 308.756 401.866C307.85 406.316 301.751 448.343 301.751 448.343C301.751 448.343 299.526 459.886 309.086 462.209H319.058L315.761 456.837L311.21 393.979Z" fill="#7F7767"/>
<path d="M206.732 414.947C206.732 414.947 203.838 428.965 200.489 433.649C200.489 433.649 212.413 438.404 225.764 436.939C225.764 436.939 225.029 432.627 225.435 428.926" fill="#EAAC29"/>
<path d="M260.073 402.96C260.073 402.96 264.21 412.086 264.68 418.429C265.014 422.941 265.349 421.232 262.712 432.383L261.896 433.898C261.896 433.898 263.75 425.085 263.328 420.701C262.906 416.316 260.208 404.164 260.073 402.96Z" fill="#D19825"/>
<path d="M222.345 448.693C222.345 448.693 234.171 449.831 241.808 452.413C241.808 452.413 251.561 449.131 256.588 448.693C256.588 448.693 261.354 433.843 261.896 433.898C261.896 433.898 261.106 440.192 258.311 450.822C258.311 450.822 250.095 450.96 242.504 453.774L222.345 448.693Z" fill="#D19825"/>
<path d="M259.807 402.465C260.825 407.57 262.041 412.681 262.78 417.835C263.61 423.632 262.602 429.178 261.357 434.843C261.311 435.05 261.629 435.138 261.675 434.931C262.882 429.44 263.937 424.032 263.198 418.391C262.496 413.02 261.184 407.686 260.125 402.377C260.084 402.169 259.766 402.258 259.807 402.465Z" fill="#372723"/>
<path d="M213.073 464.533C213.073 464.533 208.291 492.413 236.643 494.061C236.643 494.061 232.736 526.038 235.462 552.63H256.752C256.752 552.63 258.312 524.843 260.609 510.324C262.906 495.804 273.785 477.311 238.731 464.533H213.073Z" fill="#5E5B42"/>
<path d="M288.622 464.533H288.322H214.886V465.695C214.886 465.695 232.223 473.154 288.472 472.072C344.721 473.154 362.058 465.695 362.058 465.695V464.533H288.622Z" fill="#7763A1"/>
<path d="M266.164 499.632C266.164 499.632 269.11 526.257 268.536 551.861H265.434C265.434 551.861 265.083 525.681 262.896 507.123C262.896 507.123 264.917 499.489 266.164 499.632Z" fill="#4C4936"/>
<path d="M244.658 379.757L234.666 377.582L232.409 380.114C232.409 380.114 232.798 388.131 230.957 389.009L235.325 391.647L249.992 389.009C245.978 386.372 244.658 379.757 244.658 379.757Z" fill="#EABFAD"/>
<path d="M233.947 368.9C233.947 368.9 242.058 368.571 244.926 363.201C244.926 363.201 246.204 364.409 248.099 364.368C248.099 364.368 249.637 360.741 245.984 357.912C242.335 355.086 239.226 354.806 234.446 355.714C229.799 356.597 225.6 360.769 225.6 366.703C225.6 372.637 224.968 377.945 222.345 382.598C219.721 387.252 217.891 387.471 218.092 391.647C218.092 391.647 221.763 389.45 225.028 389.01H230.957C230.957 389.01 234.748 388.543 235.572 384.615C236.396 380.686 232.789 375.874 232.409 372.264C232.409 372.264 231.745 369.202 233.947 368.9Z" fill="#191931"/>
<path d="M233.947 368.9C233.947 368.9 232.862 367.1 231.213 367.965C229.282 368.979 229.991 372.691 233.947 372.361V368.9Z" fill="#EABFAD"/>
<path d="M248.476 379.638C248.476 379.638 249.061 382.251 251.204 384.998C253.347 387.745 253.401 389.009 253.401 389.009H249.992C249.992 389.009 246.452 387.151 244.737 380.113C244.737 380.113 247.689 380.198 248.476 379.638Z" fill="#191931"/>
<path d="M232.082 372.455C232.491 373.873 233.38 374.818 234.147 376.041C235.657 378.45 236.126 381.843 233.909 384.028C233.757 384.177 233.99 384.41 234.142 384.261C235.443 382.979 235.894 381.166 235.722 379.364C235.454 376.542 233.149 374.964 232.399 372.367C232.341 372.163 232.022 372.25 232.082 372.455Z" fill="#191931"/>
<path d="M225.953 364.332C225.62 368.849 225.287 373.442 223.836 377.765C222.744 381.02 220.64 383.805 220.817 387.357C220.827 387.568 221.157 387.569 221.146 387.357C220.945 383.306 223.799 379.556 224.788 375.678C225.734 371.975 226.003 368.13 226.283 364.333C226.298 364.12 225.969 364.122 225.953 364.332Z" fill="#191931"/>
<path d="M225.822 366.09C226 371.227 224.845 375.203 222.274 379.632C220.463 382.751 218.936 385.739 219.352 389.435C219.376 389.644 219.706 389.646 219.682 389.435C219.077 384.065 222.772 380.343 224.757 375.75C226.092 372.664 226.266 369.409 226.152 366.091C226.145 365.879 225.815 365.878 225.822 366.09Z" fill="#191931"/>
<path d="M244.72 362.409C244.451 364.296 243.536 366.244 241.8 367.193C240.277 368.025 238.481 368.042 236.793 368.071C236.581 368.075 236.58 368.405 236.793 368.401C238.685 368.368 240.736 368.323 242.372 367.236C243.933 366.2 244.782 364.296 245.039 362.496C245.068 362.289 244.75 362.199 244.72 362.409Z" fill="#191931"/>
<path d="M248.805 379.33C248.724 379.415 248.643 379.5 248.552 379.572C249.774 382.486 252.866 384.787 252.287 388.195C252.252 388.402 252.57 388.491 252.605 388.282C253.215 384.695 249.998 382.402 248.805 379.33Z" fill="#191931"/>
<path d="M244.736 380.114C244.736 380.114 242.659 380.118 239.939 379.331C239.939 379.331 242.484 384.98 247.104 385.903C247.104 385.903 245.739 384.096 244.736 380.114Z" fill="#CF9B89"/>
<path d="M229.4 359.081C229.421 358.548 228.935 358.055 228.333 357.891C227.73 357.727 227.05 357.856 226.519 358.148C225.989 358.44 225.593 358.879 225.29 359.347C224.52 360.536 224.302 361.968 224.69 363.281C224.828 363.748 225.09 364.246 225.617 364.432C226.202 364.638 226.875 364.377 227.354 364.029C228.142 363.456 228.654 362.652 228.948 361.812C229.241 360.972 229.329 360.091 229.379 359.216" fill="#191931"/>
<path d="M228.814 389.009C228.856 389.009 229.363 397.251 237.99 402.196C247.579 407.693 255.351 402.168 253.943 395.652C252.857 390.628 250.901 389.009 250.901 389.009H228.814Z" fill="#A2222B"/>
<path d="M230.957 389.009C230.957 389.009 234.31 401.537 245.599 401.159C257.453 400.763 249.992 389.009 249.992 389.009L241.461 388.402L230.957 389.009Z" fill="#EABFAD"/>
<path d="M236.642 494.06C236.642 494.06 234.583 491.945 234.418 490.173C234.418 490.173 229.636 493.555 219.521 487.434C219.521 487.434 224.692 493.621 236.642 494.06Z" fill="#4C4936"/>
<path d="M225.893 419.26L224.804 449.237L222.345 448.693L225.893 419.26Z" fill="#D19825"/>
<path d="M220.651 448.503C227.43 449.932 234.143 451.637 240.821 453.479C244.059 454.373 247.289 455.295 250.518 456.224C252.208 456.709 262.387 458.672 261.552 461.413C261.49 461.617 261.808 461.703 261.87 461.501C262.439 459.633 260.98 459.038 259.455 458.457C255.461 456.935 251.084 456.036 246.973 454.865C238.291 452.391 229.575 450.047 220.738 448.185C220.531 448.141 220.443 448.459 220.651 448.503Z" fill="#372723"/>
<path d="M346.389 360.837C346.389 360.837 342.931 362.761 342.258 358.887C342.258 358.887 338.366 361.819 330.525 360.415L330.134 361.914C330.134 361.914 326.064 358.475 328.536 354.231C331.009 349.986 339.951 354.519 342.835 354.931C342.835 354.931 344.317 354.083 346.174 354.725C348.316 355.467 350.439 357.404 346.39 369.93V360.837H346.389Z" fill="#191931"/>
<path d="M345.122 361.9C345.122 361.9 346.207 360.101 347.855 360.966C349.787 361.98 349.077 365.691 345.122 365.362V361.9Z" fill="#EABFAD"/>
<path d="M342.212 358.413C340.716 363.205 333.91 360.543 330.633 359.816C330.426 359.77 330.358 359.953 330.565 359.999C333.94 360.747 340.967 363.505 342.53 358.5C342.593 358.298 342.275 358.211 342.212 358.413Z" fill="#191931"/>
<path d="M341.377 358.271C341.259 358.655 341.143 359.089 340.921 359.431C340.417 360.207 339.684 360.29 338.845 360.333C337.64 360.396 336.478 360.365 335.361 359.848C335.17 359.76 335.002 360.044 335.195 360.133C336.548 360.76 338.501 360.7 339.961 360.381C341.133 360.125 341.369 359.423 341.696 358.359C341.758 358.155 341.44 358.068 341.377 358.271Z" fill="#191931"/>
<path d="M328.814 355.218C327.943 356.008 327.069 357.356 327.308 358.604C327.569 359.963 329.114 360.237 330.255 360.346C330.465 360.367 330.516 360.041 330.304 360.021C329.219 359.916 327.651 359.814 327.549 358.461C327.464 357.335 328.194 356.223 329.009 355.484C329.165 355.342 328.971 355.076 328.814 355.218Z" fill="#191931"/>
<path d="M346.389 375.834L344.132 373.301L333.56 375.602C333.56 375.602 332.758 381.166 328.854 384.614L342.272 386.152L348.095 384.614C346.255 383.735 346.389 375.834 346.389 375.834Z" fill="#EABFAD"/>
<path d="M333.52 375.834C333.52 375.834 337.955 375.438 340.498 372.499C340.498 372.499 340.504 381.249 328.854 384.614C328.854 384.614 332.141 382.149 333.52 375.834Z" fill="#CF9B89"/>
<path d="M348.095 384.614L327.427 392.141L331.552 398.783L351.281 384.614C351.281 384.614 349.317 384.051 348.095 384.614Z" fill="#898378"/>
<path d="M327.427 392.141L320.278 394.939L328.343 383.397C328.343 383.397 328.813 382.694 330.556 382.747C330.556 382.747 329.804 384.229 328.854 384.613L327.427 392.141Z" fill="#898378"/>
<path d="M346.909 382.295C346.909 382.295 351.571 382.235 351.282 384.614H348.095C348.095 384.614 347.219 384.251 346.909 382.295Z" fill="#898378"/>
<path d="M349.16 384.374C349.16 384.374 348.504 384.411 348.095 384.614C348.095 384.614 347.563 384.411 347.197 383.414C347.197 383.414 349.531 383.436 349.16 384.374Z" fill="#726B5E"/>
<path d="M328.854 384.614C328.854 384.614 329.054 383.896 329.784 383.884C329.784 383.884 329.31 384.463 328.854 384.614Z" fill="#726B5E"/>
<path d="M326.845 419.654C326.845 419.654 330.485 445.742 344.551 462.209L352.41 462.133C352.41 462.133 335.291 444.914 326.845 419.654Z" fill="#726B5E"/>
<path d="M352.528 462.016C341.013 449.737 332.297 435.205 326.888 419.265C326.82 419.065 326.502 419.151 326.57 419.352C331.995 435.341 340.746 449.934 352.295 462.25C352.44 462.405 352.673 462.171 352.528 462.016Z" fill="#372723"/>
<path d="M356.032 419.308C356.032 419.308 355.723 433.19 353.983 433.242L357.6 434.941C357.6 434.941 357.271 434.639 357.216 434.2C357.161 433.76 356.032 419.833 356.032 419.308Z" fill="#726B5E"/>
<path d="M331.436 416.739C343.684 429.178 359.296 437.744 376.369 441.387C376.576 441.431 376.665 441.113 376.457 441.069C359.433 437.436 343.881 428.909 331.668 416.506C331.52 416.355 331.287 416.587 331.436 416.739Z" fill="#372723"/>
<path d="M355.867 418.784C356.305 424.115 356.744 429.447 357.182 434.777C357.199 434.987 357.529 434.989 357.512 434.777C357.073 429.446 356.635 424.115 356.197 418.784C356.179 418.575 355.849 418.573 355.867 418.784Z" fill="#372723"/>
<path d="M355.414 408.681C354.891 401.749 354.244 390.995 359.923 385.818C360.08 385.675 359.847 385.442 359.69 385.584C353.949 390.817 354.561 401.75 355.083 408.681C355.1 408.891 355.43 408.893 355.414 408.681Z" fill="#372723"/>
<path d="M320.278 394.939L323.055 395.603L327.427 392.141L320.278 394.939Z" fill="#726B5E"/>
<path d="M327.427 392.141L330.556 398.641L331.552 398.783L327.427 392.141Z" fill="#726B5E"/>
<path d="M331.552 398.783C331.552 398.783 341.804 392.086 346.09 389.943C350.375 387.8 352.886 385.768 353.631 384.614H351.282L331.552 398.783Z" fill="#726B5E"/>
<path d="M313.227 391.573C313.227 391.573 311.847 394.877 310.694 400.452C309.54 406.028 306.531 431.645 306.531 431.645L309.122 432.14C309.122 432.14 310.795 409.425 311.218 405.206C311.64 400.987 313.227 391.573 313.227 391.573Z" fill="#726B5E"/>
<path d="M309.286 431.233C309.958 417.806 311.365 404.349 313.472 391.073C313.505 390.865 313.187 390.776 313.154 390.985C311.043 404.292 309.63 417.775 308.957 431.233C308.946 431.445 309.276 431.444 309.286 431.233Z" fill="#372723"/>
<path d="M311.317 460.12H269.029C268.227 460.12 267.576 459.47 267.576 458.668L264.474 430.377C264.474 429.575 265.124 428.925 265.927 428.925H308.215C309.017 428.925 309.668 429.575 309.668 430.377L312.77 458.668C312.769 459.47 312.119 460.12 311.317 460.12Z" fill="#CBC8C7"/>
<path d="M302.006 367.989C303.934 374.296 304.122 380.979 304.787 387.51C305.277 392.317 305.832 397.122 306.253 401.936C306.272 402.146 306.601 402.148 306.583 401.936C306.142 396.897 305.56 391.868 305.048 386.836C304.402 380.482 304.201 374.046 302.324 367.901C302.263 367.7 301.945 367.785 302.006 367.989Z" fill="#372723"/>
<path d="M325.386 396.615C325.341 396.797 325.377 396.948 325.527 397.068C325.581 397.112 325.664 397.139 325.727 397.094C325.959 396.932 325.927 396.563 325.628 396.498C325.549 396.481 325.489 396.512 325.442 396.574C325.307 396.755 325.374 396.998 325.57 397.1C325.631 397.132 325.722 397.132 325.77 397.074C325.944 396.866 325.946 396.626 325.766 396.419C325.713 396.51 325.659 396.603 325.606 396.694C325.614 396.696 325.624 396.697 325.632 396.698C325.839 396.677 325.849 396.363 325.632 396.369C325.211 396.379 325.044 396.987 325.482 397.131C325.918 397.275 326.211 396.756 325.948 396.418C325.678 396.072 325.098 396.28 325.061 396.704C325.024 397.126 325.58 397.395 325.896 397.12C326.183 396.868 326.042 396.337 325.68 396.24C325.264 396.127 324.891 396.642 325.1 397.011C325.305 397.372 325.897 397.329 326.061 396.957C326.242 396.547 325.814 396.061 325.386 396.209C324.912 396.372 324.916 397.095 325.46 397.135C325.943 397.17 326.009 396.467 325.57 396.344C325.366 396.287 325.278 396.605 325.483 396.662C325.433 396.903 325.456 396.851 325.551 396.507C325.692 396.541 325.767 396.627 325.775 396.762C325.736 397.123 325.158 396.838 325.442 396.611C325.672 396.428 325.86 396.83 325.583 396.903C325.415 396.893 325.382 396.791 325.486 396.598C325.764 396.723 325.812 396.757 325.633 396.698C325.633 396.588 325.633 396.479 325.633 396.369C325.11 396.423 325.009 397.192 325.587 397.234C326.136 397.273 326.177 396.519 325.694 396.377C325.527 396.327 325.431 396.534 325.534 396.652C325.535 396.716 325.537 396.778 325.538 396.841C325.605 396.833 325.671 396.824 325.738 396.816C325.734 396.791 325.731 396.766 325.728 396.741C325.666 396.766 325.604 396.791 325.542 396.816C325.549 396.814 325.555 396.812 325.562 396.81C325.628 396.818 325.695 396.827 325.762 396.836C325.743 396.791 325.724 396.747 325.705 396.702C325.756 396.497 325.438 396.408 325.386 396.615Z" fill="#372723"/>
<path d="M324.855 399.651C324.81 399.833 324.846 399.984 324.996 400.104C325.05 400.148 325.133 400.175 325.196 400.13C325.427 399.968 325.396 399.599 325.097 399.534C325.018 399.517 324.957 399.548 324.911 399.61C324.776 399.791 324.843 400.034 325.039 400.136C325.1 400.168 325.191 400.168 325.239 400.11C325.413 399.902 325.415 399.662 325.235 399.455C325.181 399.547 325.128 399.639 325.075 399.731C325.083 399.732 325.092 399.733 325.101 399.735C325.307 399.713 325.317 399.4 325.101 399.405C324.68 399.415 324.513 400.023 324.951 400.167C325.387 400.311 325.679 399.792 325.417 399.454C325.147 399.108 324.566 399.316 324.529 399.74C324.492 400.162 325.049 400.431 325.365 400.156C325.652 399.904 325.511 399.373 325.149 399.276C324.732 399.164 324.359 399.678 324.569 400.047C324.773 400.408 325.365 400.365 325.53 399.993C325.711 399.583 325.282 399.098 324.855 399.245C324.381 399.408 324.384 400.131 324.929 400.171C325.412 400.206 325.478 399.503 325.039 399.38C324.835 399.323 324.747 399.642 324.951 399.698C324.902 399.94 324.924 399.887 325.019 399.543C325.161 399.578 325.236 399.663 325.243 399.798C325.205 400.159 324.626 399.874 324.91 399.647C325.141 399.464 325.329 399.866 325.052 399.939C324.883 399.929 324.851 399.827 324.955 399.634C325.232 399.76 325.281 399.793 325.102 399.735C325.102 399.624 325.102 399.515 325.102 399.405C324.579 399.46 324.477 400.228 325.056 400.27C325.605 400.309 325.646 399.555 325.163 399.413C324.996 399.363 324.9 399.57 325.003 399.688C325.004 399.752 325.005 399.814 325.007 399.878C325.073 399.869 325.14 399.86 325.207 399.852C325.203 399.827 325.2 399.802 325.197 399.777C325.135 399.802 325.073 399.827 325.011 399.853C325.017 399.851 325.024 399.848 325.03 399.846C325.097 399.855 325.164 399.863 325.23 399.872C325.212 399.827 325.193 399.783 325.174 399.738C325.224 399.533 324.907 399.445 324.855 399.651Z" fill="#372723"/>
<path d="M270.287 358.627C270.287 358.627 267.495 358.708 267.206 360.611L269.224 361.03L269.965 360.446C269.965 360.446 270.073 359.177 270.287 358.627Z" fill="#553B8A"/>
<path d="M287.573 358.13C287.573 358.13 288.43 359.95 288.312 361.438L290.497 359.59C290.497 359.59 289.985 358.113 287.573 358.13Z" fill="#553B8A"/>
<path d="M267.206 360.611C267.206 360.611 266.819 365.658 274.107 374.984L274.186 375.257C274.186 375.257 266.313 370.055 265.534 360.71L267.206 360.611Z" fill="#463374"/>
<path d="M290.496 359.591C290.496 359.591 292.35 366.048 287.573 373.45L287.525 373.872C287.525 373.872 293.817 369.328 292.674 359.966C292.674 359.966 291.628 359.69 290.496 359.591Z" fill="#463374"/>
<path d="M289.681 443.151C289.427 441.517 288.014 440.381 286.523 440.612C286.499 440.616 286.478 440.627 286.453 440.631C286.441 441.373 286.152 442.702 284.304 442.907C284.24 443.253 284.225 443.616 284.283 443.989C284.537 445.622 285.951 446.758 287.441 446.527C288.932 446.295 289.935 444.784 289.681 443.151Z" fill="#D9D9D9"/>
<path d="M272.42 336.852C272.42 336.852 274.065 335.852 274.186 334.369C274.186 334.369 278.62 337.631 282.384 336.852C286.148 336.073 285.531 333.211 285.531 333.211L286.073 335.683C286.073 335.683 288.318 332.967 287 330.66C285.682 328.352 282.577 327.363 278.731 327.363C274.885 327.363 272.825 328.847 272.825 328.847C272.825 328.847 268.116 329.391 269.687 335.918C269.687 335.918 268.583 342.282 270.84 344.972C270.84 344.972 271.04 342.665 270.84 340.206C270.839 340.207 270.861 337.316 272.42 336.852Z" fill="#191931"/>
<path d="M273.256 329.197C273.256 329.197 272.55 328.62 272.418 327.919C272.418 327.919 272.308 328.558 272.555 329.197C272.802 329.836 273.256 329.197 273.256 329.197Z" fill="#191931"/>
<path d="M272.825 329.115C272.825 329.115 271.504 328.847 271.196 327.919C271.196 327.919 271.113 329.043 271.814 329.48C272.514 329.918 272.825 329.115 272.825 329.115Z" fill="#191931"/>
<path d="M284.361 350.153C284.361 350.153 277.768 351.985 274.691 347.658C274.691 347.658 276.731 354.581 280.982 354.149C284.498 353.791 284.617 350.788 284.617 350.788L284.361 350.153Z" fill="#CF9B89"/>
<path d="M203.972 435.817C203.972 435.817 211.732 439.826 223.611 439.41L223.901 437.105C223.901 437.105 216.164 438.093 204.092 434.832L203.972 435.817Z" fill="#CF9B89"/>
<path d="M225.869 417.849C224.844 428.139 223.664 438.413 222.186 448.649C222.156 448.857 222.473 448.947 222.503 448.737C223.985 438.472 225.171 428.168 226.199 417.849C226.22 417.638 225.89 417.639 225.869 417.849Z" fill="#372723"/>
<path d="M273.256 335.683C273.256 335.683 273.4 342.308 274.691 344.231C275.982 346.154 284.052 348.299 286.995 344.012C286.995 344.012 287.878 346.895 286.289 349.328C285.03 351.258 280.963 351.51 279.654 351.139C278.344 350.768 274.784 349.903 273.648 345.328C272.51 340.754 272.36 336.263 272.36 336.263L273.256 335.683Z" fill="#191931"/>
<path d="M273.919 345.083C273.919 345.083 273.895 346.291 273.674 346.786C273.674 346.786 274.064 346.291 274.185 345.934C274.307 345.577 273.919 345.083 273.919 345.083Z" fill="#191931"/>
<path d="M273.675 344.656C273.675 344.656 273.661 345.618 273.524 345.934C273.524 345.934 273.889 345.371 273.92 345.082C273.95 344.794 273.675 344.656 273.675 344.656Z" fill="#191931"/>
<path d="M278.885 341.648C277.563 341.648 276.488 340.573 276.488 339.251C276.488 337.929 277.563 336.854 278.885 336.854C280.207 336.854 281.283 337.929 281.283 339.251C281.283 340.573 280.207 341.648 278.885 341.648ZM278.885 337.347C277.836 337.347 276.982 338.201 276.982 339.25C276.982 340.299 277.836 341.153 278.885 341.153C279.935 341.153 280.789 340.299 280.789 339.25C280.789 338.201 279.935 337.347 278.885 337.347Z" fill="#191931"/>
<path d="M284.731 341.054C283.466 341.054 282.437 340.024 282.437 338.759C282.437 337.494 283.467 336.464 284.731 336.464C285.997 336.464 287.027 337.494 287.027 338.759C287.027 340.024 285.997 341.054 284.731 341.054ZM284.731 336.958C283.738 336.958 282.931 337.766 282.931 338.759C282.931 339.752 283.739 340.56 284.731 340.56C285.724 340.56 286.532 339.752 286.532 338.759C286.532 337.766 285.724 336.958 284.731 336.958Z" fill="#191931"/>
<path d="M281.054 338.872L280.747 338.485C281.084 338.215 281.95 337.851 282.821 338.402L282.556 338.82C281.773 338.323 281.084 338.849 281.054 338.872Z" fill="#191931"/>
<path d="M276.604 338.969C276.569 338.947 273.142 336.811 271.58 336.408L271.704 335.929C273.339 336.351 276.723 338.46 276.867 338.549L276.604 338.969Z" fill="#191931"/>
<path d="M272.419 336.852C272.419 336.852 271.334 335.053 269.686 335.918C267.754 336.932 268.463 340.643 272.419 340.314V336.852Z" fill="#EABFAD"/>
<path d="M346.318 491.78C346.318 491.78 345.87 489.28 346.749 487.962C346.749 487.962 347.403 490.479 354.658 488.616C354.658 488.616 351.223 490.647 346.318 491.78Z" fill="#1E162E"/>
<path d="M241.66 370.223C241.836 370.192 241.944 369.976 241.903 369.741C241.861 369.505 241.685 369.34 241.51 369.371C241.334 369.402 241.225 369.618 241.267 369.853C241.308 370.088 241.484 370.254 241.66 370.223Z" fill="#191931"/>
<path d="M248.164 368.82C248.34 368.789 248.449 368.573 248.407 368.338C248.366 368.103 248.19 367.938 248.014 367.969C247.838 368 247.729 368.215 247.771 368.451C247.813 368.686 247.989 368.851 248.164 368.82Z" fill="#191931"/>
<path d="M245.51 369.374C245.51 369.374 246.182 371.165 247.045 371.677C247.908 372.188 246.981 372.923 246.278 373.02C245.574 373.115 245.063 369.342 245.51 369.374Z" fill="#DA8A7B"/>
<path d="M337.99 364.937C337.998 364.699 337.86 364.5 337.682 364.494C337.504 364.488 337.353 364.677 337.345 364.916C337.337 365.154 337.475 365.353 337.653 365.359C337.831 365.365 337.982 365.176 337.99 364.937Z" fill="#191931"/>
<path d="M331.352 364.464C331.36 364.225 331.222 364.027 331.044 364.021C330.866 364.015 330.715 364.203 330.706 364.442C330.698 364.681 330.836 364.879 331.015 364.885C331.193 364.891 331.344 364.703 331.352 364.464Z" fill="#191931"/>
<path d="M333.72 365.043C333.72 365.043 333.307 366.91 332.525 367.539C331.742 368.166 332.763 368.764 333.473 368.76C334.183 368.757 334.159 364.948 333.72 365.043Z" fill="#DA8A7B"/>
<path d="M279.488 340.053C279.667 340.047 279.805 339.848 279.797 339.61C279.788 339.371 279.637 339.182 279.459 339.188C279.281 339.194 279.143 339.393 279.151 339.631C279.159 339.87 279.31 340.059 279.488 340.053Z" fill="#191931"/>
<path d="M284.952 339.826C285.13 339.82 285.268 339.621 285.26 339.383C285.252 339.144 285.101 338.955 284.922 338.961C284.744 338.967 284.606 339.166 284.614 339.404C284.622 339.643 284.773 339.832 284.952 339.826Z" fill="#191931"/>
<path d="M245.614 376.224C245.52 376.224 245.423 376.217 245.32 376.204C243.725 375.987 243.707 374.387 243.707 374.371V373.927L243.996 374.263C244.04 374.313 245.087 375.492 247.147 374.899L247.49 374.801L247.343 375.126C247.337 375.137 246.83 376.224 245.614 376.224ZM244.103 374.794C244.218 375.199 244.528 375.763 245.365 375.877C246.112 375.979 246.584 375.61 246.828 375.315C245.477 375.58 244.567 375.132 244.103 374.794Z" fill="#191931"/>
<path d="M332.777 372.266C332.31 372.266 331.987 372.194 331.978 372.191L332.053 371.871C332.15 371.893 334.422 372.398 335.49 370.443L335.779 370.601C335.006 372.016 333.643 372.266 332.777 372.266Z" fill="#191931"/>
<path d="M281.083 342.052C281.083 342.052 281.416 341.499 282.204 341.415C282.993 341.331 283.35 341.828 283.35 341.828C283.35 341.828 283.12 342.17 282.425 342.29C281.73 342.41 281.083 342.052 281.083 342.052Z" fill="#DA8A7B"/>
<path d="M281.435 345.859C281.228 345.859 281.004 345.824 280.761 345.742C279.975 345.474 279.598 345.017 279.54 344.264L279.513 343.903L279.803 344.119C279.817 344.129 281.263 345.189 282.821 344.79L283.241 344.682L282.998 345.042C282.992 345.052 282.433 345.859 281.435 345.859ZM279.931 344.592C280.053 344.998 280.343 345.251 280.868 345.429C281.558 345.665 282.074 345.433 282.385 345.198C281.33 345.292 280.401 344.864 279.931 344.592Z" fill="#191931"/>
<path d="M272.009 340.333C272.009 340.333 271.949 341.827 270.923 342.034L270.838 340.208C270.838 340.208 271.472 340.383 272.009 340.333Z" fill="#CF9B89"/>
<path d="M345.122 365.362C345.122 365.362 345.153 367.73 346.389 368.369V365.32C346.389 365.32 345.704 365.446 345.122 365.362Z" fill="#CF9B89"/>
<path d="M260.932 459.871C264.643 461.034 268.961 459.588 272.229 462.104C272.397 462.233 272.561 461.947 272.395 461.819C269.087 459.272 264.761 460.726 261.019 459.553C260.817 459.49 260.73 459.808 260.932 459.871Z" fill="#372723"/>
<path d="M261.806 460.144C265.415 460.274 269.326 459.036 272.111 461.993C272.256 462.147 272.489 461.914 272.344 461.759C269.471 458.71 265.559 459.949 261.806 459.815C261.595 459.808 261.595 460.137 261.806 460.144Z" fill="#372723"/>
<path d="M318.271 462.209H269.816C269.381 462.209 269.029 461.857 269.029 461.423V460.907C269.029 460.473 269.381 460.121 269.816 460.121H318.271C318.705 460.121 319.058 460.473 319.058 460.907V461.423C319.058 461.857 318.705 462.209 318.271 462.209Z" fill="#CBC8C7"/>
<path d="M267.577 458.668C267.577 459.47 268.227 460.121 269.029 460.121H311.318C312.119 460.121 312.77 459.471 312.77 458.668L312.258 453.997L265.33 438.177L267.577 458.668Z" fill="#D9D9D9"/>
<path d="M284.453 444.623C284.927 445.903 286.154 446.726 287.442 446.526C287.876 446.459 288.26 446.274 288.592 446.019L284.453 444.623Z" fill="#CBC8C7"/>
<path d="M319.058 461.423V460.907C319.058 460.473 318.705 460.121 318.271 460.121H269.816C269.381 460.121 269.029 460.473 269.029 460.907V460.937H313.846C314.567 460.957 314.503 461.555 314.503 461.555V462.134L314.541 462.21H318.272C318.705 462.209 319.058 461.857 319.058 461.423Z" fill="#8E8A87"/>
<path d="M269.815 460.285C283.649 460.285 297.483 460.285 311.317 460.285C311.529 460.285 311.529 459.955 311.317 459.955C297.483 459.955 283.649 459.955 269.815 459.955C269.604 459.955 269.603 460.285 269.815 460.285Z" fill="#372723"/>
<path d="M329.141 417.936L327.068 419.076C327.068 419.076 326.874 419.26 326.52 418.874C326.166 418.487 324.881 417.745 324.767 416.19C324.687 415.108 325.661 414.363 326.238 413.993C326.238 413.993 326.019 412.985 327.164 413.056C327.164 413.056 326.791 412.424 326.778 412.209C326.778 412.209 326.656 412.103 326.423 412.066C326.191 412.03 324.353 411.809 323.998 411.15C323.642 410.491 324.775 410.891 325.651 410.882C326.526 410.872 327.268 410.658 327.268 410.658C327.268 410.658 329.967 412.546 330.097 412.602C330.226 412.659 331.399 413.006 331.631 413.876C331.863 414.745 331.451 415.641 331.451 415.641C331.451 415.641 331.409 416.61 331.317 416.733C331.225 416.856 329.141 417.936 329.141 417.936Z" fill="#EABFAD"/>
<path d="M326.812 419.451C328.388 418.5 330.058 417.715 331.636 416.765C331.817 416.655 331.651 416.37 331.469 416.48C329.893 417.431 328.223 418.215 326.646 419.166C326.465 419.275 326.63 419.561 326.812 419.451Z" fill="#372723"/>
<path d="M331.571 416.667C332.091 413.588 329.638 411.914 327.247 410.545C327.062 410.439 326.896 410.724 327.081 410.83C329.295 412.097 331.745 413.667 331.253 416.579C331.218 416.786 331.535 416.876 331.571 416.667Z" fill="#372723"/>
<path d="M327.12 410.528C326.566 410.661 326.005 410.733 325.437 410.756C324.976 410.774 324.492 410.693 324.038 410.738C323.984 410.743 323.92 410.764 323.895 410.82C323.708 411.238 324.251 411.59 324.572 411.759C325.229 412.107 325.983 412.172 326.7 412.314C326.907 412.354 326.996 412.037 326.788 411.996C326.292 411.898 325.789 411.844 325.304 411.694C325.083 411.627 324.858 411.549 324.657 411.432C324.51 411.35 324.38 411.247 324.27 411.124C324.046 411.054 324.058 411.037 324.305 411.075C324.776 411.029 325.275 411.103 325.753 411.069C326.244 411.035 326.728 410.962 327.208 410.847C327.414 410.796 327.327 410.479 327.12 410.528Z" fill="#372723"/>
<path d="M326.585 412.198C326.754 412.614 326.98 412.985 327.276 413.323C327.416 413.483 327.648 413.249 327.509 413.09C327.253 412.796 327.05 412.471 326.903 412.111C326.824 411.917 326.505 412.002 326.585 412.198Z" fill="#372723"/>
<path d="M327.486 413.052C326.806 412.645 325.982 413.11 325.99 413.905C325.992 414.117 326.322 414.117 326.32 413.905C326.314 413.361 326.851 413.056 327.319 413.336C327.501 413.446 327.668 413.161 327.486 413.052Z" fill="#372723"/>
<path d="M329.866 412.711C330.487 412.972 331.208 413.274 331.461 413.955C331.658 414.487 331.5 415.199 331.333 415.73C331.269 415.933 331.587 416.019 331.65 415.817C331.849 415.188 332.024 414.33 331.722 413.713C331.377 413.005 330.64 412.682 329.953 412.393C329.758 412.312 329.673 412.63 329.866 412.711Z" fill="#372723"/>
<path d="M274.296 382.04C274.296 382.04 274.1 378.66 273.599 377.897C273.599 377.897 274.443 378.486 274.67 378.805C274.67 378.805 274.868 378.934 274.897 378.52C274.926 378.106 274.947 374.058 274.846 373.494C274.846 373.494 275.858 374.496 276.188 377.119L276.333 377.214C276.333 377.214 277.105 376.658 277.63 377.665C277.63 377.665 278.567 377.09 279.11 377.82C279.11 377.82 279.933 377.438 280.506 377.92C281.08 378.401 281.061 378.957 281.061 378.957C281.061 378.957 282.333 380.953 279.504 383.246L274.296 382.04Z" fill="#EABFAD"/>
<path d="M272.749 381.957C275.28 382.387 277.744 383.127 280.275 383.556C280.483 383.591 280.572 383.273 280.363 383.238C277.831 382.809 275.367 382.068 272.836 381.64C272.629 381.605 272.54 381.922 272.749 381.957Z" fill="#372723"/>
<path d="M274.454 382.005C274.106 380.609 274.45 379.128 273.741 377.822C273.665 377.897 273.59 377.973 273.515 378.048C273.951 378.348 274.329 378.683 274.681 379.074C274.823 379.232 275.055 378.998 274.914 378.84C274.54 378.425 274.141 378.078 273.682 377.762C273.539 377.664 273.383 377.852 273.456 377.988C274.143 379.252 273.799 380.736 274.136 382.092C274.188 382.298 274.505 382.211 274.454 382.005Z" fill="#372723"/>
<path d="M275.03 378.87C275.2 377.042 275.089 375.215 275.006 373.385C274.913 373.424 274.818 373.463 274.725 373.502C275.611 374.539 275.803 376.087 276.075 377.384C276.118 377.591 276.436 377.504 276.393 377.296C276.103 375.919 275.9 374.372 274.957 373.269C274.865 373.161 274.67 373.248 274.676 373.386C274.758 375.215 274.87 377.043 274.7 378.871C274.681 379.082 275.01 379.081 275.03 378.87Z" fill="#372723"/>
<path d="M276.381 377.417C276.794 376.941 277.331 377.386 277.516 377.823C277.599 378.017 277.883 377.85 277.801 377.657C277.531 377.019 276.694 376.555 276.148 377.184C276.01 377.344 276.242 377.578 276.381 377.417Z" fill="#372723"/>
<path d="M277.749 377.866C278.135 377.454 278.741 377.52 279.019 378.011C279.123 378.196 279.409 378.03 279.304 377.845C278.924 377.172 278.045 377.069 277.516 377.632C277.37 377.787 277.603 378.021 277.749 377.866Z" fill="#372723"/>
<path d="M242.165 552.63C242.165 552.63 245.504 566.378 252.903 566.86C258.572 567.23 256.365 556.108 253.824 552.63H242.165Z" fill="#191931"/>
<path d="M270.186 551.861C270.186 551.861 269.692 556.888 274.06 558.619C278.428 560.349 290.79 561.586 293.18 561.174C295.57 560.761 296.477 555.734 283.537 551.861H270.186Z" fill="#191931"/>
<path d="M307.52 549.553C307.52 549.553 301.174 554.415 299.196 558.289C297.218 562.162 304.306 560.761 309.25 557.794C314.195 554.828 320.055 552.437 319.722 549.553H307.52Z" fill="#191931"/>
<path d="M340.977 551.861C340.977 551.861 338.749 566.59 344.88 568.124C351.088 569.677 351.116 552.767 350.951 551.861H340.977Z" fill="#191931"/>
<path d="M183.545 518.055C183.545 518.055 183.911 503.861 182.519 490.089C182.513 490.111 177.595 506.245 183.002 522.7C183.426 523.201 183.854 523.695 184.288 524.179L183.545 518.055Z" fill="#4C4936"/>
<path d="M197.824 493.561C189.427 498.558 187.475 518.181 187.023 526.683C197.38 509.219 197.818 493.789 197.824 493.561Z" fill="#4C4936"/>
<path d="M188.184 501.863L195.025 498.531C195.545 494.469 195.819 490.556 195.85 487.049L189.722 488.566L195.848 485.531C195.724 475.03 193.276 468.808 188.619 474.61C187.775 475.662 187.045 476.892 186.411 478.257L189.722 482.083L185.844 479.573C184.763 482.305 184.019 485.488 183.526 488.872L187.524 493.561L183.369 490.027C181.413 505.357 184.285 524.165 184.287 524.179C185.134 525.123 186.002 526.035 186.885 526.916C190.791 519.566 193.394 509.789 194.748 500.544L188.184 501.863Z" fill="#679C93"/>
<path d="M197.913 519.374L194.922 518.754C193.696 520.189 191.958 522.946 191.483 527.3C193.854 525.109 196.027 522.364 197.913 519.374Z" fill="#4C4936"/>
<path d="M196.179 517.521C196.179 517.521 195.938 517.701 195.575 518.056L198.826 517.871C198.914 517.721 198.997 517.569 199.083 517.418L196.179 517.521Z" fill="#4C4936"/>
<path d="M229.884 550.007C233.811 546.62 236.464 541.927 237.01 536.544C237.209 534.585 237.11 532.66 236.76 530.804L213.68 534.176L192.231 527.522C191.85 528.649 191.571 529.823 191.394 531.033C203.051 540.778 216.971 546.115 229.884 550.007Z" fill="#679C93"/>
<path d="M192.56 526.616L213.681 534.176L194.545 522.807C193.755 523.999 193.086 525.272 192.56 526.616Z" fill="#679C93"/>
<path d="M196.154 520.689L213.68 534.176L213.765 512.834C206.721 512.839 200.328 515.855 196.154 520.689Z" fill="#679C93"/>
<path d="M217.699 513.144L213.681 534.176L232.159 521.209C228.679 517.062 223.603 514.08 217.699 513.144Z" fill="#679C93"/>
<path d="M233.469 522.934L213.681 534.176L235.895 527.649C235.29 525.984 234.473 524.403 233.469 522.934Z" fill="#679C93"/>
<path d="M394.602 559.538C408.155 559.538 419.142 557.857 419.142 555.782C419.142 553.708 408.155 552.026 394.602 552.026C381.049 552.026 370.062 553.708 370.062 555.782C370.062 557.857 381.049 559.538 394.602 559.538Z" fill="#1E162E"/>
<path d="M402.801 515.325C402.801 515.325 403.492 493.921 428.348 486.54C428.348 486.54 424.896 507.649 408.843 515.325H402.801Z" fill="#EAAC29"/>
<path d="M421.693 489.099C403.371 497.934 402.801 515.325 402.801 515.325H405.475C418.395 505.733 421.666 489.236 421.693 489.099Z" fill="#A2222B"/>
<path d="M401.248 515.325C401.248 515.325 400.731 481.211 425.069 465.512C425.069 465.512 422.822 496.947 405.476 515.325H401.248Z" fill="#EAAC29"/>
<path d="M406.212 489.727C401.064 502.981 401.248 515.326 401.248 515.326H402.802C408.143 505.338 406.22 489.787 406.212 489.727Z" fill="#A2222B"/>
<path d="M398.235 515.325C398.235 515.325 388.303 464.716 394.69 435.774C394.69 435.774 411.951 473.644 402.803 515.325H398.235Z" fill="#EAAC29"/>
<path d="M396.93 507.882C402.786 475.074 392.602 456.532 392.578 456.487C392.228 475.76 395.152 496.95 396.93 507.882Z" fill="#A2222B"/>
<path d="M393.653 515.325C393.653 515.325 392.444 475.187 381.742 463.277C381.742 463.277 376.391 494.185 389.855 515.325H393.653Z" fill="#EAAC29"/>
<path d="M387.034 473.109C387.026 473.209 384.603 504.215 391.928 515.325L393.558 513.106C393.221 506.502 391.844 486.589 387.034 473.109Z" fill="#A2222B"/>
<path d="M382.07 494.226C383.354 501.394 385.714 508.822 389.856 515.325H393.653C392.274 501.969 382.094 494.244 382.07 494.226Z" fill="#A2222B"/>
<path d="M388.719 553.289H407.823C423.652 543.66 420.219 519.166 420.219 519.166L398.271 517.606L376.324 519.166C376.324 519.166 372.89 543.66 388.719 553.289Z" fill="#BAB0D0"/>
<path d="M422.445 519.886H374.096C373.528 519.886 373.068 519.426 373.068 518.859V516.353C373.068 515.785 373.529 515.325 374.096 515.325H422.445C423.012 515.325 423.472 515.786 423.472 516.353V518.859C423.472 519.427 423.012 519.886 422.445 519.886Z" fill="#7763A1"/>
<path d="M420.44 521.665C420.44 521.665 395.493 521.555 376.139 528.576C376.139 528.576 375.829 522.127 376.24 519.886H420.3C420.3 519.886 420.408 521.069 420.44 521.665Z" fill="#1E162E"/>
<path d="M391.927 515.325C391.927 515.325 382.433 480.194 391.927 457.754C391.927 457.754 399.867 483.828 395.379 515.325H391.927Z" fill="#EAAC29"/>
<path d="M391.927 515.325C391.927 515.325 384.85 491.159 365.862 486.54C365.862 486.54 370.178 506.613 385.023 515.325H391.927Z" fill="#EAAC29"/>
<path d="M404.418 473.119C404.182 471.219 403.915 469.368 403.623 467.572L399.909 470.182L396.438 504.772C397.436 511.257 398.234 515.325 398.234 515.325C405.067 502.562 404.427 473.533 404.418 473.119Z" fill="#A2222B"/>
<path d="M393.653 515.325H395.379L396.057 480.971C396.057 480.971 392.75 493.312 393.653 515.325Z" fill="#A2222B"/>
<path d="M394.602 515.325C394.602 515.325 394.343 462.587 403.837 439.975C403.837 439.975 405.85 489.928 399.406 515.325H394.602Z" fill="#EAAC29"/>
<path d="M365.862 486.54C365.862 486.54 367.459 493.939 372.03 501.702C371.695 490.651 365.862 486.54 365.862 486.54Z" fill="#A2222B"/>
<path d="M400.202 451.854C400.202 451.854 396.505 458.094 397.582 466.77C397.582 466.77 399.176 455.965 400.202 451.854Z" fill="#A2222B"/>
<path d="M414.021 519.886C414.021 519.886 414.329 542.008 403.901 553.289H402.802C402.802 553.289 413.001 540.695 412.247 519.886H414.021Z" fill="#1E162E"/>
<path d="M398.746 553.289C398.746 553.289 401.435 532.507 401.248 519.886H402.802C402.802 519.886 401.99 541.678 399.297 553.289H398.746Z" fill="#1E162E"/>
<path d="M386.387 462.145H191.07V464.533H386.387V462.145Z" fill="#BAB0D0"/>
<path d="M197.188 464.698C217.845 464.698 238.501 464.698 259.158 464.698C291.382 464.698 323.606 464.698 355.83 464.698C363.544 464.698 371.259 464.698 378.974 464.698C379.186 464.698 379.186 464.368 378.974 464.368C358.317 464.368 337.66 464.368 317.003 464.368C284.779 464.368 252.556 464.368 220.332 464.368C212.617 464.368 204.902 464.368 197.188 464.368C196.975 464.368 196.975 464.698 197.188 464.698Z" fill="#372723"/>
<path d="M317.873 461.857C318.046 461.857 318.185 461.718 318.185 461.545C318.185 461.373 318.046 461.234 317.873 461.234C317.701 461.234 317.562 461.373 317.562 461.545C317.562 461.718 317.701 461.857 317.873 461.857Z" fill="#1E162E"/>
<path d="M316.87 461.857C317.043 461.857 317.182 461.718 317.182 461.545C317.182 461.373 317.043 461.234 316.87 461.234C316.698 461.234 316.559 461.373 316.559 461.545C316.559 461.718 316.698 461.857 316.87 461.857Z" fill="#1E162E"/>
<path d="M252.832 471.655C256.956 474.635 260.696 478.309 262.522 483.162C264.401 488.155 264.036 493.7 263.075 498.85C262.134 503.89 260.61 508.749 259.909 513.843C259.419 517.409 259.021 521.002 258.675 524.585C257.775 533.911 257.242 543.283 256.587 552.629C256.573 552.84 256.902 552.84 256.917 552.629C257.594 542.958 258.096 533.245 259.104 523.603C259.716 517.758 260.256 511.85 261.69 506.139C262.948 501.126 264.229 496.129 264.185 490.92C264.112 482.475 259.67 476.189 252.999 471.369C252.826 471.246 252.662 471.531 252.832 471.655Z" fill="#372723"/>
<path d="M323.415 471.562C318.312 478.15 314.52 485.978 316.786 494.438C316.84 494.643 317.159 494.556 317.104 494.35C314.87 486.009 318.626 478.278 323.648 471.795C323.776 471.629 323.544 471.394 323.415 471.562Z" fill="#372723"/>
<path d="M316.786 494.438C322.595 513.654 328.638 532.827 334.887 551.905C334.953 552.105 335.272 552.019 335.205 551.817C328.955 532.74 322.913 513.567 317.103 494.35C317.042 494.148 316.724 494.234 316.786 494.438Z" fill="#372723"/>
<path d="M218.091 391.647C218.091 391.647 218.319 393.615 220.352 393.24C222.138 392.911 221.698 389.642 224.418 389.092C227.138 388.543 220.49 388.708 220.49 388.708L218.759 390.136L218.091 391.647Z" fill="#191931"/>
<path d="M232.188 547.691C213.003 545.206 191.394 531.032 191.394 531.032C203.051 540.777 216.97 546.115 229.884 550.006C230.713 549.292 231.481 548.516 232.188 547.691Z" fill="#4C4936"/>
<path d="M405.382 344.262H315.325C315.095 344.482 314.865 344.701 314.633 344.922H405.381V344.262H405.382Z" fill="#CBC8C7"/>
<path d="M324.294 335.738H405.028C404.87 335.517 404.712 335.295 404.552 335.079H325.002C324.767 335.296 324.532 335.516 324.294 335.738Z" fill="#CBC8C7"/>
<path d="M404.221 348.103H317.545V344.327H404.221V348.103ZM318.204 347.443H403.561V344.986H318.204V347.443Z" fill="#CBC8C7"/>
</svg>
