<svg width="2560" height="1723" viewBox="0 0 2560 1723" fill="none" xmlns="http://www.w3.org/2000/svg">
<path d="M1621.57 902.712L1616.85 907.875L1622.01 912.601L1974.32 1235.04C1989.69 1249.1 2001.32 1260.58 2009.31 1270.95C2017.27 1281.28 2021.21 1289.98 2021.93 1298.49C2022.65 1306.96 2020.27 1316.27 2013.53 1327.97C2006.75 1339.75 1995.84 1353.47 1980.19 1370.58L1390.93 2014.43C1375.28 2031.54 1362.57 2043.62 1351.44 2051.41C1340.38 2059.15 1331.31 2062.35 1322.82 2062.38C1314.27 2062.41 1305.26 2059.26 1294.27 2052.25C1283.23 2045.2 1270.77 2034.64 1255.4 2020.57L235.103 1086.79L229.939 1082.06L225.213 1087.23L50.6661 1277.95L45.9401 1283.11L51.104 1287.84L1071.41 2221.62C1159.36 2302.11 1243.59 2343.39 1328.55 2339.55C1413.51 2335.71 1497.26 2286.85 1584.47 2191.56L2173.73 1547.7C2260.93 1452.41 2302.2 1364.67 2298.52 1279.71C2294.83 1194.74 2246.28 1114.49 2158.32 1033.99L1806.01 711.554L1800.85 706.828L1796.12 711.992L1621.57 902.712ZM1544.84 1683.59L1549.57 1678.43L1544.4 1673.7L723.698 922.59L1141.12 466.489C1171.98 432.768 1202.73 414.684 1232.1 410.961C1261.22 407.27 1290.33 417.535 1318.52 443.338L1371.48 491.806C1382.21 501.629 1392.46 510.215 1401.43 517.734C1406.5 521.977 1411.15 525.88 1415.27 529.474C1427.14 539.852 1434.71 547.863 1438.23 555.869C1441.46 563.207 1441.6 571.321 1436.17 582.991C1430.57 595.03 1419.3 610.239 1400.37 630.93L1226.55 820.855L1221.82 826.019L1226.98 830.745L1408.76 997.108L1413.92 1001.83L1418.65 996.67L1592.47 806.745C1686.28 704.244 1722.37 616.359 1711.22 532.823C1700.12 449.68 1642.44 372.983 1554.17 292.193L1502.64 245.035C1416.38 166.091 1321.93 129.078 1226.6 136.382C1131.36 143.68 1036.46 195.126 949.018 290.674L352.321 942.659L347.595 947.823L352.759 952.549L1360.4 1874.75L1365.57 1879.47L1370.29 1874.31L1544.84 1683.59ZM1204.46 860.041L1199.29 855.315L1194.57 860.479L1020.02 1051.2L1015.29 1056.36L1020.46 1061.09L1626.18 1615.44L1631.34 1620.17L1636.07 1615.01L1810.61 1424.29L1815.34 1419.12L1810.18 1414.4L1204.46 860.041ZM1047.45 716.346L1042.28 711.62L1037.56 716.784L863.01 907.503L858.284 912.667L863.448 917.393L954.023 1000.29L959.187 1005.01L963.913 999.849L1138.46 809.13L1143.19 803.966L1138.02 799.24L1047.45 716.346Z" stroke="#448CFF" stroke-opacity="0.58" stroke-width="14"/>
<rect y="1578" width="2560" height="145" fill="#388BF7"/>
<path d="M2571.81 474.628C2477.01 339.813 2337.26 370.13 2257.66 408.883C2165.19 453.907 2022.11 675.811 1782.3 737.764C1542.49 799.72 1342.76 1020.64 1421.67 1264.35C1493.37 1485.74 1706.31 1510.54 1828.04 1549.48H2571.81V474.628Z" fill="#EDEBEB"/>
<path d="M1618.3 808.979H2571.81V805.763H1623.37C1621.67 806.818 1619.99 807.905 1618.3 808.979Z" fill="#CBC8C7"/>
<path d="M2122.71 669.485L2124.33 669.491V521.636C2123.26 522.649 2122.18 523.665 2121.11 524.681V666.263L1946.41 665.516C1944.69 666.587 1942.97 667.649 1941.24 668.71L2122.71 669.485Z" fill="#CBC8C7"/>
<path d="M2321.1 773.233C2279.02 773.233 2244.79 738.999 2244.79 696.921C2244.79 654.843 2279.02 620.608 2321.1 620.608C2363.18 620.608 2397.41 654.843 2397.41 696.921C2397.41 738.996 2363.18 773.233 2321.1 773.233ZM2321.1 623.821C2280.79 623.821 2248 656.611 2248 696.918C2248 737.224 2280.79 770.014 2321.1 770.014C2361.41 770.014 2394.2 737.224 2394.2 696.918C2394.2 656.611 2361.41 623.821 2321.1 623.821Z" fill="#CBC8C7"/>
<path d="M2571.3 770.561H2122.3V773.777H2571.3V770.561Z" fill="#CBC8C7"/>
<path d="M2461.03 773.609H2420.89V606.252H2461.03V773.609ZM2424.1 770.393H2457.82V609.468H2424.1V770.393Z" fill="#CBC8C7"/>
<path d="M2504.7 773.609H2464.56V606.252H2504.7V773.609ZM2467.77 770.393H2501.48V609.468H2467.77V770.393Z" fill="#CBC8C7"/>
<path d="M2528.67 773.082L2502.4 618.698L2541.98 611.964L2568.26 766.348L2528.67 773.082ZM2506.11 621.329L2531.31 769.371L2564.54 763.714L2539.35 615.672L2506.11 621.329Z" fill="#CBC8C7"/>
<path d="M1533.05 1362.43L1564.28 1360.65C1573.72 1344.5 1581.44 1327.29 1586.91 1310.97L1559.38 1306.68L1589.21 1303.74C1593.74 1288.64 1596.18 1274.62 1596.11 1263.31L1570.26 1264.34L1595.98 1259.24C1595.03 1244.68 1589.22 1235.62 1577.41 1236.38C1574.55 1236.56 1571.83 1237.11 1569.19 1237.85L1573.47 1248.69L1565.34 1239.15C1518.74 1257.63 1508.75 1362.96 1506.62 1405.34C1510.2 1408.89 1513.83 1412.36 1517.53 1415.71C1533.39 1404.12 1547.8 1387.05 1559.83 1367.98L1533.05 1362.43Z" fill="#679C93"/>
<path d="M1489.74 1361.55C1489.74 1361.55 1491.52 1292.49 1484.76 1225.4L1459.78 1262.84L1483.26 1211.7C1480.16 1185.9 1475.67 1161.15 1469.19 1141.55L1444.83 1158.21L1463.6 1127.11C1456.48 1111.55 1447.46 1101.52 1436.03 1100.48C1423.66 1099.35 1416.54 1108.58 1413.33 1124.43L1431.97 1130.87H1412.28C1410.21 1147.25 1411.45 1169 1414.91 1193.05L1450.19 1206.7H1417.06C1420.78 1228.36 1426.04 1251.32 1432.13 1273.56L1459.77 1285.78L1434.44 1281.79C1439.36 1299.03 1444.75 1315.67 1450.25 1330.72C1462.92 1353.6 1477.45 1373.68 1493.37 1391.43L1489.74 1361.55Z" fill="#679C93"/>
<path d="M2085.81 987.094L2037.5 1506.47L1944.32 1510.3L1918.76 990.796L2085.81 987.094Z" fill="#7F7767"/>
<path d="M2016.19 1507.34C2016.19 1507.34 2054.66 1519.21 2067.93 1527.25C2081.2 1535.29 2078.38 1557.8 2014.46 1545.74C1950.55 1533.68 1971.9 1507.34 1971.9 1507.34H2016.19Z" fill="#191931"/>
<path d="M1686.36 1243.69L1613.53 1525.63L1619.75 1527.24L1692.59 1245.29L1686.36 1243.69Z" fill="#191931"/>
<path d="M2341.81 1243.11L2335.62 1244.87L2416.14 1527.39L2422.33 1525.63L2341.81 1243.11Z" fill="#191931"/>
<path d="M1610.61 1003.36C1610.61 1003.36 1581.38 999.524 1565.32 1034.93C1552.56 1063.08 1540.97 1253.88 1751.09 1252.28L1757.25 1221.72L1610.61 1003.36Z" fill="#6C93FB"/>
<path d="M1752.17 1246.89C1730.48 1242.66 1650.14 1236.19 1608.09 1175.9C1566.5 1116.27 1589.38 1025.44 1589.38 1025.44L1603.47 1003.54C1593.78 1004.75 1576.41 1010.48 1565.32 1034.93C1552.64 1062.91 1541.16 1251.46 1747.19 1252.25C1749.01 1250.31 1750.67 1248.52 1752.17 1246.89Z" fill="#4678E7"/>
<path d="M2408.2 1003.36C2408.2 1003.36 2437.43 999.524 2453.49 1034.93C2466.25 1063.08 2477.84 1253.88 2267.72 1252.28L2261.56 1221.72L2408.2 1003.36Z" fill="#6C93FB"/>
<path d="M2266.63 1246.89C2288.33 1242.66 2368.67 1236.19 2410.72 1175.9C2452.31 1116.27 2429.43 1025.44 2429.43 1025.44L2415.34 1003.54C2425.03 1004.75 2442.4 1010.48 2453.48 1034.93C2466.17 1062.91 2477.65 1251.46 2271.62 1252.25C2269.8 1250.31 2268.14 1248.52 2266.63 1246.89Z" fill="#4678E7"/>
<path d="M1920.8 592.195L1873.57 595.019C1873.57 595.019 1821.9 593.369 1812.59 653.778C1803.27 714.187 1784.2 941.691 1784.2 941.691C1784.2 941.691 1779.85 987.145 1812.02 989.602C1844.19 992.059 2077.04 987.091 2077.04 987.091C2077.04 987.091 2111.58 988.142 2105.72 945.903C2101.17 913.161 2073.56 646.925 2073.56 646.925C2073.56 646.925 2066.64 587.686 1999.8 588.004L1920.8 592.195Z" fill="#679C93"/>
<path d="M1918.61 623.419C1918.61 623.419 1931.49 635.878 1961.79 633.733C1992.09 631.588 2007.8 604.834 2007.9 594.639C2007.92 592.356 2007.74 590.233 2007.46 588.271C2004.99 588.104 2002.46 587.988 1999.8 588.001L1920.8 592.192L1894.54 593.761L1918.61 623.419Z" fill="#7F7767"/>
<path d="M1976.57 476.339C1976.57 476.339 1981.86 467.562 1989.9 471.781C1999.32 476.728 1995.86 494.831 1976.57 493.223V476.339Z" fill="#CF9B89"/>
<path d="M1908.26 592.944C1908.26 592.944 1909.65 622.252 1951.37 624.32C1985.16 625.992 2001.13 601.348 1999.8 588.008L1908.26 592.944Z" fill="#EABFAD"/>
<path d="M1916.14 543.125C1916.14 543.125 1917.24 588.654 1908.26 592.944L1928.29 599.556L1999.8 588.004L1981.03 541.395L1925.08 530.946L1916.14 543.125Z" fill="#EABFAD"/>
<path d="M2053.88 607.857C2053.88 607.857 2120.07 702.343 2191.57 757.301L2161.47 837.682C2161.47 837.682 2114.17 816.816 2075.37 784.37L2053.88 607.857Z" fill="#553B8A"/>
<path d="M2075.37 784.37C2086.63 793.787 2098.6 802.222 2109.93 809.461C2098.58 764.656 2099.44 671.756 2078.72 640.814C2071.99 630.761 2066.03 624.4 2066.03 624.4L2054.81 615.553L2075.37 784.37Z" fill="#463374"/>
<path d="M1937.01 989.628C1940.45 917.947 1946.04 711.515 1931.48 663.68C1917.74 618.531 1910.38 602.782 1911.28 592.764L1873.57 595.019C1873.57 595.019 1821.9 593.369 1812.59 653.778C1803.27 714.187 1784.2 941.69 1784.2 941.69C1784.2 941.69 1779.85 987.145 1812.02 989.602C1825.46 990.628 1885.14 990.291 1937.01 989.628Z" fill="#553B8A"/>
<path d="M1858.45 937.439C1832.75 953.612 1789.18 948.425 1769.7 911.605C1742.47 942.864 1733.46 973.23 1796.45 976.504C1930.45 983.473 1940.98 807.368 1940.98 807.368L1940.99 799.714C1918.2 865.835 1882.37 922.385 1858.45 937.439Z" fill="#463374"/>
<path d="M2107.99 1116.27C2107.99 1116.27 2064.4 1141.58 2065.23 1221.72C2066.06 1301.86 2065.22 1515.19 2065.22 1515.19H2165.75L2176.47 1269.16L2224.71 1104.67L2107.99 1116.27Z" fill="#2B1E45"/>
<path d="M2224.71 1104.67L2187.36 1108.38L2139.52 1136.23C2139.52 1136.23 2115.65 1169.95 2115.77 1212.46C2115.89 1254.96 2157.18 1344.21 2157.18 1344.21L2153.98 1515.19H2165.75L2176.47 1269.16L2224.71 1104.67Z" fill="#1E162E"/>
<path d="M1820.53 628.153C1820.53 628.153 1764.82 775.279 1760 858.608C1755.17 941.938 1823.43 959.478 1858.45 937.442C1893.46 915.406 1954.03 804.454 1961.79 704.72L1924.17 695.914C1924.17 695.914 1905.32 759.43 1851.12 833.398C1851.12 833.398 1894.99 629.269 1820.53 628.153Z" fill="#553B8A"/>
<path d="M1859.25 597.816C1872.63 658.065 1871.57 719.796 1856.13 779.553C1855.87 780.556 1857.43 780.984 1857.68 779.98C1873.17 720.008 1874.23 657.856 1860.8 597.389C1860.58 596.379 1859.03 596.807 1859.25 597.816Z" fill="#372723"/>
<path d="M1854.95 827.059C1877.3 783.126 1903.42 741.26 1925.76 697.323C1926.23 696.403 1924.84 695.586 1924.38 696.512C1902.03 740.446 1875.91 782.312 1853.57 826.249C1853.1 827.169 1854.48 827.986 1854.95 827.059Z" fill="#372723"/>
<path d="M1960.98 704.716C1956.26 740.607 1947.34 775.327 1934.36 809.114C1921.79 841.872 1908.24 877.194 1888.11 906.192C1866.52 937.307 1823.92 964.881 1786.81 941.243C1747.09 915.946 1750.33 863.23 1757.03 822.92C1757.19 821.907 1755.65 821.473 1755.48 822.493C1749.22 860.146 1745.75 904.102 1774.95 933.66C1800.25 959.266 1838.57 954.468 1865.26 933.586C1897.19 908.601 1912.64 865.786 1927.8 829.661C1944.72 789.358 1956.89 748.11 1962.59 704.716C1962.72 703.694 1961.11 703.703 1960.98 704.716Z" fill="#372723"/>
<path d="M1899.09 1100.48C1899.09 1100.48 1980.35 1132.48 1990.23 1249.29C1995.69 1313.82 1992.62 1526.44 1992.62 1526.44H1889.17C1889.17 1526.44 1887.39 1302.13 1861.88 1251.47C1836.37 1200.82 1717.93 1100.48 1717.93 1100.48H1899.09Z" fill="#5E5B42"/>
<path d="M1876.51 1312.92C1891.32 1287.04 1909.22 1221.8 1900.97 1189.56C1892.39 1156.05 1865.64 1136.3 1865.64 1136.3L1863.04 1100.47H1731.36C1735.02 1107.12 1739.31 1114.87 1744.07 1123.39C1780.47 1156.05 1844 1215.96 1861.89 1251.47C1868.04 1263.7 1872.81 1286.06 1876.51 1312.92Z" fill="#4C4936"/>
<path d="M2105.71 945.907C2101.17 913.165 2073.55 646.928 2073.55 646.928C2073.55 646.928 2066.64 587.689 1999.8 588.008C2001.36 598.801 2002.79 624.738 1997.7 651.694C1991.02 687.07 2013.53 944.887 2035.5 981.334C2037.1 983.978 2039.08 986.084 2041.32 987.811C2062.98 987.396 2077.04 987.097 2077.04 987.097C2077.04 987.097 2111.58 988.146 2105.71 945.907Z" fill="#553B8A"/>
<path d="M1657.2 1088.83C1574.41 1088.83 1581.53 1029.3 1581.53 1029.3C1581.53 1029.3 1592.59 923.179 1606.99 831.15C1621.4 739.121 1692.08 732.091 1692.08 732.091H1756.57H1839.49C1839.49 732.091 1903.98 732.091 1907.66 807.413C1910.87 873.042 1920.56 1037.02 1920.56 1037.02C1920.56 1037.02 1926.09 1088.83 1883.71 1088.83H1657.2Z" fill="#EAAC29"/>
<path d="M2371.06 1088.83C2458.83 1088.83 2451.27 1025.72 2451.27 1025.72C2451.27 1025.72 2439.56 913.226 2424.28 815.665C2409 718.105 2334.07 710.653 2334.07 710.653H2265.71H2177.81C2177.81 710.653 2109.45 710.653 2105.54 790.5C2102.14 860.075 2091.86 1033.91 2091.86 1033.91C2091.86 1033.91 2086 1088.83 2130.93 1088.83H2371.06Z" fill="#7F7767"/>
<path d="M1721 732.091C1721 732.091 1737.36 793.195 1792.43 791.355C1850.25 789.423 1813.85 732.091 1813.85 732.091H1721Z" fill="#EABFAD"/>
<path d="M1799.77 594.642H1728.09V688.701H1799.77V594.642Z" fill="#EABFAD"/>
<path d="M1799.77 594.642C1799.77 594.642 1831.46 686.581 1799.77 688.701C1768.09 690.82 1752.42 667.237 1752.42 667.237L1799.77 594.642Z" fill="#EABFAD"/>
<path d="M1980.63 537.7L1916.14 543.125L1914.06 454.174H1985.75L1980.63 537.7Z" fill="#EABFAD"/>
<path d="M1985.75 454.174C1985.75 454.174 2009.6 541.112 1977.92 543.231C1946.23 545.351 1930.57 521.768 1930.57 521.768L1985.75 454.174Z" fill="#EABFAD"/>
<path d="M2212.37 667.822L2284.06 667.822L2284.06 573.763L2212.37 573.763L2212.37 667.822Z" fill="#EABFAD"/>
<path d="M2212.37 573.764C2212.37 573.764 2180.69 665.703 2212.37 667.822C2244.06 669.942 2259.72 646.359 2259.72 646.359L2212.37 573.764Z" fill="#EABFAD"/>
<path d="M1599.95 876.792C1600.99 876.792 1600.99 875.184 1599.95 875.184C1598.92 875.184 1598.92 876.792 1599.95 876.792Z" fill="#372723"/>
<path d="M1754.37 1265.14C1755.41 1265.14 1755.41 1263.53 1754.37 1263.53C1753.34 1263.53 1753.34 1265.14 1754.37 1265.14Z" fill="#372723"/>
<path d="M1753.69 1264.35C1749.86 1343.94 1746.02 1423.53 1742.18 1503.12C1742.13 1504.16 1743.74 1504.15 1743.79 1503.12C1747.62 1423.53 1751.46 1343.94 1755.3 1264.35C1755.35 1263.31 1753.74 1263.31 1753.69 1264.35Z" fill="#372723"/>
<path d="M1764.83 1116.97C1819.58 1149.58 1859.64 1201.75 1877.01 1263.06C1877.29 1264.05 1878.84 1263.63 1878.56 1262.63C1861.08 1200.93 1820.73 1148.4 1765.64 1115.58C1764.75 1115.05 1763.94 1116.44 1764.83 1116.97Z" fill="#372723"/>
<path d="M1748.73 1504.65C1779.23 1505.55 1811.86 1509.66 1842.22 1506.71C1843.24 1506.61 1843.25 1505 1842.22 1505.1C1811.86 1508.05 1779.23 1503.94 1748.73 1503.04C1747.7 1503.01 1747.7 1504.62 1748.73 1504.65Z" fill="#372723"/>
<path d="M1859.8 1071.62C1841 1064.75 1679 1023.22 1679 1023.22L1686.69 961.031L1590.85 948.38C1585.11 994.938 1581.53 1029.3 1581.53 1029.3C1581.53 1029.3 1574.41 1088.83 1657.2 1088.83H1871.27C1872.65 1084.25 1872.97 1076.43 1859.8 1071.62Z" fill="#EABFAD"/>
<path d="M1924.82 943.656C1924.82 943.656 1932.28 1049.67 1928.75 1065.75C1925.22 1081.83 1901.73 1091 1871.27 1088.83L1711.36 1089.14V1080.22C1711.36 1080.22 1771.59 1036.42 1854.43 1033.6C1854.43 1033.6 1870.75 967.56 1871.92 951.046C1871.92 951.046 1892.65 946.383 1924.82 943.656Z" fill="#EABFAD"/>
<path d="M1908.41 822.287C1908.41 822.287 1921.65 911.627 1938.72 937.233C1938.72 937.233 1918.45 951.583 1871.92 951.046" fill="#EAAC29"/>
<path d="M2256.88 1262.26C2271.82 1340.62 2288.62 1418.61 2307.28 1496.17C2307.52 1497.18 2309.07 1496.75 2308.83 1495.74C2290.17 1418.18 2273.37 1340.2 2258.43 1261.83C2258.24 1260.82 2256.69 1261.25 2256.88 1262.26Z" fill="#372723"/>
<path d="M2198.53 710.65L2191.57 747.367L2292.38 710.65H2198.53Z" fill="#EABFAD"/>
<path d="M2387.52 1100.48C2387.52 1100.48 2405.88 1201.63 2283.71 1233.38L2348.93 1526.44H2228.73C2228.73 1526.44 2139.31 1248.73 2137.58 1234.75C2128.29 1159.67 2207.02 1100.47 2207.02 1100.47H2387.52V1100.48Z" fill="#2B1E45"/>
<path d="M2112.46 756.333C2112.46 756.333 2104.91 773.095 2100.49 794.803C2096.07 816.511 2066.32 1021.51 2066.32 1021.51C2066.32 1021.51 2055.47 1077.81 2102.1 1089.14H2150.74L2134.66 1062.94L2112.46 756.333Z" fill="#7F7767"/>
<path d="M1602.85 858.608C1602.85 858.608 1588.73 926.987 1572.39 949.833C1572.39 949.833 1630.55 973.024 1695.68 965.881C1695.68 965.881 1692.09 944.845 1694.07 926.794" fill="#EAAC29"/>
<path d="M1863.03 800.138C1863.03 800.138 1883.21 844.651 1885.5 875.592C1887.13 897.599 1888.76 889.266 1875.9 943.655L1871.92 951.046C1871.92 951.046 1880.96 908.061 1878.9 886.674C1876.85 865.288 1863.69 806.011 1863.03 800.138Z" fill="#D19825"/>
<path d="M1679 1023.21C1679 1023.21 1736.68 1028.77 1773.93 1041.36C1773.93 1041.36 1821.51 1025.35 1846.03 1023.21C1846.03 1023.21 1869.28 950.779 1871.92 951.046C1871.92 951.046 1868.07 981.749 1854.43 1033.6C1854.43 1033.6 1814.36 1034.27 1777.33 1048L1679 1023.21Z" fill="#D19825"/>
<path d="M1861.73 797.723C1866.7 822.625 1872.63 847.558 1876.23 872.694C1880.28 900.973 1875.37 928.023 1869.29 955.658C1869.07 956.667 1870.62 957.098 1870.84 956.085C1876.73 929.302 1881.88 902.922 1878.27 875.409C1874.85 849.211 1868.45 823.191 1863.28 797.295C1863.08 796.282 1861.53 796.713 1861.73 797.723Z" fill="#372723"/>
<path d="M1633.77 1100.48C1633.77 1100.48 1610.45 1236.47 1748.74 1244.51C1748.74 1244.51 1729.68 1400.49 1742.98 1530.2H1846.83C1846.83 1530.2 1854.44 1394.66 1865.64 1323.83C1876.85 1253.01 1929.91 1162.81 1758.92 1100.48H1633.77Z" fill="#5E5B42"/>
<path d="M2002.28 1100.48H2000.82H1642.61V1106.15C1642.61 1106.15 1727.18 1142.53 2001.55 1137.25C2275.92 1142.53 2360.49 1106.15 2360.49 1106.15V1100.48H2002.28Z" fill="#7763A1"/>
<path d="M1892.74 1271.68C1892.74 1271.68 1907.11 1401.56 1904.31 1526.44H1889.18C1889.18 1526.44 1887.47 1398.74 1876.8 1308.22C1876.8 1308.22 1886.65 1270.98 1892.74 1271.68Z" fill="#4C4936"/>
<path d="M1787.84 686.958L1739.09 676.348L1728.09 688.701C1728.09 688.701 1729.98 727.804 1721 732.091L1742.31 744.955L1813.85 732.091C1794.28 719.227 1787.84 686.958 1787.84 686.958Z" fill="#EABFAD"/>
<path d="M1735.59 634C1735.59 634 1775.16 632.395 1789.14 606.204C1789.14 606.204 1795.37 612.096 1804.62 611.893C1804.62 611.893 1812.12 594.205 1794.3 580.402C1776.51 566.618 1761.34 565.251 1738.02 569.683C1715.36 573.989 1694.87 594.34 1694.87 623.284C1694.87 652.228 1691.79 678.12 1679 700.819C1666.2 723.517 1657.27 724.588 1658.25 744.958C1658.25 744.958 1676.16 734.239 1692.08 732.094H1721C1721 732.094 1739.5 729.817 1743.52 710.653C1747.54 691.492 1729.94 668.019 1728.09 650.408C1728.09 650.408 1724.85 635.473 1735.59 634Z" fill="#191931"/>
<path d="M1735.59 634C1735.59 634 1730.3 625.223 1722.26 629.443C1712.83 634.389 1716.29 652.492 1735.59 650.884V634Z" fill="#EABFAD"/>
<path d="M1806.46 686.379C1806.46 686.379 1809.31 699.127 1819.76 712.525C1830.22 725.923 1830.48 732.088 1830.48 732.088H1813.85C1813.85 732.088 1796.59 723.025 1788.22 688.697C1788.22 688.697 1802.62 689.109 1806.46 686.379Z" fill="#191931"/>
<path d="M1726.49 651.34C1728.49 658.258 1732.83 662.87 1736.56 668.832C1743.93 680.587 1746.22 697.133 1735.4 707.791C1734.66 708.518 1735.8 709.656 1736.54 708.929C1742.89 702.677 1745.09 693.83 1744.25 685.044C1742.94 671.276 1731.7 663.58 1728.04 650.913C1727.76 649.919 1726.2 650.343 1726.49 651.34Z" fill="#191931"/>
<path d="M1696.6 611.719C1694.97 633.755 1693.35 656.155 1686.27 677.242C1680.94 693.119 1670.68 706.704 1671.54 724.032C1671.59 725.061 1673.2 725.067 1673.15 724.032C1672.17 704.272 1686.09 685.98 1690.92 667.063C1695.53 648.999 1696.84 630.247 1698.21 611.722C1698.28 610.687 1696.67 610.693 1696.6 611.719Z" fill="#191931"/>
<path d="M1695.96 620.296C1696.83 645.352 1691.2 664.748 1678.65 686.35C1669.82 701.561 1662.37 716.14 1664.4 734.168C1664.52 735.185 1666.13 735.198 1666.01 734.168C1663.06 707.974 1681.08 689.82 1690.77 667.414C1697.28 652.363 1698.13 636.482 1697.57 620.3C1697.53 619.264 1695.93 619.261 1695.96 620.296Z" fill="#191931"/>
<path d="M1788.14 602.338C1786.83 611.542 1782.36 621.049 1773.9 625.677C1766.47 629.735 1757.71 629.816 1749.47 629.96C1748.44 629.98 1748.44 631.588 1749.47 631.568C1758.7 631.408 1768.71 631.186 1776.69 625.886C1784.3 620.83 1788.44 611.546 1789.7 602.766C1789.84 601.753 1788.29 601.315 1788.14 602.338Z" fill="#191931"/>
<path d="M1808.07 684.877C1807.67 685.292 1807.27 685.707 1806.83 686.057C1812.79 700.272 1827.88 711.492 1825.05 728.116C1824.88 729.129 1826.43 729.563 1826.6 728.544C1829.58 711.045 1813.89 699.86 1808.07 684.877Z" fill="#191931"/>
<path d="M1788.22 688.701C1788.22 688.701 1778.09 688.72 1764.82 684.88C1764.82 684.88 1777.23 712.438 1799.77 716.94C1799.77 716.94 1793.11 708.122 1788.22 688.701Z" fill="#CF9B89"/>
<path d="M1713.41 586.107C1713.51 583.505 1711.14 581.103 1708.21 580.302C1705.27 579.501 1701.95 580.132 1699.36 581.556C1696.78 582.981 1694.84 585.123 1693.36 587.406C1689.61 593.202 1688.55 600.19 1690.44 606.593C1691.11 608.873 1692.39 611.301 1694.96 612.208C1697.81 613.215 1701.09 611.938 1703.43 610.24C1707.28 607.448 1709.77 603.525 1711.21 599.428C1712.64 595.33 1713.06 591.034 1713.31 586.766" fill="#191931"/>
<path d="M1710.55 732.091C1710.76 732.091 1713.23 772.291 1755.31 796.411C1802.09 823.226 1840 796.276 1833.13 764.492C1827.83 739.986 1818.29 732.091 1818.29 732.091H1710.55Z" fill="#A2222B"/>
<path d="M1721 732.091C1721 732.091 1737.36 793.195 1792.43 791.355C1850.25 789.423 1813.85 732.091 1813.85 732.091L1772.24 729.126L1721 732.091Z" fill="#EABFAD"/>
<path d="M1748.74 1244.51C1748.74 1244.51 1738.69 1234.19 1737.89 1225.54C1737.89 1225.54 1714.56 1242.04 1665.22 1212.18C1665.22 1212.18 1690.45 1242.36 1748.74 1244.51Z" fill="#4C4936"/>
<path d="M1696.31 879.647L1690.99 1025.87L1679 1023.21L1696.31 879.647Z" fill="#D19825"/>
<path d="M1670.74 1022.29C1703.8 1029.26 1736.55 1037.57 1769.12 1046.56C1784.92 1050.92 1800.67 1055.42 1816.42 1059.95C1824.66 1062.32 1874.31 1071.89 1870.24 1085.26C1869.94 1086.25 1871.49 1086.67 1871.79 1085.69C1874.57 1076.58 1867.46 1073.68 1860.01 1070.84C1840.53 1063.42 1819.18 1059.03 1799.13 1053.32C1756.78 1041.25 1714.26 1029.82 1671.16 1020.73C1670.15 1020.52 1669.72 1022.07 1670.74 1022.29Z" fill="#372723"/>
<path d="M2284.06 594.671C2284.06 594.671 2267.19 604.056 2263.91 585.162C2263.91 585.162 2244.92 599.463 2206.68 592.613L2204.77 599.923C2204.77 599.923 2184.92 583.152 2196.98 562.447C2209.04 541.742 2252.65 563.856 2266.72 565.866C2266.72 565.866 2273.95 561.727 2283.01 564.859C2293.46 568.477 2303.81 577.926 2284.07 639.026V594.671H2284.06Z" fill="#191931"/>
<path d="M2277.87 599.859C2277.87 599.859 2283.17 591.082 2291.21 595.302C2300.63 600.248 2297.17 618.351 2277.87 616.743V599.859Z" fill="#EABFAD"/>
<path d="M2263.69 582.849C2256.39 606.223 2223.19 593.24 2207.2 589.693C2206.19 589.468 2205.86 590.362 2206.88 590.584C2223.34 594.234 2257.61 607.686 2265.24 583.274C2265.54 582.286 2263.99 581.865 2263.69 582.849Z" fill="#191931"/>
<path d="M2259.61 582.155C2259.03 584.029 2258.47 586.146 2257.39 587.812C2254.93 591.6 2251.35 592.002 2247.26 592.214C2241.38 592.52 2235.72 592.372 2230.26 589.847C2229.33 589.416 2228.51 590.802 2229.45 591.237C2236.06 594.295 2245.58 594.006 2252.7 592.449C2258.42 591.198 2259.57 587.776 2261.16 582.586C2261.47 581.592 2259.92 581.167 2259.61 582.155Z" fill="#191931"/>
<path d="M2198.33 567.264C2194.08 571.117 2189.82 577.694 2190.99 583.779C2192.26 590.407 2199.79 591.745 2205.36 592.279C2206.38 592.378 2206.63 590.789 2205.6 590.69C2200.31 590.182 2192.66 589.68 2192.16 583.084C2191.74 577.588 2195.31 572.166 2199.28 568.561C2200.05 567.869 2199.1 566.57 2198.33 567.264Z" fill="#191931"/>
<path d="M2284.06 667.822L2273.05 655.47L2221.48 666.694C2221.48 666.694 2217.57 693.833 2198.53 710.65L2263.98 718.153L2292.38 710.65C2283.4 706.363 2284.06 667.822 2284.06 667.822Z" fill="#EABFAD"/>
<path d="M2221.29 667.822C2221.29 667.822 2242.92 665.893 2255.32 651.556C2255.32 651.556 2255.35 694.235 2198.53 710.65C2198.53 710.65 2214.56 698.625 2221.29 667.822Z" fill="#CF9B89"/>
<path d="M2292.38 710.65L2191.57 747.367L2211.69 779.765L2307.92 710.65C2307.92 710.65 2298.34 707.903 2292.38 710.65Z" fill="#898378"/>
<path d="M2191.57 747.367L2156.7 761.012L2196.04 704.713C2196.04 704.713 2198.33 701.288 2206.83 701.545C2206.83 701.545 2203.16 708.772 2198.53 710.647L2191.57 747.367Z" fill="#898378"/>
<path d="M2286.59 699.339C2286.59 699.339 2309.33 699.047 2307.92 710.65H2292.38C2292.38 710.65 2288.1 708.881 2286.59 699.339Z" fill="#898378"/>
<path d="M2297.57 709.479C2297.57 709.479 2294.37 709.663 2292.38 710.653C2292.38 710.653 2289.78 709.662 2288 704.797C2288 704.797 2299.38 704.906 2297.57 709.479Z" fill="#726B5E"/>
<path d="M2198.53 710.65C2198.53 710.65 2199.5 707.148 2203.06 707.09C2203.06 707.09 2200.75 709.913 2198.53 710.65Z" fill="#726B5E"/>
<path d="M2188.73 881.567C2188.73 881.567 2206.49 1008.82 2275.09 1089.14L2313.43 1088.77C2313.43 1088.77 2229.93 1004.78 2188.73 881.567Z" fill="#726B5E"/>
<path d="M2314 1088.2C2257.84 1028.31 2215.32 957.423 2188.94 879.67C2188.61 878.695 2187.05 879.114 2187.39 880.098C2213.85 958.086 2256.53 1029.27 2312.87 1089.34C2313.58 1090.1 2314.71 1088.96 2314 1088.2Z" fill="#372723"/>
<path d="M2331.09 879.882C2331.09 879.882 2329.59 947.595 2321.1 947.846L2338.74 956.137C2338.74 956.137 2337.14 954.664 2336.87 952.519C2336.6 950.374 2331.09 882.439 2331.09 879.882Z" fill="#726B5E"/>
<path d="M2211.12 867.349C2270.87 928.022 2347.02 969.805 2430.3 987.576C2431.31 987.792 2431.74 986.242 2430.72 986.026C2347.69 968.306 2271.83 926.714 2212.26 866.214C2211.53 865.474 2210.39 866.61 2211.12 867.349Z" fill="#372723"/>
<path d="M2330.29 877.326C2332.43 903.33 2334.57 929.335 2336.71 955.336C2336.79 956.359 2338.4 956.368 2338.31 955.336C2336.17 929.331 2334.04 903.327 2331.9 877.326C2331.81 876.303 2330.2 876.293 2330.29 877.326Z" fill="#372723"/>
<path d="M2328.08 828.044C2325.53 794.234 2322.37 741.774 2350.07 716.522C2350.84 715.824 2349.7 714.689 2348.94 715.384C2320.93 740.909 2323.92 794.237 2326.47 828.044C2326.55 829.069 2328.15 829.079 2328.08 828.044Z" fill="#372723"/>
<path d="M2156.7 761.012L2170.24 764.251L2191.57 747.367L2156.7 761.012Z" fill="#726B5E"/>
<path d="M2191.57 747.367L2206.83 779.073L2211.69 779.765L2191.57 747.367Z" fill="#726B5E"/>
<path d="M2211.69 779.765C2211.69 779.765 2261.7 747.097 2282.6 736.645C2303.5 726.193 2315.75 716.278 2319.38 710.65H2307.93L2211.69 779.765Z" fill="#726B5E"/>
<path d="M2122.3 744.598C2122.3 744.598 2115.57 760.71 2109.94 787.908C2104.31 815.105 2089.64 940.06 2089.64 940.06L2102.28 942.472C2102.28 942.472 2110.44 831.674 2112.5 811.095C2114.56 790.516 2122.3 744.598 2122.3 744.598Z" fill="#726B5E"/>
<path d="M2103.08 938.047C2106.36 872.553 2113.22 806.914 2123.5 742.154C2123.66 741.141 2122.11 740.707 2121.95 741.726C2111.65 806.638 2104.76 872.402 2101.47 938.047C2101.42 939.082 2103.03 939.079 2103.08 938.047Z" fill="#372723"/>
<path d="M2112.99 1078.95H1906.71C1902.8 1078.95 1899.63 1075.78 1899.63 1071.87L1884.5 933.872C1884.5 929.962 1887.67 926.788 1891.58 926.788H2097.86C2101.77 926.788 2104.94 929.959 2104.94 933.872L2120.07 1071.87C2120.07 1075.78 2116.9 1078.95 2112.99 1078.95Z" fill="#CBC8C7"/>
<path d="M2067.57 629.558C2076.97 660.323 2077.89 692.92 2081.14 724.774C2083.52 748.226 2086.23 771.661 2088.28 795.144C2088.37 796.166 2089.98 796.176 2089.89 795.144C2087.74 770.564 2084.9 746.035 2082.41 721.488C2079.25 690.495 2078.28 659.101 2069.12 629.131C2068.82 628.147 2067.27 628.565 2067.57 629.558Z" fill="#372723"/>
<path d="M2181.61 769.187C2181.39 770.078 2181.57 770.812 2182.3 771.4C2182.56 771.612 2182.97 771.744 2183.28 771.525C2184.4 770.734 2184.25 768.937 2182.79 768.618C2182.41 768.535 2182.11 768.686 2181.89 768.988C2181.23 769.872 2181.55 771.056 2182.51 771.554C2182.81 771.709 2183.25 771.709 2183.48 771.429C2184.33 770.413 2184.34 769.242 2183.46 768.232C2183.2 768.679 2182.94 769.13 2182.68 769.577C2182.73 769.583 2182.77 769.589 2182.81 769.596C2183.82 769.49 2183.87 767.962 2182.81 767.988C2180.76 768.036 2179.94 771.001 2182.08 771.706C2184.21 772.407 2185.63 769.876 2184.35 768.229C2183.04 766.541 2180.2 767.554 2180.02 769.625C2179.84 771.68 2182.56 772.995 2184.1 771.651C2185.5 770.422 2184.81 767.834 2183.05 767.358C2181.01 766.811 2179.19 769.319 2180.22 771.12C2181.21 772.883 2184.1 772.67 2184.9 770.857C2185.79 768.856 2183.7 766.489 2181.61 767.206C2179.3 768.004 2179.32 771.532 2181.97 771.725C2184.33 771.895 2184.65 768.467 2182.51 767.869C2181.51 767.589 2181.09 769.142 2182.08 769.419C2181.84 770.596 2181.95 770.342 2182.41 768.663C2183.1 768.83 2183.47 769.245 2183.51 769.908C2183.32 771.667 2180.5 770.278 2181.88 769.171C2183 768.277 2183.92 770.239 2182.57 770.593C2181.75 770.545 2181.59 770.046 2182.1 769.104C2183.45 769.718 2183.69 769.882 2182.82 769.596C2182.82 769.059 2182.82 768.525 2182.82 767.988C2180.26 768.255 2179.77 772.005 2182.59 772.207C2185.27 772.4 2185.47 768.721 2183.11 768.026C2182.3 767.785 2181.83 768.792 2182.33 769.371C2182.34 769.68 2182.35 769.985 2182.35 770.294C2182.68 770.252 2183 770.21 2183.33 770.168C2183.31 770.046 2183.29 769.924 2183.28 769.802C2182.98 769.924 2182.67 770.049 2182.37 770.172C2182.4 770.162 2182.44 770.149 2182.47 770.139C2182.79 770.181 2183.12 770.223 2183.44 770.265C2183.35 770.049 2183.26 769.831 2183.17 769.615C2183.41 768.612 2181.86 768.181 2181.61 769.187Z" fill="#372723"/>
<path d="M2179.02 783.997C2178.8 784.888 2178.98 785.621 2179.71 786.21C2179.97 786.422 2180.38 786.554 2180.68 786.335C2181.81 785.544 2181.66 783.746 2180.2 783.428C2179.82 783.344 2179.52 783.495 2179.29 783.798C2178.64 784.682 2178.96 785.866 2179.92 786.364C2180.21 786.518 2180.66 786.518 2180.89 786.239C2181.74 785.222 2181.75 784.052 2180.87 783.042C2180.61 783.489 2180.35 783.939 2180.09 784.386C2180.13 784.393 2180.18 784.399 2180.22 784.406C2181.23 784.299 2181.28 782.772 2180.22 782.798C2178.17 782.846 2177.35 785.811 2179.49 786.515C2181.62 787.216 2183.04 784.685 2181.76 783.039C2180.45 781.35 2177.61 782.363 2177.43 784.434C2177.25 786.49 2179.97 787.805 2181.51 786.461C2182.91 785.232 2182.22 782.643 2180.46 782.167C2178.42 781.621 2176.6 784.129 2177.63 785.93C2178.62 787.692 2181.51 787.48 2182.31 785.666C2183.2 783.666 2181.11 781.299 2179.02 782.016C2176.71 782.814 2176.72 786.342 2179.38 786.535C2181.74 786.705 2182.06 783.277 2179.92 782.679C2178.92 782.399 2178.49 783.952 2179.49 784.229C2179.25 785.406 2179.36 785.152 2179.82 783.473C2180.51 783.64 2180.88 784.055 2180.92 784.718C2180.73 786.477 2177.91 785.087 2179.29 783.981C2180.41 783.087 2181.33 785.049 2179.98 785.403C2179.16 785.354 2179 784.856 2179.51 783.914C2180.86 784.528 2181.1 784.692 2180.22 784.406C2180.22 783.869 2180.22 783.335 2180.22 782.798C2177.67 783.065 2177.18 786.811 2180 787.017C2182.68 787.21 2182.88 783.531 2180.52 782.836C2179.71 782.595 2179.24 783.602 2179.74 784.18C2179.75 784.489 2179.75 784.795 2179.76 785.103C2180.09 785.062 2180.41 785.02 2180.74 784.978C2180.72 784.856 2180.7 784.734 2180.69 784.611C2180.38 784.734 2180.08 784.859 2179.78 784.981C2179.81 784.972 2179.84 784.959 2179.88 784.949C2180.2 784.991 2180.53 785.033 2180.85 785.074C2180.76 784.859 2180.67 784.64 2180.58 784.425C2180.82 783.421 2179.27 782.994 2179.02 783.997Z" fill="#372723"/>
<path d="M1912.85 583.891C1912.85 583.891 1899.23 584.287 1897.82 593.568L1907.66 595.614L1911.28 592.764C1911.28 592.764 1911.8 586.577 1912.85 583.891Z" fill="#553B8A"/>
<path d="M1997.17 581.466C1997.17 581.466 2001.35 590.346 2000.77 597.601L2011.43 588.59C2011.43 588.59 2008.93 581.386 1997.17 581.466Z" fill="#553B8A"/>
<path d="M1897.82 593.568C1897.82 593.568 1895.93 618.187 1931.48 663.68L1931.87 665.008C1931.87 665.008 1893.47 639.637 1889.67 594.054L1897.82 593.568Z" fill="#463374"/>
<path d="M2011.43 588.593C2011.43 588.593 2020.47 620.091 1997.17 656.193L1996.93 658.252C1996.93 658.252 2027.62 636.087 2022.05 590.423C2022.05 590.423 2016.94 589.075 2011.43 588.593Z" fill="#463374"/>
<path d="M2007.45 996.179C2006.21 988.213 1999.32 982.669 1992.05 983.798C1991.93 983.817 1991.82 983.868 1991.71 983.891C1991.65 987.509 1990.24 993.989 1981.22 994.992C1980.91 996.678 1980.84 998.45 1981.12 1000.27C1982.36 1008.23 1989.25 1013.78 1996.53 1012.65C2003.8 1011.52 2008.69 1004.15 2007.45 996.179Z" fill="#D9D9D9"/>
<path d="M1923.25 477.68C1923.25 477.68 1931.28 472.801 1931.87 465.565C1931.87 465.565 1953.5 481.481 1971.86 477.68C1990.22 473.878 1987.21 459.921 1987.21 459.921L1989.85 471.974C1989.85 471.974 2000.8 458.731 1994.37 447.475C1987.94 436.219 1972.8 431.395 1954.04 431.395C1935.28 431.395 1925.23 438.631 1925.23 438.631C1925.23 438.631 1902.26 441.284 1909.92 473.123C1909.92 473.123 1904.54 504.167 1915.54 517.288C1915.54 517.288 1916.52 506.035 1915.55 494.039C1915.54 494.043 1915.65 479.944 1923.25 477.68Z" fill="#191931"/>
<path d="M1927.33 440.339C1927.33 440.339 1923.89 437.525 1923.25 434.106C1923.25 434.106 1922.71 437.222 1923.91 440.339C1925.12 443.455 1927.33 440.339 1927.33 440.339Z" fill="#191931"/>
<path d="M1925.23 439.937C1925.23 439.937 1918.79 438.631 1917.28 434.106C1917.28 434.106 1916.88 439.589 1920.3 441.721C1923.71 443.857 1925.23 439.937 1925.23 439.937Z" fill="#191931"/>
<path d="M1981.5 542.559C1981.5 542.559 1949.34 551.493 1934.33 530.39C1934.33 530.39 1944.28 564.155 1965.02 562.048C1982.17 560.305 1982.75 545.656 1982.75 545.656L1981.5 542.559Z" fill="#CF9B89"/>
<path d="M1589.38 960.408C1589.38 960.408 1627.23 979.964 1685.17 977.935L1686.59 966.689C1686.59 966.689 1648.85 971.509 1589.97 955.603L1589.38 960.408Z" fill="#CF9B89"/>
<path d="M1696.19 872.762C1691.19 922.957 1685.43 973.072 1678.22 1023C1678.08 1024.01 1679.62 1024.45 1679.77 1023.43C1687 973.358 1692.78 923.099 1697.8 872.762C1697.9 871.733 1696.29 871.739 1696.19 872.762Z" fill="#372723"/>
<path d="M1927.33 471.974C1927.33 471.974 1928.03 504.292 1934.33 513.67C1940.63 523.051 1979.99 533.513 1994.35 512.602C1994.35 512.602 1998.65 526.666 1990.9 538.536C1984.76 547.949 1964.93 549.178 1958.54 547.367C1952.15 545.556 1934.79 541.337 1929.24 519.024C1923.69 496.712 1922.96 474.804 1922.96 474.804L1927.33 471.974Z" fill="#191931"/>
<path d="M1930.57 517.825C1930.57 517.825 1930.45 523.72 1929.37 526.132C1929.37 526.132 1931.27 523.72 1931.87 521.977C1932.46 520.237 1930.57 517.825 1930.57 517.825Z" fill="#191931"/>
<path d="M1929.38 515.747C1929.38 515.747 1929.31 520.436 1928.64 521.98C1928.64 521.98 1930.42 519.234 1930.57 517.825C1930.72 516.416 1929.38 515.747 1929.38 515.747Z" fill="#191931"/>
<path d="M1954.79 501.073C1948.34 501.073 1943.09 495.827 1943.09 489.379C1943.09 482.931 1948.34 477.686 1954.79 477.686C1961.24 477.686 1966.48 482.931 1966.48 489.379C1966.48 495.827 1961.24 501.073 1954.79 501.073ZM1954.79 480.095C1949.67 480.095 1945.51 484.26 1945.51 489.376C1945.51 494.493 1949.67 498.658 1954.79 498.658C1959.91 498.658 1964.07 494.493 1964.07 489.376C1964.07 484.26 1959.91 480.095 1954.79 480.095Z" fill="#191931"/>
<path d="M1983.3 498.175C1977.13 498.175 1972.11 493.152 1972.11 486.98C1972.11 480.809 1977.14 475.785 1983.3 475.785C1989.48 475.785 1994.5 480.809 1994.5 486.98C1994.5 493.152 1989.48 498.175 1983.3 498.175ZM1983.3 478.197C1978.46 478.197 1974.52 482.137 1974.52 486.98C1974.52 491.824 1978.46 495.763 1983.3 495.763C1988.14 495.763 1992.09 491.824 1992.09 486.98C1992.09 482.137 1988.14 478.197 1983.3 478.197Z" fill="#191931"/>
<path d="M1965.37 487.53L1963.87 485.642C1965.51 484.327 1969.74 482.552 1973.99 485.24L1972.69 487.279C1968.87 484.851 1965.51 487.418 1965.37 487.53Z" fill="#191931"/>
<path d="M1943.66 488.003C1943.49 487.897 1926.77 477.477 1919.16 475.512L1919.76 473.174C1927.74 475.232 1944.24 485.52 1944.94 485.958L1943.66 488.003Z" fill="#191931"/>
<path d="M1923.25 477.68C1923.25 477.68 1917.96 468.903 1909.92 473.123C1900.49 478.069 1903.95 496.172 1923.25 494.564V477.68Z" fill="#EABFAD"/>
<path d="M2283.71 1233.38C2283.71 1233.38 2281.52 1221.19 2285.81 1214.76C2285.81 1214.76 2289.01 1227.04 2324.39 1217.95C2324.39 1217.95 2307.64 1227.86 2283.71 1233.38Z" fill="#1E162E"/>
<path d="M1773.21 640.453C1774.07 640.302 1774.6 639.249 1774.4 638.102C1774.19 636.954 1773.34 636.147 1772.48 636.298C1771.62 636.45 1771.09 637.503 1771.29 638.65C1771.5 639.797 1772.36 640.605 1773.21 640.453Z" fill="#191931"/>
<path d="M1804.94 633.613C1805.8 633.461 1806.33 632.408 1806.12 631.261C1805.92 630.114 1805.06 629.306 1804.21 629.458C1803.35 629.609 1802.82 630.662 1803.02 631.81C1803.22 632.957 1804.08 633.764 1804.94 633.613Z" fill="#191931"/>
<path d="M1791.99 636.315C1791.99 636.315 1795.27 645.05 1799.48 647.546C1803.69 650.041 1799.17 653.627 1795.74 654.096C1792.31 654.563 1789.81 636.158 1791.99 636.315Z" fill="#DA8A7B"/>
<path d="M2243.09 614.672C2243.13 613.508 2242.46 612.54 2241.59 612.51C2240.72 612.481 2239.98 613.401 2239.94 614.566C2239.9 615.73 2240.58 616.698 2241.45 616.727C2242.32 616.757 2243.05 615.836 2243.09 614.672Z" fill="#191931"/>
<path d="M2210.71 612.363C2210.75 611.199 2210.08 610.231 2209.21 610.202C2208.34 610.172 2207.6 611.092 2207.56 612.257C2207.52 613.421 2208.2 614.389 2209.06 614.418C2209.93 614.448 2210.67 613.528 2210.71 612.363Z" fill="#191931"/>
<path d="M2222.26 615.189C2222.26 615.189 2220.25 624.297 2216.43 627.362C2212.61 630.424 2217.59 633.34 2221.06 633.321C2224.52 633.302 2224.4 614.726 2222.26 615.189Z" fill="#DA8A7B"/>
<path d="M1957.73 493.291C1958.6 493.261 1959.27 492.294 1959.23 491.129C1959.2 489.965 1958.46 489.044 1957.59 489.074C1956.72 489.103 1956.05 490.071 1956.09 491.235C1956.12 492.4 1956.86 493.32 1957.73 493.291Z" fill="#191931"/>
<path d="M1984.38 492.183C1985.25 492.154 1985.92 491.186 1985.88 490.022C1985.85 488.857 1985.11 487.937 1984.24 487.967C1983.37 487.996 1982.7 488.964 1982.73 490.128C1982.77 491.293 1983.51 492.213 1984.38 492.183Z" fill="#191931"/>
<path d="M1792.5 669.726C1792.04 669.726 1791.57 669.694 1791.07 669.627C1783.29 668.568 1783.2 660.763 1783.2 660.686V658.522L1784.61 660.162C1784.82 660.406 1789.93 666.153 1799.98 663.262L1801.65 662.783L1800.93 664.368C1800.91 664.423 1798.43 669.726 1792.5 669.726ZM1785.13 662.751C1785.69 664.725 1787.2 667.478 1791.28 668.035C1794.93 668.53 1797.23 666.729 1798.42 665.291C1791.83 666.584 1787.39 664.397 1785.13 662.751Z" fill="#191931"/>
<path d="M2217.66 650.421C2215.38 650.421 2213.81 650.067 2213.76 650.054L2214.13 648.491C2214.6 648.6 2225.69 651.064 2230.89 641.528L2232.3 642.297C2228.53 649.199 2221.89 650.421 2217.66 650.421Z" fill="#191931"/>
<path d="M1965.51 503.044C1965.51 503.044 1967.13 500.343 1970.98 499.934C1974.82 499.526 1976.56 501.951 1976.56 501.951C1976.56 501.951 1975.45 503.62 1972.06 504.205C1968.67 504.787 1965.51 503.044 1965.51 503.044Z" fill="#DA8A7B"/>
<path d="M1967.23 521.61C1966.22 521.61 1965.13 521.443 1963.94 521.041C1960.11 519.732 1958.27 517.507 1957.99 513.831L1957.85 512.071L1959.27 513.123C1959.34 513.175 1966.39 518.343 1973.99 516.397L1976.04 515.873L1974.85 517.626C1974.82 517.677 1972.09 521.61 1967.23 521.61ZM1959.89 515.432C1960.49 517.41 1961.9 518.645 1964.46 519.517C1967.83 520.668 1970.35 519.536 1971.86 518.388C1966.71 518.848 1962.18 516.757 1959.89 515.432Z" fill="#191931"/>
<path d="M1921.25 494.657C1921.25 494.657 1920.96 501.948 1915.95 502.954L1915.54 494.046C1915.54 494.046 1918.63 494.901 1921.25 494.657Z" fill="#CF9B89"/>
<path d="M2277.87 616.743C2277.87 616.743 2278.03 628.294 2284.06 631.411V616.54C2284.06 616.54 2280.71 617.154 2277.87 616.743Z" fill="#CF9B89"/>
<path d="M1867.22 1077.74C1885.32 1083.41 1906.38 1076.36 1922.32 1088.63C1923.14 1089.26 1923.94 1087.86 1923.13 1087.24C1907 1074.82 1885.9 1081.91 1867.64 1076.19C1866.66 1075.88 1866.23 1077.43 1867.22 1077.74Z" fill="#372723"/>
<path d="M1871.48 1079.07C1889.09 1079.7 1908.16 1073.67 1921.75 1088.09C1922.46 1088.84 1923.59 1087.7 1922.89 1086.95C1908.87 1072.07 1889.79 1078.12 1871.48 1077.46C1870.45 1077.43 1870.45 1079.04 1871.48 1079.07Z" fill="#372723"/>
<path d="M2146.91 1089.14H1910.55C1908.43 1089.14 1906.72 1087.43 1906.72 1085.31V1082.79C1906.72 1080.67 1908.43 1078.96 1910.55 1078.96H2146.91C2149.03 1078.96 2150.74 1080.67 2150.74 1082.79V1085.31C2150.74 1087.43 2149.03 1089.14 2146.91 1089.14Z" fill="#CBC8C7"/>
<path d="M1899.63 1071.87C1899.63 1075.78 1902.8 1078.96 1906.71 1078.96H2112.99C2116.9 1078.96 2120.07 1075.78 2120.07 1071.87L2117.57 1049.09L1888.67 971.918L1899.63 1071.87Z" fill="#D9D9D9"/>
<path d="M1981.94 1003.36C1984.26 1009.61 1990.25 1013.62 1996.53 1012.65C1998.64 1012.32 2000.52 1011.41 2002.14 1010.17L1981.94 1003.36Z" fill="#CBC8C7"/>
<path d="M2150.74 1085.31V1082.79C2150.74 1080.67 2149.03 1078.96 2146.91 1078.96H1910.55C1908.43 1078.96 1906.72 1080.67 1906.72 1082.79V1082.94H2125.32C2128.84 1083.04 2128.53 1085.95 2128.53 1085.95V1088.77L2128.71 1089.15H2146.91C2149.03 1089.14 2150.74 1087.43 2150.74 1085.31Z" fill="#8E8A87"/>
<path d="M1910.55 1079.76C1978.03 1079.76 2045.51 1079.76 2112.98 1079.76C2114.02 1079.76 2114.02 1078.15 2112.98 1078.15C2045.51 1078.15 1978.03 1078.15 1910.55 1078.15C1909.52 1078.15 1909.51 1079.76 1910.55 1079.76Z" fill="#372723"/>
<path d="M2199.92 873.186L2189.81 878.75C2189.81 878.75 2188.87 879.647 2187.14 877.763C2185.41 875.878 2179.15 872.257 2178.59 864.67C2178.2 859.393 2182.95 855.762 2185.77 853.955C2185.77 853.955 2184.7 849.037 2190.28 849.385C2190.28 849.385 2188.47 846.304 2188.4 845.255C2188.4 845.255 2187.81 844.734 2186.67 844.558C2185.54 844.381 2176.57 843.303 2174.84 840.087C2173.1 836.871 2178.63 838.823 2182.9 838.778C2187.17 838.733 2190.79 837.688 2190.79 837.688C2190.79 837.688 2203.95 846.896 2204.59 847.172C2205.22 847.449 2210.94 849.14 2212.07 853.382C2213.2 857.624 2211.19 861.995 2211.19 861.995C2211.19 861.995 2210.99 866.719 2210.54 867.32C2210.09 867.922 2199.92 873.186 2199.92 873.186Z" fill="#EABFAD"/>
<path d="M2188.57 880.577C2196.26 875.939 2204.4 872.112 2212.09 867.475C2212.98 866.941 2212.17 865.552 2211.28 866.086C2203.59 870.723 2195.45 874.55 2187.76 879.188C2186.87 879.721 2187.68 881.114 2188.57 880.577Z" fill="#372723"/>
<path d="M2211.78 866.996C2214.32 851.977 2202.35 843.815 2190.69 837.135C2189.79 836.621 2188.98 838.01 2189.88 838.524C2200.68 844.709 2212.63 852.366 2210.23 866.568C2210.06 867.578 2211.61 868.015 2211.78 866.996Z" fill="#372723"/>
<path d="M2190.07 837.055C2187.37 837.704 2184.63 838.052 2181.86 838.164C2179.61 838.254 2177.25 837.859 2175.03 838.077C2174.77 838.103 2174.46 838.206 2174.34 838.476C2173.43 840.515 2176.08 842.232 2177.64 843.059C2180.84 844.757 2184.52 845.072 2188.02 845.764C2189.03 845.963 2189.46 844.413 2188.45 844.214C2186.03 843.734 2183.58 843.471 2181.21 842.744C2180.13 842.413 2179.03 842.033 2178.05 841.464C2177.34 841.065 2176.71 840.563 2176.17 839.959C2175.08 839.618 2175.13 839.538 2176.34 839.721C2178.64 839.496 2181.07 839.859 2183.4 839.695C2185.79 839.525 2188.16 839.171 2190.5 838.608C2191.5 838.364 2191.08 836.814 2190.07 837.055Z" fill="#372723"/>
<path d="M2187.46 845.201C2188.28 847.23 2189.38 849.038 2190.83 850.687C2191.51 851.469 2192.64 850.327 2191.97 849.549C2190.71 848.118 2189.73 846.532 2189.01 844.773C2188.62 843.828 2187.07 844.242 2187.46 845.201Z" fill="#372723"/>
<path d="M2191.85 849.366C2188.54 847.381 2184.52 849.649 2184.56 853.524C2184.57 854.559 2186.18 854.559 2186.17 853.524C2186.14 850.874 2188.76 849.385 2191.04 850.752C2191.93 851.286 2192.74 849.896 2191.85 849.366Z" fill="#372723"/>
<path d="M2203.46 847.703C2206.49 848.976 2210.01 850.446 2211.24 853.768C2212.2 856.364 2211.44 859.84 2210.62 862.426C2210.31 863.416 2211.86 863.838 2212.17 862.853C2213.14 859.785 2213.99 855.601 2212.52 852.588C2210.83 849.134 2207.24 847.561 2203.89 846.153C2202.94 845.754 2202.52 847.307 2203.46 847.703Z" fill="#372723"/>
<path d="M1932.4 698.095C1932.4 698.095 1931.45 681.609 1929 677.885C1929 677.885 1933.12 680.76 1934.23 682.317C1934.23 682.317 1935.19 682.947 1935.34 680.928C1935.48 678.905 1935.58 659.162 1935.09 656.412C1935.09 656.412 1940.02 661.297 1941.63 674.094L1942.34 674.557C1942.34 674.557 1946.11 671.842 1948.67 676.756C1948.67 676.756 1953.24 673.952 1955.89 677.509C1955.89 677.509 1959.9 675.65 1962.7 677.998C1965.49 680.345 1965.4 683.057 1965.4 683.057C1965.4 683.057 1971.61 692.791 1957.81 703.977L1932.4 698.095Z" fill="#EABFAD"/>
<path d="M1924.86 697.693C1937.21 699.786 1949.23 703.398 1961.57 705.488C1962.58 705.659 1963.02 704.112 1962 703.938C1949.65 701.844 1937.63 698.233 1925.29 696.142C1924.27 695.972 1923.84 697.522 1924.86 697.693Z" fill="#372723"/>
<path d="M1933.18 697.924C1931.48 691.116 1933.16 683.893 1929.7 677.522C1929.33 677.888 1928.96 678.255 1928.6 678.622C1930.72 680.085 1932.57 681.719 1934.28 683.626C1934.98 684.398 1936.11 683.256 1935.42 682.487C1933.6 680.464 1931.65 678.77 1929.41 677.229C1928.71 676.75 1927.95 677.667 1928.31 678.329C1931.66 684.494 1929.98 691.737 1931.63 698.349C1931.88 699.355 1933.43 698.931 1933.18 697.924Z" fill="#372723"/>
<path d="M1935.98 682.635C1936.81 673.717 1936.27 664.803 1935.87 655.878C1935.41 656.068 1934.95 656.258 1934.5 656.447C1938.82 661.509 1939.75 669.057 1941.08 675.383C1941.29 676.396 1942.84 675.969 1942.63 674.955C1941.22 668.237 1940.23 660.693 1935.63 655.312C1935.18 654.785 1934.23 655.209 1934.26 655.881C1934.66 664.806 1935.2 673.721 1934.37 682.638C1934.28 683.668 1935.89 683.661 1935.98 682.635Z" fill="#372723"/>
<path d="M1942.58 675.547C1944.59 673.225 1947.21 675.393 1948.11 677.525C1948.52 678.474 1949.9 677.657 1949.5 676.715C1948.18 673.605 1944.1 671.341 1941.44 674.409C1940.76 675.19 1941.9 676.332 1942.58 675.547Z" fill="#372723"/>
<path d="M1949.25 677.734C1951.13 675.727 1954.09 676.046 1955.44 678.445C1955.95 679.345 1957.34 678.535 1956.83 677.634C1954.98 674.351 1950.69 673.846 1948.11 676.596C1947.4 677.351 1948.53 678.49 1949.25 677.734Z" fill="#372723"/>
<path d="M1775.68 1530.2C1775.68 1530.2 1791.96 1597.25 1828.06 1599.61C1855.71 1601.41 1844.94 1547.16 1832.55 1530.2H1775.68Z" fill="#191931"/>
<path d="M1912.36 1526.44C1912.36 1526.44 1909.94 1550.96 1931.25 1559.41C1952.56 1567.85 2012.86 1573.88 2024.51 1571.87C2036.17 1569.86 2040.59 1545.34 1977.48 1526.44H1912.36Z" fill="#191931"/>
<path d="M2094.46 1515.19C2094.46 1515.19 2063.51 1538.9 2053.86 1557.8C2044.21 1576.69 2078.79 1569.86 2102.91 1555.39C2127.03 1540.91 2155.61 1529.26 2153.98 1515.19H2094.46Z" fill="#191931"/>
<path d="M2257.66 1526.44C2257.66 1526.44 2246.79 1598.29 2276.7 1605.77C2306.98 1613.35 2307.12 1530.86 2306.31 1526.44H2257.66Z" fill="#191931"/>
<path d="M1489.74 1361.55C1489.74 1361.55 1491.53 1292.31 1484.74 1225.14C1484.71 1225.24 1460.72 1303.94 1487.09 1384.2C1489.16 1386.65 1491.25 1389.06 1493.37 1391.42L1489.74 1361.55Z" fill="#4C4936"/>
<path d="M1559.39 1242.07C1518.43 1266.45 1508.91 1362.16 1506.71 1403.63C1557.22 1318.45 1559.36 1243.18 1559.39 1242.07Z" fill="#4C4936"/>
<path d="M1512.37 1282.56L1545.74 1266.31C1548.27 1246.5 1549.61 1227.41 1549.76 1210.3L1519.87 1217.71L1549.75 1202.9C1549.15 1151.68 1537.2 1121.33 1514.49 1149.63C1510.37 1154.76 1506.81 1160.76 1503.72 1167.42L1519.87 1186.08L1500.96 1173.84C1495.68 1187.16 1492.05 1202.69 1489.65 1219.2L1509.15 1242.07L1488.88 1224.83C1479.34 1299.61 1493.35 1391.35 1493.36 1391.42C1497.49 1396.02 1501.73 1400.47 1506.03 1404.77C1525.08 1368.92 1537.78 1321.23 1544.39 1276.13L1512.37 1282.56Z" fill="#679C93"/>
<path d="M1559.83 1367.98L1545.24 1364.95C1539.26 1371.96 1530.78 1385.41 1528.46 1406.64C1540.03 1395.95 1550.63 1382.56 1559.83 1367.98Z" fill="#4C4936"/>
<path d="M1551.36 1358.94C1551.36 1358.94 1550.19 1359.82 1548.42 1361.55L1564.28 1360.65C1564.71 1359.92 1565.11 1359.18 1565.53 1358.44L1551.36 1358.94Z" fill="#4C4936"/>
<path d="M1715.77 1517.4C1734.93 1500.88 1747.87 1477.99 1750.53 1451.73C1751.5 1442.17 1751.02 1432.79 1749.31 1423.73L1636.74 1440.18L1532.11 1407.72C1530.25 1413.22 1528.89 1418.95 1528.03 1424.85C1584.89 1472.38 1652.79 1498.42 1715.77 1517.4Z" fill="#679C93"/>
<path d="M1533.71 1403.31L1636.74 1440.18L1543.39 1384.73C1539.54 1390.54 1536.28 1396.75 1533.71 1403.31Z" fill="#679C93"/>
<path d="M1551.25 1374.4L1636.74 1440.18L1637.15 1336.08C1602.79 1336.1 1571.61 1350.82 1551.25 1374.4Z" fill="#679C93"/>
<path d="M1656.34 1337.59L1636.74 1440.18L1726.87 1376.93C1709.89 1356.7 1685.14 1342.16 1656.34 1337.59Z" fill="#679C93"/>
<path d="M1733.26 1385.35L1636.74 1440.18L1745.09 1408.34C1742.14 1400.22 1738.16 1392.51 1733.26 1385.35Z" fill="#679C93"/>
<path d="M2519.23 1563.89C2585.34 1563.89 2638.93 1555.69 2638.93 1545.57C2638.93 1535.45 2585.34 1527.25 2519.23 1527.25C2453.12 1527.25 2399.53 1535.45 2399.53 1545.57C2399.53 1555.69 2453.12 1563.89 2519.23 1563.89Z" fill="#1E162E"/>
<path d="M2559.23 1348.23C2559.23 1348.23 2562.59 1243.83 2683.84 1207.82C2683.84 1207.82 2667 1310.79 2588.69 1348.23H2559.23Z" fill="#EAAC29"/>
<path d="M2651.37 1220.31C2562 1263.4 2559.23 1348.23 2559.23 1348.23H2572.27C2635.29 1301.44 2651.24 1220.97 2651.37 1220.31Z" fill="#A2222B"/>
<path d="M2551.65 1348.23C2551.65 1348.23 2549.12 1181.83 2667.84 1105.25C2667.84 1105.25 2656.88 1258.59 2572.27 1348.23H2551.65Z" fill="#EAAC29"/>
<path d="M2575.86 1223.37C2550.75 1288.02 2551.65 1348.23 2551.65 1348.23H2559.23C2585.28 1299.52 2575.9 1223.66 2575.86 1223.37Z" fill="#A2222B"/>
<path d="M2536.95 1348.23C2536.95 1348.23 2488.5 1101.37 2519.66 960.199C2519.66 960.199 2603.85 1144.92 2559.23 1348.23H2536.95Z" fill="#EAAC29"/>
<path d="M2530.58 1311.93C2559.15 1151.89 2509.47 1061.45 2509.36 1061.23C2507.65 1155.24 2521.91 1258.6 2530.58 1311.93Z" fill="#A2222B"/>
<path d="M2514.6 1348.23C2514.6 1348.23 2508.71 1152.45 2456.5 1094.35C2456.5 1094.35 2430.4 1245.11 2496.08 1348.23H2514.6Z" fill="#EAAC29"/>
<path d="M2482.32 1142.31C2482.28 1142.8 2470.46 1294.04 2506.18 1348.23L2514.13 1337.41C2512.49 1305.19 2505.78 1208.06 2482.32 1142.31Z" fill="#A2222B"/>
<path d="M2458.1 1245.31C2464.37 1280.28 2475.88 1316.51 2496.08 1348.23H2514.6C2507.88 1283.08 2458.22 1245.4 2458.1 1245.31Z" fill="#A2222B"/>
<path d="M2490.53 1533.41H2583.72C2660.93 1486.44 2644.18 1366.96 2644.18 1366.96L2537.13 1359.36L2430.07 1366.96C2430.07 1366.96 2413.32 1486.44 2490.53 1533.41Z" fill="#BAB0D0"/>
<path d="M2655.04 1370.48H2419.21C2416.44 1370.48 2414.2 1368.23 2414.2 1365.47V1353.24C2414.2 1350.47 2416.44 1348.23 2419.21 1348.23H2655.04C2657.81 1348.23 2660.05 1350.48 2660.05 1353.24V1365.47C2660.05 1368.24 2657.81 1370.48 2655.04 1370.48Z" fill="#7763A1"/>
<path d="M2645.27 1379.16C2645.27 1379.16 2523.58 1378.62 2429.17 1412.87C2429.17 1412.87 2427.66 1381.41 2429.67 1370.48H2644.58C2644.58 1370.48 2645.11 1376.25 2645.27 1379.16Z" fill="#1E162E"/>
<path d="M2506.18 1348.23C2506.18 1348.23 2459.87 1176.87 2506.18 1067.41C2506.18 1067.41 2544.91 1194.6 2523.02 1348.23H2506.18Z" fill="#EAAC29"/>
<path d="M2506.18 1348.23C2506.18 1348.23 2471.66 1230.36 2379.04 1207.82C2379.04 1207.82 2400.09 1305.74 2472.5 1348.23H2506.18Z" fill="#EAAC29"/>
<path d="M2567.11 1142.36C2565.96 1133.09 2564.66 1124.06 2563.24 1115.3L2545.12 1128.03L2528.19 1296.76C2533.06 1328.39 2536.95 1348.23 2536.95 1348.23C2570.28 1285.98 2567.16 1144.38 2567.11 1142.36Z" fill="#A2222B"/>
<path d="M2514.6 1348.23H2523.02L2526.33 1180.66C2526.33 1180.66 2510.2 1240.86 2514.6 1348.23Z" fill="#A2222B"/>
<path d="M2519.23 1348.23C2519.23 1348.23 2517.97 1090.98 2564.28 980.688C2564.28 980.688 2574.1 1224.35 2542.67 1348.23H2519.23Z" fill="#EAAC29"/>
<path d="M2379.04 1207.82C2379.04 1207.82 2386.83 1243.91 2409.13 1281.78C2407.5 1227.88 2379.04 1207.82 2379.04 1207.82Z" fill="#A2222B"/>
<path d="M2546.55 1038.63C2546.55 1038.63 2528.51 1069.07 2533.77 1111.39C2533.77 1111.39 2541.54 1058.69 2546.55 1038.63Z" fill="#A2222B"/>
<path d="M2613.96 1370.48C2613.96 1370.48 2615.45 1478.38 2564.59 1533.41H2559.23C2559.23 1533.41 2608.98 1471.98 2605.3 1370.48H2613.96Z" fill="#1E162E"/>
<path d="M2539.44 1533.41C2539.44 1533.41 2552.56 1432.04 2551.65 1370.48H2559.23C2559.23 1370.48 2555.27 1476.77 2542.13 1533.41H2539.44Z" fill="#1E162E"/>
<path d="M2479.16 1088.83H1526.45V1100.48H2479.16V1088.83Z" fill="#BAB0D0"/>
<path d="M1556.29 1101.28C1657.05 1101.28 1757.8 1101.28 1858.57 1101.28C2015.75 1101.28 2172.93 1101.28 2330.11 1101.28C2367.74 1101.28 2405.37 1101.28 2443 1101.28C2444.03 1101.28 2444.03 1099.67 2443 1099.67C2342.24 1099.67 2241.48 1099.67 2140.72 1099.67C1983.54 1099.67 1826.36 1099.67 1669.18 1099.67C1631.55 1099.67 1593.92 1099.67 1556.29 1099.67C1555.25 1099.67 1555.25 1101.28 1556.29 1101.28Z" fill="#372723"/>
<path d="M2144.96 1087.43C2145.8 1087.43 2146.49 1086.75 2146.49 1085.91C2146.49 1085.07 2145.8 1084.38 2144.96 1084.38C2144.12 1084.38 2143.44 1085.07 2143.44 1085.91C2143.44 1086.75 2144.12 1087.43 2144.96 1087.43Z" fill="#1E162E"/>
<path d="M2140.07 1087.43C2140.91 1087.43 2141.59 1086.75 2141.59 1085.91C2141.59 1085.07 2140.91 1084.38 2140.07 1084.38C2139.23 1084.38 2138.55 1085.07 2138.55 1085.91C2138.55 1086.75 2139.23 1087.43 2140.07 1087.43Z" fill="#1E162E"/>
<path d="M1827.71 1135.22C1847.83 1149.75 1866.07 1167.67 1874.98 1191.35C1884.14 1215.7 1882.36 1242.75 1877.67 1267.87C1873.08 1292.45 1865.65 1316.15 1862.23 1341C1859.84 1358.4 1857.9 1375.92 1856.21 1393.4C1851.82 1438.89 1849.22 1484.6 1846.03 1530.19C1845.96 1531.22 1847.56 1531.22 1847.64 1530.19C1850.94 1483.02 1853.39 1435.64 1858.31 1388.61C1861.29 1360.1 1863.92 1331.28 1870.92 1303.42C1877.06 1278.97 1883.3 1254.6 1883.09 1229.19C1882.73 1188 1861.06 1157.33 1828.52 1133.82C1827.68 1133.22 1826.88 1134.62 1827.71 1135.22Z" fill="#372723"/>
<path d="M2172 1134.76C2147.1 1166.9 2128.61 1205.08 2139.66 1246.35C2139.93 1247.35 2141.48 1246.92 2141.21 1245.92C2130.31 1205.24 2148.64 1167.52 2173.13 1135.9C2173.76 1135.09 2172.63 1133.95 2172 1134.76Z" fill="#372723"/>
<path d="M2139.66 1246.35C2168 1340.08 2197.47 1433.6 2227.96 1526.66C2228.28 1527.64 2229.83 1527.22 2229.51 1526.23C2199.02 1433.18 2169.55 1339.65 2141.21 1245.92C2140.91 1244.93 2139.36 1245.35 2139.66 1246.35Z" fill="#372723"/>
<path d="M1658.25 744.955C1658.25 744.955 1659.36 754.558 1669.28 752.728C1677.99 751.12 1675.85 735.175 1689.11 732.493C1702.38 729.814 1669.95 730.618 1669.95 730.618L1661.51 737.587L1658.25 744.955Z" fill="#191931"/>
<path d="M1727.01 1506.1C1633.43 1493.98 1528.03 1424.85 1528.03 1424.85C1584.89 1472.38 1652.78 1498.42 1715.78 1517.4C1719.82 1513.91 1723.56 1510.13 1727.01 1506.1Z" fill="#4C4936"/>
<path d="M2571.81 513.824H2132.54C2131.41 514.895 2130.29 515.963 2129.16 517.04H2571.81V513.824H2571.81Z" fill="#CBC8C7"/>
<path d="M2176.29 472.245H2570.09C2569.32 471.167 2568.55 470.083 2567.77 469.029H2179.74C2178.59 470.09 2177.44 471.164 2176.29 472.245Z" fill="#CBC8C7"/>
<path d="M2566.15 532.557H2143.36V514.139H2566.15V532.557ZM2146.58 529.341H2562.93V517.355H2146.58V529.341Z" fill="#CBC8C7"/>
</svg>
