<svg width="692" height="633" viewBox="0 0 692 633" fill="none" xmlns="http://www.w3.org/2000/svg">
<g filter="url(#filter0_d_248_41)">
<path d="M400.13 223.753L398.442 225.597L400.286 227.285L487.814 307.39C491.63 310.883 494.475 313.696 496.417 316.216C498.346 318.718 499.234 320.743 499.396 322.657C499.557 324.555 499.035 326.711 497.409 329.537C495.767 332.39 493.102 335.75 489.223 339.988L342.83 499.946C338.951 504.184 335.84 507.135 333.143 509.022C330.473 510.892 328.371 511.603 326.466 511.61C324.545 511.618 322.45 510.912 319.787 509.212C317.105 507.5 314.051 504.915 310.235 501.422L56.7547 269.437L54.9105 267.749L53.2226 269.593L9.85882 316.975L8.17098 318.819L10.0152 320.507L263.496 552.493C285.416 572.555 306.532 582.957 327.928 581.99C349.321 581.022 370.304 568.72 392.034 544.977L538.427 385.019C560.157 361.276 570.557 339.288 569.629 317.894C568.702 296.496 556.474 276.382 534.553 256.32L447.026 176.215L445.182 174.527L443.494 176.371L400.13 223.753ZM382.189 418.779L383.877 416.935L382.033 415.247L178.701 229.158L281.891 116.407C289.489 108.105 296.973 103.747 304.027 102.853C310.993 101.97 318.009 104.407 324.888 110.703L338.045 122.744C340.719 125.191 343.299 127.353 345.539 129.231C346.792 130.281 347.938 131.241 348.936 132.114C351.888 134.694 353.646 136.587 354.446 138.405C355.142 139.984 355.219 141.767 353.941 144.515C352.601 147.395 349.868 151.103 345.174 156.233L301.991 203.417L300.303 205.261L302.147 206.949L347.307 248.279L349.151 249.967L350.839 248.123L394.022 200.939C417.396 175.399 426.529 153.348 423.716 132.272C420.922 111.337 406.417 92.1262 384.459 72.03L371.657 60.3143C350.109 40.5928 326.444 31.2894 302.508 33.1235C278.601 34.9553 254.857 47.8642 233.043 71.7004L84.801 233.677L83.1132 235.522L84.9574 237.209L335.293 466.317L337.138 468.005L338.826 466.161L382.189 418.779ZM297.578 213.104L295.733 211.417L294.046 213.261L250.682 260.643L248.994 262.487L250.838 264.175L401.321 401.897L403.165 403.585L404.853 401.74L448.217 354.359L449.905 352.514L448.061 350.827L297.578 213.104ZM258.571 177.405L256.727 175.717L255.039 177.562L211.675 224.943L209.987 226.788L211.831 228.475L234.333 249.069L236.178 250.757L237.865 248.913L281.229 201.531L282.917 199.687L281.073 197.999L258.571 177.405Z" stroke="#388BF7" stroke-width="5"/>
<rect x="26" y="577" width="662" height="48" fill="#388BF7"/>
<path d="M409.382 336.227C389.947 308.588 361.296 314.803 344.977 322.748C326.019 331.979 296.686 377.471 247.522 390.172C198.359 402.874 157.411 448.166 173.59 498.128C188.288 543.516 231.944 548.601 256.899 556.583H409.382V336.227Z" fill="#EDEBEB"/>
<path d="M213.901 404.772H409.381V404.113H214.94C214.592 404.329 214.248 404.552 213.901 404.772Z" fill="#CBC8C7"/>
<path d="M317.311 376.175L317.642 376.176V345.864C317.423 346.072 317.203 346.28 316.983 346.488V375.514L281.167 375.361C280.815 375.581 280.462 375.798 280.108 376.016L317.311 376.175Z" fill="#CBC8C7"/>
<path d="M357.983 397.444C349.356 397.444 342.338 390.426 342.338 381.799C342.338 373.173 349.356 366.154 357.983 366.154C366.609 366.154 373.628 373.173 373.628 381.799C373.628 390.425 366.61 397.444 357.983 397.444ZM357.983 366.813C349.72 366.813 342.997 373.535 342.997 381.798C342.997 390.062 349.72 396.784 357.983 396.784C366.246 396.784 372.968 390.062 372.968 381.798C372.968 373.535 366.246 366.813 357.983 366.813Z" fill="#CBC8C7"/>
<path d="M409.276 396.896H317.226V397.556H409.276V396.896Z" fill="#CBC8C7"/>
<path d="M386.671 397.521H378.44V363.211H386.671V397.521ZM379.1 396.862H386.011V363.87H379.1V396.862Z" fill="#CBC8C7"/>
<path d="M395.624 397.521H387.394V363.211H395.624V397.521ZM388.052 396.862H394.964V363.87H388.052V396.862Z" fill="#CBC8C7"/>
<path d="M400.538 397.413L395.151 365.763L403.266 364.382L408.653 396.032L400.538 397.413ZM395.912 366.302L401.077 396.652L407.891 395.493L402.726 365.142L395.912 366.302Z" fill="#CBC8C7"/>
<path d="M196.423 518.236L202.825 517.871C204.76 514.56 206.343 511.031 207.466 507.686L201.822 506.807L207.938 506.204C208.865 503.108 209.366 500.235 209.352 497.916L204.052 498.127L209.325 497.081C209.13 494.095 207.94 492.239 205.518 492.394C204.93 492.431 204.373 492.544 203.833 492.696L204.711 494.919L203.043 492.963C193.491 496.752 191.441 518.345 191.004 527.033C191.739 527.761 192.484 528.472 193.241 529.159C196.493 526.783 199.448 523.283 201.913 519.373L196.423 518.236Z" fill="#679C93"/>
<path d="M187.544 518.055C187.544 518.055 187.91 503.899 186.524 490.144L181.401 497.819L186.215 487.335C185.581 482.046 184.66 476.972 183.332 472.954L178.338 476.369L182.186 469.992C180.726 466.803 178.876 464.747 176.532 464.533C173.998 464.301 172.537 466.195 171.88 469.443L175.701 470.765H171.665C171.241 474.122 171.493 478.582 172.203 483.512L179.437 486.309H172.644C173.406 490.749 174.484 495.457 175.735 500.017L181.401 502.522L176.207 501.704C177.217 505.238 178.32 508.649 179.448 511.735C182.047 516.425 185.026 520.543 188.288 524.181L187.544 518.055Z" fill="#679C93"/>
<path d="M309.745 441.288L299.841 547.766L280.739 548.55L275.499 442.047L309.745 441.288Z" fill="#7F7767"/>
<path d="M295.474 547.945C295.474 547.945 303.361 550.377 306.081 552.025C308.801 553.674 308.224 558.289 295.12 555.817C282.016 553.344 286.394 547.945 286.394 547.945H295.474Z" fill="#191931"/>
<path d="M227.854 493.892L212.923 551.694L214.199 552.024L229.13 494.222L227.854 493.892Z" fill="#191931"/>
<path d="M362.228 493.774L360.959 494.136L377.467 552.055L378.736 551.693L362.228 493.774Z" fill="#191931"/>
<path d="M212.325 444.623C212.325 444.623 206.332 443.836 203.041 451.095C200.424 456.867 198.049 495.983 241.124 495.653L242.388 489.39L212.325 444.623Z" fill="#6C93FB"/>
<path d="M241.347 494.549C236.899 493.681 220.43 492.355 211.808 479.995C203.282 467.771 207.972 449.148 207.972 449.148L210.86 444.659C208.874 444.907 205.313 446.082 203.041 451.095C200.44 456.831 198.086 495.486 240.326 495.648C240.698 495.25 241.039 494.883 241.347 494.549Z" fill="#4678E7"/>
<path d="M375.839 444.623C375.839 444.623 381.832 443.836 385.123 451.095C387.74 456.867 390.115 495.983 347.04 495.653L345.776 489.39L375.839 444.623Z" fill="#6C93FB"/>
<path d="M346.817 494.549C351.265 493.681 367.734 492.355 376.356 479.995C384.882 467.771 380.191 449.148 380.191 449.148L377.304 444.659C379.29 444.907 382.851 446.082 385.123 451.095C387.724 456.831 390.078 495.486 347.838 495.648C347.466 495.25 347.125 494.883 346.817 494.549Z" fill="#4678E7"/>
<path d="M275.916 360.329L266.233 360.908C266.233 360.908 255.642 360.57 253.732 372.954C251.822 385.339 247.911 431.98 247.911 431.98C247.911 431.98 247.021 441.299 253.616 441.802C260.212 442.306 307.948 441.287 307.948 441.287C307.948 441.287 315.029 441.503 313.826 432.844C312.894 426.131 307.233 371.549 307.233 371.549C307.233 371.549 305.816 359.405 292.113 359.47L275.916 360.329Z" fill="#679C93"/>
<path d="M275.467 366.731C275.467 366.731 278.107 369.285 284.319 368.845C290.531 368.405 293.752 362.92 293.773 360.83C293.778 360.362 293.74 359.927 293.684 359.525C293.177 359.491 292.658 359.467 292.112 359.469L275.916 360.329L270.534 360.65L275.467 366.731Z" fill="#7F7767"/>
<path d="M287.35 336.577C287.35 336.577 288.435 334.778 290.084 335.643C292.015 336.657 291.306 340.368 287.35 340.039V336.577Z" fill="#CF9B89"/>
<path d="M273.347 360.483C273.347 360.483 273.631 366.491 282.185 366.915C289.111 367.258 292.386 362.206 292.113 359.471L273.347 360.483Z" fill="#EABFAD"/>
<path d="M274.962 350.269C274.962 350.269 275.187 359.603 273.347 360.483L277.453 361.838L292.113 359.47L288.266 349.915L276.794 347.773L274.962 350.269Z" fill="#EABFAD"/>
<path d="M303.199 363.54C303.199 363.54 316.77 382.911 331.427 394.178L325.256 410.657C325.256 410.657 315.559 406.379 307.606 399.727L303.199 363.54Z" fill="#553B8A"/>
<path d="M307.605 399.727C309.914 401.658 312.368 403.387 314.691 404.871C312.363 395.686 312.541 376.64 308.292 370.297C306.912 368.236 305.691 366.932 305.691 366.932L303.391 365.118L307.605 399.727Z" fill="#463374"/>
<path d="M279.239 441.808C279.946 427.112 281.091 384.791 278.106 374.984C275.289 365.728 273.78 362.5 273.964 360.446L266.233 360.908C266.233 360.908 255.642 360.57 253.732 372.954C251.822 385.339 247.911 431.98 247.911 431.98C247.911 431.98 247.021 441.299 253.616 441.802C256.371 442.013 268.606 441.943 279.239 441.808Z" fill="#553B8A"/>
<path d="M263.134 431.108C257.865 434.424 248.934 433.36 244.941 425.812C239.357 432.22 237.51 438.446 250.424 439.117C277.895 440.546 280.054 404.442 280.054 404.442L280.056 402.873C275.384 416.428 268.038 428.022 263.134 431.108Z" fill="#463374"/>
<path d="M314.292 467.771C314.292 467.771 305.357 472.96 305.527 489.389C305.696 505.818 305.524 549.553 305.524 549.553H326.135L328.332 499.114L338.222 465.393L314.292 467.771Z" fill="#2B1E45"/>
<path d="M338.222 465.393L330.565 466.153L320.757 471.862C320.757 471.862 315.863 478.776 315.888 487.49C315.913 496.204 324.376 514.5 324.376 514.5L323.722 549.554H326.135L328.332 499.115L338.222 465.393Z" fill="#1E162E"/>
<path d="M255.36 367.701C255.36 367.701 243.94 397.863 242.951 414.947C241.962 432.031 255.954 435.626 263.134 431.109C270.312 426.591 282.729 403.845 284.319 383.398L276.607 381.593C276.607 381.593 272.743 394.614 261.632 409.779C261.632 409.779 270.625 367.93 255.36 367.701Z" fill="#553B8A"/>
<path d="M263.298 361.482C266.041 373.833 265.823 386.489 262.659 398.74C262.605 398.945 262.924 399.033 262.977 398.827C266.153 386.532 266.369 373.79 263.616 361.394C263.57 361.187 263.252 361.275 263.298 361.482Z" fill="#372723"/>
<path d="M262.417 408.479C266.998 399.472 272.353 390.889 276.934 381.882C277.031 381.693 276.746 381.526 276.649 381.715C272.069 390.722 266.714 399.305 262.133 408.313C262.037 408.502 262.321 408.669 262.417 408.479Z" fill="#372723"/>
<path d="M284.155 383.397C283.187 390.755 281.358 397.873 278.698 404.8C276.12 411.516 273.342 418.757 269.216 424.702C264.789 431.081 256.055 436.734 248.448 431.888C240.305 426.702 240.968 415.894 242.342 407.631C242.376 407.423 242.059 407.334 242.024 407.543C240.741 415.262 240.031 424.274 246.017 430.333C251.203 435.583 259.059 434.599 264.531 430.318C271.077 425.196 274.244 416.419 277.352 409.012C280.821 400.75 283.315 392.294 284.485 383.397C284.512 383.188 284.182 383.19 284.155 383.397Z" fill="#372723"/>
<path d="M271.467 464.533C271.467 464.533 288.126 471.094 290.152 495.041C291.271 508.271 290.642 551.861 290.642 551.861H269.433C269.433 551.861 269.068 505.873 263.838 495.489C258.609 485.105 234.327 464.533 234.327 464.533H271.467Z" fill="#5E5B42"/>
<path d="M266.838 508.087C269.874 502.78 273.543 489.406 271.852 482.795C270.093 475.925 264.61 471.878 264.61 471.878L264.075 464.532H237.081C237.83 465.894 238.71 467.483 239.685 469.231C247.147 475.926 260.172 488.208 263.839 495.488C265.101 497.996 266.079 502.579 266.838 508.087Z" fill="#4C4936"/>
<path d="M313.826 432.844C312.894 426.132 307.233 371.55 307.233 371.55C307.233 371.55 305.815 359.405 292.113 359.471C292.432 361.683 292.725 367.001 291.682 372.527C290.312 379.78 294.927 432.635 299.432 440.107C299.759 440.649 300.166 441.081 300.626 441.435C305.066 441.35 307.948 441.289 307.948 441.289C307.948 441.289 315.029 441.504 313.826 432.844Z" fill="#553B8A"/>
<path d="M221.876 462.145C204.903 462.145 206.363 449.941 206.363 449.941C206.363 449.941 208.63 428.185 211.583 409.318C214.537 390.451 229.028 389.009 229.028 389.009H242.249H259.247C259.247 389.009 272.469 389.009 273.224 404.451C273.882 417.906 275.869 451.523 275.869 451.523C275.869 451.523 277.002 462.145 268.314 462.145H221.876Z" fill="#EAAC29"/>
<path d="M368.225 462.145C386.218 462.145 384.67 449.208 384.67 449.208C384.67 449.208 382.268 426.144 379.136 406.143C376.004 386.142 360.643 384.615 360.643 384.615H346.628H328.607C328.607 384.615 314.591 384.614 313.79 400.984C313.093 415.248 310.987 450.885 310.987 450.885C310.987 450.885 309.786 462.145 318.996 462.145H368.225Z" fill="#7F7767"/>
<path d="M234.957 389.009C234.957 389.009 238.31 401.536 249.599 401.159C261.453 400.763 253.992 389.009 253.992 389.009H234.957Z" fill="#EABFAD"/>
<path d="M251.104 360.831H236.408V380.114H251.104V360.831Z" fill="#EABFAD"/>
<path d="M251.105 360.831C251.105 360.831 257.6 379.68 251.105 380.114C244.609 380.548 241.397 375.714 241.397 375.714L251.105 360.831Z" fill="#EABFAD"/>
<path d="M288.183 349.157L274.962 350.269L274.536 332.033H289.232L288.183 349.157Z" fill="#EABFAD"/>
<path d="M289.232 332.033C289.232 332.033 294.122 349.857 287.626 350.291C281.13 350.726 277.919 345.891 277.919 345.891L289.232 332.033Z" fill="#EABFAD"/>
<path d="M335.693 375.834L350.389 375.834L350.389 356.551L335.693 356.551L335.693 375.834Z" fill="#EABFAD"/>
<path d="M335.693 356.551C335.693 356.551 329.197 375.399 335.693 375.834C342.188 376.268 345.4 371.433 345.4 371.433L335.693 356.551Z" fill="#EABFAD"/>
<path d="M210.14 418.675C210.352 418.675 210.352 418.345 210.14 418.345C209.928 418.345 209.927 418.675 210.14 418.675Z" fill="#372723"/>
<path d="M241.797 498.291C242.009 498.291 242.009 497.962 241.797 497.962C241.585 497.962 241.585 498.291 241.797 498.291Z" fill="#372723"/>
<path d="M241.658 498.128C240.871 514.445 240.085 530.762 239.298 547.079C239.287 547.292 239.617 547.291 239.627 547.079C240.414 530.762 241.2 514.445 241.988 498.128C241.998 497.915 241.668 497.916 241.658 498.128Z" fill="#372723"/>
<path d="M243.941 467.914C255.165 474.599 263.378 485.294 266.94 497.863C266.998 498.067 267.316 497.981 267.258 497.776C263.674 485.127 255.402 474.357 244.108 467.629C243.925 467.52 243.759 467.805 243.941 467.914Z" fill="#372723"/>
<path d="M240.641 547.392C246.894 547.577 253.584 548.419 259.807 547.814C260.016 547.794 260.019 547.464 259.807 547.485C253.583 548.089 246.894 547.247 240.641 547.063C240.429 547.056 240.429 547.386 240.641 547.392Z" fill="#372723"/>
<path d="M263.412 458.616C259.558 457.208 226.345 448.693 226.345 448.693L227.923 435.945L208.274 433.351C207.097 442.896 206.363 449.941 206.363 449.941C206.363 449.941 204.903 462.145 221.876 462.145H265.762C266.046 461.207 266.112 459.603 263.412 458.616Z" fill="#EABFAD"/>
<path d="M276.74 432.383C276.74 432.383 278.27 454.117 277.547 457.414C276.824 460.71 272.008 462.59 265.762 462.145L232.979 462.209V460.381C232.979 460.381 245.327 451.401 262.311 450.822C262.311 450.822 265.657 437.283 265.897 433.898C265.897 433.898 270.146 432.942 276.74 432.383Z" fill="#EABFAD"/>
<path d="M273.378 407.501C273.378 407.501 276.092 425.816 279.59 431.066C279.59 431.066 275.436 434.008 265.896 433.898" fill="#EAAC29"/>
<path d="M344.818 497.7C347.879 513.765 351.323 529.753 355.149 545.654C355.199 545.861 355.517 545.773 355.467 545.567C351.641 529.666 348.197 513.678 345.136 497.612C345.096 497.404 344.778 497.492 344.818 497.7Z" fill="#372723"/>
<path d="M332.854 384.614L331.427 392.141L352.095 384.614H332.854Z" fill="#EABFAD"/>
<path d="M371.6 464.533C371.6 464.533 375.364 485.27 350.318 491.78L363.688 551.861H339.046C339.046 551.861 320.715 494.925 320.36 492.061C318.454 476.668 334.596 464.532 334.596 464.532H371.6V464.533Z" fill="#2B1E45"/>
<path d="M315.21 393.979C315.21 393.979 313.663 397.416 312.756 401.866C311.85 406.317 305.751 448.343 305.751 448.343C305.751 448.343 303.526 459.886 313.086 462.209H323.058L319.761 456.837L315.21 393.979Z" fill="#7F7767"/>
<path d="M210.732 414.947C210.732 414.947 207.838 428.965 204.489 433.649C204.489 433.649 216.413 438.403 229.764 436.939C229.764 436.939 229.029 432.627 229.435 428.926" fill="#EAAC29"/>
<path d="M264.073 402.96C264.073 402.96 268.21 412.086 268.68 418.429C269.014 422.941 269.349 421.232 266.712 432.383L265.896 433.898C265.896 433.898 267.75 425.085 267.328 420.701C266.906 416.316 264.208 404.164 264.073 402.96Z" fill="#D19825"/>
<path d="M226.345 448.693C226.345 448.693 238.171 449.831 245.808 452.413C245.808 452.413 255.561 449.131 260.588 448.693C260.588 448.693 265.354 433.843 265.896 433.898C265.896 433.898 265.106 440.192 262.311 450.822C262.311 450.822 254.095 450.959 246.504 453.774L226.345 448.693Z" fill="#D19825"/>
<path d="M263.807 402.465C264.825 407.57 266.041 412.682 266.78 417.835C267.61 423.632 266.602 429.178 265.357 434.843C265.311 435.05 265.629 435.139 265.675 434.931C266.882 429.44 267.937 424.032 267.198 418.391C266.496 413.02 265.184 407.686 264.125 402.377C264.084 402.169 263.766 402.258 263.807 402.465Z" fill="#372723"/>
<path d="M217.073 464.533C217.073 464.533 212.291 492.413 240.643 494.061C240.643 494.061 236.736 526.038 239.462 552.63H260.752C260.752 552.63 262.312 524.843 264.609 510.324C266.906 495.804 277.785 477.311 242.731 464.533H217.073Z" fill="#5E5B42"/>
<path d="M292.622 464.533H292.322H218.886V465.695C218.886 465.695 236.223 473.154 292.472 472.072C348.721 473.154 366.058 465.695 366.058 465.695V464.533H292.622Z" fill="#7763A1"/>
<path d="M270.164 499.632C270.164 499.632 273.11 526.257 272.536 551.861H269.434C269.434 551.861 269.083 525.681 266.896 507.123C266.896 507.123 268.917 499.489 270.164 499.632Z" fill="#4C4936"/>
<path d="M248.658 379.757L238.666 377.582L236.409 380.114C236.409 380.114 236.798 388.131 234.957 389.009L239.325 391.647L253.992 389.009C249.978 386.372 248.658 379.757 248.658 379.757Z" fill="#EABFAD"/>
<path d="M237.947 368.9C237.947 368.9 246.058 368.571 248.926 363.201C248.926 363.201 250.204 364.409 252.099 364.368C252.099 364.368 253.637 360.741 249.984 357.911C246.335 355.086 243.226 354.805 238.446 355.714C233.799 356.597 229.6 360.769 229.6 366.703C229.6 372.637 228.968 377.945 226.345 382.598C223.721 387.252 221.891 387.471 222.092 391.647C222.092 391.647 225.763 389.45 229.028 389.01H234.957C234.957 389.01 238.748 388.543 239.572 384.614C240.396 380.686 236.789 375.874 236.409 372.264C236.409 372.264 235.745 369.202 237.947 368.9Z" fill="#191931"/>
<path d="M237.947 368.9C237.947 368.9 236.862 367.1 235.213 367.965C233.282 368.979 233.991 372.691 237.947 372.361V368.9Z" fill="#EABFAD"/>
<path d="M252.476 379.638C252.476 379.638 253.061 382.251 255.204 384.998C257.347 387.745 257.401 389.009 257.401 389.009H253.992C253.992 389.009 250.452 387.151 248.737 380.113C248.737 380.113 251.689 380.198 252.476 379.638Z" fill="#191931"/>
<path d="M236.082 372.455C236.491 373.873 237.38 374.818 238.147 376.041C239.657 378.45 240.126 381.843 237.909 384.028C237.757 384.177 237.99 384.41 238.142 384.261C239.443 382.979 239.894 381.166 239.722 379.364C239.454 376.542 237.149 374.964 236.399 372.367C236.341 372.163 236.022 372.25 236.082 372.455Z" fill="#191931"/>
<path d="M229.953 364.332C229.62 368.85 229.287 373.442 227.836 377.765C226.744 381.02 224.64 383.805 224.817 387.357C224.827 387.568 225.157 387.57 225.146 387.357C224.945 383.306 227.799 379.556 228.788 375.678C229.734 371.975 230.003 368.13 230.283 364.333C230.298 364.12 229.969 364.122 229.953 364.332Z" fill="#191931"/>
<path d="M229.822 366.09C230 371.227 228.845 375.203 226.274 379.632C224.463 382.751 222.936 385.739 223.352 389.435C223.376 389.644 223.706 389.646 223.682 389.435C223.077 384.065 226.772 380.343 228.757 375.75C230.092 372.664 230.266 369.409 230.152 366.091C230.145 365.879 229.815 365.878 229.822 366.09Z" fill="#191931"/>
<path d="M248.72 362.409C248.451 364.296 247.536 366.245 245.8 367.193C244.277 368.025 242.481 368.042 240.793 368.072C240.581 368.076 240.58 368.405 240.793 368.401C242.685 368.368 244.736 368.323 246.372 367.236C247.933 366.2 248.782 364.296 249.039 362.496C249.068 362.289 248.75 362.199 248.72 362.409Z" fill="#191931"/>
<path d="M252.805 379.33C252.724 379.415 252.643 379.5 252.552 379.572C253.774 382.486 256.866 384.787 256.287 388.195C256.252 388.402 256.57 388.491 256.605 388.282C257.215 384.695 253.998 382.402 252.805 379.33Z" fill="#191931"/>
<path d="M248.736 380.114C248.736 380.114 246.659 380.118 243.939 379.331C243.939 379.331 246.484 384.98 251.104 385.903C251.104 385.903 249.739 384.096 248.736 380.114Z" fill="#CF9B89"/>
<path d="M233.4 359.081C233.421 358.548 232.935 358.055 232.333 357.891C231.73 357.727 231.05 357.856 230.519 358.148C229.989 358.44 229.593 358.879 229.29 359.347C228.52 360.536 228.302 361.968 228.69 363.281C228.828 363.748 229.09 364.246 229.617 364.432C230.202 364.639 230.875 364.377 231.354 364.029C232.142 363.456 232.654 362.652 232.948 361.812C233.241 360.972 233.329 360.091 233.379 359.216" fill="#191931"/>
<path d="M232.814 389.009C232.856 389.009 233.363 397.251 241.99 402.196C251.579 407.693 259.351 402.168 257.943 395.652C256.857 390.628 254.901 389.009 254.901 389.009H232.814Z" fill="#A2222B"/>
<path d="M234.957 389.009C234.957 389.009 238.31 401.536 249.599 401.159C261.453 400.763 253.992 389.009 253.992 389.009L245.461 388.402L234.957 389.009Z" fill="#EABFAD"/>
<path d="M240.642 494.06C240.642 494.06 238.583 491.945 238.418 490.173C238.418 490.173 233.636 493.555 223.521 487.434C223.521 487.434 228.692 493.621 240.642 494.06Z" fill="#4C4936"/>
<path d="M229.893 419.26L228.804 449.237L226.345 448.693L229.893 419.26Z" fill="#D19825"/>
<path d="M224.651 448.503C231.43 449.932 238.143 451.637 244.821 453.479C248.059 454.373 251.289 455.295 254.518 456.224C256.208 456.709 266.387 458.672 265.552 461.413C265.49 461.617 265.808 461.703 265.87 461.501C266.439 459.633 264.98 459.038 263.455 458.457C259.461 456.935 255.084 456.036 250.973 454.865C242.291 452.391 233.575 450.047 224.738 448.184C224.531 448.141 224.443 448.459 224.651 448.503Z" fill="#372723"/>
<path d="M350.389 360.837C350.389 360.837 346.931 362.761 346.258 358.887C346.258 358.887 342.366 361.819 334.525 360.415L334.134 361.914C334.134 361.914 330.064 358.475 332.536 354.231C335.009 349.986 343.951 354.519 346.835 354.931C346.835 354.931 348.317 354.083 350.174 354.725C352.316 355.467 354.439 357.404 350.39 369.93V360.837H350.389Z" fill="#191931"/>
<path d="M349.122 361.9C349.122 361.9 350.207 360.101 351.855 360.966C353.787 361.98 353.077 365.691 349.122 365.362V361.9Z" fill="#EABFAD"/>
<path d="M346.212 358.413C344.716 363.205 337.91 360.543 334.633 359.816C334.426 359.77 334.358 359.953 334.565 359.999C337.94 360.747 344.967 363.505 346.53 358.5C346.593 358.298 346.275 358.211 346.212 358.413Z" fill="#191931"/>
<path d="M345.377 358.271C345.259 358.655 345.143 359.089 344.921 359.431C344.417 360.207 343.684 360.29 342.845 360.333C341.64 360.396 340.478 360.365 339.361 359.848C339.17 359.76 339.002 360.044 339.195 360.133C340.548 360.76 342.501 360.7 343.961 360.381C345.133 360.125 345.369 359.423 345.696 358.359C345.758 358.155 345.44 358.068 345.377 358.271Z" fill="#191931"/>
<path d="M332.814 355.218C331.943 356.008 331.069 357.356 331.308 358.604C331.569 359.963 333.114 360.237 334.255 360.346C334.465 360.367 334.516 360.041 334.304 360.021C333.219 359.916 331.651 359.814 331.549 358.461C331.464 357.335 332.194 356.223 333.009 355.484C333.165 355.342 332.971 355.076 332.814 355.218Z" fill="#191931"/>
<path d="M350.389 375.834L348.132 373.301L337.56 375.602C337.56 375.602 336.758 381.166 332.854 384.614L346.272 386.152L352.095 384.614C350.255 383.735 350.389 375.834 350.389 375.834Z" fill="#EABFAD"/>
<path d="M337.52 375.834C337.52 375.834 341.955 375.438 344.498 372.499C344.498 372.499 344.504 381.249 332.854 384.614C332.854 384.614 336.141 382.149 337.52 375.834Z" fill="#CF9B89"/>
<path d="M352.095 384.614L331.427 392.141L335.552 398.783L355.281 384.614C355.281 384.614 353.317 384.051 352.095 384.614Z" fill="#898378"/>
<path d="M331.427 392.141L324.278 394.939L332.343 383.397C332.343 383.397 332.813 382.695 334.556 382.747C334.556 382.747 333.804 384.229 332.854 384.613L331.427 392.141Z" fill="#898378"/>
<path d="M350.909 382.295C350.909 382.295 355.571 382.235 355.282 384.614H352.095C352.095 384.614 351.219 384.251 350.909 382.295Z" fill="#898378"/>
<path d="M353.16 384.374C353.16 384.374 352.504 384.411 352.095 384.614C352.095 384.614 351.563 384.411 351.197 383.414C351.197 383.414 353.531 383.436 353.16 384.374Z" fill="#726B5E"/>
<path d="M332.854 384.614C332.854 384.614 333.054 383.896 333.784 383.884C333.784 383.884 333.31 384.463 332.854 384.614Z" fill="#726B5E"/>
<path d="M330.845 419.654C330.845 419.654 334.485 445.742 348.551 462.209L356.41 462.133C356.41 462.133 339.291 444.914 330.845 419.654Z" fill="#726B5E"/>
<path d="M356.528 462.016C345.013 449.737 336.297 435.205 330.888 419.265C330.82 419.065 330.502 419.151 330.57 419.353C335.995 435.341 344.746 449.934 356.295 462.25C356.44 462.405 356.673 462.171 356.528 462.016Z" fill="#372723"/>
<path d="M360.032 419.308C360.032 419.308 359.723 433.19 357.983 433.242L361.6 434.941C361.6 434.941 361.271 434.639 361.216 434.2C361.161 433.76 360.032 419.833 360.032 419.308Z" fill="#726B5E"/>
<path d="M335.436 416.739C347.684 429.178 363.296 437.744 380.369 441.387C380.576 441.431 380.665 441.113 380.457 441.069C363.433 437.436 347.881 428.909 335.668 416.506C335.52 416.355 335.287 416.587 335.436 416.739Z" fill="#372723"/>
<path d="M359.867 418.784C360.305 424.115 360.744 429.447 361.182 434.777C361.199 434.987 361.529 434.989 361.512 434.777C361.073 429.446 360.635 424.115 360.197 418.784C360.179 418.575 359.849 418.573 359.867 418.784Z" fill="#372723"/>
<path d="M359.414 408.681C358.891 401.749 358.244 390.995 363.923 385.818C364.08 385.675 363.847 385.442 363.69 385.584C357.949 390.817 358.561 401.75 359.083 408.681C359.1 408.891 359.43 408.893 359.414 408.681Z" fill="#372723"/>
<path d="M324.278 394.939L327.055 395.603L331.427 392.141L324.278 394.939Z" fill="#726B5E"/>
<path d="M331.427 392.141L334.556 398.641L335.552 398.783L331.427 392.141Z" fill="#726B5E"/>
<path d="M335.552 398.783C335.552 398.783 345.804 392.086 350.09 389.943C354.375 387.8 356.886 385.768 357.631 384.614H355.282L335.552 398.783Z" fill="#726B5E"/>
<path d="M317.227 391.574C317.227 391.574 315.847 394.877 314.694 400.453C313.54 406.028 310.531 431.645 310.531 431.645L313.122 432.14C313.122 432.14 314.795 409.425 315.218 405.206C315.64 400.987 317.227 391.574 317.227 391.574Z" fill="#726B5E"/>
<path d="M313.286 431.233C313.958 417.806 315.365 404.349 317.472 391.073C317.505 390.865 317.187 390.776 317.154 390.985C315.043 404.292 313.63 417.775 312.957 431.233C312.946 431.445 313.276 431.444 313.286 431.233Z" fill="#372723"/>
<path d="M315.317 460.12H273.029C272.227 460.12 271.576 459.47 271.576 458.668L268.474 430.377C268.474 429.575 269.124 428.925 269.927 428.925H312.215C313.017 428.925 313.668 429.575 313.668 430.377L316.77 458.668C316.769 459.47 316.119 460.12 315.317 460.12Z" fill="#CBC8C7"/>
<path d="M306.006 367.989C307.934 374.296 308.122 380.979 308.787 387.51C309.277 392.317 309.832 397.122 310.253 401.936C310.272 402.146 310.601 402.148 310.583 401.936C310.142 396.897 309.56 391.868 309.048 386.836C308.402 380.482 308.201 374.046 306.324 367.901C306.263 367.7 305.945 367.785 306.006 367.989Z" fill="#372723"/>
<path d="M329.386 396.615C329.341 396.797 329.377 396.948 329.527 397.068C329.581 397.112 329.664 397.139 329.727 397.094C329.959 396.932 329.927 396.563 329.628 396.498C329.549 396.481 329.489 396.512 329.442 396.574C329.307 396.755 329.374 396.998 329.57 397.1C329.631 397.132 329.722 397.132 329.77 397.074C329.944 396.866 329.946 396.626 329.766 396.419C329.713 396.511 329.659 396.603 329.606 396.694C329.614 396.696 329.624 396.697 329.632 396.698C329.839 396.677 329.849 396.363 329.632 396.369C329.211 396.379 329.044 396.987 329.482 397.131C329.918 397.275 330.211 396.756 329.948 396.418C329.678 396.072 329.098 396.28 329.061 396.704C329.024 397.126 329.58 397.395 329.896 397.12C330.183 396.868 330.042 396.337 329.68 396.24C329.264 396.127 328.891 396.642 329.1 397.011C329.305 397.372 329.897 397.329 330.061 396.957C330.242 396.547 329.814 396.062 329.386 396.209C328.912 396.372 328.916 397.095 329.46 397.135C329.943 397.17 330.009 396.467 329.57 396.344C329.366 396.287 329.278 396.605 329.483 396.662C329.433 396.903 329.456 396.851 329.551 396.507C329.692 396.542 329.767 396.627 329.775 396.762C329.736 397.123 329.158 396.838 329.442 396.611C329.672 396.428 329.86 396.83 329.583 396.903C329.415 396.893 329.382 396.791 329.486 396.598C329.764 396.723 329.812 396.757 329.633 396.698C329.633 396.588 329.633 396.479 329.633 396.369C329.11 396.423 329.009 397.192 329.587 397.234C330.136 397.273 330.177 396.519 329.694 396.377C329.527 396.327 329.431 396.534 329.534 396.652C329.535 396.716 329.537 396.778 329.538 396.841C329.605 396.833 329.671 396.824 329.738 396.816C329.734 396.791 329.731 396.766 329.728 396.741C329.666 396.766 329.604 396.791 329.542 396.816C329.549 396.814 329.555 396.812 329.562 396.81C329.628 396.818 329.695 396.827 329.762 396.836C329.743 396.791 329.724 396.747 329.705 396.702C329.756 396.497 329.438 396.408 329.386 396.615Z" fill="#372723"/>
<path d="M328.855 399.651C328.81 399.833 328.846 399.984 328.996 400.104C329.05 400.148 329.133 400.175 329.196 400.13C329.427 399.968 329.396 399.599 329.097 399.534C329.018 399.517 328.957 399.548 328.911 399.61C328.776 399.791 328.843 400.034 329.039 400.136C329.1 400.168 329.191 400.168 329.239 400.11C329.413 399.902 329.415 399.662 329.235 399.455C329.181 399.547 329.128 399.639 329.075 399.731C329.083 399.732 329.092 399.733 329.101 399.735C329.307 399.713 329.317 399.4 329.101 399.405C328.68 399.415 328.513 400.023 328.951 400.167C329.387 400.311 329.679 399.792 329.417 399.454C329.147 399.108 328.566 399.316 328.529 399.741C328.492 400.162 329.049 400.431 329.365 400.156C329.652 399.904 329.511 399.373 329.149 399.276C328.732 399.164 328.359 399.678 328.569 400.047C328.773 400.408 329.365 400.365 329.53 399.993C329.711 399.583 329.282 399.098 328.855 399.245C328.381 399.408 328.384 400.131 328.929 400.171C329.412 400.206 329.478 399.503 329.039 399.381C328.835 399.323 328.747 399.642 328.951 399.698C328.902 399.94 328.924 399.888 329.019 399.543C329.161 399.578 329.236 399.663 329.243 399.799C329.205 400.159 328.626 399.874 328.91 399.648C329.141 399.464 329.329 399.866 329.052 399.939C328.883 399.929 328.851 399.827 328.955 399.634C329.232 399.76 329.281 399.793 329.102 399.735C329.102 399.624 329.102 399.515 329.102 399.405C328.579 399.46 328.477 400.228 329.056 400.27C329.605 400.31 329.646 399.555 329.163 399.413C328.996 399.363 328.9 399.57 329.003 399.688C329.004 399.752 329.005 399.814 329.007 399.878C329.073 399.869 329.14 399.861 329.207 399.852C329.203 399.827 329.2 399.802 329.197 399.777C329.135 399.802 329.073 399.828 329.011 399.853C329.017 399.851 329.024 399.848 329.03 399.846C329.097 399.855 329.164 399.863 329.23 399.872C329.212 399.828 329.193 399.783 329.174 399.739C329.224 399.533 328.907 399.445 328.855 399.651Z" fill="#372723"/>
<path d="M274.287 358.627C274.287 358.627 271.495 358.708 271.206 360.611L273.224 361.03L273.965 360.446C273.965 360.446 274.073 359.177 274.287 358.627Z" fill="#553B8A"/>
<path d="M291.573 358.13C291.573 358.13 292.43 359.95 292.312 361.438L294.497 359.59C294.497 359.59 293.985 358.113 291.573 358.13Z" fill="#553B8A"/>
<path d="M271.206 360.611C271.206 360.611 270.819 365.658 278.107 374.984L278.186 375.257C278.186 375.257 270.313 370.055 269.534 360.71L271.206 360.611Z" fill="#463374"/>
<path d="M294.496 359.591C294.496 359.591 296.35 366.048 291.573 373.45L291.525 373.872C291.525 373.872 297.817 369.328 296.674 359.966C296.674 359.966 295.628 359.69 294.496 359.591Z" fill="#463374"/>
<path d="M293.681 443.151C293.427 441.517 292.014 440.381 290.523 440.612C290.499 440.616 290.478 440.627 290.453 440.631C290.441 441.373 290.152 442.702 288.304 442.907C288.24 443.253 288.225 443.616 288.283 443.989C288.537 445.622 289.951 446.758 291.441 446.527C292.932 446.296 293.935 444.784 293.681 443.151Z" fill="#D9D9D9"/>
<path d="M276.419 336.852C276.419 336.852 278.065 335.852 278.186 334.369C278.186 334.369 282.62 337.632 286.384 336.852C290.148 336.073 289.531 333.211 289.531 333.211L290.072 335.683C290.072 335.683 292.317 332.968 290.999 330.66C289.681 328.352 286.576 327.363 282.731 327.363C278.885 327.363 276.825 328.847 276.825 328.847C276.825 328.847 272.115 329.391 273.687 335.918C273.687 335.918 272.582 342.282 274.839 344.972C274.839 344.972 275.04 342.665 274.84 340.206C274.839 340.207 274.86 337.316 276.419 336.852Z" fill="#191931"/>
<path d="M277.256 329.197C277.256 329.197 276.55 328.62 276.418 327.919C276.418 327.919 276.308 328.558 276.555 329.197C276.802 329.836 277.256 329.197 277.256 329.197Z" fill="#191931"/>
<path d="M276.825 329.115C276.825 329.115 275.504 328.847 275.196 327.919C275.196 327.919 275.113 329.043 275.814 329.48C276.514 329.918 276.825 329.115 276.825 329.115Z" fill="#191931"/>
<path d="M288.361 350.153C288.361 350.153 281.768 351.985 278.691 347.658C278.691 347.658 280.731 354.581 284.982 354.149C288.498 353.791 288.617 350.788 288.617 350.788L288.361 350.153Z" fill="#CF9B89"/>
<path d="M207.972 435.817C207.972 435.817 215.732 439.826 227.611 439.41L227.901 437.105C227.901 437.105 220.164 438.093 208.092 434.832L207.972 435.817Z" fill="#CF9B89"/>
<path d="M229.869 417.849C228.844 428.139 227.664 438.413 226.186 448.649C226.156 448.857 226.473 448.947 226.503 448.737C227.985 438.472 229.171 428.168 230.199 417.849C230.22 417.638 229.89 417.639 229.869 417.849Z" fill="#372723"/>
<path d="M277.256 335.683C277.256 335.683 277.4 342.308 278.691 344.231C279.982 346.154 288.052 348.299 290.995 344.012C290.995 344.012 291.878 346.895 290.289 349.329C289.03 351.258 284.963 351.51 283.654 351.139C282.344 350.768 278.784 349.903 277.648 345.328C276.51 340.754 276.36 336.263 276.36 336.263L277.256 335.683Z" fill="#191931"/>
<path d="M277.919 345.082C277.919 345.082 277.895 346.291 277.674 346.785C277.674 346.785 278.064 346.291 278.185 345.934C278.307 345.577 277.919 345.082 277.919 345.082Z" fill="#191931"/>
<path d="M277.675 344.657C277.675 344.657 277.661 345.618 277.524 345.934C277.524 345.934 277.889 345.371 277.92 345.082C277.95 344.794 277.675 344.657 277.675 344.657Z" fill="#191931"/>
<path d="M282.885 341.648C281.563 341.648 280.488 340.573 280.488 339.251C280.488 337.929 281.563 336.854 282.885 336.854C284.207 336.854 285.283 337.929 285.283 339.251C285.283 340.573 284.207 341.648 282.885 341.648ZM282.885 337.347C281.836 337.347 280.982 338.201 280.982 339.25C280.982 340.299 281.836 341.153 282.885 341.153C283.935 341.153 284.789 340.299 284.789 339.25C284.789 338.201 283.935 337.347 282.885 337.347Z" fill="#191931"/>
<path d="M288.731 341.054C287.466 341.054 286.437 340.024 286.437 338.759C286.437 337.494 287.467 336.464 288.731 336.464C289.997 336.464 291.027 337.494 291.027 338.759C291.027 340.024 289.997 341.054 288.731 341.054ZM288.731 336.958C287.738 336.958 286.931 337.766 286.931 338.759C286.931 339.752 287.739 340.56 288.731 340.56C289.724 340.56 290.532 339.752 290.532 338.759C290.532 337.766 289.724 336.958 288.731 336.958Z" fill="#191931"/>
<path d="M285.054 338.872L284.747 338.485C285.084 338.215 285.95 337.851 286.821 338.402L286.556 338.82C285.773 338.322 285.084 338.849 285.054 338.872Z" fill="#191931"/>
<path d="M280.604 338.969C280.569 338.947 277.142 336.811 275.58 336.408L275.704 335.929C277.339 336.351 280.723 338.46 280.867 338.549L280.604 338.969Z" fill="#191931"/>
<path d="M276.419 336.852C276.419 336.852 275.334 335.053 273.686 335.918C271.754 336.932 272.463 340.643 276.419 340.314V336.852Z" fill="#EABFAD"/>
<path d="M350.318 491.78C350.318 491.78 349.87 489.28 350.749 487.962C350.749 487.962 351.403 490.479 358.658 488.616C358.658 488.616 355.223 490.647 350.318 491.78Z" fill="#1E162E"/>
<path d="M245.66 370.223C245.836 370.192 245.944 369.976 245.903 369.741C245.861 369.505 245.685 369.34 245.51 369.371C245.334 369.402 245.225 369.618 245.267 369.853C245.308 370.088 245.484 370.254 245.66 370.223Z" fill="#191931"/>
<path d="M252.164 368.82C252.34 368.789 252.449 368.573 252.407 368.338C252.366 368.103 252.19 367.937 252.014 367.969C251.838 368 251.729 368.215 251.771 368.451C251.813 368.686 251.989 368.851 252.164 368.82Z" fill="#191931"/>
<path d="M249.51 369.374C249.51 369.374 250.182 371.165 251.045 371.677C251.908 372.188 250.981 372.923 250.278 373.02C249.574 373.115 249.063 369.342 249.51 369.374Z" fill="#DA8A7B"/>
<path d="M341.99 364.937C341.998 364.699 341.86 364.5 341.682 364.494C341.504 364.488 341.353 364.677 341.345 364.915C341.337 365.154 341.475 365.353 341.653 365.359C341.831 365.365 341.982 365.176 341.99 364.937Z" fill="#191931"/>
<path d="M335.352 364.464C335.36 364.225 335.222 364.027 335.044 364.021C334.866 364.015 334.715 364.203 334.706 364.442C334.698 364.681 334.836 364.879 335.015 364.885C335.193 364.891 335.344 364.703 335.352 364.464Z" fill="#191931"/>
<path d="M337.72 365.043C337.72 365.043 337.307 366.91 336.525 367.539C335.742 368.166 336.763 368.764 337.473 368.76C338.183 368.757 338.159 364.948 337.72 365.043Z" fill="#DA8A7B"/>
<path d="M283.488 340.053C283.667 340.047 283.805 339.848 283.797 339.61C283.788 339.371 283.637 339.182 283.459 339.188C283.281 339.194 283.143 339.393 283.151 339.631C283.159 339.87 283.31 340.059 283.488 340.053Z" fill="#191931"/>
<path d="M288.952 339.826C289.13 339.82 289.268 339.621 289.26 339.383C289.252 339.144 289.101 338.955 288.922 338.961C288.744 338.967 288.606 339.166 288.614 339.404C288.622 339.643 288.773 339.832 288.952 339.826Z" fill="#191931"/>
<path d="M249.615 376.224C249.521 376.224 249.423 376.217 249.32 376.204C247.726 375.987 247.708 374.386 247.708 374.371V373.927L247.997 374.263C248.04 374.313 249.087 375.491 251.147 374.899L251.49 374.801L251.343 375.126C251.338 375.137 250.831 376.224 249.615 376.224ZM248.104 374.794C248.218 375.199 248.528 375.763 249.365 375.877C250.112 375.979 250.584 375.61 250.829 375.315C249.478 375.58 248.567 375.132 248.104 374.794Z" fill="#191931"/>
<path d="M336.777 372.266C336.31 372.266 335.987 372.194 335.978 372.191L336.053 371.871C336.15 371.893 338.422 372.398 339.49 370.443L339.779 370.601C339.006 372.016 337.643 372.266 336.777 372.266Z" fill="#191931"/>
<path d="M285.083 342.052C285.083 342.052 285.416 341.498 286.204 341.415C286.993 341.331 287.35 341.828 287.35 341.828C287.35 341.828 287.12 342.17 286.425 342.29C285.73 342.41 285.083 342.052 285.083 342.052Z" fill="#DA8A7B"/>
<path d="M285.435 345.859C285.228 345.859 285.004 345.824 284.761 345.742C283.975 345.474 283.598 345.017 283.54 344.264L283.513 343.903L283.803 344.119C283.817 344.129 285.263 345.189 286.821 344.79L287.241 344.682L286.998 345.042C286.992 345.052 286.433 345.859 285.435 345.859ZM283.931 344.592C284.053 344.997 284.343 345.251 284.868 345.429C285.558 345.665 286.074 345.433 286.385 345.198C285.33 345.292 284.401 344.864 283.931 344.592Z" fill="#191931"/>
<path d="M276.009 340.333C276.009 340.333 275.949 341.827 274.923 342.034L274.838 340.208C274.838 340.208 275.472 340.383 276.009 340.333Z" fill="#CF9B89"/>
<path d="M349.122 365.362C349.122 365.362 349.153 367.73 350.389 368.369V365.32C350.389 365.32 349.704 365.446 349.122 365.362Z" fill="#CF9B89"/>
<path d="M264.932 459.871C268.643 461.034 272.961 459.588 276.229 462.104C276.397 462.233 276.561 461.947 276.395 461.819C273.087 459.272 268.761 460.726 265.019 459.553C264.817 459.49 264.73 459.808 264.932 459.871Z" fill="#372723"/>
<path d="M265.806 460.144C269.415 460.274 273.326 459.036 276.111 461.993C276.256 462.147 276.489 461.914 276.344 461.759C273.471 458.71 269.559 459.949 265.806 459.815C265.595 459.808 265.595 460.137 265.806 460.144Z" fill="#372723"/>
<path d="M322.271 462.209H273.816C273.381 462.209 273.029 461.857 273.029 461.423V460.907C273.029 460.473 273.381 460.121 273.816 460.121H322.271C322.705 460.121 323.058 460.473 323.058 460.907V461.423C323.058 461.857 322.705 462.209 322.271 462.209Z" fill="#CBC8C7"/>
<path d="M271.577 458.668C271.577 459.47 272.227 460.121 273.029 460.121H315.318C316.119 460.121 316.77 459.471 316.77 458.668L316.258 453.997L269.33 438.177L271.577 458.668Z" fill="#D9D9D9"/>
<path d="M288.453 444.623C288.927 445.903 290.154 446.726 291.442 446.526C291.876 446.459 292.26 446.274 292.592 446.019L288.453 444.623Z" fill="#CBC8C7"/>
<path d="M323.058 461.423V460.907C323.058 460.473 322.705 460.121 322.271 460.121H273.816C273.381 460.121 273.029 460.473 273.029 460.907V460.937H317.846C318.567 460.957 318.503 461.555 318.503 461.555V462.134L318.541 462.21H322.272C322.705 462.209 323.058 461.857 323.058 461.423Z" fill="#8E8A87"/>
<path d="M273.815 460.285C287.649 460.285 301.483 460.285 315.317 460.285C315.529 460.285 315.529 459.955 315.317 459.955C301.483 459.955 287.649 459.955 273.815 459.955C273.604 459.955 273.603 460.285 273.815 460.285Z" fill="#372723"/>
<path d="M333.141 417.936L331.068 419.076C331.068 419.076 330.874 419.26 330.52 418.874C330.166 418.487 328.881 417.745 328.767 416.19C328.687 415.108 329.661 414.363 330.238 413.993C330.238 413.993 330.019 412.985 331.164 413.056C331.164 413.056 330.791 412.424 330.778 412.209C330.778 412.209 330.656 412.103 330.423 412.066C330.191 412.03 328.353 411.809 327.998 411.15C327.642 410.491 328.775 410.891 329.651 410.882C330.526 410.872 331.268 410.658 331.268 410.658C331.268 410.658 333.967 412.546 334.097 412.602C334.226 412.659 335.399 413.006 335.631 413.876C335.863 414.745 335.451 415.641 335.451 415.641C335.451 415.641 335.409 416.61 335.317 416.733C335.225 416.856 333.141 417.936 333.141 417.936Z" fill="#EABFAD"/>
<path d="M330.812 419.451C332.388 418.5 334.058 417.715 335.636 416.765C335.817 416.655 335.651 416.37 335.469 416.48C333.893 417.431 332.223 418.215 330.646 419.166C330.465 419.275 330.63 419.561 330.812 419.451Z" fill="#372723"/>
<path d="M335.571 416.666C336.091 413.587 333.638 411.914 331.247 410.545C331.062 410.439 330.896 410.724 331.081 410.83C333.295 412.097 335.745 413.667 335.253 416.579C335.218 416.786 335.535 416.875 335.571 416.666Z" fill="#372723"/>
<path d="M331.12 410.528C330.566 410.661 330.005 410.733 329.437 410.756C328.976 410.774 328.492 410.693 328.038 410.738C327.984 410.743 327.92 410.764 327.895 410.82C327.708 411.238 328.251 411.59 328.572 411.759C329.229 412.107 329.983 412.172 330.7 412.314C330.907 412.355 330.996 412.037 330.788 411.996C330.292 411.898 329.789 411.844 329.304 411.695C329.083 411.627 328.858 411.549 328.657 411.432C328.51 411.35 328.38 411.248 328.27 411.124C328.046 411.054 328.058 411.037 328.305 411.075C328.776 411.029 329.275 411.103 329.753 411.07C330.244 411.035 330.728 410.962 331.208 410.847C331.414 410.797 331.327 410.479 331.12 410.528Z" fill="#372723"/>
<path d="M330.585 412.198C330.754 412.614 330.98 412.985 331.276 413.323C331.416 413.483 331.648 413.249 331.509 413.09C331.253 412.796 331.05 412.471 330.903 412.111C330.824 411.917 330.505 412.002 330.585 412.198Z" fill="#372723"/>
<path d="M331.486 413.052C330.806 412.645 329.982 413.11 329.99 413.905C329.992 414.117 330.322 414.117 330.32 413.905C330.314 413.361 330.851 413.056 331.319 413.336C331.501 413.446 331.668 413.161 331.486 413.052Z" fill="#372723"/>
<path d="M333.866 412.711C334.487 412.972 335.208 413.274 335.461 413.955C335.658 414.487 335.5 415.199 335.333 415.73C335.269 415.933 335.587 416.019 335.65 415.817C335.849 415.188 336.024 414.33 335.722 413.713C335.377 413.005 334.64 412.682 333.953 412.393C333.758 412.312 333.673 412.63 333.866 412.711Z" fill="#372723"/>
<path d="M278.296 382.04C278.296 382.04 278.1 378.66 277.599 377.897C277.599 377.897 278.443 378.486 278.67 378.805C278.67 378.805 278.868 378.934 278.897 378.52C278.926 378.106 278.947 374.058 278.846 373.494C278.846 373.494 279.858 374.496 280.188 377.119L280.333 377.214C280.333 377.214 281.105 376.658 281.63 377.665C281.63 377.665 282.567 377.09 283.11 377.82C283.11 377.82 283.933 377.438 284.506 377.92C285.08 378.401 285.061 378.957 285.061 378.957C285.061 378.957 286.333 380.953 283.504 383.246L278.296 382.04Z" fill="#EABFAD"/>
<path d="M276.749 381.957C279.28 382.387 281.744 383.127 284.275 383.556C284.483 383.591 284.572 383.273 284.363 383.238C281.831 382.809 279.367 382.068 276.836 381.64C276.629 381.605 276.54 381.922 276.749 381.957Z" fill="#372723"/>
<path d="M278.454 382.005C278.106 380.609 278.45 379.128 277.741 377.822C277.665 377.897 277.59 377.973 277.515 378.048C277.951 378.348 278.329 378.683 278.681 379.074C278.823 379.232 279.055 378.998 278.914 378.84C278.54 378.425 278.141 378.078 277.682 377.762C277.539 377.664 277.383 377.852 277.456 377.988C278.143 379.252 277.799 380.736 278.136 382.092C278.188 382.298 278.505 382.211 278.454 382.005Z" fill="#372723"/>
<path d="M279.03 378.871C279.2 377.042 279.089 375.215 279.006 373.385C278.913 373.424 278.818 373.463 278.725 373.502C279.611 374.539 279.803 376.087 280.075 377.384C280.118 377.591 280.436 377.504 280.393 377.296C280.103 375.919 279.9 374.372 278.957 373.269C278.865 373.161 278.67 373.248 278.676 373.386C278.758 375.215 278.87 377.043 278.7 378.871C278.681 379.082 279.01 379.081 279.03 378.871Z" fill="#372723"/>
<path d="M280.381 377.417C280.794 376.941 281.331 377.386 281.516 377.823C281.599 378.017 281.883 377.85 281.801 377.657C281.531 377.019 280.694 376.555 280.148 377.184C280.01 377.344 280.242 377.578 280.381 377.417Z" fill="#372723"/>
<path d="M281.749 377.866C282.135 377.454 282.741 377.52 283.019 378.011C283.123 378.196 283.409 378.03 283.304 377.845C282.924 377.172 282.045 377.069 281.516 377.632C281.37 377.787 281.603 378.021 281.749 377.866Z" fill="#372723"/>
<path d="M246.165 552.63C246.165 552.63 249.504 566.378 256.903 566.86C262.572 567.23 260.365 556.108 257.824 552.63H246.165Z" fill="#191931"/>
<path d="M274.186 551.861C274.186 551.861 273.692 556.888 278.06 558.619C282.428 560.349 294.79 561.586 297.18 561.174C299.57 560.761 300.477 555.734 287.537 551.861H274.186Z" fill="#191931"/>
<path d="M311.52 549.553C311.52 549.553 305.174 554.416 303.196 558.289C301.218 562.162 308.306 560.761 313.25 557.795C318.195 554.828 324.055 552.438 323.722 549.553H311.52Z" fill="#191931"/>
<path d="M344.977 551.861C344.977 551.861 342.749 566.59 348.88 568.124C355.088 569.677 355.116 552.767 354.951 551.861H344.977Z" fill="#191931"/>
<path d="M187.545 518.055C187.545 518.055 187.911 503.861 186.519 490.089C186.513 490.111 181.595 506.245 187.002 522.7C187.426 523.201 187.854 523.695 188.288 524.179L187.545 518.055Z" fill="#4C4936"/>
<path d="M201.824 493.561C193.427 498.558 191.475 518.181 191.023 526.683C201.38 509.219 201.818 493.789 201.824 493.561Z" fill="#4C4936"/>
<path d="M192.184 501.863L199.025 498.531C199.545 494.469 199.819 490.556 199.85 487.049L193.722 488.566L199.848 485.531C199.724 475.03 197.276 468.808 192.619 474.61C191.775 475.662 191.045 476.892 190.411 478.257L193.722 482.083L189.844 479.573C188.763 482.305 188.019 485.488 187.526 488.872L191.524 493.561L187.369 490.027C185.413 505.357 188.285 524.165 188.287 524.179C189.134 525.123 190.002 526.035 190.885 526.916C194.791 519.566 197.394 509.789 198.748 500.544L192.184 501.863Z" fill="#679C93"/>
<path d="M201.913 519.374L198.922 518.754C197.696 520.189 195.958 522.946 195.483 527.3C197.854 525.109 200.027 522.363 201.913 519.374Z" fill="#4C4936"/>
<path d="M200.179 517.521C200.179 517.521 199.938 517.701 199.575 518.056L202.826 517.871C202.914 517.721 202.997 517.569 203.083 517.418L200.179 517.521Z" fill="#4C4936"/>
<path d="M233.884 550.007C237.811 546.62 240.464 541.927 241.01 536.544C241.209 534.585 241.11 532.66 240.76 530.804L217.68 534.176L196.231 527.522C195.85 528.649 195.571 529.823 195.394 531.033C207.051 540.778 220.971 546.115 233.884 550.007Z" fill="#679C93"/>
<path d="M196.56 526.616L217.681 534.176L198.545 522.807C197.755 523.999 197.086 525.272 196.56 526.616Z" fill="#679C93"/>
<path d="M200.154 520.69L217.68 534.176L217.765 512.834C210.721 512.839 204.328 515.855 200.154 520.69Z" fill="#679C93"/>
<path d="M221.699 513.144L217.681 534.176L236.159 521.209C232.679 517.062 227.603 514.081 221.699 513.144Z" fill="#679C93"/>
<path d="M237.469 522.934L217.681 534.176L239.895 527.649C239.29 525.984 238.473 524.403 237.469 522.934Z" fill="#679C93"/>
<path d="M398.602 559.538C412.155 559.538 423.142 557.857 423.142 555.782C423.142 553.708 412.155 552.026 398.602 552.026C385.049 552.026 374.062 553.708 374.062 555.782C374.062 557.857 385.049 559.538 398.602 559.538Z" fill="#1E162E"/>
<path d="M406.801 515.325C406.801 515.325 407.492 493.921 432.348 486.539C432.348 486.539 428.896 507.649 412.843 515.325H406.801Z" fill="#EAAC29"/>
<path d="M425.693 489.099C407.371 497.934 406.801 515.325 406.801 515.325H409.475C422.395 505.733 425.666 489.236 425.693 489.099Z" fill="#A2222B"/>
<path d="M405.248 515.325C405.248 515.325 404.731 481.211 429.069 465.512C429.069 465.512 426.822 496.947 409.476 515.325H405.248Z" fill="#EAAC29"/>
<path d="M410.212 489.727C405.064 502.981 405.248 515.326 405.248 515.326H406.802C412.143 505.338 410.22 489.787 410.212 489.727Z" fill="#A2222B"/>
<path d="M402.235 515.325C402.235 515.325 392.303 464.715 398.69 435.774C398.69 435.774 415.951 473.644 406.803 515.325H402.235Z" fill="#EAAC29"/>
<path d="M400.93 507.882C406.786 475.074 396.602 456.532 396.578 456.487C396.228 475.76 399.152 496.95 400.93 507.882Z" fill="#A2222B"/>
<path d="M397.653 515.325C397.653 515.325 396.444 475.187 385.742 463.277C385.742 463.277 380.391 494.185 393.855 515.325H397.653Z" fill="#EAAC29"/>
<path d="M391.034 473.109C391.026 473.209 388.603 504.215 395.928 515.325L397.558 513.106C397.221 506.502 395.844 486.589 391.034 473.109Z" fill="#A2222B"/>
<path d="M386.07 494.226C387.354 501.394 389.714 508.822 393.856 515.325H397.653C396.274 501.969 386.094 494.244 386.07 494.226Z" fill="#A2222B"/>
<path d="M392.719 553.289H411.823C427.652 543.66 424.219 519.166 424.219 519.166L402.271 517.606L380.324 519.166C380.324 519.166 376.89 543.66 392.719 553.289Z" fill="#BAB0D0"/>
<path d="M426.445 519.886H378.096C377.528 519.886 377.068 519.426 377.068 518.859V516.352C377.068 515.785 377.529 515.325 378.096 515.325H426.445C427.012 515.325 427.472 515.785 427.472 516.352V518.859C427.472 519.427 427.012 519.886 426.445 519.886Z" fill="#7763A1"/>
<path d="M424.44 521.665C424.44 521.665 399.493 521.555 380.139 528.576C380.139 528.576 379.829 522.127 380.24 519.886H424.3C424.3 519.886 424.408 521.069 424.44 521.665Z" fill="#1E162E"/>
<path d="M395.927 515.325C395.927 515.325 386.433 480.194 395.927 457.754C395.927 457.754 403.867 483.828 399.379 515.325H395.927Z" fill="#EAAC29"/>
<path d="M395.927 515.325C395.927 515.325 388.85 491.159 369.862 486.539C369.862 486.539 374.178 506.613 389.023 515.325H395.927Z" fill="#EAAC29"/>
<path d="M408.418 473.119C408.182 471.219 407.915 469.368 407.623 467.572L403.909 470.182L400.438 504.772C401.436 511.257 402.234 515.325 402.234 515.325C409.067 502.562 408.427 473.533 408.418 473.119Z" fill="#A2222B"/>
<path d="M397.653 515.325H399.379L400.057 480.971C400.057 480.971 396.75 493.312 397.653 515.325Z" fill="#A2222B"/>
<path d="M398.602 515.325C398.602 515.325 398.343 462.587 407.837 439.975C407.837 439.975 409.85 489.928 403.406 515.325H398.602Z" fill="#EAAC29"/>
<path d="M369.862 486.539C369.862 486.539 371.459 493.939 376.03 501.702C375.695 490.651 369.862 486.539 369.862 486.539Z" fill="#A2222B"/>
<path d="M404.202 451.854C404.202 451.854 400.505 458.094 401.582 466.77C401.582 466.77 403.176 455.965 404.202 451.854Z" fill="#A2222B"/>
<path d="M418.021 519.886C418.021 519.886 418.329 542.008 407.901 553.289H406.802C406.802 553.289 417.001 540.694 416.247 519.886H418.021Z" fill="#1E162E"/>
<path d="M402.746 553.289C402.746 553.289 405.435 532.507 405.248 519.886H406.802C406.802 519.886 405.99 541.678 403.297 553.289H402.746Z" fill="#1E162E"/>
<path d="M390.387 462.145H195.07V464.533H390.387V462.145Z" fill="#BAB0D0"/>
<path d="M201.188 464.698C221.845 464.698 242.501 464.698 263.158 464.698C295.382 464.698 327.606 464.698 359.83 464.698C367.544 464.698 375.259 464.698 382.974 464.698C383.186 464.698 383.186 464.368 382.974 464.368C362.317 464.368 341.66 464.368 321.003 464.368C288.779 464.368 256.556 464.368 224.332 464.368C216.617 464.368 208.902 464.368 201.188 464.368C200.975 464.368 200.975 464.698 201.188 464.698Z" fill="#372723"/>
<path d="M321.873 461.857C322.046 461.857 322.185 461.718 322.185 461.546C322.185 461.373 322.046 461.234 321.873 461.234C321.701 461.234 321.562 461.373 321.562 461.546C321.562 461.718 321.701 461.857 321.873 461.857Z" fill="#1E162E"/>
<path d="M320.87 461.857C321.043 461.857 321.182 461.718 321.182 461.546C321.182 461.373 321.043 461.234 320.87 461.234C320.698 461.234 320.559 461.373 320.559 461.546C320.559 461.718 320.698 461.857 320.87 461.857Z" fill="#1E162E"/>
<path d="M256.832 471.655C260.956 474.635 264.696 478.309 266.522 483.162C268.401 488.156 268.036 493.7 267.075 498.85C266.134 503.89 264.61 508.749 263.909 513.843C263.419 517.409 263.021 521.002 262.675 524.585C261.775 533.911 261.242 543.283 260.587 552.629C260.573 552.84 260.902 552.84 260.917 552.629C261.594 542.958 262.096 533.246 263.104 523.603C263.716 517.758 264.256 511.85 265.69 506.139C266.948 501.126 268.229 496.129 268.185 490.92C268.112 482.476 263.67 476.189 256.999 471.369C256.826 471.246 256.662 471.532 256.832 471.655Z" fill="#372723"/>
<path d="M327.415 471.562C322.312 478.15 318.52 485.978 320.786 494.438C320.84 494.643 321.159 494.556 321.104 494.35C318.87 486.009 322.626 478.278 327.648 471.795C327.776 471.629 327.544 471.394 327.415 471.562Z" fill="#372723"/>
<path d="M320.786 494.438C326.595 513.654 332.638 532.827 338.887 551.905C338.953 552.105 339.272 552.02 339.205 551.817C332.955 532.74 326.913 513.567 321.103 494.35C321.042 494.148 320.724 494.234 320.786 494.438Z" fill="#372723"/>
<path d="M222.091 391.647C222.091 391.647 222.319 393.615 224.352 393.24C226.138 392.911 225.698 389.642 228.418 389.092C231.138 388.543 224.49 388.707 224.49 388.707L222.759 390.136L222.091 391.647Z" fill="#191931"/>
<path d="M236.188 547.69C217.003 545.206 195.394 531.032 195.394 531.032C207.051 540.777 220.97 546.115 233.884 550.006C234.713 549.292 235.481 548.516 236.188 547.69Z" fill="#4C4936"/>
<path d="M409.382 344.262H319.325C319.095 344.482 318.865 344.701 318.633 344.922H409.381V344.262H409.382Z" fill="#CBC8C7"/>
<path d="M328.294 335.738H409.028C408.87 335.517 408.712 335.295 408.552 335.079H329.002C328.767 335.296 328.532 335.516 328.294 335.738Z" fill="#CBC8C7"/>
<path d="M408.221 348.103H321.545V344.327H408.221V348.103ZM322.204 347.444H407.561V344.986H322.204V347.444Z" fill="#CBC8C7"/>
</g>
<defs>
<filter id="filter0_d_248_41" x="0.638672" y="30.3964" width="691.361" height="602.604" filterUnits="userSpaceOnUse" color-interpolation-filters="sRGB">
<feFlood flood-opacity="0" result="BackgroundImageFix"/>
<feColorMatrix in="SourceAlpha" type="matrix" values="0 0 0 0 0 0 0 0 0 0 0 0 0 0 0 0 0 0 127 0" result="hardAlpha"/>
<feOffset dy="4"/>
<feGaussianBlur stdDeviation="2"/>
<feComposite in2="hardAlpha" operator="out"/>
<feColorMatrix type="matrix" values="0 0 0 0 0 0 0 0 0 0 0 0 0 0 0 0 0 0 0.25 0"/>
<feBlend mode="normal" in2="BackgroundImageFix" result="effect1_dropShadow_248_41"/>
<feBlend mode="normal" in="SourceGraphic" in2="effect1_dropShadow_248_41" result="shape"/>
</filter>
</defs>
</svg>
