<svg width="320" height="625" viewBox="0 0 320 625" fill="none" xmlns="http://www.w3.org/2000/svg">
<g filter="url(#filter0_d_248_41)">
<path d="M259.13 223.753L257.442 225.597L259.286 227.285L346.814 307.39C350.63 310.883 353.475 313.696 355.417 316.216C357.346 318.718 358.234 320.743 358.396 322.657C358.557 324.555 358.035 326.711 356.409 329.537C354.767 332.39 352.102 335.75 348.223 339.988L201.83 499.946C197.951 504.184 194.84 507.135 192.143 509.022C189.473 510.892 187.371 511.603 185.466 511.61C183.545 511.618 181.45 510.912 178.787 509.212C176.105 507.5 173.051 504.915 169.235 501.422L-84.2453 269.437L-86.0895 267.749L-87.7774 269.593L-131.141 316.975L-132.829 318.819L-130.985 320.507L122.496 552.493C144.416 572.555 165.532 582.957 186.928 581.99C208.321 581.022 229.304 568.72 251.034 544.977L397.427 385.019C419.157 361.276 429.557 339.288 428.629 317.894C427.702 296.496 415.474 276.382 393.553 256.32L306.026 176.215L304.182 174.527L302.494 176.371L259.13 223.753ZM241.189 418.779L242.877 416.935L241.033 415.247L37.7012 229.158L140.891 116.407C148.489 108.105 155.973 103.747 163.027 102.853C169.993 101.97 177.009 104.407 183.888 110.703L197.045 122.744C199.719 125.191 202.299 127.353 204.539 129.231C205.792 130.281 206.938 131.241 207.936 132.114C210.888 134.694 212.646 136.587 213.446 138.405C214.142 139.984 214.219 141.767 212.941 144.515C211.601 147.395 208.868 151.103 204.174 156.233L160.991 203.417L159.303 205.261L161.147 206.949L206.307 248.279L208.151 249.967L209.839 248.123L253.022 200.939C276.396 175.399 285.529 153.348 282.716 132.272C279.922 111.337 265.417 92.1262 243.459 72.03L230.657 60.3143C209.109 40.5928 185.444 31.2894 161.508 33.1235C137.601 34.9553 113.857 47.8642 92.0425 71.7004L-56.199 233.677L-57.8868 235.522L-56.0426 237.209L194.293 466.317L196.138 468.005L197.826 466.161L241.189 418.779ZM156.578 213.104L154.733 211.417L153.046 213.261L109.682 260.643L107.994 262.487L109.838 264.175L260.321 401.897L262.165 403.585L263.853 401.74L307.217 354.359L308.905 352.514L307.061 350.827L156.578 213.104ZM117.571 177.405L115.727 175.717L114.039 177.562L70.6749 224.943L68.9871 226.788L70.8313 228.475L93.3334 249.069L95.1776 250.757L96.8655 248.913L140.229 201.531L141.917 199.687L140.073 197.999L117.571 177.405Z" stroke="#388BF7" stroke-width="5"/>
<rect x="-115" y="577" width="662" height="48" fill="#388BF7"/>
<path d="M268.382 336.227C248.947 308.588 220.296 314.803 203.977 322.748C185.019 331.979 155.686 377.471 106.522 390.172C57.359 402.874 16.4109 448.166 32.5898 498.128C47.288 543.516 90.944 548.601 115.899 556.583H268.382V336.227Z" fill="#EDEBEB"/>
<path d="M72.9014 404.772H268.381V404.113H73.9405C73.5917 404.329 73.2482 404.552 72.9014 404.772Z" fill="#CBC8C7"/>
<path d="M176.311 376.175L176.642 376.176V345.864C176.423 346.072 176.203 346.28 175.983 346.488V375.514L140.167 375.361C139.815 375.581 139.462 375.798 139.108 376.016L176.311 376.175Z" fill="#CBC8C7"/>
<path d="M216.983 397.444C208.356 397.444 201.338 390.426 201.338 381.799C201.338 373.173 208.356 366.154 216.983 366.154C225.609 366.154 232.628 373.173 232.628 381.799C232.628 390.425 225.61 397.444 216.983 397.444ZM216.983 366.813C208.72 366.813 201.997 373.535 201.997 381.798C201.997 390.062 208.72 396.784 216.983 396.784C225.246 396.784 231.968 390.062 231.968 381.798C231.968 373.535 225.246 366.813 216.983 366.813Z" fill="#CBC8C7"/>
<path d="M268.276 396.896H176.226V397.556H268.276V396.896Z" fill="#CBC8C7"/>
<path d="M245.671 397.521H237.44V363.211H245.671V397.521ZM238.1 396.862H245.011V363.87H238.1V396.862Z" fill="#CBC8C7"/>
<path d="M254.624 397.521H246.394V363.211H254.624V397.521ZM247.052 396.862H253.964V363.87H247.052V396.862Z" fill="#CBC8C7"/>
<path d="M259.538 397.413L254.151 365.763L262.266 364.382L267.653 396.033L259.538 397.413ZM254.912 366.302L260.077 396.652L266.891 395.493L261.726 365.142L254.912 366.302Z" fill="#CBC8C7"/>
<path d="M55.4227 518.235L61.8253 517.871C63.7604 514.56 65.3434 511.031 66.4662 507.686L60.8225 506.807L66.9376 506.204C67.8653 503.108 68.3657 500.235 68.3519 497.916L63.0516 498.127L68.3255 497.081C68.1297 494.095 66.9396 492.239 64.5179 492.394C63.9305 492.431 63.3734 492.544 62.8327 492.696L63.7109 494.919L62.0429 492.963C52.4907 496.752 50.4409 518.345 50.0044 527.033C50.7389 527.761 51.4839 528.472 52.2415 529.159C55.4932 526.783 58.4476 523.283 60.9134 519.373L55.4227 518.235Z" fill="#679C93"/>
<path d="M46.5442 518.055C46.5442 518.055 46.9102 503.899 45.5243 490.144L40.4014 497.819L45.2151 487.335C44.5808 482.046 43.6604 476.972 42.3319 472.954L37.3382 476.369L41.186 469.992C39.7256 466.803 37.8755 464.747 35.5323 464.533C32.9979 464.301 31.5369 466.195 30.8802 469.443L34.7009 470.765H30.6646C30.2407 474.122 30.4932 478.582 31.2026 483.512L38.4366 486.309H31.6443C32.4059 490.749 33.4845 495.457 34.7346 500.017L40.4007 502.522L35.2066 501.704C36.2167 505.238 37.3204 508.649 38.4485 511.735C41.0469 516.425 44.0257 520.543 47.288 524.181L46.5442 518.055Z" fill="#679C93"/>
<path d="M168.745 441.288L158.841 547.766L139.739 548.55L134.499 442.047L168.745 441.288Z" fill="#7F7767"/>
<path d="M154.474 547.945C154.474 547.945 162.361 550.377 165.081 552.026C167.801 553.674 167.224 558.289 154.12 555.817C141.016 553.344 145.394 547.945 145.394 547.945H154.474Z" fill="#191931"/>
<path d="M86.8539 493.892L71.9229 551.694L73.1989 552.024L88.13 494.222L86.8539 493.892Z" fill="#191931"/>
<path d="M221.228 493.774L219.959 494.136L236.467 552.055L237.736 551.693L221.228 493.774Z" fill="#191931"/>
<path d="M71.3247 444.623C71.3247 444.623 65.3316 443.836 62.0409 451.095C59.4241 456.867 57.0486 495.983 100.124 495.653L101.388 489.39L71.3247 444.623Z" fill="#6C93FB"/>
<path d="M100.347 494.549C95.8987 493.681 79.4296 492.355 70.8084 479.995C62.2821 467.771 66.9725 449.148 66.9725 449.148L69.8603 444.659C67.8737 444.907 64.3134 446.082 62.0408 451.095C59.4404 456.831 57.086 495.486 99.3258 495.648C99.6976 495.25 100.039 494.883 100.347 494.549Z" fill="#4678E7"/>
<path d="M234.839 444.623C234.839 444.623 240.832 443.836 244.123 451.095C246.74 456.867 249.115 495.983 206.04 495.653L204.776 489.39L234.839 444.623Z" fill="#6C93FB"/>
<path d="M205.817 494.549C210.265 493.681 226.734 492.355 235.356 479.995C243.882 467.771 239.191 449.148 239.191 449.148L236.304 444.659C238.29 444.907 241.851 446.082 244.123 451.095C246.724 456.831 249.078 495.486 206.838 495.648C206.466 495.25 206.125 494.883 205.817 494.549Z" fill="#4678E7"/>
<path d="M134.916 360.329L125.233 360.908C125.233 360.908 114.642 360.57 112.732 372.955C110.822 385.339 106.911 431.98 106.911 431.98C106.911 431.98 106.021 441.299 112.616 441.802C119.212 442.306 166.948 441.287 166.948 441.287C166.948 441.287 174.029 441.503 172.826 432.844C171.894 426.131 166.233 371.55 166.233 371.55C166.233 371.55 164.816 359.405 151.113 359.47L134.916 360.329Z" fill="#679C93"/>
<path d="M134.467 366.73C134.467 366.73 137.107 369.285 143.319 368.845C149.531 368.405 152.752 362.92 152.773 360.83C152.778 360.362 152.74 359.927 152.684 359.525C152.177 359.491 151.658 359.467 151.112 359.469L134.916 360.329L129.534 360.65L134.467 366.73Z" fill="#7F7767"/>
<path d="M146.35 336.577C146.35 336.577 147.435 334.778 149.084 335.643C151.015 336.657 150.306 340.368 146.35 340.039V336.577Z" fill="#CF9B89"/>
<path d="M132.347 360.483C132.347 360.483 132.631 366.491 141.185 366.915C148.111 367.258 151.386 362.206 151.113 359.471L132.347 360.483Z" fill="#EABFAD"/>
<path d="M133.962 350.269C133.962 350.269 134.187 359.603 132.347 360.483L136.453 361.838L151.113 359.47L147.266 349.915L135.794 347.773L133.962 350.269Z" fill="#EABFAD"/>
<path d="M162.199 363.54C162.199 363.54 175.77 382.911 190.427 394.178L184.256 410.657C184.256 410.657 174.559 406.379 166.606 399.727L162.199 363.54Z" fill="#553B8A"/>
<path d="M166.605 399.727C168.914 401.658 171.368 403.387 173.691 404.871C171.363 395.686 171.541 376.64 167.292 370.297C165.912 368.236 164.691 366.932 164.691 366.932L162.391 365.118L166.605 399.727Z" fill="#463374"/>
<path d="M138.239 441.807C138.946 427.112 140.091 384.791 137.106 374.984C134.289 365.728 132.78 362.5 132.964 360.446L125.233 360.908C125.233 360.908 114.642 360.57 112.732 372.954C110.822 385.339 106.911 431.98 106.911 431.98C106.911 431.98 106.021 441.299 112.616 441.802C115.371 442.013 127.606 441.943 138.239 441.807Z" fill="#553B8A"/>
<path d="M122.134 431.108C116.865 434.424 107.934 433.36 103.941 425.812C98.3571 432.22 96.5097 438.446 109.424 439.117C136.895 440.546 139.054 404.442 139.054 404.442L139.056 402.873C134.384 416.428 127.038 428.022 122.134 431.108Z" fill="#463374"/>
<path d="M173.292 467.771C173.292 467.771 164.357 472.96 164.527 489.389C164.696 505.818 164.524 549.553 164.524 549.553H185.135L187.332 499.114L197.222 465.393L173.292 467.771Z" fill="#2B1E45"/>
<path d="M197.222 465.393L189.565 466.153L179.757 471.862C179.757 471.862 174.863 478.776 174.888 487.49C174.913 496.204 183.376 514.5 183.376 514.5L182.722 549.554H185.135L187.332 499.115L197.222 465.393Z" fill="#1E162E"/>
<path d="M114.36 367.701C114.36 367.701 102.94 397.863 101.951 414.947C100.962 432.031 114.954 435.626 122.134 431.109C129.312 426.591 141.729 403.845 143.319 383.398L135.607 381.593C135.607 381.593 131.743 394.614 120.632 409.779C120.632 409.779 129.625 367.93 114.36 367.701Z" fill="#553B8A"/>
<path d="M122.298 361.482C125.041 373.833 124.823 386.489 121.659 398.74C121.605 398.945 121.924 399.033 121.977 398.827C125.153 386.532 125.369 373.79 122.616 361.394C122.57 361.187 122.252 361.275 122.298 361.482Z" fill="#372723"/>
<path d="M121.417 408.479C125.998 399.472 131.353 390.889 135.934 381.882C136.031 381.693 135.746 381.526 135.649 381.715C131.069 390.722 125.714 399.305 121.133 408.313C121.037 408.502 121.321 408.669 121.417 408.479Z" fill="#372723"/>
<path d="M143.155 383.397C142.187 390.755 140.358 397.873 137.698 404.8C135.12 411.516 132.342 418.757 128.216 424.702C123.789 431.081 115.055 436.734 107.448 431.888C99.3055 426.702 99.9681 415.894 101.342 407.631C101.376 407.423 101.059 407.334 101.024 407.543C99.7406 415.262 99.0305 424.274 105.017 430.333C110.203 435.583 118.059 434.599 123.531 430.318C130.077 425.196 133.244 416.419 136.352 409.012C139.821 400.75 142.315 392.294 143.485 383.397C143.512 383.188 143.182 383.19 143.155 383.397Z" fill="#372723"/>
<path d="M130.467 464.533C130.467 464.533 147.126 471.094 149.152 495.041C150.271 508.271 149.642 551.861 149.642 551.861H128.433C128.433 551.861 128.068 505.873 122.838 495.489C117.609 485.105 93.3267 464.533 93.3267 464.533H130.467Z" fill="#5E5B42"/>
<path d="M125.838 508.087C128.874 502.78 132.543 489.406 130.852 482.795C129.093 475.925 123.61 471.878 123.61 471.878L123.075 464.532H96.0806C96.8302 465.894 97.7097 467.483 98.6849 469.231C106.147 475.926 119.172 488.208 122.839 495.488C124.101 497.996 125.079 502.579 125.838 508.087Z" fill="#4C4936"/>
<path d="M172.826 432.844C171.894 426.132 166.233 371.55 166.233 371.55C166.233 371.55 164.815 359.406 151.113 359.471C151.432 361.683 151.725 367.001 150.682 372.527C149.312 379.78 153.927 432.635 158.432 440.107C158.759 440.649 159.166 441.081 159.626 441.435C164.066 441.35 166.948 441.289 166.948 441.289C166.948 441.289 174.029 441.504 172.826 432.844Z" fill="#553B8A"/>
<path d="M80.876 462.145C63.9033 462.145 65.363 449.941 65.363 449.941C65.363 449.941 67.6297 428.185 70.5835 409.318C73.5372 390.451 88.0277 389.009 88.0277 389.009H101.249H118.247C118.247 389.009 131.469 389.009 132.224 404.451C132.882 417.906 134.869 451.523 134.869 451.523C134.869 451.523 136.002 462.145 127.314 462.145H80.876Z" fill="#EAAC29"/>
<path d="M227.225 462.145C245.218 462.145 243.67 449.208 243.67 449.208C243.67 449.208 241.268 426.144 238.136 406.143C235.004 386.142 219.643 384.615 219.643 384.615H205.628H187.607C187.607 384.615 173.591 384.614 172.79 400.984C172.093 415.248 169.987 450.885 169.987 450.885C169.987 450.885 168.786 462.145 177.996 462.145H227.225Z" fill="#7F7767"/>
<path d="M93.957 389.009C93.957 389.009 97.3103 401.536 108.599 401.159C120.453 400.763 112.992 389.009 112.992 389.009H93.957Z" fill="#EABFAD"/>
<path d="M110.104 360.831H95.4082V380.114H110.104V360.831Z" fill="#EABFAD"/>
<path d="M110.105 360.831C110.105 360.831 116.6 379.68 110.105 380.114C103.609 380.549 100.397 375.714 100.397 375.714L110.105 360.831Z" fill="#EABFAD"/>
<path d="M147.183 349.157L133.962 350.269L133.536 332.033H148.232L147.183 349.157Z" fill="#EABFAD"/>
<path d="M148.232 332.033C148.232 332.033 153.122 349.857 146.626 350.291C140.13 350.726 136.919 345.891 136.919 345.891L148.232 332.033Z" fill="#EABFAD"/>
<path d="M194.693 375.834L209.389 375.834L209.389 356.551L194.693 356.551L194.693 375.834Z" fill="#EABFAD"/>
<path d="M194.693 356.551C194.693 356.551 188.197 375.399 194.693 375.834C201.188 376.268 204.4 371.433 204.4 371.433L194.693 356.551Z" fill="#EABFAD"/>
<path d="M69.1399 418.675C69.3522 418.675 69.3522 418.345 69.1399 418.345C68.9276 418.345 68.927 418.675 69.1399 418.675Z" fill="#372723"/>
<path d="M100.797 498.291C101.009 498.291 101.009 497.962 100.797 497.962C100.585 497.962 100.585 498.291 100.797 498.291Z" fill="#372723"/>
<path d="M100.658 498.128C99.8714 514.445 99.0848 530.762 98.2976 547.079C98.2871 547.292 98.6174 547.291 98.6273 547.079C99.4138 530.762 100.2 514.445 100.988 498.128C100.998 497.915 100.668 497.916 100.658 498.128Z" fill="#372723"/>
<path d="M102.941 467.914C114.165 474.599 122.378 485.294 125.94 497.863C125.998 498.067 126.316 497.981 126.258 497.776C122.674 485.127 114.402 474.357 103.108 467.629C102.925 467.52 102.759 467.805 102.941 467.914Z" fill="#372723"/>
<path d="M99.6409 547.393C105.894 547.577 112.584 548.419 118.807 547.814C119.016 547.794 119.019 547.464 118.807 547.485C112.583 548.089 105.894 547.247 99.6409 547.063C99.4286 547.056 99.4293 547.386 99.6409 547.393Z" fill="#372723"/>
<path d="M122.412 458.616C118.558 457.208 85.3449 448.693 85.3449 448.693L86.9226 435.945L67.2737 433.351C66.0975 442.896 65.363 449.941 65.363 449.941C65.363 449.941 63.9033 462.145 80.876 462.145H124.762C125.046 461.207 125.112 459.603 122.412 458.616Z" fill="#EABFAD"/>
<path d="M135.74 432.383C135.74 432.383 137.27 454.117 136.547 457.414C135.824 460.71 131.008 462.59 124.762 462.145L91.979 462.209V460.381C91.979 460.381 104.327 451.401 121.311 450.822C121.311 450.822 124.657 437.283 124.897 433.898C124.897 433.898 129.146 432.942 135.74 432.383Z" fill="#EABFAD"/>
<path d="M132.378 407.501C132.378 407.501 135.092 425.816 138.59 431.066C138.59 431.066 134.436 434.008 124.896 433.898" fill="#EAAC29"/>
<path d="M203.818 497.7C206.879 513.765 210.323 529.753 214.149 545.654C214.199 545.861 214.517 545.773 214.467 545.567C210.641 529.666 207.197 513.678 204.136 497.612C204.096 497.404 203.778 497.492 203.818 497.7Z" fill="#372723"/>
<path d="M191.854 384.614L190.427 392.141L211.095 384.614H191.854Z" fill="#EABFAD"/>
<path d="M230.6 464.533C230.6 464.533 234.364 485.27 209.318 491.78L222.688 551.861H198.046C198.046 551.861 179.715 494.925 179.36 492.061C177.454 476.668 193.596 464.532 193.596 464.532H230.6V464.533Z" fill="#2B1E45"/>
<path d="M174.21 393.979C174.21 393.979 172.663 397.416 171.756 401.866C170.85 406.317 164.751 448.343 164.751 448.343C164.751 448.343 162.526 459.886 172.086 462.209H182.058L178.761 456.837L174.21 393.979Z" fill="#7F7767"/>
<path d="M69.7325 414.947C69.7325 414.947 66.8381 428.965 63.4888 433.649C63.4888 433.649 75.4132 438.403 88.7643 436.939C88.7643 436.939 88.0292 432.627 88.4347 428.926" fill="#EAAC29"/>
<path d="M123.073 402.96C123.073 402.96 127.21 412.086 127.68 418.429C128.014 422.941 128.349 421.232 125.712 432.383L124.896 433.898C124.896 433.898 126.75 425.085 126.328 420.701C125.906 416.316 123.208 404.164 123.073 402.96Z" fill="#D19825"/>
<path d="M85.3447 448.693C85.3447 448.693 97.1709 449.831 104.808 452.413C104.808 452.413 114.561 449.131 119.588 448.693C119.588 448.693 124.354 433.843 124.896 433.898C124.896 433.898 124.106 440.192 121.311 450.822C121.311 450.822 113.095 450.959 105.504 453.774L85.3447 448.693Z" fill="#D19825"/>
<path d="M122.807 402.465C123.825 407.57 125.041 412.682 125.78 417.835C126.61 423.632 125.602 429.178 124.357 434.843C124.311 435.05 124.629 435.139 124.675 434.931C125.882 429.44 126.937 424.032 126.198 418.391C125.496 413.02 124.184 407.686 123.125 402.377C123.084 402.169 122.766 402.258 122.807 402.465Z" fill="#372723"/>
<path d="M76.0727 464.533C76.0727 464.533 71.2914 492.413 99.6426 494.061C99.6426 494.061 95.7362 526.038 98.4625 552.63H119.752C119.752 552.63 121.312 524.843 123.609 510.324C125.906 495.804 136.785 477.311 101.731 464.533H76.0727Z" fill="#5E5B42"/>
<path d="M151.622 464.533H151.322H77.8857V465.695C77.8857 465.695 95.2231 473.154 151.472 472.072C207.721 473.154 225.058 465.695 225.058 465.695V464.533H151.622Z" fill="#7763A1"/>
<path d="M129.164 499.632C129.164 499.632 132.11 526.257 131.536 551.861H128.434C128.434 551.861 128.083 525.681 125.896 507.123C125.896 507.123 127.917 499.488 129.164 499.632Z" fill="#4C4936"/>
<path d="M107.658 379.757L97.6657 377.582L95.4089 380.114C95.4089 380.114 95.7978 388.131 93.957 389.009L98.325 391.647L112.992 389.009C108.978 386.372 107.658 379.757 107.658 379.757Z" fill="#EABFAD"/>
<path d="M96.9469 368.9C96.9469 368.9 105.058 368.571 107.926 363.201C107.926 363.201 109.204 364.409 111.099 364.368C111.099 364.368 112.637 360.741 108.984 357.911C105.335 355.086 102.226 354.805 97.446 355.714C92.7991 356.597 88.6 360.769 88.6 366.703C88.6 372.637 87.9683 377.945 85.3449 382.598C82.7208 387.252 80.8912 387.471 81.0917 391.647C81.0917 391.647 84.7634 389.45 88.0277 389.01H93.9569C93.9569 389.01 97.748 388.543 98.5721 384.614C99.3963 380.686 95.7891 375.874 95.4087 372.264C95.4087 372.264 94.7448 369.202 96.9469 368.9Z" fill="#191931"/>
<path d="M96.947 368.9C96.947 368.9 95.8617 367.1 94.2134 367.965C92.2817 368.979 92.9911 372.691 96.947 372.361V368.9Z" fill="#EABFAD"/>
<path d="M111.476 379.638C111.476 379.638 112.061 382.251 114.204 384.998C116.347 387.745 116.401 389.009 116.401 389.009H112.992C112.992 389.009 109.452 387.151 107.737 380.113C107.737 380.113 110.689 380.198 111.476 379.638Z" fill="#191931"/>
<path d="M95.0816 372.455C95.491 373.873 96.3804 374.818 97.1465 376.041C98.657 378.45 99.1265 381.843 96.9085 384.028C96.7569 384.177 96.9903 384.41 97.1419 384.261C98.4427 382.979 98.8937 381.166 98.7223 379.364C98.454 376.542 96.149 374.964 95.3993 372.367C95.3407 372.163 95.0222 372.25 95.0816 372.455Z" fill="#191931"/>
<path d="M88.9534 364.332C88.6204 368.85 88.2868 373.442 86.8363 377.765C85.7438 381.02 83.6399 383.805 83.8166 387.357C83.8272 387.568 84.1568 387.57 84.1463 387.357C83.9445 383.306 86.7987 379.556 87.7883 375.678C88.7338 371.975 89.0035 368.13 89.283 364.333C89.2982 364.12 88.9685 364.122 88.9534 364.332Z" fill="#191931"/>
<path d="M88.8223 366.09C88.9996 371.227 87.8451 375.203 85.2738 379.632C83.4633 382.751 81.9357 385.739 82.3524 389.435C82.3761 389.644 82.7058 389.646 82.682 389.435C82.0768 384.065 85.7716 380.343 87.7575 375.75C89.0919 372.664 89.266 369.409 89.1519 366.091C89.1447 365.879 88.815 365.878 88.8223 366.09Z" fill="#191931"/>
<path d="M107.72 362.409C107.451 364.296 106.536 366.245 104.8 367.193C103.277 368.025 101.481 368.042 99.7928 368.072C99.5811 368.075 99.5805 368.405 99.7928 368.401C101.685 368.368 103.736 368.323 105.372 367.236C106.933 366.2 107.782 364.296 108.039 362.496C108.068 362.289 107.75 362.199 107.72 362.409Z" fill="#191931"/>
<path d="M111.805 379.33C111.724 379.415 111.643 379.5 111.552 379.572C112.774 382.486 115.866 384.787 115.287 388.195C115.252 388.402 115.57 388.491 115.605 388.282C116.215 384.695 112.998 382.402 111.805 379.33Z" fill="#191931"/>
<path d="M107.736 380.114C107.736 380.114 105.659 380.118 102.939 379.331C102.939 379.331 105.484 384.98 110.104 385.903C110.104 385.903 108.739 384.096 107.736 380.114Z" fill="#CF9B89"/>
<path d="M92.4 359.081C92.4211 358.548 91.9352 358.055 91.3325 357.891C90.7299 357.727 90.0502 357.856 89.5194 358.148C88.9893 358.44 88.5931 358.879 88.2898 359.347C87.5204 360.536 87.3021 361.968 87.6898 363.281C87.8276 363.748 88.09 364.246 88.6175 364.432C89.2016 364.638 89.8748 364.377 90.3541 364.029C91.142 363.456 91.6543 362.652 91.9477 361.812C92.2411 360.972 92.3288 360.091 92.3789 359.216" fill="#191931"/>
<path d="M91.814 389.009C91.8555 389.009 92.3632 397.251 100.99 402.196C110.579 407.693 118.351 402.168 116.943 395.652C115.857 390.628 113.901 389.009 113.901 389.009H91.814Z" fill="#A2222B"/>
<path d="M93.957 389.009C93.957 389.009 97.3103 401.536 108.599 401.159C120.453 400.763 112.992 389.009 112.992 389.009L104.461 388.402L93.957 389.009Z" fill="#EABFAD"/>
<path d="M99.6423 494.06C99.6423 494.06 97.5826 491.945 97.4178 490.173C97.4178 490.173 92.6357 493.555 82.5205 487.434C82.5205 487.434 87.6915 493.621 99.6423 494.06Z" fill="#4C4936"/>
<path d="M88.8932 419.26L87.804 449.237L85.3447 448.693L88.8932 419.26Z" fill="#D19825"/>
<path d="M83.6507 448.503C90.4298 449.932 97.143 451.637 103.821 453.479C107.059 454.373 110.289 455.295 113.518 456.224C115.208 456.709 125.387 458.672 124.552 461.413C124.49 461.617 124.808 461.703 124.87 461.501C125.439 459.633 123.98 459.038 122.455 458.457C118.461 456.935 114.084 456.036 109.973 454.865C101.291 452.391 92.5746 450.047 83.7384 448.184C83.5314 448.141 83.443 448.459 83.6507 448.503Z" fill="#372723"/>
<path d="M209.389 360.837C209.389 360.837 205.931 362.761 205.258 358.887C205.258 358.887 201.366 361.819 193.525 360.415L193.134 361.914C193.134 361.914 189.064 358.475 191.536 354.231C194.009 349.986 202.951 354.519 205.835 354.931C205.835 354.931 207.317 354.083 209.174 354.725C211.316 355.467 213.439 357.404 209.39 369.93V360.837H209.389Z" fill="#191931"/>
<path d="M208.122 361.9C208.122 361.9 209.207 360.101 210.855 360.966C212.787 361.98 212.077 365.691 208.122 365.362V361.9Z" fill="#EABFAD"/>
<path d="M205.212 358.413C203.716 363.205 196.91 360.543 193.633 359.816C193.426 359.77 193.358 359.953 193.565 359.999C196.94 360.747 203.967 363.505 205.53 358.5C205.593 358.298 205.275 358.211 205.212 358.413Z" fill="#191931"/>
<path d="M204.377 358.271C204.259 358.655 204.143 359.089 203.921 359.431C203.417 360.207 202.684 360.29 201.845 360.333C200.64 360.396 199.478 360.365 198.361 359.848C198.17 359.76 198.002 360.044 198.195 360.133C199.548 360.76 201.501 360.7 202.961 360.381C204.133 360.125 204.369 359.423 204.696 358.359C204.758 358.155 204.44 358.068 204.377 358.271Z" fill="#191931"/>
<path d="M191.814 355.218C190.943 356.008 190.069 357.356 190.308 358.604C190.569 359.963 192.114 360.237 193.255 360.346C193.465 360.367 193.516 360.041 193.304 360.021C192.219 359.916 190.651 359.814 190.549 358.461C190.464 357.335 191.194 356.223 192.009 355.484C192.165 355.342 191.971 355.076 191.814 355.218Z" fill="#191931"/>
<path d="M209.389 375.834L207.132 373.301L196.56 375.602C196.56 375.602 195.758 381.166 191.854 384.614L205.272 386.152L211.095 384.614C209.255 383.735 209.389 375.834 209.389 375.834Z" fill="#EABFAD"/>
<path d="M196.52 375.834C196.52 375.834 200.955 375.438 203.498 372.499C203.498 372.499 203.504 381.249 191.854 384.614C191.854 384.614 195.141 382.149 196.52 375.834Z" fill="#CF9B89"/>
<path d="M211.095 384.614L190.427 392.141L194.552 398.783L214.281 384.614C214.281 384.614 212.317 384.051 211.095 384.614Z" fill="#898378"/>
<path d="M190.427 392.141L183.278 394.939L191.343 383.397C191.343 383.397 191.813 382.695 193.556 382.747C193.556 382.747 192.804 384.229 191.854 384.613L190.427 392.141Z" fill="#898378"/>
<path d="M209.909 382.295C209.909 382.295 214.571 382.235 214.282 384.614H211.095C211.095 384.614 210.219 384.251 209.909 382.295Z" fill="#898378"/>
<path d="M212.16 384.374C212.16 384.374 211.504 384.411 211.095 384.614C211.095 384.614 210.563 384.411 210.197 383.414C210.197 383.414 212.531 383.436 212.16 384.374Z" fill="#726B5E"/>
<path d="M191.854 384.614C191.854 384.614 192.054 383.896 192.784 383.884C192.784 383.884 192.31 384.463 191.854 384.614Z" fill="#726B5E"/>
<path d="M189.845 419.654C189.845 419.654 193.485 445.742 207.551 462.209L215.41 462.133C215.41 462.133 198.291 444.914 189.845 419.654Z" fill="#726B5E"/>
<path d="M215.528 462.016C204.013 449.737 195.297 435.205 189.888 419.265C189.82 419.065 189.502 419.151 189.57 419.353C194.995 435.341 203.746 449.934 215.295 462.25C215.44 462.405 215.673 462.171 215.528 462.016Z" fill="#372723"/>
<path d="M219.032 419.308C219.032 419.308 218.723 433.19 216.983 433.242L220.6 434.941C220.6 434.941 220.271 434.639 220.216 434.2C220.161 433.76 219.032 419.833 219.032 419.308Z" fill="#726B5E"/>
<path d="M194.436 416.739C206.684 429.178 222.296 437.744 239.369 441.387C239.576 441.431 239.665 441.113 239.457 441.069C222.433 437.436 206.881 428.909 194.668 416.506C194.52 416.355 194.287 416.587 194.436 416.739Z" fill="#372723"/>
<path d="M218.867 418.784C219.305 424.115 219.744 429.447 220.182 434.777C220.199 434.987 220.529 434.989 220.512 434.777C220.073 429.446 219.635 424.115 219.197 418.784C219.179 418.575 218.849 418.573 218.867 418.784Z" fill="#372723"/>
<path d="M218.414 408.681C217.891 401.749 217.244 390.995 222.923 385.818C223.08 385.675 222.847 385.442 222.69 385.584C216.949 390.817 217.561 401.75 218.083 408.681C218.1 408.891 218.43 408.893 218.414 408.681Z" fill="#372723"/>
<path d="M183.278 394.939L186.055 395.603L190.427 392.141L183.278 394.939Z" fill="#726B5E"/>
<path d="M190.427 392.141L193.556 398.641L194.552 398.783L190.427 392.141Z" fill="#726B5E"/>
<path d="M194.552 398.783C194.552 398.783 204.804 392.086 209.09 389.943C213.375 387.8 215.886 385.768 216.631 384.614H214.282L194.552 398.783Z" fill="#726B5E"/>
<path d="M176.227 391.574C176.227 391.574 174.847 394.877 173.694 400.453C172.54 406.028 169.531 431.645 169.531 431.645L172.122 432.14C172.122 432.14 173.795 409.425 174.218 405.206C174.64 400.987 176.227 391.574 176.227 391.574Z" fill="#726B5E"/>
<path d="M172.286 431.233C172.958 417.806 174.365 404.349 176.472 391.073C176.505 390.865 176.187 390.776 176.154 390.985C174.043 404.292 172.63 417.775 171.957 431.233C171.946 431.445 172.276 431.444 172.286 431.233Z" fill="#372723"/>
<path d="M174.317 460.12H132.029C131.227 460.12 130.576 459.47 130.576 458.668L127.474 430.377C127.474 429.575 128.124 428.925 128.927 428.925H171.215C172.017 428.925 172.668 429.575 172.668 430.377L175.77 458.668C175.769 459.47 175.119 460.12 174.317 460.12Z" fill="#CBC8C7"/>
<path d="M165.006 367.989C166.934 374.296 167.122 380.979 167.787 387.51C168.277 392.317 168.832 397.122 169.253 401.936C169.272 402.146 169.601 402.148 169.583 401.936C169.142 396.897 168.56 391.868 168.048 386.836C167.402 380.482 167.201 374.046 165.324 367.901C165.263 367.7 164.945 367.785 165.006 367.989Z" fill="#372723"/>
<path d="M188.386 396.615C188.341 396.797 188.377 396.948 188.527 397.068C188.581 397.112 188.664 397.139 188.727 397.094C188.959 396.932 188.927 396.563 188.628 396.498C188.549 396.481 188.489 396.512 188.442 396.574C188.307 396.755 188.374 396.998 188.57 397.1C188.631 397.132 188.722 397.132 188.77 397.074C188.944 396.866 188.946 396.626 188.766 396.419C188.713 396.511 188.659 396.603 188.606 396.694C188.614 396.696 188.624 396.697 188.632 396.698C188.839 396.677 188.849 396.363 188.632 396.369C188.211 396.379 188.044 396.987 188.482 397.131C188.918 397.275 189.211 396.756 188.948 396.418C188.678 396.072 188.098 396.28 188.061 396.704C188.024 397.126 188.58 397.395 188.896 397.12C189.183 396.868 189.042 396.337 188.68 396.24C188.264 396.127 187.891 396.642 188.1 397.011C188.305 397.372 188.897 397.329 189.061 396.957C189.242 396.547 188.814 396.062 188.386 396.209C187.912 396.372 187.916 397.095 188.46 397.135C188.943 397.17 189.009 396.467 188.57 396.344C188.366 396.287 188.278 396.605 188.483 396.662C188.433 396.903 188.456 396.851 188.551 396.507C188.692 396.542 188.767 396.627 188.775 396.762C188.736 397.123 188.158 396.838 188.442 396.611C188.672 396.428 188.86 396.83 188.583 396.903C188.415 396.893 188.382 396.791 188.486 396.598C188.764 396.723 188.812 396.757 188.633 396.698C188.633 396.588 188.633 396.479 188.633 396.369C188.11 396.423 188.009 397.192 188.587 397.234C189.136 397.273 189.177 396.519 188.694 396.377C188.527 396.327 188.431 396.534 188.534 396.652C188.535 396.716 188.537 396.778 188.538 396.841C188.605 396.833 188.671 396.824 188.738 396.816C188.734 396.791 188.731 396.766 188.728 396.741C188.666 396.766 188.604 396.791 188.542 396.816C188.549 396.814 188.555 396.812 188.562 396.81C188.628 396.818 188.695 396.827 188.762 396.836C188.743 396.791 188.724 396.747 188.705 396.702C188.756 396.497 188.438 396.408 188.386 396.615Z" fill="#372723"/>
<path d="M187.855 399.651C187.81 399.833 187.846 399.984 187.996 400.104C188.05 400.148 188.133 400.175 188.196 400.13C188.427 399.968 188.396 399.599 188.097 399.534C188.018 399.517 187.957 399.548 187.911 399.61C187.776 399.791 187.843 400.034 188.039 400.136C188.1 400.168 188.191 400.168 188.239 400.11C188.413 399.902 188.415 399.662 188.235 399.455C188.181 399.547 188.128 399.639 188.075 399.731C188.083 399.732 188.092 399.733 188.101 399.735C188.307 399.713 188.317 399.4 188.101 399.405C187.68 399.415 187.513 400.023 187.951 400.167C188.387 400.311 188.679 399.792 188.417 399.454C188.147 399.108 187.566 399.316 187.529 399.741C187.492 400.162 188.049 400.431 188.365 400.156C188.652 399.904 188.511 399.373 188.149 399.276C187.732 399.164 187.359 399.678 187.569 400.047C187.773 400.408 188.365 400.365 188.53 399.993C188.711 399.583 188.282 399.098 187.855 399.245C187.381 399.408 187.384 400.131 187.929 400.171C188.412 400.206 188.478 399.503 188.039 399.381C187.835 399.323 187.747 399.642 187.951 399.698C187.902 399.94 187.924 399.888 188.019 399.543C188.161 399.578 188.236 399.663 188.243 399.799C188.205 400.159 187.626 399.874 187.91 399.648C188.141 399.464 188.329 399.866 188.052 399.939C187.883 399.929 187.851 399.827 187.955 399.634C188.232 399.76 188.281 399.793 188.102 399.735C188.102 399.624 188.102 399.515 188.102 399.405C187.579 399.46 187.477 400.228 188.056 400.27C188.605 400.31 188.646 399.555 188.163 399.413C187.996 399.363 187.9 399.57 188.003 399.688C188.004 399.752 188.005 399.814 188.007 399.878C188.073 399.869 188.14 399.861 188.207 399.852C188.203 399.827 188.2 399.802 188.197 399.777C188.135 399.802 188.073 399.828 188.011 399.853C188.017 399.851 188.024 399.848 188.03 399.846C188.097 399.855 188.164 399.863 188.23 399.872C188.212 399.828 188.193 399.783 188.174 399.739C188.224 399.533 187.907 399.445 187.855 399.651Z" fill="#372723"/>
<path d="M133.287 358.627C133.287 358.627 130.495 358.708 130.206 360.611L132.224 361.03L132.965 360.446C132.965 360.446 133.073 359.177 133.287 358.627Z" fill="#553B8A"/>
<path d="M150.573 358.13C150.573 358.13 151.43 359.95 151.312 361.438L153.497 359.59C153.497 359.59 152.985 358.113 150.573 358.13Z" fill="#553B8A"/>
<path d="M130.206 360.611C130.206 360.611 129.819 365.658 137.107 374.984L137.186 375.257C137.186 375.257 129.313 370.055 128.534 360.71L130.206 360.611Z" fill="#463374"/>
<path d="M153.496 359.591C153.496 359.591 155.35 366.048 150.573 373.45L150.525 373.872C150.525 373.872 156.817 369.328 155.674 359.966C155.674 359.966 154.628 359.69 153.496 359.591Z" fill="#463374"/>
<path d="M152.681 443.151C152.427 441.517 151.014 440.381 149.523 440.612C149.499 440.616 149.478 440.627 149.453 440.631C149.441 441.373 149.152 442.702 147.304 442.907C147.24 443.253 147.225 443.616 147.283 443.989C147.537 445.622 148.951 446.758 150.441 446.527C151.932 446.296 152.935 444.784 152.681 443.151Z" fill="#D9D9D9"/>
<path d="M135.419 336.852C135.419 336.852 137.065 335.852 137.186 334.369C137.186 334.369 141.62 337.632 145.384 336.852C149.148 336.073 148.531 333.211 148.531 333.211L149.072 335.683C149.072 335.683 151.317 332.968 149.999 330.66C148.681 328.352 145.576 327.363 141.731 327.363C137.885 327.363 135.825 328.847 135.825 328.847C135.825 328.847 131.115 329.391 132.687 335.918C132.687 335.918 131.582 342.282 133.839 344.972C133.839 344.972 134.04 342.665 133.84 340.206C133.839 340.207 133.86 337.316 135.419 336.852Z" fill="#191931"/>
<path d="M136.256 329.197C136.256 329.197 135.55 328.62 135.418 327.919C135.418 327.919 135.308 328.558 135.555 329.197C135.802 329.836 136.256 329.197 136.256 329.197Z" fill="#191931"/>
<path d="M135.825 329.115C135.825 329.115 134.504 328.847 134.196 327.919C134.196 327.919 134.113 329.043 134.814 329.48C135.514 329.918 135.825 329.115 135.825 329.115Z" fill="#191931"/>
<path d="M147.361 350.153C147.361 350.153 140.768 351.985 137.691 347.658C137.691 347.658 139.731 354.581 143.982 354.149C147.498 353.791 147.617 350.788 147.617 350.788L147.361 350.153Z" fill="#CF9B89"/>
<path d="M66.9722 435.817C66.9722 435.817 74.7317 439.826 86.6106 439.41L86.9013 437.105C86.9013 437.105 79.1636 438.093 67.0922 434.832L66.9722 435.817Z" fill="#CF9B89"/>
<path d="M88.8692 417.849C87.8439 428.139 86.6637 438.413 85.1856 448.649C85.1559 448.857 85.473 448.947 85.5033 448.737C86.9855 438.472 88.1709 428.168 89.1988 417.849C89.2199 417.638 88.8896 417.639 88.8692 417.849Z" fill="#372723"/>
<path d="M136.256 335.683C136.256 335.683 136.4 342.308 137.691 344.231C138.982 346.154 147.052 348.299 149.995 344.012C149.995 344.012 150.878 346.895 149.289 349.328C148.03 351.258 143.963 351.51 142.654 351.139C141.344 350.768 137.784 349.903 136.648 345.328C135.51 340.754 135.36 336.263 135.36 336.263L136.256 335.683Z" fill="#191931"/>
<path d="M136.919 345.082C136.919 345.082 136.895 346.291 136.674 346.785C136.674 346.785 137.064 346.291 137.185 345.934C137.307 345.577 136.919 345.082 136.919 345.082Z" fill="#191931"/>
<path d="M136.675 344.657C136.675 344.657 136.661 345.618 136.524 345.934C136.524 345.934 136.889 345.371 136.92 345.082C136.95 344.794 136.675 344.657 136.675 344.657Z" fill="#191931"/>
<path d="M141.885 341.648C140.563 341.648 139.488 340.573 139.488 339.251C139.488 337.929 140.563 336.854 141.885 336.854C143.207 336.854 144.283 337.929 144.283 339.251C144.283 340.573 143.207 341.648 141.885 341.648ZM141.885 337.347C140.836 337.347 139.982 338.201 139.982 339.25C139.982 340.299 140.836 341.153 141.885 341.153C142.935 341.153 143.789 340.299 143.789 339.25C143.789 338.201 142.935 337.347 141.885 337.347Z" fill="#191931"/>
<path d="M147.731 341.054C146.466 341.054 145.437 340.024 145.437 338.759C145.437 337.494 146.467 336.464 147.731 336.464C148.997 336.464 150.027 337.494 150.027 338.759C150.027 340.024 148.997 341.054 147.731 341.054ZM147.731 336.958C146.738 336.958 145.931 337.766 145.931 338.759C145.931 339.752 146.739 340.56 147.731 340.56C148.724 340.56 149.532 339.752 149.532 338.759C149.532 337.766 148.724 336.958 147.731 336.958Z" fill="#191931"/>
<path d="M144.054 338.872L143.747 338.485C144.084 338.215 144.95 337.851 145.821 338.402L145.556 338.82C144.773 338.322 144.084 338.849 144.054 338.872Z" fill="#191931"/>
<path d="M139.604 338.969C139.569 338.947 136.142 336.811 134.58 336.408L134.704 335.929C136.339 336.35 139.723 338.46 139.867 338.549L139.604 338.969Z" fill="#191931"/>
<path d="M135.419 336.852C135.419 336.852 134.334 335.053 132.686 335.918C130.754 336.932 131.463 340.643 135.419 340.314V336.852Z" fill="#EABFAD"/>
<path d="M209.318 491.78C209.318 491.78 208.87 489.28 209.749 487.962C209.749 487.962 210.403 490.479 217.658 488.616C217.658 488.616 214.223 490.647 209.318 491.78Z" fill="#1E162E"/>
<path d="M104.66 370.223C104.836 370.192 104.944 369.976 104.903 369.741C104.861 369.505 104.685 369.34 104.51 369.371C104.334 369.402 104.225 369.618 104.267 369.853C104.308 370.088 104.484 370.254 104.66 370.223Z" fill="#191931"/>
<path d="M111.164 368.82C111.34 368.789 111.449 368.573 111.407 368.338C111.366 368.103 111.19 367.938 111.014 367.969C110.838 368 110.729 368.215 110.771 368.451C110.813 368.686 110.989 368.851 111.164 368.82Z" fill="#191931"/>
<path d="M108.51 369.374C108.51 369.374 109.182 371.165 110.045 371.677C110.908 372.188 109.981 372.924 109.278 373.02C108.574 373.115 108.063 369.342 108.51 369.374Z" fill="#DA8A7B"/>
<path d="M200.99 364.937C200.998 364.699 200.86 364.5 200.682 364.494C200.504 364.488 200.353 364.677 200.345 364.915C200.337 365.154 200.475 365.353 200.653 365.359C200.831 365.365 200.982 365.176 200.99 364.937Z" fill="#191931"/>
<path d="M194.352 364.464C194.36 364.225 194.222 364.027 194.044 364.021C193.866 364.015 193.715 364.203 193.706 364.442C193.698 364.681 193.836 364.879 194.015 364.885C194.193 364.891 194.344 364.703 194.352 364.464Z" fill="#191931"/>
<path d="M196.72 365.043C196.72 365.043 196.307 366.91 195.525 367.539C194.742 368.166 195.763 368.764 196.473 368.761C197.183 368.757 197.159 364.948 196.72 365.043Z" fill="#DA8A7B"/>
<path d="M142.488 340.053C142.667 340.047 142.805 339.848 142.797 339.61C142.788 339.371 142.637 339.182 142.459 339.188C142.281 339.194 142.143 339.393 142.151 339.631C142.159 339.87 142.31 340.059 142.488 340.053Z" fill="#191931"/>
<path d="M147.952 339.826C148.13 339.82 148.268 339.621 148.26 339.383C148.252 339.144 148.101 338.955 147.922 338.961C147.744 338.967 147.606 339.166 147.614 339.404C147.622 339.643 147.773 339.832 147.952 339.826Z" fill="#191931"/>
<path d="M108.615 376.224C108.521 376.224 108.423 376.217 108.32 376.204C106.726 375.987 106.708 374.386 106.708 374.371V373.927L106.997 374.263C107.04 374.313 108.087 375.491 110.147 374.899L110.49 374.801L110.343 375.126C110.338 375.137 109.831 376.224 108.615 376.224ZM107.104 374.794C107.218 375.199 107.528 375.763 108.365 375.877C109.112 375.979 109.584 375.61 109.829 375.315C108.478 375.58 107.567 375.132 107.104 374.794Z" fill="#191931"/>
<path d="M195.777 372.266C195.31 372.266 194.987 372.194 194.978 372.191L195.053 371.871C195.15 371.893 197.422 372.398 198.49 370.443L198.779 370.601C198.006 372.016 196.643 372.266 195.777 372.266Z" fill="#191931"/>
<path d="M144.083 342.052C144.083 342.052 144.416 341.498 145.204 341.415C145.993 341.331 146.35 341.828 146.35 341.828C146.35 341.828 146.12 342.17 145.425 342.29C144.73 342.41 144.083 342.052 144.083 342.052Z" fill="#DA8A7B"/>
<path d="M144.435 345.859C144.228 345.859 144.004 345.824 143.761 345.742C142.975 345.474 142.598 345.017 142.54 344.264L142.513 343.903L142.803 344.119C142.817 344.129 144.263 345.189 145.821 344.79L146.241 344.682L145.998 345.042C145.992 345.052 145.433 345.859 144.435 345.859ZM142.931 344.592C143.053 344.997 143.343 345.251 143.868 345.429C144.558 345.665 145.074 345.433 145.385 345.198C144.33 345.292 143.401 344.864 142.931 344.592Z" fill="#191931"/>
<path d="M135.009 340.333C135.009 340.333 134.949 341.827 133.923 342.034L133.838 340.208C133.838 340.208 134.472 340.383 135.009 340.333Z" fill="#CF9B89"/>
<path d="M208.122 365.362C208.122 365.362 208.153 367.73 209.389 368.369V365.32C209.389 365.32 208.704 365.446 208.122 365.362Z" fill="#CF9B89"/>
<path d="M123.932 459.871C127.643 461.034 131.961 459.588 135.229 462.104C135.397 462.233 135.561 461.947 135.395 461.819C132.087 459.272 127.761 460.726 124.019 459.553C123.817 459.49 123.73 459.808 123.932 459.871Z" fill="#372723"/>
<path d="M124.806 460.144C128.415 460.274 132.326 459.036 135.111 461.993C135.256 462.147 135.489 461.914 135.344 461.759C132.471 458.71 128.559 459.949 124.806 459.815C124.595 459.808 124.595 460.137 124.806 460.144Z" fill="#372723"/>
<path d="M181.271 462.209H132.816C132.381 462.209 132.029 461.857 132.029 461.423V460.907C132.029 460.473 132.381 460.121 132.816 460.121H181.271C181.705 460.121 182.058 460.473 182.058 460.907V461.423C182.058 461.857 181.705 462.209 181.271 462.209Z" fill="#CBC8C7"/>
<path d="M130.577 458.668C130.577 459.47 131.227 460.121 132.029 460.121H174.318C175.119 460.121 175.77 459.471 175.77 458.668L175.258 453.997L128.33 438.177L130.577 458.668Z" fill="#D9D9D9"/>
<path d="M147.453 444.623C147.927 445.903 149.154 446.726 150.442 446.526C150.876 446.459 151.26 446.274 151.592 446.019L147.453 444.623Z" fill="#CBC8C7"/>
<path d="M182.058 461.423V460.907C182.058 460.473 181.705 460.121 181.271 460.121H132.816C132.381 460.121 132.029 460.473 132.029 460.907V460.937H176.846C177.567 460.957 177.503 461.555 177.503 461.555V462.134L177.541 462.21H181.272C181.705 462.209 182.058 461.857 182.058 461.423Z" fill="#8E8A87"/>
<path d="M132.815 460.285C146.649 460.285 160.483 460.285 174.317 460.285C174.529 460.285 174.529 459.955 174.317 459.955C160.483 459.955 146.649 459.955 132.815 459.955C132.604 459.955 132.603 460.285 132.815 460.285Z" fill="#372723"/>
<path d="M192.141 417.936L190.068 419.076C190.068 419.076 189.874 419.26 189.52 418.874C189.166 418.487 187.881 417.745 187.767 416.19C187.687 415.108 188.661 414.363 189.238 413.993C189.238 413.993 189.019 412.985 190.164 413.056C190.164 413.056 189.791 412.424 189.778 412.209C189.778 412.209 189.656 412.103 189.423 412.066C189.191 412.03 187.353 411.809 186.998 411.15C186.642 410.491 187.775 410.891 188.651 410.882C189.526 410.872 190.268 410.658 190.268 410.658C190.268 410.658 192.967 412.546 193.097 412.602C193.226 412.659 194.399 413.006 194.631 413.876C194.863 414.745 194.451 415.641 194.451 415.641C194.451 415.641 194.409 416.61 194.317 416.733C194.225 416.856 192.141 417.936 192.141 417.936Z" fill="#EABFAD"/>
<path d="M189.812 419.451C191.388 418.5 193.058 417.715 194.636 416.765C194.817 416.655 194.651 416.37 194.469 416.48C192.893 417.431 191.223 418.215 189.646 419.166C189.465 419.275 189.63 419.561 189.812 419.451Z" fill="#372723"/>
<path d="M194.571 416.666C195.091 413.587 192.638 411.914 190.247 410.545C190.062 410.439 189.896 410.724 190.081 410.83C192.295 412.097 194.745 413.667 194.253 416.579C194.218 416.786 194.535 416.875 194.571 416.666Z" fill="#372723"/>
<path d="M190.12 410.528C189.566 410.661 189.005 410.733 188.437 410.756C187.976 410.774 187.492 410.693 187.038 410.738C186.984 410.743 186.92 410.764 186.895 410.82C186.708 411.238 187.251 411.59 187.572 411.759C188.229 412.107 188.983 412.172 189.7 412.314C189.907 412.355 189.996 412.037 189.788 411.996C189.292 411.898 188.789 411.844 188.304 411.695C188.083 411.627 187.858 411.549 187.657 411.432C187.51 411.35 187.38 411.248 187.27 411.124C187.046 411.054 187.058 411.037 187.305 411.075C187.776 411.029 188.275 411.103 188.753 411.07C189.244 411.035 189.728 410.962 190.208 410.847C190.414 410.797 190.327 410.479 190.12 410.528Z" fill="#372723"/>
<path d="M189.585 412.198C189.754 412.614 189.98 412.985 190.276 413.323C190.416 413.483 190.648 413.249 190.509 413.09C190.253 412.796 190.05 412.471 189.903 412.111C189.824 411.917 189.505 412.002 189.585 412.198Z" fill="#372723"/>
<path d="M190.486 413.052C189.806 412.645 188.982 413.11 188.99 413.905C188.992 414.117 189.322 414.117 189.32 413.905C189.314 413.361 189.851 413.056 190.319 413.336C190.501 413.446 190.668 413.161 190.486 413.052Z" fill="#372723"/>
<path d="M192.866 412.711C193.487 412.972 194.208 413.274 194.461 413.955C194.658 414.487 194.5 415.199 194.333 415.73C194.269 415.933 194.587 416.019 194.65 415.817C194.849 415.188 195.024 414.33 194.722 413.713C194.377 413.005 193.64 412.682 192.953 412.393C192.758 412.312 192.673 412.63 192.866 412.711Z" fill="#372723"/>
<path d="M137.296 382.04C137.296 382.04 137.1 378.66 136.599 377.897C136.599 377.897 137.443 378.486 137.67 378.805C137.67 378.805 137.868 378.934 137.897 378.52C137.926 378.106 137.947 374.058 137.846 373.494C137.846 373.494 138.858 374.496 139.188 377.119L139.333 377.214C139.333 377.214 140.105 376.658 140.63 377.665C140.63 377.665 141.567 377.09 142.11 377.82C142.11 377.82 142.933 377.438 143.506 377.92C144.08 378.401 144.061 378.957 144.061 378.957C144.061 378.957 145.333 380.953 142.504 383.246L137.296 382.04Z" fill="#EABFAD"/>
<path d="M135.749 381.957C138.28 382.387 140.744 383.127 143.275 383.556C143.483 383.591 143.572 383.273 143.363 383.238C140.831 382.809 138.367 382.068 135.836 381.64C135.629 381.605 135.54 381.922 135.749 381.957Z" fill="#372723"/>
<path d="M137.454 382.005C137.106 380.609 137.45 379.128 136.741 377.822C136.665 377.897 136.59 377.973 136.515 378.048C136.951 378.348 137.329 378.683 137.681 379.074C137.823 379.232 138.055 378.998 137.914 378.84C137.54 378.425 137.141 378.078 136.682 377.762C136.539 377.664 136.383 377.852 136.456 377.988C137.143 379.252 136.799 380.736 137.136 382.092C137.188 382.298 137.505 382.211 137.454 382.005Z" fill="#372723"/>
<path d="M138.03 378.871C138.2 377.042 138.089 375.215 138.006 373.385C137.913 373.424 137.818 373.463 137.725 373.502C138.611 374.539 138.803 376.087 139.075 377.384C139.118 377.591 139.436 377.504 139.393 377.296C139.103 375.919 138.9 374.372 137.957 373.269C137.865 373.161 137.67 373.248 137.676 373.386C137.758 375.215 137.87 377.043 137.7 378.871C137.681 379.082 138.01 379.081 138.03 378.871Z" fill="#372723"/>
<path d="M139.381 377.417C139.794 376.941 140.331 377.386 140.516 377.823C140.599 378.017 140.883 377.85 140.801 377.657C140.531 377.019 139.694 376.555 139.148 377.184C139.01 377.344 139.242 377.578 139.381 377.417Z" fill="#372723"/>
<path d="M140.749 377.866C141.135 377.454 141.741 377.52 142.019 378.011C142.123 378.196 142.409 378.03 142.304 377.845C141.924 377.172 141.045 377.069 140.516 377.632C140.37 377.787 140.603 378.021 140.749 377.866Z" fill="#372723"/>
<path d="M105.165 552.63C105.165 552.63 108.504 566.378 115.903 566.86C121.572 567.23 119.365 556.108 116.824 552.63H105.165Z" fill="#191931"/>
<path d="M133.186 551.861C133.186 551.861 132.692 556.888 137.06 558.619C141.428 560.349 153.79 561.586 156.18 561.174C158.57 560.761 159.477 555.734 146.537 551.861H133.186Z" fill="#191931"/>
<path d="M170.52 549.553C170.52 549.553 164.174 554.415 162.196 558.289C160.218 562.162 167.306 560.761 172.25 557.794C177.195 554.828 183.055 552.438 182.722 549.553H170.52Z" fill="#191931"/>
<path d="M203.977 551.861C203.977 551.861 201.749 566.59 207.88 568.124C214.088 569.677 214.116 552.767 213.951 551.861H203.977Z" fill="#191931"/>
<path d="M46.5445 518.055C46.5445 518.055 46.9111 503.861 45.5193 490.089C45.5127 490.111 40.5949 506.245 46.0019 522.7C46.4259 523.201 46.8544 523.695 47.2882 524.179L46.5445 518.055Z" fill="#4C4936"/>
<path d="M60.8237 493.561C52.4273 498.558 50.4751 518.181 50.0234 526.683C60.38 509.219 60.8178 493.789 60.8237 493.561Z" fill="#4C4936"/>
<path d="M51.1837 501.863L58.0254 498.531C58.545 494.469 58.8186 490.556 58.8496 487.049L52.7219 488.566L58.8476 485.531C58.7243 475.03 56.2756 468.808 51.6188 474.61C50.7749 475.662 50.0451 476.892 49.4114 478.257L52.7219 482.083L48.8444 479.573C47.7632 482.305 47.0194 485.488 46.5263 488.872L50.5237 493.561L46.3687 490.027C44.4125 505.357 47.2852 524.165 47.2871 524.179C48.1344 525.123 49.002 526.035 49.8855 526.916C53.7906 519.566 56.3943 509.789 57.7479 500.544L51.1837 501.863Z" fill="#679C93"/>
<path d="M60.9131 519.374L57.9224 518.754C56.6961 520.189 54.9581 522.946 54.4834 527.3C56.8543 525.109 59.0274 522.364 60.9131 519.374Z" fill="#4C4936"/>
<path d="M59.1786 517.521C59.1786 517.521 58.938 517.701 58.5747 518.056L61.8265 517.871C61.9141 517.721 61.9972 517.569 62.0829 517.418L59.1786 517.521Z" fill="#4C4936"/>
<path d="M92.8843 550.007C96.8105 546.62 99.4636 541.927 100.01 536.544C100.209 534.585 100.11 532.66 99.7603 530.804L76.6803 534.176L55.2307 527.522C54.8503 528.649 54.5707 529.823 54.394 531.033C66.0514 540.778 79.9709 546.115 92.8843 550.007Z" fill="#679C93"/>
<path d="M55.5596 526.616L76.6814 534.176L57.5448 522.807C56.7549 523.999 56.0864 525.272 55.5596 526.616Z" fill="#679C93"/>
<path d="M59.1543 520.69L76.6803 534.176L76.7653 512.834C69.7212 512.839 63.3278 515.855 59.1543 520.69Z" fill="#679C93"/>
<path d="M80.6992 513.144L76.6807 534.176L95.1587 521.209C91.6788 517.062 86.6034 514.081 80.6992 513.144Z" fill="#679C93"/>
<path d="M96.4686 522.934L76.6812 534.176L98.8948 527.649C98.2896 525.984 97.4727 524.403 96.4686 522.934Z" fill="#679C93"/>
<path d="M257.602 559.538C271.155 559.538 282.142 557.857 282.142 555.782C282.142 553.708 271.155 552.026 257.602 552.026C244.049 552.026 233.062 553.708 233.062 555.782C233.062 557.857 244.049 559.538 257.602 559.538Z" fill="#1E162E"/>
<path d="M265.801 515.325C265.801 515.325 266.492 493.921 291.348 486.539C291.348 486.539 287.896 507.649 271.843 515.325H265.801Z" fill="#EAAC29"/>
<path d="M284.693 489.099C266.371 497.934 265.801 515.325 265.801 515.325H268.475C281.395 505.733 284.666 489.236 284.693 489.099Z" fill="#A2222B"/>
<path d="M264.248 515.325C264.248 515.325 263.731 481.211 288.069 465.512C288.069 465.512 285.822 496.947 268.476 515.325H264.248Z" fill="#EAAC29"/>
<path d="M269.212 489.727C264.064 502.981 264.248 515.326 264.248 515.326H265.802C271.143 505.338 269.22 489.787 269.212 489.727Z" fill="#A2222B"/>
<path d="M261.235 515.325C261.235 515.325 251.303 464.715 257.69 435.774C257.69 435.774 274.951 473.644 265.803 515.325H261.235Z" fill="#EAAC29"/>
<path d="M259.93 507.882C265.786 475.074 255.602 456.532 255.578 456.487C255.228 475.76 258.152 496.95 259.93 507.882Z" fill="#A2222B"/>
<path d="M256.653 515.325C256.653 515.325 255.444 475.187 244.742 463.277C244.742 463.277 239.391 494.185 252.855 515.325H256.653Z" fill="#EAAC29"/>
<path d="M250.034 473.109C250.026 473.209 247.603 504.215 254.928 515.325L256.558 513.106C256.221 506.502 254.844 486.589 250.034 473.109Z" fill="#A2222B"/>
<path d="M245.07 494.226C246.354 501.394 248.714 508.822 252.856 515.325H256.653C255.274 501.969 245.094 494.244 245.07 494.226Z" fill="#A2222B"/>
<path d="M251.719 553.289H270.823C286.652 543.66 283.219 519.166 283.219 519.166L261.271 517.606L239.324 519.166C239.324 519.166 235.89 543.66 251.719 553.289Z" fill="#BAB0D0"/>
<path d="M285.445 519.886H237.096C236.528 519.886 236.068 519.426 236.068 518.859V516.352C236.068 515.785 236.529 515.325 237.096 515.325H285.445C286.012 515.325 286.472 515.785 286.472 516.352V518.859C286.472 519.427 286.012 519.886 285.445 519.886Z" fill="#7763A1"/>
<path d="M283.44 521.665C283.44 521.665 258.493 521.555 239.139 528.576C239.139 528.576 238.829 522.127 239.24 519.886H283.3C283.3 519.886 283.408 521.069 283.44 521.665Z" fill="#1E162E"/>
<path d="M254.927 515.325C254.927 515.325 245.433 480.194 254.927 457.754C254.927 457.754 262.867 483.828 258.379 515.325H254.927Z" fill="#EAAC29"/>
<path d="M254.927 515.325C254.927 515.325 247.85 491.159 228.862 486.539C228.862 486.539 233.178 506.613 248.023 515.325H254.927Z" fill="#EAAC29"/>
<path d="M267.418 473.119C267.182 471.219 266.915 469.368 266.623 467.572L262.909 470.182L259.438 504.772C260.436 511.257 261.234 515.325 261.234 515.325C268.067 502.562 267.427 473.533 267.418 473.119Z" fill="#A2222B"/>
<path d="M256.653 515.325H258.379L259.057 480.971C259.057 480.971 255.75 493.312 256.653 515.325Z" fill="#A2222B"/>
<path d="M257.602 515.325C257.602 515.325 257.343 462.587 266.837 439.975C266.837 439.975 268.85 489.928 262.406 515.325H257.602Z" fill="#EAAC29"/>
<path d="M228.862 486.539C228.862 486.539 230.459 493.939 235.03 501.702C234.695 490.651 228.862 486.539 228.862 486.539Z" fill="#A2222B"/>
<path d="M263.202 451.854C263.202 451.854 259.505 458.094 260.582 466.77C260.582 466.77 262.176 455.965 263.202 451.854Z" fill="#A2222B"/>
<path d="M277.021 519.886C277.021 519.886 277.329 542.008 266.901 553.289H265.802C265.802 553.289 276.001 540.694 275.247 519.886H277.021Z" fill="#1E162E"/>
<path d="M261.746 553.289C261.746 553.289 264.435 532.507 264.248 519.886H265.802C265.802 519.886 264.99 541.678 262.297 553.289H261.746Z" fill="#1E162E"/>
<path d="M249.387 462.145H54.0703V464.533H249.387V462.145Z" fill="#BAB0D0"/>
<path d="M60.1875 464.698C80.8446 464.698 101.501 464.698 122.158 464.698C154.382 464.698 186.606 464.698 218.83 464.698C226.544 464.698 234.259 464.698 241.974 464.698C242.186 464.698 242.186 464.368 241.974 464.368C221.317 464.368 200.66 464.368 180.003 464.368C147.779 464.368 115.556 464.368 83.3315 464.368C75.6169 464.368 67.9022 464.368 60.1875 464.368C59.9752 464.368 59.9752 464.698 60.1875 464.698Z" fill="#372723"/>
<path d="M180.873 461.857C181.046 461.857 181.185 461.718 181.185 461.546C181.185 461.373 181.046 461.234 180.873 461.234C180.701 461.234 180.562 461.373 180.562 461.546C180.562 461.718 180.701 461.857 180.873 461.857Z" fill="#1E162E"/>
<path d="M179.87 461.857C180.043 461.857 180.182 461.718 180.182 461.546C180.182 461.373 180.043 461.234 179.87 461.234C179.698 461.234 179.559 461.373 179.559 461.546C179.559 461.718 179.698 461.857 179.87 461.857Z" fill="#1E162E"/>
<path d="M115.832 471.655C119.956 474.635 123.696 478.309 125.522 483.162C127.401 488.155 127.036 493.7 126.075 498.85C125.134 503.89 123.61 508.749 122.909 513.843C122.419 517.409 122.021 521.002 121.675 524.585C120.775 533.911 120.242 543.283 119.587 552.629C119.573 552.84 119.902 552.84 119.917 552.629C120.594 542.958 121.096 533.246 122.104 523.603C122.716 517.758 123.256 511.85 124.69 506.139C125.948 501.126 127.229 496.129 127.185 490.92C127.112 482.476 122.67 476.189 115.999 471.369C115.826 471.246 115.662 471.532 115.832 471.655Z" fill="#372723"/>
<path d="M186.415 471.562C181.312 478.15 177.52 485.978 179.786 494.438C179.84 494.643 180.159 494.556 180.104 494.35C177.87 486.009 181.626 478.278 186.648 471.795C186.776 471.629 186.544 471.394 186.415 471.562Z" fill="#372723"/>
<path d="M179.786 494.438C185.595 513.654 191.638 532.827 197.887 551.905C197.953 552.105 198.272 552.02 198.205 551.817C191.955 532.74 185.913 513.567 180.103 494.35C180.042 494.148 179.724 494.234 179.786 494.438Z" fill="#372723"/>
<path d="M81.0913 391.647C81.0913 391.647 81.3194 393.615 83.3521 393.24C85.1375 392.911 84.6984 389.642 87.4181 389.092C90.1378 388.543 83.4899 388.707 83.4899 388.707L81.7592 390.136L81.0913 391.647Z" fill="#191931"/>
<path d="M95.1879 547.69C76.0031 545.206 54.394 531.032 54.394 531.032C66.0508 540.777 79.9703 546.115 92.8843 550.006C93.713 549.292 94.4812 548.516 95.1879 547.69Z" fill="#4C4936"/>
<path d="M268.382 344.262H178.325C178.095 344.482 177.865 344.701 177.633 344.922H268.381V344.262H268.382Z" fill="#CBC8C7"/>
<path d="M187.294 335.738H268.028C267.87 335.517 267.712 335.295 267.552 335.079H188.002C187.767 335.296 187.532 335.516 187.294 335.738Z" fill="#CBC8C7"/>
<path d="M267.221 348.103H180.545V344.327H267.221V348.103ZM181.204 347.443H266.561V344.986H181.204V347.443Z" fill="#CBC8C7"/>
</g>
<defs>
<filter id="filter0_d_248_41" x="-140.361" y="30.3964" width="691.361" height="602.604" filterUnits="userSpaceOnUse" color-interpolation-filters="sRGB">
<feFlood flood-opacity="0" result="BackgroundImageFix"/>
<feColorMatrix in="SourceAlpha" type="matrix" values="0 0 0 0 0 0 0 0 0 0 0 0 0 0 0 0 0 0 127 0" result="hardAlpha"/>
<feOffset dy="4"/>
<feGaussianBlur stdDeviation="2"/>
<feComposite in2="hardAlpha" operator="out"/>
<feColorMatrix type="matrix" values="0 0 0 0 0 0 0 0 0 0 0 0 0 0 0 0 0 0 0.25 0"/>
<feBlend mode="normal" in2="BackgroundImageFix" result="effect1_dropShadow_248_41"/>
<feBlend mode="normal" in="SourceGraphic" in2="effect1_dropShadow_248_41" result="shape"/>
</filter>
</defs>
</svg>
