<svg width="93" height="93" viewBox="0 0 93 93" fill="none" xmlns="http://www.w3.org/2000/svg">
<path d="M15.5142 75.2864L15.5142 17.4399C15.5142 14.8829 16.5299 12.4307 18.338 10.6226C20.146 8.81458 22.5983 7.79883 25.1552 7.79883L77.2171 7.79883V84.9275L25.1552 84.9275C22.5983 84.9275 20.146 83.9117 18.338 82.1037C16.5299 80.2956 15.5142 77.8434 15.5142 75.2864ZM15.5142 75.2864C15.5142 72.7294 16.5299 70.2772 18.338 68.4691C20.146 66.6611 22.5983 65.6453 25.1552 65.6453H77.2171" stroke="white" stroke-width="2" stroke-linecap="round" stroke-linejoin="round"/>
<path d="M61.7914 31.7088C61.7914 27.081 57.935 23.2246 53.3072 23.2246C50.2221 23.2246 47.9082 24.3815 46.3657 26.6954C44.8231 24.3815 42.5092 23.2246 39.4241 23.2246C34.7964 23.2246 30.9399 27.081 30.9399 31.7088C30.9399 34.0226 32.0969 36.3365 33.6394 37.8791C38.6528 42.8924 46.3657 50.2196 46.3657 50.2196C46.3657 50.2196 54.0785 42.8924 59.0919 38.2647C60.6345 36.7221 61.7914 34.4083 61.7914 31.7088Z" stroke="white" stroke-width="2" stroke-linecap="round" stroke-linejoin="round"/>
</svg>
