<svg width="184" height="165" viewBox="0 0 184 165" fill="none" xmlns="http://www.w3.org/2000/svg">
<path d="M184 126.191H0V126.274H184V126.191Z" fill="#EBEBEB"/>
<path d="M27.1092 129.334H19.3047V129.417H27.1092V129.334Z" fill="#EBEBEB"/>
<path d="M94.2498 128.439H62.9805V128.521H94.2498V128.439Z" fill="#EBEBEB"/>
<path d="M38.9261 132.399H24.9023V132.481H38.9261V132.399Z" fill="#EBEBEB"/>
<path d="M165.563 131.844H149.668V131.927H165.563V131.844Z" fill="#EBEBEB"/>
<path d="M148.467 131.844H144.061V131.927H148.467V131.844Z" fill="#EBEBEB"/>
<path d="M136.487 130.451H128.023V130.533H136.487V130.451Z" fill="#EBEBEB"/>
<path d="M123.771 130.451H105.943V130.533H123.771V130.451Z" fill="#EBEBEB"/>
<path d="M87.2215 111.474H16.1611C15.003 111.474 14.0605 110.629 14.0605 109.59V20.0178C14.0605 18.9793 15.003 18.1342 16.1611 18.1342H87.2215C88.3793 18.1342 89.3217 18.9793 89.3217 20.0178V109.59C89.3217 110.629 88.3793 111.474 87.2215 111.474ZM16.1611 18.217C15.0534 18.217 14.1525 19.0248 14.1525 20.0181V109.591C14.1525 110.584 15.0534 111.392 16.1611 111.392H87.2215C88.3288 111.392 89.2297 110.584 89.2297 109.591V20.0178C89.2297 19.0248 88.3288 18.2167 87.2215 18.2167L16.1611 18.217Z" fill="#EBEBEB"/>
<path d="M166.818 111.474H95.7584C94.6003 111.474 93.6582 110.629 93.6582 109.59V20.0178C93.6582 18.9793 94.6007 18.1342 95.7584 18.1342H166.818C167.977 18.1342 168.919 18.9793 168.919 20.0178V109.59C168.919 110.629 167.977 111.474 166.818 111.474ZM95.7584 18.217C94.6511 18.217 93.7502 19.0248 93.7502 20.0181V109.591C93.7502 110.584 94.6511 111.392 95.7584 111.392H166.818C167.926 111.392 168.827 110.584 168.827 109.591V20.0178C168.827 19.0248 167.926 18.2167 166.818 18.2167L95.7584 18.217Z" fill="#EBEBEB"/>
<path d="M27.6109 126.191H33.2773L33.2773 87.0802H27.6109L27.6109 126.191Z" fill="#F0F0F0"/>
<path d="M82.8786 87.0804H33.2773V126.192H82.8786V87.0804Z" fill="#F5F5F5"/>
<path d="M83.3327 101.84H39.7832V122.758H83.3327V101.84Z" fill="#FAFAFA"/>
<path d="M83.3327 92.7333H39.7832V99.6201H83.3327V92.7333Z" fill="#FAFAFA"/>
<path opacity="0.7" d="M39.3926 122.758H39.7812V101.84H39.3926V122.758Z" fill="#E6E6E6"/>
<path opacity="0.7" d="M39.3926 99.6199H39.7812V92.7331H39.3926V99.6199Z" fill="#E6E6E6"/>
<path opacity="0.7" d="M27.6107 89.6148H83.0039V88.7304H27.6107V89.6148Z" fill="#E6E6E6"/>
<path d="M26.9488 89.103H33.2773V86.5451H26.9488V89.103Z" fill="#F0F0F0"/>
<path d="M83.5406 86.5451H33.2773V89.103H83.5406V86.5451Z" fill="#F5F5F5"/>
<path d="M48.1535 79.036C47.8256 78.6512 47.6718 78.1532 47.6188 77.6615C47.5724 77.1669 47.6195 76.657 47.7623 76.1759C48.0431 75.2096 48.5863 74.318 49.2729 73.5682C49.6097 73.1864 49.9928 72.8455 50.3744 72.5073C50.5782 72.3518 50.7792 72.1941 50.9867 72.0436C51.1932 71.8921 51.3945 71.7354 51.6193 71.608C52.0639 71.3473 52.4974 71.0744 52.968 70.8569C53.445 70.6477 53.9171 70.4368 54.4154 70.2715C54.068 70.6405 53.6945 70.9645 53.3261 71.2899C52.9559 71.6126 52.6103 71.9535 52.242 72.266C51.8787 72.5838 51.5516 72.927 51.1957 73.2428C51.0254 73.4065 50.8701 73.5798 50.7067 73.7471C50.5459 73.9154 50.3659 74.0721 50.2283 74.2536C49.6016 74.9361 49.0742 75.6664 48.6713 76.4494C48.4641 76.8412 48.3213 77.2533 48.216 77.683C48.1079 78.1156 48.0803 78.5641 48.1535 79.036Z" fill="#E6E6E6"/>
<path d="M39.5524 77.6533C39.7132 77.2355 39.7982 76.826 39.7927 76.4283C39.8074 76.2316 39.7614 76.0376 39.7437 75.8508C39.6845 75.6657 39.6569 75.4819 39.5726 75.3093C39.2753 74.6133 38.7413 74.0154 38.1047 73.4725C37.9494 73.3342 37.7654 73.2154 37.5983 73.0844C37.429 72.9537 37.2678 72.8158 37.075 72.7039C36.6982 72.4746 36.3563 72.1997 35.9555 71.9845C35.7612 71.8704 35.568 71.7525 35.3752 71.6314C35.1842 71.508 34.991 71.3846 34.7871 71.2757C34.3897 71.0401 33.9875 70.8068 33.5996 70.524C34.0872 70.5794 34.5605 70.6837 35.0381 70.786C35.2781 70.8348 35.5088 70.9061 35.7366 70.9869C35.9658 71.0645 36.1944 71.1453 36.4218 71.2298L36.7629 71.3579C36.8741 71.4057 36.9804 71.4638 37.0897 71.5163C37.3083 71.6225 37.5218 71.7374 37.7378 71.8492C37.9582 71.9535 38.1521 72.103 38.3549 72.239C38.551 72.3838 38.7575 72.5142 38.9433 72.6736C39.6838 73.3019 40.3182 74.1365 40.5029 75.1027C40.5397 75.2185 40.5357 75.3433 40.5412 75.4644C40.5434 75.5858 40.5541 75.7056 40.5434 75.8254C40.5044 76.0653 40.4772 76.3016 40.38 76.523C40.2093 76.9656 39.938 77.3708 39.5524 77.6533Z" fill="#E6E6E6"/>
<path d="M39.9462 77.6533C40.149 76.7289 40.1652 75.8396 40.0158 74.9941C39.8715 74.149 39.5418 73.3603 39.0848 72.6234L38.7186 72.0789C38.5828 71.9037 38.4294 71.738 38.2895 71.5631L38.0775 71.3008L37.8321 71.0589C37.6683 70.8972 37.5079 70.7312 37.3478 70.5622C37.0015 70.2477 36.6394 69.9389 36.2865 69.6085C35.9086 69.3059 35.5236 69.003 35.1582 68.6515C35.6594 68.7908 36.1419 68.9786 36.6306 69.1663C37.0902 69.3947 37.5487 69.6405 37.9863 69.9158C38.1935 70.0676 38.4003 70.2223 38.6034 70.3814L38.9085 70.6206L39.1797 70.8945C39.3586 71.0793 39.5389 71.2635 39.7085 71.4565L40.1509 72.0849C40.6907 72.9504 41.0028 73.9527 40.973 74.945C40.9468 75.9317 40.6167 76.9118 39.9462 77.6533Z" fill="#E6E6E6"/>
<path d="M47.6838 78.1407C46.9249 77.3266 46.3431 76.4082 45.8316 75.4631C45.33 74.513 44.9245 73.5204 44.6213 72.4987C44.3302 71.474 44.151 70.4184 44.1116 69.3554C44.1046 68.2912 44.2382 67.2141 44.6463 66.2198C44.7479 67.2771 44.8774 68.2753 45.0695 69.2713C45.2815 70.2643 45.5299 71.243 45.8059 72.2225C46.0947 73.1993 46.405 74.1741 46.727 75.1545C47.0457 76.1376 47.3802 77.12 47.6838 78.1407Z" fill="#E6E6E6"/>
<path d="M47.301 77.977C46.4034 77.2309 45.6571 76.3696 44.969 75.4763C44.2904 74.5767 43.6876 73.6296 43.1768 72.6396C42.6741 71.6466 42.2561 70.6134 41.9734 69.5452C41.7129 68.4733 41.5679 67.3642 41.71 66.2746C42.0798 67.3207 42.4625 68.3093 42.8923 69.2888C43.3306 70.2646 43.8053 71.2222 44.2885 72.1809C44.7802 73.1366 45.2906 74.0876 45.8003 75.0473C46.3077 76.0089 46.8233 76.9705 47.301 77.977Z" fill="#E6E6E6"/>
<path d="M48.7979 79.233C47.7373 78.6852 46.7952 77.9952 45.9021 77.2626C45.0167 76.5217 44.1931 75.7192 43.4486 74.8565C42.7111 73.9893 42.0462 73.066 41.5048 72.0812C40.9841 71.0886 40.5664 70.0366 40.4336 68.9459C41.0548 69.8914 41.6741 70.7784 42.3369 71.647C43.0074 72.5102 43.7084 73.3488 44.4179 74.1866C45.1352 75.0199 45.8697 75.8449 46.6053 76.6778C47.3395 77.5134 48.0814 78.3476 48.7979 79.233Z" fill="#E6E6E6"/>
<path d="M46.5461 77.7955C45.5234 77.3602 44.6152 76.759 43.7636 76.1056C42.9187 75.4443 42.1474 74.7047 41.4592 73.9035C40.7696 73.1032 40.1918 72.2205 39.7259 71.2955C39.274 70.3642 38.9712 69.366 38.9023 68.3578C39.4658 69.2396 39.9791 70.0814 40.5742 70.8873C41.1707 71.6892 41.7779 72.4749 42.4326 73.2376C43.0861 74.0002 43.7588 74.7529 44.4499 75.504C45.1388 76.259 45.8447 77.0048 46.5461 77.7955Z" fill="#E6E6E6"/>
<path d="M48.3447 78.7146C47.5164 78.2384 46.9946 77.3622 46.8286 76.4488C46.667 75.5235 46.8867 74.5708 47.3081 73.7547L47.4615 73.4435L47.6496 73.1534L48.0437 72.5845C48.1942 72.4093 48.3488 72.2383 48.5074 72.07C48.6686 71.905 48.8128 71.7252 48.9965 71.5813C49.3564 71.2873 49.703 70.9837 50.095 70.7312C50.4979 70.489 50.8954 70.2468 51.3244 70.0468C51.0771 70.4286 50.7982 70.7685 50.5248 71.1081C50.2532 71.4483 50.0107 71.8014 49.7406 72.1291C49.4881 72.468 49.2644 72.8171 49.0189 73.1498L48.7109 73.6732L48.5512 73.9306L48.4275 74.1985C48.0643 74.9014 47.8192 75.6347 47.7861 76.3937C47.7611 77.149 47.9101 77.9397 48.3447 78.7146Z" fill="#E6E6E6"/>
<path d="M47.6635 77.6609C46.9201 77.0372 46.406 76.2085 46.1046 75.3116C45.808 74.4127 45.7705 73.4105 46.0593 72.4713C46.2014 72.0027 46.4178 71.5513 46.7056 71.1454C46.9878 70.7368 47.3264 70.3649 47.7128 70.0488C48.4797 69.4102 49.3809 68.9443 50.3524 68.6892C49.6433 69.336 48.9743 69.9547 48.43 70.6246C48.1547 70.9566 47.9144 71.3008 47.7165 71.6582C47.5115 72.0119 47.3521 72.3812 47.2403 72.7607C47.0077 73.5177 46.9517 74.3209 47.0456 75.1433C47.1387 75.9663 47.3543 76.8016 47.6635 77.6609Z" fill="#E6E6E6"/>
<path d="M45.8644 76.8798L40.1074 71.9232L40.3389 76.7837L45.8644 76.8798Z" fill="#E6E6E6"/>
<path d="M52.1579 76.3534H36.8594L38.8628 86.5451H50.1545L52.1579 76.3534Z" fill="#F5F5F5"/>
<path d="M42.6005 76.3534H36.8594L38.8628 86.5451H41.8782L42.6005 76.3534Z" fill="#EBEBEB"/>
<path d="M68.0268 25.3526H37.1465V60.1613H68.0268V25.3526Z" fill="#F0F0F0"/>
<path d="M74.8441 25.3526H38.3301V60.1613H74.8441V25.3526Z" fill="#F5F5F5"/>
<path d="M41.3887 28.0958V57.4182H71.7847V28.0958H41.3887Z" fill="white"/>
<path d="M160.242 126.191H113.267L109.098 56.5442H156.073L160.242 126.191Z" fill="#EBEBEB"/>
<path d="M161.677 126.191H114.702L110.533 56.5442H157.508L161.677 126.191Z" fill="#F5F5F5"/>
<path d="M138.116 119.007H133.922L134.093 63.7286H138.287L138.116 119.007Z" fill="white"/>
<path d="M149.214 119.007H145.02L145.191 63.7286H149.385L149.214 119.007Z" fill="white"/>
<path d="M127.02 119.007H122.826L122.997 63.7286H127.191L127.02 119.007Z" fill="white"/>
<path d="M91.9996 141.095C131.406 141.095 163.351 139.422 163.351 137.359C163.351 135.295 131.406 133.622 91.9996 133.622C52.5934 133.622 20.6484 135.295 20.6484 137.359C20.6484 139.422 52.5934 141.095 91.9996 141.095Z" fill="#F5F5F5"/>
<path d="M142.324 97.0424L141.85 104.812L142.217 104.83L142.692 97.0604L142.324 97.0424Z" fill="#407BFF"/>
<path d="M142.729 90.4537L142.484 94.4565L142.852 94.4746L143.096 90.4718L142.729 90.4537Z" fill="#407BFF"/>
<path d="M134.983 119.631H91.8455C89.0722 119.631 86.9279 117.596 87.0799 115.11L92.0486 33.8913C92.201 31.4048 94.5944 29.37 97.3673 29.37H140.505C143.278 29.37 145.423 31.4048 145.271 33.8913L140.302 115.11C140.15 117.596 137.756 119.631 134.983 119.631Z" fill="#407BFF"/>
<path opacity="0.8" d="M132.376 119.631H91.8455C89.0722 119.631 86.9279 117.596 87.0799 115.11L92.0486 33.8913C92.201 31.4048 94.5944 29.37 97.3673 29.37H137.897C140.671 29.37 142.815 31.4048 142.663 33.8913L137.694 115.11C137.542 117.596 135.148 119.631 132.376 119.631Z" fill="white"/>
<path d="M112.289 44.0936H100.65C99.4792 44.0936 98.5736 43.2346 98.638 42.1845C98.7024 41.1345 99.7129 40.2755 100.884 40.2755H112.523C113.694 40.2755 114.599 41.1348 114.535 42.1845C114.47 43.2343 113.46 44.0936 112.289 44.0936Z" fill="white"/>
<path d="M114.533 42.1842C114.417 44.0821 112.607 45.6208 110.491 45.6208C108.375 45.6208 106.753 44.0824 106.869 42.1842C106.985 40.2864 108.795 38.7476 110.912 38.7476C113.028 38.7479 114.65 40.2864 114.533 42.1842Z" fill="#407BFF"/>
<path d="M111.541 56.3066H99.9022C98.7312 56.3066 97.8256 55.4476 97.89 54.3975C97.9544 53.3475 98.9649 52.4885 100.136 52.4885H111.775C112.946 52.4885 113.851 53.3475 113.787 54.3975C113.722 55.4476 112.712 56.3066 111.541 56.3066Z" fill="white"/>
<path d="M107.408 56.7961C108.967 55.4359 109.066 53.2604 107.63 51.9369C106.195 50.6135 103.767 50.6433 102.208 52.0035C100.649 53.3637 100.549 55.5392 101.985 56.8627C103.421 58.1861 105.848 58.1563 107.408 56.7961Z" fill="#407BFF"/>
<path opacity="0.3" d="M107.408 56.7961C108.967 55.4359 109.066 53.2604 107.63 51.9369C106.195 50.6135 103.767 50.6433 102.208 52.0035C100.649 53.3637 100.549 55.5392 101.985 56.8627C103.421 58.1861 105.848 58.1563 107.408 56.7961Z" fill="#FAFAFA"/>
<path d="M98.408 80.7332H110.046C111.217 80.7332 112.228 79.8742 112.292 78.8241C112.356 77.7741 111.451 76.9151 110.28 76.9151H98.6417C97.4707 76.9151 96.4602 77.7741 96.3958 78.8241C96.3314 79.8742 97.2371 80.7332 98.408 80.7332Z" fill="white"/>
<path d="M102.83 81.2247C104.389 79.8645 104.489 77.6888 103.053 76.3651C101.617 75.0415 99.1891 75.0711 97.6299 76.4313C96.0707 77.7915 95.9707 79.9672 97.4066 81.2909C98.8425 82.6145 101.271 82.5849 102.83 81.2247Z" fill="#407BFF"/>
<path opacity="0.7" d="M102.83 81.2247C104.389 79.8645 104.489 77.6888 103.053 76.3651C101.617 75.0415 99.1891 75.0711 97.6299 76.4313C96.0707 77.7915 95.9707 79.9672 97.4066 81.2909C98.8425 82.6145 101.271 82.5849 102.83 81.2247Z" fill="#FAFAFA"/>
<path d="M109.301 92.9465H97.6619C96.491 92.9465 95.5853 92.0875 95.6497 91.0374C95.7141 89.9874 96.7246 89.1284 97.8956 89.1284H109.534C110.705 89.1284 111.61 89.9874 111.546 91.0374C111.482 92.0875 110.472 92.9465 109.301 92.9465Z" fill="white"/>
<path d="M111.545 91.0374C111.429 92.9353 109.619 94.474 107.503 94.474C105.386 94.474 103.765 92.9356 103.881 91.0374C103.997 89.1396 105.807 87.6008 107.923 87.6008C110.04 87.6008 111.661 89.1396 111.545 91.0374Z" fill="#407BFF"/>
<path d="M99.1564 68.5199H110.795C111.966 68.5199 112.976 67.6609 113.041 66.6108C113.105 65.5608 112.199 64.7018 111.028 64.7018H99.3897C98.2187 64.7018 97.2082 65.5608 97.1438 66.6108C97.0801 67.6609 97.9854 68.5199 99.1564 68.5199Z" fill="white"/>
<path d="M97.1426 66.6108C97.0263 68.5086 98.6481 70.0474 100.764 70.0474C102.881 70.0474 104.691 68.509 104.807 66.6108C104.923 64.713 103.301 63.1742 101.185 63.1742C99.0687 63.1742 97.2589 64.713 97.1426 66.6108Z" fill="#407BFF"/>
<path opacity="0.7" d="M97.1426 66.6108C97.0263 68.5086 98.6481 70.0474 100.764 70.0474C102.881 70.0474 104.691 68.509 104.807 66.6108C104.923 64.713 103.301 63.1742 101.185 63.1742C99.0687 63.1742 97.2589 64.713 97.1426 66.6108Z" fill="#FAFAFA"/>
<path d="M137.784 41.6117H120.533C120.064 41.6117 119.702 41.2682 119.728 40.8481C119.754 40.428 120.158 40.0844 120.626 40.0844H137.878C138.346 40.0844 138.708 40.428 138.682 40.8481C138.657 41.2678 138.253 41.6117 137.784 41.6117Z" fill="white"/>
<path d="M132.036 44.2844H120.369C119.9 44.2844 119.538 43.9408 119.564 43.5207C119.59 43.1006 119.994 42.7571 120.462 42.7571H132.13C132.598 42.7571 132.96 43.1006 132.934 43.5207C132.909 43.9408 132.505 44.2844 132.036 44.2844Z" fill="white"/>
<path d="M132.616 90.4645H117.544C117.076 90.4645 116.714 90.121 116.74 89.7009C116.765 89.2808 117.169 88.9373 117.638 88.9373H132.709C133.178 88.9373 133.54 89.2808 133.514 89.7009C133.488 90.121 133.084 90.4645 132.616 90.4645Z" fill="white"/>
<path d="M124.828 93.1375H117.38C116.912 93.1375 116.55 92.794 116.576 92.3739C116.601 91.9538 117.005 91.6103 117.474 91.6103H124.921C125.389 91.6103 125.752 91.9538 125.726 92.3739C125.7 92.7937 125.296 93.1375 124.828 93.1375Z" fill="white"/>
<path d="M136.967 54.9704H119.716C119.248 54.9704 118.843 55.3139 118.818 55.734C118.792 56.1541 119.154 56.4976 119.623 56.4976H136.874C137.342 56.4976 137.747 56.1541 137.772 55.734C137.798 55.3139 137.436 54.9704 136.967 54.9704Z" fill="white"/>
<path d="M131.547 52.2974H119.88C119.412 52.2974 119.008 52.6409 118.982 53.061C118.956 53.4811 119.318 53.8246 119.787 53.8246H131.454C131.922 53.8246 132.327 53.4811 132.352 53.061C132.378 52.6413 132.016 52.2974 131.547 52.2974Z" fill="white"/>
<path d="M127.886 66.038H119.039C118.57 66.038 118.208 65.6944 118.234 65.2743C118.259 64.8542 118.664 64.5107 119.132 64.5107H127.98C128.448 64.5107 128.81 64.8542 128.785 65.2743C128.759 65.6944 128.354 66.038 127.886 66.038Z" fill="white"/>
<path d="M136.289 66.038H131.078C130.609 66.038 130.247 65.6944 130.273 65.2743C130.299 64.8542 130.703 64.5107 131.171 64.5107H136.383C136.851 64.5107 137.213 64.8542 137.188 65.2743C137.162 65.6944 136.758 66.038 136.289 66.038Z" fill="white"/>
<path d="M130.542 68.7109H118.874C118.406 68.7109 118.044 68.3674 118.07 67.9473C118.095 67.5272 118.499 67.1837 118.968 67.1837H130.635C131.104 67.1837 131.466 67.5272 131.44 67.9473C131.414 68.3671 131.01 68.7109 130.542 68.7109Z" fill="white"/>
<path d="M115.919 103.849H96.0556C95.4005 103.849 94.8938 103.369 94.9295 102.781C94.9656 102.194 95.5308 101.713 96.1862 101.713H116.049C116.704 101.713 117.211 102.194 117.175 102.781C117.139 103.369 116.574 103.849 115.919 103.849Z" fill="white"/>
<path d="M133.637 103.849H121.44C120.785 103.849 120.279 103.369 120.314 102.781C120.35 102.194 120.916 101.713 121.571 101.713H133.767C134.422 101.713 134.929 102.194 134.893 102.781C134.857 103.369 134.292 103.849 133.637 103.849Z" fill="white"/>
<path d="M110.95 107.589H95.8267C95.1717 107.589 94.665 107.108 94.701 106.52C94.7371 105.933 95.3023 105.452 95.9578 105.452H111.081C111.736 105.452 112.242 105.933 112.207 106.52C112.17 107.108 111.605 107.589 110.95 107.589Z" fill="white"/>
<path d="M127.375 111.327H95.5986C94.9435 111.327 94.4368 110.846 94.4725 110.259C94.5085 109.671 95.0738 109.191 95.7292 109.191H127.505C128.16 109.191 128.667 109.672 128.631 110.259C128.595 110.847 128.03 111.327 127.375 111.327Z" fill="white"/>
<path d="M123.329 79.3967H118.222C117.753 79.3967 117.349 79.7402 117.324 80.1603C117.298 80.5804 117.66 80.9239 118.128 80.9239H123.235C123.704 80.9239 124.108 80.5804 124.133 80.1603C124.159 79.7405 123.797 79.3967 123.329 79.3967Z" fill="white"/>
<path d="M132.441 79.3967H126.521C126.052 79.3967 125.648 79.7402 125.622 80.1603C125.597 80.5804 125.959 80.9239 126.427 80.9239H132.348C132.817 80.9239 133.221 80.5804 133.247 80.1603C133.272 79.7405 132.91 79.3967 132.441 79.3967Z" fill="white"/>
<path d="M130.051 76.724H118.384C117.915 76.724 117.511 77.0675 117.486 77.4876C117.46 77.9077 117.822 78.2512 118.29 78.2512H129.958C130.426 78.2512 130.83 77.9077 130.856 77.4876C130.882 77.0675 130.52 76.724 130.051 76.724Z" fill="white"/>
<path d="M65.4929 57.1319C64.2903 58.0285 63.0479 59 61.9034 59.9782C61.3293 60.4705 60.7681 60.9708 60.2518 61.4816C59.7418 61.9928 59.2413 62.5162 58.8748 63.0297L58.8056 63.1208L58.7706 63.1736C58.7445 63.2013 58.7209 63.262 58.6937 63.3072C58.6411 63.4105 58.5929 63.5369 58.5443 63.6725C58.4494 63.9467 58.375 64.2622 58.3161 64.5889C58.2032 65.246 58.1277 65.9525 58.0935 66.6659C58.0162 68.0932 58.0173 69.5795 58.0464 71.0358L56.3256 71.2675C55.8954 69.7666 55.5955 68.2734 55.441 66.7151C55.3732 65.9366 55.3239 65.147 55.3795 64.318C55.4071 63.9025 55.4531 63.4778 55.5514 63.0257C55.601 62.7987 55.6687 62.5657 55.7615 62.3195C55.8148 62.1925 55.855 62.0747 55.9297 61.9387L56.0345 61.741C56.0691 61.6796 56.0953 61.6427 56.1262 61.5922C56.5928 60.8108 57.133 60.1593 57.6946 59.53C58.2525 58.8994 58.8446 58.3209 59.4514 57.7609C60.6721 56.6366 61.9314 55.6307 63.3224 54.6549L65.4929 57.1319Z" fill="#B55B52"/>
<path d="M64.8631 53.1749C62.9782 54.1771 60.127 56.7389 60.127 56.7389L63.6226 60.4989C63.6226 60.4989 68.5792 57.8341 69.1809 56.3633C70.1914 53.892 66.6435 52.2284 64.8631 53.1749Z" fill="#407BFF"/>
<path d="M57.9773 70.4768L58.4023 72.7129L56.0887 72.4126C56.0887 72.4126 55.6147 70.8942 56.8114 70.3708L57.9773 70.4768Z" fill="#B55B52"/>
<path d="M57.5492 74.0725L55.4648 73.4917L56.0875 72.4129L58.4011 72.7129L57.5492 74.0725Z" fill="#B55B52"/>
<path d="M78.8692 45.2839C78.8725 45.511 79.0113 45.6967 79.1783 45.6987C79.3454 45.7007 79.4786 45.5185 79.4749 45.2915C79.4713 45.0645 79.3329 44.8787 79.1658 44.8767C78.9987 44.8744 78.8659 45.0569 78.8692 45.2839Z" fill="#263238"/>
<path d="M79.0918 44.8883L79.7041 44.7388C79.7041 44.7388 79.3954 45.1605 79.0918 44.8883Z" fill="#263238"/>
<path d="M79.0879 45.5073C79.0879 45.5073 79.5372 46.4904 80.0226 46.9679C79.6892 47.2435 79.1125 47.1085 79.1125 47.1085L79.0879 45.5073Z" fill="#A02724"/>
<path d="M79.1916 43.7735C79.1681 43.7775 79.1434 43.7761 79.1192 43.7689C78.4818 43.5824 78.0431 43.8709 78.0247 43.8831C77.9589 43.9276 77.8654 43.9161 77.8157 43.8573C77.766 43.7986 77.7782 43.7151 77.8433 43.6699C77.8665 43.654 78.42 43.2825 79.2119 43.5138C79.2903 43.5369 79.3333 43.6125 79.3076 43.6828C79.2895 43.7319 79.2439 43.7653 79.1916 43.7735Z" fill="#263238"/>
<path d="M71.3732 47.7051C71.5424 49.4106 70.9058 52.2063 69.4688 53.1577C69.4688 53.1577 70.5514 54.9526 74.0191 55.37C77.8323 55.8291 76.0409 53.9042 76.0409 53.9042C74.0121 53.2112 74.2285 51.8433 74.744 50.5959L71.3732 47.7051Z" fill="#B55B52"/>
<path d="M78.1444 55.2308C79.9601 55.676 81.8649 56.101 83.7362 56.4782C84.6775 56.6623 85.6207 56.8277 86.5624 56.991C87.5049 57.1385 88.4484 57.2883 89.3887 57.3962L89.7419 57.4395L89.9822 57.4613C90.153 57.4675 90.3392 57.4662 90.5372 57.455C90.9346 57.4355 91.3685 57.3781 91.8075 57.3002C92.6867 57.1415 93.5997 56.923 94.5057 56.6656C96.3203 56.1558 98.1621 55.5433 99.9587 54.909L100.776 56.2861C99.0711 57.2807 97.322 58.149 95.4511 58.9024C94.5116 59.2687 93.5526 59.6188 92.5159 59.8841C91.9978 60.0184 91.4623 60.1369 90.8791 60.2141C90.5865 60.2501 90.2807 60.2748 89.9576 60.2831C89.7953 60.2834 89.6117 60.2788 89.4593 60.2729L89.0766 60.2488C87.0312 60.1287 85.022 59.8719 83.0396 59.5294C81.0476 59.1888 79.1134 58.7856 77.1387 58.248L78.1444 55.2308Z" fill="#B55B52"/>
<path d="M99.4961 55.4737L100.029 53.8517L101.99 54.5134C101.99 54.5134 101.54 56.9488 99.8593 56.2762L99.4961 55.4737Z" fill="#B55B52"/>
<path d="M101.166 52.7769L103.169 52.9792L101.99 54.5134L100.029 53.8517L101.166 52.7769Z" fill="#B55B52"/>
<path d="M65.7402 134.268L68.8947 134.477L69.8313 127.981L66.6772 127.773L65.7402 134.268Z" fill="#B55B52"/>
<path d="M42.4844 121.678L44.6254 123.809L50.6076 120.101L48.4666 117.97L42.4844 121.678Z" fill="#B55B52"/>
<path d="M46.2107 125.017C46.1728 125.016 46.1349 125.01 46.0973 124.999C45.7146 124.889 45.453 124.253 45.3312 123.883C45.3227 123.857 45.3323 123.83 45.3555 123.812C45.379 123.795 45.4114 123.793 45.4379 123.805C45.5534 123.86 46.5669 124.354 46.6008 124.716C46.6085 124.797 46.5713 124.868 46.4937 124.922C46.4006 124.986 46.3056 125.018 46.2107 125.017ZM45.5306 124.005C45.7124 124.492 45.9365 124.812 46.143 124.871C46.2276 124.896 46.3126 124.878 46.4017 124.816C46.4499 124.782 46.4536 124.751 46.4517 124.727C46.4341 124.536 45.9299 124.213 45.5306 124.005Z" fill="#407BFF"/>
<path d="M46.331 124.134C45.9784 124.129 45.5526 124.026 45.3635 123.921C45.341 123.909 45.3274 123.887 45.3282 123.863C45.3285 123.839 45.3429 123.818 45.3661 123.806C45.3988 123.789 46.1764 123.402 46.607 123.536C46.7251 123.572 46.8094 123.642 46.8568 123.744C46.9308 123.903 46.8531 123.995 46.7998 124.035C46.7023 124.11 46.5278 124.137 46.331 124.134ZM45.5659 123.864C45.9192 123.997 46.537 124.06 46.7026 123.933C46.7302 123.912 46.7567 123.878 46.7185 123.796C46.6879 123.73 46.6353 123.686 46.5584 123.663C46.3 123.582 45.8319 123.747 45.5659 123.864Z" fill="#407BFF"/>
<path d="M45.5847 123.496L43.8172 120.685C43.7528 120.583 43.6236 120.539 43.5066 120.579L40.8979 121.477C40.6274 121.57 40.5159 121.888 40.6686 122.121C41.303 123.092 41.6622 123.533 42.4394 124.769C42.9174 125.53 43.6542 127.187 44.2202 128.281C44.7736 129.35 45.9869 128.945 45.857 128.446C45.276 126.206 45.4957 124.963 45.6808 123.998C45.7146 123.825 45.6789 123.646 45.5847 123.496Z" fill="#263238"/>
<path d="M70.264 134.569C69.9162 134.569 69.5401 134.515 69.273 134.467C69.2417 134.462 69.2181 134.439 69.2137 134.411C69.2089 134.383 69.2251 134.355 69.2531 134.342C69.3981 134.275 70.6773 133.698 71.0552 133.891C71.1288 133.928 71.1704 133.99 71.1763 134.069C71.1858 134.203 71.1373 134.313 71.0316 134.395C70.8671 134.525 70.5775 134.569 70.264 134.569ZM69.5236 134.372C70.2195 134.476 70.7383 134.449 70.9341 134.294C71.0037 134.24 71.0339 134.169 71.0276 134.078C71.025 134.044 71.0118 134.023 70.9827 134.008C70.774 133.903 70.048 134.149 69.5236 134.372Z" fill="#407BFF"/>
<path d="M69.2893 134.469C69.2738 134.469 69.258 134.464 69.2455 134.456C69.2238 134.442 69.2124 134.419 69.2153 134.394C69.2212 134.344 69.3669 133.187 70.0731 133.187C70.093 133.187 70.114 133.188 70.1346 133.19C70.3388 133.209 70.3977 133.302 70.4109 133.376C70.468 133.696 69.7047 134.309 69.3198 134.463C69.3099 134.467 69.2996 134.469 69.2893 134.469ZM70.0753 133.322C69.6205 133.322 69.4409 133.994 69.3849 134.281C69.778 134.07 70.2972 133.589 70.263 133.397C70.2601 133.382 70.252 133.336 70.1191 133.323C70.104 133.322 70.0897 133.322 70.0753 133.322Z" fill="#407BFF"/>
<path d="M69.0921 134.074H65.5464C65.4173 134.074 65.3106 134.154 65.2892 134.267L64.813 136.783C64.7637 137.044 65.007 137.291 65.3047 137.286C66.5415 137.267 67.1388 137.202 68.698 137.202C69.6574 137.202 71.6387 137.292 72.9635 137.292C74.2592 137.292 74.3924 136.117 73.8437 136.011C71.384 135.534 70.4294 134.876 69.6143 134.248C69.4675 134.135 69.2805 134.074 69.0921 134.074Z" fill="#263238"/>
<path opacity="0.2" d="M69.8318 127.983L69.3118 131.593L66.1934 131.125L66.6762 127.774L69.8318 127.983Z" fill="black"/>
<path opacity="0.2" d="M48.4646 117.971L50.6063 120.102L48.1308 121.635L45.9121 119.551L48.4646 117.971Z" fill="black"/>
<path d="M64.1496 70.2006C66.6188 70.4969 71.857 71.1282 76.9232 71.7394C81.8739 55.6713 80.4126 55.2357 80.4126 55.2357C80.4126 55.2357 79.1043 54.6688 77.469 54.1913C77.4064 54.1728 77.3482 54.1576 77.2938 54.1424C76.4695 53.9204 76.2961 53.8893 75.1958 53.6636C73.3102 53.366 71.5567 53.1343 69.3958 52.967C69.257 52.9561 69.1179 52.9452 68.9836 52.9376C68.5921 52.9145 68.2057 52.898 67.8314 52.8848C67.579 52.8726 67.3272 52.871 67.088 52.869C66.8043 52.8693 66.5287 52.869 66.2696 52.8716C66.1224 52.8726 65.9796 52.8746 65.8424 52.8769C64.8006 52.8941 64.0053 53.7174 64.1253 54.6457C65.2134 63.097 64.8657 65.8763 64.1496 70.2006Z" fill="#407BFF"/>
<path opacity="0.2" d="M77.293 58.8733C77.3798 59.6181 79.3019 60.9817 79.9654 60.6137C80.159 59.7214 80.2984 58.9766 80.3959 58.3556C79.4219 58.2925 77.5336 57.3372 77.293 58.8733Z" fill="black"/>
<path d="M75.2079 55.1225C75.1152 52.4934 82.2514 55.3915 83.8883 56.0459L82.0767 60.4603C82.0767 60.4603 79.6887 60.3857 78.1674 59.5987C76.5828 58.7789 75.2756 57.0362 75.2079 55.1225Z" fill="#407BFF"/>
<path d="M70.2961 44.554C70.5319 47.3451 70.5647 48.5295 72.174 49.9805C74.595 52.1634 78.4013 51.3906 79.1085 48.6163C79.7452 46.1192 79.2528 41.974 76.159 40.826C73.1109 39.6947 70.0602 41.7628 70.2961 44.554Z" fill="#B55B52"/>
<path d="M70.5594 41.6024C67.4318 40.9012 67.3343 43.2676 67.3994 44.4946C67.4646 45.7215 65.1668 46.33 65.1668 47.8833C65.1668 49.9089 66.871 51.1183 62.7262 51.7308C59.2173 52.2496 58.1365 56.1802 63.326 58.4783C69.0687 61.0213 77.7369 57.4438 76.6826 54.0408C75.0553 48.7889 77.9684 48.8073 77.6409 45.8759C77.4024 43.7432 79.652 43.6372 78.8442 41.8605C77.7833 39.5287 70.2831 37.4834 70.5594 41.6024Z" fill="#263238"/>
<path d="M66.9392 45.5383C66.509 43.5085 66.7445 42.1598 67.6388 41.5292C68.7902 40.7167 70.5618 41.4219 70.6365 41.4526L70.4845 41.7532C70.468 41.7463 68.8392 41.1002 67.8651 41.7892C67.0886 42.338 66.8984 43.5788 67.3006 45.4766L66.9392 45.5383Z" fill="#263238"/>
<path d="M63.4016 51.1583C62.2553 51.1583 61.117 50.7573 61.0449 50.7316L61.1815 50.425C61.2065 50.4342 63.6879 51.3068 64.8339 50.4547C65.3932 50.0386 65.5529 49.2578 65.3078 48.1341L65.6692 48.0711C65.9423 49.3228 65.7399 50.2102 65.0686 50.7091C64.6142 51.0464 64.0066 51.1583 63.4016 51.1583Z" fill="#263238"/>
<path d="M76.7991 45.6763C76.7479 46.1832 76.9456 46.7399 77.2289 47.1537C77.6551 47.7764 78.2343 47.6622 78.4223 47.1329C78.592 46.6567 78.5743 45.7588 77.9995 45.3054C77.4328 44.8585 76.8576 45.0965 76.7991 45.6763Z" fill="#B55B52"/>
<path d="M73.5526 71.3328C73.5526 71.3328 68.5927 90.1322 66.2746 100.931C63.8289 112.325 49.3466 121.62 49.3466 121.62L46.166 118.686C46.166 118.686 55.4926 111.367 57.8876 100.729C62.7496 79.1337 59.4582 74.7839 64.1509 70.2016L73.5526 71.3328Z" fill="#263238"/>
<path d="M49.6172 122.043L45.6465 118.38L46.7641 117.304L51.3744 120.946L49.6172 122.043Z" fill="#407BFF"/>
<path opacity="0.2" d="M70.9163 75.4192C67.0597 78.4212 67.477 89.0756 67.8803 93.8771C69.4991 87.0507 71.444 79.4488 72.5841 75.0493C72.1778 74.7767 71.6254 74.8671 70.9163 75.4192Z" fill="black"/>
<path d="M76.7336 71.7486C76.7336 71.7486 78.9652 94.0662 77.7478 102.58C76.4815 111.434 70.0379 130.7 70.0379 130.7L65.4883 130.174C65.4883 130.174 69.1841 111.083 69.8414 102.316C70.5575 92.758 67.3794 70.623 67.3794 70.623L76.7336 71.7486Z" fill="#263238"/>
<path d="M71.0064 130.933L64.5215 130.182L64.6216 128.465L71.6563 129.077L71.0064 130.933Z" fill="#407BFF"/>
<path d="M64.0381 69.5109L63.3415 70.4593C63.2874 70.5329 63.383 70.6259 63.5306 70.6438L76.9273 72.2561C77.0425 72.27 77.1437 72.2314 77.1588 72.1677L77.3946 71.1638C77.4108 71.0942 77.3181 71.0226 77.1922 71.0074L64.2563 69.4505C64.161 69.4393 64.0727 69.4637 64.0381 69.5109Z" fill="#407BFF"/>
<path opacity="0.3" d="M64.0381 69.5109L63.3415 70.4593C63.2874 70.5329 63.383 70.6259 63.5306 70.6438L76.9273 72.2561C77.0425 72.27 77.1437 72.2314 77.1588 72.1677L77.3946 71.1638C77.4108 71.0942 77.3181 71.0226 77.1922 71.0074L64.2563 69.4505C64.161 69.4393 64.0727 69.4637 64.0381 69.5109Z" fill="black"/>
<path d="M65.6239 71.0078L65.2776 70.9662C65.2088 70.9579 65.1599 70.92 65.1691 70.8817L65.4881 69.5789C65.4973 69.5406 65.5614 69.5165 65.6306 69.5247L65.9768 69.5663C66.046 69.5746 66.0946 69.6125 66.0854 69.6508L65.7663 70.9536C65.7568 70.9916 65.6927 71.016 65.6239 71.0078Z" fill="#263238"/>
<path d="M74.3739 72.0789L74.0276 72.0373C73.9585 72.0291 73.9099 71.9912 73.9191 71.9529L74.2381 70.65C74.2473 70.6118 74.3117 70.5873 74.3806 70.5959L74.7268 70.6375C74.796 70.6457 74.8446 70.6837 74.8354 70.722L74.5164 72.0248C74.5072 72.0628 74.4431 72.0872 74.3739 72.0789Z" fill="#263238"/>
</svg>
