<svg width="164" height="95" viewBox="0 0 164 95" fill="none" xmlns="http://www.w3.org/2000/svg">
<path d="M4.49268 54.0685C6.91774 41.3229 19.6748 37.7347 22.8471 34.0194C27.7908 28.2295 21.9654 18.2941 25.3636 11.0937C28.7662 3.88398 38.2877 -1.3987 45.0738 0.329841C55.8234 3.0679 59.628 11.3122 71.6929 12.8705C77.5521 13.6272 80.5358 10.4175 88.0995 8.83733C93.9913 7.60643 98.8447 12.233 102.744 11.5546C110.293 9.27198 110.955 1.00802 120.664 0.435114C128.918 -0.432857 131.903 4.13136 135.889 11.7667C142.667 24.7507 154.694 11.0938 160.937 28.1399C164.889 38.9307 154.639 50.9604 156.854 56.1795C158.102 59.1208 161.633 64.1468 162.834 67.116C165.997 74.9331 162.158 82.1129 158.097 89.9117L15.1005 89.1997C14.9527 89.199 14.7288 89.1226 14.6029 89.0301C14.6029 89.0301 -0.101535 78.2147 4.49268 54.0685Z" fill="#E3EAFF"/>
<path d="M112.502 83.8415C114.644 84.7601 116.95 84.1593 119.42 82.0393C116.431 81.3461 114.125 81.9469 112.502 83.8415Z" fill="#A9B9EB"/>
<path d="M115.783 80.4735C117.749 81.2647 119.841 80.8303 122.059 78.8456C119.324 78.2759 117.232 78.7103 115.783 80.4735Z" fill="#A9B9EB"/>
<path d="M118.891 77.2616C120.857 77.4187 122.657 76.2646 124.289 73.7995C121.661 74.0633 119.861 75.2173 118.891 77.2616Z" fill="#A9B9EB"/>
<path d="M125.633 69.2181C123.513 70.0445 122.218 71.4117 121.748 73.3199C123.397 72.9903 124.692 71.623 125.633 69.2181Z" fill="#A9B9EB"/>
<path d="M125.533 65.6098C123.89 66.6658 122.993 68.0195 122.844 69.671C124.159 69.1118 125.055 67.758 125.533 65.6098Z" fill="#A9B9EB"/>
<path d="M122.298 68.0561C123.358 66.974 123.789 65.3269 123.592 63.1149C122.374 64.8036 121.943 66.4507 122.298 68.0561Z" fill="#A9B9EB"/>
<path d="M113.619 75.5043C111.96 78.5856 111.577 81.3876 112.472 83.9103C113.986 81.8592 114.368 79.0572 113.619 75.5043Z" fill="#A9B9EB"/>
<path d="M117.552 77.9928C118.239 75.9094 117.877 73.6265 116.466 71.1437C115.915 74.0652 116.278 76.3482 117.552 77.9928Z" fill="#A9B9EB"/>
<path d="M118.603 68.6091C118.122 71.1514 118.437 73.1378 119.548 74.5683C120.147 72.7562 119.832 70.7698 118.603 68.6091Z" fill="#A9B9EB"/>
<path d="M120.964 71.1409C121.559 69.3287 121.244 67.3423 120.018 65.1817C119.538 67.7252 119.853 69.7116 120.964 71.1409Z" fill="#A9B9EB"/>
<path d="M108.648 87.0958C113.279 83.6807 112.828 83.684 115.339 81.0745C116.018 80.3703 116.649 79.6567 117.232 78.934C118.41 77.4352 119.449 75.7884 120.33 74.0225C121.397 71.9779 122.013 70.3287 122.177 69.0751L122.247 68.934C122.279 68.9035 122.289 68.8497 122.269 68.8065C122.273 68.7585 122.261 68.7105 122.234 68.6739C122.198 68.6477 122.157 68.632 122.115 68.6279C122.074 68.6229 122.034 68.638 122.003 68.6696L121.938 68.7382C121.917 68.7822 121.903 68.8309 121.898 68.8813L121.879 68.8883L121.873 68.9987C121.691 70.2195 121.085 71.822 120.058 73.8062C119.177 75.5465 118.138 77.1667 116.961 78.6377C116.376 79.3839 115.759 80.0935 115.113 80.7639L114.944 80.9375C116.065 78.8683 116.093 76.309 115.028 73.2598C113.894 76.2701 113.866 78.8293 114.944 80.9375C112.464 83.4838 112.988 83.4052 108.473 86.7329L108.648 87.0958Z" fill="#A9B9EB"/>
<path d="M59.9941 86.1828C61.9532 87.0229 64.0623 86.4734 66.3214 84.5344C63.5876 83.9003 61.4785 84.4498 59.9941 86.1828Z" fill="#A9B9EB"/>
<path d="M62.9844 82.9743C64.8469 83.409 66.6832 82.567 68.493 80.4486C65.9557 80.3254 64.1195 81.1673 62.9844 82.9743Z" fill="#A9B9EB"/>
<path d="M65.8887 79.5861C67.6898 79.6842 69.3167 78.5874 70.7692 76.2954C68.3697 76.5974 66.7429 77.6943 65.8887 79.5861Z" fill="#A9B9EB"/>
<path d="M71.8324 72.167C69.8934 72.9228 68.709 74.1734 68.2793 75.9187C69.7878 75.6173 70.9723 74.3668 71.8324 72.167Z" fill="#A9B9EB"/>
<path d="M71.7413 68.8667C70.2381 69.8325 69.4181 71.0707 69.2812 72.5813C70.4839 72.0698 71.3039 70.8315 71.7413 68.8667Z" fill="#A9B9EB"/>
<path d="M68.7802 71.1043C69.7497 70.1144 70.144 68.608 69.963 66.5847C68.8492 68.1293 68.4549 69.6359 68.7802 71.1043Z" fill="#A9B9EB"/>
<path d="M60.467 77.9945C58.9497 80.8128 58.6001 83.3756 59.4182 85.6831C60.8028 83.807 61.1524 81.2441 60.467 77.9945Z" fill="#A9B9EB"/>
<path d="M64.5302 79.7869C65.1583 77.8813 64.827 75.7932 63.5362 73.5223C63.0329 76.1945 63.3642 78.2827 64.5302 79.7869Z" fill="#A9B9EB"/>
<path d="M65.4024 71.6099C64.9626 73.9353 65.2508 75.7521 66.2669 77.0606C66.8146 75.4031 66.5265 73.5863 65.4024 71.6099Z" fill="#A9B9EB"/>
<path d="M67.5577 73.9257C68.102 72.2681 67.8138 70.4513 66.6932 68.4751C66.2537 70.8016 66.5419 72.6184 67.5577 73.9257Z" fill="#A9B9EB"/>
<path d="M56.295 88.519C60.5306 85.3954 60.1181 85.3984 62.4153 83.0116C63.0364 82.3674 63.6135 81.7148 64.1465 81.0537C65.2244 79.6828 66.1743 78.1766 66.9797 76.5615C67.9559 74.6913 68.5191 73.1829 68.6692 72.0363L68.7335 71.9072C68.7631 71.8793 68.7716 71.8301 68.7537 71.7906C68.7576 71.7466 68.746 71.7027 68.7218 71.6693C68.6886 71.6453 68.6512 71.6309 68.6125 71.6273C68.5756 71.6227 68.5387 71.6365 68.5107 71.6654L68.451 71.7281C68.4315 71.7683 68.419 71.8128 68.4142 71.859L68.3973 71.8653L68.3917 71.9664C68.2246 73.083 67.6711 74.5488 66.7311 76.3636C65.9252 77.9554 64.9755 79.4373 63.8991 80.7828C63.3639 81.4653 62.7996 82.1144 62.2084 82.7274L62.0536 82.8863C63.0793 80.9936 63.105 78.6528 62.1308 75.8639C61.0933 78.6173 61.0676 80.9581 62.0536 82.8863C59.7853 85.2152 60.2649 85.1434 56.1348 88.1871L56.295 88.519Z" fill="#A9B9EB"/>
<path d="M9.2168 60.6233C9.2168 60.6233 8.21032 62.7316 9.73336 66.533C11.286 70.4063 10.9637 73.0888 10.9637 73.0888L12.4037 74.584C12.4037 74.584 12.7229 70.5024 11.351 67.4606C9.62997 63.6557 9.2168 60.6233 9.2168 60.6233Z" fill="#A9B9EB"/>
<path d="M4.8978 61.748C4.8978 61.748 4.61551 63.5041 6.35568 65.9792C8.13364 68.4991 8.4139 70.5375 8.4139 70.5375L9.61411 71.7085C9.61411 71.7085 9.12108 68.2744 7.62139 66.3256C5.74801 63.8869 4.8978 61.748 4.8978 61.748Z" fill="#A9B9EB"/>
<path d="M12.334 64.6984C12.334 64.6984 13.6462 65.8105 14.4481 70.2555C15.1021 73.8778 14.3929 75.7605 14.8051 77.9803L12.9552 75.5497C12.8552 73.9773 13.7112 72.9521 13.2517 69.6333C12.8223 66.5259 12.334 64.6984 12.334 64.6984Z" fill="#A9B9EB"/>
<path d="M24.0769 78.2419C24.0769 78.2419 24.6466 80.0429 23.2334 84.2614C22.0819 87.7036 20.5654 88.1448 20.267 88.9383L19.6309 87.1857C20.4491 85.8386 21.3601 86.0126 22.5311 82.9522C23.6273 80.08 24.0769 78.2419 24.0769 78.2419Z" fill="#A9B9EB"/>
<path d="M15.3926 67.5043C15.3926 67.5043 16.275 70.6463 16.4661 72.6453C16.7422 75.4865 15.7894 76.9947 15.8965 79.921L17.78 83.081C17.78 83.081 18.3792 78.7827 17.9209 75.2932C17.1521 69.4374 15.3926 67.5043 15.3926 67.5043Z" fill="#A9B9EB"/>
<path d="M19.9327 69.0222C19.6563 70.8517 19.606 72.7197 19.7832 74.5667C20.3538 80.1587 17.8477 84.3642 17.8477 84.3642L18.8185 85.4909C18.8185 85.4909 21.869 82.5745 21.2791 77.8942C20.6511 72.9488 19.9327 69.0222 19.9327 69.0222Z" fill="#A9B9EB"/>
<path d="M13.0543 75.947C13.0543 75.947 11.9511 75.4699 7.35093 76.1297C4.40306 76.5537 5.27228 75.2304 2.48633 76.2108C4.6004 76.4506 5.31047 78.298 8.07151 78.0936C10.2797 77.9283 12.4953 77.9696 14.698 78.2169L13.0543 75.947Z" fill="#A9B9EB"/>
<path d="M4.11914 79.436C4.11914 79.436 5.90848 82.1595 9.98786 81.8457C12.4987 81.6602 15.0181 81.968 17.4452 82.757L16.2293 80.298C16.2293 80.298 14.5487 78.8221 10.3332 79.634C7.43704 80.1909 4.11914 79.436 4.11914 79.436Z" fill="#A9B9EB"/>
<path d="M6.52148 84.0756C6.52148 84.0756 8.31082 86.7991 12.3902 86.4853C14.9011 86.2997 17.4205 86.6076 19.8476 87.3967L18.6317 84.9376C18.6317 84.9376 16.951 83.4618 12.7356 84.2736C9.83934 84.8306 6.52148 84.0756 6.52148 84.0756Z" fill="#A9B9EB"/>
<path d="M1.28906 70.5137C1.28906 70.5137 2.58201 71.9295 5.15373 71.6157C7.76161 71.2959 9.67369 71.9807 9.67369 71.9807L8.9457 71.0598C8.9457 71.0598 7.88349 70.1269 5.21885 70.639C3.38646 70.9902 1.28906 70.5137 1.28906 70.5137Z" fill="#A9B9EB"/>
<path d="M10.7723 73.488C10.7723 73.488 8.76646 73.2289 5.81471 73.514C3.95197 73.687 1.48438 72.3306 1.48438 72.3306C1.48438 72.3306 3.37473 75.5255 6.16086 75.0588C9.35568 74.5225 12.5056 75.0619 12.5056 75.0619L10.7723 73.488Z" fill="#A9B9EB"/>
<path d="M9.13926 71.4286C9.13926 71.4286 7.4908 68.2972 4.69515 67.6556C3.04105 67.2587 1.45418 66.5352 0 65.5149C0 65.5149 1.52947 68.7457 4.14859 69.0048C6.56585 69.2517 8.23319 71.1683 8.23319 71.1683L9.13926 71.4286Z" fill="#A9B9EB"/>
<path d="M20.0379 88.993L20.4594 88.7873C19.3949 85.6879 14.5745 75.6071 8.46491 70.5498L8.20508 70.9962C14.2297 75.984 18.9859 85.9335 20.0379 88.993Z" fill="#A9B9EB"/>
<path d="M94.3973 64.1129C94.3973 64.1129 93.6233 65.7341 94.7945 68.6574C95.9885 71.6359 95.7406 73.6987 95.7406 73.6987L96.848 74.8485C96.848 74.8485 97.0934 71.7097 96.0385 69.3706C94.715 66.4447 94.3973 64.1129 94.3973 64.1129Z" fill="#A9B9EB"/>
<path d="M91.0755 64.9777C91.0755 64.9777 90.8584 66.3281 92.1966 68.2315C93.5639 70.1693 93.7794 71.7368 93.7794 71.7368L94.7023 72.6372C94.7023 72.6372 94.3232 69.9965 93.1699 68.4979C91.7293 66.6225 91.0755 64.9777 91.0755 64.9777Z" fill="#A9B9EB"/>
<path d="M96.7949 67.2465C96.7949 67.2465 97.804 68.1017 98.4207 71.5199C98.9236 74.3054 98.3783 75.7532 98.6952 77.4602L97.2726 75.5911C97.1958 74.382 97.854 73.5936 97.5007 71.0414C97.1705 68.6518 96.7949 67.2465 96.7949 67.2465Z" fill="#A9B9EB"/>
<path d="M105.823 77.6614C105.823 77.6614 106.261 79.0463 105.175 82.2903C104.289 84.9373 103.123 85.2767 102.893 85.8869L102.404 84.5391C103.034 83.5032 103.734 83.6371 104.635 81.2836C105.478 79.0749 105.823 77.6614 105.823 77.6614Z" fill="#A9B9EB"/>
<path d="M99.1484 69.4043C99.1484 69.4043 99.827 71.8204 99.974 73.3577C100.186 75.5425 99.4536 76.7023 99.536 78.9527L100.535 80.4267C100.535 80.4267 101.445 78.0772 101.093 75.3939C100.501 70.8908 99.1484 69.4043 99.1484 69.4043Z" fill="#A9B9EB"/>
<path d="M102.83 70.653C102.617 72.06 102.579 73.4963 102.715 74.9166C103.154 79.2169 101.227 82.4509 101.227 82.4509L101.973 83.3172C101.973 83.3172 104.319 81.0746 103.865 77.4754C103.382 73.6726 102.83 70.653 102.83 70.653Z" fill="#A9B9EB"/>
<path d="M97.3494 75.8967C97.3494 75.8967 96.501 75.5298 92.9635 76.037C90.6966 76.3632 91.365 75.3455 89.2227 76.0995C90.8484 76.2839 91.3944 77.7045 93.5176 77.5473C95.2156 77.4203 96.9195 77.452 98.6134 77.6422L97.3494 75.8967Z" fill="#A9B9EB"/>
<path d="M90.4766 78.5796C90.4766 78.5796 91.8526 80.674 94.9895 80.4327C96.9204 80.2899 98.8578 80.5267 100.724 81.1335L99.7892 79.2425C99.7892 79.2425 98.4968 78.1075 95.2552 78.7319C93.0279 79.1602 90.4766 78.5796 90.4766 78.5796Z" fill="#A9B9EB"/>
<path d="M92.3262 82.1474C92.3262 82.1474 93.7022 84.2418 96.8392 84.0005C98.7701 83.8578 100.707 84.0945 102.574 84.7013L101.639 82.8103C101.639 82.8103 100.346 81.6754 97.1048 82.2997C94.8776 82.728 92.3262 82.1474 92.3262 82.1474Z" fill="#A9B9EB"/>
<path d="M88.3027 71.7184C88.3027 71.7184 89.297 72.807 91.2747 72.5658C93.2801 72.3199 94.7505 72.8464 94.7505 72.8464L94.1907 72.1383C94.1907 72.1383 93.3738 71.4209 91.3247 71.8147C89.9156 72.0848 88.3027 71.7184 88.3027 71.7184Z" fill="#A9B9EB"/>
<path d="M95.5935 74.0056C95.5935 74.0056 94.0511 73.8064 91.7812 74.0257C90.3487 74.1587 88.4512 73.1157 88.4512 73.1157C88.4512 73.1157 89.9048 75.5724 92.0474 75.2136C94.5042 74.8012 96.9264 75.216 96.9264 75.216L95.5935 74.0056Z" fill="#A9B9EB"/>
<path d="M94.3385 72.422C94.3385 72.422 93.0709 70.0139 90.9211 69.5205C89.649 69.2153 88.4287 68.6589 87.3105 67.8743C87.3105 67.8743 88.4866 70.3588 90.5007 70.5581C92.3596 70.7479 93.6417 72.2218 93.6417 72.2218L94.3385 72.422Z" fill="#A9B9EB"/>
<path d="M102.72 85.9289L103.045 85.7708C102.226 83.3874 98.5191 75.6353 93.8209 71.7463L93.6211 72.0896C98.254 75.9251 101.911 83.5762 102.72 85.9289Z" fill="#A9B9EB"/>
<path d="M135.637 70.0925C135.637 70.0925 136.032 71.8789 134.287 74.3213C132.508 76.8095 132.305 78.8589 132.305 78.8589L131 79.6232C131 79.6232 131.435 76.5449 132.944 74.6264C134.836 72.2278 135.637 70.0925 135.637 70.0925Z" fill="#A9B9EB"/>
<path d="M138.63 71.9277C138.63 71.9277 138.549 73.286 136.862 74.7015C135.14 76.1411 134.599 77.576 134.599 77.576L133.523 78.1576C133.523 78.1576 134.45 75.7454 135.874 74.6611C137.653 73.3035 138.63 71.9277 138.63 71.9277Z" fill="#A9B9EB"/>
<path d="M132.673 72.3638C132.673 72.3638 131.525 72.876 130.205 75.9603C129.129 78.4734 129.342 80.0245 128.674 81.5621L130.434 80.2049C130.766 79.071 130.304 78.1168 131.187 75.7815C132.014 73.5948 132.673 72.3638 132.673 72.3638Z" fill="#A9B9EB"/>
<path d="M121.808 79.5918C121.808 79.5918 121.093 80.7843 121.441 84.2187C121.723 87.0205 122.767 87.6992 122.856 88.3529L123.612 87.2114C123.231 86.029 122.532 85.9446 122.173 83.4189C121.838 81.0494 121.808 79.5918 121.808 79.5918Z" fill="#A9B9EB"/>
<path d="M129.961 73.7151C129.961 73.7151 128.796 75.8215 128.327 77.2481C127.658 79.2746 128.111 80.6069 127.552 82.7356L126.281 83.8434C126.281 83.8434 125.912 81.3186 126.822 78.8574C128.349 74.7272 129.961 73.7151 129.961 73.7151Z" fill="#A9B9EB"/>
<path d="M126.371 73.773C126.274 75.184 126.004 76.5704 125.57 77.8884C124.232 81.8707 125.386 85.5505 125.386 85.5505L124.487 86.1531C124.487 86.1531 122.721 83.2951 123.923 79.9882C125.197 76.4951 126.371 73.773 126.371 73.773Z" fill="#A9B9EB"/>
<path d="M130.297 80.4746C130.297 80.4746 131.187 80.3809 134.465 81.9398C136.565 82.9397 136.142 81.763 138.031 83.1345C136.436 82.8178 135.61 84.0116 133.612 83.217C132.014 82.5801 130.377 82.0935 128.715 81.7616L130.297 80.4746Z" fill="#A9B9EB"/>
<path d="M136.3 85.127C136.3 85.127 134.536 86.7139 131.585 85.5311C129.768 84.8087 127.863 84.4474 125.947 84.4618L127.246 82.9357C127.246 82.9357 128.725 82.2417 131.694 83.8228C133.734 84.9085 136.3 85.127 136.3 85.127Z" fill="#A9B9EB"/>
<path d="M133.769 87.9806C133.769 87.9806 132.005 89.5675 129.054 88.3847C127.236 87.6622 125.332 87.301 123.416 87.3153L124.715 85.7893C124.715 85.7893 126.194 85.0954 129.163 86.6764C131.203 87.7621 133.769 87.9806 133.769 87.9806Z" fill="#A9B9EB"/>
<path d="M139.847 79.2207C139.847 79.2207 138.663 79.961 136.822 79.13C134.955 78.2861 133.436 78.3439 133.436 78.3439L134.122 77.836C134.122 77.836 135.057 77.3973 136.934 78.396C138.225 79.082 139.847 79.2207 139.847 79.2207Z" fill="#A9B9EB"/>
<path d="M132.382 79.1972C132.382 79.1972 133.9 79.4746 136.026 80.3732C137.368 80.9352 139.407 80.5127 139.407 80.5127C139.407 80.5127 137.491 82.4228 135.518 81.4293C133.254 80.2892 130.848 79.9512 130.848 79.9512L132.382 79.1972Z" fill="#A9B9EB"/>
<path d="M133.918 78.0625C133.918 78.0625 135.645 76.1426 137.808 76.3227C139.091 76.4166 140.377 76.2544 141.615 75.8427C141.615 75.8427 139.959 77.8636 137.989 77.4432C136.169 77.0608 134.628 78.0823 134.628 78.0823L133.918 78.0625Z" fill="#A9B9EB"/>
<path d="M123.015 88.4458L122.738 88.1962C124.031 86.1635 129.233 79.8693 134.56 77.573L134.678 77.962C129.425 80.2271 124.291 86.4397 123.015 88.4458Z" fill="#A9B9EB"/>
<path d="M67.8037 24.4555C67.5653 23.9531 67.2734 23.4402 66.936 22.9309C66.808 22.7377 66.8356 22.4572 66.9978 22.3045C67.1599 22.1519 67.3952 22.1848 67.5232 22.3781C67.8843 22.9232 68.1977 23.4744 68.4549 24.0165C68.5567 24.2309 68.4933 24.503 68.3135 24.6242C68.2714 24.6526 68.2268 24.6702 68.1817 24.6778C68.0339 24.7026 67.8816 24.6199 67.8037 24.4555ZM65.8956 21.5512C65.5226 21.1142 65.1272 20.7052 64.7205 20.3355C64.5562 20.1862 64.5246 19.9063 64.6498 19.7104C64.7751 19.5145 65.0099 19.4769 65.1742 19.6262C65.6056 20.0184 66.0248 20.452 66.42 20.915C66.5674 21.0877 66.5695 21.37 66.4247 21.5457C66.3647 21.6185 66.289 21.6615 66.2104 21.6747C66.0991 21.6934 65.982 21.6524 65.8956 21.5512ZM46.9648 22.9616C46.7586 22.9772 46.5808 22.7906 46.5677 22.5448C46.5546 22.2989 46.7111 22.087 46.9173 22.0714C47.4046 22.0345 47.9261 21.9561 48.4639 21.8391C48.6672 21.7948 48.862 21.9554 48.8991 22.1977C48.9362 22.44 48.8016 22.6723 48.5983 22.7165C48.3888 22.7622 48.1796 22.8027 47.9766 22.8368C47.6306 22.895 47.2902 22.937 46.9648 22.9616ZM49.7327 21.9675C49.6781 21.7299 49.7954 21.4846 49.9947 21.4195C50.4825 21.2602 50.9894 21.0715 51.5012 20.8585C51.6963 20.7772 51.9097 20.9 51.9778 21.1326C52.0458 21.3651 51.9429 21.6195 51.7478 21.7007C51.2199 21.9203 50.6966 22.1152 50.1924 22.2798C50.1767 22.285 50.1611 22.2888 50.1454 22.2914C49.9617 22.3223 49.783 22.1864 49.7327 21.9675ZM45.3005 22.9307C44.7031 22.8556 44.1477 22.7055 43.6499 22.4847C43.4563 22.3988 43.3577 22.142 43.4297 21.9111C43.5018 21.6803 43.7172 21.5628 43.9108 21.6487C44.35 21.8435 44.8439 21.9763 45.379 22.0437C45.5845 22.0695 45.7335 22.289 45.7118 22.5339C45.6935 22.7416 45.5583 22.9009 45.3923 22.9288C45.3626 22.9339 45.3318 22.9347 45.3005 22.9307ZM63.4265 19.3178C62.9638 19.0084 62.4931 18.7512 62.0276 18.5535C61.833 18.4708 61.7314 18.2157 61.8008 17.9837C61.8701 17.7517 62.0841 17.6306 62.2788 17.7133C62.7838 17.9279 63.2931 18.206 63.7925 18.5398C63.9727 18.6603 64.0369 18.9321 63.9358 19.1469C63.8764 19.2732 63.7732 19.3517 63.6615 19.3705C63.5832 19.3837 63.5008 19.3675 63.4265 19.3178ZM52.7768 20.7677C52.6976 20.5402 52.7882 20.2792 52.979 20.1848C53.4589 19.9475 53.9456 19.6888 54.4256 19.4159C54.6121 19.3099 54.8354 19.4042 54.9243 19.6265C55.0132 19.8489 54.9342 20.115 54.7476 20.221C54.256 20.5005 53.7574 20.7655 53.2657 21.0087C53.2358 21.0235 53.2052 21.0333 53.1744 21.0385C53.0096 21.0663 52.8436 20.9594 52.7768 20.7677ZM55.6873 19.1647C55.5891 18.948 55.6569 18.6774 55.8387 18.5604C56.0133 18.448 56.1843 18.3352 56.3515 18.2225C56.6648 18.0114 56.9888 17.829 57.3148 17.6805C57.5078 17.5925 57.724 17.7078 57.7978 17.9378C57.8716 18.1679 57.7749 18.4257 57.5819 18.5137C57.2908 18.6464 57.0007 18.8097 56.7198 18.999C56.5484 19.1145 56.3731 19.2301 56.1942 19.3452C56.154 19.3711 56.1116 19.3873 56.0688 19.3945C55.9183 19.4199 55.7637 19.3334 55.6873 19.1647ZM42.1575 21.4593C41.7689 21.0684 41.4327 20.5986 41.1584 20.0628C41.0507 19.8526 41.1064 19.5782 41.2827 19.4498C41.4591 19.3214 41.6893 19.3877 41.797 19.598C42.0294 20.0517 42.313 20.4486 42.6401 20.7777C42.798 20.9365 42.8179 21.2179 42.6847 21.4061C42.623 21.4934 42.5392 21.5453 42.4512 21.5601C42.3495 21.5772 42.2423 21.5446 42.1575 21.4593ZM60.5496 18.1182C60.0401 18.0359 59.5332 18.0267 59.0429 18.0909C58.8375 18.1179 58.6527 17.9412 58.6301 17.6964C58.6075 17.4515 58.7559 17.2312 58.9611 17.2043C59.512 17.132 60.0803 17.1421 60.6501 17.2343C60.8548 17.2673 60.9983 17.4921 60.9705 17.7362C60.9475 17.9385 60.814 18.0907 60.6523 18.118C60.6191 18.1236 60.5845 18.1239 60.5496 18.1182Z" fill="white"/>
<path d="M68.6089 22.9299L67.8945 24.8806L76.573 30.0345L68.6089 22.9299Z" fill="#BDCDFF"/>
<path d="M67.3242 27.1746L68.0423 29.1599L76.1846 29.7948L67.3242 27.1746Z" fill="#BDCDFF"/>
<path d="M76.572 30.0345L62.5645 26.7891L66.9688 24.0908L76.572 30.0345Z" fill="white"/>
<path d="M68.6074 22.9299L76.5715 30.0345L71.347 20.9897L68.6074 22.9299Z" fill="white"/>
<path d="M86.6777 94.0218C128.736 94.0218 162.832 92.1269 162.832 89.7894C162.832 87.4519 128.736 85.557 86.6777 85.557C44.6189 85.557 10.5234 87.4519 10.5234 89.7894C10.5234 92.1269 44.6189 94.0218 86.6777 94.0218Z" fill="#95A6DB"/>
<path d="M49.1339 89.4955L22.7949 89.5154C20.3434 89.5173 18.1107 87.1494 17.8081 84.2266L10.5537 14.1528C10.2511 11.23 11.9932 8.85905 14.4447 8.85726L40.7837 8.83737C43.2352 8.83547 45.4679 11.2034 45.7705 14.1262L53.025 84.2001C53.3275 87.1228 51.5855 89.4936 49.1339 89.4955Z" fill="#264591"/>
<path d="M51.5792 89.4955L25.2403 89.5154C22.7887 89.5173 20.5561 87.1494 20.2535 84.2266L12.999 14.1528C12.6964 11.23 14.4385 8.85905 16.89 8.85726L43.229 8.83737C45.6806 8.83547 47.9132 11.2034 48.2158 14.1262L55.4703 84.2001C55.7729 87.1228 54.0308 89.4936 51.5792 89.4955Z" fill="#5E7CDB"/>
<path d="M50.2758 87.2636L26.0811 87.2818C24.1689 87.2833 22.4275 85.4363 22.1915 83.1566L15.2083 15.7033C14.9722 13.4236 16.3311 11.5743 18.2432 11.5728L42.438 11.5546C44.3502 11.5532 46.0916 13.4001 46.3276 15.6799L53.3108 83.1331C53.5468 85.413 52.188 87.2621 50.2758 87.2636Z" fill="white"/>
<path d="M49.2517 84.2369L26.4732 84.2544C24.9963 84.2554 23.6513 82.8292 23.469 81.0679L22.8759 75.3362L22.62 72.8599L22.1265 68.0915L18.3241 31.3279L16.876 17.328C16.6937 15.5673 17.7432 14.1385 19.2201 14.1375L22.6846 14.1355L22.7514 14.7797C22.8751 15.965 23.7802 16.9247 24.7748 16.9237L37.669 16.9072C38.6632 16.9062 39.3692 15.9439 39.2459 14.7586L39.18 14.1226L41.9989 14.1205C43.4754 14.119 44.8205 15.5462 45.0032 17.3069L45.4006 21.1485L51.5958 81.0463C51.7785 82.8081 50.7286 84.2359 49.2517 84.2369Z" fill="#95A6DB"/>
<path d="M36.2198 15.6645H25.3426C24.992 15.6645 24.6729 15.3257 24.6298 14.9078C24.5868 14.4898 24.8361 14.151 25.1867 14.151H36.0639C36.4145 14.151 36.7336 14.4898 36.7766 14.9078C36.8197 15.3257 36.5703 15.6645 36.2198 15.6645Z" fill="#8197DB"/>
<path d="M49.2507 84.2369L26.4723 84.2544C24.9954 84.2554 23.6503 82.8292 23.468 81.0679L22.875 75.3362L51.5948 81.0463C51.7775 82.8081 50.7277 84.2359 49.2507 84.2369Z" fill="#8197DB"/>
<path d="M45.3986 21.1485L18.3221 31.3279L16.8741 17.328C16.6918 15.5673 17.7412 14.1385 19.2181 14.1375L22.6827 14.1355L22.7495 14.7797C22.8732 15.965 23.7782 16.9247 24.7729 16.9237L37.667 16.9072C38.6613 16.9062 39.3672 15.9439 39.244 14.7586L39.178 14.1226L41.997 14.1205C43.4735 14.119 44.8185 15.5462 45.0013 17.3069L45.3986 21.1485Z" fill="#8197DB"/>
<path d="M97.3262 59.5612L96.4941 59.2659L97.1544 57.319L98.2434 57.5637L97.3262 59.5612Z" fill="#DE623C"/>
<path d="M98.3356 59.4021C98.3911 58.3402 99.4499 57.7242 99.4988 58.109C99.5558 58.5591 99.4052 59.2316 99.4052 59.2316C99.652 59.3771 100.787 58.8659 100.282 57.1525L100.673 56.4157L99.8332 55.6125L99.2783 56.0097C97.5348 56.5279 97.2819 57.1897 97.2192 58.8365C97.1575 60.4565 98.2835 60.4003 98.3356 59.4021Z" fill="#F37A50"/>
<path d="M99.3749 58.2164C99.3471 58.2296 99.3183 58.2352 99.2893 58.2375C99.2912 58.2431 99.2935 58.2484 99.2954 58.2541C99.4068 58.5884 99.3339 58.9365 99.1328 59.0317C99.0998 59.0473 99.0653 59.0543 99.0303 59.055C99.0379 59.2838 98.9601 59.4809 98.8165 59.5488C98.7595 59.5758 98.6983 59.5788 98.6373 59.5627C98.6573 59.7906 98.5719 60.0032 98.4111 60.0793C98.2099 60.1744 97.9697 60.0202 97.8747 59.7349C97.7796 59.4495 97.8656 59.141 98.0668 59.0459C98.1178 59.0218 98.1712 59.0138 98.2241 59.0198C98.1548 58.7172 98.2312 58.4243 98.4131 58.3383C98.4462 58.3226 98.4807 58.3155 98.5156 58.3148C98.508 58.0861 98.5858 57.889 98.7295 57.821C98.7824 57.796 98.839 57.7915 98.8957 57.8038C98.8702 57.6024 98.9428 57.4106 99.0842 57.3437C99.2541 57.2634 99.457 57.3936 99.5373 57.6346C99.6175 57.8756 99.5449 58.1361 99.3749 58.2164Z" fill="#DE623C"/>
<path d="M97.8359 56.7078C97.8783 56.418 98.1221 55.8284 98.5608 55.7726C98.9995 55.7168 99.5951 56.6891 99.2424 56.7078C98.8896 56.7265 98.604 56.3652 98.604 56.3652L97.8359 56.7078Z" fill="#DE623C"/>
<path d="M112.916 35.4111C110.357 35.4199 107.749 36.6449 107.813 42.4668C107.877 48.2887 107.45 53.8567 106.1 54.7143C107.382 56.1899 116.433 59.288 120.049 55.3489C118.441 53.0167 117.529 45.1075 117.529 42.9618C117.529 40.0382 116.845 35.3975 112.916 35.4111Z" fill="#201D40"/>
<path d="M114.95 87.076C114.833 85.6898 116.231 75.184 116.231 75.184C117.928 65.91 116.463 59.2279 116.463 59.2279L111.818 64.2035L112.943 73.465C112.943 73.465 112.738 74.1387 112.63 74.6775C112.045 77.5989 112.628 81.0903 112.989 83.4176C113.156 84.496 113.416 86.7625 113.422 87.2775L112.69 88.4066C112.69 88.4066 115.341 91.9046 115.749 91.9266C116.542 91.9693 116.308 91.0333 116.308 91.0333C115.218 89.6991 114.983 87.4728 114.95 87.076Z" fill="#F37A50"/>
<path d="M112.645 89.6461L112.791 91.8935L113.13 91.9117L113.301 89.8245C114.203 90.099 114.849 92.0502 114.849 92.0502C115.47 92.3158 117.05 92.4981 117.612 92.1529C117.747 91.4963 116.306 91.0358 116.306 91.0358C116.176 91.2196 115.407 91.3604 115.134 91.1635C114.128 90.1425 113.637 88.658 113.423 87.2774C113.423 87.2775 111.833 87.4096 112.645 89.6461Z" fill="#201D40"/>
<path d="M108.915 61.3755C107.616 65.2066 107.455 70.8181 107.372 72.7978C104.434 73.4042 98.683 78.5825 98.683 78.5825L97.6167 78.6471C97.6167 78.6471 97.1708 82.8173 97.3952 83.1591C97.8313 83.8233 98.227 83.0914 98.227 83.0914C98.3514 81.4375 99.2341 80.237 99.4145 79.9536C99.6856 79.5278 108.53 76.9253 110.278 76.0357C112.027 75.1462 113.668 61.7515 113.668 61.7515L108.915 61.3755Z" fill="#F37A50"/>
<path d="M96.8863 79.3303L95.6953 80.7531L95.8817 81.037L97.1659 79.9632C97.5339 80.8502 96.8016 82.5046 96.8016 82.5046C97.0115 83.16 97.8252 84.5396 98.3475 84.7926C98.799 84.5207 98.2235 83.0909 98.2235 83.0909C98.0436 83.0926 97.5169 82.5539 97.4701 82.2192C97.4655 80.8148 98.0233 79.5571 98.6825 78.5824C98.6825 78.5824 97.6845 77.377 96.8863 79.3303Z" fill="#201D40"/>
<path d="M115.442 46.3307C115.442 46.3307 117.99 48.7722 120.05 51.9337C120.617 53.0532 121.175 55.114 121.175 55.114C120.465 55.4031 114.259 49.5014 114.259 49.5014C114.259 49.5014 113.434 49.0186 113.734 47.7614C114.057 46.4051 115.442 46.3307 115.442 46.3307Z" fill="#F37A50"/>
<path d="M113.514 44.4465L111.738 44.1294L111.88 46.0943C111.88 46.0943 112.779 48.0261 113.632 47.6934C114.485 47.3607 114.069 46.5073 114.069 46.5073L113.514 44.4465Z" fill="#DE623C"/>
<path d="M110.984 42.4564C111.689 44.7755 112.765 45.8547 114.322 45.457C115.608 45.1284 116.653 42.6413 116.105 40.3143C115.557 37.9873 113.87 36.5168 112.337 37.03C110.804 37.5432 110.293 40.1839 110.984 42.4564Z" fill="#F37A50"/>
<path d="M112.596 41.5298C112.616 41.5188 112.634 41.4996 112.646 41.4737C112.811 41.0962 113.22 41.0441 113.224 41.0436C113.281 41.037 113.323 40.9763 113.318 40.9081C113.312 40.8399 113.222 40.7269 113.115 40.7524C113.094 40.7575 112.659 40.8127 112.44 41.3115C112.413 41.3723 112.454 41.4943 112.505 41.5261C112.534 41.5444 112.568 41.5445 112.596 41.5298Z" fill="#201D40"/>
<path d="M115.771 40.6611C115.781 40.6546 115.79 40.6463 115.798 40.6359C115.837 40.5852 115.834 40.5066 115.792 40.4603C115.462 40.1007 115.075 40.274 115.059 40.2815C115.005 40.3064 114.978 40.3785 114.999 40.4424C115.02 40.5062 115.08 40.5379 115.134 40.5134C115.146 40.5078 115.419 40.3908 115.651 40.6437C115.685 40.6805 115.733 40.6859 115.771 40.6611Z" fill="#201D40"/>
<path d="M114.461 41.888C114.611 42.0587 114.744 42.2357 114.886 42.333C114.933 42.3659 114.95 42.439 114.925 42.4974C114.821 42.7384 114.502 42.9476 114.306 43.058C114.277 43.0741 114.252 43.0297 114.275 43.0037C114.469 42.7836 114.551 42.6245 114.584 42.5376C114.601 42.4944 114.599 42.4446 114.58 42.403C114.535 42.3076 114.446 42.1129 114.385 41.9512C114.364 41.8952 114.424 41.8458 114.461 41.888Z" fill="#DE623C"/>
<path d="M113.579 43.983C113.519 43.922 113.548 43.8047 113.627 43.7941C113.827 43.7672 114.157 43.7145 114.464 43.6282C114.772 43.5419 115.087 43.4136 115.276 43.3311C115.351 43.2987 115.421 43.388 115.39 43.4749C115.293 43.742 115.069 44.1692 114.597 44.3015C114.126 44.4338 113.766 44.1708 113.579 43.983Z" fill="white"/>
<path d="M109.891 42.5077C111.728 42.1275 114.237 39.4927 114.412 38.3317C114.01 36.9652 112.704 36.0892 111.65 36.7795C110.596 37.4698 109.052 40.8035 109.891 42.5077Z" fill="#201D40"/>
<path d="M113.805 39.237C113.805 39.237 115 39.9027 116.146 40.0382C115.591 38.543 115.186 37.4069 114.477 37.1266C113.768 36.8463 113.023 36.8919 113.023 36.8919L113.805 39.237Z" fill="#201D40"/>
<path d="M111.464 41.6067C111.851 41.9381 111.981 42.5131 111.753 42.891C111.526 43.2689 111.027 43.3067 110.64 42.9753C110.253 42.6438 110.123 42.0689 110.35 41.691C110.578 41.3131 111.076 41.2753 111.464 41.6067Z" fill="#F37A50"/>
<path d="M111.286 42.8058C111.3 42.7969 111.313 42.784 111.322 42.7677C111.459 42.532 111.464 42.274 111.336 42.0777C111.205 41.8766 110.97 41.7927 110.779 41.8781C110.725 41.9022 110.697 41.9737 110.718 42.0381C110.738 42.1023 110.798 42.1349 110.852 42.1109C110.957 42.0641 111.097 42.1166 111.171 42.2304C111.243 42.3396 111.235 42.4802 111.151 42.6261C111.118 42.6825 111.13 42.7599 111.177 42.7991C111.211 42.8268 111.253 42.8277 111.286 42.8058Z" fill="#DE623C"/>
<path d="M114.989 41.1947C115.008 41.3805 115.151 41.512 115.307 41.4883C115.463 41.4647 115.573 41.2949 115.553 41.1091C115.533 40.9233 115.391 40.7918 115.235 40.8155C115.079 40.8391 114.969 41.0089 114.989 41.1947Z" fill="black"/>
<path d="M112.917 41.8948C112.938 42.0931 113.09 42.2333 113.256 42.208C113.422 42.1828 113.54 42.0017 113.519 41.8034C113.498 41.6052 113.346 41.465 113.179 41.4901C113.013 41.5154 112.895 41.6966 112.917 41.8948Z" fill="black"/>
<path d="M119.327 45.6758C119.186 48.4873 119.664 51.8811 119.573 53.652L121.176 55.114C122.025 53.7047 121.56 49.4602 120.536 46.6349C120.132 46.0041 119.327 45.6758 119.327 45.6758Z" fill="#F37A50"/>
<path d="M120.427 43.7832C120.427 43.7832 120.841 44.808 121.023 45.7496C121.018 45.7706 120.669 46.3663 120.536 46.6349C120.043 46.308 119.646 46.1425 119.281 45.7198C119.443 44.1621 120.305 43.7851 120.427 43.7832Z" fill="#DE623C"/>
<path d="M120.639 47.4171C120.262 47.5035 119.898 47.2093 119.826 46.76L119.193 42.8426L120.558 42.5296L121.19 46.4469C121.263 46.8963 121.016 47.3306 120.639 47.4171Z" fill="#494C7F"/>
<path d="M121.191 45.8075C121.172 45.7784 121.148 45.7557 121.123 45.7358C121.127 45.7319 121.131 45.7285 121.135 45.7244C121.381 45.4889 121.465 45.1279 121.323 44.9181C121.3 44.8836 121.271 44.8561 121.24 44.834C121.345 44.6307 121.36 44.4039 121.258 44.2541C121.218 44.1947 121.164 44.1543 121.102 44.1316C121.218 43.9368 121.232 43.6912 121.119 43.5235C120.977 43.3137 120.692 43.3066 120.483 43.5077C120.273 43.7087 120.218 44.0418 120.36 44.2517C120.396 44.3048 120.441 44.3447 120.492 44.3718C120.298 44.6043 120.241 44.9174 120.37 45.1072C120.393 45.1416 120.421 45.1692 120.453 45.1913C120.347 45.3946 120.333 45.6214 120.434 45.7712C120.471 45.8264 120.521 45.8652 120.578 45.8888C120.468 46.0562 120.451 46.275 120.551 46.4225C120.67 46.5997 120.911 46.6057 121.088 46.4359C121.265 46.2659 121.311 45.9847 121.191 45.8075Z" fill="#F37A50"/>
<path d="M119.242 45.7306C119.025 45.3276 118.884 44.1348 119.625 43.6137C120.477 43.0158 120.145 43.8708 119.949 44.0619C119.419 44.5771 119.861 44.99 119.661 45.4469C119.556 45.6873 119.381 45.9893 119.242 45.7306Z" fill="#F37A50"/>
<path d="M122.669 33.8159C122.669 33.8159 121.612 37.5199 119.316 39.1859C119.391 39.3942 120.864 42.3759 120.864 42.3759C120.864 42.3759 123.758 41.6848 126.553 42.6368C125.43 40.5544 122.669 33.8159 122.669 33.8159Z" fill="#95A6DB"/>
<path d="M125.901 37.363C126.958 39.8763 127.325 42.206 126.722 42.5665C126.118 42.927 124.773 41.1816 123.716 38.6683C122.66 36.155 122.292 33.8252 122.896 33.4648C123.499 33.1043 124.845 34.8496 125.901 37.363Z" fill="#494C7F"/>
<path d="M119.443 39.0913C118.894 39.3888 117.157 40.3621 117.847 42.1983C118.401 43.6708 120.091 42.9312 120.864 42.3758C120.547 41.7319 119.443 39.0913 119.443 39.0913Z" fill="#494C7F"/>
<path d="M123.16 37.173C123.16 37.173 124.333 36.3597 125.007 37.5795C125.556 38.7397 124.492 39.5718 124.168 39.661C123.824 39.1632 123.16 37.173 123.16 37.173Z" fill="#768FDB"/>
<path d="M106.664 72.4067C107.082 70.7377 106.623 60.9598 110.317 57.7115L116.673 58.51C118.142 61.3445 117.807 69.2724 117.995 76.0437C110.829 78.2613 111.743 71.996 106.664 72.4067Z" fill="#E62552"/>
<path d="M116.744 56.6401C116.744 54.9807 117.951 52.4946 117.372 50.8193C116.951 49.4718 116.124 46.4317 115.222 46.2263C114.856 46.1431 114.398 46.0965 113.948 46.0599C113.948 46.0599 114.212 47.4672 113.617 47.5241C112.47 47.6338 111.868 45.8817 111.868 45.8817C111.25 45.8113 109.094 46.5782 109.096 46.8557C109.102 49.0295 109.904 52.5447 110.389 54.8949C110.479 56.0916 110.408 57.0198 110.307 57.697C110.123 58.4029 109.899 58.8071 109.898 58.9597C109.898 58.9597 114.147 60.6807 116.85 58.9064C116.85 58.9064 116.744 57.7609 116.744 56.6401Z" fill="#E62552"/>
<path d="M100.567 56.5182C102.485 54.7897 103.6 52.6356 104.484 51.2078L102.738 49.2975C101.711 50.5426 100.672 53.0158 99.7402 55.6788C99.7922 56.4705 100.567 56.5182 100.567 56.5182Z" fill="#F37A50"/>
<path d="M110.709 49.6416C110.709 49.6416 106.66 51.3272 104.486 51.2078C103.413 50.9348 102.74 49.2975 102.74 49.2975L109.565 46.3952C109.565 46.3952 110.425 46.0085 110.989 47.1294C111.597 48.3385 110.709 49.6416 110.709 49.6416Z" fill="#F37A50"/>
<path d="M139.45 36.1271C139.32 34.0199 139.831 32.1584 141.24 31.2104C142.669 30.2495 144.458 31.1919 144.458 31.1919C144.458 31.1919 145.973 30.5495 147.346 32.3521C148.719 34.1548 147.68 35.7411 148.242 37.0558C148.574 37.8343 150.265 37.9948 149.828 40.5307C149.702 41.2621 148.965 41.7543 148.34 41.8033C147.242 41.8893 146.219 41.3833 145.774 41.8894C144.307 43.5568 141.057 42.9537 140.602 41.4284C140.461 40.9555 137.537 41.8707 137.829 38.6494C137.977 37.017 139.566 38.0099 139.45 36.1271Z" fill="#2C2858"/>
<path d="M148.362 46.4999C149.847 45.5898 153.257 44.0581 154.693 42.3856L152.487 40.515C152.487 40.515 147.444 42.4757 146.32 43.1888C145.463 44.0231 146.688 46.0984 148.362 46.4999Z" fill="#F5A3B7"/>
<path d="M156.751 30.4193C156.21 29.5805 155.906 30.1618 155.626 30.3346C154.843 30.8166 155.386 28.6164 154.524 28.9187C154.754 30.4746 154.227 30.4373 154.624 31.9382L154.531 32.562L155.792 33.6671L155.933 32.9785C156.745 32.5431 157.624 31.7329 156.751 30.4193Z" fill="#DE623C"/>
<path d="M156.946 30.7604C156.774 30.254 156.472 30.0129 156.331 29.932C156.162 29.8409 155.651 30.06 155.566 30.2937C155.481 30.5273 155.542 30.779 155.698 30.8725C155.74 30.8953 155.78 30.903 155.83 30.8931C155.76 31.1393 155.821 31.391 155.962 31.4719C155.989 31.4821 156.017 31.4923 156.044 31.5024C156.031 31.6909 156.094 31.8647 156.206 31.9203C156.248 31.9431 156.301 31.9483 156.339 31.9409C156.309 32.1018 156.352 32.3395 156.463 32.3952C156.572 32.5738 156.782 32.4873 156.904 32.3379C157.152 32.0324 157.239 31.6179 156.946 30.7604Z" fill="#F37A50"/>
<path d="M154.477 32.3893C154.477 32.3893 152.932 38.2015 152.485 40.515C152.307 41.4337 154.083 42.2429 154.692 42.3856C155.349 41.6152 155.791 39.7045 155.997 33.3029C155.535 32.6724 154.477 32.3893 154.477 32.3893Z" fill="#F5A3B7"/>
<path d="M140.137 46.4999C138.467 45.9373 134.613 43.7003 133.176 42.0278L134.89 40.1103C134.89 40.1103 139.831 41.7424 140.954 42.4554C141.064 43.683 140.976 45.7628 140.137 46.4999Z" fill="#F5A3B7"/>
<path d="M130.854 29.6691C131.395 28.8303 131.699 29.4115 131.979 29.5844C132.762 30.0664 132.219 27.8662 133.081 28.1684C132.852 29.7244 133.378 29.687 132.981 31.1879L133.074 31.8119L131.813 32.9169L131.673 32.2283C130.86 31.7929 129.981 30.9826 130.854 29.6691Z" fill="#DE623C"/>
<path d="M130.659 30.0101C130.832 29.5038 131.133 29.2627 131.275 29.1818C131.443 29.0907 131.955 29.3098 132.04 29.5434C132.124 29.777 132.064 30.0287 131.908 30.1223C131.866 30.145 131.826 30.1527 131.775 30.1428C131.845 30.389 131.785 30.6407 131.643 30.7216C131.616 30.7318 131.589 30.7419 131.561 30.7521C131.574 30.9406 131.511 31.1144 131.4 31.17C131.358 31.1928 131.305 31.198 131.267 31.1906C131.297 31.3515 131.254 31.5892 131.142 31.6449C131.034 31.8234 130.823 31.737 130.702 31.5876C130.453 31.2822 130.366 30.8676 130.659 30.0101Z" fill="#F37A50"/>
<path d="M133.127 31.6392C133.127 31.6392 134.657 37.7255 135.104 40.0389C135.282 40.9576 133.783 41.885 133.174 42.0278C132.987 41.1675 131.555 38.789 131.607 32.5527C132.068 31.9221 133.127 31.6392 133.127 31.6392Z" fill="#F5A3B7"/>
<path d="M142.451 38.789V43.6113C142.451 43.6113 143.953 44.4687 145.255 43.6113C145.055 42.5398 144.936 39.1259 144.936 39.1259L142.451 38.789Z" fill="#DE623C"/>
<path d="M140.796 42.4554H142.451C142.451 42.4554 143.156 43.8523 144.169 43.7443C145.182 43.6363 145.12 42.4554 145.12 42.4554L147.16 42.778C147.16 42.778 148.73 46.0452 148.488 48.6506C148.231 51.419 146.586 52.5464 146.675 56.7556C144.084 57.727 141.509 57.727 139.711 55.1671C140.362 52.2244 140.397 49.8277 139.886 46.2841C140.152 44.5873 140.796 42.4554 140.796 42.4554Z" fill="#F5A3B7"/>
<path d="M147.026 36.9913C147.026 39.5198 145.747 41.5696 144.169 41.5696C142.592 41.5696 141.312 39.5198 141.312 36.9913C141.312 34.4628 142.592 32.413 144.169 32.413C145.747 32.413 147.026 34.4628 147.026 36.9913Z" fill="#F37A50"/>
<path d="M141.123 36.9913C142.7 36.7509 144.166 35.7033 144.994 34.3495C145.529 35.9318 147.026 36.9913 147.026 36.9913C147.026 36.9913 148.148 33.9645 146.108 32.3317C144.161 30.7741 139.517 31.8383 141.123 36.9913Z" fill="#2C2858"/>
<path d="M142.966 37.9683C142.798 37.9683 142.662 37.8062 142.662 37.6063C142.662 37.4064 142.798 37.2444 142.966 37.2444C143.133 37.2444 143.269 37.4064 143.269 37.6063C143.269 37.8062 143.133 37.9683 142.966 37.9683Z" fill="black"/>
<path d="M145.386 37.9683C145.218 37.9683 145.082 37.8062 145.082 37.6063C145.082 37.4064 145.218 37.2444 145.386 37.2444C145.553 37.2444 145.689 37.4064 145.689 37.6063C145.689 37.8062 145.553 37.9683 145.386 37.9683Z" fill="black"/>
<path d="M145.924 37.2801C145.874 37.2802 145.825 37.2497 145.798 37.195C145.723 37.0442 145.632 36.9539 145.528 36.9264C145.348 36.8789 145.17 37.0221 145.168 37.0236C145.102 37.0776 145.011 37.0579 144.965 36.9793C144.92 36.9007 144.936 36.7931 145.001 36.7383C145.013 36.7289 145.282 36.5076 145.588 36.5861C145.775 36.6343 145.93 36.7795 146.049 37.0177C146.09 37.1002 146.067 37.2069 145.998 37.2559C145.975 37.2723 145.949 37.2801 145.924 37.2801Z" fill="#2C2858"/>
<path d="M142.392 37.2978C142.36 37.2978 142.328 37.2853 142.301 37.2596C142.238 37.1996 142.228 37.0901 142.278 37.0152C142.47 36.73 142.682 36.5748 142.909 36.5539C143.201 36.5268 143.402 36.7419 143.411 36.7511C143.47 36.8159 143.474 36.9258 143.42 36.9967C143.366 37.0672 143.274 37.0724 143.215 37.0087C143.21 37.0043 143.091 36.8839 142.927 36.9009C142.786 36.9157 142.644 37.0273 142.506 37.2327C142.477 37.2755 142.435 37.2978 142.392 37.2978Z" fill="#2C2858"/>
<path d="M144.47 38.0815C144.863 38.419 144.986 38.5576 145.137 38.6701C145.032 39.088 144.483 39.2956 144.326 39.2474C144.709 39.0223 144.763 38.7175 144.763 38.7175L144.47 38.0815Z" fill="#DE623C"/>
<path d="M141.118 36.8935C141.118 36.8935 140.857 32.7021 144.325 32.4951C145.831 32.4052 146.84 33.6672 146.84 33.6672C146.84 33.6672 146.139 31.5946 143.944 31.8296C141.776 32.0432 140.206 33.8508 141.118 36.8935Z" fill="#C4204A"/>
<path d="M141.739 37.3446C142.066 37.8389 142.082 38.474 141.775 38.7633C141.468 39.0526 140.953 38.8863 140.626 38.392C140.298 37.8977 140.282 37.2626 140.589 36.9734C140.897 36.6841 141.411 36.8503 141.739 37.3446Z" fill="#F37A50"/>
<path d="M141.451 38.4124C141.438 38.4124 141.425 38.4095 141.413 38.4033C141.364 38.3783 141.34 38.3104 141.361 38.2514C141.431 38.0555 141.432 37.8978 141.366 37.7829C141.264 37.6055 141.022 37.5507 140.847 37.5576C140.793 37.5599 140.748 37.5096 140.746 37.4457C140.744 37.3817 140.786 37.3281 140.84 37.326C141.076 37.3167 141.38 37.3972 141.526 37.6516C141.599 37.7783 141.661 38.0009 141.54 38.3415C141.525 38.3858 141.489 38.4124 141.451 38.4124Z" fill="#DE623C"/>
<path d="M143.41 39.8655C143.369 39.7863 143.427 39.6877 143.503 39.7068C143.697 39.7556 144.018 39.8281 144.328 39.861C144.637 39.8939 144.964 39.8903 145.162 39.8834C145.24 39.8806 145.282 39.9898 145.23 40.0592C145.071 40.2728 144.751 40.5886 144.277 40.5381C143.803 40.4878 143.535 40.1094 143.41 39.8655Z" fill="white"/>
<path d="M142.452 42.3857C142.452 42.3857 143.039 43.6321 144.085 43.7498C143.854 44.2262 143.613 44.5876 143.116 44.4465C142.184 44.1819 142.452 42.3857 142.452 42.3857Z" fill="white"/>
<path d="M145.121 42.4554C145.056 42.7663 145.18 43.66 144.086 43.7497C144.194 43.9877 144.416 44.6793 145.058 44.4323C145.792 44.15 145.407 42.6327 145.121 42.4554Z" fill="white"/>
<path d="M132.249 64.5302L131.004 66.156C131.004 66.156 130.306 66.3242 129.803 66.5761C129.707 66.6243 129.618 66.6753 129.543 66.7289C129.54 66.7307 129.538 66.7329 129.535 66.7347C129.443 66.801 129.322 66.8845 129.184 66.972C129.103 67.0231 129.016 67.0757 128.925 67.1277C128.377 67.4378 127.676 67.7147 127.242 67.4346C126.257 65.9406 127.777 64.1122 129.033 63.4265C130.289 62.7408 130.68 61.7295 131.28 61.9554C131.88 62.1812 132.249 64.5302 132.249 64.5302Z" fill="#494C7F"/>
<path d="M131.553 63.8755C131.797 64.088 132.691 64.9562 132.691 64.9562L131.477 67.0747C131.477 67.0747 131.244 66.6478 130.7 66.0395C129.572 64.7774 130.972 63.3696 131.553 63.8755Z" fill="#F37A50"/>
<path d="M139.311 71.2679C137.46 67.6906 132.429 64.2826 132.429 64.2826C132.429 64.2826 131.575 65.6417 131.213 67.1538C131.213 67.1538 135.76 73.0107 137.085 74.6093C138.422 75.8131 140.236 73.4268 139.311 71.2679Z" fill="#4364CC"/>
<path d="M142.085 77.5518L141.086 79.2758L142.683 79.9912L143.702 78.6212L142.085 77.5518Z" fill="#F37A50"/>
<path d="M146.583 59.2625L142.02 62.2533C142.02 62.2533 146.58 69.7547 149.323 71.5559C149.8 71.8695 152.41 70.0488 152.377 69.3953C152.258 67.0132 146.583 59.2625 146.583 59.2625Z" fill="#4364CC"/>
<path d="M148.934 68.1215C148.434 68.0489 142.086 77.5518 142.086 77.5518C142.086 77.5518 143.136 78.6291 144.236 79.1141C148.697 73.9929 150.928 71.921 152.398 69.8715C152.94 68.2183 150.818 66.9702 148.934 68.1215Z" fill="#4364CC"/>
<path d="M144.042 60.8108C144.042 60.8108 139.965 55.5284 138.797 56.8687C137.629 58.209 137.376 69.0467 136.717 73.1139C136.388 75.1449 138.898 75.8573 139.489 74.8723C140.557 73.0945 144.042 60.8108 144.042 60.8108Z" fill="#768FDB"/>
<path d="M144.49 83.5724C142.533 82.8569 141.177 81.4789 140.545 80.7239C140.307 80.4391 140.302 79.9799 140.535 79.6888C140.856 79.287 141.264 78.7992 141.526 78.5167C141.578 78.461 141.624 78.4135 141.663 78.3761L143.178 79.3261L143.239 79.3644C143.199 79.7338 143.266 80.0525 143.393 80.3375C143.433 80.4277 143.479 80.5143 143.53 80.5983C143.596 80.7086 143.67 80.8146 143.748 80.9167C143.806 80.9925 143.866 81.0663 143.928 81.139C144.571 81.9023 145.312 82.5095 144.49 83.5724Z" fill="#494C7F"/>
<path d="M138.118 59.9706C138.118 59.9706 137.842 57.7689 139.712 55.1672C141.29 56.6509 142.868 57.5661 146.676 56.7557C146.984 59.0968 146.817 59.7693 146.817 59.7693L143.628 61.9232L138.118 59.9706Z" fill="#768FDB"/>
<path d="M68.0478 63.557C68.0478 63.557 67.3662 63.3474 67.5812 63.089C67.9265 62.6742 67.9456 63.2496 68.3112 63.3375C68.6354 63.4155 68.1428 61.4997 66.5744 61.8171C66.3467 61.8632 65.9082 61.3965 65.9082 61.3965L65.416 62.8025L65.4479 63.0932C65.4362 64.1671 65.8712 64.4919 66.2225 64.7487L68.0478 63.557Z" fill="#DE623C"/>
<path d="M56.8054 48.4017C55.5887 50.5853 56.5154 53.9686 58.6478 59.4398C60.567 59.3131 61.0067 57.7932 61.0067 57.7932C61.0067 57.7932 60.5519 52.7094 60.1633 51.1803C59.2305 47.5102 57.3919 47.349 56.8054 48.4017Z" fill="#0E6A41"/>
<path d="M66.0111 61.3961L61.0074 57.7932L58.6484 59.4398C60.0251 60.9103 61.761 62.2206 65.4075 63.214C65.8817 62.4502 66.0111 61.3961 66.0111 61.3961Z" fill="#0E6A41"/>
<path d="M40.7699 65.9156L39.5101 67.5607C39.5101 67.5607 38.8034 67.7309 38.2945 67.9858C38.1975 68.0345 38.1076 68.0862 38.0312 68.1405C38.0285 68.1423 38.0257 68.1445 38.023 68.1464C37.9298 68.2136 37.8081 68.298 37.6681 68.3866C37.5865 68.4383 37.4982 68.4915 37.4059 68.5441C36.8516 68.8579 36.142 69.1382 35.7027 68.8546C34.7056 67.3427 36.2441 65.4925 37.5151 64.7987C38.7864 64.1049 39.1822 63.0815 39.7891 63.31C40.396 63.5386 40.7699 65.9156 40.7699 65.9156Z" fill="#181630"/>
<path d="M38.2931 67.9858C38.196 68.0345 38.1062 68.0862 38.0298 68.1405L37.6609 67.0381C37.6308 66.9487 37.6675 66.847 37.7425 66.8115C37.7627 66.802 37.7834 66.7981 37.8039 66.7993C37.8594 66.8026 37.9107 66.8435 37.9325 66.9087L38.2931 67.9858Z" fill="white"/>
<path d="M37.6692 68.3866C37.5876 68.4383 37.4993 68.4915 37.4071 68.5441L37.1022 67.6337C37.0724 67.5439 37.109 67.4427 37.184 67.4068C37.2039 67.3972 37.225 67.3933 37.2451 67.3945C37.3006 67.3978 37.3522 67.4387 37.374 67.5043L37.6692 68.3866Z" fill="white"/>
<path d="M40.066 65.253C40.3131 65.468 41.218 66.3466 41.218 66.3466L39.9895 68.4904C39.9895 68.4904 39.7537 68.0584 39.2035 67.4429C38.0618 66.1657 39.4781 64.7411 40.066 65.253Z" fill="#F37A50"/>
<path d="M47.9156 72.7338C46.0422 69.1138 40.9516 65.6651 40.9516 65.6651C40.9516 65.6651 40.0871 67.0403 39.7207 68.5706C39.7207 68.5706 44.3225 74.4973 45.6628 76.1151C47.0161 77.3331 48.8516 74.9185 47.9156 72.7338Z" fill="#C4204A"/>
<path d="M58.9238 86.384L59.5281 88.3782L60.9606 87.2307L60.6131 85.4244L58.9238 86.384Z" fill="#F37A50"/>
<path d="M54.7783 61.3965L49.918 63.8238C49.918 63.8238 53.8335 71.9542 56.4316 74.1167C56.8839 74.4932 59.6732 72.9941 59.6989 72.3323C59.793 69.92 54.7783 61.3965 54.7783 61.3965Z" fill="#C4204A"/>
<path d="M56.4332 74.1167C56.0895 74.5647 58.9255 86.3841 58.9255 86.3841C58.9255 86.3841 60.2871 85.9858 61.2687 85.1906C60.3514 77.7999 60.2309 74.3909 59.6786 71.7427C58.8542 70.2396 56.7448 71.5898 56.4332 74.1167Z" fill="#C4204A"/>
<path d="M52.7021 62.1716C52.7021 62.1716 49.0234 58.0511 47.8413 59.4075C46.6593 60.7638 45.9568 70.506 45.2897 74.6217C44.9566 76.6769 47.4965 77.3979 48.0951 76.4012C49.1757 74.6021 52.7021 62.1716 52.7021 62.1716Z" fill="#E62552"/>
<path d="M58.9451 37.7983C59.5038 35.8801 58.5911 33.2003 56.8071 33.6671C55.0231 34.1339 53.9704 34.8201 53.348 32.2416C52.8523 30.1883 50.6653 28.9317 48.3577 30.1089C45.4054 31.6148 47.4296 33.4679 45.7684 33.6462C44.1072 33.8247 42.4973 34.2149 43.3521 36.7554C44.2068 39.2959 46.6753 40.3488 48.9697 38.8305C51.2641 37.3121 51.0403 39.5931 52.4185 39.5209C54.3783 39.4184 58.9451 37.7983 58.9451 37.7983Z" fill="#201D40"/>
<path d="M55.5039 40.2951C54.7419 42.6905 55.4035 45.2109 56.9817 45.9243C58.5599 46.6378 60.457 45.2742 61.219 42.8787C61.981 40.4833 61.3193 37.9629 59.7411 37.2495C58.1629 36.5361 56.2658 37.8997 55.5039 40.2951Z" fill="#F37A50"/>
<path d="M55.7312 43.1144L57.5471 45.6908C57.5471 45.6908 57.4018 47.099 57.3951 47.2973C57.367 48.1338 56.4668 48.1023 55.9298 47.3379C55.3928 46.5735 55.1152 45.711 55.1152 45.711L55.7312 43.1144Z" fill="#F37A50"/>
<path d="M61.4421 42.444C60.9121 42.1416 58.1516 39.8502 58.0033 39.0364C57.5457 40.611 55.0166 41.5196 54.8949 40.944C54.8698 37.6471 56.3135 35.4728 59.2248 36.0278C63.2171 36.7888 61.4421 42.444 61.4421 42.444Z" fill="#2C2858"/>
<path d="M57.5912 42.1293C57.6293 42.3474 57.8086 42.4875 57.9916 42.442C58.1746 42.3965 58.2921 42.1828 58.2539 41.9646C58.2158 41.7464 58.0366 41.6064 57.8535 41.6519C57.6705 41.6973 57.5531 41.9111 57.5912 42.1293Z" fill="black"/>
<path d="M59.8212 43.0754C59.857 43.2802 60.0253 43.4117 60.1971 43.369C60.3689 43.3263 60.4791 43.1257 60.4433 42.9209C60.4075 42.7161 60.2393 42.5847 60.0674 42.6273C59.8957 42.67 59.7854 42.8705 59.8212 43.0754Z" fill="black"/>
<path d="M60.8732 42.6884C60.8863 42.6873 60.8994 42.6834 60.9122 42.6765C60.9744 42.6424 61.0033 42.5472 60.9768 42.4639C60.7707 41.817 60.2865 41.7643 60.266 41.7624C60.1987 41.756 60.1407 41.8236 60.1369 41.9134C60.1331 42.0029 60.1845 42.0807 60.2518 42.0874C60.2676 42.0892 60.6066 42.1325 60.7515 42.5874C60.7726 42.6536 60.8224 42.6924 60.8732 42.6884Z" fill="#2C2858"/>
<path d="M57.5064 41.2769C57.4971 41.2659 57.4892 41.2527 57.4834 41.2375C57.4549 41.1633 57.4851 41.0686 57.5508 41.0262C58.0611 40.6965 58.4568 41.0331 58.4734 41.0476C58.5279 41.0952 58.5348 41.1916 58.4885 41.2625C58.4424 41.3333 58.3609 41.3522 58.3063 41.305C58.2933 41.294 58.0128 41.0631 57.6539 41.2951C57.6017 41.3288 57.5427 41.3195 57.5064 41.2769Z" fill="#2C2858"/>
<path d="M59.5157 43.2318C59.5361 43.5062 59.5381 43.7703 59.5963 43.9756C59.6159 44.0448 59.5853 44.121 59.5283 44.1479C59.293 44.2582 58.8972 44.1533 58.665 44.0735C58.6311 44.0618 58.6373 44.0025 58.6725 44.0009C58.9708 43.9876 59.1371 43.926 59.2187 43.8828C59.2593 43.8613 59.2882 43.8179 59.2976 43.7662C59.3193 43.6475 59.3651 43.4071 59.4138 43.2184C59.4305 43.1533 59.5106 43.1639 59.5157 43.2318Z" fill="#DE623C"/>
<path d="M55.9517 41.5807C56.1561 42.1317 56.0151 42.7399 55.6369 42.9393C55.2586 43.1387 54.7863 42.8536 54.582 42.3026C54.3776 41.7516 54.5186 41.1433 54.8969 40.944C55.275 40.7446 55.7473 41.0296 55.9517 41.5807Z" fill="#F37A50"/>
<path d="M55.4232 42.465C55.4394 42.4609 55.4552 42.4524 55.4691 42.4393C55.669 42.2507 55.7411 41.991 55.6619 41.7447C55.5808 41.4925 55.3649 41.3212 55.1485 41.3373C55.0876 41.3419 55.0413 41.4044 55.0451 41.477C55.0489 41.5497 55.1014 41.6048 55.1623 41.6003C55.2809 41.5914 55.4097 41.6963 55.4556 41.839C55.4996 41.9762 55.4557 42.1159 55.332 42.2327C55.2841 42.2778 55.276 42.3607 55.3139 42.4177C55.3407 42.4582 55.3835 42.4748 55.4232 42.465Z" fill="#DE623C"/>
<path d="M55.8218 62.8742C51.227 62.9373 47.4102 59.9119 47.4102 59.9119C47.6208 59.28 48.1819 57.9993 49.6797 56.1618C50.062 54.2132 50.867 49.7064 51.1394 48.6063C52.5146 45.94 52.9731 46.809 52.9633 45.2617L55.1409 45.6185C55.1409 45.6185 55.5323 47.394 56.734 47.7189C57.4851 47.9219 57.4103 46.9459 57.4103 46.9459C57.4103 46.9459 58.4693 47.9319 58.7532 48.3252C58.7532 48.3252 59.3989 51.6855 59.2194 52.6157C58.8919 54.3115 56.6573 58.8705 56.6573 58.8705C56.6573 58.8705 55.7872 62.3866 55.8218 62.8742Z" fill="#3F964F"/>
<path d="M42.9983 58.1907C42.9678 57.5503 42.9864 56.6245 43.288 56.681C43.7723 56.7716 43.9312 56.9901 44.2911 57.1071C44.6102 57.2109 44.4574 56.5021 43.3319 55.3898L43.3764 54.8748L42.2147 54.421L42.1827 54.6633C41.4152 55.1737 41.0113 56.4644 41.4301 57.8069C41.6091 58.3807 43.0389 59.0446 42.9983 58.1907Z" fill="#F37A50"/>
<path d="M54.4199 46.1863C52.8642 44.3337 50.0653 44.9941 45.1455 46.4072C45.0735 48.1042 45.4694 49.4437 45.4694 49.4437C45.4694 49.4437 50.1385 49.7154 51.4726 49.5627C54.6747 49.1965 55.1699 47.0794 54.4199 46.1863Z" fill="#0E6A41"/>
<path d="M43.5387 55.1203L46.8346 49.363C46.8346 49.363 45.798 47.0905 45.1456 46.4072C43.9425 48.3802 42.8075 50.7851 42.0234 54.372C42.6566 54.9494 43.5387 55.1203 43.5387 55.1203Z" fill="#0E6A41"/>
<path d="M65.1742 87.4575C63.5294 88.9592 61.105 89.5838 60.2118 89.7609C59.8749 89.8278 59.5548 89.5626 59.4906 89.1626C59.4018 88.6108 59.3041 87.9241 59.2631 87.5004C59.255 87.4167 59.2493 87.3436 59.2461 87.2838L60.793 86.354L60.8555 86.3164C61.0872 86.5729 61.3469 86.6941 61.6187 86.7366C61.7043 86.7506 61.7912 86.7563 61.8789 86.756C61.9942 86.7558 62.111 86.7452 62.2275 86.7284C62.3138 86.7164 62.4003 86.7003 62.4864 86.6831C63.3923 86.4993 64.9225 86.0259 65.1742 87.4575Z" fill="#181630"/>
<path d="M61.8794 86.7559L61.8907 87.2988C61.8925 87.3839 61.8359 87.4552 61.7642 87.4574C61.6924 87.4592 61.6329 87.3918 61.6311 87.3066L61.6191 86.7365C61.7047 86.7506 61.7916 86.7562 61.8794 86.7559Z" fill="white"/>
<path d="M62.4874 86.6831L62.4961 87.0939C62.4977 87.1794 62.441 87.2503 62.3696 87.2525C62.2978 87.2548 62.2384 87.1872 62.2365 87.1017L62.2285 86.7283C62.3148 86.7163 62.4013 86.7002 62.4874 86.6831Z" fill="white"/>
<path d="M52.8195 62.5192L52.625 62.4626C53.4996 60.0405 55.328 56.0805 56.4213 53.653C56.521 53.4317 56.6144 53.2241 56.7005 53.0327C57.6961 50.8179 56.8359 47.7662 56.8276 47.7367L57.0382 47.7308C57.047 47.762 57.2806 48.5413 57.3634 49.5782C57.4402 50.5391 57.4178 51.9379 56.8754 53.1445C56.7893 53.336 56.6958 53.5436 56.5962 53.7649C55.5043 56.1891 53.6907 60.1064 52.8195 62.5192Z" fill="#0E6A41"/>
<path d="M57.5889 44.3446C57.5783 44.2589 57.6541 44.1905 57.7112 44.2347C57.8564 44.3471 58.0992 44.5257 58.3438 44.6646C58.5883 44.8035 58.8577 44.9157 59.0224 44.9793C59.0872 45.0043 59.0903 45.1176 59.0278 45.1618C58.8356 45.2979 58.482 45.4693 58.1072 45.2565C57.7325 45.0437 57.6214 44.6084 57.5889 44.3446Z" fill="white"/>
<path d="M85.1909 45.5131C82.8033 47.1702 85.2517 54.5977 87.7399 56.9289C87.7399 56.9289 90.7568 56.3396 90.1101 54.8539C88.2715 50.6296 87.0603 44.2156 85.1909 45.5131Z" fill="#4364CC"/>
<path d="M97.1932 57.3088L89.7448 54.1408C89.7448 54.1408 88.6418 55.3066 87.7402 56.9289C88.9283 57.9045 91.1082 58.9699 96.5329 59.2556C96.9144 58.7634 97.1932 57.3088 97.1932 57.3088Z" fill="#4364CC"/>
<path d="M83.1895 41.1666L83.1909 41.1669L84.411 41.4154L84.3096 45.1081L82.6552 45.5211L81.2598 44.3317L81.9883 40.933L83.1895 41.1666Z" fill="#F37A50"/>
<path d="M81.1044 38.2319C81.0329 40.7799 82.3358 42.8997 84.0144 42.9666C85.6931 43.0335 87.1118 41.0222 87.1833 38.4742C87.2547 35.9263 85.9518 33.8064 84.2732 33.7395C82.5946 33.6727 81.1758 35.684 81.1044 38.2319Z" fill="#F37A50"/>
<path d="M85.1034 39.084C85.3397 39.6133 85.6406 40.26 85.6406 40.26C85.6406 40.26 85.4537 40.7821 84.8613 40.7405C85.1191 40.6378 85.3786 40.4574 85.2997 40.0507C85.2208 39.6441 85.1034 39.084 85.1034 39.084Z" fill="#DE623C"/>
<path d="M80.7065 36.0932C80.861 33.6826 82.8022 33.2674 82.8022 33.2674C82.8022 33.2674 82.416 33.0138 82.6161 32.3156C82.8758 32.5852 83.2162 32.7538 83.5598 32.7812C85.8753 32.9657 87.2465 33.6977 86.8707 34.7168C86.737 35.0794 88.1874 35.5677 87.1773 37.9495C87.078 37.6247 87.1075 36.4858 86.6989 36.1523C86.2889 35.8177 86.4309 36.7393 85.4438 36.4039C84.4478 36.0656 83.8573 35.4319 83.0508 35.7627C82.3988 36.0782 81.2542 38.8226 81.2603 39.027C81.2464 38.5583 80.6385 37.1525 80.7065 36.0932Z" fill="#201D40"/>
<path d="M87.0084 39.8383C87.0084 39.8383 86.6247 41.1543 86.3259 41.4669C86.3538 40.873 85.2294 41.0263 84.7563 40.9822C83.8996 40.9024 83.1676 39.8385 82.6979 41.1039C81.6122 40.9642 81.6161 38.0643 81.6161 38.0643C80.5596 40.7527 81.4557 43.0453 84.0225 43.8508C85.7136 44.3815 87.031 41.9577 87.0084 39.8383Z" fill="#201D40"/>
<path d="M83.908 38.6939C83.7462 38.6749 83.6281 38.5032 83.644 38.3103C83.66 38.1175 83.8041 37.9766 83.9659 37.9956C84.1276 38.0146 84.2458 38.1864 84.2298 38.3793C84.2138 38.5721 84.0698 38.713 83.908 38.6939Z" fill="black"/>
<path d="M86.3162 39.0657C86.1544 39.0467 86.0362 38.875 86.0522 38.6821C86.0682 38.4893 86.2123 38.3484 86.374 38.3674C86.5358 38.3865 86.654 38.5582 86.638 38.7511C86.622 38.9439 86.478 39.0848 86.3162 39.0657Z" fill="black"/>
<path d="M86.9035 38.4393C86.8539 38.4335 86.808 38.3975 86.7854 38.3398C86.7232 38.1808 86.6401 38.0801 86.5385 38.0405C86.3632 37.9721 86.1737 38.0939 86.1718 38.0952C86.1014 38.1412 86.0126 38.1109 85.9736 38.0273C85.9346 37.9435 85.9592 37.8383 86.0292 37.7913C86.0413 37.7832 86.3283 37.5944 86.6261 37.7083C86.809 37.7784 86.9516 37.9412 87.05 38.1925C87.084 38.2796 87.0525 38.3832 86.9794 38.4238C86.9548 38.4375 86.9287 38.4423 86.9035 38.4393Z" fill="#201D40"/>
<path d="M83.3288 38.0116C83.2969 38.0078 83.2659 37.9917 83.2412 37.9629C83.1835 37.8957 83.1825 37.7855 83.2388 37.7168C83.4533 37.455 83.6775 37.3252 83.9052 37.331C84.1988 37.3383 84.3814 37.5762 84.3891 37.5863C84.443 37.6578 84.438 37.7679 84.378 37.8321C84.3183 37.896 84.2266 37.8904 84.1727 37.82C84.1687 37.8151 84.0595 37.6811 83.8953 37.6789C83.7527 37.677 83.6021 37.7716 83.4476 37.96C83.4154 37.9994 83.3714 38.0166 83.3288 38.0116Z" fill="#201D40"/>
<path d="M81.5859 38.0704C81.8883 38.5495 81.8667 39.177 81.5379 39.4718C81.209 39.7667 80.6973 39.6175 80.395 39.1384C80.0927 38.6593 80.1142 38.0319 80.4431 37.7369C80.7719 37.442 81.2836 37.5913 81.5859 38.0704Z" fill="#F37A50"/>
<path d="M81.0925 39.2114C81.1087 39.2075 81.1244 39.1992 81.1384 39.1863C81.3385 39.0005 81.4119 38.7428 81.3348 38.497C81.2558 38.2453 81.042 38.0728 80.8266 38.0868C80.766 38.0909 80.7195 38.1526 80.7228 38.2248C80.7261 38.2971 80.7779 38.3525 80.8386 38.3486C80.9566 38.3409 81.0841 38.4465 81.1288 38.589C81.1717 38.7258 81.1272 38.8644 81.0033 38.9795C80.9553 39.024 80.9467 39.1063 80.9841 39.1635C81.0105 39.2039 81.0529 39.2209 81.0925 39.2114Z" fill="#DE623C"/>
<path d="M84.7749 42.104C84.0293 42.104 83.5514 41.3523 83.5452 41.3423C83.5055 41.2785 83.5168 41.1884 83.5704 41.1411C83.6239 41.0939 83.6993 41.1073 83.739 41.171C83.7669 41.2157 84.4354 42.2576 85.4114 41.5987C85.4694 41.5596 85.543 41.5839 85.5758 41.6531C85.6086 41.7222 85.5883 41.81 85.5303 41.8491C85.2573 42.0334 85.0036 42.104 84.7749 42.104Z" fill="#DE623C"/>
<path d="M85.1875 85.8862L85.5293 87.454L87.4496 86.6941L87.4091 85.557L85.1875 85.8862Z" fill="#F37A50"/>
<path d="M72.127 86.7978L72.4034 85.3315L74.5432 85.4942L74.0628 86.6746L72.127 86.7978Z" fill="#F37A50"/>
<path d="M87.4457 86.6346C88.4871 88.5305 91.2248 87.2444 91.0355 89.7184C86.8753 89.4514 85.1445 89.3854 85.1445 89.3854C85.1726 88.8164 85.3087 87.4695 85.4257 86.9459L87.4457 86.6346Z" fill="#181630"/>
<path d="M74.0528 86.5585C75.0108 88.516 77.903 87.4526 77.6071 89.9117L71.7383 89.4372C71.7383 88.5291 71.9851 87.3136 72.1246 86.7978L74.0528 86.5585Z" fill="#181630"/>
<path d="M83.1629 58.2508L77.7383 61.8859C77.7383 61.8859 82.4705 71.8367 85.1264 74.8774C85.5887 75.4067 88.1434 74.4727 88.3131 73.8142C88.9319 71.4139 83.1629 58.2508 83.1629 58.2508Z" fill="#181630"/>
<path d="M84.6852 73.6033C83.7571 78.1622 84.8828 86.2218 84.8828 86.2218C84.8828 86.2218 86.5952 86.2934 87.895 85.6732C87.7531 77.9027 88.6064 75.2978 88.2831 72.4689C87.4779 70.761 85.3978 71.0715 84.6852 73.6033Z" fill="#181630"/>
<path d="M81.9858 59.8509L75.7692 59.5186C75.7692 59.5186 75.3744 70.9475 76.2808 75.2023C76.4385 75.9431 78.4376 76.891 78.8736 76.439C80.4631 74.7912 81.9858 59.8509 81.9858 59.8509Z" fill="#201D40"/>
<path d="M76.2559 73.3448C73.7368 76.949 72.0801 85.1744 72.0801 85.1744C72.0801 85.1744 73.3198 86.2948 74.7158 86.4213C77.9751 79.6516 78.4386 77.5773 79.4205 75.25C80.0615 73.0075 77.8318 71.447 76.2559 73.3448Z" fill="#201D40"/>
<path d="M77.3669 44.3562C77.3669 44.3562 79.2327 43.2231 81.3727 43.9812C83.479 46.0478 84.3137 44.971 84.3137 44.971C85.1967 44.9936 86.1492 45.5211 86.1492 45.5211C86.3724 50.8021 85.2984 61.7496 85.2984 61.7496C85.2984 61.7496 82.0618 62.4297 79.6543 61.7496C77.2548 61.0303 75.1484 59.8272 75.1484 59.8272C75.1484 59.8272 76.7395 47.4142 77.3669 44.3562Z" fill="#768FDB"/>
<path d="M80.2889 44.8712C78.1859 41.4141 73.8757 47.4121 71.6875 50.1934C71.6875 50.1934 71.8807 53.6962 74.0246 53.577C75.7071 52.8844 81.5596 46.9599 80.2889 44.8712Z" fill="#4364CC"/>
<path d="M66.7681 64.1986C66.8236 63.1368 67.8824 62.5208 67.9313 62.9056C67.9884 63.3557 67.8378 64.0282 67.8378 64.0282C68.0845 64.1737 69.2194 63.6625 68.7149 61.9491L69.3972 61.1733L68.0643 59.8073L67.7108 60.8063C65.9673 61.3245 65.5824 62.0399 65.5198 63.6867C65.4581 65.3065 66.716 65.1968 66.7681 64.1986Z" fill="#DE623C"/>
<path d="M69.5447 62.1616L74.355 53.2655C74.355 53.2655 72.6744 51.7417 71.6857 50.1934C70.5761 51.6676 69.6816 54.1369 67.6719 60.1505C67.9364 60.7418 69.5447 62.1616 69.5447 62.1616Z" fill="#4364CC"/>
<path d="M66.5347 63.8375C66.5621 63.8389 66.588 63.847 66.613 63.8579C66.613 63.8524 66.6128 63.8469 66.613 63.8413C66.6242 63.5123 66.7939 63.2533 66.9919 63.263C67.0244 63.2646 67.0555 63.274 67.085 63.2889C67.1501 63.0942 67.2767 62.9639 67.4181 62.9708C67.4742 62.9736 67.5263 62.9982 67.5723 63.0387C67.6268 62.8391 67.7646 62.6992 67.9229 62.707C68.1209 62.7166 68.2737 62.9523 68.264 63.2332C68.2544 63.5142 68.0862 63.734 67.8881 63.7243C67.838 63.7218 67.7908 63.7048 67.7483 63.6763C67.7118 63.9602 67.5564 64.1713 67.3774 64.1625C67.3449 64.1609 67.3138 64.1516 67.2843 64.1366C67.2192 64.3314 67.0926 64.4618 66.9512 64.4548C66.8991 64.4523 66.8503 64.4309 66.8068 64.3955C66.7651 64.5752 66.6445 64.7036 66.5054 64.6967C66.338 64.6885 66.209 64.4895 66.2172 64.2522C66.2253 64.015 66.3674 63.8293 66.5347 63.8375Z" fill="#F37A50"/>
<path d="M30.5508 80.8012L30.729 82.1263L32.5924 81.5477L32.5753 80.4281L30.5508 80.8012Z" fill="#F37A50"/>
<path d="M32.5998 81.4036C33.5994 83.2233 36.2359 81.8797 36.0543 84.2542L30.3672 84.2513C30.3942 83.7051 30.5487 82.2048 30.661 81.7023L32.5998 81.4036Z" fill="#181630"/>
<path d="M28.9503 55.1569L24.3652 58.2295C24.3652 58.2295 28.365 66.64 30.6098 69.2102C31.0006 69.6576 33.1599 68.8681 33.3034 68.3116C33.8264 66.2827 28.9503 55.1569 28.9503 55.1569Z" fill="#181630"/>
<path d="M30.2364 68.1334C29.1439 72.413 30.2952 81.0848 30.2952 81.0848C30.2952 81.0848 31.7426 81.1453 32.8412 80.6211C32.7213 74.0534 33.5506 69.5655 33.2774 67.1745C32.5968 65.731 30.8387 65.9933 30.2364 68.1334Z" fill="#181630"/>
<path d="M27.9557 56.5094L22.7012 56.2285C22.7012 56.2285 22.3675 65.8886 23.1337 69.4848C23.267 70.1109 24.9567 70.9121 25.3252 70.5301C26.6686 69.1374 27.9557 56.5094 27.9557 56.5094Z" fill="#201D40"/>
<path d="M25.0607 70.8879C24.4364 71.314 23.6475 72.0028 22.6243 72.8599L22.1309 68.0917C22.621 67.9029 23.1061 67.7923 23.5771 67.784C25.4311 67.324 26.3905 69.6649 25.0607 70.8879Z" fill="#201D40"/>
<path d="M38.2952 43.1502C38.0583 43.48 37.6394 44.2483 37.355 44.6152L36.4665 44.0702C36.1854 42.7228 36.6988 41.3166 36.7432 41.1466C36.8585 40.7048 36.8897 40.4888 36.949 40.4789C37.0083 40.469 37.3627 40.5202 37.2121 41.1695C37.0231 41.9842 37.7758 42.0326 38.3841 40.365C38.5364 39.9475 39.0076 39.9529 39.026 40.3781C39.0465 40.8465 39.3732 41.6494 38.2952 43.1502Z" fill="#F37A50"/>
<path d="M32.0452 48.1588C31.8366 48.8186 32.5596 51.5497 32.7635 51.5083C35.0252 50.0303 37.4837 44.5724 37.4837 44.5724L36.2471 43.6518C36.2471 43.6518 34.7327 45.933 32.0452 48.1588Z" fill="#C4204A"/>
<path d="M27.3394 44.6366C28.1957 46.4235 32.1434 51.412 32.7624 51.5083L32.9786 47.9975C32.9786 47.9975 30.0124 42.552 29.4083 41.6551C28.3651 40.0991 25.9366 41.7225 27.3394 44.6366Z" fill="#C4204A"/>
<path d="M39.1411 40.2487L37.2879 43.6807C37.2136 43.8182 37.0599 43.8579 36.9446 43.7694L36.5554 43.4708C36.44 43.3822 36.4067 43.199 36.481 43.0615L38.3342 39.6295C38.4085 39.492 38.5622 39.4523 38.6775 39.5408L39.0667 39.8394C39.182 39.928 39.2153 40.1112 39.1411 40.2487Z" fill="#201D40"/>
<path d="M38.9692 40.1147L37.116 43.5467C37.0417 43.6842 36.888 43.7239 36.7727 43.6354L36.3835 43.3368C36.2682 43.2482 36.2349 43.065 36.3091 42.9275L38.1623 39.4955C38.2366 39.358 38.3903 39.3183 38.5056 39.4067L38.8948 39.7055C39.0102 39.794 39.0435 39.9772 38.9692 40.1147Z" fill="white"/>
<path d="M38.2148 42.0106C38.2594 41.7583 38.1954 40.709 38.463 40.7125C38.5282 40.74 38.5528 40.894 38.5528 40.894C38.5908 40.7386 38.6681 40.0549 38.8808 40.1757C39.0621 40.3648 39.0337 40.5132 39.0337 40.5132L38.2148 42.0106Z" fill="#F37A50"/>
<path d="M28.7668 41.7631C29.0298 42.3058 26.476 42.4419 26.2568 41.3661C26.0376 40.2904 26.889 37.4553 26.889 37.4553L29.1369 38.5094C29.1369 38.5094 28.4246 41.0566 28.7668 41.7631Z" fill="#DE623C"/>
<path d="M26.1763 35.1419C26.1466 37.6231 27.4477 39.6568 29.0823 39.6846C30.7168 39.7125 32.066 37.7236 32.0956 35.2425C32.1253 32.7614 30.8242 30.7275 29.1897 30.6997C27.5551 30.6721 26.2059 32.6609 26.1763 35.1419Z" fill="#F37A50"/>
<path d="M31.1948 36.0694C31.2665 36.2534 31.4497 36.3333 31.6041 36.2478C31.7584 36.1623 31.8254 35.9438 31.7537 35.7598C31.682 35.5759 31.4987 35.496 31.3444 35.5815C31.19 35.6669 31.1231 35.8854 31.1948 36.0694Z" fill="black"/>
<path d="M29.1425 35.7626C29.2201 35.9618 29.4184 36.0482 29.5855 35.9557C29.7526 35.8631 29.8251 35.6267 29.7475 35.4274C29.6699 35.2282 29.4715 35.1418 29.3044 35.2344C29.1374 35.3269 29.0648 35.5634 29.1425 35.7626Z" fill="black"/>
<path d="M30.6031 36.0563C30.7119 36.6252 30.8562 37.3242 30.8562 37.3242C30.8562 37.3242 30.569 37.7578 30.0215 37.5386C30.2856 37.5205 30.5679 37.4299 30.5808 37.0239C30.5937 36.618 30.6031 36.0563 30.6031 36.0563Z" fill="#DE623C"/>
<path d="M31.221 35.2243C31.2574 35.2452 31.3017 35.2434 31.3377 35.215C31.3413 35.2122 31.4633 35.1207 31.5872 35.1623C31.6745 35.1915 31.7497 35.2831 31.8104 35.4344C31.8386 35.5046 31.9092 35.5343 31.968 35.5007C32.0269 35.4672 32.0518 35.383 32.0237 35.3128C31.9316 35.0834 31.8052 34.9411 31.6479 34.8898C31.4176 34.8147 31.2152 34.9735 31.2067 34.9804C31.1525 35.0237 31.138 35.1112 31.1743 35.1759C31.1865 35.1974 31.2027 35.2137 31.221 35.2243Z" fill="#201D40"/>
<path d="M29.6592 34.9896C29.6206 35.0035 29.577 34.9937 29.5451 34.9589C29.5419 34.9556 29.4332 34.8427 29.3054 34.861C29.2153 34.8739 29.1293 34.9506 29.0497 35.0889C29.0128 35.1532 28.9393 35.1695 28.8854 35.1255C28.8315 35.0815 28.8178 34.9938 28.8547 34.9296C28.9753 34.7198 29.1186 34.6025 29.2807 34.5807C29.5179 34.5489 29.6974 34.743 29.7049 34.7512C29.7529 34.804 29.7559 34.8932 29.7115 34.9504C29.6968 34.9695 29.6786 34.9826 29.6592 34.9896Z" fill="#201D40"/>
<path d="M30.6519 38.4184C30.7147 38.3596 30.6889 38.2403 30.61 38.2262C30.4092 38.1901 30.0791 38.1225 29.7722 38.0219C29.4654 37.9213 29.1527 37.7783 28.9647 37.6869C28.8907 37.6509 28.8174 37.7377 28.8463 37.8265C28.935 38.0996 29.1471 38.5394 29.6174 38.6935C30.0875 38.8477 30.4585 38.599 30.6519 38.4184Z" fill="white"/>
<path d="M26.7106 36.2825C26.879 35.3967 27.2019 35.4151 27.7543 34.5771C28.0454 33.4276 28.5942 32.7343 29.3683 33.4264C30.1629 34.1369 30.8568 34.1932 31.253 33.9486C32.1737 33.3805 32.0961 35.1501 32.0961 35.1501C32.0961 35.1501 33.0276 33.294 32.4917 32.2762C31.727 30.8244 31.3004 31.5458 30.441 30.5457C29.5815 29.5456 28.0516 29.6508 27.6218 30.2986C27.1687 30.9816 27.1979 31.2659 26.2258 31.5679C25.2537 31.8699 24.5278 33.0644 25.1285 34.3925C25.7292 35.7207 24.1724 35.9953 25.3403 37.386C25.7934 37.9256 26.5831 38.1078 26.7717 37.9204C26.5736 37.4554 26.602 36.8535 26.7106 36.2825Z" fill="#2C2858"/>
<path d="M27.325 35.2086C27.5438 35.7305 27.4307 36.3267 27.0724 36.5402C26.7141 36.7536 26.2462 36.5035 26.0275 35.9815C25.8087 35.4595 25.9219 34.8633 26.2802 34.65C26.6385 34.4365 27.1063 34.6867 27.325 35.2086Z" fill="#F37A50"/>
<path d="M26.7405 36.1416C26.7313 36.1367 26.7226 36.1298 26.715 36.1208C26.6811 36.0809 26.6807 36.0158 26.7142 35.9754C26.8373 35.8267 26.8878 35.6926 26.8643 35.5766C26.825 35.3834 26.5886 35.2522 26.5009 35.218C26.4556 35.2002 26.4309 35.1422 26.4457 35.0882C26.4605 35.0343 26.5093 35.0048 26.5545 35.0225C26.5711 35.029 26.9623 35.1853 27.032 35.5282C27.0706 35.7181 27.0049 35.9172 26.837 36.1199C26.811 36.1513 26.7724 36.1585 26.7405 36.1416Z" fill="#DE623C"/>
<path d="M30.3938 57.4712C28.5666 57.6194 23.2845 58.4466 21.6818 57.3901C21.1652 56.1923 22.1581 50.639 22.4321 48.4053C23.2132 42.0365 23.6802 40.2541 26.2213 40.0145C26.7908 40.4441 28.1739 40.9706 28.8411 41.0835C28.8411 41.0835 30.0725 43.8306 30.163 45.6967C30.2548 47.5889 29.9196 50.8736 29.736 52.7563C29.5321 54.8472 30.3152 56.121 30.3938 57.4712Z" fill="#E62552"/>
<path d="M19.875 46.2805C19.875 46.2805 23.9896 39.2162 25.7086 40.3846C27.0204 41.6551 23.9574 46.5807 20.2511 49.9167L19.875 46.2805Z" fill="#C4204A"/>
<path d="M117.531 27.853H129.125C130.04 27.853 130.781 26.9691 130.781 25.8788V19.9805C130.781 18.8902 130.04 18.0063 129.125 18.0063H117.531C116.616 18.0063 115.875 18.8902 115.875 19.9805V25.8788C115.875 26.9691 116.616 27.853 117.531 27.853Z" fill="white"/>
<path d="M117.986 27.4119V31.0775C117.986 31.3718 118.318 31.4666 118.43 31.2043L120.046 27.4119H117.986Z" fill="white"/>
<path d="M117.82 21.0838H128.699C129.118 21.0838 129.457 20.6794 129.457 20.1806C129.457 19.6818 129.118 19.2775 128.699 19.2775H117.82C117.402 19.2775 117.062 19.6818 117.062 20.1806C117.063 20.6794 117.402 21.0838 117.82 21.0838Z" fill="#E3EAFF"/>
<path d="M117.82 23.9487H128.699C129.118 23.9487 129.457 23.5443 129.457 23.0455C129.457 22.5468 129.118 22.1424 128.699 22.1424H117.82C117.402 22.1424 117.062 22.5468 117.062 23.0455C117.063 23.5443 117.402 23.9487 117.82 23.9487Z" fill="#E3EAFF"/>
<path d="M117.709 26.8135H124.691C125.047 26.8135 125.337 26.4686 125.337 26.043V25.7778C125.337 25.3521 125.047 25.0072 124.691 25.0072H117.709C117.352 25.0072 117.062 25.3521 117.062 25.7778V26.043C117.062 26.4685 117.352 26.8135 117.709 26.8135Z" fill="#E3EAFF"/>
<path d="M91.2747 19.0461C91.8128 20.9634 90.9452 23.0377 89.3369 23.6792C87.7287 24.3207 85.9886 23.2864 85.4505 21.3691C84.9124 19.4518 85.78 17.3775 87.3883 16.736C88.9966 16.0945 90.7366 17.1288 91.2747 19.0461Z" fill="#7F99EB"/>
<path d="M86.7846 19.6242C87.0554 19.5162 87.3483 19.6903 87.4389 20.0131C87.5295 20.3358 87.3834 20.685 87.1127 20.793C86.842 20.901 86.5491 20.7269 86.4585 20.4041C86.3679 20.0814 86.514 19.7321 86.7846 19.6242Z" fill="white"/>
<path d="M89.2788 18.629C89.5495 18.5209 89.8424 18.6951 89.933 19.0179C90.0236 19.3406 89.8776 19.6898 89.6068 19.7978C89.3362 19.9058 89.0432 19.7316 88.9526 19.4089C88.862 19.0862 89.0081 18.737 89.2788 18.629Z" fill="white"/>
<path d="M87.371 21.6223C87.3449 21.6327 87.3196 21.6474 87.2962 21.6665C87.1917 21.7517 87.1659 21.8914 87.2385 21.9787C87.5967 22.409 88.2462 22.5348 88.855 22.2921C89.4461 22.0563 89.8875 21.5264 89.9796 20.942C89.9988 20.8201 89.9123 20.7228 89.7866 20.7247C89.6607 20.7265 89.5433 20.8269 89.524 20.9488C89.46 21.3554 89.1529 21.724 88.7416 21.8881C88.318 22.057 87.8661 21.9694 87.6169 21.6701C87.5606 21.6023 87.4614 21.5863 87.371 21.6223Z" fill="white"/>
<path d="M131.472 52.7643C130.89 54.6636 129.127 55.6409 127.534 54.9475C125.941 54.254 125.121 52.1524 125.703 50.2532C126.284 48.354 128.047 47.3767 129.64 48.0701C131.233 48.7635 132.053 50.8652 131.472 52.7643Z" fill="#7F99EB"/>
<path d="M127.657 49.8783C127.925 49.995 128.063 50.3489 127.965 50.6686C127.868 50.9883 127.571 51.1528 127.303 51.036C127.034 50.9194 126.896 50.5655 126.994 50.2459C127.092 49.9262 127.389 49.7617 127.657 49.8783Z" fill="white"/>
<path d="M130.128 50.9541C130.396 51.0708 130.534 51.4245 130.436 51.7444C130.338 52.064 130.042 52.2285 129.773 52.1118C129.505 51.9951 129.367 51.6413 129.465 51.3216C129.563 51.0019 129.86 50.8374 130.128 50.9541Z" fill="white"/>
<path d="M127.074 51.8794C127.048 51.8682 127.021 51.8609 126.992 51.8585C126.866 51.8474 126.773 51.9375 126.784 52.0597C126.839 52.6622 127.281 53.2434 127.884 53.5058C128.47 53.7607 129.092 53.6743 129.47 53.2858C129.548 53.2048 129.532 53.0644 129.432 52.9724C129.333 52.8802 129.189 52.8715 129.11 52.9525C128.847 53.2228 128.414 53.2829 128.007 53.1056C127.587 52.9229 127.28 52.5187 127.241 52.0994C127.233 52.0048 127.164 51.9185 127.074 51.8794Z" fill="white"/>
<path d="M101.242 28.9508C100.553 30.7245 98.7876 31.4962 97.2998 30.6745C95.812 29.8527 95.1646 27.7487 95.8539 25.975C96.5432 24.2013 98.3081 23.4295 99.796 24.2513C101.284 25.073 101.931 27.1771 101.242 28.9508Z" fill="white"/>
<path d="M97.7647 25.8022C98.0151 25.9406 98.1241 26.2948 98.0081 26.5934C97.892 26.8919 97.5949 27.0217 97.3445 26.8834C97.094 26.7451 96.9851 26.3909 97.1011 26.0923C97.2171 25.7938 97.5142 25.6639 97.7647 25.8022Z" fill="#CDD8FA"/>
<path d="M100.073 27.0771C100.324 27.2154 100.433 27.5696 100.317 27.8681C100.201 28.1667 99.9035 28.2966 99.6531 28.1583C99.4026 28.02 99.2937 27.6658 99.4097 27.3672C99.5258 27.0686 99.8228 26.9388 100.073 27.0771Z" fill="#CDD8FA"/>
<path d="M97.0631 27.6741C97.039 27.6608 97.013 27.6511 96.986 27.646C96.8651 27.6232 96.7691 27.701 96.7715 27.8197C96.7838 28.4056 97.1704 29.0082 97.7334 29.3193C98.2802 29.6213 98.8857 29.5981 99.2758 29.2602C99.3572 29.1897 99.3506 29.0529 99.2611 28.9546C99.1716 28.8563 99.0332 28.8339 98.9518 28.9044C98.6803 29.1395 98.2591 29.1557 97.8787 28.9455C97.4868 28.7291 97.2179 28.3099 97.2094 27.9023C97.2075 27.8101 97.1467 27.7202 97.0631 27.6741Z" fill="#CDD8FA"/>
<path d="M11.9958 50.5754C12.5897 52.1819 11.9789 54.0581 10.6313 54.7662C9.28377 55.4744 7.70983 54.7461 7.11587 53.1396C6.52187 51.5331 7.13277 49.6568 8.48032 48.9488C9.82792 48.2406 11.4018 48.9689 11.9958 50.5754Z" fill="white"/>
<path d="M8.14683 51.5039C8.37365 51.3847 8.63861 51.5073 8.73859 51.7777C8.83858 52.0482 8.73575 52.3639 8.50889 52.4832C8.28207 52.6024 8.01711 52.4798 7.91712 52.2094C7.81718 51.9388 7.92001 51.6231 8.14683 51.5039Z" fill="#CDD8FA"/>
<path d="M10.2386 50.4053C10.4655 50.2861 10.7304 50.4087 10.8304 50.6792C10.9304 50.9496 10.8275 51.2654 10.6007 51.3846C10.3738 51.5038 10.1089 51.3812 10.0089 51.1108C9.90898 50.8404 10.0118 50.5245 10.2386 50.4053Z" fill="#CDD8FA"/>
<path d="M8.79678 53.1752C8.77498 53.1867 8.75408 53.2018 8.73516 53.2205C8.65051 53.3042 8.63754 53.4275 8.70615 53.4959C9.04476 53.8337 9.61485 53.8807 10.1249 53.6127C10.6202 53.3524 10.9663 52.8521 11.0067 52.338C11.0151 52.2308 10.9338 52.1549 10.8252 52.1685C10.7165 52.182 10.6216 52.28 10.6132 52.3873C10.5851 52.745 10.3443 53.093 9.99966 53.2741C9.64485 53.4606 9.24818 53.428 9.01266 53.193C8.95939 53.1398 8.87255 53.1354 8.79678 53.1752Z" fill="#CDD8FA"/>
<path d="M157.74 75.048L158.967 79.7041C159.014 79.8816 158.932 80.0703 158.783 80.126L151.995 82.6702C151.847 82.7259 151.688 82.6274 151.641 82.4499L150.414 77.7939C150.367 77.6163 150.449 77.4276 150.598 77.3719L157.386 74.8277C157.534 74.772 157.693 74.8705 157.74 75.048Z" fill="#CDD8FA"/>
<path d="M157.74 75.0482L157.807 75.3056L155.413 79.1129C155.183 79.4932 154.773 79.6516 154.4 79.5039L150.452 77.9411L150.413 77.7941C150.367 77.6168 150.449 77.4278 150.598 77.372L157.385 74.828C157.534 74.7723 157.693 74.8709 157.74 75.0482Z" fill="white"/>
<path d="M112.256 10.041L110.66 14.9533C110.599 15.1406 110.423 15.2334 110.266 15.161L103.105 11.855C102.948 11.7826 102.87 11.5725 102.931 11.3852L104.526 6.47285C104.587 6.28563 104.764 6.19274 104.92 6.26518L112.082 9.57116C112.239 9.64361 112.316 9.85374 112.256 10.041Z" fill="#CDD8FA"/>
<path d="M112.256 10.0412L112.168 10.3127L107.997 11.6003C107.589 11.7366 107.153 11.5406 106.922 11.1164L104.477 6.62816L104.527 6.47305C104.588 6.28594 104.764 6.19305 104.921 6.26549L112.082 9.57127C112.239 9.64371 112.317 9.85415 112.256 10.0412Z" fill="white"/>
<path d="M65.0812 40.3551C65.0645 40.2396 65.0721 40.1265 65.0967 40.0201C65.2128 38.974 66.4373 38.7975 68.1573 38.3947C68.4448 38.3274 68.2213 37.9566 67.9917 37.0892C67.8424 36.525 68.0281 35.5735 68.5557 35.4653C69.4256 35.2868 68.7064 36.2728 69.7662 38.1288C70.3325 39.1206 71.164 38.3293 71.3201 39.4102L71.6753 41.8705C71.736 42.2912 71.7596 42.7027 71.2706 42.8716C70.7966 43.0353 70.9643 43.4217 70.2672 43.5648L66.7777 44.2808C66.4222 44.3536 66.0836 44.0696 66.0227 43.6477C65.9974 43.4728 66.0261 43.3029 66.0908 43.1568C65.8746 43.0662 65.7035 42.8466 65.6621 42.5597C65.6369 42.3852 65.6654 42.2154 65.7299 42.0696C65.5132 41.9794 65.3417 41.7595 65.3002 41.4722C65.2701 41.2635 65.3139 41.0598 65.4087 40.8979C65.242 40.7876 65.1159 40.5951 65.0812 40.3551Z" fill="white"/>
<path d="M67.4986 40.6465L65.8347 40.9879C65.6085 41.0343 65.3754 40.9342 65.2264 40.7268C65.1651 40.6413 65.1738 40.5126 65.246 40.4394C65.3181 40.3662 65.4266 40.3768 65.4881 40.4623C65.5587 40.561 65.6696 40.6082 65.7769 40.5862L67.4807 40.2366C67.6495 40.202 67.7633 40.0108 67.7344 39.8105C67.7054 39.6102 67.5446 39.4753 67.3758 39.51L66.2373 39.7435C66.1439 39.7627 66.0551 39.6883 66.0391 39.5774C66.0231 39.4666 66.0859 39.3611 66.1793 39.3419L67.3179 39.1083C67.6734 39.0353 68.012 39.3192 68.0729 39.741C68.1069 39.9763 68.0451 40.2033 67.9242 40.3727C68.0632 40.4872 68.1651 40.6648 68.1958 40.8778C68.2299 41.1137 68.1676 41.3416 68.0459 41.511C68.1841 41.6253 68.2851 41.8024 68.3158 42.015C68.3529 42.272 68.2775 42.521 68.1332 42.6936C68.254 42.8079 68.3429 42.971 68.371 43.1656C68.4319 43.5874 68.1923 43.9899 67.8369 44.0628L66.7763 44.2804C66.5501 44.3269 66.3168 44.227 66.1678 44.0196C66.1063 43.9342 66.115 43.8055 66.1871 43.7323C66.2594 43.6596 66.3678 43.6692 66.429 43.7548C66.5 43.8534 66.611 43.9008 66.7184 43.8788L67.7789 43.6613C67.9477 43.6266 68.0615 43.4355 68.0326 43.2351C68.0037 43.0348 67.8428 42.9 67.674 42.9346L66.4158 43.1927C66.1896 43.2391 65.9561 43.1391 65.8073 42.9317C65.7457 42.846 65.7544 42.7173 65.8265 42.6444C65.8992 42.5701 66.0073 42.5813 66.0685 42.6668C66.1405 42.7671 66.2488 42.8134 66.3579 42.7911L67.7237 42.5109C67.8925 42.4762 68.0063 42.2849 67.9774 42.0845C67.9485 41.8842 67.7876 41.7494 67.6188 41.7839L66.0541 42.1049C65.8278 42.1514 65.5946 42.0516 65.4456 41.8441C65.3841 41.7587 65.3928 41.63 65.4648 41.5568C65.5373 41.4837 65.6455 41.4938 65.7068 41.5792C65.7788 41.6793 65.887 41.7257 65.9961 41.7033L67.6035 41.3735C67.7723 41.3388 67.8862 41.1477 67.8572 40.9474C67.8283 40.7469 67.6677 40.6118 67.4986 40.6465Z" fill="#BDCDFF"/>
<path d="M71.7775 42.9586L72.864 42.7357C73.0145 42.7048 73.1155 42.5344 73.0896 42.355L72.534 38.506C72.5081 38.3266 72.3651 38.2061 72.2146 38.2371L71.1281 38.4599C70.9776 38.4908 70.8766 38.6613 70.9025 38.8407L71.4581 42.6898C71.484 42.8691 71.627 42.9895 71.7775 42.9586Z" fill="#BDCDFF"/>
<path d="M141.291 10.2729C141.315 10.1591 141.314 10.0457 141.295 9.93746C141.241 8.88427 140.029 8.60668 138.337 8.06238C138.054 7.97145 138.299 7.62013 138.578 6.77373C138.76 6.22333 138.63 5.25872 138.11 5.107C137.253 4.85689 137.913 5.90016 136.747 7.66395C136.125 8.60637 135.341 7.74821 135.123 8.81347L134.625 11.2384C134.54 11.6531 134.492 12.0617 134.97 12.2706C135.434 12.4731 135.244 12.8448 135.931 13.0452L139.37 14.0485C139.721 14.1507 140.075 13.8954 140.16 13.4795C140.196 13.3071 140.177 13.1353 140.121 12.9842C140.342 12.9117 140.525 12.7068 140.583 12.424C140.619 12.2521 140.6 12.0803 140.544 11.9295C140.766 11.8574 140.95 11.6523 141.008 11.3691C141.05 11.1635 141.018 10.9566 140.933 10.7872C141.106 10.6911 141.243 10.5095 141.291 10.2729Z" fill="#E3EAFF"/>
<path d="M138.862 10.3633L140.502 10.8417C140.725 10.9067 140.963 10.8261 141.124 10.6316C141.19 10.5514 141.189 10.4223 141.121 10.3433C141.054 10.2643 140.945 10.2659 140.878 10.3461C140.802 10.4387 140.689 10.4766 140.583 10.4457L138.904 9.95592C138.737 9.90736 138.635 9.7073 138.676 9.5097C138.716 9.31226 138.884 9.19111 139.051 9.23966L140.173 9.56704C140.265 9.59386 140.358 9.52697 140.38 9.41769C140.403 9.30846 140.346 9.198 140.254 9.17118L139.132 8.84375C138.781 8.74151 138.427 8.99665 138.342 9.41239C138.294 9.64431 138.343 9.87587 138.453 10.0549C138.308 10.1576 138.196 10.3263 138.153 10.5362C138.105 10.7688 138.154 11.0012 138.266 11.1803C138.121 11.283 138.01 11.4513 137.967 11.6608C137.915 11.9141 137.976 12.1687 138.11 12.3528C137.982 12.4569 137.884 12.6122 137.845 12.8041C137.759 13.2199 137.975 13.6412 138.325 13.7434L139.371 14.0483C139.594 14.1134 139.832 14.0331 139.993 13.8385C140.059 13.7584 140.058 13.6292 139.99 13.5503C139.922 13.4717 139.814 13.4724 139.748 13.5526C139.671 13.6451 139.558 13.6832 139.452 13.6524L138.407 13.3474C138.24 13.2989 138.138 13.0988 138.178 12.9013C138.219 12.7038 138.387 12.5827 138.554 12.6312L139.794 12.9929C140.017 13.058 140.255 12.9776 140.416 12.7829C140.482 12.7026 140.481 12.5735 140.413 12.4948C140.345 12.4147 140.237 12.4168 140.171 12.4971C140.093 12.5912 139.982 12.6285 139.875 12.5971L138.529 12.2044C138.362 12.1558 138.26 11.9555 138.3 11.758C138.341 11.5605 138.509 11.4394 138.676 11.4879L140.218 11.9378C140.441 12.0028 140.679 11.9225 140.84 11.728C140.906 11.6479 140.905 11.5187 140.838 11.4398C140.77 11.361 140.661 11.362 140.595 11.4421C140.517 11.536 140.407 11.5733 140.299 11.5419L138.715 11.0797C138.548 11.0312 138.446 10.8311 138.487 10.6336C138.527 10.4361 138.695 10.3147 138.862 10.3633Z" fill="#BDCDFF"/>
<path d="M134.46 12.3154L133.389 12.003C133.24 11.9597 133.149 11.7813 133.186 11.6044L133.964 7.81074C134.001 7.63395 134.15 7.52564 134.299 7.56895L135.37 7.88138C135.518 7.92459 135.609 8.10302 135.572 8.27981L134.794 12.0735C134.757 12.2504 134.608 12.3586 134.46 12.3154Z" fill="#BDCDFF"/>
<path d="M99.6935 66.6548C99.9348 65.4367 99.3021 64.2161 98.2803 63.9285C97.2586 63.6409 96.2347 64.3952 95.9935 65.6132C95.7522 66.8313 96.3849 68.0519 97.4067 68.3395C98.4284 68.6271 99.4522 67.8728 99.6935 66.6548Z" fill="white"/>
<path d="M53.6566 9.64312C53.1302 10.2706 52.2766 10.2706 51.7503 9.64312C51.2239 9.01555 51.2239 7.99812 51.7503 7.37055C52.2766 6.74302 53.1302 6.74302 53.6566 7.37055C54.183 7.99812 54.183 9.01555 53.6566 9.64312Z" fill="white"/>
<path d="M162.59 49.0543C162.064 49.6818 161.21 49.6818 160.684 49.0543C160.157 48.4267 160.157 47.4092 160.684 46.7817C161.21 46.1541 162.064 46.1541 162.59 46.7817C163.117 47.4092 163.117 48.4267 162.59 49.0543Z" fill="#E3EAFF"/>
<path d="M100.815 7.37698C100.288 8.0045 99.4349 8.0045 98.9085 7.37698C98.3821 6.74946 98.3821 5.73193 98.9085 5.1044C99.4349 4.47688 100.288 4.47688 100.815 5.1044C101.341 5.73198 101.341 6.74946 100.815 7.37698Z" fill="#E3EAFF"/>
<path d="M101.874 64.19C101.101 64.19 100.473 63.4405 100.473 62.5193C100.473 61.5981 101.101 60.8486 101.874 60.8486C102.647 60.8486 103.276 61.5981 103.276 62.5193C103.276 63.4405 102.647 64.19 101.874 64.19ZM101.874 61.4883C101.397 61.4883 101.009 61.9508 101.009 62.5193C101.009 63.0877 101.397 63.5502 101.874 63.5502C102.351 63.5502 102.739 63.0877 102.739 62.5193C102.739 61.9508 102.351 61.4883 101.874 61.4883Z" fill="white"/>
<path d="M159.866 55.6909C158.89 55.6909 158.096 54.744 158.096 53.58C158.096 52.4161 158.89 51.4691 159.866 51.4691C160.843 51.4691 161.637 52.4161 161.637 53.58C161.637 54.744 160.843 55.6909 159.866 55.6909ZM159.866 52.2774C159.264 52.2774 158.774 52.8618 158.774 53.58C158.774 54.2982 159.264 54.8826 159.866 54.8826C160.469 54.8826 160.959 54.2982 160.959 53.58C160.959 52.8618 160.469 52.2774 159.866 52.2774Z" fill="#E3EAFF"/>
</svg>
