<svg width="2471" height="1723" viewBox="0 0 2471 1723" fill="none" xmlns="http://www.w3.org/2000/svg">
<path d="M1585.57 902.712L1580.85 907.875L1586.01 912.601L1938.32 1235.04C1953.69 1249.1 1965.32 1260.58 1973.31 1270.95C1981.27 1281.28 1985.21 1289.98 1985.93 1298.49C1986.65 1306.96 1984.27 1316.27 1977.53 1327.97C1970.75 1339.75 1959.84 1353.47 1944.19 1370.58L1354.93 2014.43C1339.28 2031.54 1326.57 2043.62 1315.44 2051.41C1304.38 2059.15 1295.31 2062.35 1286.82 2062.38C1278.27 2062.41 1269.26 2059.26 1258.27 2052.25C1247.23 2045.2 1234.77 2034.64 1219.4 2020.57L199.103 1086.79L193.939 1082.06L189.213 1087.23L14.6661 1277.95L9.94011 1283.11L15.104 1287.84L1035.41 2221.62C1123.36 2302.11 1207.59 2343.39 1292.55 2339.55C1377.51 2335.71 1461.26 2286.85 1548.47 2191.56L2137.73 1547.7C2224.93 1452.41 2266.2 1364.67 2262.52 1279.71C2258.83 1194.74 2210.28 1114.49 2122.32 1033.99L1770.01 711.554L1764.85 706.828L1760.12 711.992L1585.57 902.712ZM1508.84 1683.59L1513.57 1678.43L1508.4 1673.7L687.698 922.59L1105.12 466.489C1135.98 432.768 1166.73 414.684 1196.1 410.961C1225.22 407.27 1254.33 417.535 1282.52 443.338L1335.48 491.806C1346.21 501.629 1356.46 510.215 1365.43 517.734C1370.5 521.977 1375.15 525.88 1379.27 529.474C1391.14 539.852 1398.71 547.863 1402.23 555.869C1405.46 563.207 1405.6 571.321 1400.17 582.991C1394.57 595.03 1383.3 610.239 1364.37 630.93L1190.55 820.855L1185.82 826.019L1190.98 830.745L1372.76 997.108L1377.92 1001.83L1382.65 996.67L1556.47 806.745C1650.28 704.244 1686.37 616.359 1675.22 532.823C1664.12 449.68 1606.44 372.983 1518.17 292.193L1466.64 245.035C1380.38 166.091 1285.93 129.078 1190.6 136.382C1095.36 143.68 1000.46 195.126 913.018 290.674L316.321 942.659L311.595 947.823L316.759 952.549L1324.4 1874.75L1329.57 1879.47L1334.29 1874.31L1508.84 1683.59ZM1168.46 860.041L1163.29 855.315L1158.57 860.479L984.02 1051.2L979.294 1056.36L984.458 1061.09L1590.18 1615.44L1595.34 1620.17L1600.07 1615.01L1774.61 1424.29L1779.34 1419.12L1774.18 1414.4L1168.46 860.041ZM1011.45 716.346L1006.28 711.62L1001.56 716.784L827.01 907.503L822.284 912.667L827.448 917.393L918.023 1000.29L923.187 1005.01L927.913 999.849L1102.46 809.13L1107.19 803.966L1102.02 799.24L1011.45 716.346Z" stroke="#388BF7" stroke-width="14"/>
<path d="M96 830.05H114.6V832.65C114.6 835.517 113.817 838.183 112.25 840.65C110.683 843.083 108.55 845.033 105.85 846.5C103.183 847.933 100.25 848.65 97.05 848.65C93.7833 848.65 90.7667 847.85 88 846.25C85.2333 844.617 83.0333 842.417 81.4 839.65C79.8 836.883 79 833.867 79 830.6C79 827.333 79.8 824.317 81.4 821.55C83.0333 818.783 85.2333 816.6 88 815C90.7667 813.367 93.7833 812.55 97.05 812.55C100.117 812.55 102.967 813.283 105.6 814.75C108.233 816.183 110.367 818.117 112 820.55L107.6 823.9C106.467 822.133 104.967 820.733 103.1 819.7C101.233 818.633 99.2167 818.1 97.05 818.1C94.7833 818.1 92.6833 818.667 90.75 819.8C88.85 820.9 87.3333 822.417 86.2 824.35C85.1 826.25 84.55 828.333 84.55 830.6C84.55 832.867 85.1 834.967 86.2 836.9C87.3333 838.8 88.85 840.317 90.75 841.45C92.6833 842.55 94.7833 843.1 97.05 843.1C99.8833 843.1 102.333 842.383 104.4 840.95C106.5 839.517 107.883 837.633 108.55 835.3H96V830.05ZM130.525 822.35C132.959 822.35 135.125 822.95 137.025 824.15C138.925 825.317 140.409 826.917 141.475 828.95C142.542 830.95 143.075 833.15 143.075 835.55C143.075 835.95 143.009 836.583 142.875 837.45H122.675C123.109 839.45 124.042 841.05 125.475 842.25C126.942 843.45 128.792 844.05 131.025 844.05C132.392 844.05 133.692 843.75 134.925 843.15C136.192 842.55 137.125 841.767 137.725 840.8L141.825 843.2C140.692 844.933 139.192 846.283 137.325 847.25C135.459 848.183 133.325 848.65 130.925 848.65C128.259 848.65 125.892 848.083 123.825 846.95C121.792 845.817 120.209 844.25 119.075 842.25C117.975 840.25 117.425 838 117.425 835.5C117.425 833.033 117.975 830.8 119.075 828.8C120.209 826.8 121.759 825.233 123.725 824.1C125.725 822.933 127.992 822.35 130.525 822.35ZM138.075 833.3C137.809 831.333 136.992 829.783 135.625 828.65C134.292 827.517 132.592 826.95 130.525 826.95C129.092 826.95 127.775 827.25 126.575 827.85C125.375 828.417 124.425 829.2 123.725 830.2C123.025 831.167 122.659 832.2 122.625 833.3H138.075ZM154.953 839.8C154.953 841.133 155.219 842.05 155.753 842.55C156.319 843.05 157.219 843.3 158.453 843.3C159.153 843.3 159.953 843.25 160.853 843.15V848C159.353 848.167 158.086 848.25 157.053 848.25C154.553 848.25 152.703 847.667 151.503 846.5C150.303 845.3 149.703 843.183 149.703 840.15V827.75H144.553V823H149.703V816.5L154.953 814.7V823H160.753V827.75H154.953V839.8ZM181.976 818.05C180.976 818.05 180.176 817.783 179.576 817.25C179.009 816.683 178.726 815.917 178.726 814.95C178.726 813.983 179.009 813.233 179.576 812.7C180.176 812.133 180.976 811.85 181.976 811.85C182.976 811.85 183.759 812.133 184.326 812.7C184.926 813.233 185.226 813.983 185.226 814.95C185.226 815.917 184.926 816.683 184.326 817.25C183.759 817.783 182.976 818.05 181.976 818.05ZM179.326 848V823H184.576V848H179.326ZM203.293 822.35C204.76 822.35 206.243 822.667 207.743 823.3C209.277 823.9 210.593 825 211.693 826.6C212.793 828.2 213.343 830.35 213.343 833.05V848H208.093V833.05C208.093 830.917 207.493 829.383 206.293 828.45C205.093 827.483 203.693 827 202.093 827C200.527 827 199.177 827.55 198.043 828.65C196.91 829.75 196.343 831.533 196.343 834V848H191.093V823H196.343V825.5C197.243 824.567 198.277 823.817 199.443 823.25C200.643 822.65 201.927 822.35 203.293 822.35ZM240.402 839.8C240.402 841.133 240.669 842.05 241.202 842.55C241.769 843.05 242.669 843.3 243.902 843.3C244.602 843.3 245.402 843.25 246.302 843.15V848C244.802 848.167 243.535 848.25 242.502 848.25C240.002 848.25 238.152 847.667 236.952 846.5C235.752 845.3 235.152 843.183 235.152 840.15V827.75H230.002V823H235.152V816.5L240.402 814.7V823H246.202V827.75H240.402V839.8ZM262.264 848.65C259.897 848.65 257.697 848.067 255.664 846.9C253.664 845.7 252.08 844.1 250.914 842.1C249.747 840.067 249.164 837.867 249.164 835.5C249.164 833.133 249.747 830.95 250.914 828.95C252.08 826.95 253.664 825.367 255.664 824.2C257.697 823 259.897 822.4 262.264 822.4C264.63 822.4 266.814 823 268.814 824.2C270.847 825.367 272.447 826.95 273.614 828.95C274.78 830.95 275.364 833.133 275.364 835.5C275.364 837.867 274.78 840.067 273.614 842.1C272.447 844.1 270.847 845.7 268.814 846.9C266.814 848.067 264.63 848.65 262.264 848.65ZM262.264 843.4C263.697 843.4 265.014 843.05 266.214 842.35C267.414 841.617 268.364 840.65 269.064 839.45C269.764 838.25 270.114 836.933 270.114 835.5C270.114 834.067 269.764 832.75 269.064 831.55C268.364 830.35 267.414 829.4 266.214 828.7C265.014 828 263.697 827.65 262.264 827.65C260.83 827.65 259.514 828 258.314 828.7C257.114 829.4 256.147 830.35 255.414 831.55C254.714 832.75 254.364 834.067 254.364 835.5C254.364 836.933 254.714 838.25 255.414 839.45C256.147 840.65 257.114 841.617 258.314 842.35C259.514 843.05 260.83 843.4 262.264 843.4ZM295.918 823H301.168V848H295.918V845.5C295.018 846.433 293.968 847.2 292.768 847.8C291.601 848.367 290.334 848.65 288.968 848.65C287.501 848.65 286.001 848.35 284.468 847.75C282.968 847.117 281.668 846 280.568 844.4C279.468 842.8 278.918 840.65 278.918 837.95V823H284.168V837.95C284.168 840.083 284.751 841.617 285.918 842.55C287.118 843.483 288.518 843.95 290.118 843.95C291.684 843.95 293.034 843.4 294.168 842.3C295.334 841.2 295.918 839.417 295.918 836.95V823ZM329.213 843.15C328.013 844.85 326.479 846.2 324.613 847.2C322.746 848.167 320.729 848.65 318.563 848.65C316.196 848.65 313.996 848.067 311.963 846.9C309.963 845.7 308.379 844.1 307.213 842.1C306.046 840.067 305.463 837.867 305.463 835.5C305.463 833.133 306.046 830.95 307.213 828.95C308.379 826.95 309.963 825.367 311.963 824.2C313.996 823 316.196 822.4 318.563 822.4C320.696 822.4 322.679 822.883 324.513 823.85C326.379 824.817 327.929 826.15 329.163 827.85L324.863 830.75C324.063 829.75 323.113 828.983 322.013 828.45C320.946 827.917 319.796 827.65 318.563 827.65C317.129 827.65 315.813 828 314.613 828.7C313.413 829.4 312.463 830.35 311.763 831.55C311.063 832.75 310.713 834.067 310.713 835.5C310.713 836.933 311.063 838.25 311.763 839.45C312.463 840.65 313.413 841.617 314.613 842.35C315.813 843.05 317.129 843.4 318.563 843.4C319.796 843.4 320.946 843.133 322.013 842.6C323.113 842.033 324.063 841.267 324.863 840.3L329.213 843.15ZM355.769 848H350.519V833.15C350.519 831.017 349.919 829.483 348.719 828.55C347.552 827.617 346.169 827.15 344.569 827.15C343.336 827.15 342.186 827.517 341.119 828.25C340.086 828.983 339.386 830.15 339.019 831.75V848H333.769V813H339.019V825.4C339.919 824.5 340.936 823.8 342.069 823.3C343.202 822.767 344.419 822.5 345.719 822.5C347.186 822.5 348.669 822.817 350.169 823.45C351.702 824.05 353.019 825.133 354.119 826.7C355.219 828.267 355.769 830.383 355.769 833.05V848ZM398.681 839.85L403.881 823H409.431L401.331 848H396.031L390.781 831.5L385.581 848H380.381L372.481 823H377.981L382.981 839.8L387.981 823H393.581L398.681 839.85ZM416.448 818.05C415.448 818.05 414.648 817.783 414.048 817.25C413.482 816.683 413.198 815.917 413.198 814.95C413.198 813.983 413.482 813.233 414.048 812.7C414.648 812.133 415.448 811.85 416.448 811.85C417.448 811.85 418.232 812.133 418.798 812.7C419.398 813.233 419.698 813.983 419.698 814.95C419.698 815.917 419.398 816.683 418.798 817.25C418.232 817.783 417.448 818.05 416.448 818.05ZM413.798 848V823H419.048V848H413.798ZM433.81 839.8C433.81 841.133 434.077 842.05 434.61 842.55C435.177 843.05 436.077 843.3 437.31 843.3C438.01 843.3 438.81 843.25 439.71 843.15V848C438.21 848.167 436.943 848.25 435.91 848.25C433.41 848.25 431.56 847.667 430.36 846.5C429.16 845.3 428.56 843.183 428.56 840.15V827.75H423.41V823H428.56V816.5L433.81 814.7V823H439.61V827.75H433.81V839.8ZM466.365 848H461.115V833.15C461.115 831.017 460.515 829.483 459.315 828.55C458.148 827.617 456.765 827.15 455.165 827.15C453.932 827.15 452.782 827.517 451.715 828.25C450.682 828.983 449.982 830.15 449.615 831.75V848H444.365V813H449.615V825.4C450.515 824.5 451.532 823.8 452.665 823.3C453.798 822.767 455.015 822.5 456.315 822.5C457.782 822.5 459.265 822.817 460.765 823.45C462.298 824.05 463.615 825.133 464.715 826.7C465.815 828.267 466.365 830.383 466.365 833.05V848ZM501.777 823H507.027V848H501.777V845.5C500.877 846.433 499.827 847.2 498.627 847.8C497.46 848.367 496.194 848.65 494.827 848.65C493.36 848.65 491.86 848.35 490.327 847.75C488.827 847.117 487.527 846 486.427 844.4C485.327 842.8 484.777 840.65 484.777 837.95V823H490.027V837.95C490.027 840.083 490.61 841.617 491.777 842.55C492.977 843.483 494.377 843.95 495.977 843.95C497.544 843.95 498.894 843.4 500.027 842.3C501.194 841.2 501.777 839.417 501.777 836.95V823ZM517.222 829.9C517.222 830.733 517.639 831.35 518.472 831.75C519.339 832.117 520.722 832.533 522.622 833C524.555 833.433 526.155 833.9 527.422 834.4C528.689 834.867 529.772 835.617 530.672 836.65C531.605 837.683 532.072 839.083 532.072 840.85C532.072 842.45 531.605 843.85 530.672 845.05C529.739 846.217 528.472 847.117 526.872 847.75C525.305 848.35 523.572 848.65 521.672 848.65C519.105 848.65 516.905 848.15 515.072 847.15C513.239 846.117 511.905 844.683 511.072 842.85L515.372 840.6C515.872 841.867 516.655 842.817 517.722 843.45C518.822 844.05 520.139 844.35 521.672 844.35C523.105 844.35 524.339 844.05 525.372 843.45C526.439 842.85 526.972 842 526.972 840.9C526.972 839.933 526.489 839.233 525.522 838.8C524.589 838.333 523.105 837.85 521.072 837.35C519.105 836.85 517.522 836.383 516.322 835.95C515.155 835.483 514.139 834.783 513.272 833.85C512.405 832.883 511.972 831.617 511.972 830.05C511.972 828.517 512.405 827.167 513.272 826C514.139 824.833 515.305 823.933 516.772 823.3C518.239 822.667 519.872 822.35 521.672 822.35C523.805 822.35 525.705 822.817 527.372 823.75C529.072 824.65 530.372 825.917 531.272 827.55L526.972 829.7C526.039 827.667 524.272 826.65 521.672 826.65C520.305 826.65 519.222 826.95 518.422 827.55C517.622 828.117 517.222 828.9 517.222 829.9ZM558.078 839.8C558.078 841.133 558.344 842.05 558.878 842.55C559.444 843.05 560.344 843.3 561.578 843.3C562.278 843.3 563.078 843.25 563.978 843.15V848C562.478 848.167 561.211 848.25 560.178 848.25C557.678 848.25 555.828 847.667 554.628 846.5C553.428 845.3 552.828 843.183 552.828 840.15V827.75H547.678V823H552.828V816.5L558.078 814.7V823H563.878V827.75H558.078V839.8ZM579.939 848.65C577.573 848.65 575.373 848.067 573.339 846.9C571.339 845.7 569.756 844.1 568.589 842.1C567.423 840.067 566.839 837.867 566.839 835.5C566.839 833.133 567.423 830.95 568.589 828.95C569.756 826.95 571.339 825.367 573.339 824.2C575.373 823 577.573 822.4 579.939 822.4C582.306 822.4 584.489 823 586.489 824.2C588.523 825.367 590.123 826.95 591.289 828.95C592.456 830.95 593.039 833.133 593.039 835.5C593.039 837.867 592.456 840.067 591.289 842.1C590.123 844.1 588.523 845.7 586.489 846.9C584.489 848.067 582.306 848.65 579.939 848.65ZM579.939 843.4C581.373 843.4 582.689 843.05 583.889 842.35C585.089 841.617 586.039 840.65 586.739 839.45C587.439 838.25 587.789 836.933 587.789 835.5C587.789 834.067 587.439 832.75 586.739 831.55C586.039 830.35 585.089 829.4 583.889 828.7C582.689 828 581.373 827.65 579.939 827.65C578.506 827.65 577.189 828 575.989 828.7C574.789 829.4 573.823 830.35 573.089 831.55C572.389 832.75 572.039 834.067 572.039 835.5C572.039 836.933 572.389 838.25 573.089 839.45C573.823 840.65 574.789 841.617 575.989 842.35C577.189 843.05 578.506 843.4 579.939 843.4ZM617.393 813H622.643V848H617.393V844.95C616.227 846.117 614.877 847.033 613.343 847.7C611.843 848.333 610.277 848.65 608.643 848.65C606.143 848.65 603.943 848.083 602.043 846.95C600.143 845.783 598.66 844.217 597.593 842.25C596.56 840.25 596.043 838.017 596.043 835.55C596.043 833.083 596.56 830.85 597.593 828.85C598.66 826.85 600.143 825.283 602.043 824.15C603.943 822.983 606.143 822.4 608.643 822.4C610.277 822.4 611.843 822.733 613.343 823.4C614.877 824.033 616.227 824.933 617.393 826.1V813ZM609.243 843.6C610.743 843.6 612.11 843.25 613.343 842.55C614.61 841.85 615.593 840.883 616.293 839.65C617.027 838.417 617.393 837.033 617.393 835.5C617.393 833.967 617.027 832.6 616.293 831.4C615.593 830.167 614.61 829.217 613.343 828.55C612.11 827.85 610.743 827.5 609.243 827.5C607.743 827.5 606.377 827.85 605.143 828.55C603.943 829.217 602.993 830.167 602.293 831.4C601.627 832.633 601.293 834.017 601.293 835.55C601.293 837.083 601.627 838.467 602.293 839.7C602.993 840.933 603.943 841.9 605.143 842.6C606.377 843.267 607.743 843.6 609.243 843.6ZM648.448 823H653.698V848H648.448V844.95C647.281 846.117 645.931 847.033 644.398 847.7C642.898 848.333 641.331 848.65 639.698 848.65C637.198 848.65 634.998 848.083 633.098 846.95C631.198 845.783 629.715 844.217 628.648 842.25C627.615 840.25 627.098 838.017 627.098 835.55C627.098 833.083 627.615 830.85 628.648 828.85C629.715 826.85 631.198 825.283 633.098 824.15C634.998 822.983 637.198 822.4 639.698 822.4C641.331 822.4 642.898 822.733 644.398 823.4C645.931 824.033 647.281 824.933 648.448 826.1V823ZM640.298 843.6C641.798 843.6 643.165 843.25 644.398 842.55C645.665 841.85 646.648 840.883 647.348 839.65C648.081 838.417 648.448 837.033 648.448 835.5C648.448 833.967 648.081 832.6 647.348 831.4C646.648 830.167 645.665 829.217 644.398 828.55C643.165 827.85 641.798 827.5 640.298 827.5C638.798 827.5 637.431 827.85 636.198 828.55C634.998 829.217 634.048 830.167 633.348 831.4C632.681 832.633 632.348 834.017 632.348 835.55C632.348 837.083 632.681 838.467 633.348 839.7C634.048 840.933 634.998 841.9 636.198 842.6C637.431 843.267 638.798 843.6 640.298 843.6ZM676.452 823H682.002L672.852 848.5C671.585 851.733 669.868 854.183 667.702 855.85C665.535 857.517 663.018 858.233 660.152 858V852.95C660.318 852.983 660.568 853 660.902 853C663.835 853 666.102 851.117 667.702 847.35L656.502 823H662.152L670.202 840.35L676.452 823ZM706.613 839.8C706.613 841.133 706.88 842.05 707.413 842.55C707.98 843.05 708.88 843.3 710.113 843.3C710.813 843.3 711.613 843.25 712.513 843.15V848C711.013 848.167 709.746 848.25 708.713 848.25C706.213 848.25 704.363 847.667 703.163 846.5C701.963 845.3 701.363 843.183 701.363 840.15V827.75H696.213V823H701.363V816.5L706.613 814.7V823H712.413V827.75H706.613V839.8ZM728.475 848.65C726.108 848.65 723.908 848.067 721.875 846.9C719.875 845.7 718.291 844.1 717.125 842.1C715.958 840.067 715.375 837.867 715.375 835.5C715.375 833.133 715.958 830.95 717.125 828.95C718.291 826.95 719.875 825.367 721.875 824.2C723.908 823 726.108 822.4 728.475 822.4C730.841 822.4 733.025 823 735.025 824.2C737.058 825.367 738.658 826.95 739.825 828.95C740.991 830.95 741.575 833.133 741.575 835.5C741.575 837.867 740.991 840.067 739.825 842.1C738.658 844.1 737.058 845.7 735.025 846.9C733.025 848.067 730.841 848.65 728.475 848.65ZM728.475 843.4C729.908 843.4 731.225 843.05 732.425 842.35C733.625 841.617 734.575 840.65 735.275 839.45C735.975 838.25 736.325 836.933 736.325 835.5C736.325 834.067 735.975 832.75 735.275 831.55C734.575 830.35 733.625 829.4 732.425 828.7C731.225 828 729.908 827.65 728.475 827.65C727.041 827.65 725.725 828 724.525 828.7C723.325 829.4 722.358 830.35 721.625 831.55C720.925 832.75 720.575 834.067 720.575 835.5C720.575 836.933 720.925 838.25 721.625 839.45C722.358 840.65 723.325 841.617 724.525 842.35C725.725 843.05 727.041 843.4 728.475 843.4ZM781.697 848H776.447V833.15C776.447 831.017 775.847 829.483 774.647 828.55C773.48 827.617 772.097 827.15 770.497 827.15C769.264 827.15 768.114 827.517 767.047 828.25C766.014 828.983 765.314 830.15 764.947 831.75V848H759.697V813H764.947V825.4C765.847 824.5 766.864 823.8 767.997 823.3C769.13 822.767 770.347 822.5 771.647 822.5C773.114 822.5 774.597 822.817 776.097 823.45C777.63 824.05 778.947 825.133 780.047 826.7C781.147 828.267 781.697 830.383 781.697 833.05V848ZM790.667 818.05C789.667 818.05 788.867 817.783 788.267 817.25C787.701 816.683 787.417 815.917 787.417 814.95C787.417 813.983 787.701 813.233 788.267 812.7C788.867 812.133 789.667 811.85 790.667 811.85C791.667 811.85 792.451 812.133 793.017 812.7C793.617 813.233 793.917 813.983 793.917 814.95C793.917 815.917 793.617 816.683 793.017 817.25C792.451 817.783 791.667 818.05 790.667 818.05ZM788.017 848V823H793.267V848H788.017ZM812.935 822.45C813.301 822.45 813.585 822.467 813.785 822.5L813.385 827.5C813.018 827.4 812.668 827.35 812.335 827.35C810.268 827.35 808.535 827.983 807.135 829.25C805.735 830.483 805.035 832.233 805.035 834.5V848H799.785V823H805.035V827.25C805.601 825.917 806.568 824.783 807.935 823.85C809.335 822.917 811.001 822.45 812.935 822.45ZM828.279 822.35C830.713 822.35 832.879 822.95 834.779 824.15C836.679 825.317 838.163 826.917 839.229 828.95C840.296 830.95 840.829 833.15 840.829 835.55C840.829 835.95 840.763 836.583 840.629 837.45H820.429C820.863 839.45 821.796 841.05 823.229 842.25C824.696 843.45 826.546 844.05 828.779 844.05C830.146 844.05 831.446 843.75 832.679 843.15C833.946 842.55 834.879 841.767 835.479 840.8L839.579 843.2C838.446 844.933 836.946 846.283 835.079 847.25C833.213 848.183 831.079 848.65 828.679 848.65C826.013 848.65 823.646 848.083 821.579 846.95C819.546 845.817 817.963 844.25 816.829 842.25C815.729 840.25 815.179 838 815.179 835.5C815.179 833.033 815.729 830.8 816.829 828.8C817.963 826.8 819.513 825.233 821.479 824.1C823.479 822.933 825.746 822.35 828.279 822.35ZM835.829 833.3C835.563 831.333 834.746 829.783 833.379 828.65C832.046 827.517 830.346 826.95 828.279 826.95C826.846 826.95 825.529 827.25 824.329 827.85C823.129 828.417 822.179 829.2 821.479 830.2C820.779 831.167 820.413 832.2 820.379 833.3H835.829ZM870.418 848.65C868.051 848.65 865.851 848.067 863.818 846.9C861.818 845.7 860.235 844.1 859.068 842.1C857.901 840.067 857.318 837.867 857.318 835.5C857.318 833.133 857.901 830.95 859.068 828.95C860.235 826.95 861.818 825.367 863.818 824.2C865.851 823 868.051 822.4 870.418 822.4C872.785 822.4 874.968 823 876.968 824.2C879.001 825.367 880.601 826.95 881.768 828.95C882.935 830.95 883.518 833.133 883.518 835.5C883.518 837.867 882.935 840.067 881.768 842.1C880.601 844.1 879.001 845.7 876.968 846.9C874.968 848.067 872.785 848.65 870.418 848.65ZM870.418 843.4C871.851 843.4 873.168 843.05 874.368 842.35C875.568 841.617 876.518 840.65 877.218 839.45C877.918 838.25 878.268 836.933 878.268 835.5C878.268 834.067 877.918 832.75 877.218 831.55C876.518 830.35 875.568 829.4 874.368 828.7C873.168 828 871.851 827.65 870.418 827.65C868.985 827.65 867.668 828 866.468 828.7C865.268 829.4 864.301 830.35 863.568 831.55C862.868 832.75 862.518 834.067 862.518 835.5C862.518 836.933 862.868 838.25 863.568 839.45C864.301 840.65 865.268 841.617 866.468 842.35C867.668 843.05 868.985 843.4 870.418 843.4ZM904.072 823H909.322V848H904.072V845.5C903.172 846.433 902.122 847.2 900.922 847.8C899.755 848.367 898.489 848.65 897.122 848.65C895.655 848.65 894.155 848.35 892.622 847.75C891.122 847.117 889.822 846 888.722 844.4C887.622 842.8 887.072 840.65 887.072 837.95V823H892.322V837.95C892.322 840.083 892.905 841.617 894.072 842.55C895.272 843.483 896.672 843.95 898.272 843.95C899.839 843.95 901.189 843.4 902.322 842.3C903.489 841.2 904.072 839.417 904.072 836.95V823ZM929.243 822.45C929.61 822.45 929.893 822.467 930.093 822.5L929.693 827.5C929.327 827.4 928.977 827.35 928.643 827.35C926.577 827.35 924.843 827.983 923.443 829.25C922.043 830.483 921.343 832.233 921.343 834.5V848H916.093V823H921.343V827.25C921.91 825.917 922.877 824.783 924.243 823.85C925.643 822.917 927.31 822.45 929.243 822.45ZM84.8 887.9C84.8 888.733 85.2167 889.35 86.05 889.75C86.9167 890.117 88.3 890.533 90.2 891C92.1333 891.433 93.7333 891.9 95 892.4C96.2667 892.867 97.35 893.617 98.25 894.65C99.1833 895.683 99.65 897.083 99.65 898.85C99.65 900.45 99.1833 901.85 98.25 903.05C97.3167 904.217 96.05 905.117 94.45 905.75C92.8833 906.35 91.15 906.65 89.25 906.65C86.6833 906.65 84.4833 906.15 82.65 905.15C80.8167 904.117 79.4833 902.683 78.65 900.85L82.95 898.6C83.45 899.867 84.2333 900.817 85.3 901.45C86.4 902.05 87.7167 902.35 89.25 902.35C90.6833 902.35 91.9167 902.05 92.95 901.45C94.0167 900.85 94.55 900 94.55 898.9C94.55 897.933 94.0667 897.233 93.1 896.8C92.1667 896.333 90.6833 895.85 88.65 895.35C86.6833 894.85 85.1 894.383 83.9 893.95C82.7333 893.483 81.7167 892.783 80.85 891.85C79.9833 890.883 79.55 889.617 79.55 888.05C79.55 886.517 79.9833 885.167 80.85 884C81.7167 882.833 82.8833 881.933 84.35 881.3C85.8167 880.667 87.45 880.35 89.25 880.35C91.3833 880.35 93.2833 880.817 94.95 881.75C96.65 882.65 97.95 883.917 98.85 885.55L94.55 887.7C93.6167 885.667 91.85 884.65 89.25 884.65C87.8833 884.65 86.8 884.95 86 885.55C85.2 886.117 84.8 886.9 84.8 887.9ZM115.438 880.35C117.871 880.35 120.038 880.95 121.938 882.15C123.838 883.317 125.321 884.917 126.388 886.95C127.454 888.95 127.987 891.15 127.987 893.55C127.987 893.95 127.921 894.583 127.788 895.45H107.588C108.021 897.45 108.954 899.05 110.388 900.25C111.854 901.45 113.704 902.05 115.938 902.05C117.304 902.05 118.604 901.75 119.838 901.15C121.104 900.55 122.038 899.767 122.638 898.8L126.738 901.2C125.604 902.933 124.104 904.283 122.238 905.25C120.371 906.183 118.238 906.65 115.838 906.65C113.171 906.65 110.804 906.083 108.738 904.95C106.704 903.817 105.121 902.25 103.988 900.25C102.888 898.25 102.338 896 102.338 893.5C102.338 891.033 102.888 888.8 103.988 886.8C105.121 884.8 106.671 883.233 108.638 882.1C110.638 880.933 112.904 880.35 115.438 880.35ZM122.988 891.3C122.721 889.333 121.904 887.783 120.538 886.65C119.204 885.517 117.504 884.95 115.438 884.95C114.004 884.95 112.688 885.25 111.488 885.85C110.288 886.417 109.338 887.2 108.638 888.2C107.938 889.167 107.571 890.2 107.538 891.3H122.988ZM145.308 880.45C145.674 880.45 145.958 880.467 146.158 880.5L145.758 885.5C145.391 885.4 145.041 885.35 144.708 885.35C142.641 885.35 140.908 885.983 139.508 887.25C138.108 888.483 137.408 890.233 137.408 892.5V906H132.158V881H137.408V885.25C137.974 883.917 138.941 882.783 140.308 881.85C141.708 880.917 143.374 880.45 145.308 880.45ZM160.366 899.8L167.566 881H173.166L163.566 906H157.116L147.566 881H153.116L160.366 899.8ZM179.583 876.05C178.583 876.05 177.783 875.783 177.183 875.25C176.617 874.683 176.333 873.917 176.333 872.95C176.333 871.983 176.617 871.233 177.183 870.7C177.783 870.133 178.583 869.85 179.583 869.85C180.583 869.85 181.367 870.133 181.933 870.7C182.533 871.233 182.833 871.983 182.833 872.95C182.833 873.917 182.533 874.683 181.933 875.25C181.367 875.783 180.583 876.05 179.583 876.05ZM176.933 906V881H182.183V906H176.933ZM209.974 901.15C208.774 902.85 207.241 904.2 205.374 905.2C203.508 906.167 201.491 906.65 199.324 906.65C196.958 906.65 194.758 906.067 192.724 904.9C190.724 903.7 189.141 902.1 187.974 900.1C186.808 898.067 186.224 895.867 186.224 893.5C186.224 891.133 186.808 888.95 187.974 886.95C189.141 884.95 190.724 883.367 192.724 882.2C194.758 881 196.958 880.4 199.324 880.4C201.458 880.4 203.441 880.883 205.274 881.85C207.141 882.817 208.691 884.15 209.924 885.85L205.624 888.75C204.824 887.75 203.874 886.983 202.774 886.45C201.708 885.917 200.558 885.65 199.324 885.65C197.891 885.65 196.574 886 195.374 886.7C194.174 887.4 193.224 888.35 192.524 889.55C191.824 890.75 191.474 892.067 191.474 893.5C191.474 894.933 191.824 896.25 192.524 897.45C193.224 898.65 194.174 899.617 195.374 900.35C196.574 901.05 197.891 901.4 199.324 901.4C200.558 901.4 201.708 901.133 202.774 900.6C203.874 900.033 204.824 899.267 205.624 898.3L209.974 901.15ZM225.398 880.35C227.832 880.35 229.998 880.95 231.898 882.15C233.798 883.317 235.282 884.917 236.348 886.95C237.415 888.95 237.948 891.15 237.948 893.55C237.948 893.95 237.882 894.583 237.748 895.45H217.548C217.982 897.45 218.915 899.05 220.348 900.25C221.815 901.45 223.665 902.05 225.898 902.05C227.265 902.05 228.565 901.75 229.798 901.15C231.065 900.55 231.998 899.767 232.598 898.8L236.698 901.2C235.565 902.933 234.065 904.283 232.198 905.25C230.332 906.183 228.198 906.65 225.798 906.65C223.132 906.65 220.765 906.083 218.698 904.95C216.665 903.817 215.082 902.25 213.948 900.25C212.848 898.25 212.298 896 212.298 893.5C212.298 891.033 212.848 888.8 213.948 886.8C215.082 884.8 216.632 883.233 218.598 882.1C220.598 880.933 222.865 880.35 225.398 880.35ZM232.948 891.3C232.682 889.333 231.865 887.783 230.498 886.65C229.165 885.517 227.465 884.95 225.398 884.95C223.965 884.95 222.648 885.25 221.448 885.85C220.248 886.417 219.298 887.2 218.598 888.2C217.898 889.167 217.532 890.2 217.498 891.3H232.948ZM246.519 887.9C246.519 888.733 246.935 889.35 247.769 889.75C248.635 890.117 250.019 890.533 251.919 891C253.852 891.433 255.452 891.9 256.719 892.4C257.985 892.867 259.069 893.617 259.969 894.65C260.902 895.683 261.369 897.083 261.369 898.85C261.369 900.45 260.902 901.85 259.969 903.05C259.035 904.217 257.769 905.117 256.169 905.75C254.602 906.35 252.869 906.65 250.969 906.65C248.402 906.65 246.202 906.15 244.369 905.15C242.535 904.117 241.202 902.683 240.369 900.85L244.669 898.6C245.169 899.867 245.952 900.817 247.019 901.45C248.119 902.05 249.435 902.35 250.969 902.35C252.402 902.35 253.635 902.05 254.669 901.45C255.735 900.85 256.269 900 256.269 898.9C256.269 897.933 255.785 897.233 254.819 896.8C253.885 896.333 252.402 895.85 250.369 895.35C248.402 894.85 246.819 894.383 245.619 893.95C244.452 893.483 243.435 892.783 242.569 891.85C241.702 890.883 241.269 889.617 241.269 888.05C241.269 886.517 241.702 885.167 242.569 884C243.435 882.833 244.602 881.933 246.069 881.3C247.535 880.667 249.169 880.35 250.969 880.35C253.102 880.35 255.002 880.817 256.669 881.75C258.369 882.65 259.669 883.917 260.569 885.55L256.269 887.7C255.335 885.667 253.569 884.65 250.969 884.65C249.602 884.65 248.519 884.95 247.719 885.55C246.919 886.117 246.519 886.9 246.519 887.9ZM290.975 906.65C288.608 906.65 286.408 906.067 284.375 904.9C282.375 903.7 280.791 902.1 279.625 900.1C278.458 898.067 277.875 895.867 277.875 893.5C277.875 891.133 278.458 888.95 279.625 886.95C280.791 884.95 282.375 883.367 284.375 882.2C286.408 881 288.608 880.4 290.975 880.4C293.341 880.4 295.525 881 297.525 882.2C299.558 883.367 301.158 884.95 302.325 886.95C303.491 888.95 304.075 891.133 304.075 893.5C304.075 895.867 303.491 898.067 302.325 900.1C301.158 902.1 299.558 903.7 297.525 904.9C295.525 906.067 293.341 906.65 290.975 906.65ZM290.975 901.4C292.408 901.4 293.725 901.05 294.925 900.35C296.125 899.617 297.075 898.65 297.775 897.45C298.475 896.25 298.825 894.933 298.825 893.5C298.825 892.067 298.475 890.75 297.775 889.55C297.075 888.35 296.125 887.4 294.925 886.7C293.725 886 292.408 885.65 290.975 885.65C289.541 885.65 288.225 886 287.025 886.7C285.825 887.4 284.858 888.35 284.125 889.55C283.425 890.75 283.075 892.067 283.075 893.5C283.075 894.933 283.425 896.25 284.125 897.45C284.858 898.65 285.825 899.617 287.025 900.35C288.225 901.05 289.541 901.4 290.975 901.4ZM321.529 880.45C321.895 880.45 322.179 880.467 322.379 880.5L321.979 885.5C321.612 885.4 321.262 885.35 320.929 885.35C318.862 885.35 317.129 885.983 315.729 887.25C314.329 888.483 313.629 890.233 313.629 892.5V906H308.379V881H313.629V885.25C314.195 883.917 315.162 882.783 316.529 881.85C317.929 880.917 319.595 880.45 321.529 880.45ZM347.629 897.8C347.629 899.133 347.895 900.05 348.429 900.55C348.995 901.05 349.895 901.3 351.129 901.3C351.829 901.3 352.629 901.25 353.529 901.15V906C352.029 906.167 350.762 906.25 349.729 906.25C347.229 906.25 345.379 905.667 344.179 904.5C342.979 903.3 342.379 901.183 342.379 898.15V885.75H337.229V881H342.379V874.5L347.629 872.7V881H353.429V885.75H347.629V897.8ZM369.49 906.65C367.124 906.65 364.924 906.067 362.89 904.9C360.89 903.7 359.307 902.1 358.14 900.1C356.974 898.067 356.39 895.867 356.39 893.5C356.39 891.133 356.974 888.95 358.14 886.95C359.307 884.95 360.89 883.367 362.89 882.2C364.924 881 367.124 880.4 369.49 880.4C371.857 880.4 374.04 881 376.04 882.2C378.074 883.367 379.674 884.95 380.84 886.95C382.007 888.95 382.59 891.133 382.59 893.5C382.59 895.867 382.007 898.067 380.84 900.1C379.674 902.1 378.074 903.7 376.04 904.9C374.04 906.067 371.857 906.65 369.49 906.65ZM369.49 901.4C370.924 901.4 372.24 901.05 373.44 900.35C374.64 899.617 375.59 898.65 376.29 897.45C376.99 896.25 377.34 894.933 377.34 893.5C377.34 892.067 376.99 890.75 376.29 889.55C375.59 888.35 374.64 887.4 373.44 886.7C372.24 886 370.924 885.65 369.49 885.65C368.057 885.65 366.74 886 365.54 886.7C364.34 887.4 363.374 888.35 362.64 889.55C361.94 890.75 361.59 892.067 361.59 893.5C361.59 894.933 361.94 896.25 362.64 897.45C363.374 898.65 364.34 899.617 365.54 900.35C366.74 901.05 368.057 901.4 369.49 901.4ZM422.963 901.15C421.763 902.85 420.229 904.2 418.363 905.2C416.496 906.167 414.479 906.65 412.313 906.65C409.946 906.65 407.746 906.067 405.713 904.9C403.713 903.7 402.129 902.1 400.963 900.1C399.796 898.067 399.213 895.867 399.213 893.5C399.213 891.133 399.796 888.95 400.963 886.95C402.129 884.95 403.713 883.367 405.713 882.2C407.746 881 409.946 880.4 412.313 880.4C414.446 880.4 416.429 880.883 418.263 881.85C420.129 882.817 421.679 884.15 422.913 885.85L418.613 888.75C417.813 887.75 416.863 886.983 415.763 886.45C414.696 885.917 413.546 885.65 412.313 885.65C410.879 885.65 409.563 886 408.363 886.7C407.163 887.4 406.213 888.35 405.513 889.55C404.813 890.75 404.463 892.067 404.463 893.5C404.463 894.933 404.813 896.25 405.513 897.45C406.213 898.65 407.163 899.617 408.363 900.35C409.563 901.05 410.879 901.4 412.313 901.4C413.546 901.4 414.696 901.133 415.763 900.6C416.863 900.033 417.813 899.267 418.613 898.3L422.963 901.15ZM438.143 906.65C435.776 906.65 433.576 906.067 431.543 904.9C429.543 903.7 427.959 902.1 426.793 900.1C425.626 898.067 425.043 895.867 425.043 893.5C425.043 891.133 425.626 888.95 426.793 886.95C427.959 884.95 429.543 883.367 431.543 882.2C433.576 881 435.776 880.4 438.143 880.4C440.509 880.4 442.693 881 444.693 882.2C446.726 883.367 448.326 884.95 449.493 886.95C450.659 888.95 451.243 891.133 451.243 893.5C451.243 895.867 450.659 898.067 449.493 900.1C448.326 902.1 446.726 903.7 444.693 904.9C442.693 906.067 440.509 906.65 438.143 906.65ZM438.143 901.4C439.576 901.4 440.893 901.05 442.093 900.35C443.293 899.617 444.243 898.65 444.943 897.45C445.643 896.25 445.993 894.933 445.993 893.5C445.993 892.067 445.643 890.75 444.943 889.55C444.243 888.35 443.293 887.4 442.093 886.7C440.893 886 439.576 885.65 438.143 885.65C436.709 885.65 435.393 886 434.193 886.7C432.993 887.4 432.026 888.35 431.293 889.55C430.593 890.75 430.243 892.067 430.243 893.5C430.243 894.933 430.593 896.25 431.293 897.45C432.026 898.65 432.993 899.617 434.193 900.35C435.393 901.05 436.709 901.4 438.143 901.4ZM460.796 899.8C460.796 900.367 460.913 900.767 461.146 901C461.413 901.2 461.83 901.3 462.396 901.3C462.83 901.3 463.346 901.25 463.946 901.15V906C462.48 906.2 461.446 906.3 460.846 906.3C459.146 906.3 457.83 905.85 456.896 904.95C455.996 904.05 455.546 902.45 455.546 900.15V871H460.796V899.8ZM473.345 899.8C473.345 900.367 473.462 900.767 473.695 901C473.962 901.2 474.379 901.3 474.945 901.3C475.379 901.3 475.895 901.25 476.495 901.15V906C475.029 906.2 473.995 906.3 473.395 906.3C471.695 906.3 470.379 905.85 469.445 904.95C468.545 904.05 468.095 902.45 468.095 900.15V871H473.345V899.8ZM500.45 881H505.7V906H500.45V902.95C499.283 904.117 497.933 905.033 496.4 905.7C494.9 906.333 493.333 906.65 491.7 906.65C489.2 906.65 487 906.083 485.1 904.95C483.2 903.783 481.717 902.217 480.65 900.25C479.617 898.25 479.1 896.017 479.1 893.55C479.1 891.083 479.617 888.85 480.65 886.85C481.717 884.85 483.2 883.283 485.1 882.15C487 880.983 489.2 880.4 491.7 880.4C493.333 880.4 494.9 880.733 496.4 881.4C497.933 882.033 499.283 882.933 500.45 884.1V881ZM492.3 901.6C493.8 901.6 495.167 901.25 496.4 900.55C497.667 899.85 498.65 898.883 499.35 897.65C500.083 896.417 500.45 895.033 500.45 893.5C500.45 891.967 500.083 890.6 499.35 889.4C498.65 888.167 497.667 887.217 496.4 886.55C495.167 885.85 493.8 885.5 492.3 885.5C490.8 885.5 489.433 885.85 488.2 886.55C487 887.217 486.05 888.167 485.35 889.4C484.683 890.633 484.35 892.017 484.35 893.55C484.35 895.083 484.683 896.467 485.35 897.7C486.05 898.933 487 899.9 488.2 900.6C489.433 901.267 490.8 901.6 492.3 901.6ZM526.88 880.4C529.38 880.4 531.58 880.983 533.48 882.15C535.38 883.283 536.847 884.85 537.88 886.85C538.947 888.85 539.48 891.083 539.48 893.55C539.48 896.017 538.947 898.25 537.88 900.25C536.847 902.217 535.38 903.783 533.48 904.95C531.58 906.083 529.38 906.65 526.88 906.65C525.147 906.65 523.48 906.283 521.88 905.55C520.28 904.817 518.897 903.817 517.73 902.55V906H512.48V871H517.73V884.55C518.897 883.25 520.28 882.233 521.88 881.5C523.48 880.767 525.147 880.4 526.88 880.4ZM526.28 901.6C527.78 901.6 529.13 901.267 530.33 900.6C531.563 899.9 532.513 898.933 533.18 897.7C533.88 896.467 534.23 895.083 534.23 893.55C534.23 892.017 533.88 890.633 533.18 889.4C532.513 888.167 531.563 887.217 530.33 886.55C529.13 885.85 527.78 885.5 526.28 885.5C524.78 885.5 523.397 885.85 522.13 886.55C520.897 887.217 519.913 888.167 519.18 889.4C518.48 890.6 518.13 891.967 518.13 893.5C518.13 895.033 518.48 896.417 519.18 897.65C519.913 898.883 520.897 899.85 522.13 900.55C523.397 901.25 524.78 901.6 526.28 901.6ZM555.672 906.65C553.305 906.65 551.105 906.067 549.072 904.9C547.072 903.7 545.489 902.1 544.322 900.1C543.155 898.067 542.572 895.867 542.572 893.5C542.572 891.133 543.155 888.95 544.322 886.95C545.489 884.95 547.072 883.367 549.072 882.2C551.105 881 553.305 880.4 555.672 880.4C558.039 880.4 560.222 881 562.222 882.2C564.255 883.367 565.855 884.95 567.022 886.95C568.189 888.95 568.772 891.133 568.772 893.5C568.772 895.867 568.189 898.067 567.022 900.1C565.855 902.1 564.255 903.7 562.222 904.9C560.222 906.067 558.039 906.65 555.672 906.65ZM555.672 901.4C557.105 901.4 558.422 901.05 559.622 900.35C560.822 899.617 561.772 898.65 562.472 897.45C563.172 896.25 563.522 894.933 563.522 893.5C563.522 892.067 563.172 890.75 562.472 889.55C561.772 888.35 560.822 887.4 559.622 886.7C558.422 886 557.105 885.65 555.672 885.65C554.239 885.65 552.922 886 551.722 886.7C550.522 887.4 549.555 888.35 548.822 889.55C548.122 890.75 547.772 892.067 547.772 893.5C547.772 894.933 548.122 896.25 548.822 897.45C549.555 898.65 550.522 899.617 551.722 900.35C552.922 901.05 554.239 901.4 555.672 901.4ZM586.226 880.45C586.592 880.45 586.876 880.467 587.076 880.5L586.676 885.5C586.309 885.4 585.959 885.35 585.626 885.35C583.559 885.35 581.826 885.983 580.426 887.25C579.026 888.483 578.326 890.233 578.326 892.5V906H573.076V881H578.326V885.25C578.892 883.917 579.859 882.783 581.226 881.85C582.626 880.917 584.292 880.45 586.226 880.45ZM609.776 881H615.026V906H609.776V902.95C608.61 904.117 607.26 905.033 605.726 905.7C604.226 906.333 602.66 906.65 601.026 906.65C598.526 906.65 596.326 906.083 594.426 904.95C592.526 903.783 591.043 902.217 589.976 900.25C588.943 898.25 588.426 896.017 588.426 893.55C588.426 891.083 588.943 888.85 589.976 886.85C591.043 884.85 592.526 883.283 594.426 882.15C596.326 880.983 598.526 880.4 601.026 880.4C602.66 880.4 604.226 880.733 605.726 881.4C607.26 882.033 608.61 882.933 609.776 884.1V881ZM601.626 901.6C603.126 901.6 604.493 901.25 605.726 900.55C606.993 899.85 607.976 898.883 608.676 897.65C609.41 896.417 609.776 895.033 609.776 893.5C609.776 891.967 609.41 890.6 608.676 889.4C607.976 888.167 606.993 887.217 605.726 886.55C604.493 885.85 603.126 885.5 601.626 885.5C600.126 885.5 598.76 885.85 597.526 886.55C596.326 887.217 595.376 888.167 594.676 889.4C594.01 890.633 593.676 892.017 593.676 893.55C593.676 895.083 594.01 896.467 594.676 897.7C595.376 898.933 596.326 899.9 597.526 900.6C598.76 901.267 600.126 901.6 601.626 901.6ZM629.074 897.8C629.074 899.133 629.34 900.05 629.874 900.55C630.44 901.05 631.34 901.3 632.574 901.3C633.274 901.3 634.074 901.25 634.974 901.15V906C633.474 906.167 632.207 906.25 631.174 906.25C628.674 906.25 626.824 905.667 625.624 904.5C624.424 903.3 623.824 901.183 623.824 898.15V885.75H618.674V881H623.824V874.5L629.074 872.7V881H634.874V885.75H629.074V897.8ZM650.691 880.35C653.125 880.35 655.291 880.95 657.191 882.15C659.091 883.317 660.575 884.917 661.641 886.95C662.708 888.95 663.241 891.15 663.241 893.55C663.241 893.95 663.175 894.583 663.041 895.45H642.841C643.275 897.45 644.208 899.05 645.641 900.25C647.108 901.45 648.958 902.05 651.191 902.05C652.558 902.05 653.858 901.75 655.091 901.15C656.358 900.55 657.291 899.767 657.891 898.8L661.991 901.2C660.858 902.933 659.358 904.283 657.491 905.25C655.625 906.183 653.491 906.65 651.091 906.65C648.425 906.65 646.058 906.083 643.991 904.95C641.958 903.817 640.375 902.25 639.241 900.25C638.141 898.25 637.591 896 637.591 893.5C637.591 891.033 638.141 888.8 639.241 886.8C640.375 884.8 641.925 883.233 643.891 882.1C645.891 880.933 648.158 880.35 650.691 880.35ZM658.241 891.3C657.975 889.333 657.158 887.783 655.791 886.65C654.458 885.517 652.758 884.95 650.691 884.95C649.258 884.95 647.941 885.25 646.741 885.85C645.541 886.417 644.591 887.2 643.891 888.2C643.191 889.167 642.825 890.2 642.791 891.3H658.241ZM692.83 906.65C690.463 906.65 688.263 906.067 686.23 904.9C684.23 903.7 682.647 902.1 681.48 900.1C680.313 898.067 679.73 895.867 679.73 893.5C679.73 891.133 680.313 888.95 681.48 886.95C682.647 884.95 684.23 883.367 686.23 882.2C688.263 881 690.463 880.4 692.83 880.4C695.197 880.4 697.38 881 699.38 882.2C701.413 883.367 703.013 884.95 704.18 886.95C705.347 888.95 705.93 891.133 705.93 893.5C705.93 895.867 705.347 898.067 704.18 900.1C703.013 902.1 701.413 903.7 699.38 904.9C697.38 906.067 695.197 906.65 692.83 906.65ZM692.83 901.4C694.263 901.4 695.58 901.05 696.78 900.35C697.98 899.617 698.93 898.65 699.63 897.45C700.33 896.25 700.68 894.933 700.68 893.5C700.68 892.067 700.33 890.75 699.63 889.55C698.93 888.35 697.98 887.4 696.78 886.7C695.58 886 694.263 885.65 692.83 885.65C691.397 885.65 690.08 886 688.88 886.7C687.68 887.4 686.713 888.35 685.98 889.55C685.28 890.75 684.93 892.067 684.93 893.5C684.93 894.933 685.28 896.25 685.98 897.45C686.713 898.65 687.68 899.617 688.88 900.35C690.08 901.05 691.397 901.4 692.83 901.4ZM722.434 880.35C723.901 880.35 725.384 880.667 726.884 881.3C728.417 881.9 729.734 883 730.834 884.6C731.934 886.2 732.484 888.35 732.484 891.05V906H727.234V891.05C727.234 888.917 726.634 887.383 725.434 886.45C724.234 885.483 722.834 885 721.234 885C719.667 885 718.317 885.55 717.184 886.65C716.051 887.75 715.484 889.533 715.484 892V906H710.234V881H715.484V883.5C716.384 882.567 717.417 881.817 718.584 881.25C719.784 880.65 721.067 880.35 722.434 880.35ZM763.143 880.35C765.576 880.35 767.743 880.95 769.643 882.15C771.543 883.317 773.026 884.917 774.093 886.95C775.159 888.95 775.693 891.15 775.693 893.55C775.693 893.95 775.626 894.583 775.493 895.45H755.293C755.726 897.45 756.659 899.05 758.093 900.25C759.559 901.45 761.409 902.05 763.643 902.05C765.009 902.05 766.309 901.75 767.543 901.15C768.809 900.55 769.743 899.767 770.343 898.8L774.443 901.2C773.309 902.933 771.809 904.283 769.943 905.25C768.076 906.183 765.943 906.65 763.543 906.65C760.876 906.65 758.509 906.083 756.443 904.95C754.409 903.817 752.826 902.25 751.693 900.25C750.593 898.25 750.043 896 750.043 893.5C750.043 891.033 750.593 888.8 751.693 886.8C752.826 884.8 754.376 883.233 756.343 882.1C758.343 880.933 760.609 880.35 763.143 880.35ZM770.693 891.3C770.426 889.333 769.609 887.783 768.243 886.65C766.909 885.517 765.209 884.95 763.143 884.95C761.709 884.95 760.393 885.25 759.193 885.85C757.993 886.417 757.043 887.2 756.343 888.2C755.643 889.167 755.276 890.2 755.243 891.3H770.693ZM794.782 881H801.232L792.032 893.5L801.232 906L794.782 906.05L788.782 897.9L782.782 906.05L776.332 906L785.532 893.5L776.332 881H782.782L788.782 889.15L794.782 881ZM827.552 901.15C826.352 902.85 824.819 904.2 822.952 905.2C821.086 906.167 819.069 906.65 816.902 906.65C814.536 906.65 812.336 906.067 810.302 904.9C808.302 903.7 806.719 902.1 805.552 900.1C804.386 898.067 803.802 895.867 803.802 893.5C803.802 891.133 804.386 888.95 805.552 886.95C806.719 884.95 808.302 883.367 810.302 882.2C812.336 881 814.536 880.4 816.902 880.4C819.036 880.4 821.019 880.883 822.852 881.85C824.719 882.817 826.269 884.15 827.502 885.85L823.202 888.75C822.402 887.75 821.452 886.983 820.352 886.45C819.286 885.917 818.136 885.65 816.902 885.65C815.469 885.65 814.152 886 812.952 886.7C811.752 887.4 810.802 888.35 810.102 889.55C809.402 890.75 809.052 892.067 809.052 893.5C809.052 894.933 809.402 896.25 810.102 897.45C810.802 898.65 811.752 899.617 812.952 900.35C814.152 901.05 815.469 901.4 816.902 901.4C818.136 901.4 819.286 901.133 820.352 900.6C821.452 900.033 822.402 899.267 823.202 898.3L827.552 901.15ZM834.271 876.05C833.271 876.05 832.471 875.783 831.871 875.25C831.304 874.683 831.021 873.917 831.021 872.95C831.021 871.983 831.304 871.233 831.871 870.7C832.471 870.133 833.271 869.85 834.271 869.85C835.271 869.85 836.054 870.133 836.621 870.7C837.221 871.233 837.521 871.983 837.521 872.95C837.521 873.917 837.221 874.683 836.621 875.25C836.054 875.783 835.271 876.05 834.271 876.05ZM831.621 906V881H836.871V906H831.621ZM851.632 897.8C851.632 899.133 851.899 900.05 852.432 900.55C852.999 901.05 853.899 901.3 855.132 901.3C855.832 901.3 856.632 901.25 857.532 901.15V906C856.032 906.167 854.766 906.25 853.732 906.25C851.232 906.25 849.382 905.667 848.182 904.5C846.982 903.3 846.382 901.183 846.382 898.15V885.75H841.232V881H846.382V874.5L851.632 872.7V881H857.432V885.75H851.632V897.8ZM865.325 876.05C864.325 876.05 863.525 875.783 862.925 875.25C862.359 874.683 862.075 873.917 862.075 872.95C862.075 871.983 862.359 871.233 862.925 870.7C863.525 870.133 864.325 869.85 865.325 869.85C866.325 869.85 867.109 870.133 867.675 870.7C868.275 871.233 868.575 871.983 868.575 872.95C868.575 873.917 868.275 874.683 867.675 875.25C867.109 875.783 866.325 876.05 865.325 876.05ZM862.675 906V881H867.925V906H862.675ZM886.643 880.35C888.11 880.35 889.593 880.667 891.093 881.3C892.626 881.9 893.943 883 895.043 884.6C896.143 886.2 896.693 888.35 896.693 891.05V906H891.443V891.05C891.443 888.917 890.843 887.383 889.643 886.45C888.443 885.483 887.043 885 885.443 885C883.876 885 882.526 885.55 881.393 886.65C880.26 887.75 879.693 889.533 879.693 892V906H874.443V881H879.693V883.5C880.593 882.567 881.626 881.817 882.793 881.25C883.993 880.65 885.276 880.35 886.643 880.35ZM922.083 881H927.333V904.75C927.333 907.117 926.75 909.2 925.583 911C924.417 912.8 922.8 914.183 920.733 915.15C918.7 916.15 916.4 916.65 913.833 916.65C910.933 916.65 908.333 916.1 906.033 915C903.767 913.9 902.15 912.433 901.183 910.6L905.683 908C906.217 909.067 907.2 909.967 908.633 910.7C910.1 911.433 911.883 911.8 913.983 911.8C916.35 911.8 918.283 911.15 919.783 909.85C921.317 908.55 922.083 906.85 922.083 904.75V903C920.917 904.133 919.567 905.033 918.033 905.7C916.533 906.333 914.967 906.65 913.333 906.65C910.833 906.65 908.633 906.083 906.733 904.95C904.833 903.783 903.35 902.217 902.283 900.25C901.25 898.25 900.733 896.017 900.733 893.55C900.733 891.083 901.25 888.85 902.283 886.85C903.35 884.85 904.833 883.283 906.733 882.15C908.633 880.983 910.833 880.4 913.333 880.4C914.967 880.4 916.533 880.733 918.033 881.4C919.567 882.033 920.917 882.933 922.083 884.1V881ZM913.983 901.6C915.483 901.6 916.85 901.25 918.083 900.55C919.317 899.85 920.283 898.883 920.983 897.65C921.717 896.417 922.083 895.033 922.083 893.5C922.083 891.967 921.717 890.6 920.983 889.4C920.283 888.167 919.317 887.217 918.083 886.55C916.85 885.85 915.483 885.5 913.983 885.5C912.483 885.5 911.117 885.85 909.883 886.55C908.683 887.217 907.733 888.167 907.033 889.4C906.333 890.633 905.983 892.017 905.983 893.55C905.983 895.083 906.333 896.467 907.033 897.7C907.733 898.933 908.683 899.9 909.883 900.6C911.117 901.267 912.483 901.6 913.983 901.6ZM94.4 938.4C96.9 938.4 99.1 938.967 101 940.1C102.9 941.233 104.367 942.8 105.4 944.8C106.467 946.8 107 949.033 107 951.5C107 953.967 106.467 956.2 105.4 958.2C104.367 960.2 102.9 961.783 101 962.95C99.1 964.083 96.9 964.65 94.4 964.65C92.7667 964.65 91.1833 964.333 89.65 963.7C88.15 963.033 86.8167 962.117 85.65 960.95V974H80.4V939H85.65V942.05C86.8167 940.917 88.15 940.033 89.65 939.4C91.1833 938.733 92.7667 938.4 94.4 938.4ZM93.75 959.55C95.25 959.55 96.6 959.2 97.8 958.5C99.0333 957.8 100 956.85 100.7 955.65C101.4 954.417 101.75 953.033 101.75 951.5C101.75 949.967 101.4 948.583 100.7 947.35C100 946.117 99.0333 945.15 97.8 944.45C96.6 943.75 95.25 943.4 93.75 943.4C92.25 943.4 90.8833 943.75 89.65 944.45C88.4167 945.15 87.4333 946.133 86.7 947.4C86 948.633 85.65 950.017 85.65 951.55C85.65 953.083 86 954.467 86.7 955.7C87.4333 956.9 88.4167 957.85 89.65 958.55C90.8833 959.217 92.25 959.55 93.75 959.55ZM124.605 938.45C124.971 938.45 125.255 938.467 125.455 938.5L125.055 943.5C124.688 943.4 124.338 943.35 124.005 943.35C121.938 943.35 120.205 943.983 118.805 945.25C117.405 946.483 116.705 948.233 116.705 950.5V964H111.455V939H116.705V943.25C117.271 941.917 118.238 940.783 119.605 939.85C121.005 938.917 122.671 938.45 124.605 938.45ZM139.705 964.65C137.338 964.65 135.138 964.067 133.105 962.9C131.105 961.7 129.522 960.1 128.355 958.1C127.188 956.067 126.605 953.867 126.605 951.5C126.605 949.133 127.188 946.95 128.355 944.95C129.522 942.95 131.105 941.367 133.105 940.2C135.138 939 137.338 938.4 139.705 938.4C142.072 938.4 144.255 939 146.255 940.2C148.288 941.367 149.888 942.95 151.055 944.95C152.222 946.95 152.805 949.133 152.805 951.5C152.805 953.867 152.222 956.067 151.055 958.1C149.888 960.1 148.288 961.7 146.255 962.9C144.255 964.067 142.072 964.65 139.705 964.65ZM139.705 959.4C141.138 959.4 142.455 959.05 143.655 958.35C144.855 957.617 145.805 956.65 146.505 955.45C147.205 954.25 147.555 952.933 147.555 951.5C147.555 950.067 147.205 948.75 146.505 947.55C145.805 946.35 144.855 945.4 143.655 944.7C142.455 944 141.138 943.65 139.705 943.65C138.272 943.65 136.955 944 135.755 944.7C134.555 945.4 133.588 946.35 132.855 947.55C132.155 948.75 131.805 950.067 131.805 951.5C131.805 952.933 132.155 954.25 132.855 955.45C133.588 956.65 134.555 957.617 135.755 958.35C136.955 959.05 138.272 959.4 139.705 959.4ZM160.472 934.5C159.472 934.5 158.672 934.233 158.072 933.7C157.505 933.133 157.222 932.367 157.222 931.4C157.222 930.433 157.505 929.667 158.072 929.1C158.672 928.533 159.472 928.25 160.472 928.25C161.472 928.25 162.255 928.533 162.822 929.1C163.422 929.667 163.722 930.433 163.722 931.4C163.722 932.367 163.422 933.133 162.822 933.7C162.255 934.233 161.472 934.5 160.472 934.5ZM157.822 939H163.072V965.45C163.072 968.517 162.089 970.883 160.122 972.55C158.189 974.217 155.622 974.917 152.422 974.65V969.6C152.689 969.633 153.072 969.65 153.572 969.65C155.039 969.65 156.105 969.3 156.772 968.6C157.472 967.933 157.822 966.883 157.822 965.45V939ZM180.379 938.35C182.812 938.35 184.979 938.95 186.879 940.15C188.779 941.317 190.262 942.917 191.329 944.95C192.396 946.95 192.929 949.15 192.929 951.55C192.929 951.95 192.862 952.583 192.729 953.45H172.529C172.962 955.45 173.896 957.05 175.329 958.25C176.796 959.45 178.646 960.05 180.879 960.05C182.246 960.05 183.546 959.75 184.779 959.15C186.046 958.55 186.979 957.767 187.579 956.8L191.679 959.2C190.546 960.933 189.046 962.283 187.179 963.25C185.312 964.183 183.179 964.65 180.779 964.65C178.112 964.65 175.746 964.083 173.679 962.95C171.646 961.817 170.062 960.25 168.929 958.25C167.829 956.25 167.279 954 167.279 951.5C167.279 949.033 167.829 946.8 168.929 944.8C170.062 942.8 171.612 941.233 173.579 940.1C175.579 938.933 177.846 938.35 180.379 938.35ZM187.929 949.3C187.662 947.333 186.846 945.783 185.479 944.65C184.146 943.517 182.446 942.95 180.379 942.95C178.946 942.95 177.629 943.25 176.429 943.85C175.229 944.417 174.279 945.2 173.579 946.2C172.879 947.167 172.512 948.2 172.479 949.3H187.929ZM219.349 959.15C218.149 960.85 216.616 962.2 214.749 963.2C212.883 964.167 210.866 964.65 208.699 964.65C206.333 964.65 204.133 964.067 202.099 962.9C200.099 961.7 198.516 960.1 197.349 958.1C196.183 956.067 195.599 953.867 195.599 951.5C195.599 949.133 196.183 946.95 197.349 944.95C198.516 942.95 200.099 941.367 202.099 940.2C204.133 939 206.333 938.4 208.699 938.4C210.833 938.4 212.816 938.883 214.649 939.85C216.516 940.817 218.066 942.15 219.299 943.85L214.999 946.75C214.199 945.75 213.249 944.983 212.149 944.45C211.083 943.917 209.933 943.65 208.699 943.65C207.266 943.65 205.949 944 204.749 944.7C203.549 945.4 202.599 946.35 201.899 947.55C201.199 948.75 200.849 950.067 200.849 951.5C200.849 952.933 201.199 954.25 201.899 955.45C202.599 956.65 203.549 957.617 204.749 958.35C205.949 959.05 207.266 959.4 208.699 959.4C209.933 959.4 211.083 959.133 212.149 958.6C213.249 958.033 214.199 957.267 214.999 956.3L219.349 959.15ZM231.418 955.8C231.418 957.133 231.684 958.05 232.218 958.55C232.784 959.05 233.684 959.3 234.918 959.3C235.618 959.3 236.418 959.25 237.318 959.15V964C235.818 964.167 234.551 964.25 233.518 964.25C231.018 964.25 229.168 963.667 227.968 962.5C226.768 961.3 226.168 959.183 226.168 956.15V943.75H221.018V939H226.168V932.5L231.418 930.7V939H237.218V943.75H231.418V955.8ZM246.079 945.9C246.079 946.733 246.496 947.35 247.329 947.75C248.196 948.117 249.579 948.533 251.479 949C253.413 949.433 255.013 949.9 256.279 950.4C257.546 950.867 258.629 951.617 259.529 952.65C260.463 953.683 260.929 955.083 260.929 956.85C260.929 958.45 260.463 959.85 259.529 961.05C258.596 962.217 257.329 963.117 255.729 963.75C254.163 964.35 252.429 964.65 250.529 964.65C247.963 964.65 245.763 964.15 243.929 963.15C242.096 962.117 240.763 960.683 239.929 958.85L244.229 956.6C244.729 957.867 245.513 958.817 246.579 959.45C247.679 960.05 248.996 960.35 250.529 960.35C251.963 960.35 253.196 960.05 254.229 959.45C255.296 958.85 255.829 958 255.829 956.9C255.829 955.933 255.346 955.233 254.379 954.8C253.446 954.333 251.963 953.85 249.929 953.35C247.963 952.85 246.379 952.383 245.179 951.95C244.013 951.483 242.996 950.783 242.129 949.85C241.263 948.883 240.829 947.617 240.829 946.05C240.829 944.517 241.263 943.167 242.129 942C242.996 940.833 244.163 939.933 245.629 939.3C247.096 938.667 248.729 938.35 250.529 938.35C252.663 938.35 254.563 938.817 256.229 939.75C257.929 940.65 259.229 941.917 260.129 943.55L255.829 945.7C254.896 943.667 253.129 942.65 250.529 942.65C249.163 942.65 248.079 942.95 247.279 943.55C246.479 944.117 246.079 944.9 246.079 945.9ZM271.493 953.75H266.943L265.993 929H272.393L271.493 953.75ZM265.993 961.25C265.993 960.217 266.26 959.433 266.793 958.9C267.36 958.333 268.16 958.05 269.193 958.05C270.193 958.05 270.96 958.333 271.493 958.9C272.06 959.433 272.343 960.217 272.343 961.25C272.343 962.283 272.06 963.083 271.493 963.65C270.96 964.217 270.193 964.5 269.193 964.5C268.16 964.5 267.36 964.217 266.793 963.65C266.26 963.083 265.993 962.283 265.993 961.25Z" fill="black"/>
<path d="M84.5 473.25C84.5 456.917 88.5 441.833 96.5 428C104.667 414.167 115.667 403.25 129.5 395.25C143.333 387.083 158.417 383 174.75 383C191.583 383 207.083 387.333 221.25 396C235.417 404.667 246.417 416.167 254.25 430.5L212.5 453C208.833 446.167 203.583 440.75 196.75 436.75C190.083 432.583 182.75 430.5 174.75 430.5C167.083 430.5 159.917 432.417 153.25 436.25C146.75 440.083 141.583 445.333 137.75 452C133.917 458.5 132 465.583 132 473.25C132 480.917 133.917 488.083 137.75 494.75C141.583 501.25 146.75 506.417 153.25 510.25C159.917 514.083 167.083 516 174.75 516C182.917 516 190.417 513.917 197.25 509.75C204.083 505.417 209.25 499.667 212.75 492.5L254.75 515.25C247.083 529.917 236.083 541.667 221.75 550.5C207.417 559.167 191.75 563.5 174.75 563.5C158.417 563.5 143.333 559.5 129.5 551.5C115.667 543.333 104.667 532.333 96.5 518.5C88.5 504.667 84.5 489.583 84.5 473.25ZM327.264 564C315.264 564 304.18 561.083 294.014 555.25C283.847 549.25 275.764 541.167 269.764 531C263.93 520.833 261.014 509.75 261.014 497.75C261.014 485.75 263.93 474.667 269.764 464.5C275.764 454.333 283.847 446.333 294.014 440.5C304.18 434.5 315.264 431.5 327.264 431.5C339.264 431.5 350.347 434.5 360.514 440.5C370.68 446.333 378.68 454.333 384.514 464.5C390.514 474.667 393.514 485.75 393.514 497.75C393.514 509.75 390.514 520.833 384.514 531C378.68 541.167 370.68 549.25 360.514 555.25C350.347 561.083 339.264 564 327.264 564ZM327.264 519C333.097 519 338.097 516.917 342.264 512.75C346.43 508.583 348.514 503.583 348.514 497.75C348.514 491.917 346.43 486.917 342.264 482.75C338.097 478.583 333.097 476.5 327.264 476.5C321.43 476.5 316.43 478.583 312.264 482.75C308.097 486.917 306.014 491.917 306.014 497.75C306.014 503.583 308.097 508.583 312.264 512.75C316.43 516.917 321.43 519 327.264 519ZM480.592 431.25C487.758 431.25 495.008 432.833 502.342 436C509.842 439.167 516.175 444.833 521.342 453C526.675 461 529.342 471.75 529.342 485.25V560H484.342V485.25C484.342 480.083 482.842 476.333 479.842 474C476.842 471.5 473.175 470.25 468.842 470.25C464.508 470.25 461.092 471.917 458.592 475.25C456.092 478.417 454.842 483.25 454.842 489.75V560H409.842V435H454.842V440.25C463.175 434.25 471.758 431.25 480.592 431.25ZM602.973 511.75C602.973 514.417 604.139 516.333 606.473 517.5C608.806 518.667 612.139 519.25 616.473 519.25C618.306 519.25 621.723 519.083 626.723 518.75V560C617.889 560.833 610.389 561.25 604.223 561.25C588.723 561.25 577.139 557.917 569.473 551.25C561.806 544.583 557.973 532.5 557.973 515V475H540.223V435H557.973V409.5L602.973 394.5V435H626.223V475H602.973V511.75ZM736.908 435H781.908V560H736.908V554.75C726.742 560.75 716.075 563.75 704.908 563.75C684.908 563.75 669.492 557.75 658.658 545.75C647.825 533.583 642.408 517.583 642.408 497.75C642.408 477.75 647.825 461.667 658.658 449.5C669.492 437.333 684.908 431.25 704.908 431.25C716.075 431.25 726.742 434.25 736.908 440.25V435ZM711.158 521C718.492 521 724.575 518.833 729.408 514.5C734.242 510.167 736.658 504.417 736.658 497.25C736.658 490.25 734.242 484.75 729.408 480.75C724.575 476.75 718.492 474.75 711.158 474.75C703.992 474.75 698.242 476.833 693.908 481C689.575 485 687.408 490.583 687.408 497.75C687.408 505.083 689.575 510.833 693.908 515C698.242 519 703.992 521 711.158 521ZM918.867 535.5C912.701 544.333 904.867 551.333 895.367 556.5C885.867 561.5 875.617 564 864.617 564C852.617 564 841.534 561.083 831.367 555.25C821.201 549.25 813.117 541.167 807.117 531C801.284 520.833 798.367 509.75 798.367 497.75C798.367 485.75 801.284 474.667 807.117 464.5C813.117 454.333 821.201 446.333 831.367 440.5C841.534 434.5 852.617 431.5 864.617 431.5C875.451 431.5 885.617 434.083 895.117 439.25C904.617 444.25 912.451 451.083 918.617 459.75L881.367 484.5C878.534 481.667 875.784 479.667 873.117 478.5C870.617 477.167 867.784 476.5 864.617 476.5C858.784 476.5 853.784 478.583 849.617 482.75C845.451 486.917 843.367 491.917 843.367 497.75C843.367 503.583 845.451 508.583 849.617 512.75C853.784 516.917 858.784 519 864.617 519C870.451 519 876.034 516.333 881.367 511L918.867 535.5ZM987.982 511.75C987.982 514.417 989.149 516.333 991.482 517.5C993.816 518.667 997.149 519.25 1001.48 519.25C1003.32 519.25 1006.73 519.083 1011.73 518.75V560C1002.9 560.833 995.399 561.25 989.232 561.25C973.732 561.25 962.149 557.917 954.482 551.25C946.816 544.583 942.982 532.5 942.982 515V475H925.232V435H942.982V409.5L987.982 394.5V435H1011.23V475H987.982V511.75ZM184.5 588H232V704C232 716.167 228.833 727 222.5 736.5C216.167 746 207.583 753.417 196.75 758.75C185.917 763.917 174.083 766.5 161.25 766.5C148.417 766.5 136.583 763.917 125.75 758.75C115.083 753.417 106.583 746 100.25 736.5C93.9167 727 90.75 716.167 90.75 704V588H138.25V704C138.25 709 140.667 712.833 145.5 715.5C150.5 718 155.75 719.25 161.25 719.25C167.75 719.25 173.25 718 177.75 715.5C182.25 713 184.5 709.167 184.5 704V588ZM296.068 674.5C296.068 676.333 297.235 677.667 299.568 678.5C302.068 679.167 306.485 680.083 312.818 681.25C322.652 682.75 330.985 684.667 337.818 687C344.652 689.333 350.652 693.5 355.818 699.5C361.152 705.5 363.818 713.833 363.818 724.5C363.818 733.667 360.985 741.417 355.318 747.75C349.818 754.083 342.568 758.833 333.568 762C324.568 765 314.902 766.5 304.568 766.5C290.735 766.5 278.818 764.083 268.818 759.25C258.818 754.25 251.152 746.75 245.818 736.75L282.318 718C284.152 722.667 286.902 726.083 290.568 728.25C294.235 730.25 298.902 731.25 304.568 731.25C308.902 731.25 312.568 730.75 315.568 729.75C318.735 728.75 320.318 727.083 320.318 724.75C320.318 722.917 318.902 721.5 316.068 720.5C313.402 719.5 308.652 718.25 301.818 716.75C292.152 714.917 283.818 712.833 276.818 710.5C269.818 708 263.735 704 258.568 698.5C253.402 692.833 250.818 685.333 250.818 676C250.818 667.333 253.318 659.917 258.318 653.75C263.485 647.417 270.235 642.667 278.568 639.5C286.902 636.167 295.902 634.5 305.568 634.5C316.902 634.5 327.235 636.833 336.568 641.5C345.902 646 353.318 652.583 358.818 661.25L322.318 679.25C320.318 675.917 318.068 673.5 315.568 672C313.235 670.5 309.902 669.75 305.568 669.75C302.735 669.75 300.402 670.167 298.568 671C296.902 671.833 296.068 673 296.068 674.5Z" fill="#1A0F91"/>
</svg>
