<svg width="87" height="86" viewBox="0 0 87 86" fill="none" xmlns="http://www.w3.org/2000/svg">
<path d="M21.8777 50.0852L27.0623 39.7159C27.6593 38.5311 28.5741 37.5358 29.7044 36.8412C30.8347 36.1466 32.136 35.7801 33.4627 35.7827H71.9363M71.9363 35.7827C73.0287 35.7808 74.1071 36.0292 75.0886 36.5089C76.0702 36.9885 76.9288 37.6867 77.5985 38.5498C78.2683 39.4129 78.7314 40.4179 78.9523 41.4878C79.1732 42.5577 79.1461 43.664 78.873 44.7218L73.3308 66.1755C72.9339 67.7126 72.0368 69.074 70.7809 70.045C69.525 71.0161 67.9816 71.5417 66.3941 71.5389H14.7264C12.8298 71.5389 11.0109 70.7855 9.66974 69.4443C8.32863 68.1032 7.5752 66.2843 7.5752 64.3877V17.9046C7.5752 13.9715 10.7932 10.7534 14.7264 10.7534H28.7786C29.9565 10.7595 31.1146 11.0565 32.15 11.6179C33.1855 12.1793 34.0663 12.9877 34.7141 13.9715L37.6461 18.2622C38.2939 19.2459 39.1747 20.0544 40.2102 20.6158C41.2457 21.1772 42.4038 21.4742 43.5816 21.4803H64.785C66.6817 21.4803 68.5006 22.2337 69.8417 23.5748C71.1828 24.9159 71.9363 26.7349 71.9363 28.6315V35.7827Z" stroke="white" stroke-width="2" stroke-linecap="round" stroke-linejoin="round"/>
<path d="M50.4828 57.2362C52.4576 57.2362 54.0585 55.6353 54.0585 53.6606C54.0585 51.6858 52.4576 50.085 50.4828 50.085C48.5081 50.085 46.9072 51.6858 46.9072 53.6606C46.9072 55.6353 48.5081 57.2362 50.4828 57.2362Z" stroke="white" stroke-width="2" stroke-linecap="round" stroke-linejoin="round"/>
</svg>
