<svg width="148" height="148" viewBox="0 0 148 148" fill="none" xmlns="http://www.w3.org/2000/svg">
<g id="Frame">
<path id="Vector" d="M24.6667 135.667H111C114.271 135.667 117.408 134.367 119.721 132.054C122.034 129.742 123.333 126.604 123.333 123.333V43.1668L92.5001 12.3335H37.0001C33.7291 12.3335 30.592 13.6329 28.2791 15.9458C25.9661 18.2588 24.6667 21.3958 24.6667 24.6668V30.8335" stroke="#4541F3" stroke-width="10" stroke-linecap="round" stroke-linejoin="round"/>
<path id="Vector_2" d="M86.3335 12.3335V37.0002C86.3335 40.2712 87.6329 43.4082 89.9458 45.7211C92.2588 48.0341 95.3958 49.3335 98.6668 49.3335H123.333" stroke="#4541F3" stroke-width="10" stroke-linecap="round" stroke-linejoin="round"/>
<path id="Vector_3" d="M55.4999 80.1665H18.4999C15.0942 80.1665 12.3333 82.9274 12.3333 86.3332V104.833C12.3333 108.239 15.0942 111 18.4999 111H55.4999C58.9057 111 61.6666 108.239 61.6666 104.833V86.3332C61.6666 82.9274 58.9057 80.1665 55.4999 80.1665Z" stroke="#4541F3" stroke-width="10" stroke-linecap="round" stroke-linejoin="round"/>
<path id="Vector_4" d="M49.3334 80.1667V67.8333C49.3334 64.5623 48.034 61.4253 45.7211 59.1124C43.4081 56.7994 40.2711 55.5 37.0001 55.5C33.7291 55.5 30.592 56.7994 28.2791 59.1124C25.9661 61.4253 24.6667 64.5623 24.6667 67.8333V80.1667" stroke="#4541F3" stroke-width="10" stroke-linecap="round" stroke-linejoin="round"/>
</g>
</svg>
