<svg width="291" height="65" viewBox="0 0 291 65" fill="none" xmlns="http://www.w3.org/2000/svg">
<path d="M50.6279 36.0331C52.2783 34.2297 52.0752 33.6986 50.4627 32.2228L41.2321 23.775L45.8052 18.7781L55.0359 27.226C59.6109 31.4131 59.9667 35.4668 55.4279 40.4261L39.9893 57.2952C35.4505 62.2545 31.3812 62.2584 26.8062 58.0713L0.074144 33.6062L4.64729 28.6093L31.3793 53.0744C32.9918 54.5502 33.5388 54.7056 35.1892 52.9022L50.6279 36.0331Z" fill="white"/>
<path d="M38.9511 43.9864L34.378 48.9833L7.97754 24.8216L23.6111 7.73951C28.1498 2.78021 33.3943 2.47108 37.8569 6.55523L39.2069 7.79077C43.8195 12.0122 45.0816 15.678 40.199 21.013L35.6449 25.989L30.8823 21.6303L35.4364 16.6543C37.4307 14.4752 36.4307 14.3631 34.6682 12.7501L33.2806 11.4802C31.7431 10.0731 30.0241 10.2948 28.3737 12.0982L17.3133 24.1834L38.9511 43.9864Z" fill="white"/>
<path d="M30.0445 22.6685L45.9144 37.1926L41.3412 42.1895L25.4713 27.6653L30.0445 22.6685Z" fill="white"/>
<path d="M25.9308 18.9036L28.3039 21.0755L23.7307 26.0723L21.3577 23.9005L25.9308 18.9036Z" fill="white"/>
<path d="M94.8487 29.7911C96.856 29.7911 97.0651 29.3729 97.0651 27.5747V5.70306H102.627V27.5747C102.627 32.6766 100.369 35.144 94.8487 35.144H76.0717C70.5515 35.144 68.2933 32.6766 68.2933 27.5747V5.70306H73.8553V27.5747C73.8553 29.3729 74.0644 29.7911 76.0717 29.7911H94.8487Z" fill="white"/>
<path d="M112.247 35.144H106.685V5.70306H134.119C139.639 5.70306 142.734 8.71407 142.734 13.6906V15.1961C142.734 20.3399 140.057 23.1418 134.119 23.1418H114.547V17.8307H134.119C136.544 17.8307 137.213 17.1616 137.213 15.1961V13.6488C137.213 11.9342 136.126 11.0141 134.119 11.0141H112.247V35.144Z" fill="white"/>
<path d="M175.99 5.70306V10.9305H162.44V35.144H156.92V10.9305H143.496V5.70306H175.99Z" fill="white"/>
<path d="M212.527 29.7911V35.144H185.804C180.284 35.144 178.026 32.6766 178.026 27.5747V13.1888C178.026 8.17041 180.409 5.70306 185.804 5.70306H212.527V10.9305H185.804C184.34 10.9305 183.588 11.7669 183.588 13.1888V16.7852H212.527V22.2218H183.588V27.5747C183.588 29.3729 183.797 29.7911 185.804 29.7911H212.527Z" fill="white"/>
<path d="M247.047 29.7911V35.144H223.335C217.815 35.144 215.557 32.6766 215.557 27.5747V13.1888C215.557 8.17041 217.941 5.70306 223.335 5.70306H247.047V10.9305H223.335C221.872 10.9305 221.119 11.7669 221.119 13.1888V27.5747C221.119 29.3729 221.328 29.7911 223.335 29.7911H247.047Z" fill="white"/>
<path d="M256.124 5.70306V17.7053H279.334V5.70306H284.854V35.144H279.334V23.1418H256.124V35.144H250.562V5.70306H256.124Z" fill="white"/>
<path d="M68.2881 54.6597V38.9774H70.2483V54.6597H68.2881Z" fill="white"/>
<path d="M73.5563 54.6597V42.898H75.5166V44.4601C75.8093 44.0653 76.17 43.7352 76.5989 43.4698C77.0345 43.2043 77.613 43.0069 78.3345 42.8776C79.0628 42.7415 80.0158 42.6734 81.1933 42.6734C82.7316 42.6734 83.9431 42.8231 84.828 43.1226C85.7196 43.4221 86.3527 43.9564 86.727 44.7256C87.1014 45.4947 87.2886 46.5838 87.2886 47.9927V54.6597H85.3181V47.9927C85.3181 47.1895 85.25 46.5429 85.1139 46.0528C84.9777 45.5628 84.7429 45.1918 84.4094 44.94C84.0827 44.6881 83.63 44.5214 83.0515 44.4397C82.4729 44.3512 81.7378 44.307 80.8462 44.307C79.4848 44.307 78.4162 44.4193 77.6403 44.6439C76.8643 44.8685 76.3164 45.2224 75.9965 45.7057C75.6766 46.1822 75.5166 46.805 75.5166 47.5741V54.6597H73.5563Z" fill="white"/>
<path d="M96.7429 54.8844C95.4292 54.8844 94.3129 54.8163 93.394 54.6802C92.4752 54.5508 91.7332 54.282 91.1683 53.8736C90.6034 53.4584 90.1916 52.839 89.9329 52.0154C89.6743 51.1918 89.5449 50.0925 89.5449 48.7176C89.5449 47.3835 89.6743 46.3149 89.9329 45.5117C90.1916 44.7086 90.6034 44.1028 91.1683 43.6944C91.7332 43.286 92.4752 43.0137 93.394 42.8776C94.3129 42.7415 95.4292 42.6734 96.7429 42.6734C98.3152 42.6734 99.6084 42.7653 100.623 42.9491C101.644 43.126 102.399 43.4936 102.889 44.0517C103.379 44.6099 103.624 45.4607 103.624 46.6042H101.746C101.746 45.9439 101.61 45.4505 101.337 45.1238C101.065 44.797 100.568 44.5792 99.8467 44.4703C99.1252 44.3614 98.0906 44.307 96.7429 44.307C95.5313 44.307 94.5716 44.358 93.8637 44.4601C93.1558 44.5622 92.6351 44.763 92.3016 45.0625C91.9681 45.3552 91.7503 45.7942 91.6482 46.3796C91.5529 46.9649 91.5052 47.7443 91.5052 48.7176C91.5052 49.725 91.5529 50.5316 91.6482 51.1373C91.7503 51.7431 91.9681 52.1992 92.3016 52.5055C92.6351 52.805 93.1558 53.0057 93.8637 53.1078C94.5716 53.2031 95.5313 53.2508 96.7429 53.2508C97.7707 53.2508 98.6113 53.2236 99.2647 53.1691C99.9181 53.1078 100.425 52.9921 100.786 52.822C101.147 52.645 101.395 52.3932 101.531 52.0664C101.674 51.7329 101.746 51.2905 101.746 50.7392H103.624C103.624 51.6512 103.488 52.3829 103.216 52.9343C102.944 53.4856 102.528 53.9008 101.97 54.1799C101.412 54.4589 100.697 54.6461 99.8262 54.7414C98.9618 54.8367 97.934 54.8844 96.7429 54.8844Z" fill="white"/>
<path d="M112.793 54.8844C111.479 54.8844 110.363 54.8163 109.444 54.6802C108.525 54.5508 107.783 54.282 107.218 53.8736C106.653 53.4584 106.241 52.839 105.983 52.0154C105.724 51.1918 105.595 50.0925 105.595 48.7176C105.595 47.3835 105.724 46.3149 105.983 45.5117C106.241 44.7086 106.653 44.1028 107.218 43.6944C107.783 43.286 108.525 43.0137 109.444 42.8776C110.363 42.7415 111.479 42.6734 112.793 42.6734C114.113 42.6734 115.229 42.7415 116.142 42.8776C117.06 43.0137 117.802 43.286 118.367 43.6944C118.932 44.1028 119.344 44.7086 119.603 45.5117C119.861 46.3149 119.991 47.3835 119.991 48.7176C119.991 50.0925 119.861 51.1918 119.603 52.0154C119.344 52.839 118.932 53.4584 118.367 53.8736C117.802 54.282 117.06 54.5508 116.142 54.6802C115.229 54.8163 114.113 54.8844 112.793 54.8844ZM118.03 48.7176C118.03 47.7443 117.979 46.9649 117.877 46.3796C117.782 45.7942 117.568 45.3552 117.234 45.0625C116.9 44.763 116.38 44.5622 115.672 44.4601C114.971 44.358 114.011 44.307 112.793 44.307C111.581 44.307 110.621 44.358 109.914 44.4601C109.206 44.5622 108.685 44.763 108.351 45.0625C108.018 45.3552 107.8 45.7942 107.698 46.3796C107.603 46.9649 107.555 47.7443 107.555 48.7176C107.555 49.725 107.603 50.5316 107.698 51.1373C107.8 51.7431 108.018 52.1992 108.351 52.5055C108.685 52.805 109.206 53.0057 109.914 53.1078C110.621 53.2031 111.581 53.2508 112.793 53.2508C114.011 53.2508 114.971 53.2031 115.672 53.1078C116.38 53.0057 116.9 52.805 117.234 52.5055C117.568 52.1992 117.782 51.7431 117.877 51.1373C117.979 50.5316 118.03 49.725 118.03 48.7176Z" fill="white"/>
<path d="M122.482 54.6597V42.898H124.442V44.5214C124.66 44.1742 124.878 43.885 125.096 43.6535C125.32 43.4221 125.609 43.2383 125.963 43.1022C126.324 42.9661 126.811 42.8708 127.423 42.8163C128.036 42.7551 128.843 42.7244 129.843 42.7244V44.3682C128.495 44.3682 127.451 44.4159 126.709 44.5112C125.974 44.6065 125.446 44.7698 125.126 45.0012C124.806 45.2258 124.612 45.5389 124.544 45.9405C124.476 46.3421 124.442 46.8526 124.442 47.472V54.6597H122.482Z" fill="white"/>
<path d="M144.821 48.7176C144.821 47.7443 144.77 46.9649 144.668 46.3796C144.573 45.7942 144.358 45.3552 144.025 45.0625C143.691 44.763 143.17 44.5622 142.463 44.4601C141.761 44.358 140.802 44.307 139.583 44.307C138.474 44.307 137.575 44.358 136.888 44.4601C136.2 44.5622 135.673 44.763 135.305 45.0625C134.938 45.3552 134.686 45.7942 134.55 46.3796C134.414 46.9649 134.346 47.7443 134.346 48.7176C134.346 49.725 134.414 50.5316 134.55 51.1373C134.686 51.7431 134.938 52.1992 135.305 52.5055C135.673 52.805 136.2 53.0057 136.888 53.1078C137.575 53.2031 138.474 53.2508 139.583 53.2508C140.802 53.2508 141.761 53.2031 142.463 53.1078C143.17 53.0057 143.691 52.805 144.025 52.5055C144.358 52.1992 144.573 51.7431 144.668 51.1373C144.77 50.5316 144.821 49.725 144.821 48.7176ZM132.385 58.5803V42.898H134.346V44.2355C134.843 43.5753 135.523 43.1498 136.388 42.9593C137.259 42.7687 138.324 42.6734 139.583 42.6734C140.904 42.6734 142.02 42.7415 142.932 42.8776C143.851 43.0137 144.593 43.286 145.158 43.6944C145.723 44.1028 146.135 44.7086 146.393 45.5117C146.652 46.3149 146.781 47.3835 146.781 48.7176C146.781 50.0925 146.652 51.1918 146.393 52.0154C146.135 52.839 145.723 53.4584 145.158 53.8736C144.593 54.282 143.851 54.5508 142.932 54.6802C142.02 54.8163 140.904 54.8844 139.583 54.8844C138.324 54.8844 137.259 54.7891 136.388 54.5985C135.523 54.4079 134.843 53.9791 134.346 53.312V58.5803H132.385Z" fill="white"/>
<path d="M155.939 54.8844C154.626 54.8844 153.51 54.8163 152.591 54.6802C151.672 54.5508 150.93 54.282 150.365 53.8736C149.8 53.4584 149.388 52.839 149.13 52.0154C148.871 51.1918 148.742 50.0925 148.742 48.7176C148.742 47.3835 148.871 46.3149 149.13 45.5117C149.388 44.7086 149.8 44.1028 150.365 43.6944C150.93 43.286 151.672 43.0137 152.591 42.8776C153.51 42.7415 154.626 42.6734 155.939 42.6734C157.26 42.6734 158.376 42.7415 159.288 42.8776C160.207 43.0137 160.949 43.286 161.514 43.6944C162.079 44.1028 162.491 44.7086 162.749 45.5117C163.008 46.3149 163.137 47.3835 163.137 48.7176C163.137 50.0925 163.008 51.1918 162.749 52.0154C162.491 52.839 162.079 53.4584 161.514 53.8736C160.949 54.282 160.207 54.5508 159.288 54.6802C158.376 54.8163 157.26 54.8844 155.939 54.8844ZM161.177 48.7176C161.177 47.7443 161.126 46.9649 161.024 46.3796C160.929 45.7942 160.714 45.3552 160.381 45.0625C160.047 44.763 159.527 44.5622 158.819 44.4601C158.118 44.358 157.158 44.307 155.939 44.307C154.728 44.307 153.768 44.358 153.06 44.4601C152.352 44.5622 151.832 44.763 151.498 45.0625C151.165 45.3552 150.947 45.7942 150.845 46.3796C150.749 46.9649 150.702 47.7443 150.702 48.7176C150.702 49.725 150.749 50.5316 150.845 51.1373C150.947 51.7431 151.165 52.1992 151.498 52.5055C151.832 52.805 152.352 53.0057 153.06 53.1078C153.768 53.2031 154.728 53.2508 155.939 53.2508C157.158 53.2508 158.118 53.2031 158.819 53.1078C159.527 53.0057 160.047 52.805 160.381 52.5055C160.714 52.1992 160.929 51.7431 161.024 51.1373C161.126 50.5316 161.177 49.725 161.177 48.7176Z" fill="white"/>
<path d="M165.629 54.6597V42.898H167.589V44.5214C167.807 44.1742 168.025 43.885 168.242 43.6535C168.467 43.4221 168.756 43.2383 169.11 43.1022C169.471 42.9661 169.958 42.8708 170.57 42.8163C171.183 42.7551 171.989 42.7244 172.99 42.7244V44.3682C171.642 44.3682 170.597 44.4159 169.855 44.5112C169.12 44.6065 168.593 44.7698 168.273 45.0012C167.953 45.2258 167.759 45.5389 167.691 45.9405C167.623 46.3421 167.589 46.8526 167.589 47.472V54.6597H165.629Z" fill="white"/>
<path d="M181.699 54.8844C180.29 54.8844 179.126 54.8095 178.207 54.6597C177.295 54.5168 176.614 54.1969 176.165 53.7C175.723 53.2031 175.502 52.4306 175.502 51.3824C175.502 50.3138 175.709 49.531 176.124 49.0341C176.546 48.5304 177.21 48.2037 178.115 48.054C179.027 47.9042 180.222 47.8294 181.699 47.8294C182.897 47.8294 183.901 47.8566 184.711 47.911C185.521 47.9655 186.246 48.0608 186.885 48.1969C186.872 47.2916 186.811 46.5804 186.702 46.0631C186.593 45.539 186.389 45.151 186.089 44.8991C185.79 44.6473 185.351 44.4873 184.772 44.4193C184.2 44.3444 183.438 44.307 182.485 44.307C181.396 44.307 180.542 44.3308 179.922 44.3784C179.31 44.4261 178.864 44.5112 178.585 44.6337C178.306 44.7562 178.129 44.9332 178.054 45.1646C177.986 45.396 177.952 45.6955 177.952 46.0631H175.992C175.992 45.3279 176.09 44.7358 176.288 44.2865C176.492 43.8373 176.836 43.497 177.319 43.2656C177.802 43.0341 178.462 42.8776 179.3 42.7959C180.144 42.7142 181.205 42.6734 182.485 42.6734C183.86 42.6734 184.966 42.7619 185.803 42.9388C186.647 43.1158 187.287 43.4357 187.723 43.8986C188.165 44.3546 188.461 44.9944 188.611 45.818C188.767 46.6416 188.846 47.7034 188.846 49.0035V54.6597H186.885V53.8532C186.654 54.0982 186.334 54.2956 185.926 54.4453C185.517 54.5951 184.973 54.704 184.292 54.772C183.618 54.8469 182.754 54.8844 181.699 54.8844ZM181.699 53.2916C182.863 53.2916 183.792 53.278 184.486 53.2508C185.18 53.2236 185.698 53.1487 186.038 53.0262C186.385 52.9036 186.613 52.7063 186.722 52.434C186.831 52.1617 186.885 51.7806 186.885 51.2905V49.4833L181.699 49.4221C180.78 49.4085 180.038 49.4221 179.473 49.4629C178.915 49.497 178.49 49.5786 178.197 49.708C177.904 49.8305 177.707 50.0279 177.605 50.3001C177.509 50.5656 177.462 50.9263 177.462 51.3824C177.462 51.8248 177.509 52.1753 177.605 52.434C177.707 52.6926 177.904 52.8832 178.197 53.0057C178.49 53.1283 178.915 53.2065 179.473 53.2406C180.038 53.2746 180.78 53.2916 181.699 53.2916Z" fill="white"/>
<path d="M196.86 54.6597C195.663 54.6597 194.703 54.5406 193.981 54.3024C193.26 54.0574 192.736 53.6285 192.409 53.016C192.089 52.3966 191.929 51.5287 191.929 50.4124V39.6819H193.889V42.898H201.128V44.5112H193.889V50.4124C193.889 51.1748 193.957 51.7431 194.094 52.1175C194.237 52.4918 194.519 52.7369 194.941 52.8526C195.37 52.9683 196.01 53.0262 196.86 53.0262C197.616 53.0262 198.208 53.0023 198.637 52.9547C199.073 52.9071 199.393 52.7811 199.597 52.5769C199.801 52.3659 199.93 52.0222 199.985 51.5457C200.039 51.0693 200.066 50.3988 200.066 49.5344H201.802C201.802 50.6643 201.731 51.5696 201.588 52.2502C201.452 52.9309 201.203 53.4448 200.842 53.7919C200.488 54.139 199.988 54.3705 199.341 54.4862C198.702 54.6019 197.875 54.6597 196.86 54.6597Z" fill="white"/>
<path d="M217.484 51.168C217.484 52.046 217.352 52.7369 217.086 53.2406C216.828 53.7443 216.429 54.1118 215.892 54.3432C215.354 54.5747 214.666 54.721 213.829 54.7823C212.999 54.8503 212.008 54.8844 210.858 54.8844C209.545 54.8844 208.428 54.8163 207.509 54.6802C206.597 54.5508 205.859 54.282 205.294 53.8736C204.736 53.4584 204.327 52.839 204.069 52.0154C203.817 51.1918 203.691 50.0925 203.691 48.7176C203.691 47.3835 203.813 46.3149 204.058 45.5117C204.31 44.7086 204.715 44.1028 205.273 43.6944C205.832 43.286 206.563 43.0137 207.469 42.8776C208.381 42.7415 209.493 42.6734 210.807 42.6734C212.311 42.6734 213.557 42.7789 214.544 42.9899C215.531 43.2009 216.266 43.6025 216.749 44.1947C217.239 44.7868 217.484 45.6547 217.484 46.7982V49.32H205.661C205.668 50.1912 205.729 50.8889 205.845 51.413C205.961 51.9371 206.192 52.3319 206.539 52.5974C206.887 52.8628 207.404 53.0398 208.091 53.1283C208.786 53.2099 209.708 53.2508 210.858 53.2508C211.893 53.2508 212.727 53.2304 213.36 53.1895C213.999 53.1487 214.483 53.0602 214.809 52.9241C215.143 52.7811 215.368 52.5701 215.483 52.2911C215.599 52.012 215.657 51.6376 215.657 51.168H217.484ZM210.807 44.307C209.698 44.307 208.803 44.3478 208.122 44.4295C207.448 44.5112 206.934 44.6711 206.58 44.9093C206.226 45.1408 205.985 45.4879 205.855 45.9507C205.733 46.4136 205.668 47.0228 205.661 47.7783H215.606V46.7982C215.606 46.3081 215.548 45.9031 215.432 45.5832C215.323 45.2565 215.105 45.0012 214.779 44.8175C214.452 44.6269 213.969 44.4941 213.329 44.4193C212.696 44.3444 211.855 44.307 210.807 44.307Z" fill="white"/>
<path d="M226.898 54.8844C225.584 54.8844 224.468 54.8163 223.549 54.6802C222.63 54.5508 221.888 54.282 221.323 53.8736C220.758 53.4584 220.347 52.839 220.088 52.0154C219.829 51.1918 219.7 50.0925 219.7 48.7176C219.7 47.3835 219.829 46.3149 220.088 45.5117C220.347 44.7086 220.758 44.1028 221.323 43.6944C221.888 43.286 222.63 43.0137 223.549 42.8776C224.468 42.7415 225.584 42.6734 226.898 42.6734C228.157 42.6734 229.219 42.7687 230.083 42.9593C230.955 43.1498 231.639 43.5753 232.135 44.2355V38.9774H234.096V54.6597H232.135V53.312C231.639 53.9791 230.955 54.4079 230.083 54.5985C229.219 54.7891 228.157 54.8844 226.898 54.8844ZM232.135 48.7176C232.135 47.7443 232.067 46.9649 231.931 46.3796C231.795 45.7942 231.543 45.3552 231.176 45.0625C230.808 44.763 230.281 44.5622 229.593 44.4601C228.906 44.358 228.007 44.307 226.898 44.307C225.686 44.307 224.727 44.358 224.019 44.4601C223.311 44.5622 222.79 44.763 222.457 45.0625C222.123 45.3552 221.905 45.7942 221.803 46.3796C221.708 46.9649 221.66 47.7443 221.66 48.7176C221.66 49.725 221.708 50.5316 221.803 51.1373C221.905 51.7431 222.123 52.1992 222.457 52.5055C222.79 52.805 223.311 53.0057 224.019 53.1078C224.727 53.2031 225.686 53.2508 226.898 53.2508C228.007 53.2508 228.906 53.2031 229.593 53.1078C230.281 53.0057 230.808 52.805 231.176 52.5055C231.543 52.1992 231.795 51.7431 231.931 51.1373C232.067 50.5316 232.135 49.725 232.135 48.7176Z" fill="white"/>
<path d="M243.346 54.6597V38.9774H245.306V53.0262H257.721V54.6597H243.346Z" fill="white"/>
<path d="M265.123 54.6597C263.925 54.6597 262.966 54.5406 262.244 54.3024C261.523 54.0574 260.999 53.6285 260.672 53.016C260.352 52.3966 260.192 51.5287 260.192 50.4124V39.6819H262.152V42.898H269.391V44.5112H262.152V50.4124C262.152 51.1748 262.22 51.7431 262.357 52.1175C262.5 52.4918 262.782 52.7369 263.204 52.8526C263.633 52.9683 264.273 53.0262 265.123 53.0262C265.879 53.0262 266.471 53.0023 266.9 52.9547C267.336 52.9071 267.655 52.7811 267.86 52.5769C268.064 52.3659 268.193 52.0222 268.248 51.5457C268.302 51.0693 268.329 50.3988 268.329 49.5344H270.065C270.065 50.6643 269.994 51.5696 269.851 52.2502C269.714 52.9309 269.466 53.4448 269.105 53.7919C268.751 54.139 268.251 54.3705 267.604 54.4862C266.965 54.6019 266.138 54.6597 265.123 54.6597Z" fill="white"/>
<path d="M279.152 54.8844C277.838 54.8844 276.722 54.8163 275.803 54.6802C274.884 54.5508 274.142 54.282 273.577 53.8736C273.012 53.4584 272.6 52.839 272.342 52.0154C272.083 51.1918 271.954 50.0925 271.954 48.7176C271.954 47.3835 272.083 46.3149 272.342 45.5117C272.6 44.7086 273.012 44.1028 273.577 43.6944C274.142 43.286 274.884 43.0137 275.803 42.8776C276.722 42.7415 277.838 42.6734 279.152 42.6734C280.411 42.6734 281.473 42.7687 282.337 42.9593C283.208 43.1498 283.893 43.5753 284.389 44.2355V38.9774H286.35V54.6597H284.389V53.312C283.893 53.9791 283.208 54.4079 282.337 54.5985C281.473 54.7891 280.411 54.8844 279.152 54.8844ZM284.389 48.7176C284.389 47.7443 284.321 46.9649 284.185 46.3796C284.049 45.7942 283.797 45.3552 283.43 45.0625C283.062 44.763 282.535 44.5622 281.847 44.4601C281.16 44.358 280.261 44.307 279.152 44.307C277.94 44.307 276.98 44.358 276.273 44.4601C275.565 44.5622 275.044 44.763 274.71 45.0625C274.377 45.3552 274.159 45.7942 274.057 46.3796C273.962 46.9649 273.914 47.7443 273.914 48.7176C273.914 49.725 273.962 50.5316 274.057 51.1373C274.159 51.7431 274.377 52.1992 274.71 52.5055C275.044 52.805 275.565 53.0057 276.273 53.1078C276.98 53.2031 277.94 53.2508 279.152 53.2508C280.261 53.2508 281.16 53.2031 281.847 53.1078C282.535 53.0057 283.062 52.805 283.43 52.5055C283.797 52.1992 284.049 51.7431 284.185 51.1373C284.321 50.5316 284.389 49.725 284.389 48.7176Z" fill="white"/>
<path d="M289.004 54.6597V52.6995H290.965V54.6597H289.004Z" fill="white"/>
</svg>
