<svg width="291" height="65" viewBox="0 0 291 65" fill="none" xmlns="http://www.w3.org/2000/svg">
<path d="M277.18 36.0331C278.831 34.2297 278.628 33.6986 277.015 32.2228L267.785 23.775L272.358 18.7781L281.588 27.226C286.164 31.4131 286.519 35.4668 281.981 40.4261L266.542 57.2952C262.003 62.2545 257.934 62.2584 253.359 58.0713L226.627 33.6062L231.2 28.6093L257.932 53.0744C259.544 54.5502 260.091 54.7056 261.742 52.9022L277.18 36.0331Z" fill="white"/>
<path d="M265.504 43.9864L260.931 48.9833L234.53 24.8216L250.164 7.73951C254.702 2.78021 259.947 2.47108 264.41 6.55522L265.76 7.79077C270.372 12.0122 271.634 15.678 266.752 21.013L262.198 25.989L257.435 21.6303L261.989 16.6543C263.983 14.4752 262.983 14.3631 261.221 12.7501L259.833 11.4802C258.296 10.0731 256.577 10.2948 254.926 12.0982L243.866 24.1834L265.504 43.9864Z" fill="white"/>
<path d="M256.597 22.6685L272.467 37.1926L267.894 42.1895L252.024 27.6653L256.597 22.6685Z" fill="white"/>
<path d="M252.483 18.9036L254.856 21.0755L250.283 26.0723L247.91 23.9005L252.483 18.9036Z" fill="white"/>
<path d="M26.5606 35.088C28.5679 35.088 28.777 34.6698 28.777 32.8716V11H34.339V32.8716C34.339 37.9736 32.0808 40.4409 26.5606 40.4409H7.78365C2.26348 40.4409 0.00522757 37.9736 0.00522757 32.8716V11H5.56722V32.8716C5.56722 34.6698 5.77632 35.088 7.78365 35.088H26.5606Z" fill="white"/>
<path d="M43.9591 40.4409H38.3971V11H65.8307C71.3509 11 74.4455 14.011 74.4455 18.9875V20.493C74.4455 25.6368 71.7691 28.4387 65.8307 28.4387H46.2592V23.1277H65.8307C68.2563 23.1277 68.9254 22.4585 68.9254 20.493V18.9457C68.9254 17.2311 67.8381 16.3111 65.8307 16.3111H43.9591V40.4409Z" fill="white"/>
<path d="M107.701 11V16.2274H94.152V40.4409H88.6318V16.2274H75.2078V11H107.701Z" fill="white"/>
<path d="M144.239 35.088V40.4409H117.516C111.996 40.4409 109.738 37.9736 109.738 32.8716V18.4857C109.738 13.4674 112.121 11 117.516 11H144.239V16.2274H117.516C116.052 16.2274 115.3 17.0638 115.3 18.4857V22.0822H144.239V27.5187H115.3V32.8716C115.3 34.6698 115.509 35.088 117.516 35.088H144.239Z" fill="white"/>
<path d="M178.759 35.088V40.4409H155.047C149.527 40.4409 147.269 37.9736 147.269 32.8716V18.4857C147.269 13.4674 149.653 11 155.047 11H178.759V16.2274H155.047C153.584 16.2274 152.831 17.0638 152.831 18.4857V32.8716C152.831 34.6698 153.04 35.088 155.047 35.088H178.759Z" fill="white"/>
<path d="M187.836 11V23.0022H211.046V11H216.566V40.4409H211.046V28.4387H187.836V40.4409H182.274V11H187.836Z" fill="white"/>
<path d="M0 59.9567V44.2744H1.96029V59.9567H0Z" fill="white"/>
<path d="M5.26827 59.9567V48.1949H7.22856V49.757C7.52124 49.3623 7.88199 49.0321 8.3108 48.7667C8.74642 48.5012 9.32498 48.3038 10.0465 48.1745C10.7748 48.0384 11.7277 47.9703 12.9052 47.9703C14.4435 47.9703 15.6551 48.1201 16.5399 48.4196C17.4316 48.719 18.0646 49.2534 18.439 50.0225C18.8133 50.7916 19.0005 51.8807 19.0005 53.2896V59.9567H17.03V53.2896C17.03 52.4865 16.9619 51.8399 16.8258 51.3498C16.6897 50.8597 16.4548 50.4888 16.1213 50.2369C15.7946 49.9851 15.342 49.8183 14.7634 49.7366C14.1849 49.6481 13.4498 49.6039 12.5581 49.6039C11.1968 49.6039 10.1282 49.7162 9.35221 49.9408C8.57626 50.1654 8.02833 50.5194 7.70842 51.0026C7.38852 51.4791 7.22856 52.1019 7.22856 52.871V59.9567H5.26827Z" fill="white"/>
<path d="M28.4548 60.1813C27.1411 60.1813 26.0249 60.1132 25.106 59.9771C24.1871 59.8478 23.4452 59.5789 22.8802 59.1705C22.3153 58.7553 21.9035 58.1359 21.6448 57.3123C21.3862 56.4887 21.2569 55.3895 21.2569 54.0145C21.2569 52.6805 21.3862 51.6118 21.6448 50.8087C21.9035 50.0055 22.3153 49.3997 22.8802 48.9913C23.4452 48.5829 24.1871 48.3107 25.106 48.1745C26.0249 48.0384 27.1411 47.9703 28.4548 47.9703C30.0271 47.9703 31.3204 48.0622 32.3345 48.246C33.3555 48.423 34.1111 48.7905 34.6011 49.3487C35.0912 49.9068 35.3362 50.7576 35.3362 51.9011H33.4576C33.4576 51.2409 33.3215 50.7474 33.0492 50.4207C32.777 50.094 32.2801 49.8762 31.5586 49.7673C30.8371 49.6584 29.8025 49.6039 28.4548 49.6039C27.2432 49.6039 26.2835 49.655 25.5756 49.757C24.8678 49.8591 24.3471 50.0599 24.0135 50.3594C23.68 50.6521 23.4622 51.0911 23.3601 51.6765C23.2648 52.2619 23.2172 53.0412 23.2172 54.0145C23.2172 55.0219 23.2648 55.8285 23.3601 56.4343C23.4622 57.0401 23.68 57.4961 24.0135 57.8024C24.3471 58.1019 24.8678 58.3027 25.5756 58.4048C26.2835 58.5001 27.2432 58.5477 28.4548 58.5477C29.4826 58.5477 30.3232 58.5205 30.9766 58.466C31.6301 58.4048 32.1372 58.2891 32.4979 58.1189C32.8586 57.9419 33.1071 57.6901 33.2432 57.3634C33.3862 57.0299 33.4576 56.5874 33.4576 56.0361H35.3362C35.3362 56.9482 35.2001 57.6799 34.9278 58.2312C34.6556 58.7825 34.2404 59.1977 33.6822 59.4768C33.1241 59.7559 32.4094 59.9431 31.5382 60.0384C30.6737 60.1336 29.646 60.1813 28.4548 60.1813Z" fill="white"/>
<path d="M44.5047 60.1813C43.191 60.1813 42.0747 60.1132 41.1558 59.9771C40.237 59.8478 39.495 59.5789 38.9301 59.1705C38.3652 58.7553 37.9534 58.1359 37.6947 57.3123C37.4361 56.4887 37.3067 55.3895 37.3067 54.0145C37.3067 52.6805 37.4361 51.6118 37.6947 50.8087C37.9534 50.0055 38.3652 49.3997 38.9301 48.9913C39.495 48.5829 40.237 48.3107 41.1558 48.1745C42.0747 48.0384 43.191 47.9703 44.5047 47.9703C45.8251 47.9703 46.9414 48.0384 47.8535 48.1745C48.7724 48.3107 49.5143 48.5829 50.0792 48.9913C50.6442 49.3997 51.056 50.0055 51.3146 50.8087C51.5733 51.6118 51.7026 52.6805 51.7026 54.0145C51.7026 55.3895 51.5733 56.4887 51.3146 57.3123C51.056 58.1359 50.6442 58.7553 50.0792 59.1705C49.5143 59.5789 48.7724 59.8478 47.8535 59.9771C46.9414 60.1132 45.8251 60.1813 44.5047 60.1813ZM49.7423 54.0145C49.7423 53.0412 49.6913 52.2619 49.5892 51.6765C49.4939 51.0911 49.2795 50.6521 48.9459 50.3594C48.6124 50.0599 48.0917 49.8591 47.3838 49.757C46.6828 49.655 45.723 49.6039 44.5047 49.6039C43.2931 49.6039 42.3334 49.655 41.6255 49.757C40.9176 49.8591 40.3969 50.0599 40.0634 50.3594C39.7299 50.6521 39.5121 51.0911 39.41 51.6765C39.3147 52.2619 39.267 53.0412 39.267 54.0145C39.267 55.0219 39.3147 55.8285 39.41 56.4343C39.5121 57.0401 39.7299 57.4961 40.0634 57.8024C40.3969 58.1019 40.9176 58.3027 41.6255 58.4048C42.3334 58.5001 43.2931 58.5477 44.5047 58.5477C45.723 58.5477 46.6828 58.5001 47.3838 58.4048C48.0917 58.3027 48.6124 58.1019 48.9459 57.8024C49.2795 57.4961 49.4939 57.0401 49.5892 56.4343C49.6913 55.8285 49.7423 55.0219 49.7423 54.0145Z" fill="white"/>
<path d="M54.1938 59.9567V48.1949H56.1541V49.8183C56.3719 49.4712 56.5897 49.1819 56.8075 48.9505C57.0321 48.719 57.3214 48.5353 57.6754 48.3991C58.0361 48.263 58.5228 48.1677 59.1354 48.1133C59.748 48.052 60.5545 48.0214 61.5551 48.0214V49.6652C60.2074 49.6652 59.1626 49.7128 58.4207 49.8081C57.6856 49.9034 57.1581 50.0667 56.8381 50.2982C56.5182 50.5228 56.3243 50.8359 56.2562 51.2375C56.1881 51.6391 56.1541 52.1496 56.1541 52.7689V59.9567H54.1938Z" fill="white"/>
<path d="M76.5329 54.0145C76.5329 53.0412 76.4819 52.2619 76.3798 51.6765C76.2845 51.0911 76.0701 50.6521 75.7365 50.3594C75.403 50.0599 74.8823 49.8591 74.1744 49.757C73.4734 49.655 72.5136 49.6039 71.2953 49.6039C70.1858 49.6039 69.2873 49.655 68.5999 49.757C67.9124 49.8591 67.3849 50.0599 67.0173 50.3594C66.6498 50.6521 66.398 51.0911 66.2618 51.6765C66.1257 52.2619 66.0576 53.0412 66.0576 54.0145C66.0576 55.0219 66.1257 55.8285 66.2618 56.4343C66.398 57.0401 66.6498 57.4961 67.0173 57.8024C67.3849 58.1019 67.9124 58.3027 68.5999 58.4048C69.2873 58.5001 70.1858 58.5477 71.2953 58.5477C72.5136 58.5477 73.4734 58.5001 74.1744 58.4048C74.8823 58.3027 75.403 58.1019 75.7365 57.8024C76.0701 57.4961 76.2845 57.0401 76.3798 56.4343C76.4819 55.8285 76.5329 55.0219 76.5329 54.0145ZM64.0973 63.8773V48.1949H66.0576V49.5324C66.5545 48.8722 67.2352 48.4468 68.0996 48.2562C68.9708 48.0656 70.0361 47.9703 71.2953 47.9703C72.6157 47.9703 73.732 48.0384 74.6441 48.1745C75.563 48.3107 76.3049 48.5829 76.8698 48.9913C77.4348 49.3997 77.8466 50.0055 78.1052 50.8087C78.3639 51.6118 78.4932 52.6805 78.4932 54.0145C78.4932 55.3895 78.3639 56.4887 78.1052 57.3123C77.8466 58.1359 77.4348 58.7553 76.8698 59.1705C76.3049 59.5789 75.563 59.8478 74.6441 59.9771C73.732 60.1132 72.6157 60.1813 71.2953 60.1813C70.0361 60.1813 68.9708 60.086 68.0996 59.8954C67.2352 59.7048 66.5545 59.276 66.0576 58.609V63.8773H64.0973Z" fill="white"/>
<path d="M87.6514 60.1813C86.3378 60.1813 85.2215 60.1132 84.3026 59.9771C83.3837 59.8478 82.6418 59.5789 82.0769 59.1705C81.5119 58.7553 81.1001 58.1359 80.8415 57.3123C80.5828 56.4887 80.4535 55.3895 80.4535 54.0145C80.4535 52.6805 80.5828 51.6118 80.8415 50.8087C81.1001 50.0055 81.5119 49.3997 82.0769 48.9913C82.6418 48.5829 83.3837 48.3107 84.3026 48.1745C85.2215 48.0384 86.3378 47.9703 87.6514 47.9703C88.9719 47.9703 90.0882 48.0384 91.0003 48.1745C91.9191 48.3107 92.6611 48.5829 93.226 48.9913C93.7909 49.3997 94.2027 50.0055 94.4614 50.8087C94.72 51.6118 94.8494 52.6805 94.8494 54.0145C94.8494 55.3895 94.72 56.4887 94.4614 57.3123C94.2027 58.1359 93.7909 58.7553 93.226 59.1705C92.6611 59.5789 91.9191 59.8478 91.0003 59.9771C90.0882 60.1132 88.9719 60.1813 87.6514 60.1813ZM92.8891 54.0145C92.8891 53.0412 92.838 52.2619 92.7359 51.6765C92.6406 51.0911 92.4262 50.6521 92.0927 50.3594C91.7592 50.0599 91.2385 49.8591 90.5306 49.757C89.8295 49.655 88.8698 49.6039 87.6514 49.6039C86.4399 49.6039 85.4801 49.655 84.7723 49.757C84.0644 49.8591 83.5437 50.0599 83.2102 50.3594C82.8766 50.6521 82.6588 51.0911 82.5567 51.6765C82.4614 52.2619 82.4138 53.0412 82.4138 54.0145C82.4138 55.0219 82.4614 55.8285 82.5567 56.4343C82.6588 57.0401 82.8766 57.4961 83.2102 57.8024C83.5437 58.1019 84.0644 58.3027 84.7723 58.4048C85.4801 58.5001 86.4399 58.5477 87.6514 58.5477C88.8698 58.5477 89.8295 58.5001 90.5306 58.4048C91.2385 58.3027 91.7592 58.1019 92.0927 57.8024C92.4262 57.4961 92.6406 57.0401 92.7359 56.4343C92.838 55.8285 92.8891 55.0219 92.8891 54.0145Z" fill="white"/>
<path d="M97.3406 59.9567V48.1949H99.3008V49.8183C99.5187 49.4712 99.7365 49.1819 99.9543 48.9505C100.179 48.719 100.468 48.5353 100.822 48.3991C101.183 48.263 101.67 48.1677 102.282 48.1133C102.895 48.052 103.701 48.0214 104.702 48.0214V49.6652C103.354 49.6652 102.309 49.7128 101.567 49.8081C100.832 49.9034 100.305 50.0667 99.9849 50.2982C99.665 50.5228 99.471 50.8359 99.4029 51.2375C99.3349 51.6391 99.3008 52.1496 99.3008 52.7689V59.9567H97.3406Z" fill="white"/>
<path d="M113.411 60.1813C112.002 60.1813 110.838 60.1064 109.919 59.9567C109.007 59.8137 108.326 59.4938 107.877 58.9969C107.435 58.5001 107.213 57.7275 107.213 56.6793C107.213 55.6107 107.421 54.8279 107.836 54.3311C108.258 53.8274 108.922 53.5007 109.827 53.3509C110.739 53.2012 111.934 53.1263 113.411 53.1263C114.609 53.1263 115.613 53.1535 116.423 53.208C117.233 53.2624 117.958 53.3577 118.597 53.4938C118.584 52.5886 118.523 51.8773 118.414 51.36C118.305 50.8359 118.101 50.4479 117.801 50.1961C117.502 49.9442 117.063 49.7843 116.484 49.7162C115.912 49.6413 115.15 49.6039 114.197 49.6039C113.108 49.6039 112.254 49.6277 111.634 49.6754C111.022 49.723 110.576 49.8081 110.297 49.9306C110.018 50.0531 109.841 50.2301 109.766 50.4615C109.698 50.6929 109.664 50.9924 109.664 51.36H107.704C107.704 50.6249 107.802 50.0327 108 49.5835C108.204 49.1342 108.548 48.7939 109.031 48.5625C109.514 48.3311 110.174 48.1745 111.012 48.0928C111.856 48.0112 112.917 47.9703 114.197 47.9703C115.572 47.9703 116.678 48.0588 117.515 48.2358C118.359 48.4128 118.999 48.7327 119.435 49.1955C119.877 49.6515 120.173 50.2914 120.323 51.115C120.479 51.9385 120.558 53.0004 120.558 54.3004V59.9567H118.597V59.1501C118.366 59.3951 118.046 59.5925 117.638 59.7423C117.229 59.892 116.685 60.0009 116.004 60.069C115.33 60.1439 114.466 60.1813 113.411 60.1813ZM113.411 58.5886C114.575 58.5886 115.504 58.5749 116.198 58.5477C116.892 58.5205 117.41 58.4456 117.75 58.3231C118.097 58.2006 118.325 58.0032 118.434 57.7309C118.543 57.4587 118.597 57.0775 118.597 56.5874V54.7803L113.411 54.719C112.492 54.7054 111.75 54.719 111.185 54.7599C110.627 54.7939 110.202 54.8756 109.909 55.0049C109.616 55.1274 109.419 55.3248 109.317 55.5971C109.221 55.8625 109.174 56.2233 109.174 56.6793C109.174 57.1217 109.221 57.4723 109.317 57.7309C109.419 57.9896 109.616 58.1802 109.909 58.3027C110.202 58.4252 110.627 58.5035 111.185 58.5375C111.75 58.5715 112.492 58.5886 113.411 58.5886Z" fill="white"/>
<path d="M128.572 59.9567C127.374 59.9567 126.415 59.8376 125.693 59.5993C124.972 59.3543 124.448 58.9255 124.121 58.3129C123.801 57.6935 123.641 56.8257 123.641 55.7094V44.9788H125.601V48.1949H132.84V49.8081H125.601V55.7094C125.601 56.4717 125.669 57.0401 125.806 57.4144C125.949 57.7888 126.231 58.0338 126.653 58.1495C127.082 58.2652 127.722 58.3231 128.572 58.3231C129.328 58.3231 129.92 58.2993 130.349 58.2516C130.785 58.204 131.104 58.0781 131.309 57.8739C131.513 57.6629 131.642 57.3191 131.697 56.8427C131.751 56.3662 131.778 55.6958 131.778 54.8313H133.514C133.514 55.9612 133.443 56.8665 133.3 57.5472C133.163 58.2278 132.915 58.7417 132.554 59.0888C132.2 59.436 131.7 59.6674 131.053 59.7831C130.414 59.8988 129.587 59.9567 128.572 59.9567Z" fill="white"/>
<path d="M149.196 56.4649C149.196 57.343 149.064 58.0338 148.798 58.5375C148.539 59.0412 148.141 59.4087 147.604 59.6402C147.066 59.8716 146.378 60.0179 145.541 60.0792C144.711 60.1473 143.72 60.1813 142.57 60.1813C141.256 60.1813 140.14 60.1132 139.221 59.9771C138.309 59.8478 137.571 59.5789 137.006 59.1705C136.448 58.7553 136.039 58.1359 135.781 57.3123C135.529 56.4887 135.403 55.3895 135.403 54.0145C135.403 52.6805 135.525 51.6118 135.77 50.8087C136.022 50.0055 136.427 49.3997 136.985 48.9913C137.543 48.5829 138.275 48.3107 139.18 48.1745C140.093 48.0384 141.205 47.9703 142.519 47.9703C144.023 47.9703 145.269 48.0758 146.256 48.2868C147.243 48.4978 147.978 48.8994 148.461 49.4916C148.951 50.0838 149.196 50.9516 149.196 52.0951V54.6169H137.373C137.38 55.4882 137.441 56.1858 137.557 56.7099C137.673 57.2341 137.904 57.6288 138.251 57.8943C138.598 58.1597 139.116 58.3367 139.803 58.4252C140.498 58.5069 141.42 58.5477 142.57 58.5477C143.605 58.5477 144.439 58.5273 145.072 58.4865C145.711 58.4456 146.195 58.3571 146.521 58.221C146.855 58.0781 147.079 57.8671 147.195 57.588C147.311 57.3089 147.369 56.9346 147.369 56.4649H149.196ZM142.519 49.6039C141.41 49.6039 140.515 49.6447 139.834 49.7264C139.16 49.8081 138.646 49.9681 138.292 50.2063C137.938 50.4377 137.697 50.7848 137.567 51.2477C137.445 51.7105 137.38 52.3197 137.373 53.0752H147.318V52.0951C147.318 51.605 147.26 51.2 147.144 50.8801C147.035 50.5534 146.817 50.2982 146.491 50.1144C146.164 49.9238 145.681 49.7911 145.041 49.7162C144.408 49.6413 143.567 49.6039 142.519 49.6039Z" fill="white"/>
<path d="M158.61 60.1813C157.296 60.1813 156.18 60.1132 155.261 59.9771C154.342 59.8478 153.6 59.5789 153.035 59.1705C152.47 58.7553 152.058 58.1359 151.8 57.3123C151.541 56.4887 151.412 55.3895 151.412 54.0145C151.412 52.6805 151.541 51.6118 151.8 50.8087C152.058 50.0055 152.47 49.3997 153.035 48.9913C153.6 48.5829 154.342 48.3107 155.261 48.1745C156.18 48.0384 157.296 47.9703 158.61 47.9703C159.869 47.9703 160.931 48.0656 161.795 48.2562C162.666 48.4468 163.351 48.8722 163.847 49.5324V44.2744H165.808V59.9567H163.847V58.609C163.351 59.276 162.666 59.7048 161.795 59.8954C160.931 60.086 159.869 60.1813 158.61 60.1813ZM163.847 54.0145C163.847 53.0412 163.779 52.2619 163.643 51.6765C163.507 51.0911 163.255 50.6521 162.888 50.3594C162.52 50.0599 161.993 49.8591 161.305 49.757C160.618 49.655 159.719 49.6039 158.61 49.6039C157.398 49.6039 156.438 49.655 155.731 49.757C155.023 49.8591 154.502 50.0599 154.168 50.3594C153.835 50.6521 153.617 51.0911 153.515 51.6765C153.42 52.2619 153.372 53.0412 153.372 54.0145C153.372 55.0219 153.42 55.8285 153.515 56.4343C153.617 57.0401 153.835 57.4961 154.168 57.8024C154.502 58.1019 155.023 58.3027 155.731 58.4048C156.438 58.5001 157.398 58.5477 158.61 58.5477C159.719 58.5477 160.618 58.5001 161.305 58.4048C161.993 58.3027 162.52 58.1019 162.888 57.8024C163.255 57.4961 163.507 57.0401 163.643 56.4343C163.779 55.8285 163.847 55.0219 163.847 54.0145Z" fill="white"/>
<path d="M175.058 59.9567V44.2744H177.018V58.3231H189.433V59.9567H175.058Z" fill="white"/>
<path d="M196.835 59.9567C195.637 59.9567 194.678 59.8376 193.956 59.5993C193.235 59.3543 192.711 58.9255 192.384 58.3129C192.064 57.6935 191.904 56.8257 191.904 55.7094V44.9788H193.864V48.1949H201.103V49.8081H193.864V55.7094C193.864 56.4717 193.932 57.0401 194.069 57.4144C194.211 57.7888 194.494 58.0338 194.916 58.1495C195.345 58.2652 195.985 58.3231 196.835 58.3231C197.591 58.3231 198.183 58.2993 198.612 58.2516C199.048 58.204 199.367 58.0781 199.572 57.8739C199.776 57.6629 199.905 57.3191 199.96 56.8427C200.014 56.3662 200.041 55.6958 200.041 54.8313H201.777C201.777 55.9612 201.705 56.8665 201.563 57.5472C201.426 58.2278 201.178 58.7417 200.817 59.0888C200.463 59.436 199.963 59.6674 199.316 59.7831C198.677 59.8988 197.85 59.9567 196.835 59.9567Z" fill="white"/>
<path d="M210.864 60.1813C209.55 60.1813 208.434 60.1132 207.515 59.9771C206.596 59.8478 205.854 59.5789 205.289 59.1705C204.724 58.7553 204.312 58.1359 204.054 57.3123C203.795 56.4887 203.666 55.3895 203.666 54.0145C203.666 52.6805 203.795 51.6118 204.054 50.8087C204.312 50.0055 204.724 49.3997 205.289 48.9913C205.854 48.5829 206.596 48.3107 207.515 48.1745C208.434 48.0384 209.55 47.9703 210.864 47.9703C212.123 47.9703 213.185 48.0656 214.049 48.2562C214.92 48.4468 215.604 48.8722 216.101 49.5324V44.2744H218.062V59.9567H216.101V58.609C215.604 59.276 214.92 59.7048 214.049 59.8954C213.185 60.086 212.123 60.1813 210.864 60.1813ZM216.101 54.0145C216.101 53.0412 216.033 52.2619 215.897 51.6765C215.761 51.0911 215.509 50.6521 215.142 50.3594C214.774 50.0599 214.247 49.8591 213.559 49.757C212.872 49.655 211.973 49.6039 210.864 49.6039C209.652 49.6039 208.692 49.655 207.985 49.757C207.277 49.8591 206.756 50.0599 206.422 50.3594C206.089 50.6521 205.871 51.0911 205.769 51.6765C205.674 52.2619 205.626 53.0412 205.626 54.0145C205.626 55.0219 205.674 55.8285 205.769 56.4343C205.871 57.0401 206.089 57.4961 206.422 57.8024C206.756 58.1019 207.277 58.3027 207.985 58.4048C208.692 58.5001 209.652 58.5477 210.864 58.5477C211.973 58.5477 212.872 58.5001 213.559 58.4048C214.247 58.3027 214.774 58.1019 215.142 57.8024C215.509 57.4961 215.761 57.0401 215.897 56.4343C216.033 55.8285 216.101 55.0219 216.101 54.0145Z" fill="white"/>
<path d="M220.716 59.9567V57.9964H222.676V59.9567H220.716Z" fill="white"/>
</svg>
