<svg width="679" height="645" viewBox="0 0 679 645" fill="none" xmlns="http://www.w3.org/2000/svg">
<g filter="url(#filter0_di_267_56)">
<rect width="655.72" height="616.77" rx="50" fill="#275EF2"/>
</g>
<path d="M87.3698 205V218.64H55.6898V237.12H86.1598V250.76H55.6898V282H41.2798V205H87.3698ZM134.508 283.43C127.322 283.43 120.685 281.67 114.598 278.15C108.512 274.557 103.672 269.717 100.078 263.63C96.5583 257.543 94.7983 250.907 94.7983 243.72C94.7983 236.533 96.5583 229.897 100.078 223.81C103.672 217.723 108.512 212.92 114.598 209.4C120.685 205.807 127.322 204.01 134.508 204.01C141.695 204.01 148.332 205.807 154.418 209.4C160.505 212.92 165.308 217.723 168.828 223.81C172.422 229.897 174.218 236.533 174.218 243.72C174.218 250.907 172.422 257.543 168.828 263.63C165.308 269.717 160.505 274.557 154.418 278.15C148.332 281.67 141.695 283.43 134.508 283.43ZM134.508 269.02C139.055 269.02 143.272 267.883 147.158 265.61C151.045 263.337 154.125 260.257 156.398 256.37C158.672 252.483 159.808 248.267 159.808 243.72C159.808 239.173 158.672 234.957 156.398 231.07C154.125 227.183 151.045 224.103 147.158 221.83C143.272 219.557 139.055 218.42 134.508 218.42C129.962 218.42 125.708 219.557 121.748 221.83C117.862 224.103 114.782 227.183 112.508 231.07C110.235 234.957 109.098 239.173 109.098 243.72C109.098 248.267 110.235 252.483 112.508 256.37C114.782 260.257 117.862 263.337 121.748 265.61C125.708 267.883 129.962 269.02 134.508 269.02ZM227.936 205H242.346V256.04C242.346 261.393 241.063 266.16 238.496 270.34C235.929 274.447 232.409 277.673 227.936 280.02C223.463 282.293 218.403 283.43 212.756 283.43C207.109 283.43 202.049 282.293 197.576 280.02C193.103 277.673 189.583 274.447 187.016 270.34C184.449 266.16 183.166 261.393 183.166 256.04V205H197.576V256.04C197.576 260 199.006 263.19 201.866 265.61C204.799 267.957 208.429 269.13 212.756 269.13C217.376 269.13 221.043 267.957 223.756 265.61C226.543 263.263 227.936 260.073 227.936 256.04V205ZM300.809 253.4V205H315.219V282H302.899L269.459 229.86V282H255.049V205H269.459L300.809 253.4ZM361.469 205C368.656 205 375.256 206.723 381.269 210.17C387.356 213.543 392.159 218.2 395.679 224.14C399.199 230.007 400.959 236.533 400.959 243.72C400.959 250.907 399.199 257.433 395.679 263.3C392.159 269.093 387.356 273.677 381.269 277.05C375.256 280.35 368.656 282 361.469 282H330.889V205H361.469ZM361.469 268.36C366.089 268.36 370.306 267.297 374.119 265.17C377.933 262.97 380.939 259.963 383.139 256.15C385.413 252.337 386.549 248.157 386.549 243.61C386.549 239.063 385.413 234.883 383.139 231.07C380.939 227.183 377.933 224.14 374.119 221.94C370.306 219.74 366.089 218.64 361.469 218.64H345.299V268.36H361.469ZM425.221 249.66V268.36H457.451V282H410.811V205H456.901V218.64H425.221V236.13H454.151V249.66H425.221ZM512.384 282L497.314 255.38H483.014V282H468.604V205H499.844C504.391 205 508.607 206.137 512.494 208.41C516.381 210.61 519.424 213.653 521.624 217.54C523.897 221.427 525.034 225.643 525.034 230.19C525.034 234.883 523.861 239.173 521.514 243.06C519.167 246.947 516.014 249.99 512.054 252.19L528.774 282H512.384ZM483.014 218.64V241.63H499.844C502.997 241.63 505.711 240.53 507.984 238.33C510.257 236.057 511.394 233.343 511.394 230.19C511.394 226.963 510.257 224.25 507.984 222.05C505.784 219.777 503.071 218.64 499.844 218.64H483.014ZM542.383 223.04C540.183 222.527 538.716 221.793 537.983 220.84C537.323 219.813 536.993 218.017 536.993 215.45C536.993 212.883 537.653 210.94 538.973 209.62C540.366 208.227 542.31 207.53 544.803 207.53C547.223 207.53 549.13 208.227 550.523 209.62C551.99 211.013 552.723 212.957 552.723 215.45C552.723 218.31 552.393 220.657 551.733 222.49C551.073 224.25 549.826 226.45 547.993 229.09L542.383 236.57L538.093 232.94L542.383 223.04ZM591.666 283.43C584.112 283.43 577.769 281.743 572.636 278.37C567.502 274.997 563.909 270.45 561.856 264.73L573.956 257.58C576.962 265.427 582.976 269.35 591.996 269.35C596.029 269.35 599.146 268.397 601.346 266.49C603.546 264.583 604.646 262.383 604.646 259.89C604.646 257.397 603.436 255.38 601.016 253.84C598.669 252.3 594.452 250.65 588.366 248.89C583.599 247.423 579.566 245.847 576.266 244.16C572.966 242.4 570.252 240.053 568.126 237.12C566.072 234.187 565.046 230.483 565.046 226.01C565.046 221.463 566.182 217.503 568.456 214.13C570.729 210.683 573.736 208.08 577.476 206.32C581.289 204.487 585.432 203.57 589.906 203.57C596.139 203.57 601.529 205.073 606.076 208.08C610.696 211.013 614.252 215.157 616.746 220.51L604.426 227.55C601.566 221.023 596.726 217.76 589.906 217.76C586.826 217.76 584.296 218.567 582.316 220.18C580.336 221.793 579.346 223.7 579.346 225.9C579.346 227.587 579.786 229.017 580.666 230.19C581.619 231.363 583.086 232.427 585.066 233.38C587.119 234.333 590.089 235.397 593.976 236.57C599.036 238.183 603.289 239.87 606.736 241.63C610.256 243.39 613.152 245.847 615.426 249C617.772 252.08 618.946 255.967 618.946 260.66C618.946 265.28 617.772 269.313 615.426 272.76C613.079 276.207 609.816 278.847 605.636 280.68C601.529 282.513 596.872 283.43 591.666 283.43ZM155.977 332.22V332H170.277V409H155.977V358.18L134.637 393.93H131.117L109.777 358.18V409H95.3667V332H109.777V332.22L110.107 332L132.877 370.39L155.647 332L155.977 332.22ZM200.441 376.66V395.36H232.671V409H186.031V332H232.121V345.64H200.441V363.13H229.371V376.66H200.441ZM267.95 410.43C260.397 410.43 254.053 408.743 248.92 405.37C243.787 401.997 240.193 397.45 238.14 391.73L250.24 384.58C253.247 392.427 259.26 396.35 268.28 396.35C272.313 396.35 275.43 395.397 277.63 393.49C279.83 391.583 280.93 389.383 280.93 386.89C280.93 384.397 279.72 382.38 277.3 380.84C274.953 379.3 270.737 377.65 264.65 375.89C259.883 374.423 255.85 372.847 252.55 371.16C249.25 369.4 246.537 367.053 244.41 364.12C242.357 361.187 241.33 357.483 241.33 353.01C241.33 348.463 242.467 344.503 244.74 341.13C247.013 337.683 250.02 335.08 253.76 333.32C257.573 331.487 261.717 330.57 266.19 330.57C272.423 330.57 277.813 332.073 282.36 335.08C286.98 338.013 290.537 342.157 293.03 347.51L280.71 354.55C277.85 348.023 273.01 344.76 266.19 344.76C263.11 344.76 260.58 345.567 258.6 347.18C256.62 348.793 255.63 350.7 255.63 352.9C255.63 354.587 256.07 356.017 256.95 357.19C257.903 358.363 259.37 359.427 261.35 360.38C263.403 361.333 266.373 362.397 270.26 363.57C275.32 365.183 279.573 366.87 283.02 368.63C286.54 370.39 289.437 372.847 291.71 376C294.057 379.08 295.23 382.967 295.23 387.66C295.23 392.28 294.057 396.313 291.71 399.76C289.363 403.207 286.1 405.847 281.92 407.68C277.813 409.513 273.157 410.43 267.95 410.43ZM329.825 410.43C322.272 410.43 315.928 408.743 310.795 405.37C305.662 401.997 302.068 397.45 300.015 391.73L312.115 384.58C315.122 392.427 321.135 396.35 330.155 396.35C334.188 396.35 337.305 395.397 339.505 393.49C341.705 391.583 342.805 389.383 342.805 386.89C342.805 384.397 341.595 382.38 339.175 380.84C336.828 379.3 332.612 377.65 326.525 375.89C321.758 374.423 317.725 372.847 314.425 371.16C311.125 369.4 308.412 367.053 306.285 364.12C304.232 361.187 303.205 357.483 303.205 353.01C303.205 348.463 304.342 344.503 306.615 341.13C308.888 337.683 311.895 335.08 315.635 333.32C319.448 331.487 323.592 330.57 328.065 330.57C334.298 330.57 339.688 332.073 344.235 335.08C348.855 338.013 352.412 342.157 354.905 347.51L342.585 354.55C339.725 348.023 334.885 344.76 328.065 344.76C324.985 344.76 322.455 345.567 320.475 347.18C318.495 348.793 317.505 350.7 317.505 352.9C317.505 354.587 317.945 356.017 318.825 357.19C319.778 358.363 321.245 359.427 323.225 360.38C325.278 361.333 328.248 362.397 332.135 363.57C337.195 365.183 341.448 366.87 344.895 368.63C348.415 370.39 351.312 372.847 353.585 376C355.932 379.08 357.105 382.967 357.105 387.66C357.105 392.28 355.932 396.313 353.585 399.76C351.238 403.207 347.975 405.847 343.795 407.68C339.688 409.513 335.032 410.43 329.825 410.43ZM430.988 409H415.698L409.978 393.49H379.508L373.788 409H358.388L386.988 332H402.388L430.988 409ZM394.798 352.57L384.568 379.85H404.918L394.798 352.57ZM466.431 368.3H507.901V374.68C507.901 381.133 506.141 387.11 502.621 392.61C499.174 398.037 494.481 402.363 488.541 405.59C482.601 408.817 476.148 410.43 469.181 410.43C461.994 410.43 455.358 408.67 449.271 405.15C443.184 401.557 438.344 396.717 434.751 390.63C431.231 384.543 429.471 377.907 429.471 370.72C429.471 363.533 431.231 356.897 434.751 350.81C438.344 344.723 443.184 339.92 449.271 336.4C455.358 332.807 461.994 331.01 469.181 331.01C475.781 331.01 481.904 332.55 487.551 335.63C493.271 338.71 497.928 342.853 501.521 348.06L490.191 356.86C487.918 353.413 484.911 350.663 481.171 348.61C477.431 346.483 473.434 345.42 469.181 345.42C464.634 345.42 460.381 346.557 456.421 348.83C452.534 351.103 449.454 354.183 447.181 358.07C444.908 361.957 443.771 366.173 443.771 370.72C443.771 375.267 444.908 379.483 447.181 383.37C449.454 387.257 452.534 390.337 456.421 392.61C460.381 394.883 464.634 396.02 469.181 396.02C474.461 396.02 479.081 394.737 483.041 392.17C487.074 389.603 489.971 386.193 491.731 381.94H466.431V368.3ZM531.945 376.66V395.36H564.175V409H517.535V332H563.625V345.64H531.945V363.13H560.875V376.66H531.945Z" fill="white"/>
<defs>
<filter id="filter0_di_267_56" x="0" y="0" width="679.72" height="644.77" filterUnits="userSpaceOnUse" color-interpolation-filters="sRGB">
<feFlood flood-opacity="0" result="BackgroundImageFix"/>
<feColorMatrix in="SourceAlpha" type="matrix" values="0 0 0 0 0 0 0 0 0 0 0 0 0 0 0 0 0 0 127 0" result="hardAlpha"/>
<feOffset dx="12" dy="17"/>
<feGaussianBlur stdDeviation="5.5"/>
<feComposite in2="hardAlpha" operator="out"/>
<feColorMatrix type="matrix" values="0 0 0 0 0 0 0 0 0 0 0 0 0 0 0 0 0 0 0.25 0"/>
<feBlend mode="normal" in2="BackgroundImageFix" result="effect1_dropShadow_267_56"/>
<feBlend mode="normal" in="SourceGraphic" in2="effect1_dropShadow_267_56" result="shape"/>
<feColorMatrix in="SourceAlpha" type="matrix" values="0 0 0 0 0 0 0 0 0 0 0 0 0 0 0 0 0 0 127 0" result="hardAlpha"/>
<feOffset dx="24" dy="4"/>
<feGaussianBlur stdDeviation="15"/>
<feComposite in2="hardAlpha" operator="arithmetic" k2="-1" k3="1"/>
<feColorMatrix type="matrix" values="0 0 0 0 0 0 0 0 0 0 0 0 0 0 0 0 0 0 0.25 0"/>
<feBlend mode="normal" in2="shape" result="effect2_innerShadow_267_56"/>
</filter>
</defs>
</svg>
