<svg width="148" height="148" viewBox="0 0 148 148" fill="none" xmlns="http://www.w3.org/2000/svg">
<path d="M43.1667 20.5967V30.8333C43.1667 35.7399 45.1159 40.4454 48.5853 43.9148C52.0547 47.3842 56.7602 49.3333 61.6667 49.3333" stroke="#4541F3" stroke-width="10" stroke-linecap="round" stroke-linejoin="round"/>
<path d="M67.8333 135.359V111C67.8333 107.729 66.5339 104.592 64.2209 102.279C61.908 99.9662 58.7709 98.6668 55.4999 98.6668C52.2289 98.6668 49.0919 97.3674 46.779 95.0545C44.466 92.7415 43.1666 89.6045 43.1666 86.3335V80.1668C43.1666 76.8958 41.8672 73.7588 39.5543 71.4458C37.2413 69.1329 34.1043 67.8335 30.8333 67.8335H12.6416" stroke="#4541F3" stroke-width="10" stroke-linecap="round" stroke-linejoin="round"/>
<path d="M132.83 92.5H104.833C101.562 92.5 98.4253 93.7994 96.1124 96.1124C93.7994 98.4253 92.5 101.562 92.5 104.833V132.83" stroke="#4541F3" stroke-width="10" stroke-linecap="round" stroke-linejoin="round"/>
<path d="M74.0001 12.3335C62.6028 12.3342 51.4286 15.4935 41.7181 21.4606C32.0077 27.4277 24.1408 35.9691 18.9911 46.1367C13.8413 56.3043 11.6101 67.7001 12.545 79.059C13.48 90.4179 17.5447 101.296 24.2877 110.484C31.0307 119.673 40.1883 126.813 50.7438 131.112C61.2993 135.411 72.8397 136.7 84.0838 134.837C95.3278 132.974 105.836 128.032 114.441 120.558C123.045 113.085 129.411 103.373 132.83 92.5002" stroke="#4541F3" stroke-width="10" stroke-linecap="round" stroke-linejoin="round"/>
<path d="M123.333 37.0002V24.6668C123.333 21.3958 122.034 18.2588 119.721 15.9458C117.408 13.6329 114.271 12.3335 111 12.3335C107.729 12.3335 104.592 13.6329 102.279 15.9458C99.9659 18.2588 98.6665 21.3958 98.6665 24.6668V37.0002" stroke="#4541F3" stroke-width="10" stroke-linecap="round" stroke-linejoin="round"/>
<path d="M129.5 37H92.5002C89.0944 37 86.3335 39.7609 86.3335 43.1667V61.6667C86.3335 65.0724 89.0944 67.8333 92.5002 67.8333H129.5C132.906 67.8333 135.667 65.0724 135.667 61.6667V43.1667C135.667 39.7609 132.906 37 129.5 37Z" stroke="#4541F3" stroke-width="10" stroke-linecap="round" stroke-linejoin="round"/>
</svg>
