<svg width="116" height="115" viewBox="0 0 116 115" fill="none" xmlns="http://www.w3.org/2000/svg">
<path d="M6.33252 30.8593L27.3343 9.85761C28.2203 8.96626 29.274 8.25909 30.4347 7.77685C31.5953 7.29462 32.8399 7.04686 34.0967 7.04785H73.8143C75.0711 7.04686 76.3157 7.29462 77.4763 7.77685C78.637 8.25909 79.6907 8.96626 80.5768 9.85761L101.578 30.8593" stroke="white" stroke-width="2" stroke-linecap="round" stroke-linejoin="round"/>
<path d="M15.8574 54.6709V92.7693C15.8574 95.2954 16.8609 97.718 18.6471 99.5042C20.4333 101.29 22.8559 102.294 25.382 102.294H82.5296C85.0557 102.294 87.4783 101.29 89.2645 99.5042C91.0507 97.718 92.0542 95.2954 92.0542 92.7693V54.6709" stroke="white" stroke-width="2" stroke-linecap="round" stroke-linejoin="round"/>
<path d="M68.2427 102.294V83.2448C68.2427 80.7187 67.2393 78.2961 65.453 76.5099C63.6668 74.7237 61.2442 73.7202 58.7181 73.7202H49.1935C46.6675 73.7202 44.2448 74.7237 42.4586 76.5099C40.6724 78.2961 39.6689 80.7187 39.6689 83.2448V102.294" stroke="white" stroke-width="2" stroke-linecap="round" stroke-linejoin="round"/>
<path d="M6.33252 30.8594H101.578" stroke="white" stroke-width="2" stroke-linecap="round" stroke-linejoin="round"/>
<path d="M101.578 30.8594V45.1463C101.578 47.6724 100.575 50.095 98.7888 51.8812C97.0026 53.6674 94.58 54.6709 92.0539 54.6709C89.2714 54.5177 86.6141 53.4648 84.4818 51.6706C83.9136 51.26 83.2304 51.039 82.5293 51.039C81.8282 51.039 81.145 51.26 80.5768 51.6706C78.4445 53.4648 75.7871 54.5177 73.0047 54.6709C70.2223 54.5177 67.5649 53.4648 65.4326 51.6706C64.8644 51.26 64.1812 51.039 63.4801 51.039C62.779 51.039 62.0958 51.26 61.5276 51.6706C59.3953 53.4648 56.7379 54.5177 53.9555 54.6709C51.1731 54.5177 48.5157 53.4648 46.3834 51.6706C45.8152 51.26 45.132 51.039 44.4309 51.039C43.7298 51.039 43.0466 51.26 42.4784 51.6706C40.3461 53.4648 37.6888 54.5177 34.9063 54.6709C32.1239 54.5177 29.4665 53.4648 27.3343 51.6706C26.766 51.26 26.0828 51.039 25.3817 51.039C24.6806 51.039 23.9974 51.26 23.4292 51.6706C21.2969 53.4648 18.6396 54.5177 15.8571 54.6709C13.331 54.6709 10.9084 53.6674 9.12221 51.8812C7.336 50.095 6.33252 47.6724 6.33252 45.1463V30.8594" stroke="white" stroke-width="2" stroke-linecap="round" stroke-linejoin="round"/>
</svg>
