<svg width="36" height="40" viewBox="0 0 36 40" fill="none" xmlns="http://www.w3.org/2000/svg">
<path d="M30 6H5.99375C4.89375 6 4 6.90625 4 8.01875V31.9813C4 33.0938 4.89375 34 5.99375 34H30C31.1 34 32 33.0938 32 31.9813V8.01875C32 6.90625 31.1 6 30 6ZM12.4625 30H8.3125V16.6375H12.4688V30H12.4625ZM10.3875 14.8125C9.05625 14.8125 7.98125 13.7312 7.98125 12.4062C7.98125 11.0813 9.05625 10 10.3875 10C11.7125 10 12.7937 11.0813 12.7937 12.4062C12.7937 13.7375 11.7188 14.8125 10.3875 14.8125ZM28.0187 30H23.8687V23.5C23.8687 21.95 23.8375 19.9563 21.7125 19.9563C19.55 19.9563 19.2188 21.6438 19.2188 23.3875V30H15.0688V16.6375H19.05V18.4625H19.1062C19.6625 17.4125 21.0188 16.3062 23.0375 16.3062C27.2375 16.3062 28.0187 19.075 28.0187 22.675V30Z" fill="black"/>
</svg>
