<svg width="2471" height="1723" viewBox="0 0 2471 1723" fill="none" xmlns="http://www.w3.org/2000/svg">
<path d="M1585.57 902.712L1580.85 907.875L1586.01 912.601L1938.32 1235.04C1953.69 1249.1 1965.32 1260.58 1973.31 1270.95C1981.27 1281.28 1985.21 1289.98 1985.93 1298.49C1986.65 1306.96 1984.27 1316.27 1977.53 1327.97C1970.75 1339.75 1959.84 1353.47 1944.19 1370.58L1354.93 2014.43C1339.28 2031.54 1326.57 2043.62 1315.44 2051.41C1304.38 2059.15 1295.31 2062.35 1286.82 2062.38C1278.27 2062.41 1269.26 2059.26 1258.27 2052.25C1247.23 2045.2 1234.77 2034.64 1219.4 2020.57L199.103 1086.79L193.939 1082.06L189.213 1087.23L14.6661 1277.95L9.94011 1283.11L15.104 1287.84L1035.41 2221.62C1123.36 2302.11 1207.59 2343.39 1292.55 2339.55C1377.51 2335.71 1461.26 2286.85 1548.47 2191.56L2137.73 1547.7C2224.93 1452.41 2266.2 1364.67 2262.52 1279.71C2258.83 1194.74 2210.28 1114.49 2122.32 1033.99L1770.01 711.554L1764.85 706.828L1760.12 711.992L1585.57 902.712ZM1508.84 1683.59L1513.57 1678.43L1508.4 1673.7L687.698 922.59L1105.12 466.489C1135.98 432.768 1166.73 414.684 1196.1 410.961C1225.22 407.27 1254.33 417.535 1282.52 443.338L1335.48 491.806C1346.21 501.629 1356.46 510.215 1365.43 517.734C1370.5 521.977 1375.15 525.88 1379.27 529.474C1391.14 539.852 1398.71 547.863 1402.23 555.869C1405.46 563.207 1405.6 571.321 1400.17 582.991C1394.57 595.03 1383.3 610.239 1364.37 630.93L1190.55 820.855L1185.82 826.019L1190.98 830.745L1372.76 997.108L1377.92 1001.83L1382.65 996.67L1556.47 806.745C1650.28 704.244 1686.37 616.359 1675.22 532.823C1664.12 449.68 1606.44 372.983 1518.17 292.193L1466.64 245.035C1380.38 166.091 1285.93 129.078 1190.6 136.382C1095.36 143.68 1000.46 195.126 913.018 290.674L316.321 942.659L311.595 947.823L316.759 952.549L1324.4 1874.75L1329.57 1879.47L1334.29 1874.31L1508.84 1683.59ZM1168.46 860.041L1163.29 855.315L1158.57 860.479L984.02 1051.2L979.294 1056.36L984.458 1061.09L1590.18 1615.44L1595.34 1620.17L1600.07 1615.01L1774.61 1424.29L1779.34 1419.12L1774.18 1414.4L1168.46 860.041ZM1011.45 716.346L1006.28 711.62L1001.56 716.784L827.01 907.503L822.284 912.667L827.448 917.393L918.023 1000.29L923.187 1005.01L927.913 999.849L1102.46 809.13L1107.19 803.966L1102.02 799.24L1011.45 716.346Z" stroke="#4F52FF" stroke-width="14"/>
<path d="M2295.17 1240.82C2272.59 1264.6 2251.22 1279.93 2234.33 1292.05C2035.86 1434.45 1801.02 1392.94 1751.1 1382.8C1677.4 1367.83 1534.94 1338.9 1431.93 1217.77C1276.1 1034.52 1300.37 745.806 1421.24 555.223C1443.35 520.362 1560.14 326.876 1797.51 295.847C1941.17 277.068 2108.63 314.942 2229.89 416.541C2484.45 629.804 2466.33 1060.63 2295.17 1240.82Z" fill="url(#paint0_linear_43_4156)"/>
<path d="M2102.39 1135.39C2268.7 969.078 2268.7 699.438 2102.39 533.129C1936.08 366.82 1666.44 366.82 1500.13 533.129C1333.82 699.438 1333.82 969.078 1500.13 1135.39C1666.44 1301.7 1936.08 1301.7 2102.39 1135.39Z" fill="#BDD0FB"/>
<path d="M1801.27 1197.72C2002 1197.72 2164.73 1034.99 2164.73 834.258C2164.73 633.525 2002 470.799 1801.27 470.799C1600.53 470.799 1437.81 633.525 1437.81 834.258C1437.81 1034.99 1600.53 1197.72 1801.27 1197.72Z" fill="url(#paint1_linear_43_4156)"/>
<path d="M1801.27 1215.92C1590.82 1215.92 1419.6 1044.71 1419.6 834.258C1419.6 623.806 1590.82 452.594 1801.27 452.594C2011.72 452.594 2182.93 623.806 2182.93 834.258C2182.93 1044.71 2011.72 1215.92 1801.27 1215.92ZM1801.27 470.799C1600.86 470.799 1437.81 633.845 1437.81 834.258C1437.81 1034.67 1600.86 1197.72 1801.27 1197.72C2001.68 1197.72 2164.72 1034.67 2164.72 834.258C2164.72 633.845 2001.68 470.799 1801.27 470.799Z" fill="white"/>
<path d="M1801.27 1055.84C1923.64 1055.84 2022.85 956.635 2022.85 834.258C2022.85 711.882 1923.64 612.676 1801.27 612.676C1678.89 612.676 1579.69 711.882 1579.69 834.258C1579.69 956.635 1678.89 1055.84 1801.27 1055.84Z" fill="url(#paint2_linear_43_4156)"/>
<path d="M1801.27 1074.05C1669.05 1074.05 1561.48 966.477 1561.48 834.258C1561.48 702.04 1669.05 594.473 1801.27 594.473C1933.49 594.473 2041.05 702.04 2041.05 834.258C2041.05 966.477 1933.49 1074.05 1801.27 1074.05ZM1801.27 630.881C1689.12 630.881 1597.89 722.115 1597.89 834.258C1597.89 946.401 1689.12 1037.64 1801.27 1037.64C1913.41 1037.64 2004.65 946.401 2004.65 834.258C2004.65 722.115 1913.41 630.881 1801.27 630.881Z" fill="white"/>
<path d="M1801.27 920.106C1848.68 920.106 1887.11 881.671 1887.11 834.258C1887.11 786.846 1848.68 748.411 1801.27 748.411C1753.86 748.411 1715.42 786.846 1715.42 834.258C1715.42 881.671 1753.86 920.106 1801.27 920.106Z" fill="url(#paint3_linear_43_4156)"/>
<path d="M1801.27 938.311C1743.89 938.311 1697.22 891.634 1697.22 834.258C1697.22 776.882 1743.89 730.205 1801.27 730.205C1858.64 730.205 1905.32 776.882 1905.32 834.258C1905.32 891.634 1858.64 938.311 1801.27 938.311ZM1801.27 766.613C1763.97 766.613 1733.62 796.958 1733.62 834.258C1733.62 871.559 1763.97 901.903 1801.27 901.903C1838.57 901.903 1868.91 871.559 1868.91 834.258C1868.91 796.958 1838.57 766.613 1801.27 766.613Z" fill="white"/>
<path d="M2207.62 429.005L2216.66 438.048L1874.26 780.45L1865.21 771.409L2207.62 429.005Z" fill="url(#paint4_linear_43_4156)"/>
<path d="M1871.62 749.591C1876.81 744.403 1901.26 768.859 1896.07 774.046L1805.37 845.354C1802.02 847.988 1797.68 843.646 1800.31 840.295L1871.62 749.591Z" fill="url(#paint5_linear_43_4156)"/>
<path d="M2216.46 438.243L2262.53 442.821L2199.29 506.058C2178.57 526.777 2149.65 537.11 2120.5 534.212L2216.46 438.243Z" fill="#91B3FA"/>
<path d="M2207.42 429.201L2202.84 383.137L2139.61 446.374C2118.89 467.093 2108.55 496.013 2111.45 525.17L2207.42 429.201Z" fill="#91B3FA"/>
<g opacity="0.3">
<path d="M1575.27 365.44C1573.98 366.727 1571.9 366.726 1570.61 365.439C1568.11 362.938 1565.47 360.508 1562.75 358.218C1561.37 357.059 1561.19 355.015 1562.31 353.624C1562.33 353.608 1562.34 353.591 1562.35 353.574C1563.53 352.183 1565.6 352.006 1567 353.179C1569.86 355.59 1572.64 358.148 1575.27 360.78C1576.48 361.984 1576.55 363.888 1575.5 365.181C1575.43 365.271 1575.36 365.358 1575.27 365.44ZM1548.76 347.976C1545.75 346.078 1542.64 344.291 1539.5 342.662C1537.89 341.824 1537.26 339.836 1538.09 338.22C1538.94 336.601 1540.92 335.975 1542.54 336.813C1545.84 338.526 1549.12 340.407 1552.28 342.404C1553.81 343.376 1554.27 345.412 1553.3 346.95C1553.23 347.062 1553.15 347.168 1553.07 347.268C1552.04 348.547 1550.18 348.877 1548.76 347.976ZM1523.6 335.77C1520.26 334.592 1516.82 333.545 1513.39 332.657C1511.63 332.201 1510.57 330.403 1511.03 328.642C1511.48 326.882 1513.28 325.822 1515.04 326.277C1518.66 327.211 1522.27 328.315 1525.79 329.556C1527.51 330.161 1528.41 332.043 1527.8 333.76C1527.67 334.126 1527.49 334.454 1527.25 334.739C1526.4 335.791 1524.95 336.247 1523.6 335.77ZM1496.34 329.498C1492.82 329.095 1489.24 328.842 1485.69 328.742C1483.87 328.691 1482.44 327.175 1482.49 325.356C1482.54 323.537 1484.06 322.105 1485.88 322.154C1489.61 322.259 1493.38 322.527 1497.09 322.949C1498.9 323.156 1500.2 324.788 1499.99 326.597C1499.92 327.243 1499.66 327.825 1499.28 328.296C1498.59 329.142 1497.5 329.63 1496.34 329.498ZM1468.37 329.454C1464.85 329.843 1461.3 330.389 1457.82 331.077C1456.03 331.428 1454.3 330.267 1453.95 328.481C1453.59 326.694 1454.76 324.962 1456.54 324.611C1460.21 323.888 1463.94 323.314 1467.64 322.904C1469.45 322.704 1471.08 324.008 1471.28 325.817C1471.38 326.728 1471.1 327.594 1470.57 328.254C1470.04 328.904 1469.27 329.354 1468.37 329.454ZM1441.08 335.6C1437.73 336.759 1434.39 338.077 1431.15 339.517C1429.49 340.255 1427.54 339.506 1426.8 337.844C1426.07 336.181 1426.81 334.234 1428.48 333.494C1431.89 331.979 1435.4 330.592 1438.93 329.373C1440.65 328.778 1442.52 329.689 1443.12 331.409C1443.51 332.526 1443.26 333.709 1442.56 334.564C1442.19 335.026 1441.69 335.392 1441.08 335.6ZM1357.03 424.529C1355.27 424.071 1354.21 422.271 1354.67 420.51C1355.61 416.902 1356.72 413.286 1357.97 409.764C1358.58 408.049 1360.47 407.152 1362.18 407.761C1363.9 408.369 1364.79 410.253 1364.18 411.967C1363 415.312 1361.94 418.745 1361.05 422.171C1360.93 422.641 1360.71 423.06 1360.42 423.415C1359.64 424.388 1358.32 424.866 1357.03 424.529ZM1415.85 347.635C1412.85 349.509 1409.89 351.535 1407.05 353.661C1405.6 354.752 1403.53 354.457 1402.44 353.001C1401.35 351.545 1401.65 349.486 1403.1 348.388C1406.08 346.15 1409.2 344.015 1412.37 342.042C1413.91 341.08 1415.94 341.551 1416.91 343.095C1417.67 344.32 1417.53 345.852 1416.67 346.914C1416.45 347.191 1416.17 347.435 1415.85 347.635ZM1366.66 397.473C1365.05 396.632 1364.42 394.641 1365.26 393.027C1366.99 389.723 1368.88 386.448 1370.88 383.294C1371.85 381.751 1373.89 381.303 1375.43 382.277C1376.96 383.251 1377.42 385.287 1376.44 386.825C1374.54 389.822 1372.75 392.934 1371.11 396.075C1371 396.276 1370.88 396.46 1370.74 396.629C1369.78 397.821 1368.08 398.21 1366.66 397.473ZM1393.95 365.003C1391.44 367.501 1389.01 370.139 1386.72 372.848C1385.54 374.238 1383.46 374.411 1382.07 373.235C1380.7 372.075 1380.51 370.034 1381.64 368.646C1381.65 368.628 1381.67 368.609 1381.69 368.592C1384.1 365.74 1386.66 362.962 1389.3 360.333C1390.59 359.05 1392.68 359.054 1393.96 360.343C1395.16 361.548 1395.23 363.449 1394.19 364.74C1394.11 364.83 1394.03 364.918 1393.95 365.003Z" fill="#91B3FA"/>
<path d="M1356.64 446.242C1357.05 445.738 1357.32 445.109 1357.37 444.412C1357.49 442.717 1357.65 440.998 1357.85 439.299C1358.06 437.491 1356.76 435.857 1354.95 435.65C1353.14 435.442 1351.51 436.739 1351.3 438.548C1351.1 440.335 1350.93 442.143 1350.79 443.927C1350.66 445.741 1352.02 447.322 1353.84 447.455C1354.96 447.538 1355.99 447.052 1356.64 446.242Z" fill="#91B3FA"/>
</g>
<g opacity="0.3">
<path d="M1388.96 541.363C1389.96 540.128 1389.95 538.314 1388.86 537.091C1387.72 535.827 1386.59 534.516 1385.51 533.198C1384.35 531.793 1382.27 531.593 1380.87 532.751C1379.46 533.914 1379.27 535.986 1380.42 537.39C1381.57 538.778 1382.75 540.158 1383.95 541.49C1385.16 542.845 1387.24 542.959 1388.6 541.745C1388.73 541.626 1388.85 541.497 1388.96 541.363Z" fill="#91B3FA"/>
<path d="M1580.01 541.654C1578.79 543.01 1576.71 543.125 1575.35 541.91C1574 540.696 1573.88 538.616 1575.1 537.257C1577.41 534.676 1579.64 531.957 1581.77 529.144C1582.86 527.696 1584.94 527.407 1586.39 528.504C1587.84 529.602 1588.13 531.669 1587.03 533.121C1586.11 534.339 1585.17 535.538 1584.21 536.716C1582.85 538.396 1581.44 540.058 1580.01 541.654ZM1592.38 519.355C1590.79 518.464 1590.23 516.455 1591.12 514.869C1592.83 511.823 1594.43 508.672 1595.88 505.503C1596.63 503.847 1598.59 503.117 1600.25 503.873C1601.9 504.628 1602.63 506.582 1601.88 508.238C1600.35 511.574 1598.67 514.892 1596.87 518.096C1596.77 518.262 1596.67 518.418 1596.55 518.561C1595.56 519.785 1593.8 520.154 1592.38 519.355ZM1567.14 554.179C1564.34 556.551 1561.41 558.835 1558.41 560.968C1556.93 562.023 1554.87 561.678 1553.82 560.195C1552.76 558.712 1553.11 556.657 1554.59 555.599C1557.43 553.574 1560.22 551.405 1562.88 549.153C1564.26 547.976 1566.34 548.147 1567.52 549.535C1568.56 550.763 1568.55 552.532 1567.57 553.739C1567.44 553.896 1567.3 554.044 1567.14 554.179ZM1604.09 493.636C1602.35 493.115 1601.36 491.278 1601.88 489.535C1602.88 486.193 1603.75 482.768 1604.46 479.356C1604.83 477.573 1606.58 476.432 1608.36 476.805C1610.14 477.177 1611.28 478.922 1610.91 480.703C1610.16 484.297 1609.24 487.904 1608.19 491.423C1608.07 491.848 1607.86 492.229 1607.6 492.554C1606.78 493.56 1605.41 494.03 1604.09 493.636ZM1543.12 570.347C1539.87 572.044 1536.5 573.626 1533.11 575.048C1531.44 575.753 1529.5 574.964 1528.8 573.286C1528.09 571.607 1528.88 569.676 1530.56 568.972C1533.78 567.62 1536.98 566.118 1540.06 564.506C1541.68 563.663 1543.67 564.287 1544.51 565.9C1545.14 567.102 1544.95 568.513 1544.15 569.503C1543.87 569.842 1543.53 570.132 1543.12 570.347ZM1516.13 580.854C1512.58 581.802 1508.95 582.612 1505.34 583.261C1503.55 583.582 1501.84 582.392 1501.52 580.6C1501.19 578.807 1502.38 577.095 1504.18 576.775C1507.61 576.158 1511.05 575.389 1514.43 574.488C1516.18 574.018 1517.99 575.062 1518.46 576.82C1518.74 577.88 1518.48 578.956 1517.84 579.748C1517.41 580.27 1516.83 580.667 1516.13 580.854ZM1487.49 585.23C1483.82 585.383 1480.1 585.383 1476.44 585.231C1474.62 585.154 1473.21 583.619 1473.28 581.801C1473.36 579.98 1474.9 578.57 1476.71 578.646C1480.19 578.792 1483.73 578.791 1487.22 578.645C1489.04 578.569 1490.57 579.982 1490.65 581.8C1490.68 582.635 1490.4 583.41 1489.92 584.012C1489.34 584.721 1488.48 585.189 1487.49 585.23ZM1458.58 583.255C1454.97 582.602 1451.34 581.787 1447.79 580.832C1446.04 580.358 1444.99 578.55 1445.47 576.792C1445.94 575.038 1447.75 573.995 1449.51 574.469C1452.87 575.375 1456.32 576.149 1459.76 576.769C1461.55 577.093 1462.74 578.806 1462.41 580.597C1462.31 581.163 1462.07 581.668 1461.73 582.085C1461 582.989 1459.81 583.476 1458.58 583.255ZM1430.8 574.972C1427.43 573.542 1424.07 571.947 1420.82 570.234C1419.21 569.385 1418.59 567.391 1419.44 565.782C1420.29 564.177 1422.28 563.555 1423.89 564.404C1426.98 566.032 1430.17 567.546 1433.37 568.905C1435.05 569.615 1435.83 571.549 1435.12 573.224C1435 573.516 1434.84 573.781 1434.65 574.016C1433.75 575.128 1432.18 575.558 1430.8 574.972ZM1405.54 560.805C1403.34 559.235 1401.17 557.577 1399.07 555.879C1398.31 555.264 1397.56 554.643 1396.82 554.014C1395.43 552.838 1395.22 550.753 1396.44 549.37C1397.62 547.981 1399.69 547.81 1401.08 548.987C1401.79 549.583 1402.5 550.176 1403.22 550.76C1405.21 552.375 1407.28 553.95 1409.37 555.443C1410.85 556.5 1411.2 558.559 1410.14 560.039C1410.1 560.095 1410.06 560.149 1410.02 560.202C1408.93 561.544 1406.97 561.824 1405.54 560.805Z" fill="#91B3FA"/>
<path d="M1612.65 464.674C1613.06 464.165 1613.33 463.53 1613.37 462.827C1613.5 461.047 1613.58 459.231 1613.63 457.43C1613.68 455.61 1612.25 454.095 1610.43 454.045C1608.61 453.996 1607.1 455.428 1607.05 457.249C1607 458.961 1606.92 460.685 1606.8 462.375C1606.67 464.19 1608.04 465.763 1609.86 465.888C1610.97 465.964 1612 465.479 1612.65 464.674Z" fill="#91B3FA"/>
</g>
<path d="M1575.58 422.045C1575.45 421.401 1574.92 420.914 1574.27 420.831L1555.68 418.457C1551.99 410.519 1547 403.112 1540.79 396.585L1545.4 378.427C1545.56 377.79 1545.3 377.121 1544.75 376.761L1525.95 364.433C1525.4 364.072 1524.68 364.101 1524.16 364.503L1509.34 375.964C1500.88 372.873 1492.1 371.257 1483.35 371.038L1473.76 354.934C1473.42 354.369 1472.77 354.08 1472.12 354.214L1450.11 358.792C1449.47 358.926 1448.98 359.453 1448.9 360.105L1446.52 378.699C1438.59 382.388 1431.18 387.371 1424.65 393.58L1406.49 388.977C1405.86 388.815 1405.19 389.075 1404.83 389.625L1392.5 408.427C1392.14 408.977 1392.17 409.694 1392.57 410.214L1404.03 425.031C1400.94 433.492 1399.32 442.271 1399.11 451.022L1383 460.613C1382.44 460.949 1382.15 461.607 1382.28 462.25L1386.86 484.263C1386.99 484.906 1387.52 485.393 1388.17 485.476L1406.77 487.851C1410.46 495.789 1415.44 503.195 1421.65 509.722L1417.04 527.88C1416.88 528.517 1417.14 529.186 1417.69 529.546L1436.5 541.874C1437.04 542.234 1437.76 542.206 1438.28 541.804L1453.1 530.343C1461.56 533.434 1470.34 535.05 1479.09 535.269L1488.68 551.373C1489.02 551.938 1489.67 552.227 1490.32 552.093L1512.33 547.515C1512.97 547.381 1513.46 546.854 1513.54 546.202L1515.92 527.609C1523.86 523.919 1531.26 518.937 1537.79 512.728L1555.95 517.331C1556.58 517.492 1557.25 517.232 1557.61 516.683L1569.94 497.88C1570.3 497.33 1570.27 496.613 1569.87 496.093L1558.41 481.277C1561.5 472.815 1563.12 464.036 1563.34 455.285L1579.44 445.695C1580.01 445.358 1580.29 444.701 1580.16 444.058L1575.58 422.045Z" fill="#91B3FA"/>
<path d="M1496.51 469.794C1487.34 478.226 1473.01 477.621 1464.58 468.445C1460.49 464.001 1458.38 458.231 1458.64 452.199C1458.89 446.169 1461.48 440.597 1465.93 436.513C1475.1 428.081 1489.43 428.685 1497.86 437.862C1505.53 446.21 1505.72 458.819 1498.79 467.376C1498.1 468.225 1497.34 469.034 1496.51 469.794ZM1463.91 452.422C1463.71 457.047 1465.33 461.47 1468.46 464.879C1474.93 471.913 1485.91 472.378 1492.95 465.913C1499.98 459.448 1500.44 448.464 1493.98 441.429C1487.51 434.394 1476.53 433.93 1469.5 440.395C1468.86 440.981 1468.27 441.607 1467.74 442.267C1465.41 445.138 1464.07 448.664 1463.91 452.422Z" fill="#BDD0FB"/>
<path d="M1523.85 488.293C1525.04 486.823 1526.17 485.285 1527.22 483.681C1527.55 483.177 1527.87 482.666 1528.19 482.151C1529.74 479.61 1531.09 476.95 1532.21 474.212C1532.22 474.174 1532.24 474.137 1532.25 474.1C1532.3 473.994 1532.34 473.888 1532.38 473.781C1532.46 473.574 1532.54 473.366 1532.62 473.158C1532.84 472.612 1532.66 472.011 1532.23 471.661C1532.12 471.575 1532 471.505 1531.87 471.454C1531.19 471.192 1530.43 471.532 1530.17 472.21C1528.82 475.705 1527.08 479.078 1525.01 482.235C1514.73 497.924 1497.48 506.351 1479.98 506.127C1470.25 506.003 1460.45 503.201 1451.72 497.48C1450.19 496.477 1448.72 495.404 1447.32 494.267C1437.89 486.617 1431.43 476.043 1428.92 463.992C1426.04 450.149 1428.72 436.013 1436.48 424.189C1452.49 399.771 1485.36 392.942 1509.77 408.945C1511.27 409.931 1512.72 410.991 1514.11 412.117C1520.13 416.998 1525.01 423.14 1528.39 430.122C1528.47 430.302 1528.6 430.454 1528.74 430.571C1529.13 430.882 1529.67 430.964 1530.15 430.734C1530.8 430.415 1531.08 429.63 1530.76 428.973C1527.22 421.644 1522.09 415.194 1515.77 410.071C1514.32 408.888 1512.79 407.777 1511.21 406.74C1485.59 389.938 1451.07 397.126 1434.27 422.743C1426.13 435.157 1423.32 449.996 1426.34 464.529C1428.97 477.181 1435.75 488.281 1445.66 496.312C1447.13 497.506 1448.67 498.632 1450.28 499.685C1462.69 507.824 1477.53 510.641 1492.06 507.619C1504.72 504.986 1515.82 498.199 1523.85 488.293Z" fill="#BDD0FB"/>
<g opacity="0.3">
<path d="M1713.77 332.525C1714.33 331.841 1714.39 330.849 1713.87 330.088C1712.89 328.666 1711.85 327.254 1710.78 325.892C1710.09 325.007 1708.81 324.851 1707.93 325.543C1707.04 326.233 1706.89 327.515 1707.58 328.4C1708.59 329.698 1709.58 331.043 1710.52 332.4C1711.16 333.325 1712.42 333.557 1713.35 332.92C1713.51 332.806 1713.65 332.673 1713.77 332.525Z" fill="#91B3FA"/>
<path d="M1703.6 320.665C1702.8 321.461 1701.52 321.465 1700.72 320.671C1698.71 318.671 1696.57 316.75 1694.37 314.964C1693.9 314.587 1693.43 314.215 1692.96 313.845C1692.07 313.156 1691.91 311.877 1692.6 310.989C1693.28 310.176 1694.57 309.942 1695.46 310.631C1695.95 311.018 1696.45 311.408 1696.93 311.802C1699.24 313.674 1701.48 315.688 1703.59 317.787C1704.34 318.529 1704.39 319.708 1703.74 320.509C1703.69 320.563 1703.65 320.614 1703.6 320.665ZM1684.42 308.015C1681.47 306.251 1678.38 304.654 1675.24 303.27C1674.21 302.816 1673.75 301.617 1674.2 300.587C1674.66 299.565 1675.86 299.092 1676.89 299.546C1680.18 300.997 1683.41 302.67 1686.51 304.52C1687.48 305.097 1687.79 306.347 1687.21 307.312C1687.16 307.397 1687.11 307.477 1687.05 307.552C1686.42 308.325 1685.3 308.54 1684.42 308.015ZM1665.54 299.697C1662.25 298.712 1658.87 297.924 1655.48 297.353C1654.37 297.167 1653.62 296.117 1653.81 295.009C1654 293.897 1655.04 293.152 1656.15 293.339C1659.71 293.937 1663.26 294.765 1666.71 295.797C1667.79 296.119 1668.4 297.254 1668.08 298.33C1668 298.592 1667.87 298.827 1667.71 299.028C1667.21 299.65 1666.36 299.94 1665.54 299.697ZM1645.2 296.272C1641.76 296.124 1638.28 296.188 1634.87 296.464C1633.75 296.553 1632.76 295.718 1632.68 294.598C1632.59 293.48 1633.42 292.497 1634.54 292.406C1638.13 292.117 1641.77 292.05 1645.37 292.206C1646.5 292.254 1647.37 293.205 1647.32 294.328C1647.3 294.78 1647.13 295.192 1646.87 295.519C1646.48 296.003 1645.87 296.301 1645.2 296.272ZM1624.63 297.918C1621.27 298.61 1617.91 299.517 1614.66 300.612C1613.59 300.972 1612.44 300.399 1612.08 299.333C1611.72 298.268 1612.29 297.112 1613.36 296.755C1616.77 295.606 1620.28 294.656 1623.81 293.93C1624.91 293.705 1625.99 294.413 1626.22 295.514C1626.34 296.136 1626.17 296.75 1625.8 297.207C1625.52 297.559 1625.11 297.819 1624.63 297.918ZM1605.09 304.507C1602 305.995 1598.96 307.691 1596.08 309.549C1595.14 310.157 1593.88 309.885 1593.27 308.941C1592.66 307.996 1592.93 306.741 1593.88 306.127C1596.9 304.179 1600.08 302.399 1603.33 300.838C1604.34 300.352 1605.56 300.777 1606.04 301.79C1606.39 302.523 1606.27 303.363 1605.79 303.955C1605.61 304.181 1605.37 304.372 1605.09 304.507ZM1587.76 315.67C1585.13 317.866 1582.61 320.256 1580.26 322.776C1579.49 323.596 1578.2 323.641 1577.38 322.874C1576.56 322.108 1576.53 320.832 1577.28 319.996C1579.75 317.357 1582.39 314.85 1585.15 312.547C1586.01 311.827 1587.3 311.942 1588.02 312.804C1588.65 313.562 1588.64 314.648 1588.04 315.389C1587.95 315.489 1587.86 315.583 1587.76 315.67ZM1565.37 340.267C1564.39 339.723 1564.03 338.485 1564.58 337.501C1566.08 334.779 1567.76 332.092 1569.57 329.522C1569.84 329.13 1570.12 328.744 1570.4 328.359C1571.03 327.435 1572.33 327.248 1573.24 327.913C1574.15 328.574 1574.35 329.846 1573.69 330.756C1573.42 331.116 1573.17 331.48 1572.91 331.854C1571.18 334.313 1569.57 336.876 1568.14 339.472C1568.08 339.579 1568.01 339.679 1567.94 339.77C1567.33 340.523 1566.25 340.752 1565.37 340.267Z" fill="#91B3FA"/>
</g>
<g opacity="0.3">
<path d="M1709.01 436.336C1706.74 439.062 1704.28 441.672 1701.71 444.097C1700.89 444.867 1699.6 444.83 1698.83 444.011C1698.06 443.192 1698.11 441.907 1698.92 441.133C1701.37 438.822 1703.72 436.332 1705.88 433.731C1706.6 432.867 1707.88 432.75 1708.75 433.469C1709.6 434.182 1709.73 435.451 1709.03 436.314C1709.02 436.321 1709.01 436.329 1709.01 436.336ZM1712.51 428.351C1711.57 427.741 1711.3 426.48 1711.91 425.537C1713.74 422.698 1715.43 419.72 1716.91 416.683C1717.4 415.68 1718.62 415.253 1719.63 415.749C1720.64 416.241 1721.06 417.459 1720.57 418.47C1719.01 421.652 1717.25 424.773 1715.33 427.748C1715.28 427.811 1715.24 427.869 1715.2 427.926C1714.55 428.723 1713.39 428.921 1712.51 428.351ZM1693.52 450.919C1690.65 453.016 1687.64 454.958 1684.56 456.687C1683.58 457.237 1682.33 456.887 1681.79 455.908C1681.23 454.928 1681.58 453.692 1682.56 453.137C1685.51 451.487 1688.38 449.636 1691.11 447.636C1692.02 446.971 1693.29 447.169 1693.96 448.074C1694.51 448.836 1694.46 449.857 1693.9 450.558C1693.79 450.691 1693.66 450.812 1693.52 450.919ZM1722.06 409.879C1721 409.513 1720.44 408.355 1720.8 407.292C1721.9 404.096 1722.81 400.8 1723.52 397.495C1723.75 396.398 1724.83 395.696 1725.93 395.927C1727.03 396.161 1727.73 397.242 1727.5 398.341C1726.76 401.807 1725.8 405.265 1724.65 408.617C1724.57 408.849 1724.45 409.057 1724.31 409.236C1723.78 409.881 1722.89 410.164 1722.06 409.879ZM1674.97 461.321C1671.69 462.666 1668.3 463.824 1664.88 464.765C1663.8 465.063 1662.68 464.425 1662.38 463.342C1662.08 462.258 1662.72 461.137 1663.8 460.839C1667.06 459.944 1670.3 458.839 1673.42 457.555C1674.46 457.128 1675.65 457.624 1676.08 458.665C1676.37 459.377 1676.23 460.161 1675.77 460.721C1675.56 460.976 1675.29 461.187 1674.97 461.321ZM1654.46 466.971C1650.95 467.493 1647.38 467.806 1643.84 467.903C1642.72 467.934 1641.78 467.049 1641.75 465.925C1641.72 464.803 1642.61 463.866 1643.73 463.835C1647.1 463.742 1650.51 463.443 1653.86 462.944C1654.97 462.779 1656.01 463.546 1656.17 464.658C1656.26 465.245 1656.09 465.812 1655.74 466.24C1655.43 466.621 1654.98 466.893 1654.46 466.971ZM1633.19 467.547C1629.65 467.214 1626.11 466.661 1622.65 465.904C1621.55 465.663 1620.86 464.578 1621.1 463.48C1621.34 462.383 1622.42 461.689 1623.52 461.928C1626.82 462.651 1630.2 463.178 1633.57 463.494C1634.69 463.599 1635.51 464.592 1635.4 465.711C1635.36 466.127 1635.2 466.5 1634.96 466.801C1634.54 467.311 1633.89 467.613 1633.19 467.547Z" fill="#91B3FA"/>
<path d="M1728.64 388.805C1728.89 388.5 1729.05 388.12 1729.08 387.7C1729.23 385.964 1729.33 384.217 1729.38 382.505C1729.41 381.382 1728.53 380.445 1727.4 380.414C1726.28 380.386 1725.34 381.27 1725.31 382.393C1725.27 384.025 1725.17 385.693 1725.03 387.349C1724.93 388.469 1725.76 389.455 1726.88 389.552C1727.58 389.612 1728.23 389.312 1728.64 388.805Z" fill="#91B3FA"/>
</g>
<path d="M1704.09 358.831C1704 358.4 1703.64 358.074 1703.21 358.019L1690.77 356.43C1688.3 351.118 1684.96 346.162 1680.81 341.794L1683.89 329.644C1684 329.218 1683.82 328.77 1683.46 328.529L1670.87 320.28C1670.51 320.038 1670.03 320.057 1669.68 320.326L1659.76 327.996C1654.1 325.928 1648.23 324.846 1642.37 324.7L1635.95 313.923C1635.73 313.545 1635.29 313.352 1634.86 313.442L1620.13 316.505C1619.7 316.595 1619.37 316.948 1619.32 317.384L1617.73 329.825C1612.41 332.294 1607.46 335.628 1603.09 339.783L1590.94 336.703C1590.51 336.595 1590.07 336.769 1589.83 337.137L1581.58 349.719C1581.34 350.087 1581.35 350.567 1581.62 350.914L1589.29 360.829C1587.22 366.491 1586.14 372.366 1586 378.222L1575.22 384.639C1574.84 384.864 1574.65 385.304 1574.74 385.734L1577.8 400.464C1577.89 400.895 1578.24 401.221 1578.68 401.277L1591.12 402.865C1593.59 408.177 1596.93 413.133 1601.08 417.501L1598 429.652C1597.89 430.078 1598.07 430.525 1598.43 430.767L1611.02 439.016C1611.38 439.257 1611.86 439.239 1612.21 438.969L1622.13 431.3C1627.79 433.369 1633.66 434.45 1639.52 434.596L1645.94 445.373C1646.16 445.751 1646.6 445.944 1647.03 445.854L1661.76 442.791C1662.19 442.701 1662.52 442.349 1662.57 441.912L1664.16 429.471C1669.47 427.002 1674.43 423.667 1678.8 419.513L1690.95 422.593C1691.37 422.701 1691.82 422.527 1692.06 422.159L1700.31 409.577C1700.55 409.21 1700.53 408.729 1700.27 408.382L1692.6 398.467C1694.66 392.805 1695.75 386.93 1695.89 381.075L1706.67 374.657C1707.05 374.432 1707.24 373.992 1707.15 373.561L1704.09 358.831Z" fill="#91B3FA"/>
<path d="M1651.36 390.982C1648.33 393.766 1644.4 395.203 1640.29 395.028C1636.19 394.855 1632.39 393.093 1629.61 390.064C1623.87 383.815 1624.28 374.074 1630.53 368.311C1636.78 362.569 1646.54 362.982 1652.28 369.231C1655.06 372.258 1656.5 376.188 1656.33 380.297C1656.18 383.636 1654.99 386.769 1652.92 389.319C1652.45 389.905 1651.93 390.461 1651.36 390.982ZM1632.61 387.309C1634.65 389.537 1637.44 390.834 1640.47 390.962C1643.49 391.09 1646.38 390.032 1648.61 387.986C1650.83 385.937 1652.13 383.148 1652.26 380.125C1652.39 377.104 1651.33 374.212 1649.28 371.986C1645.06 367.389 1637.88 367.085 1633.28 371.309C1632.87 371.691 1632.49 372.095 1632.14 372.521C1628.67 376.808 1628.76 383.128 1632.61 387.309Z" fill="#BDD0FB"/>
<path d="M1670.39 403.856C1671.2 402.855 1671.97 401.806 1672.69 400.707C1674.12 398.525 1675.33 396.195 1676.29 393.775C1676.33 393.666 1676.37 393.557 1676.42 393.448C1676.74 392.605 1676.47 391.677 1675.8 391.136C1675.64 391.005 1675.45 390.896 1675.25 390.817C1674.2 390.412 1673.03 390.939 1672.62 391.984C1671.75 394.252 1670.62 396.435 1669.29 398.474L1669.28 398.475C1669.21 398.587 1669.14 398.698 1669.06 398.809C1665.85 403.606 1661.57 407.421 1656.58 410.031C1653.88 411.447 1650.97 412.508 1647.91 413.173C1647.88 413.179 1647.86 413.184 1647.83 413.189C1647.76 413.205 1647.68 413.222 1647.61 413.237C1638.64 415.1 1629.49 413.364 1621.84 408.345C1620.85 407.696 1619.9 407.002 1618.99 406.266C1612.88 401.313 1608.7 394.467 1607.08 386.665C1605.21 377.703 1606.95 368.553 1611.97 360.899C1616.99 353.251 1624.69 348.002 1633.65 346.137C1642.61 344.274 1651.76 346.01 1659.42 351.029C1660.39 351.667 1661.33 352.354 1662.23 353.082C1666.12 356.242 1669.28 360.218 1671.47 364.737C1671.6 365.016 1671.79 365.25 1672.02 365.432C1672.61 365.912 1673.45 366.038 1674.19 365.683C1675.2 365.191 1675.62 363.978 1675.13 362.964C1672.69 357.907 1669.15 353.457 1664.79 349.923C1663.79 349.106 1662.74 348.339 1661.65 347.625C1653.08 342.01 1642.85 340.066 1632.82 342.152C1622.79 344.238 1614.18 350.093 1608.57 358.666C1602.95 367.229 1601.01 377.466 1603.09 387.494C1604.91 396.222 1609.59 403.881 1616.42 409.421C1617.43 410.244 1618.5 411.021 1619.61 411.748C1636.19 422.618 1658.16 418.937 1670.39 403.856Z" fill="#BDD0FB"/>
<path d="M1465.46 1365.19C1465.46 1365.19 1463.17 1377.48 1461.99 1389.66C1461.52 1394.41 1465.15 1398.58 1469.93 1398.83C1486.15 1399.66 1520.84 1401.3 1533.3 1400.87C1535.18 1400.8 1536.42 1398.9 1535.74 1397.15C1535.18 1395.68 1534.07 1394.49 1532.65 1393.82L1475.57 1366.93L1465.46 1365.19Z" fill="url(#paint6_linear_43_4156)"/>
<path d="M1463.75 1357.94L1465.35 1372.68C1465.35 1372.68 1475.35 1377.45 1482.26 1372.26L1478.26 1355.81L1463.75 1357.94Z" fill="url(#paint7_linear_43_4156)"/>
<path d="M1467.7 1081.16C1466.91 1084.99 1461.82 1272.98 1481.11 1357.44C1481.43 1358.81 1480.72 1360.22 1479.4 1360.75C1476.31 1361.98 1470.25 1363.74 1463 1363.92C1460.76 1363.97 1458.76 1362.49 1458.15 1360.34C1452.59 1340.73 1426 1242.52 1423.3 1148.92C1420.28 1044.33 1423.33 1145.36 1423.33 1145.36L1426.3 1080.75L1467.7 1081.16Z" fill="url(#paint8_linear_43_4156)"/>
<path d="M1399.45 1370.99C1399.45 1370.99 1395.93 1377.17 1392.42 1393.65C1391.78 1396.62 1393.84 1399.5 1396.87 1399.82C1402.22 1400.4 1410.46 1401.16 1417.07 1401.17C1420.11 1401.18 1422.52 1398.55 1422.18 1395.53C1421.5 1389.49 1419.32 1379.58 1412.35 1371.81L1399.45 1370.99Z" fill="url(#paint9_linear_43_4156)"/>
<path d="M1396.59 1352.02L1400.46 1374.32C1400.46 1374.32 1404.46 1377.36 1412.47 1375.26L1410.75 1351.29L1396.59 1352.02Z" fill="url(#paint10_linear_43_4156)"/>
<path d="M1388.1 1086.17C1370.71 1185.21 1389.32 1331.39 1395.8 1360.03C1396.19 1361.78 1397.59 1363.13 1399.36 1363.44C1402.37 1363.97 1407.32 1364.43 1412.22 1363.05C1413.91 1362.58 1415.11 1361.07 1415.2 1359.32C1416.32 1336.23 1416.04 1194.4 1431.9 1138.5C1432.7 1135.67 1434.46 1133.21 1436.87 1131.52L1466.8 1110.67L1469.41 1076.54L1388.1 1086.17Z" fill="url(#paint11_linear_43_4156)"/>
<path d="M1494.63 899.196C1445.38 897.912 1390.89 911.142 1390.89 911.142C1375.39 996.68 1386.57 1095.62 1386.57 1095.62C1424.61 1105.98 1467.78 1090.28 1467.78 1090.28C1474.46 1054.53 1505 954.025 1505 954.025C1529.09 951.267 1548.99 944.512 1565.4 935.487C1553.09 920.931 1547.39 902.506 1544.94 891.622C1527.47 896.869 1509.82 899.592 1494.63 899.196Z" fill="#09005D"/>
<path d="M1640.83 828.026C1636.05 822.135 1629.9 824.841 1629.9 824.841C1622.35 855.393 1584.11 879.859 1544.94 891.622C1547.39 902.506 1553.09 920.932 1565.4 935.487C1630.56 899.667 1640.83 828.026 1640.83 828.026Z" fill="url(#paint12_linear_43_4156)"/>
<path d="M1639.64 829.501C1640.13 831.115 1634.25 833.511 1630.86 826.894C1630.77 823.738 1628.98 810.203 1630.89 807.65C1641.06 794.056 1660.69 777.08 1660.69 777.08C1663.95 780.358 1661.21 783.522 1661.21 783.522L1651.67 793.27C1653.61 796.859 1655.99 799.895 1657.08 804.224C1657.9 807.502 1657.35 810.991 1655.67 813.951C1653.98 816.922 1651.68 820.783 1649.52 823.801C1645.41 829.513 1639.64 829.501 1639.64 829.501Z" fill="url(#paint13_linear_43_4156)"/>
<path d="M1647.48 799.614L1638.8 806.828L1636.03 814.066L1643.62 822.652C1643.62 822.652 1646.34 808.264 1648.29 805.163C1650.23 802.061 1649.25 800.543 1647.48 799.614Z" fill="url(#paint14_linear_43_4156)"/>
<path d="M1409.33 959.021L1390.89 911.142C1390.89 911.142 1344.58 941.966 1336.64 981.532C1345.33 982.255 1361.12 984.668 1376.53 992.635C1380.12 973.95 1409.33 959.021 1409.33 959.021Z" fill="#91B3FA"/>
<path d="M1449.11 1004.29C1449.11 1004.29 1397.17 1032.99 1379.98 1007.89C1376.41 1002.68 1375.6 997.53 1376.53 992.634C1361.12 984.668 1345.33 982.255 1336.64 981.532C1334.24 993.46 1335.33 1006.18 1342.23 1019.09C1372.23 1075.24 1455.83 1017.09 1455.83 1017.09L1449.11 1004.29Z" fill="url(#paint15_linear_43_4156)"/>
<path d="M1445.12 858.728L1429.01 903.907C1428.74 904.655 1429.04 905.489 1429.73 905.881C1433.98 908.283 1449.31 915.258 1467.98 903.674C1469.92 902.468 1471.25 900.482 1471.57 898.215L1477.02 859.032L1445.12 858.728Z" fill="url(#paint16_linear_43_4156)"/>
<path d="M1479.62 817.078C1479.62 817.078 1496.52 849.642 1494.19 862.708C1491.86 875.775 1470.54 874.631 1452.01 863.825L1439.33 828.717L1479.62 817.078Z" fill="url(#paint17_linear_43_4156)"/>
<path d="M1453 846.652C1453.76 846.324 1454.05 845.4 1453.6 844.703C1452.24 842.583 1449.7 838.26 1448.91 834.49C1448.91 834.49 1445.83 832.479 1456.83 829.958C1467.82 827.438 1484.22 823.518 1487.75 814.214C1491.19 805.143 1482.6 782.166 1468.37 800.272C1467.83 800.961 1466.78 800.967 1466.25 800.267C1463.98 797.246 1457.98 790.965 1449.54 794.658C1441.64 798.113 1440.69 803.871 1440.77 806.778C1440.8 807.633 1440.03 808.291 1439.19 808.123C1435.22 807.326 1425.68 806.583 1421.13 816.334C1417.38 824.366 1419.72 828.955 1421.87 831.209C1422.57 831.939 1422.25 833.128 1421.28 833.414C1418.66 834.19 1415.26 836.374 1415.54 842.503C1415.93 850.976 1425.4 850.321 1428.1 849.96C1428.55 849.901 1428.99 850.057 1429.29 850.391C1431.57 852.971 1441.88 863.931 1453.14 865.348C1454.12 865.47 1454.88 864.514 1454.57 863.582L1449.83 849.356C1449.61 848.695 1449.93 847.976 1450.57 847.7L1453 846.652Z" fill="url(#paint18_linear_43_4156)"/>
<path d="M1454.94 848.683C1454.94 848.683 1442.77 840.158 1441.8 847.23C1440.84 854.302 1452.74 857.591 1458.68 855.008L1454.94 848.683Z" fill="url(#paint19_linear_43_4156)"/>
<path d="M1438.5 1049.65L1466.79 950.843C1467.11 949.722 1468.07 948.904 1469.23 948.769C1474.36 948.17 1489.21 946.491 1506.36 945.041C1527.02 943.293 1551.01 941.878 1565.34 943.082C1567.38 943.253 1568.61 945.409 1567.71 947.242C1559.55 963.735 1526.02 1030.82 1509.23 1052.8C1508.67 1053.53 1507.81 1053.96 1506.9 1053.95L1441.25 1053.34C1439.34 1053.32 1437.97 1051.49 1438.5 1049.65Z" fill="url(#paint20_linear_43_4156)"/>
<path d="M1445.33 1025.78C1445.33 1025.78 1441.39 1009.57 1442.98 1003.82C1444.57 998.072 1447.65 990.68 1457.92 992.322C1468.19 993.965 1480.3 998.29 1480.3 998.29C1480.3 998.29 1479.69 1005.78 1471.88 1003.36L1476.72 1007.11C1476.72 1007.11 1476.03 1013.1 1469.44 1009.9L1473.94 1014.87C1473.94 1014.87 1471.11 1019.79 1466.26 1016.63C1461.41 1013.47 1459.09 1027.73 1445.33 1025.78Z" fill="url(#paint21_linear_43_4156)"/>
<path d="M1504.47 974.536C1504.47 979.123 1508.19 982.842 1512.78 982.842C1517.37 982.842 1521.08 979.123 1521.08 974.536C1521.08 969.949 1517.37 966.231 1512.78 966.231C1508.19 966.231 1504.47 969.949 1504.47 974.536Z" fill="#91B3FA"/>
<path d="M1469.99 980.011L1475.75 960.47C1476.46 958.07 1478.39 956.269 1480.79 955.767C1498.84 952.001 1548.26 951.201 1548.76 951.194L1548.72 948.987C1546.69 949.018 1498.6 949.797 1480.34 953.607C1477.14 954.274 1474.57 956.664 1473.64 959.845L1467.87 979.387L1469.99 980.011Z" fill="#BDD0FB"/>
<path d="M2205.33 833.069C2206.11 831.569 2208.33 831.805 2208.79 833.436C2210.47 839.476 2214.53 850.015 2223.05 853.757C2223.48 853.945 2223.88 854.136 2224.28 854.328C2224.66 853.169 2224.67 851.823 2223.74 850.408C2221.09 846.36 2225.88 840.83 2225.88 840.83C2225.88 840.83 2226.19 845.7 2229.89 848.767C2233.08 851.408 2234.61 857.286 2232.43 862.108C2227.82 880.022 2220.92 903.714 2247.82 921.023C2274.72 938.332 2312.6 888.357 2312.6 888.357L2293.8 947.965C2293.8 947.965 2264.78 969.382 2231.02 939.267C2197.26 909.151 2219.64 865.328 2219.64 865.328C2219.64 865.328 2193.89 854.941 2205.33 833.069Z" fill="url(#paint22_linear_43_4156)"/>
<path d="M2317.32 800.775C2317.32 800.775 2309.52 765.815 2349.57 775.069C2349.57 775.069 2369.01 771.893 2369.99 790.24C2369.99 790.24 2382.52 798.496 2373.35 814.374C2373.35 814.374 2410.59 799.991 2426.81 832.631C2443.04 865.271 2428.12 883.23 2412.49 887.908C2412.49 887.908 2425.16 894.268 2419.16 908.629C2413.17 922.989 2382.8 933.112 2364.86 915.648C2364.86 915.648 2313.83 922.393 2314.85 886.343C2314.85 886.343 2291.11 871.014 2316.04 841.221C2340.98 811.428 2317.32 800.775 2317.32 800.775Z" fill="url(#paint23_linear_43_4156)"/>
<path d="M2315.12 881.808C2323.16 879.396 2346.59 874.942 2368.88 895.508C2372.66 898.997 2374.2 904.297 2372.86 909.26C2366.87 931.298 2351.08 996.406 2364.92 1024.58C2364.92 1024.58 2340.52 1051.48 2313.9 1029.8C2313.9 1029.8 2301.95 977.735 2286.31 954.88C2275.5 939.102 2303.53 895.629 2310.62 885.126C2311.7 883.536 2313.28 882.36 2315.12 881.808Z" fill="#91B3FA"/>
<path d="M2337.33 838.026C2337.33 838.026 2349.24 871.689 2350.13 886.54C2350.13 886.54 2336.98 892.52 2324.58 882.426C2324.58 882.426 2323.28 848.802 2321.4 842.782L2337.33 838.026Z" fill="url(#paint24_linear_43_4156)"/>
<path d="M2320.8 792.128C2320.8 792.128 2289.68 835.689 2308.28 848.342C2326.89 860.995 2349.05 830.038 2349.05 830.038C2349.05 830.038 2356.27 806.195 2348.72 798.107C2341.17 790.018 2320.8 792.128 2320.8 792.128Z" fill="url(#paint25_linear_43_4156)"/>
<path d="M2335.21 781.718C2335.21 781.718 2320.91 785.106 2318.91 791.576C2316.9 798.046 2339.19 804.046 2345.43 804.34L2350.46 830.449C2350.46 830.449 2365.33 805.888 2359.44 791.703C2353.55 777.517 2335.21 781.718 2335.21 781.718Z" fill="url(#paint26_linear_43_4156)"/>
<path d="M2343.02 826.833C2343.02 826.833 2355.13 812.801 2359.95 821.948C2364.77 831.096 2349.04 837.964 2343.6 833.473L2343.02 826.833Z" fill="url(#paint27_linear_43_4156)"/>
<path d="M2282.82 1139.11C2282.91 1141.47 2278.76 1160.22 2276.5 1170.22C2275.59 1174.24 2276.23 1178.45 2278.27 1182.03L2356.49 1313.66C2357.43 1315.25 2358.12 1316.98 2358.54 1318.78C2359.97 1324.96 2362.95 1340.1 2361.39 1353.87L2357.35 1362.27L2374.85 1358.3L2378.65 1311.31L2373.7 1308.29C2369.42 1305.68 2366.09 1301.78 2364.18 1297.14C2357.11 1279.97 2339.54 1236.24 2335.02 1214.93C2329.87 1190.71 2302.98 1171.03 2302.98 1171.03L2307.7 1159.86L2282.82 1139.11Z" fill="url(#paint28_linear_43_4156)"/>
<path d="M2394.29 1342.13C2394.29 1342.13 2384.84 1327.15 2383.73 1321.32C2382.62 1315.49 2379.52 1305.19 2373.7 1308.29C2373.7 1308.29 2370.95 1336.62 2371.9 1347.69C2372.85 1358.76 2359.39 1358.4 2359.39 1358.4C2359.39 1358.4 2355.68 1358.92 2352.96 1361.64C2351.08 1363.51 2352.43 1366.77 2355.07 1366.94C2359.48 1367.22 2366.47 1367.29 2373.82 1365.88C2376.39 1365.38 2378.29 1363.19 2378.44 1360.58L2380.38 1327.98L2392.3 1343.03L2394.29 1342.13Z" fill="url(#paint29_linear_43_4156)"/>
<path d="M2329.54 1160.07C2329.54 1160.07 2332.3 1277.82 2332.67 1294.54C2333.05 1311.26 2330.03 1348.32 2313.27 1359.4L2320.56 1364.8C2320.56 1364.8 2329.68 1357.05 2338.59 1342.14C2348.59 1325.39 2351.62 1322.33 2351.62 1322.33L2348.3 1315.53C2346.84 1312.55 2346.41 1309.18 2347.08 1305.94C2350.7 1288.41 2362.79 1230.09 2366.08 1217.53C2369.98 1202.7 2370.25 1182.9 2356.71 1166.33C2343.18 1149.76 2329.54 1160.07 2329.54 1160.07Z" fill="url(#paint30_linear_43_4156)"/>
<path d="M2345.02 1370.11C2345.54 1370.11 2345.98 1369.74 2346.06 1369.22C2346.61 1365.3 2348.94 1349.56 2350.84 1345.49C2353.01 1340.82 2360.13 1321.18 2350.83 1319.51C2350.83 1319.51 2327.73 1353.26 2323.3 1357.81C2318.86 1362.36 2313.27 1359.4 2313.27 1359.4C2313.27 1359.4 2308.95 1360.68 2305.69 1364.84C2304.14 1366.82 2305.58 1369.73 2308.1 1369.75L2323.66 1369.9C2328.18 1369.95 2332.24 1367.2 2333.92 1363.01C2336.66 1356.16 2341.37 1346.13 2346.85 1341.68L2344 1368.96C2343.94 1369.57 2344.41 1370.1 2345.02 1370.11Z" fill="url(#paint31_linear_43_4156)"/>
<path d="M2310.22 1017.1C2310.22 1017.1 2313.72 1028.28 2308.33 1046.69L2274.92 1163.37C2274.39 1165.21 2275.38 1167.13 2277.18 1167.77C2287.17 1171.36 2320.03 1181.5 2364.88 1178.4C2367.14 1178.25 2369.04 1176.65 2369.53 1174.44C2372.48 1161.14 2382.57 1115.75 2384.64 1106.42C2392.55 1070.89 2401.39 1032.57 2362.53 1009.39C2344.62 1017.06 2327.92 1021.59 2310.22 1017.1Z" fill="url(#paint32_linear_43_4156)"/>
<path d="M2372.07 899.906C2372.07 899.906 2410.09 931.502 2419.52 974.677C2428.96 1017.85 2363.97 1022.44 2363.97 1022.44C2363.97 1022.44 2355.14 1012.59 2344.67 1016.1C2334.2 1019.62 2343.86 998.908 2356.11 998.962C2368.37 999.016 2362.69 1008.71 2380.03 1000.85C2396.92 993.204 2407.36 969.545 2364.27 933.681C2361.77 931.602 2359.78 928.952 2358.58 925.932C2350.2 904.859 2356.84 891.046 2372.07 899.906Z" fill="url(#paint33_linear_43_4156)"/>
<path d="M2134.16 1222.49H2120.6V1369.14H2134.16V1222.49Z" fill="#7D97F4"/>
<path d="M2186.77 1371.97H2067.99V1364.12C2067.99 1363.58 2068.43 1363.14 2068.97 1363.14H2185.79C2186.33 1363.14 2186.77 1363.58 2186.77 1364.12V1371.97Z" fill="#7D97F4"/>
<path d="M2209.23 1217.08C2209.23 1225.6 2202.26 1232.58 2193.73 1232.58H2066.02C2057.49 1232.58 2050.52 1225.6 2050.52 1217.08V1203.06C2050.52 1194.54 2057.49 1187.56 2066.02 1187.56H2193.73C2202.26 1187.56 2209.23 1194.54 2209.23 1203.06V1217.08Z" fill="#7D97F4"/>
<path d="M2007.17 1324.61C2007.17 1324.61 1963.32 1343.49 1965.84 1363.25C1965.84 1363.25 2011.15 1354.56 2019.27 1341.61C2027.38 1328.65 2022.91 1321.15 2022.91 1321.15L2007.17 1324.61Z" fill="url(#paint34_linear_43_4156)"/>
<path d="M2017.9 1303.02L2020.13 1322.27C2020.46 1325.17 2018.85 1328.03 2016.1 1329.02C2014.72 1329.52 2012.92 1329.86 2010.55 1329.87C2007.2 1329.89 2004.24 1327.69 2003.35 1324.47L1999.03 1308.9L2017.9 1303.02Z" fill="url(#paint35_linear_43_4156)"/>
<path d="M2113.68 1155.47C2113.68 1155.47 2033.04 1151.74 1992.92 1175.14C1952.79 1198.54 1994.95 1310.85 1994.95 1310.85C1994.95 1310.85 2005.43 1313.1 2020.52 1305.03C2020.52 1305.03 1998.98 1222.82 2036.4 1208.52C2078.46 1192.44 2121.96 1196.35 2121.96 1196.35L2113.9 1158.01L2113.68 1155.47Z" fill="url(#paint36_linear_43_4156)"/>
<path d="M1974.65 1354.58C1983.81 1352.57 2011.01 1341.3 2015.14 1341.46C2019.27 1341.61 2025.12 1347.79 2025.12 1347.79C2025.12 1347.79 2026.12 1351.18 2023.17 1356.03C2016.16 1361.5 2001.07 1371.53 1983.53 1372.62C1970.62 1373.43 1962.85 1368.3 1958.41 1363.31C1962.3 1359.53 1968.54 1355.92 1974.65 1354.58Z" fill="url(#paint37_linear_43_4156)"/>
<path d="M1983.53 1372.62C2001.07 1371.53 2016.16 1361.5 2023.17 1356.03C2021.17 1359.31 2017.37 1363.27 2010.22 1367.31C1992.49 1377.33 1963.18 1375.86 1957.38 1373.61C1952.72 1371.8 1954.16 1367.46 1958.41 1363.32C1962.85 1368.3 1970.62 1373.43 1983.53 1372.62Z" fill="url(#paint38_linear_43_4156)"/>
<path d="M2034.74 1337.72C2034.14 1339.99 2027.72 1346.82 2024.01 1350.62C2022.24 1352.42 2019.68 1353.2 2017.21 1352.66C2015.65 1352.32 2013.88 1351.79 2012.35 1350.95C2010.06 1349.71 2009.26 1346.79 2010.52 1344.5L2019.91 1327.43L2034.74 1337.72Z" fill="url(#paint39_linear_43_4156)"/>
<path d="M2193.59 1148.71C2193.59 1148.71 2200.63 1198.64 2180.28 1208.85C2159.93 1219.06 2115.29 1225.74 2099.92 1251.64C2084.54 1277.53 2056.93 1328.37 2031.8 1342.97C2031.8 1342.97 2017.45 1338.31 2013.25 1331.25C2013.25 1331.25 2043.08 1252.84 2055.52 1233.78C2066.3 1217.27 2082.06 1193.5 2104.44 1183.21C2110.85 1180.27 2111.35 1173.47 2110.23 1166.51L2108.17 1153.83L2193.59 1148.71Z" fill="url(#paint40_linear_43_4156)"/>
<path d="M2004.97 1092.1C2033.5 1100.25 2046.27 1019.95 2046.16 1018L2089.91 1069.14C2089.91 1069.14 2063.84 1115.01 2024.48 1119.89C2014.52 1121.13 2006.05 1119.4 1998.95 1116.15C2004.18 1107.58 2005.38 1099.11 2004.97 1092.1Z" fill="url(#paint41_linear_43_4156)"/>
<path d="M1952.13 1065.82C1964.57 1060.71 1975.12 1070.91 1975.12 1070.91C1987.44 1083.52 1997.21 1089.89 2004.97 1092.1C2005.38 1099.11 2004.18 1107.58 1998.95 1116.15C1983.57 1109.11 1974.61 1094.87 1970.92 1087.76C1969.59 1085.2 1966.47 1084.12 1963.88 1085.38C1961.24 1086.65 1958.53 1088.6 1958.36 1091.24C1958.02 1096.44 1951.82 1096.75 1951.79 1094.83C1951.75 1092.9 1956.59 1082.62 1956.59 1082.62C1956.59 1082.62 1942.3 1091.78 1936.74 1095.29C1931.18 1098.79 1926.44 1093.01 1926.44 1093.01C1926.44 1093.01 1939.7 1070.93 1952.13 1065.82Z" fill="url(#paint42_linear_43_4156)"/>
<path d="M2182.6 984.953C2182.6 984.953 2144.26 958.796 2051.66 1006.1C2051.66 1006.1 2042.12 1018.19 2046.59 1031.82C2051.05 1045.45 2106.04 1119.21 2108.17 1153.83C2108.17 1153.83 2145.76 1175.96 2194.55 1154.02C2194.55 1154.02 2210.91 1062.59 2182.6 984.953Z" fill="#4042E2"/>
<path d="M2102.76 951.51L2117.91 981.202C2119.42 984.149 2119.1 987.718 2117.04 990.304C2112.87 995.532 2104.15 1002.56 2089.29 998.03C2084.87 996.682 2081.48 993.085 2080.42 988.587L2072.56 955.446L2102.76 951.51Z" fill="url(#paint43_linear_43_4156)"/>
<path d="M2211 1088.63C2213.59 1070.58 2165.9 1035.6 2165.9 1035.6L2182.6 984.953C2182.6 984.953 2273.61 1049.9 2254.47 1102.94C2251.73 1110.54 2247.64 1116.08 2242.65 1120.01C2233.01 1100.24 2219.94 1092.03 2211 1088.63Z" fill="url(#paint44_linear_43_4156)"/>
<path d="M2144.46 1093.64C2144.46 1093.64 2198.41 1108.71 2209.6 1092.29C2210.36 1091.17 2210.81 1089.95 2211 1088.63C2219.94 1092.03 2233.01 1100.24 2242.65 1120.01C2217.03 1140.16 2167.64 1117.57 2154.22 1110.8C2152.01 1109.68 2149.48 1109.47 2147.11 1110.2C2142.34 1111.69 2134.07 1114.01 2129.46 1113.75C2122.72 1113.38 2115.49 1137.74 2104.01 1131.58C2104.01 1131.58 2109.23 1089.95 2144.46 1093.64Z" fill="url(#paint45_linear_43_4156)"/>
<path d="M2083.34 902.987C2082.86 903.403 2062.87 938.311 2052.7 956.106C2049.59 961.539 2051.92 968.456 2057.67 970.921L2062.08 972.81C2068.1 975.391 2081.05 977.553 2086.15 973.436L2118.28 939.52C2118.28 939.519 2094.15 893.633 2083.34 902.987Z" fill="url(#paint46_linear_43_4156)"/>
<path d="M2127.33 930.267C2131.27 928.053 2136.01 923.569 2132.32 915.64C2128.57 907.581 2121.16 906.882 2116.39 907.396C2114.46 907.603 2112.71 906.377 2112.15 904.519C2111.83 903.461 2111.05 902.526 2109.36 902.259C2107.08 901.897 2105.66 899.57 2106.26 897.339C2107.4 893.054 2107.2 887.234 2100.31 883.062C2088.08 875.658 2076.65 886.413 2073.47 895.761C2070.29 905.11 2084 912.385 2092.76 913.868C2099.41 914.997 2102.66 922.676 2103.84 926.294C2104.21 927.439 2104.03 928.686 2103.37 929.693L2093.6 944.536C2096.29 947.917 2098.67 951.488 2101.02 955.102C2101.89 954.155 2102.66 953.368 2103.26 952.817C2107.51 948.929 2115.05 950.936 2118.16 952.004C2119.18 952.355 2120.29 952.273 2121.24 951.778C2124.63 950.029 2131.46 945.117 2125.86 935.827C2124.69 933.883 2125.35 931.379 2127.33 930.267Z" fill="url(#paint47_linear_43_4156)"/>
<path d="M2097.46 961.447C2097.46 961.447 2103.71 945.395 2110.8 946.29C2117.9 947.185 2123.21 954.516 2114.05 962.126C2102.66 971.591 2097.46 961.447 2097.46 961.447Z" fill="url(#paint48_linear_43_4156)"/>
<path d="M2075.57 1127.99C2075.47 1128 2075.38 1128 2075.28 1128L1949.24 1127.86C1946.12 1127.86 1943.6 1125.33 1943.6 1122.21C1943.61 1119.1 1946.14 1116.52 1949.25 1116.58L2075.29 1116.72C2078.41 1116.72 2080.93 1119.25 2080.93 1122.36C2080.92 1125.38 2078.55 1127.84 2075.57 1127.99Z" fill="url(#paint49_linear_43_4156)"/>
<path d="M1835.93 1013.55H1940.9C1948.65 1013.55 1955.69 1018.02 1959 1025.03L2007.52 1127.92H1877.08C1872.09 1127.92 1867.6 1124.88 1865.77 1120.23L1828.14 1025.02C1825.96 1019.52 1830.02 1013.55 1835.93 1013.55Z" fill="url(#paint50_linear_43_4156)"/>
<path d="M1909.88 1066.31C1912.16 1073.38 1910.48 1080.24 1906.13 1081.64C1901.78 1083.04 1896.42 1078.45 1894.14 1071.38C1891.87 1064.31 1893.55 1057.45 1897.89 1056.05C1902.24 1054.65 1907.61 1059.25 1909.88 1066.31Z" fill="#91B3FA"/>
<path d="M1852.95 1398.32C1852.25 1398.32 1851.54 1398.19 1850.86 1397.9C1848.17 1396.79 1846.93 1393.77 1848.09 1391.17L1959.17 1141.17C1960.33 1138.57 1963.44 1137.37 1966.13 1138.49C1968.82 1139.61 1970.06 1142.62 1968.9 1145.22L1857.82 1395.22C1856.96 1397.16 1855 1398.32 1852.95 1398.32Z" fill="#91B3FA"/>
<path d="M1978.09 1398.32C1976.04 1398.32 1974.08 1397.16 1973.22 1395.22L1862.14 1145.22C1860.98 1142.62 1862.23 1139.61 1864.91 1138.49C1867.6 1137.37 1870.71 1138.57 1871.87 1141.17L1982.95 1391.17C1984.11 1393.77 1982.87 1396.78 1980.18 1397.9C1979.5 1398.19 1978.79 1398.32 1978.09 1398.32Z" fill="#91B3FA"/>
<path d="M2196.8 1398.32C2196.1 1398.32 2195.39 1398.19 2194.71 1397.9C2192.02 1396.79 2190.78 1393.77 2191.93 1391.17L2303.01 1141.17C2304.17 1138.57 2307.28 1137.37 2309.97 1138.49C2312.66 1139.61 2313.9 1142.62 2312.75 1145.22L2201.66 1395.22C2200.8 1397.16 2198.85 1398.32 2196.8 1398.32Z" fill="#91B3FA"/>
<path d="M2321.93 1398.32C2319.88 1398.32 2317.93 1397.16 2317.07 1395.22L2205.98 1145.22C2204.83 1142.62 2206.07 1139.61 2208.76 1138.49C2211.44 1137.37 2214.56 1138.57 2215.72 1141.17L2326.8 1391.17C2327.95 1393.77 2326.71 1396.78 2324.02 1397.9C2323.34 1398.19 2322.63 1398.32 2321.93 1398.32Z" fill="#91B3FA"/>
<path d="M2334.96 1133.45C2335.25 1131.81 2334.86 1130.12 2333.91 1128.83C2332.96 1127.54 2331.55 1126.79 2330.06 1126.79H1824.72C1822.75 1126.79 1820.93 1127.91 1819.87 1129.76C1818.81 1131.61 1818.67 1133.94 1819.5 1135.93L1824.97 1149.2C1826.23 1152.24 1828.94 1154.19 1831.93 1154.19H2326.59C2329.37 1154.19 2331.76 1151.98 2332.29 1148.92L2334.96 1133.45Z" fill="#91B3FA"/>
<defs>
<linearGradient id="paint0_linear_43_4156" x1="2565.68" y1="1722.41" x2="1582.4" y2="501.231" gradientUnits="userSpaceOnUse">
<stop stop-color="#DAE3FE"/>
<stop offset="1" stop-color="#E9EFFD"/>
</linearGradient>
<linearGradient id="paint1_linear_43_4156" x1="2117.91" y1="413.867" x2="1299.53" y2="1500.39" gradientUnits="userSpaceOnUse">
<stop stop-color="#4F52FF"/>
<stop offset="1" stop-color="#4042E2"/>
</linearGradient>
<linearGradient id="paint2_linear_43_4156" x1="2117.91" y1="413.867" x2="1299.54" y2="1500.39" gradientUnits="userSpaceOnUse">
<stop stop-color="#4F52FF"/>
<stop offset="1" stop-color="#4042E2"/>
</linearGradient>
<linearGradient id="paint3_linear_43_4156" x1="1875.48" y1="249.286" x2="1829.92" y2="608.368" gradientUnits="userSpaceOnUse">
<stop stop-color="#FF928E"/>
<stop offset="1" stop-color="#FE7062"/>
</linearGradient>
<linearGradient id="paint4_linear_43_4156" x1="1704.56" y1="808.212" x2="2070.77" y2="586.681" gradientUnits="userSpaceOnUse">
<stop stop-color="#09005D"/>
<stop offset="1" stop-color="#1A0F91"/>
</linearGradient>
<linearGradient id="paint5_linear_43_4156" x1="1828.02" y1="808.122" x2="2087.24" y2="593.109" gradientUnits="userSpaceOnUse">
<stop stop-color="#09005D"/>
<stop offset="1" stop-color="#1A0F91"/>
</linearGradient>
<linearGradient id="paint6_linear_43_4156" x1="1531.98" y1="1348.81" x2="1319.87" y2="1575.18" gradientUnits="userSpaceOnUse">
<stop stop-color="#09005D"/>
<stop offset="1" stop-color="#1A0F91"/>
</linearGradient>
<linearGradient id="paint7_linear_43_4156" x1="1463.68" y1="1365.13" x2="1482.33" y2="1365.3" gradientUnits="userSpaceOnUse">
<stop stop-color="#FEBBBA"/>
<stop offset="1" stop-color="#FF928E"/>
</linearGradient>
<linearGradient id="paint8_linear_43_4156" x1="1550.98" y1="1090.71" x2="1370.03" y2="1331.15" gradientUnits="userSpaceOnUse">
<stop stop-color="#09005D"/>
<stop offset="1" stop-color="#1A0F91"/>
</linearGradient>
<linearGradient id="paint9_linear_43_4156" x1="1485.3" y1="1305.06" x2="1273.18" y2="1531.43" gradientUnits="userSpaceOnUse">
<stop stop-color="#09005D"/>
<stop offset="1" stop-color="#1A0F91"/>
</linearGradient>
<linearGradient id="paint10_linear_43_4156" x1="1396.48" y1="1363.53" x2="1412.58" y2="1363.68" gradientUnits="userSpaceOnUse">
<stop stop-color="#FEBBBA"/>
<stop offset="1" stop-color="#FF928E"/>
</linearGradient>
<linearGradient id="paint11_linear_43_4156" x1="1519.36" y1="1066.91" x2="1338.41" y2="1307.35" gradientUnits="userSpaceOnUse">
<stop stop-color="#09005D"/>
<stop offset="1" stop-color="#1A0F91"/>
</linearGradient>
<linearGradient id="paint12_linear_43_4156" x1="1545.06" y1="879.338" x2="1640.33" y2="880.243" gradientUnits="userSpaceOnUse">
<stop stop-color="#FEBBBA"/>
<stop offset="1" stop-color="#FF928E"/>
</linearGradient>
<linearGradient id="paint13_linear_43_4156" x1="1619.26" y1="864.074" x2="1553.95" y2="1008.92" gradientUnits="userSpaceOnUse">
<stop stop-color="#FEBBBA"/>
<stop offset="1" stop-color="#FF928E"/>
</linearGradient>
<linearGradient id="paint14_linear_43_4156" x1="1640.49" y1="815.829" x2="1667.55" y2="775.068" gradientUnits="userSpaceOnUse">
<stop stop-color="#FEBBBA"/>
<stop offset="1" stop-color="#FF928E"/>
</linearGradient>
<linearGradient id="paint15_linear_43_4156" x1="1335.3" y1="1012.3" x2="1455.86" y2="1013.44" gradientUnits="userSpaceOnUse">
<stop stop-color="#FEBBBA"/>
<stop offset="1" stop-color="#FF928E"/>
</linearGradient>
<linearGradient id="paint16_linear_43_4156" x1="1423.94" y1="945.722" x2="1469.49" y2="857.291" gradientUnits="userSpaceOnUse">
<stop stop-color="#FEBBBA"/>
<stop offset="1" stop-color="#FF928E"/>
</linearGradient>
<linearGradient id="paint17_linear_43_4156" x1="1488.4" y1="854.522" x2="1436.29" y2="822.057" gradientUnits="userSpaceOnUse">
<stop stop-color="#FEBBBA"/>
<stop offset="1" stop-color="#FF928E"/>
</linearGradient>
<linearGradient id="paint18_linear_43_4156" x1="1408.87" y1="788.096" x2="1476.07" y2="842.218" gradientUnits="userSpaceOnUse">
<stop stop-color="#09005D"/>
<stop offset="1" stop-color="#1A0F91"/>
</linearGradient>
<linearGradient id="paint19_linear_43_4156" x1="1474.52" y1="866.312" x2="1427.64" y2="837.103" gradientUnits="userSpaceOnUse">
<stop stop-color="#FEBBBA"/>
<stop offset="1" stop-color="#FF928E"/>
</linearGradient>
<linearGradient id="paint20_linear_43_4156" x1="1488.19" y1="935.69" x2="1554.72" y2="1212.9" gradientUnits="userSpaceOnUse">
<stop stop-color="#09005D"/>
<stop offset="1" stop-color="#1A0F91"/>
</linearGradient>
<linearGradient id="paint21_linear_43_4156" x1="1442.61" y1="1009.03" x2="1480.3" y2="1009.03" gradientUnits="userSpaceOnUse">
<stop stop-color="#FEBBBA"/>
<stop offset="1" stop-color="#FF928E"/>
</linearGradient>
<linearGradient id="paint22_linear_43_4156" x1="2193.84" y1="791.103" x2="2294.98" y2="953.189" gradientUnits="userSpaceOnUse">
<stop stop-color="#FEBBBA"/>
<stop offset="1" stop-color="#FF928E"/>
</linearGradient>
<linearGradient id="paint23_linear_43_4156" x1="2474.6" y1="776.185" x2="2372.44" y2="844.294" gradientUnits="userSpaceOnUse">
<stop stop-color="#09005D"/>
<stop offset="1" stop-color="#1A0F91"/>
</linearGradient>
<linearGradient id="paint24_linear_43_4156" x1="2318.4" y1="903.225" x2="2337.36" y2="861.115" gradientUnits="userSpaceOnUse">
<stop stop-color="#FEBBBA"/>
<stop offset="1" stop-color="#FF928E"/>
</linearGradient>
<linearGradient id="paint25_linear_43_4156" x1="2317.43" y1="800.889" x2="2355.91" y2="884.2" gradientUnits="userSpaceOnUse">
<stop stop-color="#FEBBBA"/>
<stop offset="1" stop-color="#FF928E"/>
</linearGradient>
<linearGradient id="paint26_linear_43_4156" x1="2447.14" y1="735.009" x2="2344.99" y2="803.121" gradientUnits="userSpaceOnUse">
<stop stop-color="#09005D"/>
<stop offset="1" stop-color="#1A0F91"/>
</linearGradient>
<linearGradient id="paint27_linear_43_4156" x1="2335.53" y1="792.526" x2="2374.01" y2="875.836" gradientUnits="userSpaceOnUse">
<stop stop-color="#FEBBBA"/>
<stop offset="1" stop-color="#FF928E"/>
</linearGradient>
<linearGradient id="paint28_linear_43_4156" x1="2424.8" y1="1427.63" x2="2283.53" y2="1172.64" gradientUnits="userSpaceOnUse">
<stop stop-color="#FEBBBA"/>
<stop offset="1" stop-color="#FF928E"/>
</linearGradient>
<linearGradient id="paint29_linear_43_4156" x1="2394.33" y1="1337.66" x2="2352.34" y2="1337.26" gradientUnits="userSpaceOnUse">
<stop stop-color="#09005D"/>
<stop offset="1" stop-color="#1A0F91"/>
</linearGradient>
<linearGradient id="paint30_linear_43_4156" x1="2263.76" y1="1238.46" x2="2477.99" y2="1309.21" gradientUnits="userSpaceOnUse">
<stop stop-color="#FEBBBA"/>
<stop offset="1" stop-color="#FF928E"/>
</linearGradient>
<linearGradient id="paint31_linear_43_4156" x1="2355.32" y1="1344.88" x2="2305.26" y2="1344.4" gradientUnits="userSpaceOnUse">
<stop stop-color="#09005D"/>
<stop offset="1" stop-color="#1A0F91"/>
</linearGradient>
<linearGradient id="paint32_linear_43_4156" x1="2504.54" y1="970.272" x2="2383.95" y2="1062.72" gradientUnits="userSpaceOnUse">
<stop stop-color="#09005D"/>
<stop offset="1" stop-color="#1A0F91"/>
</linearGradient>
<linearGradient id="paint33_linear_43_4156" x1="2411.24" y1="1034.24" x2="2208.75" y2="734.009" gradientUnits="userSpaceOnUse">
<stop stop-color="#FEBBBA"/>
<stop offset="1" stop-color="#FF928E"/>
</linearGradient>
<linearGradient id="paint34_linear_43_4156" x1="1981.02" y1="1290.01" x2="1994.22" y2="1341.15" gradientUnits="userSpaceOnUse">
<stop stop-color="#09005D"/>
<stop offset="1" stop-color="#1A0F91"/>
</linearGradient>
<linearGradient id="paint35_linear_43_4156" x1="2021.42" y1="1318.14" x2="1998.13" y2="1312.98" gradientUnits="userSpaceOnUse">
<stop stop-color="#FEBBBA"/>
<stop offset="1" stop-color="#FF928E"/>
</linearGradient>
<linearGradient id="paint36_linear_43_4156" x1="2067.28" y1="1263.66" x2="1999.02" y2="1103.07" gradientUnits="userSpaceOnUse">
<stop stop-color="#09005D"/>
<stop offset="1" stop-color="#1A0F91"/>
</linearGradient>
<linearGradient id="paint37_linear_43_4156" x1="1984.3" y1="1339.48" x2="2041.88" y2="1463.38" gradientUnits="userSpaceOnUse">
<stop stop-color="#09005D"/>
<stop offset="1" stop-color="#1A0F91"/>
</linearGradient>
<linearGradient id="paint38_linear_43_4156" x1="2019.77" y1="1371.41" x2="1957.16" y2="1357.55" gradientUnits="userSpaceOnUse">
<stop stop-color="#4F52FF"/>
<stop offset="1" stop-color="#4042E2"/>
</linearGradient>
<linearGradient id="paint39_linear_43_4156" x1="2033.5" y1="1343.35" x2="2011.64" y2="1338.51" gradientUnits="userSpaceOnUse">
<stop stop-color="#FEBBBA"/>
<stop offset="1" stop-color="#FF928E"/>
</linearGradient>
<linearGradient id="paint40_linear_43_4156" x1="2087.65" y1="1340.66" x2="2123.23" y2="1154.02" gradientUnits="userSpaceOnUse">
<stop stop-color="#09005D"/>
<stop offset="1" stop-color="#1A0F91"/>
</linearGradient>
<linearGradient id="paint41_linear_43_4156" x1="2157.2" y1="980.097" x2="1942.17" y2="1146.9" gradientUnits="userSpaceOnUse">
<stop stop-color="#FF928E"/>
<stop offset="1" stop-color="#FE7062"/>
</linearGradient>
<linearGradient id="paint42_linear_43_4156" x1="2005.76" y1="1095.93" x2="1929.53" y2="1079.05" gradientUnits="userSpaceOnUse">
<stop stop-color="#FEBBBA"/>
<stop offset="1" stop-color="#FF928E"/>
</linearGradient>
<linearGradient id="paint43_linear_43_4156" x1="2120.15" y1="980.167" x2="2069.57" y2="968.973" gradientUnits="userSpaceOnUse">
<stop stop-color="#FEBBBA"/>
<stop offset="1" stop-color="#FF928E"/>
</linearGradient>
<linearGradient id="paint44_linear_43_4156" x1="1922.37" y1="1231.75" x2="2127.36" y2="1105.14" gradientUnits="userSpaceOnUse">
<stop stop-color="#FF928E"/>
<stop offset="1" stop-color="#FE7062"/>
</linearGradient>
<linearGradient id="paint45_linear_43_4156" x1="2160.31" y1="1106.59" x2="2361.18" y2="1387.87" gradientUnits="userSpaceOnUse">
<stop stop-color="#FEBBBA"/>
<stop offset="1" stop-color="#FF928E"/>
</linearGradient>
<linearGradient id="paint46_linear_43_4156" x1="2092.15" y1="915.341" x2="2066.74" y2="1034.54" gradientUnits="userSpaceOnUse">
<stop stop-color="#FEBBBA"/>
<stop offset="1" stop-color="#FF928E"/>
</linearGradient>
<linearGradient id="paint47_linear_43_4156" x1="2127.29" y1="947.163" x2="2076.66" y2="888.675" gradientUnits="userSpaceOnUse">
<stop stop-color="#09005D"/>
<stop offset="1" stop-color="#1A0F91"/>
</linearGradient>
<linearGradient id="paint48_linear_43_4156" x1="2102.15" y1="1028.96" x2="2108.45" y2="954.807" gradientUnits="userSpaceOnUse">
<stop stop-color="#FEBBBA"/>
<stop offset="1" stop-color="#FF928E"/>
</linearGradient>
<linearGradient id="paint49_linear_43_4156" x1="2096.95" y1="1094.5" x2="1996.9" y2="1127.32" gradientUnits="userSpaceOnUse">
<stop stop-color="#09005D"/>
<stop offset="1" stop-color="#1A0F91"/>
</linearGradient>
<linearGradient id="paint50_linear_43_4156" x1="1959.51" y1="1028.9" x2="1887.45" y2="1105.06" gradientUnits="userSpaceOnUse">
<stop stop-color="#09005D"/>
<stop offset="1" stop-color="#1A0F91"/>
</linearGradient>
</defs>
</svg>
