<svg width="1235" height="1205" viewBox="0 0 1235 1205" fill="none" xmlns="http://www.w3.org/2000/svg">
<path d="M1096.17 1008.82C1073.59 1032.6 1052.22 1047.93 1035.33 1060.05C836.86 1202.45 602.016 1160.94 552.104 1150.8C478.401 1135.83 335.935 1106.9 232.935 985.772C77.1037 802.517 101.369 513.806 222.242 323.223C244.352 288.362 361.141 94.8761 598.515 63.8471C742.171 45.0685 909.627 82.9424 1030.89 184.541C1285.45 397.804 1267.33 828.635 1096.17 1008.82Z" fill="url(#paint0_linear_43_4160)"/>
<path d="M903.387 903.387C1069.7 737.078 1069.7 467.438 903.387 301.129C737.078 134.82 467.438 134.82 301.129 301.129C134.82 467.438 134.82 737.078 301.129 903.387C467.438 1069.7 737.078 1069.7 903.387 903.387Z" fill="#BDD0FB"/>
<path d="M602.268 965.718C803.001 965.718 965.727 802.991 965.727 602.258C965.727 401.525 803.001 238.799 602.268 238.799C401.535 238.799 238.808 401.525 238.808 602.258C238.808 802.991 401.535 965.718 602.268 965.718Z" fill="url(#paint1_linear_43_4160)"/>
<path d="M602.267 983.923C391.818 983.923 220.604 812.71 220.604 602.258C220.604 391.806 391.818 220.594 602.267 220.594C812.716 220.594 983.93 391.806 983.93 602.258C983.93 812.71 812.716 983.923 602.267 983.923ZM602.267 238.799C401.855 238.799 238.81 401.845 238.81 602.258C238.81 802.671 401.855 965.717 602.267 965.717C802.679 965.717 965.725 802.671 965.725 602.258C965.725 401.845 802.679 238.799 602.267 238.799Z" fill="white"/>
<path d="M602.267 823.84C724.644 823.84 823.849 724.635 823.849 602.258C823.849 479.882 724.644 380.676 602.267 380.676C479.891 380.676 380.685 479.882 380.685 602.258C380.685 724.635 479.891 823.84 602.267 823.84Z" fill="url(#paint2_linear_43_4160)"/>
<path d="M602.267 842.046C470.049 842.046 362.481 734.477 362.481 602.258C362.481 470.04 470.049 362.473 602.267 362.473C734.486 362.473 842.053 470.04 842.053 602.258C842.053 734.477 734.486 842.046 602.267 842.046ZM602.267 398.881C490.124 398.881 398.889 490.115 398.889 602.258C398.889 714.401 490.124 805.638 602.267 805.638C714.41 805.638 805.645 714.401 805.645 602.258C805.645 490.115 714.41 398.881 602.267 398.881Z" fill="white"/>
<path d="M602.267 688.106C649.68 688.106 688.115 649.671 688.115 602.258C688.115 554.846 649.68 516.411 602.267 516.411C554.855 516.411 516.42 554.846 516.42 602.258C516.42 649.671 554.855 688.106 602.267 688.106Z" fill="url(#paint3_linear_43_4160)"/>
<path d="M602.267 706.311C544.893 706.311 498.216 659.634 498.216 602.258C498.216 544.882 544.893 498.205 602.267 498.205C659.641 498.205 706.32 544.882 706.32 602.258C706.32 659.634 659.641 706.311 602.267 706.311ZM602.267 534.613C564.969 534.613 534.624 564.958 534.624 602.258C534.624 639.559 564.969 669.903 602.267 669.903C639.566 669.903 669.912 639.559 669.912 602.258C669.911 564.958 639.566 534.613 602.267 534.613Z" fill="white"/>
<path d="M1008.62 197.005L1017.66 206.048L675.257 548.45L666.214 539.409L1008.62 197.005Z" fill="url(#paint4_linear_43_4160)"/>
<path d="M672.619 517.591C677.806 512.403 702.262 536.859 697.074 542.046L606.37 613.354C603.019 615.988 598.677 611.646 601.311 608.295L672.619 517.591Z" fill="url(#paint5_linear_43_4160)"/>
<path d="M1017.46 206.243L1063.53 210.821L1000.29 274.058C979.572 294.777 950.653 305.11 921.495 302.212L1017.46 206.243Z" fill="#91B3FA"/>
<path d="M1008.42 197.201L1003.84 151.137L940.607 214.374C919.888 235.093 909.555 264.013 912.452 293.17L1008.42 197.201Z" fill="#91B3FA"/>
<g opacity="0.3">
<path d="M376.272 133.44C374.985 134.727 372.898 134.726 371.612 133.439C369.112 130.938 366.467 128.508 363.749 126.218C362.374 125.059 362.185 123.015 363.313 121.624C363.326 121.608 363.339 121.591 363.353 121.574C364.526 120.183 366.605 120.006 367.997 121.179C370.857 123.59 373.642 126.148 376.273 128.78C377.477 129.984 377.553 131.888 376.505 133.181C376.432 133.271 376.355 133.358 376.272 133.44ZM349.756 115.976C346.752 114.078 343.64 112.291 340.501 110.662C338.887 109.824 338.256 107.836 339.093 106.22C339.94 104.601 341.921 103.975 343.536 104.813C346.838 106.526 350.115 108.407 353.276 110.404C354.814 111.376 355.273 113.412 354.301 114.95C354.23 115.062 354.154 115.168 354.073 115.268C353.035 116.547 351.182 116.877 349.756 115.976ZM324.598 103.77C321.257 102.592 317.824 101.545 314.393 100.657C312.631 100.201 311.572 98.4033 312.027 96.6416C312.485 94.882 314.281 93.8219 316.043 94.2766C319.657 95.2114 323.273 96.3146 326.79 97.5558C328.506 98.1611 329.407 100.043 328.802 101.76C328.673 102.126 328.486 102.454 328.255 102.739C327.402 103.791 325.948 104.247 324.598 103.77ZM297.343 97.4979C293.818 97.0951 290.236 96.8418 286.694 96.7423C284.875 96.6908 283.441 95.1745 283.492 93.3561C283.545 91.5374 285.06 90.1051 286.878 90.1543C290.608 90.2594 294.379 90.5269 298.088 90.9491C299.896 91.1557 301.195 92.7885 300.989 94.5965C300.915 95.2435 300.659 95.8254 300.277 96.2964C299.592 97.1415 298.503 97.6295 297.343 97.4979ZM269.369 97.4539C265.852 97.8432 262.301 98.3887 258.817 99.0768C257.03 99.4285 255.298 98.2665 254.946 96.4811C254.593 94.6944 255.756 92.9621 257.541 92.6113C261.207 91.8878 264.943 91.3138 268.644 90.9043C270.453 90.7037 272.081 92.0075 272.281 93.8168C272.382 94.7281 272.101 95.5939 271.566 96.2544C271.039 96.9041 270.266 97.3544 269.369 97.4539ZM242.083 103.6C238.734 104.759 235.394 106.077 232.154 107.517C230.491 108.255 228.543 107.506 227.805 105.844C227.066 104.181 227.814 102.234 229.477 101.494C232.887 99.9787 236.404 98.5924 239.928 97.3726C241.648 96.778 243.524 97.6894 244.119 99.409C244.506 100.526 244.257 101.709 243.563 102.564C243.189 103.026 242.686 103.392 242.083 103.6ZM158.032 192.529C156.271 192.071 155.215 190.271 155.674 188.51C156.613 184.902 157.724 181.286 158.974 177.764C159.583 176.049 161.466 175.152 163.181 175.761C164.896 176.369 165.792 178.253 165.184 179.967C163.997 183.312 162.944 186.745 162.051 190.171C161.929 190.641 161.712 191.06 161.424 191.415C160.635 192.388 159.323 192.866 158.032 192.529ZM216.854 115.635C213.848 117.509 210.887 119.535 208.054 121.661C206.597 122.752 204.531 122.457 203.44 121.001C202.347 119.545 202.649 117.486 204.1 116.388C207.084 114.15 210.202 112.015 213.368 110.042C214.912 109.08 216.944 109.551 217.907 111.095C218.671 112.32 218.532 113.852 217.671 114.914C217.447 115.191 217.173 115.435 216.854 115.635ZM167.663 165.473C166.05 164.632 165.423 162.641 166.265 161.027C167.988 157.723 169.877 154.448 171.878 151.294C172.847 149.751 174.889 149.303 176.426 150.277C177.962 151.251 178.417 153.287 177.443 154.825C175.541 157.822 173.746 160.934 172.109 164.075C172.004 164.276 171.881 164.46 171.744 164.629C170.778 165.821 169.076 166.21 167.663 165.473ZM194.951 133.003C192.442 135.501 190.007 138.139 187.716 140.848C186.54 142.238 184.462 142.411 183.072 141.235C181.701 140.075 181.514 138.034 182.64 136.646C182.655 136.628 182.67 136.609 182.685 136.592C185.097 133.74 187.66 130.962 190.3 128.333C191.59 127.05 193.676 127.054 194.961 128.343C196.16 129.548 196.235 131.449 195.187 132.74C195.114 132.83 195.034 132.918 194.951 133.003Z" fill="#91B3FA"/>
<path d="M157.642 214.242C158.051 213.738 158.316 213.109 158.368 212.412C158.492 210.717 158.655 208.998 158.849 207.299C159.057 205.491 157.759 203.857 155.952 203.65C154.144 203.442 152.507 204.739 152.303 206.548C152.097 208.335 151.927 210.143 151.795 211.927C151.661 213.741 153.024 215.322 154.838 215.455C155.957 215.538 156.986 215.052 157.642 214.242Z" fill="#91B3FA"/>
</g>
<g opacity="0.3">
<path d="M189.963 309.363C190.965 308.128 190.951 306.314 189.855 305.091C188.722 303.827 187.595 302.516 186.508 301.198C185.35 299.793 183.274 299.593 181.869 300.751C180.459 301.914 180.266 303.986 181.423 305.39C182.568 306.778 183.754 308.158 184.947 309.49C186.161 310.845 188.245 310.959 189.6 309.745C189.733 309.626 189.854 309.497 189.963 309.363Z" fill="#91B3FA"/>
<path d="M381.006 309.654C379.792 311.01 377.708 311.125 376.352 309.91C374.996 308.696 374.883 306.616 376.095 305.257C378.407 302.676 380.644 299.957 382.772 297.144C383.859 295.696 385.937 295.407 387.388 296.504C388.839 297.602 389.125 299.669 388.028 301.121C387.106 302.339 386.168 303.538 385.213 304.716C383.851 306.396 382.435 308.058 381.006 309.654ZM393.379 287.355C391.794 286.464 391.23 284.455 392.122 282.869C393.833 279.823 395.434 276.672 396.88 273.503C397.63 271.847 399.59 271.117 401.246 271.873C402.901 272.628 403.631 274.582 402.875 276.238C401.353 279.574 399.668 282.892 397.866 286.096C397.773 286.262 397.667 286.418 397.551 286.561C396.558 287.785 394.8 288.154 393.379 287.355ZM368.139 322.179C365.343 324.551 362.407 326.835 359.412 328.968C357.93 330.023 355.872 329.678 354.816 328.195C353.761 326.712 354.108 324.657 355.589 323.599C358.434 321.574 361.221 319.405 363.876 317.153C365.264 315.976 367.343 316.147 368.521 317.535C369.562 318.763 369.548 320.532 368.569 321.739C368.442 321.896 368.299 322.044 368.139 322.179ZM405.092 261.636C403.348 261.115 402.357 259.278 402.879 257.535C403.878 254.193 404.746 250.768 405.46 247.356C405.831 245.573 407.577 244.432 409.359 244.805C411.14 245.177 412.282 246.922 411.91 248.703C411.159 252.297 410.245 255.904 409.193 259.423C409.065 259.848 408.86 260.229 408.597 260.554C407.781 261.56 406.41 262.03 405.092 261.636ZM344.116 338.347C340.869 340.044 337.504 341.626 334.113 343.048C332.435 343.753 330.505 342.964 329.8 341.286C329.095 339.607 329.885 337.676 331.563 336.972C334.783 335.62 337.98 334.118 341.063 332.506C342.676 331.663 344.667 332.287 345.51 333.9C346.138 335.102 345.952 336.513 345.149 337.503C344.874 337.842 344.527 338.132 344.116 338.347ZM317.129 348.854C313.581 349.802 309.952 350.612 306.342 351.261C304.55 351.582 302.837 350.392 302.515 348.6C302.193 346.807 303.384 345.095 305.176 344.775C308.606 344.158 312.055 343.389 315.427 342.488C317.185 342.018 318.991 343.062 319.462 344.82C319.744 345.88 319.477 346.956 318.836 347.748C318.413 348.27 317.827 348.667 317.129 348.854ZM288.493 353.23C284.82 353.383 281.1 353.383 277.438 353.231C275.619 353.154 274.208 351.619 274.283 349.801C274.359 347.98 275.895 346.57 277.712 346.646C281.193 346.792 284.726 346.791 288.217 346.645C290.036 346.569 291.571 347.982 291.647 349.8C291.682 350.635 291.404 351.41 290.916 352.012C290.34 352.721 289.476 353.189 288.493 353.23ZM259.584 351.255C255.968 350.602 252.337 349.787 248.793 348.832C247.036 348.358 245.995 346.55 246.469 344.792C246.942 343.038 248.751 341.995 250.508 342.469C253.873 343.375 257.32 344.149 260.756 344.769C262.547 345.093 263.736 346.806 263.413 348.597C263.31 349.163 263.07 349.668 262.732 350.085C261.999 350.989 260.81 351.476 259.584 351.255ZM231.801 342.972C228.426 341.542 225.067 339.947 221.816 338.234C220.207 337.385 219.589 335.391 220.438 333.782C221.285 332.177 223.28 331.555 224.89 332.404C227.977 334.032 231.168 335.546 234.374 336.905C236.049 337.615 236.832 339.549 236.122 341.224C235.998 341.516 235.838 341.781 235.648 342.016C234.746 343.128 233.185 343.558 231.801 342.972ZM206.542 328.805C204.343 327.235 202.166 325.577 200.071 323.879C199.313 323.264 198.564 322.643 197.822 322.014C196.435 320.838 196.221 318.753 197.44 317.37C198.615 315.981 200.695 315.81 202.084 316.987C202.788 317.583 203.501 318.176 204.222 318.76C206.214 320.375 208.282 321.95 210.373 323.443C211.853 324.5 212.196 326.559 211.139 328.039C211.098 328.095 211.058 328.149 211.015 328.202C209.926 329.544 207.966 329.824 206.542 328.805Z" fill="#91B3FA"/>
<path d="M413.648 232.674C414.061 232.165 414.326 231.53 414.375 230.827C414.497 229.047 414.584 227.231 414.633 225.43C414.683 223.61 413.249 222.095 411.43 222.045C409.611 221.996 408.095 223.428 408.046 225.249C407.999 226.961 407.916 228.685 407.8 230.375C407.674 232.19 409.045 233.763 410.861 233.888C411.974 233.964 412.996 233.479 413.648 232.674Z" fill="#91B3FA"/>
</g>
<path d="M376.582 190.045C376.448 189.401 375.921 188.914 375.269 188.831L356.676 186.457C352.985 178.519 348.003 171.112 341.795 164.585L346.398 146.427C346.559 145.79 346.299 145.121 345.749 144.761L326.947 132.433C326.398 132.072 325.68 132.101 325.16 132.503L310.343 143.964C301.882 140.873 293.103 139.257 284.352 139.038L274.761 122.934C274.425 122.369 273.767 122.08 273.124 122.214L251.112 126.792C250.469 126.926 249.981 127.453 249.898 128.105L247.524 146.699C239.586 150.388 232.179 155.371 225.652 161.58L207.494 156.977C206.857 156.815 206.188 157.075 205.828 157.625L193.5 176.427C193.14 176.977 193.168 177.694 193.57 178.214L205.031 193.031C201.94 201.492 200.324 210.271 200.106 219.022L184.001 228.613C183.437 228.949 183.147 229.607 183.282 230.25L187.86 252.263C187.993 252.906 188.521 253.393 189.172 253.476L207.766 255.851C211.456 263.789 216.438 271.195 222.647 277.722L218.044 295.88C217.882 296.517 218.143 297.186 218.692 297.546L237.495 309.874C238.044 310.234 238.762 310.206 239.282 309.804L254.099 298.343C262.56 301.434 271.339 303.05 280.09 303.269L289.681 319.373C290.017 319.938 290.674 320.227 291.318 320.093L313.33 315.515C313.973 315.381 314.461 314.854 314.544 314.202L316.918 295.609C324.856 291.919 332.262 286.937 338.79 280.728L356.947 285.331C357.584 285.492 358.253 285.232 358.614 284.683L370.941 265.88C371.302 265.33 371.274 264.613 370.872 264.093L359.41 249.277C362.501 240.815 364.117 232.036 364.336 223.285L380.441 213.695C381.005 213.358 381.294 212.701 381.161 212.058L376.582 190.045Z" fill="#91B3FA"/>
<path d="M297.512 237.794C288.337 246.226 274.012 245.621 265.579 236.445C261.494 232.001 259.385 226.231 259.64 220.199C259.894 214.169 262.482 208.597 266.928 204.513C276.104 196.081 290.429 196.685 298.862 205.862C306.533 214.21 306.724 226.819 299.786 235.376C299.099 236.225 298.34 237.034 297.512 237.794ZM264.908 220.422C264.713 225.047 266.33 229.47 269.462 232.879C275.927 239.913 286.911 240.378 293.946 233.913C300.985 227.448 301.445 216.464 294.979 209.429C288.515 202.394 277.531 201.93 270.496 208.395C269.858 208.981 269.271 209.607 268.735 210.267C266.409 213.138 265.067 216.664 264.908 220.422Z" fill="#BDD0FB"/>
<path d="M324.85 256.293C326.042 254.823 327.167 253.285 328.218 251.681C328.55 251.177 328.872 250.666 329.187 250.151C330.739 247.61 332.085 244.95 333.207 242.212C333.223 242.174 333.238 242.137 333.253 242.1C333.296 241.994 333.339 241.888 333.381 241.781C333.464 241.574 333.545 241.366 333.625 241.158C333.836 240.612 333.658 240.011 333.227 239.661C333.122 239.575 333.002 239.505 332.869 239.454C332.19 239.192 331.428 239.532 331.166 240.21C329.818 243.705 328.085 247.078 326.013 250.235C315.731 265.924 298.478 274.351 280.983 274.127C271.252 274.003 261.446 271.201 252.722 265.48C251.191 264.477 249.723 263.404 248.322 262.267C238.888 254.617 232.427 244.043 229.921 231.992C227.041 218.149 229.725 204.013 237.477 192.189C253.49 167.771 286.361 160.942 310.769 176.945C312.274 177.931 313.723 178.991 315.112 180.117C321.129 184.998 326.011 191.14 329.387 198.122C329.475 198.302 329.597 198.454 329.743 198.571C330.127 198.882 330.672 198.964 331.147 198.734C331.802 198.415 332.079 197.63 331.76 196.973C328.216 189.644 323.09 183.194 316.773 178.071C315.316 176.888 313.794 175.777 312.215 174.74C286.589 157.938 252.068 165.126 235.272 190.743C227.133 203.157 224.316 217.996 227.34 232.529C229.97 245.181 236.754 256.281 246.657 264.312C248.129 265.506 249.67 266.632 251.275 267.685C263.69 275.824 278.529 278.641 293.061 275.619C305.717 272.986 316.819 266.199 324.85 256.293Z" fill="#BDD0FB"/>
<g opacity="0.3">
<path d="M514.775 100.525C515.329 99.8412 515.394 98.8494 514.868 98.0879C513.887 96.666 512.849 95.2539 511.784 93.8918C511.091 93.007 509.813 92.8509 508.927 93.543C508.037 94.2332 507.886 95.5148 508.578 96.4C509.593 97.6978 510.582 99.0433 511.519 100.4C512.156 101.325 513.424 101.557 514.35 100.92C514.513 100.806 514.655 100.673 514.775 100.525Z" fill="#91B3FA"/>
<path d="M504.598 88.6655C503.805 89.4615 502.517 89.4651 501.72 88.6714C499.709 86.6711 497.572 84.7501 495.368 82.9638C494.904 82.5872 494.433 82.2146 493.957 81.8452C493.071 81.1558 492.909 79.8774 493.599 78.9894C494.284 78.1759 495.567 77.9417 496.456 78.6306C496.953 79.0175 497.446 79.4076 497.932 79.8016C500.241 81.6743 502.482 83.6881 504.591 85.7867C505.337 86.5288 505.387 87.7078 504.738 88.5089C504.694 88.5628 504.648 88.6144 504.598 88.6655ZM485.423 76.0147C482.47 74.251 479.382 72.6543 476.244 71.2704C475.215 70.8161 474.75 69.6165 475.203 68.587C475.656 67.5647 476.858 67.0922 477.886 67.5464C481.175 68.9965 484.414 70.6702 487.51 72.5203C488.475 73.0967 488.79 74.3466 488.214 75.3122C488.163 75.3967 488.106 75.4767 488.046 75.5517C487.418 76.3251 486.302 76.5399 485.423 76.0147ZM466.544 67.6971C463.254 66.712 459.868 65.9239 456.477 65.3535C455.37 65.1668 454.622 64.1167 454.809 63.0091C454.996 61.8971 456.043 61.1519 457.153 61.3394C460.708 61.9372 464.261 62.7653 467.711 63.7967C468.787 64.1194 469.4 65.2536 469.078 66.3302C468.998 66.5923 468.871 66.8273 468.709 67.0279C468.205 67.6495 467.358 67.9401 466.544 67.6971ZM446.198 64.272C442.762 64.1238 439.284 64.1876 435.867 64.4635C434.746 64.5531 433.765 63.7183 433.675 62.598C433.586 61.4805 434.419 60.497 435.54 60.4058C439.125 60.1172 442.769 60.0502 446.374 60.2056C447.497 60.2536 448.368 61.2046 448.32 62.3276C448.299 62.7799 448.134 63.1918 447.868 63.5192C447.476 64.0029 446.868 64.3014 446.198 64.272ZM425.633 65.9184C422.265 66.6101 418.91 67.5167 415.657 68.6124C414.593 68.9716 413.438 68.3987 413.079 67.3332C412.72 66.268 413.29 65.1124 414.358 64.7549C417.766 63.6061 421.284 62.6562 424.813 61.93C425.914 61.7049 426.99 62.4133 427.216 63.5137C427.344 64.1357 427.174 64.7497 426.803 65.2068C426.517 65.5592 426.112 65.8193 425.633 65.9184ZM406.09 72.5068C402.995 73.9953 399.965 75.6912 397.082 77.5488C396.138 78.1573 394.878 77.885 394.27 76.9407C393.661 75.996 393.932 74.7406 394.878 74.1266C397.9 72.1786 401.08 70.3994 404.327 68.838C405.34 68.352 406.556 68.7773 407.042 69.7898C407.394 70.5231 407.269 71.3631 406.789 71.955C406.605 72.1809 406.371 72.372 406.09 72.5068ZM388.76 83.6699C386.133 85.8656 383.609 88.2556 381.259 90.7756C380.491 91.5962 379.204 91.641 378.382 90.8739C377.561 90.1081 377.527 88.8324 378.282 87.9963C380.748 85.3566 383.394 82.8501 386.149 80.5473C387.012 79.827 388.295 79.9416 389.016 80.8038C389.65 81.5621 389.637 82.6479 389.036 83.3888C388.955 83.4887 388.863 83.5834 388.76 83.6699ZM366.37 108.267C365.386 107.723 365.031 106.485 365.575 105.501C367.082 102.779 368.764 100.092 370.568 97.5222C370.841 97.1302 371.117 96.7441 371.396 96.3591C372.027 95.4355 373.33 95.2484 374.24 95.9128C375.149 96.5744 375.349 97.8465 374.688 98.7563C374.425 99.1158 374.165 99.4801 373.905 99.8539C372.177 102.313 370.573 104.876 369.136 107.472C369.077 107.579 369.009 107.679 368.935 107.77C368.325 108.523 367.246 108.752 366.37 108.267Z" fill="#91B3FA"/>
</g>
<g opacity="0.3">
<path d="M510.009 204.336C507.74 207.062 505.284 209.672 502.711 212.097C501.893 212.867 500.605 212.83 499.833 212.011C499.062 211.192 499.114 209.907 499.92 209.133C502.374 206.822 504.716 204.332 506.881 201.731C507.6 200.867 508.884 200.75 509.747 201.469C510.604 202.182 510.727 203.451 510.027 204.314C510.021 204.321 510.015 204.329 510.009 204.336ZM513.511 196.351C512.568 195.741 512.297 194.48 512.908 193.537C514.745 190.698 516.428 187.72 517.91 184.683C518.403 183.68 519.622 183.253 520.633 183.749C521.643 184.241 522.06 185.459 521.568 186.47C520.015 189.652 518.251 192.773 516.325 195.748C516.285 195.811 516.242 195.869 516.196 195.926C515.55 196.723 514.394 196.921 513.511 196.351ZM494.517 218.919C491.655 221.016 488.64 222.958 485.556 224.687C484.576 225.237 483.335 224.887 482.786 223.908C482.235 222.928 482.584 221.692 483.563 221.137C486.505 219.487 489.38 217.636 492.112 215.636C493.019 214.971 494.293 215.169 494.956 216.074C495.514 216.836 495.464 217.857 494.896 218.558C494.789 218.691 494.662 218.812 494.517 218.919ZM523.063 177.879C522 177.513 521.436 176.355 521.801 175.292C522.901 172.096 523.815 168.8 524.517 165.495C524.752 164.398 525.833 163.696 526.929 163.927C528.029 164.161 528.732 165.242 528.498 166.341C527.763 169.807 526.804 173.265 525.65 176.617C525.569 176.849 525.452 177.057 525.306 177.236C524.783 177.881 523.893 178.164 523.063 177.879ZM475.966 229.321C472.69 230.666 469.298 231.824 465.882 232.765C464.798 233.063 463.678 232.425 463.379 231.342C463.081 230.258 463.716 229.137 464.802 228.839C468.061 227.944 471.296 226.839 474.419 225.555C475.459 225.128 476.648 225.624 477.075 226.665C477.368 227.377 477.226 228.161 476.772 228.721C476.565 228.976 476.292 229.187 475.966 229.321ZM455.458 234.971C451.949 235.493 448.376 235.806 444.841 235.903C443.718 235.934 442.783 235.049 442.752 233.925C442.721 232.803 443.606 231.866 444.731 231.835C448.102 231.742 451.51 231.443 454.859 230.944C455.971 230.779 457.006 231.546 457.172 232.658C457.259 233.245 457.086 233.812 456.739 234.24C456.429 234.621 455.981 234.893 455.458 234.971ZM434.185 235.547C430.651 235.214 427.105 234.661 423.651 233.904C422.552 233.663 421.858 232.578 422.098 231.48C422.338 230.383 423.425 229.689 424.521 229.928C427.816 230.651 431.196 231.178 434.566 231.494C435.685 231.599 436.508 232.592 436.401 233.711C436.364 234.127 436.202 234.5 435.958 234.801C435.543 235.311 434.89 235.613 434.185 235.547Z" fill="#91B3FA"/>
<path d="M529.638 156.805C529.886 156.5 530.047 156.12 530.084 155.7C530.234 153.964 530.334 152.217 530.381 150.505C530.411 149.382 529.526 148.445 528.402 148.414C527.28 148.386 526.344 149.27 526.311 150.393C526.267 152.025 526.171 153.693 526.028 155.349C525.931 156.469 526.761 157.455 527.881 157.552C528.58 157.612 529.227 157.312 529.638 156.805Z" fill="#91B3FA"/>
</g>
<path d="M505.087 126.831C504.997 126.4 504.645 126.074 504.208 126.019L491.767 124.43C489.297 119.118 485.963 114.162 481.809 109.794L484.889 97.6439C484.997 97.2178 484.823 96.7702 484.455 96.5288L471.873 88.2798C471.506 88.0384 471.025 88.0574 470.678 88.3262L460.763 95.996C455.101 93.9275 449.226 92.8461 443.37 92.6998L436.953 81.9232C436.727 81.5455 436.288 81.352 435.857 81.4416L421.128 84.5051C420.697 84.5947 420.371 84.9475 420.315 85.3836L418.727 97.8251C413.415 100.294 408.459 103.628 404.091 107.783L391.941 104.703C391.515 104.595 391.067 104.769 390.826 105.137L382.576 117.719C382.335 118.087 382.354 118.567 382.623 118.914L390.292 128.829C388.224 134.491 387.142 140.366 386.997 146.222L376.22 152.639C375.842 152.864 375.648 153.304 375.738 153.734L378.802 168.464C378.891 168.895 379.244 169.221 379.68 169.277L392.122 170.865C394.591 176.177 397.925 181.133 402.08 185.501L399 197.652C398.891 198.078 399.066 198.525 399.433 198.767L412.016 207.016C412.383 207.257 412.863 207.239 413.211 206.969L423.126 199.3C428.788 201.369 434.662 202.45 440.518 202.596L446.935 213.373C447.16 213.751 447.6 213.944 448.031 213.854L462.76 210.791C463.191 210.701 463.517 210.349 463.573 209.912L465.161 197.471C470.473 195.002 475.429 191.667 479.797 187.513L491.948 190.593C492.374 190.701 492.821 190.527 493.063 190.159L501.312 177.577C501.553 177.21 501.534 176.729 501.265 176.382L493.596 166.467C495.664 160.805 496.745 154.93 496.891 149.075L507.668 142.657C508.046 142.432 508.239 141.992 508.15 141.561L505.087 126.831Z" fill="#91B3FA"/>
<path d="M452.362 158.982C449.334 161.766 445.404 163.203 441.295 163.028C437.188 162.855 433.392 161.093 430.61 158.064C424.867 151.815 425.28 142.074 431.528 136.311C437.781 130.569 447.538 130.982 453.279 137.231C456.062 140.258 457.499 144.188 457.325 148.297C457.184 151.636 455.992 154.769 453.925 157.319C453.45 157.905 452.927 158.461 452.362 158.982ZM433.606 155.309C435.653 157.537 438.445 158.834 441.468 158.962C444.489 159.09 447.38 158.032 449.607 155.986C451.832 153.937 453.131 151.148 453.259 148.125C453.387 145.104 452.329 142.212 450.283 139.986C446.058 135.389 438.881 135.085 434.283 139.309C433.868 139.691 433.489 140.095 433.144 140.521C429.667 144.808 429.763 151.128 433.606 155.309Z" fill="#BDD0FB"/>
<path d="M471.39 171.856C472.201 170.855 472.967 169.806 473.689 168.707C475.12 166.525 476.332 164.195 477.29 161.775C477.333 161.666 477.375 161.557 477.417 161.448C477.743 160.605 477.469 159.677 476.802 159.136C476.64 159.005 476.454 158.896 476.25 158.817C475.201 158.412 474.027 158.939 473.62 159.984C472.746 162.252 471.624 164.435 470.285 166.474L470.284 166.475C470.212 166.587 470.136 166.698 470.062 166.809C466.851 171.606 462.565 175.421 457.584 178.031C454.879 179.447 451.968 180.508 448.908 181.173C448.883 181.179 448.859 181.184 448.834 181.189C448.757 181.205 448.681 181.222 448.605 181.237C439.644 183.1 430.492 181.364 422.838 176.345C421.847 175.696 420.897 175.002 419.99 174.266C413.883 169.313 409.7 162.467 408.077 154.665C406.213 145.703 407.952 136.553 412.97 128.899C417.988 121.251 425.688 116.002 434.649 114.137C443.61 112.274 452.762 114.01 460.416 119.029C461.391 119.667 462.329 120.354 463.227 121.082C467.123 124.242 470.284 128.218 472.469 132.737C472.604 133.016 472.793 133.25 473.019 133.432C473.612 133.912 474.454 134.038 475.187 133.683C476.197 133.191 476.623 131.978 476.132 130.964C473.687 125.907 470.151 121.457 465.794 117.923C464.788 117.106 463.739 116.339 462.649 115.625C454.084 110.01 443.846 108.066 433.819 110.152C423.794 112.238 415.177 118.093 409.566 126.666C403.95 135.229 402.006 145.466 404.093 155.494C405.907 164.222 410.588 171.881 417.42 177.421C418.434 178.244 419.498 179.021 420.605 179.748C437.187 190.618 459.162 186.937 471.39 171.856Z" fill="#BDD0FB"/>
<path d="M266.459 1133.19C266.459 1133.19 264.167 1145.48 262.985 1157.66C262.523 1162.41 266.155 1166.58 270.929 1166.83C287.149 1167.66 321.845 1169.3 334.305 1168.87C336.178 1168.8 337.42 1166.9 336.744 1165.15C336.177 1163.68 335.069 1162.49 333.648 1161.82L276.567 1134.93L266.459 1133.19Z" fill="url(#paint6_linear_43_4160)"/>
<path d="M264.747 1125.94L266.353 1140.68C266.353 1140.68 276.352 1145.45 283.261 1140.26L279.259 1123.81L264.747 1125.94Z" fill="url(#paint7_linear_43_4160)"/>
<path d="M268.7 849.156C267.91 852.993 262.82 1040.98 282.114 1125.44C282.429 1126.81 281.718 1128.22 280.405 1128.75C277.31 1129.98 271.25 1131.74 264.005 1131.92C261.762 1131.97 259.764 1130.49 259.152 1128.34C253.593 1108.73 226.999 1010.52 224.3 916.918C221.285 812.327 224.334 913.359 224.334 913.359L227.304 848.753L268.7 849.156Z" fill="url(#paint8_linear_43_4160)"/>
<path d="M200.447 1138.99C200.447 1138.99 196.926 1145.17 193.418 1161.65C192.785 1164.62 194.841 1167.5 197.867 1167.82C203.22 1168.4 211.461 1169.16 218.069 1169.17C221.115 1169.18 223.517 1166.55 223.179 1163.53C222.505 1157.49 220.319 1147.58 213.349 1139.81L200.447 1138.99Z" fill="url(#paint9_linear_43_4160)"/>
<path d="M197.588 1120.02L201.457 1142.32C201.457 1142.32 205.464 1145.36 213.469 1143.26L211.749 1119.29L197.588 1120.02Z" fill="url(#paint10_linear_43_4160)"/>
<path d="M189.096 854.167C171.712 953.213 190.322 1099.39 196.796 1128.03C197.193 1129.78 198.592 1131.13 200.362 1131.44C203.368 1131.97 208.322 1132.43 213.224 1131.05C214.912 1130.58 216.11 1129.07 216.195 1127.32C217.321 1104.23 217.045 962.4 232.895 906.501C233.699 903.668 235.457 901.208 237.873 899.525L267.802 878.675L270.407 844.535L189.096 854.167Z" fill="url(#paint11_linear_43_4160)"/>
<path d="M295.631 667.196C246.378 665.912 191.893 679.142 191.893 679.142C176.392 764.68 187.566 863.619 187.566 863.619C225.606 873.984 268.78 858.279 268.78 858.279C275.461 822.528 305.996 722.025 305.996 722.025C330.093 719.267 349.987 712.512 366.402 703.487C354.085 688.931 348.389 670.506 345.942 659.622C328.474 664.869 310.822 667.592 295.631 667.196Z" fill="#09005D"/>
<path d="M441.83 596.026C437.047 590.135 430.896 592.841 430.896 592.841C423.354 623.393 385.108 647.859 345.942 659.622C348.389 670.506 354.085 688.932 366.402 703.487C431.556 667.667 441.83 596.026 441.83 596.026Z" fill="url(#paint12_linear_43_4160)"/>
<path d="M440.641 597.501C441.133 599.115 435.245 601.511 431.856 594.894C431.765 591.738 429.975 578.203 431.885 575.65C442.057 562.056 461.69 545.08 461.69 545.08C464.949 548.358 462.208 551.522 462.208 551.522L452.669 561.27C454.611 564.859 456.992 567.895 458.08 572.224C458.904 575.502 458.348 578.991 456.668 581.951C454.981 584.922 452.683 588.783 450.515 591.801C446.413 597.513 440.641 597.501 440.641 597.501Z" fill="url(#paint13_linear_43_4160)"/>
<path d="M448.478 567.614L439.802 574.828L437.031 582.066L444.623 590.652C444.623 590.652 447.34 576.264 449.288 573.163C451.235 570.061 450.255 568.543 448.478 567.614Z" fill="url(#paint14_linear_43_4160)"/>
<path d="M210.332 727.021L191.893 679.142C191.893 679.142 145.582 709.966 137.637 749.532C146.325 750.255 162.124 752.668 177.535 760.635C181.116 741.95 210.332 727.021 210.332 727.021Z" fill="#91B3FA"/>
<path d="M250.114 772.288C250.114 772.288 198.175 800.991 180.982 775.894C177.413 770.683 176.596 765.53 177.535 760.634C162.124 752.668 146.326 750.255 137.637 749.532C135.242 761.46 136.327 774.181 143.226 787.093C173.226 843.238 256.829 785.09 256.829 785.09L250.114 772.288Z" fill="url(#paint15_linear_43_4160)"/>
<path d="M246.115 626.728L230.009 671.907C229.742 672.655 230.043 673.489 230.735 673.881C234.985 676.283 250.313 683.258 268.975 671.674C270.92 670.468 272.254 668.482 272.569 666.215L278.019 627.032L246.115 626.728Z" fill="url(#paint16_linear_43_4160)"/>
<path d="M280.62 585.078C280.62 585.078 297.523 617.642 295.192 630.708C292.861 643.775 271.538 642.631 253.013 631.825L240.33 596.717L280.62 585.078Z" fill="url(#paint17_linear_43_4160)"/>
<path d="M254 614.652C254.76 614.324 255.048 613.4 254.601 612.703C253.242 610.583 250.699 606.26 249.909 602.49C249.909 602.49 246.834 600.479 257.829 597.958C268.823 595.438 285.22 591.518 288.747 582.214C292.186 573.143 283.597 550.166 269.371 568.272C268.83 568.961 267.782 568.967 267.255 568.267C264.98 565.246 258.983 558.965 250.538 562.658C242.636 566.113 241.695 571.871 241.775 574.778C241.799 575.633 241.028 576.291 240.189 576.123C236.218 575.326 226.677 574.583 222.127 584.334C218.38 592.366 220.723 596.955 222.873 599.209C223.57 599.939 223.25 601.128 222.282 601.414C219.66 602.19 216.263 604.374 216.542 610.503C216.929 618.976 226.404 618.321 229.104 617.96C229.546 617.901 229.99 618.057 230.285 618.391C232.572 620.971 242.883 631.931 254.142 633.348C255.116 633.47 255.882 632.514 255.571 631.582L250.829 617.356C250.608 616.695 250.931 615.976 251.57 615.7L254 614.652Z" fill="url(#paint18_linear_43_4160)"/>
<path d="M255.941 616.683C255.941 616.683 243.766 608.158 242.804 615.23C241.841 622.302 253.741 625.591 259.676 623.008L255.941 616.683Z" fill="url(#paint19_linear_43_4160)"/>
<path d="M239.499 817.649L267.792 718.843C268.113 717.722 269.07 716.904 270.229 716.769C275.355 716.17 290.209 714.491 307.359 713.041C328.017 711.293 352.008 709.878 366.343 711.082C368.381 711.253 369.613 713.409 368.707 715.242C360.555 731.735 327.022 798.824 310.229 820.802C309.673 821.53 308.813 821.956 307.896 821.947L242.252 821.336C240.341 821.318 238.973 819.486 239.499 817.649Z" fill="url(#paint20_linear_43_4160)"/>
<path d="M246.335 793.778C246.335 793.778 242.393 777.572 243.983 771.822C245.573 766.072 248.654 758.68 258.921 760.322C269.188 761.965 281.3 766.29 281.3 766.29C281.3 766.29 280.688 773.779 272.884 771.363L277.724 775.108C277.724 775.108 277.032 781.104 270.441 777.9L274.941 782.866C274.941 782.866 272.11 787.791 267.261 784.632C262.412 781.473 260.087 795.729 246.335 793.778Z" fill="url(#paint21_linear_43_4160)"/>
<path d="M305.473 742.536C305.473 747.123 309.192 750.842 313.778 750.842C318.365 750.842 322.084 747.123 322.084 742.536C322.084 737.949 318.365 734.231 313.778 734.231C309.192 734.231 305.473 737.949 305.473 742.536Z" fill="#91B3FA"/>
<path d="M270.994 748.011L276.754 728.47C277.461 726.07 279.39 724.269 281.788 723.767C299.844 720.001 349.261 719.201 349.758 719.194L349.725 716.987C347.687 717.018 299.598 717.797 281.337 721.607C278.142 722.274 275.574 724.664 274.635 727.845L268.875 747.387L270.994 748.011Z" fill="#BDD0FB"/>
<path d="M1006.33 601.069C1007.11 599.569 1009.33 599.805 1009.79 601.436C1011.47 607.476 1015.53 618.015 1024.05 621.757C1024.48 621.945 1024.88 622.136 1025.28 622.328C1025.66 621.169 1025.67 619.823 1024.74 618.408C1022.09 614.36 1026.88 608.83 1026.88 608.83C1026.88 608.83 1027.19 613.7 1030.89 616.767C1034.08 619.408 1035.61 625.286 1033.43 630.108C1028.82 648.022 1021.92 671.714 1048.82 689.023C1075.72 706.332 1113.6 656.357 1113.6 656.357L1094.8 715.965C1094.8 715.965 1065.78 737.382 1032.02 707.267C998.262 677.151 1020.64 633.328 1020.64 633.328C1020.64 633.328 994.889 622.941 1006.33 601.069Z" fill="url(#paint22_linear_43_4160)"/>
<path d="M1118.32 568.775C1118.32 568.775 1110.52 533.815 1150.57 543.069C1150.57 543.069 1170.01 539.893 1170.99 558.24C1170.99 558.24 1183.52 566.496 1174.35 582.374C1174.35 582.374 1211.59 567.991 1227.81 600.631C1244.04 633.271 1229.12 651.23 1213.49 655.908C1213.49 655.908 1226.16 662.268 1220.16 676.629C1214.17 690.989 1183.8 701.112 1165.86 683.648C1165.86 683.648 1114.83 690.393 1115.85 654.343C1115.85 654.343 1092.11 639.014 1117.04 609.221C1141.98 579.428 1118.32 568.775 1118.32 568.775Z" fill="url(#paint23_linear_43_4160)"/>
<path d="M1116.12 649.808C1124.16 647.396 1147.59 642.942 1169.88 663.508C1173.66 666.997 1175.2 672.297 1173.86 677.26C1167.87 699.298 1152.08 764.406 1165.92 792.577C1165.92 792.577 1141.52 819.479 1114.9 797.797C1114.9 797.797 1102.95 745.735 1087.31 722.88C1076.5 707.102 1104.53 663.629 1111.62 653.126C1112.7 651.536 1114.28 650.36 1116.12 649.808Z" fill="#91B3FA"/>
<path d="M1138.33 606.026C1138.33 606.026 1150.24 639.689 1151.13 654.54C1151.13 654.54 1137.98 660.52 1125.58 650.426C1125.58 650.426 1124.28 616.802 1122.4 610.782L1138.33 606.026Z" fill="url(#paint24_linear_43_4160)"/>
<path d="M1121.8 560.128C1121.8 560.128 1090.68 603.689 1109.28 616.342C1127.89 628.995 1150.05 598.038 1150.05 598.038C1150.05 598.038 1157.27 574.195 1149.72 566.107C1142.17 558.018 1121.8 560.128 1121.8 560.128Z" fill="url(#paint25_linear_43_4160)"/>
<path d="M1136.21 549.718C1136.21 549.718 1121.91 553.106 1119.91 559.576C1117.9 566.046 1140.19 572.046 1146.43 572.34L1151.46 598.449C1151.46 598.449 1166.33 573.888 1160.44 559.703C1154.55 545.517 1136.21 549.718 1136.21 549.718Z" fill="url(#paint26_linear_43_4160)"/>
<path d="M1144.02 594.833C1144.02 594.833 1156.13 580.801 1160.95 589.948C1165.77 599.096 1150.04 605.964 1144.6 601.473L1144.02 594.833Z" fill="url(#paint27_linear_43_4160)"/>
<path d="M1083.82 907.105C1083.91 909.469 1079.76 928.215 1077.5 938.215C1076.59 942.238 1077.23 946.449 1079.27 950.029L1157.49 1081.66C1158.43 1083.25 1159.12 1084.98 1159.54 1086.78C1160.97 1092.96 1163.95 1108.1 1162.39 1121.87L1158.35 1130.27L1175.85 1126.3L1179.65 1079.31L1174.7 1076.29C1170.42 1073.68 1167.09 1069.78 1165.18 1065.14C1158.11 1047.97 1140.54 1004.24 1136.02 982.926C1130.87 958.707 1103.98 939.035 1103.98 939.035L1108.7 927.864L1083.82 907.105Z" fill="url(#paint28_linear_43_4160)"/>
<path d="M1195.29 1110.13C1195.29 1110.13 1185.84 1095.15 1184.73 1089.32C1183.62 1083.49 1180.52 1073.19 1174.7 1076.29C1174.7 1076.29 1171.95 1104.62 1172.9 1115.69C1173.85 1126.76 1160.39 1126.4 1160.39 1126.4C1160.39 1126.4 1156.68 1126.92 1153.96 1129.64C1152.08 1131.51 1153.43 1134.77 1156.07 1134.94C1160.48 1135.22 1167.47 1135.29 1174.82 1133.88C1177.39 1133.38 1179.29 1131.19 1179.44 1128.58L1181.38 1095.98L1193.3 1111.03L1195.29 1110.13Z" fill="url(#paint29_linear_43_4160)"/>
<path d="M1130.54 928.073C1130.54 928.073 1133.3 1045.82 1133.67 1062.54C1134.05 1079.26 1131.03 1116.32 1114.27 1127.4L1121.56 1132.8C1121.56 1132.8 1130.68 1125.05 1139.59 1110.14C1149.59 1093.39 1152.62 1090.33 1152.62 1090.33L1149.3 1083.53C1147.84 1080.55 1147.41 1077.18 1148.08 1073.94C1151.7 1056.41 1163.79 998.087 1167.08 985.528C1170.98 970.703 1171.25 950.905 1157.71 934.333C1144.18 917.76 1130.54 928.073 1130.54 928.073Z" fill="url(#paint30_linear_43_4160)"/>
<path d="M1146.02 1138.11C1146.54 1138.11 1146.98 1137.74 1147.06 1137.22C1147.61 1133.3 1149.94 1117.56 1151.84 1113.49C1154.01 1108.82 1161.13 1089.18 1151.83 1087.51C1151.83 1087.51 1128.73 1121.26 1124.3 1125.81C1119.86 1130.36 1114.27 1127.4 1114.27 1127.4C1114.27 1127.4 1109.95 1128.68 1106.69 1132.84C1105.14 1134.82 1106.58 1137.73 1109.1 1137.75L1124.66 1137.9C1129.18 1137.95 1133.24 1135.2 1134.92 1131.01C1137.66 1124.16 1142.37 1114.13 1147.85 1109.68L1145 1136.96C1144.94 1137.57 1145.41 1138.1 1146.02 1138.11Z" fill="url(#paint31_linear_43_4160)"/>
<path d="M1111.22 785.102C1111.22 785.102 1114.72 796.278 1109.33 814.686L1075.92 931.373C1075.39 933.207 1076.38 935.126 1078.18 935.77C1088.17 939.358 1121.03 949.497 1165.88 946.405C1168.14 946.249 1170.04 944.65 1170.53 942.441C1173.48 929.138 1183.57 883.75 1185.64 874.424C1193.55 838.888 1202.39 800.567 1163.53 777.395C1145.62 785.065 1128.92 789.586 1111.22 785.102Z" fill="url(#paint32_linear_43_4160)"/>
<path d="M1173.07 667.906C1173.07 667.906 1211.09 699.502 1220.52 742.677C1229.96 785.851 1164.97 790.44 1164.97 790.44C1164.97 790.44 1156.14 780.588 1145.67 784.102C1135.2 787.616 1144.86 766.908 1157.11 766.962C1169.37 767.016 1163.69 776.707 1181.03 768.854C1197.92 761.204 1208.36 737.545 1165.27 701.681C1162.77 699.602 1160.78 696.952 1159.58 693.932C1151.2 672.859 1157.84 659.046 1173.07 667.906Z" fill="url(#paint33_linear_43_4160)"/>
<path d="M935.161 990.487H921.6V1137.14H935.161V990.487Z" fill="#7D97F4"/>
<path d="M987.769 1139.97H868.992V1132.12C868.992 1131.58 869.431 1131.14 869.972 1131.14H986.788C987.33 1131.14 987.769 1131.58 987.769 1132.12V1139.97Z" fill="#7D97F4"/>
<path d="M1010.23 985.078C1010.23 993.602 1003.26 1000.58 994.732 1000.58H867.019C858.494 1000.58 851.52 993.602 851.52 985.078V971.064C851.52 962.539 858.494 955.565 867.019 955.565H994.732C1003.26 955.565 1010.23 962.539 1010.23 971.064V985.078Z" fill="#7D97F4"/>
<path d="M808.166 1092.61C808.166 1092.61 764.324 1111.49 766.835 1131.25C766.835 1131.25 812.155 1122.56 820.265 1109.61C828.375 1096.65 823.907 1089.15 823.907 1089.15L808.166 1092.61Z" fill="url(#paint34_linear_43_4160)"/>
<path d="M818.903 1071.02L821.129 1090.27C821.465 1093.17 819.852 1096.03 817.102 1097.02C815.725 1097.52 813.917 1097.86 811.547 1097.87C808.202 1097.89 805.24 1095.69 804.347 1092.47L800.035 1076.9L818.903 1071.02Z" fill="url(#paint35_linear_43_4160)"/>
<path d="M914.678 923.471C914.678 923.471 834.04 919.739 793.915 943.139C753.79 966.539 795.95 1078.85 795.95 1078.85C795.95 1078.85 806.432 1081.1 821.523 1073.03C821.523 1073.03 799.985 990.82 837.398 976.516C879.459 960.436 922.964 964.348 922.964 964.348L914.904 926.01L914.678 923.471Z" fill="url(#paint36_linear_43_4160)"/>
<path d="M775.647 1122.58C784.815 1120.57 812.006 1109.3 816.136 1109.46C820.265 1109.61 826.116 1115.79 826.116 1115.79C826.116 1115.79 827.124 1119.18 824.171 1124.03C817.164 1129.5 802.073 1139.53 784.527 1140.62C771.62 1141.43 763.855 1136.3 759.413 1131.31C763.301 1127.53 769.541 1123.92 775.647 1122.58Z" fill="url(#paint37_linear_43_4160)"/>
<path d="M784.527 1140.62C802.073 1139.53 817.164 1129.5 824.171 1124.03C822.174 1127.31 818.373 1131.27 811.222 1135.31C793.491 1145.33 764.185 1143.86 758.375 1141.61C753.72 1139.8 755.159 1135.46 759.412 1131.32C763.854 1136.3 771.62 1141.43 784.527 1140.62Z" fill="url(#paint38_linear_43_4160)"/>
<path d="M835.744 1105.72C835.144 1107.99 828.721 1114.82 825.008 1118.62C823.244 1120.42 820.682 1121.2 818.214 1120.66C816.649 1120.32 814.882 1119.79 813.353 1118.95C811.057 1117.71 810.259 1114.79 811.518 1112.5L820.908 1095.43L835.744 1105.72Z" fill="url(#paint39_linear_43_4160)"/>
<path d="M994.593 916.708C994.593 916.708 1001.63 966.642 981.28 976.849C960.929 987.056 916.29 993.738 900.915 1019.64C885.541 1045.53 857.927 1096.37 832.798 1110.97C832.798 1110.97 818.447 1106.31 814.252 1099.25C814.252 1099.25 844.08 1020.84 856.523 1001.78C867.299 985.274 883.057 961.496 905.444 951.212C911.852 948.268 912.355 941.469 911.226 934.507L909.172 921.831L994.593 916.708Z" fill="url(#paint40_linear_43_4160)"/>
<path d="M805.971 860.103C834.503 868.248 847.274 787.949 847.159 785.995L890.905 837.144C890.905 837.144 864.84 883.01 825.48 887.891C815.521 889.126 807.052 887.403 799.946 884.148C805.181 875.575 806.377 867.108 805.971 860.103Z" fill="url(#paint41_linear_43_4160)"/>
<path d="M753.132 833.82C765.568 828.71 776.117 838.908 776.117 838.908C788.439 851.521 798.212 857.888 805.97 860.103C806.376 867.108 805.181 875.576 799.946 884.148C784.572 877.106 775.61 862.868 771.919 855.763C770.59 853.205 767.474 852.122 764.879 853.377C762.243 854.651 759.527 856.595 759.357 859.236C759.022 864.445 752.824 864.751 752.787 862.828C752.751 860.904 757.587 850.618 757.587 850.618C757.587 850.618 743.299 859.783 737.737 863.289C732.175 866.795 727.438 861.009 727.438 861.009C727.438 861.009 740.697 838.931 753.132 833.82Z" fill="url(#paint42_linear_43_4160)"/>
<path d="M983.601 752.953C983.601 752.953 945.259 726.796 852.656 774.103C852.656 774.103 843.119 786.192 847.587 799.82C852.054 813.449 907.036 887.205 909.173 921.831C909.173 921.831 946.758 943.955 995.549 922.021C995.549 922.021 1011.91 830.592 983.601 752.953Z" fill="#4042E2"/>
<path d="M903.76 719.51L918.913 749.202C920.417 752.149 920.103 755.718 918.038 758.304C913.865 763.532 905.155 770.559 890.289 766.03C885.867 764.682 882.484 761.085 881.417 756.587L873.563 723.446L903.76 719.51Z" fill="url(#paint43_linear_43_4160)"/>
<path d="M1012 856.632C1014.59 838.584 966.897 803.602 966.897 803.602L983.602 752.953C983.602 752.953 1074.61 817.9 1055.47 870.939C1052.73 878.542 1048.64 884.082 1043.65 888.008C1034.01 868.242 1020.94 860.028 1012 856.632Z" fill="url(#paint44_linear_43_4160)"/>
<path d="M945.458 861.641C945.458 861.641 999.409 876.709 1010.6 860.287C1011.36 859.173 1011.81 857.946 1012 856.632C1020.94 860.028 1034.01 868.242 1043.65 888.008C1018.03 908.159 968.641 885.57 955.221 878.798C953.013 877.684 950.475 877.467 948.114 878.203C943.342 879.693 935.071 882.005 930.463 881.752C923.721 881.382 916.485 905.745 905.012 899.577C905.012 899.577 910.226 857.954 945.458 861.641Z" fill="url(#paint45_linear_43_4160)"/>
<path d="M884.338 670.987C883.858 671.403 863.87 706.311 853.697 724.106C850.591 729.539 852.917 736.456 858.669 738.921L863.076 740.81C869.099 743.391 882.049 745.553 887.147 741.436L919.277 707.52C919.277 707.519 895.146 661.633 884.338 670.987Z" fill="url(#paint46_linear_43_4160)"/>
<path d="M928.33 698.267C932.27 696.053 937.008 691.569 933.32 683.64C929.57 675.581 922.161 674.882 917.388 675.396C915.458 675.603 913.712 674.377 913.151 672.519C912.832 671.461 912.049 670.526 910.357 670.259C908.077 669.897 906.661 667.57 907.256 665.339C908.399 661.054 908.204 655.234 901.312 651.062C889.083 643.658 877.652 654.413 874.468 663.761C871.285 673.11 885 680.385 893.756 681.868C900.414 682.997 903.663 690.676 904.838 694.294C905.21 695.439 905.032 696.686 904.37 697.693L894.601 712.536C897.288 715.917 899.669 719.488 902.016 723.102C902.894 722.155 903.663 721.368 904.263 720.817C908.506 716.929 916.051 718.936 919.159 720.004C920.178 720.355 921.286 720.273 922.243 719.778C925.626 718.029 932.457 713.117 926.859 703.827C925.687 701.883 926.351 699.379 928.33 698.267Z" fill="url(#paint47_linear_43_4160)"/>
<path d="M898.46 729.447C898.46 729.447 904.705 713.395 911.804 714.29C918.904 715.185 924.214 722.516 915.052 730.126C903.655 739.591 898.46 729.447 898.46 729.447Z" fill="url(#paint48_linear_43_4160)"/>
<path d="M876.569 895.992C876.472 895.996 876.376 895.999 876.279 895.999L750.239 895.861C747.124 895.858 744.6 893.33 744.604 890.214C744.607 887.097 747.144 884.522 750.252 884.579L876.292 884.716C879.407 884.719 881.93 887.247 881.927 890.363C881.924 893.381 879.55 895.844 876.569 895.992Z" fill="url(#paint49_linear_43_4160)"/>
<path d="M636.934 781.555H741.901C749.645 781.555 756.693 786.023 759.996 793.027L808.522 895.924H678.076C673.086 895.924 668.603 892.875 666.768 888.234L629.138 793.018C626.964 787.517 631.019 781.555 636.934 781.555Z" fill="url(#paint50_linear_43_4160)"/>
<path d="M710.885 834.313C713.159 841.38 711.479 848.244 707.131 849.643C702.784 851.043 697.416 846.448 695.141 839.381C692.866 832.313 694.547 825.45 698.894 824.051C703.242 822.652 708.61 827.246 710.885 834.313Z" fill="#91B3FA"/>
<path d="M653.952 1166.32C653.254 1166.32 652.544 1166.19 651.862 1165.9C649.175 1164.79 647.933 1161.77 649.089 1159.17L760.17 909.17C761.326 906.57 764.439 905.369 767.129 906.486C769.816 907.605 771.057 910.622 769.901 913.223L658.82 1163.22C657.958 1165.16 656.005 1166.32 653.952 1166.32Z" fill="#91B3FA"/>
<path d="M779.09 1166.32C777.037 1166.32 775.084 1165.16 774.221 1163.22L663.14 913.222C661.984 910.621 663.225 907.605 665.913 906.486C668.598 905.367 671.714 906.568 672.871 909.17L783.952 1159.17C785.108 1161.77 783.867 1164.78 781.18 1165.9C780.498 1166.19 779.788 1166.32 779.09 1166.32Z" fill="#91B3FA"/>
<path d="M997.796 1166.32C997.098 1166.32 996.389 1166.19 995.706 1165.9C993.019 1164.79 991.777 1161.77 992.933 1159.17L1104.01 909.17C1105.17 906.57 1108.28 905.369 1110.97 906.486C1113.66 907.605 1114.9 910.621 1113.75 913.223L1002.66 1163.22C1001.8 1165.16 999.849 1166.32 997.796 1166.32Z" fill="#91B3FA"/>
<path d="M1122.93 1166.32C1120.88 1166.32 1118.93 1165.16 1118.07 1163.22L1006.98 913.222C1005.83 910.621 1007.07 907.605 1009.76 906.486C1012.44 905.367 1015.56 906.568 1016.72 909.17L1127.8 1159.17C1128.95 1161.77 1127.71 1164.78 1125.02 1165.9C1124.34 1166.19 1123.63 1166.32 1122.93 1166.32Z" fill="#91B3FA"/>
<path d="M1135.96 901.452C1136.25 899.812 1135.86 898.116 1134.91 896.828C1133.96 895.539 1132.55 894.793 1131.06 894.793H625.716C623.754 894.793 621.928 895.913 620.871 897.763C619.814 899.614 619.672 901.939 620.495 903.933L625.971 917.202C627.225 920.241 629.942 922.187 632.932 922.187H1127.59C1130.37 922.187 1132.76 919.979 1133.29 916.922L1135.96 901.452Z" fill="#91B3FA"/>
<defs>
<linearGradient id="paint0_linear_43_4160" x1="1366.68" y1="1490.41" x2="383.395" y2="269.231" gradientUnits="userSpaceOnUse">
<stop stop-color="#DAE3FE"/>
<stop offset="1" stop-color="#E9EFFD"/>
</linearGradient>
<linearGradient id="paint1_linear_43_4160" x1="918.908" y1="181.867" x2="100.535" y2="1268.39" gradientUnits="userSpaceOnUse">
<stop stop-color="#4F52FF"/>
<stop offset="1" stop-color="#4042E2"/>
</linearGradient>
<linearGradient id="paint2_linear_43_4160" x1="918.908" y1="181.867" x2="100.536" y2="1268.39" gradientUnits="userSpaceOnUse">
<stop stop-color="#4F52FF"/>
<stop offset="1" stop-color="#4042E2"/>
</linearGradient>
<linearGradient id="paint3_linear_43_4160" x1="676.48" y1="17.2862" x2="630.925" y2="376.368" gradientUnits="userSpaceOnUse">
<stop stop-color="#FF928E"/>
<stop offset="1" stop-color="#FE7062"/>
</linearGradient>
<linearGradient id="paint4_linear_43_4160" x1="505.564" y1="576.212" x2="871.771" y2="354.681" gradientUnits="userSpaceOnUse">
<stop stop-color="#09005D"/>
<stop offset="1" stop-color="#1A0F91"/>
</linearGradient>
<linearGradient id="paint5_linear_43_4160" x1="629.015" y1="576.122" x2="888.236" y2="361.109" gradientUnits="userSpaceOnUse">
<stop stop-color="#09005D"/>
<stop offset="1" stop-color="#1A0F91"/>
</linearGradient>
<linearGradient id="paint6_linear_43_4160" x1="332.983" y1="1116.81" x2="120.873" y2="1343.18" gradientUnits="userSpaceOnUse">
<stop stop-color="#09005D"/>
<stop offset="1" stop-color="#1A0F91"/>
</linearGradient>
<linearGradient id="paint7_linear_43_4160" x1="264.679" y1="1133.13" x2="283.327" y2="1133.3" gradientUnits="userSpaceOnUse">
<stop stop-color="#FEBBBA"/>
<stop offset="1" stop-color="#FF928E"/>
</linearGradient>
<linearGradient id="paint8_linear_43_4160" x1="351.979" y1="858.707" x2="171.027" y2="1099.15" gradientUnits="userSpaceOnUse">
<stop stop-color="#09005D"/>
<stop offset="1" stop-color="#1A0F91"/>
</linearGradient>
<linearGradient id="paint9_linear_43_4160" x1="286.298" y1="1073.06" x2="74.1795" y2="1299.43" gradientUnits="userSpaceOnUse">
<stop stop-color="#09005D"/>
<stop offset="1" stop-color="#1A0F91"/>
</linearGradient>
<linearGradient id="paint10_linear_43_4160" x1="197.479" y1="1131.53" x2="213.579" y2="1131.68" gradientUnits="userSpaceOnUse">
<stop stop-color="#FEBBBA"/>
<stop offset="1" stop-color="#FF928E"/>
</linearGradient>
<linearGradient id="paint11_linear_43_4160" x1="320.362" y1="834.913" x2="139.412" y2="1075.35" gradientUnits="userSpaceOnUse">
<stop stop-color="#09005D"/>
<stop offset="1" stop-color="#1A0F91"/>
</linearGradient>
<linearGradient id="paint12_linear_43_4160" x1="346.059" y1="647.338" x2="441.334" y2="648.243" gradientUnits="userSpaceOnUse">
<stop stop-color="#FEBBBA"/>
<stop offset="1" stop-color="#FF928E"/>
</linearGradient>
<linearGradient id="paint13_linear_43_4160" x1="420.263" y1="632.074" x2="354.95" y2="776.923" gradientUnits="userSpaceOnUse">
<stop stop-color="#FEBBBA"/>
<stop offset="1" stop-color="#FF928E"/>
</linearGradient>
<linearGradient id="paint14_linear_43_4160" x1="441.489" y1="583.829" x2="468.555" y2="543.068" gradientUnits="userSpaceOnUse">
<stop stop-color="#FEBBBA"/>
<stop offset="1" stop-color="#FF928E"/>
</linearGradient>
<linearGradient id="paint15_linear_43_4160" x1="136.296" y1="780.299" x2="256.864" y2="781.445" gradientUnits="userSpaceOnUse">
<stop stop-color="#FEBBBA"/>
<stop offset="1" stop-color="#FF928E"/>
</linearGradient>
<linearGradient id="paint16_linear_43_4160" x1="224.936" y1="713.722" x2="270.491" y2="625.291" gradientUnits="userSpaceOnUse">
<stop stop-color="#FEBBBA"/>
<stop offset="1" stop-color="#FF928E"/>
</linearGradient>
<linearGradient id="paint17_linear_43_4160" x1="289.401" y1="622.522" x2="237.292" y2="590.057" gradientUnits="userSpaceOnUse">
<stop stop-color="#FEBBBA"/>
<stop offset="1" stop-color="#FF928E"/>
</linearGradient>
<linearGradient id="paint18_linear_43_4160" x1="209.869" y1="556.096" x2="277.071" y2="610.218" gradientUnits="userSpaceOnUse">
<stop stop-color="#09005D"/>
<stop offset="1" stop-color="#1A0F91"/>
</linearGradient>
<linearGradient id="paint19_linear_43_4160" x1="275.52" y1="634.312" x2="228.638" y2="605.103" gradientUnits="userSpaceOnUse">
<stop stop-color="#FEBBBA"/>
<stop offset="1" stop-color="#FF928E"/>
</linearGradient>
<linearGradient id="paint20_linear_43_4160" x1="289.193" y1="703.69" x2="355.722" y2="980.896" gradientUnits="userSpaceOnUse">
<stop stop-color="#09005D"/>
<stop offset="1" stop-color="#1A0F91"/>
</linearGradient>
<linearGradient id="paint21_linear_43_4160" x1="243.606" y1="777.026" x2="281.3" y2="777.026" gradientUnits="userSpaceOnUse">
<stop stop-color="#FEBBBA"/>
<stop offset="1" stop-color="#FF928E"/>
</linearGradient>
<linearGradient id="paint22_linear_43_4160" x1="994.842" y1="559.103" x2="1095.98" y2="721.189" gradientUnits="userSpaceOnUse">
<stop stop-color="#FEBBBA"/>
<stop offset="1" stop-color="#FF928E"/>
</linearGradient>
<linearGradient id="paint23_linear_43_4160" x1="1275.6" y1="544.185" x2="1173.44" y2="612.294" gradientUnits="userSpaceOnUse">
<stop stop-color="#09005D"/>
<stop offset="1" stop-color="#1A0F91"/>
</linearGradient>
<linearGradient id="paint24_linear_43_4160" x1="1119.4" y1="671.225" x2="1138.36" y2="629.115" gradientUnits="userSpaceOnUse">
<stop stop-color="#FEBBBA"/>
<stop offset="1" stop-color="#FF928E"/>
</linearGradient>
<linearGradient id="paint25_linear_43_4160" x1="1118.43" y1="568.889" x2="1156.91" y2="652.2" gradientUnits="userSpaceOnUse">
<stop stop-color="#FEBBBA"/>
<stop offset="1" stop-color="#FF928E"/>
</linearGradient>
<linearGradient id="paint26_linear_43_4160" x1="1248.14" y1="503.009" x2="1145.99" y2="571.121" gradientUnits="userSpaceOnUse">
<stop stop-color="#09005D"/>
<stop offset="1" stop-color="#1A0F91"/>
</linearGradient>
<linearGradient id="paint27_linear_43_4160" x1="1136.53" y1="560.526" x2="1175.01" y2="643.836" gradientUnits="userSpaceOnUse">
<stop stop-color="#FEBBBA"/>
<stop offset="1" stop-color="#FF928E"/>
</linearGradient>
<linearGradient id="paint28_linear_43_4160" x1="1225.8" y1="1195.63" x2="1084.53" y2="940.642" gradientUnits="userSpaceOnUse">
<stop stop-color="#FEBBBA"/>
<stop offset="1" stop-color="#FF928E"/>
</linearGradient>
<linearGradient id="paint29_linear_43_4160" x1="1195.33" y1="1105.66" x2="1153.34" y2="1105.26" gradientUnits="userSpaceOnUse">
<stop stop-color="#09005D"/>
<stop offset="1" stop-color="#1A0F91"/>
</linearGradient>
<linearGradient id="paint30_linear_43_4160" x1="1064.76" y1="1006.46" x2="1278.99" y2="1077.21" gradientUnits="userSpaceOnUse">
<stop stop-color="#FEBBBA"/>
<stop offset="1" stop-color="#FF928E"/>
</linearGradient>
<linearGradient id="paint31_linear_43_4160" x1="1156.32" y1="1112.88" x2="1106.26" y2="1112.4" gradientUnits="userSpaceOnUse">
<stop stop-color="#09005D"/>
<stop offset="1" stop-color="#1A0F91"/>
</linearGradient>
<linearGradient id="paint32_linear_43_4160" x1="1305.54" y1="738.272" x2="1184.95" y2="830.723" gradientUnits="userSpaceOnUse">
<stop stop-color="#09005D"/>
<stop offset="1" stop-color="#1A0F91"/>
</linearGradient>
<linearGradient id="paint33_linear_43_4160" x1="1212.24" y1="802.237" x2="1009.75" y2="502.009" gradientUnits="userSpaceOnUse">
<stop stop-color="#FEBBBA"/>
<stop offset="1" stop-color="#FF928E"/>
</linearGradient>
<linearGradient id="paint34_linear_43_4160" x1="782.018" y1="1058.01" x2="795.218" y2="1109.15" gradientUnits="userSpaceOnUse">
<stop stop-color="#09005D"/>
<stop offset="1" stop-color="#1A0F91"/>
</linearGradient>
<linearGradient id="paint35_linear_43_4160" x1="822.417" y1="1086.14" x2="799.132" y2="1080.98" gradientUnits="userSpaceOnUse">
<stop stop-color="#FEBBBA"/>
<stop offset="1" stop-color="#FF928E"/>
</linearGradient>
<linearGradient id="paint36_linear_43_4160" x1="868.277" y1="1031.66" x2="800.023" y2="871.074" gradientUnits="userSpaceOnUse">
<stop stop-color="#09005D"/>
<stop offset="1" stop-color="#1A0F91"/>
</linearGradient>
<linearGradient id="paint37_linear_43_4160" x1="785.295" y1="1107.48" x2="842.875" y2="1231.38" gradientUnits="userSpaceOnUse">
<stop stop-color="#09005D"/>
<stop offset="1" stop-color="#1A0F91"/>
</linearGradient>
<linearGradient id="paint38_linear_43_4160" x1="820.768" y1="1139.41" x2="758.156" y2="1125.55" gradientUnits="userSpaceOnUse">
<stop stop-color="#4F52FF"/>
<stop offset="1" stop-color="#4042E2"/>
</linearGradient>
<linearGradient id="paint39_linear_43_4160" x1="834.498" y1="1111.35" x2="812.645" y2="1106.51" gradientUnits="userSpaceOnUse">
<stop stop-color="#FEBBBA"/>
<stop offset="1" stop-color="#FF928E"/>
</linearGradient>
<linearGradient id="paint40_linear_43_4160" x1="888.647" y1="1108.66" x2="924.233" y2="922.024" gradientUnits="userSpaceOnUse">
<stop stop-color="#09005D"/>
<stop offset="1" stop-color="#1A0F91"/>
</linearGradient>
<linearGradient id="paint41_linear_43_4160" x1="958.204" y1="748.097" x2="743.167" y2="914.902" gradientUnits="userSpaceOnUse">
<stop stop-color="#FF928E"/>
<stop offset="1" stop-color="#FE7062"/>
</linearGradient>
<linearGradient id="paint42_linear_43_4160" x1="806.758" y1="863.925" x2="730.527" y2="847.054" gradientUnits="userSpaceOnUse">
<stop stop-color="#FEBBBA"/>
<stop offset="1" stop-color="#FF928E"/>
</linearGradient>
<linearGradient id="paint43_linear_43_4160" x1="921.147" y1="748.167" x2="870.569" y2="736.973" gradientUnits="userSpaceOnUse">
<stop stop-color="#FEBBBA"/>
<stop offset="1" stop-color="#FF928E"/>
</linearGradient>
<linearGradient id="paint44_linear_43_4160" x1="723.373" y1="999.752" x2="928.361" y2="873.142" gradientUnits="userSpaceOnUse">
<stop stop-color="#FF928E"/>
<stop offset="1" stop-color="#FE7062"/>
</linearGradient>
<linearGradient id="paint45_linear_43_4160" x1="961.313" y1="874.593" x2="1162.18" y2="1155.87" gradientUnits="userSpaceOnUse">
<stop stop-color="#FEBBBA"/>
<stop offset="1" stop-color="#FF928E"/>
</linearGradient>
<linearGradient id="paint46_linear_43_4160" x1="893.153" y1="683.341" x2="867.743" y2="802.539" gradientUnits="userSpaceOnUse">
<stop stop-color="#FEBBBA"/>
<stop offset="1" stop-color="#FF928E"/>
</linearGradient>
<linearGradient id="paint47_linear_43_4160" x1="928.293" y1="715.163" x2="877.664" y2="656.675" gradientUnits="userSpaceOnUse">
<stop stop-color="#09005D"/>
<stop offset="1" stop-color="#1A0F91"/>
</linearGradient>
<linearGradient id="paint48_linear_43_4160" x1="903.15" y1="796.959" x2="909.448" y2="722.807" gradientUnits="userSpaceOnUse">
<stop stop-color="#FEBBBA"/>
<stop offset="1" stop-color="#FF928E"/>
</linearGradient>
<linearGradient id="paint49_linear_43_4160" x1="897.953" y1="862.503" x2="797.899" y2="895.318" gradientUnits="userSpaceOnUse">
<stop stop-color="#09005D"/>
<stop offset="1" stop-color="#1A0F91"/>
</linearGradient>
<linearGradient id="paint50_linear_43_4160" x1="760.509" y1="796.9" x2="688.453" y2="873.058" gradientUnits="userSpaceOnUse">
<stop stop-color="#09005D"/>
<stop offset="1" stop-color="#1A0F91"/>
</linearGradient>
</defs>
</svg>
