<svg width="2560" height="1723" viewBox="0 0 2560 1723" fill="none" xmlns="http://www.w3.org/2000/svg">
<path d="M1621.57 902.712L1616.85 907.875L1622.01 912.601L1974.32 1235.04C1989.69 1249.1 2001.32 1260.58 2009.31 1270.95C2017.27 1281.28 2021.21 1289.98 2021.93 1298.49C2022.65 1306.96 2020.27 1316.27 2013.53 1327.97C2006.75 1339.75 1995.84 1353.47 1980.19 1370.58L1390.93 2014.43C1375.28 2031.54 1362.57 2043.62 1351.44 2051.41C1340.38 2059.15 1331.31 2062.35 1322.82 2062.38C1314.27 2062.41 1305.26 2059.26 1294.27 2052.25C1283.23 2045.2 1270.77 2034.64 1255.4 2020.57L235.103 1086.79L229.939 1082.06L225.213 1087.23L50.6661 1277.95L45.9401 1283.11L51.104 1287.84L1071.41 2221.62C1159.36 2302.11 1243.59 2343.39 1328.55 2339.55C1413.51 2335.71 1497.26 2286.85 1584.47 2191.56L2173.73 1547.7C2260.93 1452.41 2302.2 1364.67 2298.52 1279.71C2294.83 1194.74 2246.28 1114.49 2158.32 1033.99L1806.01 711.554L1800.85 706.828L1796.12 711.992L1621.57 902.712ZM1544.84 1683.59L1549.57 1678.43L1544.4 1673.7L723.698 922.59L1141.12 466.489C1171.98 432.768 1202.73 414.684 1232.1 410.961C1261.22 407.27 1290.33 417.535 1318.52 443.338L1371.48 491.806C1382.21 501.629 1392.46 510.215 1401.43 517.734C1406.5 521.977 1411.15 525.88 1415.27 529.474C1427.14 539.852 1434.71 547.863 1438.23 555.869C1441.46 563.207 1441.6 571.321 1436.17 582.991C1430.57 595.03 1419.3 610.239 1400.37 630.93L1226.55 820.855L1221.82 826.019L1226.98 830.745L1408.76 997.108L1413.92 1001.83L1418.65 996.67L1592.47 806.745C1686.28 704.244 1722.37 616.359 1711.22 532.823C1700.12 449.68 1642.44 372.983 1554.17 292.193L1502.64 245.035C1416.38 166.091 1321.93 129.078 1226.6 136.382C1131.36 143.68 1036.46 195.126 949.018 290.674L352.321 942.659L347.595 947.823L352.759 952.549L1360.4 1874.75L1365.57 1879.47L1370.29 1874.31L1544.84 1683.59ZM1204.46 860.041L1199.29 855.315L1194.57 860.479L1020.02 1051.2L1015.29 1056.36L1020.46 1061.09L1626.18 1615.44L1631.34 1620.17L1636.07 1615.01L1810.61 1424.29L1815.34 1419.12L1810.18 1414.4L1204.46 860.041ZM1047.45 716.346L1042.28 711.62L1037.56 716.784L863.01 907.503L858.284 912.667L863.448 917.393L954.023 1000.29L959.187 1005.01L963.913 999.849L1138.46 809.13L1143.19 803.966L1138.02 799.24L1047.45 716.346Z" stroke="#448CFF" stroke-opacity="0.58" stroke-width="14"/>
<path d="M2331.17 1240.82C2308.59 1264.6 2287.22 1279.93 2270.33 1292.05C2071.86 1434.45 1837.02 1392.94 1787.1 1382.8C1713.4 1367.83 1570.94 1338.9 1467.93 1217.77C1312.1 1034.52 1336.37 745.806 1457.24 555.223C1479.35 520.362 1596.14 326.876 1833.51 295.847C1977.17 277.068 2144.63 314.942 2265.89 416.541C2520.45 629.804 2502.33 1060.63 2331.17 1240.82Z" fill="url(#paint0_linear_43_4156)"/>
<path d="M2138.39 1135.39C2304.7 969.078 2304.7 699.438 2138.39 533.129C1972.08 366.82 1702.44 366.82 1536.13 533.129C1369.82 699.438 1369.82 969.078 1536.13 1135.39C1702.44 1301.7 1972.08 1301.7 2138.39 1135.39Z" fill="#BDD0FB"/>
<path d="M1837.27 1197.72C2038 1197.72 2200.73 1034.99 2200.73 834.258C2200.73 633.525 2038 470.799 1837.27 470.799C1636.53 470.799 1473.81 633.525 1473.81 834.258C1473.81 1034.99 1636.53 1197.72 1837.27 1197.72Z" fill="url(#paint1_linear_43_4156)"/>
<path d="M1837.27 1215.92C1626.82 1215.92 1455.6 1044.71 1455.6 834.258C1455.6 623.806 1626.82 452.594 1837.27 452.594C2047.72 452.594 2218.93 623.806 2218.93 834.258C2218.93 1044.71 2047.72 1215.92 1837.27 1215.92ZM1837.27 470.799C1636.86 470.799 1473.81 633.845 1473.81 834.258C1473.81 1034.67 1636.86 1197.72 1837.27 1197.72C2037.68 1197.72 2200.72 1034.67 2200.72 834.258C2200.72 633.845 2037.68 470.799 1837.27 470.799Z" fill="white"/>
<path d="M1837.27 1055.84C1959.64 1055.84 2058.85 956.635 2058.85 834.258C2058.85 711.882 1959.64 612.676 1837.27 612.676C1714.89 612.676 1615.69 711.882 1615.69 834.258C1615.69 956.635 1714.89 1055.84 1837.27 1055.84Z" fill="url(#paint2_linear_43_4156)"/>
<path d="M1837.27 1074.05C1705.05 1074.05 1597.48 966.477 1597.48 834.258C1597.48 702.04 1705.05 594.473 1837.27 594.473C1969.49 594.473 2077.05 702.04 2077.05 834.258C2077.05 966.477 1969.49 1074.05 1837.27 1074.05ZM1837.27 630.881C1725.12 630.881 1633.89 722.115 1633.89 834.258C1633.89 946.401 1725.12 1037.64 1837.27 1037.64C1949.41 1037.64 2040.65 946.401 2040.65 834.258C2040.65 722.115 1949.41 630.881 1837.27 630.881Z" fill="white"/>
<path d="M1837.27 920.106C1884.68 920.106 1923.11 881.671 1923.11 834.258C1923.11 786.846 1884.68 748.411 1837.27 748.411C1789.86 748.411 1751.42 786.846 1751.42 834.258C1751.42 881.671 1789.86 920.106 1837.27 920.106Z" fill="url(#paint3_linear_43_4156)"/>
<path d="M1837.27 938.311C1779.89 938.311 1733.22 891.634 1733.22 834.258C1733.22 776.882 1779.89 730.205 1837.27 730.205C1894.64 730.205 1941.32 776.882 1941.32 834.258C1941.32 891.634 1894.64 938.311 1837.27 938.311ZM1837.27 766.613C1799.97 766.613 1769.62 796.958 1769.62 834.258C1769.62 871.559 1799.97 901.903 1837.27 901.903C1874.57 901.903 1904.91 871.559 1904.91 834.258C1904.91 796.958 1874.57 766.613 1837.27 766.613Z" fill="white"/>
<path d="M2243.62 429.005L2252.66 438.048L1910.26 780.45L1901.21 771.409L2243.62 429.005Z" fill="url(#paint4_linear_43_4156)"/>
<path d="M1907.62 749.591C1912.81 744.403 1937.26 768.859 1932.07 774.046L1841.37 845.354C1838.02 847.988 1833.68 843.646 1836.31 840.295L1907.62 749.591Z" fill="url(#paint5_linear_43_4156)"/>
<path d="M2252.46 438.243L2298.53 442.821L2235.29 506.058C2214.57 526.777 2185.65 537.11 2156.5 534.212L2252.46 438.243Z" fill="#91B3FA"/>
<path d="M2243.42 429.201L2238.84 383.137L2175.61 446.374C2154.89 467.093 2144.55 496.013 2147.45 525.17L2243.42 429.201Z" fill="#91B3FA"/>
<g opacity="0.3">
<path d="M1611.27 365.44C1609.98 366.727 1607.9 366.726 1606.61 365.439C1604.11 362.938 1601.47 360.508 1598.75 358.218C1597.37 357.059 1597.19 355.015 1598.31 353.624C1598.33 353.608 1598.34 353.591 1598.35 353.574C1599.53 352.183 1601.6 352.006 1603 353.179C1605.86 355.59 1608.64 358.148 1611.27 360.78C1612.48 361.984 1612.55 363.888 1611.5 365.181C1611.43 365.271 1611.36 365.358 1611.27 365.44ZM1584.76 347.976C1581.75 346.078 1578.64 344.291 1575.5 342.662C1573.89 341.824 1573.26 339.836 1574.09 338.22C1574.94 336.601 1576.92 335.975 1578.54 336.813C1581.84 338.526 1585.12 340.407 1588.28 342.404C1589.81 343.376 1590.27 345.412 1589.3 346.95C1589.23 347.062 1589.15 347.168 1589.07 347.268C1588.04 348.547 1586.18 348.877 1584.76 347.976ZM1559.6 335.77C1556.26 334.592 1552.82 333.545 1549.39 332.657C1547.63 332.201 1546.57 330.403 1547.03 328.642C1547.48 326.882 1549.28 325.822 1551.04 326.277C1554.66 327.211 1558.27 328.315 1561.79 329.556C1563.51 330.161 1564.41 332.043 1563.8 333.76C1563.67 334.126 1563.49 334.454 1563.25 334.739C1562.4 335.791 1560.95 336.247 1559.6 335.77ZM1532.34 329.498C1528.82 329.095 1525.24 328.842 1521.69 328.742C1519.87 328.691 1518.44 327.175 1518.49 325.356C1518.54 323.537 1520.06 322.105 1521.88 322.154C1525.61 322.259 1529.38 322.527 1533.09 322.949C1534.9 323.156 1536.2 324.788 1535.99 326.597C1535.92 327.243 1535.66 327.825 1535.28 328.296C1534.59 329.142 1533.5 329.63 1532.34 329.498ZM1504.37 329.454C1500.85 329.843 1497.3 330.389 1493.82 331.077C1492.03 331.428 1490.3 330.267 1489.95 328.481C1489.59 326.694 1490.76 324.962 1492.54 324.611C1496.21 323.888 1499.94 323.314 1503.64 322.904C1505.45 322.704 1507.08 324.008 1507.28 325.817C1507.38 326.728 1507.1 327.594 1506.57 328.254C1506.04 328.904 1505.27 329.354 1504.37 329.454ZM1477.08 335.6C1473.73 336.759 1470.39 338.077 1467.15 339.517C1465.49 340.255 1463.54 339.506 1462.8 337.844C1462.07 336.181 1462.81 334.234 1464.48 333.494C1467.89 331.979 1471.4 330.592 1474.93 329.373C1476.65 328.778 1478.52 329.689 1479.12 331.409C1479.51 332.526 1479.26 333.709 1478.56 334.564C1478.19 335.026 1477.69 335.392 1477.08 335.6ZM1393.03 424.529C1391.27 424.071 1390.21 422.271 1390.67 420.51C1391.61 416.902 1392.72 413.286 1393.97 409.764C1394.58 408.049 1396.47 407.152 1398.18 407.761C1399.9 408.369 1400.79 410.253 1400.18 411.967C1399 415.312 1397.94 418.745 1397.05 422.171C1396.93 422.641 1396.71 423.06 1396.42 423.415C1395.64 424.388 1394.32 424.866 1393.03 424.529ZM1451.85 347.635C1448.85 349.509 1445.89 351.535 1443.05 353.661C1441.6 354.752 1439.53 354.457 1438.44 353.001C1437.35 351.545 1437.65 349.486 1439.1 348.388C1442.08 346.15 1445.2 344.015 1448.37 342.042C1449.91 341.08 1451.94 341.551 1452.91 343.095C1453.67 344.32 1453.53 345.852 1452.67 346.914C1452.45 347.191 1452.17 347.435 1451.85 347.635ZM1402.66 397.473C1401.05 396.632 1400.42 394.641 1401.26 393.027C1402.99 389.723 1404.88 386.448 1406.88 383.294C1407.85 381.751 1409.89 381.303 1411.43 382.277C1412.96 383.251 1413.42 385.287 1412.44 386.825C1410.54 389.822 1408.75 392.934 1407.11 396.075C1407 396.276 1406.88 396.46 1406.74 396.629C1405.78 397.821 1404.08 398.21 1402.66 397.473ZM1429.95 365.003C1427.44 367.501 1425.01 370.139 1422.72 372.848C1421.54 374.238 1419.46 374.411 1418.07 373.235C1416.7 372.075 1416.51 370.034 1417.64 368.646C1417.65 368.628 1417.67 368.609 1417.69 368.592C1420.1 365.74 1422.66 362.962 1425.3 360.333C1426.59 359.05 1428.68 359.054 1429.96 360.343C1431.16 361.548 1431.23 363.449 1430.19 364.74C1430.11 364.83 1430.03 364.918 1429.95 365.003Z" fill="#91B3FA"/>
<path d="M1392.64 446.242C1393.05 445.738 1393.32 445.109 1393.37 444.412C1393.49 442.717 1393.65 440.998 1393.85 439.299C1394.06 437.491 1392.76 435.857 1390.95 435.65C1389.14 435.442 1387.51 436.739 1387.3 438.548C1387.1 440.335 1386.93 442.143 1386.79 443.927C1386.66 445.741 1388.02 447.322 1389.84 447.455C1390.96 447.538 1391.99 447.052 1392.64 446.242Z" fill="#91B3FA"/>
</g>
<g opacity="0.3">
<path d="M1424.96 541.363C1425.96 540.128 1425.95 538.314 1424.86 537.091C1423.72 535.827 1422.59 534.516 1421.51 533.198C1420.35 531.793 1418.27 531.593 1416.87 532.751C1415.46 533.914 1415.27 535.986 1416.42 537.39C1417.57 538.778 1418.75 540.158 1419.95 541.49C1421.16 542.845 1423.24 542.959 1424.6 541.745C1424.73 541.626 1424.85 541.497 1424.96 541.363Z" fill="#91B3FA"/>
<path d="M1616.01 541.654C1614.79 543.01 1612.71 543.125 1611.35 541.91C1610 540.696 1609.88 538.616 1611.1 537.257C1613.41 534.676 1615.64 531.957 1617.77 529.144C1618.86 527.696 1620.94 527.407 1622.39 528.504C1623.84 529.602 1624.13 531.669 1623.03 533.121C1622.11 534.339 1621.17 535.538 1620.21 536.716C1618.85 538.396 1617.44 540.058 1616.01 541.654ZM1628.38 519.355C1626.79 518.464 1626.23 516.455 1627.12 514.869C1628.83 511.823 1630.43 508.672 1631.88 505.503C1632.63 503.847 1634.59 503.117 1636.25 503.873C1637.9 504.628 1638.63 506.582 1637.88 508.238C1636.35 511.574 1634.67 514.892 1632.87 518.096C1632.77 518.262 1632.67 518.418 1632.55 518.561C1631.56 519.785 1629.8 520.154 1628.38 519.355ZM1603.14 554.179C1600.34 556.551 1597.41 558.835 1594.41 560.968C1592.93 562.023 1590.87 561.678 1589.82 560.195C1588.76 558.712 1589.11 556.657 1590.59 555.599C1593.43 553.574 1596.22 551.405 1598.88 549.153C1600.26 547.976 1602.34 548.147 1603.52 549.535C1604.56 550.763 1604.55 552.532 1603.57 553.739C1603.44 553.896 1603.3 554.044 1603.14 554.179ZM1640.09 493.636C1638.35 493.115 1637.36 491.278 1637.88 489.535C1638.88 486.193 1639.75 482.768 1640.46 479.356C1640.83 477.573 1642.58 476.432 1644.36 476.805C1646.14 477.177 1647.28 478.922 1646.91 480.703C1646.16 484.297 1645.24 487.904 1644.19 491.423C1644.07 491.848 1643.86 492.229 1643.6 492.554C1642.78 493.56 1641.41 494.03 1640.09 493.636ZM1579.12 570.347C1575.87 572.044 1572.5 573.626 1569.11 575.048C1567.44 575.753 1565.5 574.964 1564.8 573.286C1564.09 571.607 1564.88 569.676 1566.56 568.972C1569.78 567.62 1572.98 566.118 1576.06 564.506C1577.68 563.663 1579.67 564.287 1580.51 565.9C1581.14 567.102 1580.95 568.513 1580.15 569.503C1579.87 569.842 1579.53 570.132 1579.12 570.347ZM1552.13 580.854C1548.58 581.802 1544.95 582.612 1541.34 583.261C1539.55 583.582 1537.84 582.392 1537.52 580.6C1537.19 578.807 1538.38 577.095 1540.18 576.775C1543.61 576.158 1547.05 575.389 1550.43 574.488C1552.18 574.018 1553.99 575.062 1554.46 576.82C1554.74 577.88 1554.48 578.956 1553.84 579.748C1553.41 580.27 1552.83 580.667 1552.13 580.854ZM1523.49 585.23C1519.82 585.383 1516.1 585.383 1512.44 585.231C1510.62 585.154 1509.21 583.619 1509.28 581.801C1509.36 579.98 1510.9 578.57 1512.71 578.646C1516.19 578.792 1519.73 578.791 1523.22 578.645C1525.04 578.569 1526.57 579.982 1526.65 581.8C1526.68 582.635 1526.4 583.41 1525.92 584.012C1525.34 584.721 1524.48 585.189 1523.49 585.23ZM1494.58 583.255C1490.97 582.602 1487.34 581.787 1483.79 580.832C1482.04 580.358 1480.99 578.55 1481.47 576.792C1481.94 575.038 1483.75 573.995 1485.51 574.469C1488.87 575.375 1492.32 576.149 1495.76 576.769C1497.55 577.093 1498.74 578.806 1498.41 580.597C1498.31 581.163 1498.07 581.668 1497.73 582.085C1497 582.989 1495.81 583.476 1494.58 583.255ZM1466.8 574.972C1463.43 573.542 1460.07 571.947 1456.82 570.234C1455.21 569.385 1454.59 567.391 1455.44 565.782C1456.29 564.177 1458.28 563.555 1459.89 564.404C1462.98 566.032 1466.17 567.546 1469.37 568.905C1471.05 569.615 1471.83 571.549 1471.12 573.224C1471 573.516 1470.84 573.781 1470.65 574.016C1469.75 575.128 1468.18 575.558 1466.8 574.972ZM1441.54 560.805C1439.34 559.235 1437.17 557.577 1435.07 555.879C1434.31 555.264 1433.56 554.643 1432.82 554.014C1431.43 552.838 1431.22 550.753 1432.44 549.37C1433.62 547.981 1435.69 547.81 1437.08 548.987C1437.79 549.583 1438.5 550.176 1439.22 550.76C1441.21 552.375 1443.28 553.95 1445.37 555.443C1446.85 556.5 1447.2 558.559 1446.14 560.039C1446.1 560.095 1446.06 560.149 1446.02 560.202C1444.93 561.544 1442.97 561.824 1441.54 560.805Z" fill="#91B3FA"/>
<path d="M1648.65 464.674C1649.06 464.165 1649.33 463.53 1649.37 462.827C1649.5 461.047 1649.58 459.231 1649.63 457.43C1649.68 455.61 1648.25 454.095 1646.43 454.045C1644.61 453.996 1643.1 455.428 1643.05 457.249C1643 458.961 1642.92 460.685 1642.8 462.375C1642.67 464.19 1644.04 465.763 1645.86 465.888C1646.97 465.964 1648 465.479 1648.65 464.674Z" fill="#91B3FA"/>
</g>
<path d="M1611.58 422.045C1611.45 421.401 1610.92 420.914 1610.27 420.831L1591.68 418.457C1587.99 410.519 1583 403.112 1576.79 396.585L1581.4 378.427C1581.56 377.79 1581.3 377.121 1580.75 376.761L1561.95 364.433C1561.4 364.072 1560.68 364.101 1560.16 364.503L1545.34 375.964C1536.88 372.873 1528.1 371.257 1519.35 371.038L1509.76 354.934C1509.42 354.369 1508.77 354.08 1508.12 354.214L1486.11 358.792C1485.47 358.926 1484.98 359.453 1484.9 360.105L1482.52 378.699C1474.59 382.388 1467.18 387.371 1460.65 393.58L1442.49 388.977C1441.86 388.815 1441.19 389.075 1440.83 389.625L1428.5 408.427C1428.14 408.977 1428.17 409.694 1428.57 410.214L1440.03 425.031C1436.94 433.492 1435.32 442.271 1435.11 451.022L1419 460.613C1418.44 460.949 1418.15 461.607 1418.28 462.25L1422.86 484.263C1422.99 484.906 1423.52 485.393 1424.17 485.476L1442.77 487.851C1446.46 495.789 1451.44 503.195 1457.65 509.722L1453.04 527.88C1452.88 528.517 1453.14 529.186 1453.69 529.546L1472.5 541.874C1473.04 542.234 1473.76 542.206 1474.28 541.804L1489.1 530.343C1497.56 533.434 1506.34 535.05 1515.09 535.269L1524.68 551.373C1525.02 551.938 1525.67 552.227 1526.32 552.093L1548.33 547.515C1548.97 547.381 1549.46 546.854 1549.54 546.202L1551.92 527.609C1559.86 523.919 1567.26 518.937 1573.79 512.728L1591.95 517.331C1592.58 517.492 1593.25 517.232 1593.61 516.683L1605.94 497.88C1606.3 497.33 1606.27 496.613 1605.87 496.093L1594.41 481.277C1597.5 472.815 1599.12 464.036 1599.34 455.285L1615.44 445.695C1616.01 445.358 1616.29 444.701 1616.16 444.058L1611.58 422.045Z" fill="#91B3FA"/>
<path d="M1532.51 469.794C1523.34 478.226 1509.01 477.621 1500.58 468.445C1496.49 464.001 1494.38 458.231 1494.64 452.199C1494.89 446.169 1497.48 440.597 1501.93 436.513C1511.1 428.081 1525.43 428.685 1533.86 437.862C1541.53 446.21 1541.72 458.819 1534.79 467.376C1534.1 468.225 1533.34 469.034 1532.51 469.794ZM1499.91 452.422C1499.71 457.047 1501.33 461.47 1504.46 464.879C1510.93 471.913 1521.91 472.378 1528.95 465.913C1535.98 459.448 1536.44 448.464 1529.98 441.429C1523.51 434.394 1512.53 433.93 1505.5 440.395C1504.86 440.981 1504.27 441.607 1503.74 442.267C1501.41 445.138 1500.07 448.664 1499.91 452.422Z" fill="#BDD0FB"/>
<path d="M1559.85 488.293C1561.04 486.823 1562.17 485.285 1563.22 483.681C1563.55 483.177 1563.87 482.666 1564.19 482.151C1565.74 479.61 1567.09 476.95 1568.21 474.212C1568.22 474.174 1568.24 474.137 1568.25 474.1C1568.3 473.994 1568.34 473.888 1568.38 473.781C1568.46 473.574 1568.54 473.366 1568.62 473.158C1568.84 472.612 1568.66 472.011 1568.23 471.661C1568.12 471.575 1568 471.505 1567.87 471.454C1567.19 471.192 1566.43 471.532 1566.17 472.21C1564.82 475.705 1563.08 479.078 1561.01 482.235C1550.73 497.924 1533.48 506.351 1515.98 506.127C1506.25 506.003 1496.45 503.201 1487.72 497.48C1486.19 496.477 1484.72 495.404 1483.32 494.267C1473.89 486.617 1467.43 476.043 1464.92 463.992C1462.04 450.149 1464.72 436.013 1472.48 424.189C1488.49 399.771 1521.36 392.942 1545.77 408.945C1547.27 409.931 1548.72 410.991 1550.11 412.117C1556.13 416.998 1561.01 423.14 1564.39 430.122C1564.47 430.302 1564.6 430.454 1564.74 430.571C1565.13 430.882 1565.67 430.964 1566.15 430.734C1566.8 430.415 1567.08 429.63 1566.76 428.973C1563.22 421.644 1558.09 415.194 1551.77 410.071C1550.32 408.888 1548.79 407.777 1547.21 406.74C1521.59 389.938 1487.07 397.126 1470.27 422.743C1462.13 435.157 1459.32 449.996 1462.34 464.529C1464.97 477.181 1471.75 488.281 1481.66 496.312C1483.13 497.506 1484.67 498.632 1486.28 499.685C1498.69 507.824 1513.53 510.641 1528.06 507.619C1540.72 504.986 1551.82 498.199 1559.85 488.293Z" fill="#BDD0FB"/>
<g opacity="0.3">
<path d="M1749.77 332.525C1750.33 331.841 1750.39 330.849 1749.87 330.088C1748.89 328.666 1747.85 327.254 1746.78 325.892C1746.09 325.007 1744.81 324.851 1743.93 325.543C1743.04 326.233 1742.89 327.515 1743.58 328.4C1744.59 329.698 1745.58 331.043 1746.52 332.4C1747.16 333.325 1748.42 333.557 1749.35 332.92C1749.51 332.806 1749.65 332.673 1749.77 332.525Z" fill="#91B3FA"/>
<path d="M1739.6 320.665C1738.8 321.461 1737.52 321.465 1736.72 320.671C1734.71 318.671 1732.57 316.75 1730.37 314.964C1729.9 314.587 1729.43 314.215 1728.96 313.845C1728.07 313.156 1727.91 311.877 1728.6 310.989C1729.28 310.176 1730.57 309.942 1731.46 310.631C1731.95 311.018 1732.45 311.408 1732.93 311.802C1735.24 313.674 1737.48 315.688 1739.59 317.787C1740.34 318.529 1740.39 319.708 1739.74 320.509C1739.69 320.563 1739.65 320.614 1739.6 320.665ZM1720.42 308.015C1717.47 306.251 1714.38 304.654 1711.24 303.27C1710.21 302.816 1709.75 301.617 1710.2 300.587C1710.66 299.565 1711.86 299.092 1712.89 299.546C1716.18 300.997 1719.41 302.67 1722.51 304.52C1723.48 305.097 1723.79 306.347 1723.21 307.312C1723.16 307.397 1723.11 307.477 1723.05 307.552C1722.42 308.325 1721.3 308.54 1720.42 308.015ZM1701.54 299.697C1698.25 298.712 1694.87 297.924 1691.48 297.353C1690.37 297.167 1689.62 296.117 1689.81 295.009C1690 293.897 1691.04 293.152 1692.15 293.339C1695.71 293.937 1699.26 294.765 1702.71 295.797C1703.79 296.119 1704.4 297.254 1704.08 298.33C1704 298.592 1703.87 298.827 1703.71 299.028C1703.21 299.65 1702.36 299.94 1701.54 299.697ZM1681.2 296.272C1677.76 296.124 1674.28 296.188 1670.87 296.464C1669.75 296.553 1668.76 295.718 1668.68 294.598C1668.59 293.48 1669.42 292.497 1670.54 292.406C1674.13 292.117 1677.77 292.05 1681.37 292.206C1682.5 292.254 1683.37 293.205 1683.32 294.328C1683.3 294.78 1683.13 295.192 1682.87 295.519C1682.48 296.003 1681.87 296.301 1681.2 296.272ZM1660.63 297.918C1657.27 298.61 1653.91 299.517 1650.66 300.612C1649.59 300.972 1648.44 300.399 1648.08 299.333C1647.72 298.268 1648.29 297.112 1649.36 296.755C1652.77 295.606 1656.28 294.656 1659.81 293.93C1660.91 293.705 1661.99 294.413 1662.22 295.514C1662.34 296.136 1662.17 296.75 1661.8 297.207C1661.52 297.559 1661.11 297.819 1660.63 297.918ZM1641.09 304.507C1638 305.995 1634.96 307.691 1632.08 309.549C1631.14 310.157 1629.88 309.885 1629.27 308.941C1628.66 307.996 1628.93 306.741 1629.88 306.127C1632.9 304.179 1636.08 302.399 1639.33 300.838C1640.34 300.352 1641.56 300.777 1642.04 301.79C1642.39 302.523 1642.27 303.363 1641.79 303.955C1641.61 304.181 1641.37 304.372 1641.09 304.507ZM1623.76 315.67C1621.13 317.866 1618.61 320.256 1616.26 322.776C1615.49 323.596 1614.2 323.641 1613.38 322.874C1612.56 322.108 1612.53 320.832 1613.28 319.996C1615.75 317.357 1618.39 314.85 1621.15 312.547C1622.01 311.827 1623.3 311.942 1624.02 312.804C1624.65 313.562 1624.64 314.648 1624.04 315.389C1623.95 315.489 1623.86 315.583 1623.76 315.67ZM1601.37 340.267C1600.39 339.723 1600.03 338.485 1600.58 337.501C1602.08 334.779 1603.76 332.092 1605.57 329.522C1605.84 329.13 1606.12 328.744 1606.4 328.359C1607.03 327.435 1608.33 327.248 1609.24 327.913C1610.15 328.574 1610.35 329.846 1609.69 330.756C1609.42 331.116 1609.17 331.48 1608.91 331.854C1607.18 334.313 1605.57 336.876 1604.14 339.472C1604.08 339.579 1604.01 339.679 1603.94 339.77C1603.33 340.523 1602.25 340.752 1601.37 340.267Z" fill="#91B3FA"/>
</g>
<g opacity="0.3">
<path d="M1745.01 436.336C1742.74 439.062 1740.28 441.672 1737.71 444.097C1736.89 444.867 1735.6 444.83 1734.83 444.011C1734.06 443.192 1734.11 441.907 1734.92 441.133C1737.37 438.822 1739.72 436.332 1741.88 433.731C1742.6 432.867 1743.88 432.75 1744.75 433.469C1745.6 434.182 1745.73 435.451 1745.03 436.314C1745.02 436.321 1745.01 436.329 1745.01 436.336ZM1748.51 428.351C1747.57 427.741 1747.3 426.48 1747.91 425.537C1749.74 422.698 1751.43 419.72 1752.91 416.683C1753.4 415.68 1754.62 415.253 1755.63 415.749C1756.64 416.241 1757.06 417.459 1756.57 418.47C1755.01 421.652 1753.25 424.773 1751.33 427.748C1751.28 427.811 1751.24 427.869 1751.2 427.926C1750.55 428.723 1749.39 428.921 1748.51 428.351ZM1729.52 450.919C1726.65 453.016 1723.64 454.958 1720.56 456.687C1719.58 457.237 1718.33 456.887 1717.79 455.908C1717.23 454.928 1717.58 453.692 1718.56 453.137C1721.51 451.487 1724.38 449.636 1727.11 447.636C1728.02 446.971 1729.29 447.169 1729.96 448.074C1730.51 448.836 1730.46 449.857 1729.9 450.558C1729.79 450.691 1729.66 450.812 1729.52 450.919ZM1758.06 409.879C1757 409.513 1756.44 408.355 1756.8 407.292C1757.9 404.096 1758.81 400.8 1759.52 397.495C1759.75 396.398 1760.83 395.696 1761.93 395.927C1763.03 396.161 1763.73 397.242 1763.5 398.341C1762.76 401.807 1761.8 405.265 1760.65 408.617C1760.57 408.849 1760.45 409.057 1760.31 409.236C1759.78 409.881 1758.89 410.164 1758.06 409.879ZM1710.97 461.321C1707.69 462.666 1704.3 463.824 1700.88 464.765C1699.8 465.063 1698.68 464.425 1698.38 463.342C1698.08 462.258 1698.72 461.137 1699.8 460.839C1703.06 459.944 1706.3 458.839 1709.42 457.555C1710.46 457.128 1711.65 457.624 1712.08 458.665C1712.37 459.377 1712.23 460.161 1711.77 460.721C1711.56 460.976 1711.29 461.187 1710.97 461.321ZM1690.46 466.971C1686.95 467.493 1683.38 467.806 1679.84 467.903C1678.72 467.934 1677.78 467.049 1677.75 465.925C1677.72 464.803 1678.61 463.866 1679.73 463.835C1683.1 463.742 1686.51 463.443 1689.86 462.944C1690.97 462.779 1692.01 463.546 1692.17 464.658C1692.26 465.245 1692.09 465.812 1691.74 466.24C1691.43 466.621 1690.98 466.893 1690.46 466.971ZM1669.19 467.547C1665.65 467.214 1662.11 466.661 1658.65 465.904C1657.55 465.663 1656.86 464.578 1657.1 463.48C1657.34 462.383 1658.42 461.689 1659.52 461.928C1662.82 462.651 1666.2 463.178 1669.57 463.494C1670.69 463.599 1671.51 464.592 1671.4 465.711C1671.36 466.127 1671.2 466.5 1670.96 466.801C1670.54 467.311 1669.89 467.613 1669.19 467.547Z" fill="#91B3FA"/>
<path d="M1764.64 388.805C1764.89 388.5 1765.05 388.12 1765.08 387.7C1765.23 385.964 1765.33 384.217 1765.38 382.505C1765.41 381.382 1764.53 380.445 1763.4 380.414C1762.28 380.386 1761.34 381.27 1761.31 382.393C1761.27 384.025 1761.17 385.693 1761.03 387.349C1760.93 388.469 1761.76 389.455 1762.88 389.552C1763.58 389.612 1764.23 389.312 1764.64 388.805Z" fill="#91B3FA"/>
</g>
<path d="M1740.09 358.831C1740 358.4 1739.64 358.074 1739.21 358.019L1726.77 356.43C1724.3 351.118 1720.96 346.162 1716.81 341.794L1719.89 329.644C1720 329.218 1719.82 328.77 1719.46 328.529L1706.87 320.28C1706.51 320.038 1706.03 320.057 1705.68 320.326L1695.76 327.996C1690.1 325.928 1684.23 324.846 1678.37 324.7L1671.95 313.923C1671.73 313.545 1671.29 313.352 1670.86 313.442L1656.13 316.505C1655.7 316.595 1655.37 316.948 1655.32 317.384L1653.73 329.825C1648.41 332.294 1643.46 335.628 1639.09 339.783L1626.94 336.703C1626.51 336.595 1626.07 336.769 1625.83 337.137L1617.58 349.719C1617.34 350.087 1617.35 350.567 1617.62 350.914L1625.29 360.829C1623.22 366.491 1622.14 372.366 1622 378.222L1611.22 384.639C1610.84 384.864 1610.65 385.304 1610.74 385.734L1613.8 400.464C1613.89 400.895 1614.24 401.221 1614.68 401.277L1627.12 402.865C1629.59 408.177 1632.93 413.133 1637.08 417.501L1634 429.652C1633.89 430.078 1634.07 430.525 1634.43 430.767L1647.02 439.016C1647.38 439.257 1647.86 439.239 1648.21 438.969L1658.13 431.3C1663.79 433.369 1669.66 434.45 1675.52 434.596L1681.94 445.373C1682.16 445.751 1682.6 445.944 1683.03 445.854L1697.76 442.791C1698.19 442.701 1698.52 442.349 1698.57 441.912L1700.16 429.471C1705.47 427.002 1710.43 423.667 1714.8 419.513L1726.95 422.593C1727.37 422.701 1727.82 422.527 1728.06 422.159L1736.31 409.577C1736.55 409.21 1736.53 408.729 1736.27 408.382L1728.6 398.467C1730.66 392.805 1731.75 386.93 1731.89 381.075L1742.67 374.657C1743.05 374.432 1743.24 373.992 1743.15 373.561L1740.09 358.831Z" fill="#91B3FA"/>
<path d="M1687.36 390.982C1684.33 393.766 1680.4 395.203 1676.29 395.028C1672.19 394.855 1668.39 393.093 1665.61 390.064C1659.87 383.815 1660.28 374.074 1666.53 368.311C1672.78 362.569 1682.54 362.982 1688.28 369.231C1691.06 372.258 1692.5 376.188 1692.33 380.297C1692.18 383.636 1690.99 386.769 1688.92 389.319C1688.45 389.905 1687.93 390.461 1687.36 390.982ZM1668.61 387.309C1670.65 389.537 1673.44 390.834 1676.47 390.962C1679.49 391.09 1682.38 390.032 1684.61 387.986C1686.83 385.937 1688.13 383.148 1688.26 380.125C1688.39 377.104 1687.33 374.212 1685.28 371.986C1681.06 367.389 1673.88 367.085 1669.28 371.309C1668.87 371.691 1668.49 372.095 1668.14 372.521C1664.67 376.808 1664.76 383.128 1668.61 387.309Z" fill="#BDD0FB"/>
<path d="M1706.39 403.856C1707.2 402.855 1707.97 401.806 1708.69 400.707C1710.12 398.525 1711.33 396.195 1712.29 393.775C1712.33 393.666 1712.37 393.557 1712.42 393.448C1712.74 392.605 1712.47 391.677 1711.8 391.136C1711.64 391.005 1711.45 390.896 1711.25 390.817C1710.2 390.412 1709.03 390.939 1708.62 391.984C1707.75 394.252 1706.62 396.435 1705.29 398.474L1705.28 398.475C1705.21 398.587 1705.14 398.698 1705.06 398.809C1701.85 403.606 1697.57 407.421 1692.58 410.031C1689.88 411.447 1686.97 412.508 1683.91 413.173C1683.88 413.179 1683.86 413.184 1683.83 413.189C1683.76 413.205 1683.68 413.222 1683.61 413.237C1674.64 415.1 1665.49 413.364 1657.84 408.345C1656.85 407.696 1655.9 407.002 1654.99 406.266C1648.88 401.313 1644.7 394.467 1643.08 386.665C1641.21 377.703 1642.95 368.553 1647.97 360.899C1652.99 353.251 1660.69 348.002 1669.65 346.137C1678.61 344.274 1687.76 346.01 1695.42 351.029C1696.39 351.667 1697.33 352.354 1698.23 353.082C1702.12 356.242 1705.28 360.218 1707.47 364.737C1707.6 365.016 1707.79 365.25 1708.02 365.432C1708.61 365.912 1709.45 366.038 1710.19 365.683C1711.2 365.191 1711.62 363.978 1711.13 362.964C1708.69 357.907 1705.15 353.457 1700.79 349.923C1699.79 349.106 1698.74 348.339 1697.65 347.625C1689.08 342.01 1678.85 340.066 1668.82 342.152C1658.79 344.238 1650.18 350.093 1644.57 358.666C1638.95 367.229 1637.01 377.466 1639.09 387.494C1640.91 396.222 1645.59 403.881 1652.42 409.421C1653.43 410.244 1654.5 411.021 1655.61 411.748C1672.19 422.618 1694.16 418.937 1706.39 403.856Z" fill="#BDD0FB"/>
<path d="M1501.46 1365.19C1501.46 1365.19 1499.17 1377.48 1497.99 1389.66C1497.52 1394.41 1501.15 1398.58 1505.93 1398.83C1522.15 1399.66 1556.84 1401.3 1569.3 1400.87C1571.18 1400.8 1572.42 1398.9 1571.74 1397.15C1571.18 1395.68 1570.07 1394.49 1568.65 1393.82L1511.57 1366.93L1501.46 1365.19Z" fill="url(#paint6_linear_43_4156)"/>
<path d="M1499.75 1357.94L1501.35 1372.68C1501.35 1372.68 1511.35 1377.45 1518.26 1372.26L1514.26 1355.81L1499.75 1357.94Z" fill="url(#paint7_linear_43_4156)"/>
<path d="M1503.7 1081.16C1502.91 1084.99 1497.82 1272.98 1517.11 1357.44C1517.43 1358.81 1516.72 1360.22 1515.4 1360.75C1512.31 1361.98 1506.25 1363.74 1499 1363.92C1496.76 1363.97 1494.76 1362.49 1494.15 1360.34C1488.59 1340.73 1462 1242.52 1459.3 1148.92C1456.28 1044.33 1459.33 1145.36 1459.33 1145.36L1462.3 1080.75L1503.7 1081.16Z" fill="url(#paint8_linear_43_4156)"/>
<path d="M1435.45 1370.99C1435.45 1370.99 1431.93 1377.17 1428.42 1393.65C1427.78 1396.62 1429.84 1399.5 1432.87 1399.82C1438.22 1400.4 1446.46 1401.16 1453.07 1401.17C1456.11 1401.18 1458.52 1398.55 1458.18 1395.53C1457.5 1389.49 1455.32 1379.58 1448.35 1371.81L1435.45 1370.99Z" fill="url(#paint9_linear_43_4156)"/>
<path d="M1432.59 1352.02L1436.46 1374.32C1436.46 1374.32 1440.46 1377.36 1448.47 1375.26L1446.75 1351.29L1432.59 1352.02Z" fill="url(#paint10_linear_43_4156)"/>
<path d="M1424.1 1086.17C1406.71 1185.21 1425.32 1331.39 1431.8 1360.03C1432.19 1361.78 1433.59 1363.13 1435.36 1363.44C1438.37 1363.97 1443.32 1364.43 1448.22 1363.05C1449.91 1362.58 1451.11 1361.07 1451.2 1359.32C1452.32 1336.23 1452.04 1194.4 1467.9 1138.5C1468.7 1135.67 1470.46 1133.21 1472.87 1131.52L1502.8 1110.67L1505.41 1076.54L1424.1 1086.17Z" fill="url(#paint11_linear_43_4156)"/>
<path d="M1530.63 899.196C1481.38 897.912 1426.89 911.142 1426.89 911.142C1411.39 996.68 1422.57 1095.62 1422.57 1095.62C1460.61 1105.98 1503.78 1090.28 1503.78 1090.28C1510.46 1054.53 1541 954.025 1541 954.025C1565.09 951.267 1584.99 944.512 1601.4 935.487C1589.09 920.931 1583.39 902.506 1580.94 891.622C1563.47 896.869 1545.82 899.592 1530.63 899.196Z" fill="#09005D"/>
<path d="M1676.83 828.026C1672.05 822.135 1665.9 824.841 1665.9 824.841C1658.35 855.393 1620.11 879.859 1580.94 891.622C1583.39 902.506 1589.09 920.932 1601.4 935.487C1666.56 899.667 1676.83 828.026 1676.83 828.026Z" fill="url(#paint12_linear_43_4156)"/>
<path d="M1675.64 829.501C1676.13 831.115 1670.25 833.511 1666.86 826.894C1666.77 823.738 1664.98 810.203 1666.89 807.65C1677.06 794.056 1696.69 777.08 1696.69 777.08C1699.95 780.358 1697.21 783.522 1697.21 783.522L1687.67 793.27C1689.61 796.859 1691.99 799.895 1693.08 804.224C1693.9 807.502 1693.35 810.991 1691.67 813.951C1689.98 816.922 1687.68 820.783 1685.52 823.801C1681.41 829.513 1675.64 829.501 1675.64 829.501Z" fill="url(#paint13_linear_43_4156)"/>
<path d="M1683.48 799.614L1674.8 806.828L1672.03 814.066L1679.62 822.652C1679.62 822.652 1682.34 808.264 1684.29 805.163C1686.23 802.061 1685.25 800.543 1683.48 799.614Z" fill="url(#paint14_linear_43_4156)"/>
<path d="M1445.33 959.021L1426.89 911.142C1426.89 911.142 1380.58 941.966 1372.64 981.532C1381.33 982.255 1397.12 984.668 1412.53 992.635C1416.12 973.95 1445.33 959.021 1445.33 959.021Z" fill="#91B3FA"/>
<path d="M1485.11 1004.29C1485.11 1004.29 1433.17 1032.99 1415.98 1007.89C1412.41 1002.68 1411.6 997.53 1412.53 992.634C1397.12 984.668 1381.33 982.255 1372.64 981.532C1370.24 993.46 1371.33 1006.18 1378.23 1019.09C1408.23 1075.24 1491.83 1017.09 1491.83 1017.09L1485.11 1004.29Z" fill="url(#paint15_linear_43_4156)"/>
<path d="M1481.12 858.728L1465.01 903.907C1464.74 904.655 1465.04 905.489 1465.73 905.881C1469.98 908.283 1485.31 915.258 1503.98 903.674C1505.92 902.468 1507.25 900.482 1507.57 898.215L1513.02 859.032L1481.12 858.728Z" fill="url(#paint16_linear_43_4156)"/>
<path d="M1515.62 817.078C1515.62 817.078 1532.52 849.642 1530.19 862.708C1527.86 875.775 1506.54 874.631 1488.01 863.825L1475.33 828.717L1515.62 817.078Z" fill="url(#paint17_linear_43_4156)"/>
<path d="M1489 846.652C1489.76 846.324 1490.05 845.4 1489.6 844.703C1488.24 842.583 1485.7 838.26 1484.91 834.49C1484.91 834.49 1481.83 832.479 1492.83 829.958C1503.82 827.438 1520.22 823.518 1523.75 814.214C1527.19 805.143 1518.6 782.166 1504.37 800.272C1503.83 800.961 1502.78 800.967 1502.25 800.267C1499.98 797.246 1493.98 790.965 1485.54 794.658C1477.64 798.113 1476.69 803.871 1476.77 806.778C1476.8 807.633 1476.03 808.291 1475.19 808.123C1471.22 807.326 1461.68 806.583 1457.13 816.334C1453.38 824.366 1455.72 828.955 1457.87 831.209C1458.57 831.939 1458.25 833.128 1457.28 833.414C1454.66 834.19 1451.26 836.374 1451.54 842.503C1451.93 850.976 1461.4 850.321 1464.1 849.96C1464.55 849.901 1464.99 850.057 1465.29 850.391C1467.57 852.971 1477.88 863.931 1489.14 865.348C1490.12 865.47 1490.88 864.514 1490.57 863.582L1485.83 849.356C1485.61 848.695 1485.93 847.976 1486.57 847.7L1489 846.652Z" fill="url(#paint18_linear_43_4156)"/>
<path d="M1490.94 848.683C1490.94 848.683 1478.77 840.158 1477.8 847.23C1476.84 854.302 1488.74 857.591 1494.68 855.008L1490.94 848.683Z" fill="url(#paint19_linear_43_4156)"/>
<path d="M1474.5 1049.65L1502.79 950.843C1503.11 949.722 1504.07 948.904 1505.23 948.769C1510.36 948.17 1525.21 946.491 1542.36 945.041C1563.02 943.293 1587.01 941.878 1601.34 943.082C1603.38 943.253 1604.61 945.409 1603.71 947.242C1595.55 963.735 1562.02 1030.82 1545.23 1052.8C1544.67 1053.53 1543.81 1053.96 1542.9 1053.95L1477.25 1053.34C1475.34 1053.32 1473.97 1051.49 1474.5 1049.65Z" fill="url(#paint20_linear_43_4156)"/>
<path d="M1481.33 1025.78C1481.33 1025.78 1477.39 1009.57 1478.98 1003.82C1480.57 998.072 1483.65 990.68 1493.92 992.322C1504.19 993.965 1516.3 998.29 1516.3 998.29C1516.3 998.29 1515.69 1005.78 1507.88 1003.36L1512.72 1007.11C1512.72 1007.11 1512.03 1013.1 1505.44 1009.9L1509.94 1014.87C1509.94 1014.87 1507.11 1019.79 1502.26 1016.63C1497.41 1013.47 1495.09 1027.73 1481.33 1025.78Z" fill="url(#paint21_linear_43_4156)"/>
<path d="M1540.47 974.536C1540.47 979.123 1544.19 982.842 1548.78 982.842C1553.37 982.842 1557.08 979.123 1557.08 974.536C1557.08 969.949 1553.37 966.231 1548.78 966.231C1544.19 966.231 1540.47 969.949 1540.47 974.536Z" fill="#91B3FA"/>
<path d="M1505.99 980.011L1511.75 960.47C1512.46 958.07 1514.39 956.269 1516.79 955.767C1534.84 952.001 1584.26 951.201 1584.76 951.194L1584.72 948.987C1582.69 949.018 1534.6 949.797 1516.34 953.607C1513.14 954.274 1510.57 956.664 1509.64 959.845L1503.87 979.387L1505.99 980.011Z" fill="#BDD0FB"/>
<path d="M2241.33 833.069C2242.11 831.569 2244.33 831.805 2244.79 833.436C2246.47 839.476 2250.53 850.015 2259.05 853.757C2259.48 853.945 2259.88 854.136 2260.28 854.328C2260.66 853.169 2260.67 851.823 2259.74 850.408C2257.09 846.36 2261.88 840.83 2261.88 840.83C2261.88 840.83 2262.19 845.7 2265.89 848.767C2269.08 851.408 2270.61 857.286 2268.43 862.108C2263.82 880.022 2256.92 903.714 2283.82 921.023C2310.72 938.332 2348.6 888.357 2348.6 888.357L2329.8 947.965C2329.8 947.965 2300.78 969.382 2267.02 939.267C2233.26 909.151 2255.64 865.328 2255.64 865.328C2255.64 865.328 2229.89 854.941 2241.33 833.069Z" fill="url(#paint22_linear_43_4156)"/>
<path d="M2353.32 800.775C2353.32 800.775 2345.52 765.815 2385.57 775.069C2385.57 775.069 2405.01 771.893 2405.99 790.24C2405.99 790.24 2418.52 798.496 2409.35 814.374C2409.35 814.374 2446.59 799.991 2462.81 832.631C2479.04 865.271 2464.12 883.23 2448.49 887.908C2448.49 887.908 2461.16 894.268 2455.16 908.629C2449.17 922.989 2418.8 933.112 2400.86 915.648C2400.86 915.648 2349.83 922.393 2350.85 886.343C2350.85 886.343 2327.11 871.014 2352.04 841.221C2376.98 811.428 2353.32 800.775 2353.32 800.775Z" fill="url(#paint23_linear_43_4156)"/>
<path d="M2351.12 881.808C2359.16 879.396 2382.59 874.942 2404.88 895.508C2408.66 898.997 2410.2 904.297 2408.86 909.26C2402.87 931.298 2387.08 996.406 2400.92 1024.58C2400.92 1024.58 2376.52 1051.48 2349.9 1029.8C2349.9 1029.8 2337.95 977.735 2322.31 954.88C2311.5 939.102 2339.53 895.629 2346.62 885.126C2347.7 883.536 2349.28 882.36 2351.12 881.808Z" fill="#91B3FA"/>
<path d="M2373.33 838.026C2373.33 838.026 2385.24 871.689 2386.13 886.54C2386.13 886.54 2372.98 892.52 2360.58 882.426C2360.58 882.426 2359.28 848.802 2357.4 842.782L2373.33 838.026Z" fill="url(#paint24_linear_43_4156)"/>
<path d="M2356.8 792.128C2356.8 792.128 2325.68 835.689 2344.28 848.342C2362.89 860.995 2385.05 830.038 2385.05 830.038C2385.05 830.038 2392.27 806.195 2384.72 798.107C2377.17 790.018 2356.8 792.128 2356.8 792.128Z" fill="url(#paint25_linear_43_4156)"/>
<path d="M2371.21 781.718C2371.21 781.718 2356.91 785.106 2354.91 791.576C2352.9 798.046 2375.19 804.046 2381.43 804.34L2386.46 830.449C2386.46 830.449 2401.33 805.888 2395.44 791.703C2389.55 777.517 2371.21 781.718 2371.21 781.718Z" fill="url(#paint26_linear_43_4156)"/>
<path d="M2379.02 826.833C2379.02 826.833 2391.13 812.801 2395.95 821.948C2400.77 831.096 2385.04 837.964 2379.6 833.473L2379.02 826.833Z" fill="url(#paint27_linear_43_4156)"/>
<path d="M2318.82 1139.11C2318.91 1141.47 2314.76 1160.22 2312.5 1170.22C2311.59 1174.24 2312.23 1178.45 2314.27 1182.03L2392.49 1313.66C2393.43 1315.25 2394.12 1316.98 2394.54 1318.78C2395.97 1324.96 2398.95 1340.1 2397.39 1353.87L2393.35 1362.27L2410.85 1358.3L2414.65 1311.31L2409.7 1308.29C2405.42 1305.68 2402.09 1301.78 2400.18 1297.14C2393.11 1279.97 2375.54 1236.24 2371.02 1214.93C2365.87 1190.71 2338.98 1171.03 2338.98 1171.03L2343.7 1159.86L2318.82 1139.11Z" fill="url(#paint28_linear_43_4156)"/>
<path d="M2430.29 1342.13C2430.29 1342.13 2420.84 1327.15 2419.73 1321.32C2418.62 1315.49 2415.52 1305.19 2409.7 1308.29C2409.7 1308.29 2406.95 1336.62 2407.9 1347.69C2408.85 1358.76 2395.39 1358.4 2395.39 1358.4C2395.39 1358.4 2391.68 1358.92 2388.96 1361.64C2387.08 1363.51 2388.43 1366.77 2391.07 1366.94C2395.48 1367.22 2402.47 1367.29 2409.82 1365.88C2412.39 1365.38 2414.29 1363.19 2414.44 1360.58L2416.38 1327.98L2428.3 1343.03L2430.29 1342.13Z" fill="url(#paint29_linear_43_4156)"/>
<path d="M2365.54 1160.07C2365.54 1160.07 2368.3 1277.82 2368.67 1294.54C2369.05 1311.26 2366.03 1348.32 2349.27 1359.4L2356.56 1364.8C2356.56 1364.8 2365.68 1357.05 2374.59 1342.14C2384.59 1325.39 2387.62 1322.33 2387.62 1322.33L2384.3 1315.53C2382.84 1312.55 2382.41 1309.18 2383.08 1305.94C2386.7 1288.41 2398.79 1230.09 2402.08 1217.53C2405.98 1202.7 2406.25 1182.9 2392.71 1166.33C2379.18 1149.76 2365.54 1160.07 2365.54 1160.07Z" fill="url(#paint30_linear_43_4156)"/>
<path d="M2381.02 1370.11C2381.54 1370.11 2381.98 1369.74 2382.06 1369.22C2382.61 1365.3 2384.94 1349.56 2386.84 1345.49C2389.01 1340.82 2396.13 1321.18 2386.83 1319.51C2386.83 1319.51 2363.73 1353.26 2359.3 1357.81C2354.86 1362.36 2349.27 1359.4 2349.27 1359.4C2349.27 1359.4 2344.95 1360.68 2341.69 1364.84C2340.14 1366.82 2341.58 1369.73 2344.1 1369.75L2359.66 1369.9C2364.18 1369.95 2368.24 1367.2 2369.92 1363.01C2372.66 1356.16 2377.37 1346.13 2382.85 1341.68L2380 1368.96C2379.94 1369.57 2380.41 1370.1 2381.02 1370.11Z" fill="url(#paint31_linear_43_4156)"/>
<path d="M2346.22 1017.1C2346.22 1017.1 2349.72 1028.28 2344.33 1046.69L2310.92 1163.37C2310.39 1165.21 2311.38 1167.13 2313.18 1167.77C2323.17 1171.36 2356.03 1181.5 2400.88 1178.4C2403.14 1178.25 2405.04 1176.65 2405.53 1174.44C2408.48 1161.14 2418.57 1115.75 2420.64 1106.42C2428.55 1070.89 2437.39 1032.57 2398.53 1009.39C2380.62 1017.06 2363.92 1021.59 2346.22 1017.1Z" fill="url(#paint32_linear_43_4156)"/>
<path d="M2408.07 899.906C2408.07 899.906 2446.09 931.502 2455.52 974.677C2464.96 1017.85 2399.97 1022.44 2399.97 1022.44C2399.97 1022.44 2391.14 1012.59 2380.67 1016.1C2370.2 1019.62 2379.86 998.908 2392.11 998.962C2404.37 999.016 2398.69 1008.71 2416.03 1000.85C2432.92 993.204 2443.36 969.545 2400.27 933.681C2397.77 931.602 2395.78 928.952 2394.58 925.932C2386.2 904.859 2392.84 891.046 2408.07 899.906Z" fill="url(#paint33_linear_43_4156)"/>
<path d="M2170.16 1222.49H2156.6V1369.14H2170.16V1222.49Z" fill="#7D97F4"/>
<path d="M2222.77 1371.97H2103.99V1364.12C2103.99 1363.58 2104.43 1363.14 2104.97 1363.14H2221.79C2222.33 1363.14 2222.77 1363.58 2222.77 1364.12V1371.97Z" fill="#7D97F4"/>
<path d="M2245.23 1217.08C2245.23 1225.6 2238.26 1232.58 2229.73 1232.58H2102.02C2093.49 1232.58 2086.52 1225.6 2086.52 1217.08V1203.06C2086.52 1194.54 2093.49 1187.56 2102.02 1187.56H2229.73C2238.26 1187.56 2245.23 1194.54 2245.23 1203.06V1217.08Z" fill="#7D97F4"/>
<path d="M2043.17 1324.61C2043.17 1324.61 1999.32 1343.49 2001.84 1363.25C2001.84 1363.25 2047.15 1354.56 2055.27 1341.61C2063.38 1328.65 2058.91 1321.15 2058.91 1321.15L2043.17 1324.61Z" fill="url(#paint34_linear_43_4156)"/>
<path d="M2053.9 1303.02L2056.13 1322.27C2056.46 1325.17 2054.85 1328.03 2052.1 1329.02C2050.72 1329.52 2048.92 1329.86 2046.55 1329.87C2043.2 1329.89 2040.24 1327.69 2039.35 1324.47L2035.03 1308.9L2053.9 1303.02Z" fill="url(#paint35_linear_43_4156)"/>
<path d="M2149.68 1155.47C2149.68 1155.47 2069.04 1151.74 2028.92 1175.14C1988.79 1198.54 2030.95 1310.85 2030.95 1310.85C2030.95 1310.85 2041.43 1313.1 2056.52 1305.03C2056.52 1305.03 2034.98 1222.82 2072.4 1208.52C2114.46 1192.44 2157.96 1196.35 2157.96 1196.35L2149.9 1158.01L2149.68 1155.47Z" fill="url(#paint36_linear_43_4156)"/>
<path d="M2010.65 1354.58C2019.81 1352.57 2047.01 1341.3 2051.14 1341.46C2055.27 1341.61 2061.12 1347.79 2061.12 1347.79C2061.12 1347.79 2062.12 1351.18 2059.17 1356.03C2052.16 1361.5 2037.07 1371.53 2019.53 1372.62C2006.62 1373.43 1998.85 1368.3 1994.41 1363.31C1998.3 1359.53 2004.54 1355.92 2010.65 1354.58Z" fill="url(#paint37_linear_43_4156)"/>
<path d="M2019.53 1372.62C2037.07 1371.53 2052.16 1361.5 2059.17 1356.03C2057.17 1359.31 2053.37 1363.27 2046.22 1367.31C2028.49 1377.33 1999.18 1375.86 1993.38 1373.61C1988.72 1371.8 1990.16 1367.46 1994.41 1363.32C1998.85 1368.3 2006.62 1373.43 2019.53 1372.62Z" fill="url(#paint38_linear_43_4156)"/>
<path d="M2070.74 1337.72C2070.14 1339.99 2063.72 1346.82 2060.01 1350.62C2058.24 1352.42 2055.68 1353.2 2053.21 1352.66C2051.65 1352.32 2049.88 1351.79 2048.35 1350.95C2046.06 1349.71 2045.26 1346.79 2046.52 1344.5L2055.91 1327.43L2070.74 1337.72Z" fill="url(#paint39_linear_43_4156)"/>
<path d="M2229.59 1148.71C2229.59 1148.71 2236.63 1198.64 2216.28 1208.85C2195.93 1219.06 2151.29 1225.74 2135.92 1251.64C2120.54 1277.53 2092.93 1328.37 2067.8 1342.97C2067.8 1342.97 2053.45 1338.31 2049.25 1331.25C2049.25 1331.25 2079.08 1252.84 2091.52 1233.78C2102.3 1217.27 2118.06 1193.5 2140.44 1183.21C2146.85 1180.27 2147.35 1173.47 2146.23 1166.51L2144.17 1153.83L2229.59 1148.71Z" fill="url(#paint40_linear_43_4156)"/>
<path d="M2040.97 1092.1C2069.5 1100.25 2082.27 1019.95 2082.16 1018L2125.91 1069.14C2125.91 1069.14 2099.84 1115.01 2060.48 1119.89C2050.52 1121.13 2042.05 1119.4 2034.95 1116.15C2040.18 1107.58 2041.38 1099.11 2040.97 1092.1Z" fill="url(#paint41_linear_43_4156)"/>
<path d="M1988.13 1065.82C2000.57 1060.71 2011.12 1070.91 2011.12 1070.91C2023.44 1083.52 2033.21 1089.89 2040.97 1092.1C2041.38 1099.11 2040.18 1107.58 2034.95 1116.15C2019.57 1109.11 2010.61 1094.87 2006.92 1087.76C2005.59 1085.2 2002.47 1084.12 1999.88 1085.38C1997.24 1086.65 1994.53 1088.6 1994.36 1091.24C1994.02 1096.44 1987.82 1096.75 1987.79 1094.83C1987.75 1092.9 1992.59 1082.62 1992.59 1082.62C1992.59 1082.62 1978.3 1091.78 1972.74 1095.29C1967.18 1098.79 1962.44 1093.01 1962.44 1093.01C1962.44 1093.01 1975.7 1070.93 1988.13 1065.82Z" fill="url(#paint42_linear_43_4156)"/>
<path d="M2218.6 984.953C2218.6 984.953 2180.26 958.796 2087.66 1006.1C2087.66 1006.1 2078.12 1018.19 2082.59 1031.82C2087.05 1045.45 2142.04 1119.21 2144.17 1153.83C2144.17 1153.83 2181.76 1175.96 2230.55 1154.02C2230.55 1154.02 2246.91 1062.59 2218.6 984.953Z" fill="#4042E2"/>
<path d="M2138.76 951.51L2153.91 981.202C2155.42 984.149 2155.1 987.718 2153.04 990.304C2148.87 995.532 2140.15 1002.56 2125.29 998.03C2120.87 996.682 2117.48 993.085 2116.42 988.587L2108.56 955.446L2138.76 951.51Z" fill="url(#paint43_linear_43_4156)"/>
<path d="M2247 1088.63C2249.59 1070.58 2201.9 1035.6 2201.9 1035.6L2218.6 984.953C2218.6 984.953 2309.61 1049.9 2290.47 1102.94C2287.73 1110.54 2283.64 1116.08 2278.65 1120.01C2269.01 1100.24 2255.94 1092.03 2247 1088.63Z" fill="url(#paint44_linear_43_4156)"/>
<path d="M2180.46 1093.64C2180.46 1093.64 2234.41 1108.71 2245.6 1092.29C2246.36 1091.17 2246.81 1089.95 2247 1088.63C2255.94 1092.03 2269.01 1100.24 2278.65 1120.01C2253.03 1140.16 2203.64 1117.57 2190.22 1110.8C2188.01 1109.68 2185.48 1109.47 2183.11 1110.2C2178.34 1111.69 2170.07 1114.01 2165.46 1113.75C2158.72 1113.38 2151.49 1137.74 2140.01 1131.58C2140.01 1131.58 2145.23 1089.95 2180.46 1093.64Z" fill="url(#paint45_linear_43_4156)"/>
<path d="M2119.34 902.987C2118.86 903.403 2098.87 938.311 2088.7 956.106C2085.59 961.539 2087.92 968.456 2093.67 970.921L2098.08 972.81C2104.1 975.391 2117.05 977.553 2122.15 973.436L2154.28 939.52C2154.28 939.519 2130.15 893.633 2119.34 902.987Z" fill="url(#paint46_linear_43_4156)"/>
<path d="M2163.33 930.267C2167.27 928.053 2172.01 923.569 2168.32 915.64C2164.57 907.581 2157.16 906.882 2152.39 907.396C2150.46 907.603 2148.71 906.377 2148.15 904.519C2147.83 903.461 2147.05 902.526 2145.36 902.259C2143.08 901.897 2141.66 899.57 2142.26 897.339C2143.4 893.054 2143.2 887.234 2136.31 883.062C2124.08 875.658 2112.65 886.413 2109.47 895.761C2106.29 905.11 2120 912.385 2128.76 913.868C2135.41 914.997 2138.66 922.676 2139.84 926.294C2140.21 927.439 2140.03 928.686 2139.37 929.693L2129.6 944.536C2132.29 947.917 2134.67 951.488 2137.02 955.102C2137.89 954.155 2138.66 953.368 2139.26 952.817C2143.51 948.929 2151.05 950.936 2154.16 952.004C2155.18 952.355 2156.29 952.273 2157.24 951.778C2160.63 950.029 2167.46 945.117 2161.86 935.827C2160.69 933.883 2161.35 931.379 2163.33 930.267Z" fill="url(#paint47_linear_43_4156)"/>
<path d="M2133.46 961.447C2133.46 961.447 2139.71 945.395 2146.8 946.29C2153.9 947.185 2159.21 954.516 2150.05 962.126C2138.66 971.591 2133.46 961.447 2133.46 961.447Z" fill="url(#paint48_linear_43_4156)"/>
<path d="M2111.57 1127.99C2111.47 1128 2111.38 1128 2111.28 1128L1985.24 1127.86C1982.12 1127.86 1979.6 1125.33 1979.6 1122.21C1979.61 1119.1 1982.14 1116.52 1985.25 1116.58L2111.29 1116.72C2114.41 1116.72 2116.93 1119.25 2116.93 1122.36C2116.92 1125.38 2114.55 1127.84 2111.57 1127.99Z" fill="url(#paint49_linear_43_4156)"/>
<path d="M1871.93 1013.55H1976.9C1984.65 1013.55 1991.69 1018.02 1995 1025.03L2043.52 1127.92H1913.08C1908.09 1127.92 1903.6 1124.88 1901.77 1120.23L1864.14 1025.02C1861.96 1019.52 1866.02 1013.55 1871.93 1013.55Z" fill="url(#paint50_linear_43_4156)"/>
<path d="M1945.88 1066.31C1948.16 1073.38 1946.48 1080.24 1942.13 1081.64C1937.78 1083.04 1932.42 1078.45 1930.14 1071.38C1927.87 1064.31 1929.55 1057.45 1933.89 1056.05C1938.24 1054.65 1943.61 1059.25 1945.88 1066.31Z" fill="#91B3FA"/>
<path d="M1888.95 1398.32C1888.25 1398.32 1887.54 1398.19 1886.86 1397.9C1884.17 1396.79 1882.93 1393.77 1884.09 1391.17L1995.17 1141.17C1996.33 1138.57 1999.44 1137.37 2002.13 1138.49C2004.82 1139.61 2006.06 1142.62 2004.9 1145.22L1893.82 1395.22C1892.96 1397.16 1891 1398.32 1888.95 1398.32Z" fill="#91B3FA"/>
<path d="M2014.09 1398.32C2012.04 1398.32 2010.08 1397.16 2009.22 1395.22L1898.14 1145.22C1896.98 1142.62 1898.23 1139.61 1900.91 1138.49C1903.6 1137.37 1906.71 1138.57 1907.87 1141.17L2018.95 1391.17C2020.11 1393.77 2018.87 1396.78 2016.18 1397.9C2015.5 1398.19 2014.79 1398.32 2014.09 1398.32Z" fill="#91B3FA"/>
<path d="M2232.8 1398.32C2232.1 1398.32 2231.39 1398.19 2230.71 1397.9C2228.02 1396.79 2226.78 1393.77 2227.93 1391.17L2339.01 1141.17C2340.17 1138.57 2343.28 1137.37 2345.97 1138.49C2348.66 1139.61 2349.9 1142.62 2348.75 1145.22L2237.66 1395.22C2236.8 1397.16 2234.85 1398.32 2232.8 1398.32Z" fill="#91B3FA"/>
<path d="M2357.93 1398.32C2355.88 1398.32 2353.93 1397.16 2353.07 1395.22L2241.98 1145.22C2240.83 1142.62 2242.07 1139.61 2244.76 1138.49C2247.44 1137.37 2250.56 1138.57 2251.72 1141.17L2362.8 1391.17C2363.95 1393.77 2362.71 1396.78 2360.02 1397.9C2359.34 1398.19 2358.63 1398.32 2357.93 1398.32Z" fill="#91B3FA"/>
<path d="M2370.96 1133.45C2371.25 1131.81 2370.86 1130.12 2369.91 1128.83C2368.96 1127.54 2367.55 1126.79 2366.06 1126.79H1860.72C1858.75 1126.79 1856.93 1127.91 1855.87 1129.76C1854.81 1131.61 1854.67 1133.94 1855.5 1135.93L1860.97 1149.2C1862.23 1152.24 1864.94 1154.19 1867.93 1154.19H2362.59C2365.37 1154.19 2367.76 1151.98 2368.29 1148.92L2370.96 1133.45Z" fill="#91B3FA"/>
<rect y="1578" width="2560" height="145" fill="#4F52FF"/>
<defs>
<linearGradient id="paint0_linear_43_4156" x1="2601.68" y1="1722.41" x2="1618.4" y2="501.231" gradientUnits="userSpaceOnUse">
<stop stop-color="#DAE3FE"/>
<stop offset="1" stop-color="#E9EFFD"/>
</linearGradient>
<linearGradient id="paint1_linear_43_4156" x1="2153.91" y1="413.867" x2="1335.53" y2="1500.39" gradientUnits="userSpaceOnUse">
<stop stop-color="#4F52FF"/>
<stop offset="1" stop-color="#4042E2"/>
</linearGradient>
<linearGradient id="paint2_linear_43_4156" x1="2153.91" y1="413.867" x2="1335.54" y2="1500.39" gradientUnits="userSpaceOnUse">
<stop stop-color="#4F52FF"/>
<stop offset="1" stop-color="#4042E2"/>
</linearGradient>
<linearGradient id="paint3_linear_43_4156" x1="1911.48" y1="249.286" x2="1865.92" y2="608.368" gradientUnits="userSpaceOnUse">
<stop stop-color="#FF928E"/>
<stop offset="1" stop-color="#FE7062"/>
</linearGradient>
<linearGradient id="paint4_linear_43_4156" x1="1740.56" y1="808.212" x2="2106.77" y2="586.681" gradientUnits="userSpaceOnUse">
<stop stop-color="#09005D"/>
<stop offset="1" stop-color="#1A0F91"/>
</linearGradient>
<linearGradient id="paint5_linear_43_4156" x1="1864.02" y1="808.122" x2="2123.24" y2="593.109" gradientUnits="userSpaceOnUse">
<stop stop-color="#09005D"/>
<stop offset="1" stop-color="#1A0F91"/>
</linearGradient>
<linearGradient id="paint6_linear_43_4156" x1="1567.98" y1="1348.81" x2="1355.87" y2="1575.18" gradientUnits="userSpaceOnUse">
<stop stop-color="#09005D"/>
<stop offset="1" stop-color="#1A0F91"/>
</linearGradient>
<linearGradient id="paint7_linear_43_4156" x1="1499.68" y1="1365.13" x2="1518.33" y2="1365.3" gradientUnits="userSpaceOnUse">
<stop stop-color="#FEBBBA"/>
<stop offset="1" stop-color="#FF928E"/>
</linearGradient>
<linearGradient id="paint8_linear_43_4156" x1="1586.98" y1="1090.71" x2="1406.03" y2="1331.15" gradientUnits="userSpaceOnUse">
<stop stop-color="#09005D"/>
<stop offset="1" stop-color="#1A0F91"/>
</linearGradient>
<linearGradient id="paint9_linear_43_4156" x1="1521.3" y1="1305.06" x2="1309.18" y2="1531.43" gradientUnits="userSpaceOnUse">
<stop stop-color="#09005D"/>
<stop offset="1" stop-color="#1A0F91"/>
</linearGradient>
<linearGradient id="paint10_linear_43_4156" x1="1432.48" y1="1363.53" x2="1448.58" y2="1363.68" gradientUnits="userSpaceOnUse">
<stop stop-color="#FEBBBA"/>
<stop offset="1" stop-color="#FF928E"/>
</linearGradient>
<linearGradient id="paint11_linear_43_4156" x1="1555.36" y1="1066.91" x2="1374.41" y2="1307.35" gradientUnits="userSpaceOnUse">
<stop stop-color="#09005D"/>
<stop offset="1" stop-color="#1A0F91"/>
</linearGradient>
<linearGradient id="paint12_linear_43_4156" x1="1581.06" y1="879.338" x2="1676.33" y2="880.243" gradientUnits="userSpaceOnUse">
<stop stop-color="#FEBBBA"/>
<stop offset="1" stop-color="#FF928E"/>
</linearGradient>
<linearGradient id="paint13_linear_43_4156" x1="1655.26" y1="864.074" x2="1589.95" y2="1008.92" gradientUnits="userSpaceOnUse">
<stop stop-color="#FEBBBA"/>
<stop offset="1" stop-color="#FF928E"/>
</linearGradient>
<linearGradient id="paint14_linear_43_4156" x1="1676.49" y1="815.829" x2="1703.55" y2="775.068" gradientUnits="userSpaceOnUse">
<stop stop-color="#FEBBBA"/>
<stop offset="1" stop-color="#FF928E"/>
</linearGradient>
<linearGradient id="paint15_linear_43_4156" x1="1371.3" y1="1012.3" x2="1491.86" y2="1013.44" gradientUnits="userSpaceOnUse">
<stop stop-color="#FEBBBA"/>
<stop offset="1" stop-color="#FF928E"/>
</linearGradient>
<linearGradient id="paint16_linear_43_4156" x1="1459.94" y1="945.722" x2="1505.49" y2="857.291" gradientUnits="userSpaceOnUse">
<stop stop-color="#FEBBBA"/>
<stop offset="1" stop-color="#FF928E"/>
</linearGradient>
<linearGradient id="paint17_linear_43_4156" x1="1524.4" y1="854.522" x2="1472.29" y2="822.057" gradientUnits="userSpaceOnUse">
<stop stop-color="#FEBBBA"/>
<stop offset="1" stop-color="#FF928E"/>
</linearGradient>
<linearGradient id="paint18_linear_43_4156" x1="1444.87" y1="788.096" x2="1512.07" y2="842.218" gradientUnits="userSpaceOnUse">
<stop stop-color="#09005D"/>
<stop offset="1" stop-color="#1A0F91"/>
</linearGradient>
<linearGradient id="paint19_linear_43_4156" x1="1510.52" y1="866.312" x2="1463.64" y2="837.103" gradientUnits="userSpaceOnUse">
<stop stop-color="#FEBBBA"/>
<stop offset="1" stop-color="#FF928E"/>
</linearGradient>
<linearGradient id="paint20_linear_43_4156" x1="1524.19" y1="935.69" x2="1590.72" y2="1212.9" gradientUnits="userSpaceOnUse">
<stop stop-color="#09005D"/>
<stop offset="1" stop-color="#1A0F91"/>
</linearGradient>
<linearGradient id="paint21_linear_43_4156" x1="1478.61" y1="1009.03" x2="1516.3" y2="1009.03" gradientUnits="userSpaceOnUse">
<stop stop-color="#FEBBBA"/>
<stop offset="1" stop-color="#FF928E"/>
</linearGradient>
<linearGradient id="paint22_linear_43_4156" x1="2229.84" y1="791.103" x2="2330.98" y2="953.189" gradientUnits="userSpaceOnUse">
<stop stop-color="#FEBBBA"/>
<stop offset="1" stop-color="#FF928E"/>
</linearGradient>
<linearGradient id="paint23_linear_43_4156" x1="2510.6" y1="776.185" x2="2408.44" y2="844.294" gradientUnits="userSpaceOnUse">
<stop stop-color="#09005D"/>
<stop offset="1" stop-color="#1A0F91"/>
</linearGradient>
<linearGradient id="paint24_linear_43_4156" x1="2354.4" y1="903.225" x2="2373.36" y2="861.115" gradientUnits="userSpaceOnUse">
<stop stop-color="#FEBBBA"/>
<stop offset="1" stop-color="#FF928E"/>
</linearGradient>
<linearGradient id="paint25_linear_43_4156" x1="2353.43" y1="800.889" x2="2391.91" y2="884.2" gradientUnits="userSpaceOnUse">
<stop stop-color="#FEBBBA"/>
<stop offset="1" stop-color="#FF928E"/>
</linearGradient>
<linearGradient id="paint26_linear_43_4156" x1="2483.14" y1="735.009" x2="2380.99" y2="803.121" gradientUnits="userSpaceOnUse">
<stop stop-color="#09005D"/>
<stop offset="1" stop-color="#1A0F91"/>
</linearGradient>
<linearGradient id="paint27_linear_43_4156" x1="2371.53" y1="792.526" x2="2410.01" y2="875.836" gradientUnits="userSpaceOnUse">
<stop stop-color="#FEBBBA"/>
<stop offset="1" stop-color="#FF928E"/>
</linearGradient>
<linearGradient id="paint28_linear_43_4156" x1="2460.8" y1="1427.63" x2="2319.53" y2="1172.64" gradientUnits="userSpaceOnUse">
<stop stop-color="#FEBBBA"/>
<stop offset="1" stop-color="#FF928E"/>
</linearGradient>
<linearGradient id="paint29_linear_43_4156" x1="2430.33" y1="1337.66" x2="2388.34" y2="1337.26" gradientUnits="userSpaceOnUse">
<stop stop-color="#09005D"/>
<stop offset="1" stop-color="#1A0F91"/>
</linearGradient>
<linearGradient id="paint30_linear_43_4156" x1="2299.76" y1="1238.46" x2="2513.99" y2="1309.21" gradientUnits="userSpaceOnUse">
<stop stop-color="#FEBBBA"/>
<stop offset="1" stop-color="#FF928E"/>
</linearGradient>
<linearGradient id="paint31_linear_43_4156" x1="2391.32" y1="1344.88" x2="2341.26" y2="1344.4" gradientUnits="userSpaceOnUse">
<stop stop-color="#09005D"/>
<stop offset="1" stop-color="#1A0F91"/>
</linearGradient>
<linearGradient id="paint32_linear_43_4156" x1="2540.54" y1="970.272" x2="2419.95" y2="1062.72" gradientUnits="userSpaceOnUse">
<stop stop-color="#09005D"/>
<stop offset="1" stop-color="#1A0F91"/>
</linearGradient>
<linearGradient id="paint33_linear_43_4156" x1="2447.24" y1="1034.24" x2="2244.75" y2="734.009" gradientUnits="userSpaceOnUse">
<stop stop-color="#FEBBBA"/>
<stop offset="1" stop-color="#FF928E"/>
</linearGradient>
<linearGradient id="paint34_linear_43_4156" x1="2017.02" y1="1290.01" x2="2030.22" y2="1341.15" gradientUnits="userSpaceOnUse">
<stop stop-color="#09005D"/>
<stop offset="1" stop-color="#1A0F91"/>
</linearGradient>
<linearGradient id="paint35_linear_43_4156" x1="2057.42" y1="1318.14" x2="2034.13" y2="1312.98" gradientUnits="userSpaceOnUse">
<stop stop-color="#FEBBBA"/>
<stop offset="1" stop-color="#FF928E"/>
</linearGradient>
<linearGradient id="paint36_linear_43_4156" x1="2103.28" y1="1263.66" x2="2035.02" y2="1103.07" gradientUnits="userSpaceOnUse">
<stop stop-color="#09005D"/>
<stop offset="1" stop-color="#1A0F91"/>
</linearGradient>
<linearGradient id="paint37_linear_43_4156" x1="2020.3" y1="1339.48" x2="2077.88" y2="1463.38" gradientUnits="userSpaceOnUse">
<stop stop-color="#09005D"/>
<stop offset="1" stop-color="#1A0F91"/>
</linearGradient>
<linearGradient id="paint38_linear_43_4156" x1="2055.77" y1="1371.41" x2="1993.16" y2="1357.55" gradientUnits="userSpaceOnUse">
<stop stop-color="#4F52FF"/>
<stop offset="1" stop-color="#4042E2"/>
</linearGradient>
<linearGradient id="paint39_linear_43_4156" x1="2069.5" y1="1343.35" x2="2047.64" y2="1338.51" gradientUnits="userSpaceOnUse">
<stop stop-color="#FEBBBA"/>
<stop offset="1" stop-color="#FF928E"/>
</linearGradient>
<linearGradient id="paint40_linear_43_4156" x1="2123.65" y1="1340.66" x2="2159.23" y2="1154.02" gradientUnits="userSpaceOnUse">
<stop stop-color="#09005D"/>
<stop offset="1" stop-color="#1A0F91"/>
</linearGradient>
<linearGradient id="paint41_linear_43_4156" x1="2193.2" y1="980.097" x2="1978.17" y2="1146.9" gradientUnits="userSpaceOnUse">
<stop stop-color="#FF928E"/>
<stop offset="1" stop-color="#FE7062"/>
</linearGradient>
<linearGradient id="paint42_linear_43_4156" x1="2041.76" y1="1095.93" x2="1965.53" y2="1079.05" gradientUnits="userSpaceOnUse">
<stop stop-color="#FEBBBA"/>
<stop offset="1" stop-color="#FF928E"/>
</linearGradient>
<linearGradient id="paint43_linear_43_4156" x1="2156.15" y1="980.167" x2="2105.57" y2="968.973" gradientUnits="userSpaceOnUse">
<stop stop-color="#FEBBBA"/>
<stop offset="1" stop-color="#FF928E"/>
</linearGradient>
<linearGradient id="paint44_linear_43_4156" x1="1958.37" y1="1231.75" x2="2163.36" y2="1105.14" gradientUnits="userSpaceOnUse">
<stop stop-color="#FF928E"/>
<stop offset="1" stop-color="#FE7062"/>
</linearGradient>
<linearGradient id="paint45_linear_43_4156" x1="2196.31" y1="1106.59" x2="2397.18" y2="1387.87" gradientUnits="userSpaceOnUse">
<stop stop-color="#FEBBBA"/>
<stop offset="1" stop-color="#FF928E"/>
</linearGradient>
<linearGradient id="paint46_linear_43_4156" x1="2128.15" y1="915.341" x2="2102.74" y2="1034.54" gradientUnits="userSpaceOnUse">
<stop stop-color="#FEBBBA"/>
<stop offset="1" stop-color="#FF928E"/>
</linearGradient>
<linearGradient id="paint47_linear_43_4156" x1="2163.29" y1="947.163" x2="2112.66" y2="888.675" gradientUnits="userSpaceOnUse">
<stop stop-color="#09005D"/>
<stop offset="1" stop-color="#1A0F91"/>
</linearGradient>
<linearGradient id="paint48_linear_43_4156" x1="2138.15" y1="1028.96" x2="2144.45" y2="954.807" gradientUnits="userSpaceOnUse">
<stop stop-color="#FEBBBA"/>
<stop offset="1" stop-color="#FF928E"/>
</linearGradient>
<linearGradient id="paint49_linear_43_4156" x1="2132.95" y1="1094.5" x2="2032.9" y2="1127.32" gradientUnits="userSpaceOnUse">
<stop stop-color="#09005D"/>
<stop offset="1" stop-color="#1A0F91"/>
</linearGradient>
<linearGradient id="paint50_linear_43_4156" x1="1995.51" y1="1028.9" x2="1923.45" y2="1105.06" gradientUnits="userSpaceOnUse">
<stop stop-color="#09005D"/>
<stop offset="1" stop-color="#1A0F91"/>
</linearGradient>
</defs>
</svg>
