<svg width="320" height="625" viewBox="0 0 320 625" fill="none" xmlns="http://www.w3.org/2000/svg">
<path d="M259.13 223.753L257.442 225.597L259.286 227.285L346.814 307.39C350.63 310.883 353.475 313.696 355.417 316.216C357.346 318.718 358.234 320.743 358.396 322.657C358.557 324.555 358.035 326.711 356.409 329.537C354.767 332.39 352.102 335.75 348.223 339.988L201.83 499.946C197.951 504.184 194.84 507.135 192.143 509.022C189.473 510.892 187.371 511.603 185.466 511.61C183.545 511.618 181.45 510.912 178.787 509.212C176.105 507.5 173.051 504.915 169.235 501.422L-84.2453 269.437L-86.0895 267.749L-87.7774 269.593L-131.141 316.975L-132.829 318.819L-130.985 320.507L122.496 552.493C144.416 572.555 165.532 582.957 186.928 581.99C208.321 581.022 229.304 568.72 251.034 544.977L397.427 385.019C419.157 361.276 429.557 339.288 428.629 317.894C427.702 296.496 415.474 276.382 393.553 256.32L306.026 176.215L304.182 174.527L302.494 176.371L259.13 223.753ZM241.189 418.779L242.877 416.935L241.033 415.247L37.7012 229.158L140.891 116.407C148.489 108.105 155.973 103.747 163.027 102.853C169.993 101.97 177.009 104.407 183.888 110.703L197.045 122.744C199.719 125.191 202.299 127.353 204.539 129.231C205.792 130.281 206.938 131.241 207.936 132.114C210.888 134.694 212.646 136.587 213.446 138.405C214.142 139.984 214.219 141.767 212.941 144.515C211.601 147.395 208.868 151.103 204.174 156.233L160.991 203.417L159.303 205.261L161.147 206.949L206.307 248.279L208.151 249.967L209.839 248.123L253.022 200.939C276.396 175.399 285.529 153.348 282.716 132.272C279.922 111.337 265.417 92.1262 243.459 72.03L230.657 60.3143C209.109 40.5928 185.444 31.2894 161.508 33.1235C137.601 34.9553 113.857 47.8642 92.0425 71.7004L-56.199 233.677L-57.8868 235.522L-56.0426 237.209L194.293 466.317L196.138 468.005L197.826 466.161L241.189 418.779ZM156.578 213.104L154.733 211.417L153.046 213.261L109.682 260.643L107.994 262.487L109.838 264.175L260.321 401.897L262.165 403.585L263.853 401.74L307.217 354.359L308.905 352.514L307.061 350.827L156.578 213.104ZM117.571 177.405L115.727 175.717L114.039 177.562L70.6749 224.943L68.9871 226.788L70.8313 228.475L93.3334 249.069L95.1776 250.757L96.8655 248.913L140.229 201.531L141.917 199.687L140.073 197.999L117.571 177.405Z" stroke="#448CFF" stroke-opacity="0.58" stroke-width="5"/>
<path d="M265.543 395.215C260.546 400.476 255.818 403.869 252.082 406.55C208.167 438.059 156.205 428.874 145.161 426.631C128.853 423.319 97.3305 416.917 74.5403 390.116C40.0605 349.568 45.4295 285.687 72.1743 243.518C77.0664 235.804 102.908 192.993 155.43 186.127C187.216 181.972 224.268 190.352 251.1 212.832C307.423 260.02 303.414 355.347 265.543 395.215Z" fill="url(#paint0_linear_43_5475)"/>
<path d="M222.887 371.887C259.685 335.089 259.685 275.427 222.887 238.629C186.089 201.831 126.427 201.831 89.629 238.629C52.8308 275.427 52.8308 335.089 89.629 371.887C126.427 408.685 186.089 408.685 222.887 371.887Z" fill="#BDD0FB"/>
<path d="M156.26 385.678C200.675 385.678 236.681 349.673 236.681 305.258C236.681 260.843 200.675 224.838 156.26 224.838C111.845 224.838 75.8398 260.843 75.8398 305.258C75.8398 349.673 111.845 385.678 156.26 385.678Z" fill="url(#paint1_linear_43_5475)"/>
<path d="M156.26 389.707C109.695 389.707 71.812 351.823 71.812 305.258C71.812 258.693 109.695 220.809 156.26 220.809C202.825 220.809 240.708 258.693 240.708 305.258C240.708 351.823 202.825 389.707 156.26 389.707ZM156.26 224.838C111.916 224.838 75.8402 260.914 75.8402 305.258C75.8402 349.602 111.916 385.678 156.26 385.678C200.604 385.678 236.68 349.602 236.68 305.258C236.68 260.914 200.604 224.838 156.26 224.838Z" fill="white"/>
<path d="M156.26 354.286C183.338 354.286 205.288 332.336 205.288 305.258C205.288 278.181 183.338 256.23 156.26 256.23C129.183 256.23 107.232 278.181 107.232 305.258C107.232 332.336 129.183 354.286 156.26 354.286Z" fill="url(#paint2_linear_43_5475)"/>
<path d="M156.26 358.314C127.005 358.314 103.204 334.513 103.204 305.258C103.204 276.003 127.005 252.202 156.26 252.202C185.515 252.202 209.316 276.003 209.316 305.258C209.316 334.513 185.515 358.314 156.26 358.314ZM156.26 260.258C131.447 260.258 111.26 280.445 111.26 305.258C111.26 330.071 131.447 350.259 156.26 350.259C181.073 350.259 201.26 330.071 201.26 305.258C201.26 280.445 181.073 260.258 156.26 260.258Z" fill="white"/>
<path d="M156.26 324.253C166.751 324.253 175.255 315.749 175.255 305.258C175.255 294.767 166.751 286.263 156.26 286.263C145.769 286.263 137.265 294.767 137.265 305.258C137.265 315.749 145.769 324.253 156.26 324.253Z" fill="url(#paint3_linear_43_5475)"/>
<path d="M156.26 328.281C143.565 328.281 133.237 317.953 133.237 305.258C133.237 292.563 143.565 282.235 156.26 282.235C168.955 282.235 179.283 292.563 179.283 305.258C179.283 317.953 168.955 328.281 156.26 328.281ZM156.26 290.291C148.007 290.291 141.293 297.005 141.293 305.258C141.293 313.511 148.007 320.225 156.26 320.225C164.513 320.225 171.227 313.511 171.227 305.258C171.227 297.005 164.513 290.291 156.26 290.291Z" fill="white"/>
<path d="M246.171 215.59L248.171 217.591L172.41 293.352L170.409 291.352L246.171 215.59Z" fill="url(#paint4_linear_43_5475)"/>
<path d="M171.826 286.524C172.974 285.376 178.385 290.787 177.237 291.935L157.168 307.713C156.426 308.296 155.466 307.335 156.049 306.594L171.826 286.524Z" fill="url(#paint5_linear_43_5475)"/>
<path d="M248.128 217.634L258.32 218.647L244.328 232.639C239.744 237.224 233.345 239.51 226.894 238.869L248.128 217.634Z" fill="#91B3FA"/>
<path d="M246.127 215.634L245.114 205.441L231.122 219.433C226.538 224.018 224.252 230.417 224.893 236.868L246.127 215.634Z" fill="#91B3FA"/>
<g opacity="0.3">
<path d="M106.256 201.525C105.971 201.81 105.509 201.81 105.224 201.525C104.671 200.972 104.086 200.434 103.485 199.927C103.18 199.671 103.139 199.219 103.388 198.911C103.391 198.907 103.394 198.904 103.397 198.9C103.657 198.592 104.117 198.553 104.425 198.812C105.057 199.346 105.674 199.912 106.256 200.494C106.522 200.761 106.539 201.182 106.307 201.468C106.291 201.488 106.274 201.507 106.256 201.525ZM100.388 197.661C99.7239 197.241 99.0352 196.846 98.3407 196.485C97.9835 196.3 97.8439 195.86 98.0292 195.503C98.2166 195.144 98.6549 195.006 99.0123 195.191C99.743 195.57 100.468 195.987 101.167 196.428C101.508 196.643 101.609 197.094 101.394 197.434C101.379 197.459 101.362 197.483 101.344 197.505C101.114 197.788 100.704 197.861 100.388 197.661ZM94.8219 194.961C94.0827 194.7 93.3231 194.468 92.5639 194.272C92.1741 194.171 91.9398 193.773 92.0406 193.383C92.1417 192.994 92.5391 192.759 92.9291 192.86C93.7286 193.067 94.5287 193.311 95.3071 193.586C95.6868 193.719 95.886 194.136 95.7522 194.516C95.7236 194.597 95.6822 194.669 95.6311 194.732C95.4423 194.965 95.1207 195.066 94.8219 194.961ZM88.7913 193.573C88.0115 193.484 87.2188 193.428 86.4351 193.406C86.0326 193.394 85.7154 193.059 85.7267 192.656C85.7383 192.254 86.0738 191.937 86.4759 191.948C87.3011 191.971 88.1357 192.03 88.9563 192.124C89.3563 192.169 89.6437 192.531 89.5981 192.931C89.5818 193.074 89.5251 193.203 89.4406 193.307C89.2889 193.494 89.0482 193.602 88.7913 193.573ZM82.6017 193.563C81.8236 193.649 81.0378 193.77 80.2669 193.922C79.8717 194 79.4884 193.743 79.4104 193.348C79.3323 192.952 79.5897 192.569 79.9847 192.491C80.7957 192.331 81.6225 192.204 82.4414 192.114C82.8415 192.069 83.202 192.358 83.2462 192.758C83.2685 192.96 83.2063 193.151 83.0879 193.298C82.9714 193.441 82.8003 193.541 82.6017 193.563ZM76.5644 194.923C75.8234 195.179 75.0843 195.471 74.3675 195.789C73.9995 195.953 73.5685 195.787 73.4052 195.419C73.2416 195.051 73.4071 194.621 73.7752 194.457C74.5296 194.122 75.3077 193.815 76.0875 193.545C76.4681 193.413 76.8831 193.615 77.015 193.996C77.1006 194.243 77.0453 194.504 76.8918 194.694C76.809 194.796 76.6979 194.877 76.5644 194.923ZM57.967 214.6C57.5774 214.498 57.3436 214.1 57.4451 213.71C57.6531 212.912 57.8987 212.112 58.1753 211.333C58.31 210.953 58.7268 210.755 59.1063 210.89C59.4856 211.024 59.684 211.441 59.5495 211.82C59.2869 212.56 59.0537 213.32 58.8563 214.078C58.8292 214.182 58.7811 214.275 58.7175 214.353C58.543 214.568 58.2527 214.674 57.967 214.6ZM70.982 197.586C70.317 198 69.6619 198.449 69.0349 198.919C68.7126 199.161 68.2556 199.095 68.014 198.773C67.7723 198.451 67.8391 197.995 68.16 197.752C68.8203 197.257 69.5103 196.785 70.2107 196.348C70.5524 196.135 71.002 196.24 71.2152 196.581C71.3841 196.852 71.3534 197.191 71.163 197.426C71.1133 197.488 71.0526 197.542 70.982 197.586ZM60.098 208.613C59.741 208.427 59.6024 207.987 59.7885 207.63C60.1699 206.898 60.5879 206.174 61.0305 205.476C61.245 205.135 61.6968 205.035 62.0368 205.251C62.3767 205.466 62.4775 205.917 62.2618 206.257C61.8411 206.92 61.4438 207.609 61.0816 208.304C61.0585 208.348 61.0312 208.389 61.001 208.426C60.7871 208.69 60.4106 208.776 60.098 208.613ZM66.1357 201.429C65.5806 201.981 65.042 202.565 64.5349 203.164C64.2748 203.472 63.8149 203.51 63.5073 203.25C63.204 202.993 63.1627 202.542 63.4118 202.235C63.4151 202.231 63.4184 202.227 63.4218 202.223C63.9555 201.592 64.5224 200.977 65.1066 200.395C65.3922 200.111 65.8537 200.112 66.1379 200.398C66.4033 200.664 66.4198 201.085 66.1881 201.371C66.1718 201.39 66.1542 201.41 66.1357 201.429Z" fill="#91B3FA"/>
<path d="M57.8808 219.404C57.9712 219.293 58.0299 219.153 58.0412 218.999C58.0688 218.624 58.1048 218.244 58.1478 217.868C58.1938 217.468 57.9066 217.106 57.5067 217.06C57.1067 217.014 56.7446 217.301 56.6993 217.702C56.6539 218.097 56.6161 218.497 56.587 218.892C56.5573 219.293 56.859 219.643 57.2603 219.672C57.5079 219.691 57.7356 219.583 57.8808 219.404Z" fill="#91B3FA"/>
</g>
<g opacity="0.3">
<path d="M65.0322 240.451C65.2538 240.177 65.2507 239.776 65.0083 239.506C64.7574 239.226 64.5082 238.936 64.2677 238.644C64.0115 238.333 63.552 238.289 63.2413 238.545C62.9293 238.803 62.8864 239.261 63.1425 239.572C63.3958 239.879 63.6582 240.184 63.9222 240.479C64.191 240.779 64.6519 240.804 64.9519 240.535C64.9813 240.509 65.008 240.481 65.0322 240.451Z" fill="#91B3FA"/>
<path d="M107.303 240.515C107.034 240.815 106.573 240.841 106.273 240.572C105.973 240.303 105.948 239.843 106.217 239.542C106.728 238.971 107.223 238.37 107.694 237.747C107.934 237.427 108.394 237.363 108.715 237.606C109.036 237.849 109.1 238.306 108.857 238.627C108.653 238.897 108.445 239.162 108.234 239.423C107.933 239.794 107.619 240.162 107.303 240.515ZM110.041 235.581C109.69 235.384 109.565 234.94 109.763 234.589C110.141 233.915 110.496 233.218 110.816 232.516C110.981 232.15 111.415 231.988 111.782 232.156C112.148 232.323 112.309 232.755 112.142 233.121C111.805 233.86 111.432 234.594 111.034 235.303C111.013 235.34 110.99 235.374 110.964 235.406C110.744 235.677 110.355 235.758 110.041 235.581ZM104.456 243.287C103.837 243.811 103.188 244.317 102.525 244.789C102.197 245.022 101.742 244.946 101.508 244.618C101.275 244.29 101.352 243.835 101.679 243.601C102.309 243.153 102.925 242.673 103.513 242.175C103.82 241.914 104.28 241.952 104.541 242.259C104.771 242.531 104.768 242.922 104.551 243.189C104.523 243.224 104.491 243.257 104.456 243.287ZM112.632 229.891C112.247 229.775 112.027 229.369 112.143 228.983C112.364 228.244 112.556 227.486 112.714 226.731C112.796 226.336 113.182 226.084 113.577 226.166C113.971 226.249 114.223 226.635 114.141 227.029C113.975 227.824 113.773 228.622 113.54 229.401C113.512 229.495 113.466 229.579 113.408 229.651C113.228 229.874 112.924 229.978 112.632 229.891ZM99.1407 246.864C98.4222 247.239 97.6776 247.589 96.9274 247.904C96.5561 248.06 96.129 247.885 95.9731 247.514C95.817 247.143 95.9919 246.716 96.3631 246.56C97.0757 246.261 97.783 245.928 98.4652 245.572C98.8221 245.385 99.2627 245.523 99.4491 245.88C99.5881 246.146 99.5469 246.458 99.3692 246.677C99.3084 246.752 99.2315 246.816 99.1407 246.864ZM93.1694 249.189C92.3844 249.399 91.5813 249.578 90.7826 249.721C90.3862 249.792 90.0072 249.529 89.9359 249.133C89.8647 248.736 90.1282 248.357 90.5247 248.286C91.2835 248.15 92.0467 247.979 92.7928 247.78C93.1818 247.676 93.5814 247.907 93.6855 248.296C93.7481 248.531 93.6891 248.769 93.5471 248.944C93.4535 249.059 93.3239 249.147 93.1694 249.189ZM86.8333 250.157C86.0207 250.191 85.1976 250.191 84.3872 250.157C83.9847 250.14 83.6725 249.801 83.6891 249.398C83.706 248.995 84.0459 248.683 84.4479 248.7C85.2181 248.733 85.9999 248.732 86.7723 248.7C87.1746 248.683 87.5144 248.996 87.5312 249.398C87.539 249.583 87.4773 249.754 87.3694 249.887C87.2421 250.044 87.0508 250.148 86.8333 250.157ZM80.4368 249.72C79.6366 249.576 78.8333 249.395 78.0491 249.184C77.6604 249.079 77.4301 248.679 77.5349 248.29C77.6395 247.902 78.0399 247.671 78.4287 247.776C79.1731 247.977 79.9358 248.148 80.6961 248.285C81.0923 248.357 81.3555 248.736 81.284 249.132C81.2613 249.257 81.2081 249.369 81.1333 249.461C80.9712 249.661 80.708 249.769 80.4368 249.72ZM74.2895 247.887C73.5426 247.571 72.7994 247.218 72.0802 246.839C71.724 246.651 71.5873 246.21 71.7753 245.854C71.9627 245.499 72.4039 245.361 72.7602 245.549C73.4433 245.909 74.1493 246.244 74.8588 246.545C75.2294 246.702 75.4026 247.13 75.2455 247.501C75.2181 247.565 75.1827 247.624 75.1406 247.676C74.941 247.922 74.5956 248.017 74.2895 247.887ZM68.7005 244.753C68.214 244.405 67.7323 244.038 67.2688 243.663C67.1009 243.527 66.9352 243.389 66.7711 243.25C66.4641 242.99 66.4169 242.529 66.6865 242.223C66.9467 241.915 67.4068 241.877 67.7141 242.138C67.87 242.27 68.0277 242.401 68.1873 242.53C68.6279 242.887 69.0856 243.236 69.5481 243.566C69.8757 243.8 69.9516 244.256 69.7176 244.583C69.7087 244.595 69.6997 244.608 69.6903 244.619C69.4494 244.916 69.0157 244.978 68.7005 244.753Z" fill="#91B3FA"/>
<path d="M114.526 223.482C114.617 223.37 114.676 223.229 114.687 223.074C114.714 222.68 114.733 222.278 114.744 221.879C114.755 221.477 114.437 221.142 114.035 221.131C113.632 221.12 113.297 221.437 113.286 221.839C113.276 222.218 113.257 222.6 113.232 222.974C113.204 223.375 113.507 223.723 113.909 223.751C114.155 223.768 114.381 223.66 114.526 223.482Z" fill="#91B3FA"/>
</g>
<path d="M106.324 214.05C106.295 213.908 106.178 213.8 106.034 213.781L101.92 213.256C101.103 211.5 100.001 209.861 98.6273 208.417L99.6459 204.399C99.6816 204.258 99.6239 204.11 99.5024 204.03L95.3421 201.303C95.2205 201.223 95.0616 201.229 94.9467 201.318L91.6682 203.854C89.796 203.17 87.8535 202.813 85.9173 202.764L83.7951 199.201C83.7208 199.076 83.5753 199.012 83.433 199.041L78.5624 200.054C78.4201 200.084 78.3122 200.201 78.2938 200.345L77.7686 204.459C76.0122 205.275 74.3733 206.378 72.9291 207.752L68.9115 206.733C68.7705 206.697 68.6225 206.755 68.5428 206.877L65.815 211.037C65.7353 211.159 65.7416 211.317 65.8305 211.432L68.3665 214.711C67.6825 216.583 67.325 218.525 67.2767 220.462L63.7133 222.584C63.5884 222.658 63.5243 222.804 63.5541 222.946L64.5671 227.817C64.5966 227.959 64.7134 228.067 64.8575 228.085L68.9716 228.61C69.788 230.367 70.8904 232.006 72.2642 233.45L71.2458 237.468C71.21 237.609 71.2676 237.757 71.3892 237.836L75.5496 240.564C75.6711 240.644 75.8299 240.637 75.9449 240.548L79.2233 238.012C81.0955 238.696 83.038 239.054 84.9743 239.102L87.0964 242.666C87.1707 242.791 87.3161 242.855 87.4585 242.825L92.3291 241.812C92.4714 241.782 92.5793 241.666 92.5977 241.522L93.1229 237.407C94.8794 236.591 96.5181 235.489 97.9624 234.115L101.98 235.133C102.121 235.169 102.269 235.111 102.349 234.99L105.076 230.83C105.156 230.708 105.15 230.549 105.061 230.434L102.525 227.156C103.209 225.284 103.566 223.341 103.615 221.405L107.178 219.283C107.303 219.208 107.367 219.063 107.338 218.921L106.324 214.05Z" fill="#91B3FA"/>
<path d="M88.8292 224.615C86.7989 226.481 83.6294 226.347 81.7635 224.317C80.8596 223.333 80.3929 222.057 80.4494 220.722C80.5056 219.388 81.0781 218.155 82.062 217.251C84.0924 215.386 87.2618 215.519 89.1277 217.55C90.825 219.397 90.8675 222.187 89.3322 224.08C89.1801 224.268 89.0123 224.447 88.8292 224.615ZM81.615 220.772C81.5718 221.795 81.9296 222.773 82.6227 223.528C84.0531 225.084 86.4834 225.187 88.04 223.756C89.5975 222.326 89.6992 219.896 88.2687 218.339C86.8383 216.783 84.408 216.68 82.8514 218.11C82.7103 218.24 82.5805 218.378 82.4619 218.525C81.947 219.16 81.6502 219.94 81.615 220.772Z" fill="#BDD0FB"/>
<path d="M94.8783 228.708C95.142 228.383 95.3908 228.043 95.6235 227.688C95.6969 227.576 95.7683 227.463 95.8379 227.349C96.1812 226.787 96.4792 226.199 96.7274 225.593C96.7308 225.584 96.7342 225.576 96.7376 225.568C96.7471 225.544 96.7565 225.521 96.7658 225.497C96.7842 225.451 96.8021 225.406 96.8199 225.36C96.8665 225.239 96.8272 225.106 96.7318 225.028C96.7085 225.009 96.682 224.994 96.6526 224.982C96.5023 224.925 96.3338 225 96.2757 225.15C95.9776 225.923 95.594 226.669 95.1357 227.368C92.8606 230.839 89.0432 232.704 85.1722 232.654C83.019 232.627 80.8492 232.007 78.9189 230.741C78.5803 230.519 78.2554 230.282 77.9454 230.03C75.8581 228.338 74.4283 225.998 73.8738 223.331C73.2367 220.269 73.8305 217.141 75.5458 214.525C79.0889 209.122 86.362 207.61 91.7626 211.151C92.0957 211.37 92.4163 211.604 92.7235 211.853C94.0549 212.933 95.1352 214.292 95.8821 215.837C95.9015 215.877 95.9285 215.911 95.961 215.937C96.046 216.005 96.1666 216.024 96.2717 215.973C96.4166 215.902 96.4778 215.728 96.4072 215.583C95.623 213.961 94.4889 212.534 93.0911 211.401C92.7687 211.139 92.432 210.893 92.0826 210.664C86.4124 206.946 78.7743 208.536 75.0579 214.205C73.2571 216.951 72.6338 220.235 73.3027 223.45C73.8848 226.25 75.3858 228.706 77.577 230.483C77.9026 230.747 78.2436 230.996 78.5988 231.229C81.3457 233.03 84.6291 233.653 87.8446 232.984C90.6447 232.402 93.1012 230.9 94.8783 228.708Z" fill="#BDD0FB"/>
<g opacity="0.3">
<path d="M136.901 194.243C137.024 194.091 137.038 193.872 136.922 193.703C136.705 193.389 136.475 193.076 136.239 192.775C136.086 192.579 135.803 192.544 135.607 192.698C135.41 192.85 135.377 193.134 135.53 193.33C135.755 193.617 135.973 193.915 136.181 194.215C136.322 194.419 136.602 194.471 136.807 194.33C136.843 194.305 136.875 194.275 136.901 194.243Z" fill="#91B3FA"/>
<path d="M134.65 191.618C134.474 191.795 134.189 191.795 134.013 191.62C133.568 191.177 133.095 190.752 132.607 190.357C132.505 190.274 132.4 190.191 132.295 190.109C132.099 189.957 132.063 189.674 132.216 189.477C132.368 189.297 132.651 189.246 132.848 189.398C132.958 189.484 133.067 189.57 133.175 189.657C133.686 190.072 134.182 190.517 134.648 190.981C134.813 191.146 134.824 191.407 134.681 191.584C134.671 191.596 134.661 191.607 134.65 191.618ZM130.407 188.819C129.754 188.429 129.07 188.076 128.376 187.77C128.148 187.669 128.045 187.404 128.146 187.176C128.246 186.95 128.512 186.845 128.739 186.946C129.467 187.266 130.184 187.637 130.869 188.046C131.082 188.174 131.152 188.45 131.024 188.664C131.013 188.683 131.001 188.7 130.987 188.717C130.848 188.888 130.601 188.936 130.407 188.819ZM126.23 186.979C125.502 186.761 124.753 186.587 124.002 186.46C123.757 186.419 123.592 186.187 123.633 185.942C123.675 185.696 123.906 185.531 124.152 185.572C124.938 185.704 125.725 185.888 126.488 186.116C126.726 186.187 126.862 186.438 126.79 186.676C126.773 186.734 126.745 186.786 126.709 186.831C126.597 186.968 126.41 187.033 126.23 186.979ZM121.728 186.221C120.968 186.188 120.198 186.202 119.442 186.263C119.194 186.283 118.977 186.099 118.957 185.851C118.937 185.603 119.122 185.386 119.37 185.366C120.163 185.302 120.969 185.287 121.767 185.321C122.015 185.332 122.208 185.542 122.197 185.791C122.193 185.891 122.156 185.982 122.097 186.054C122.011 186.162 121.876 186.228 121.728 186.221ZM117.177 186.585C116.432 186.738 115.69 186.939 114.97 187.181C114.735 187.261 114.479 187.134 114.4 186.898C114.32 186.663 114.447 186.407 114.683 186.328C115.437 186.074 116.215 185.864 116.996 185.703C117.24 185.653 117.478 185.81 117.528 186.053C117.556 186.191 117.518 186.327 117.436 186.428C117.373 186.506 117.284 186.563 117.177 186.585ZM112.853 188.043C112.169 188.372 111.498 188.748 110.86 189.159C110.651 189.293 110.372 189.233 110.238 189.024C110.103 188.815 110.163 188.537 110.372 188.402C111.041 187.97 111.745 187.577 112.463 187.231C112.687 187.124 112.956 187.218 113.064 187.442C113.142 187.604 113.114 187.79 113.008 187.921C112.967 187.971 112.916 188.013 112.853 188.043ZM109.019 190.513C108.438 190.999 107.879 191.528 107.359 192.085C107.189 192.267 106.904 192.277 106.723 192.107C106.541 191.938 106.533 191.655 106.701 191.47C107.246 190.886 107.831 190.332 108.441 189.822C108.632 189.663 108.916 189.688 109.076 189.879C109.216 190.047 109.213 190.287 109.08 190.451C109.062 190.473 109.042 190.494 109.019 190.513ZM104.065 195.956C103.847 195.835 103.769 195.561 103.889 195.344C104.222 194.741 104.594 194.147 104.994 193.578C105.054 193.491 105.115 193.406 105.177 193.321C105.317 193.116 105.605 193.075 105.806 193.222C106.007 193.368 106.051 193.65 105.905 193.851C105.847 193.931 105.79 194.011 105.732 194.094C105.35 194.638 104.995 195.205 104.677 195.78C104.664 195.803 104.649 195.825 104.632 195.846C104.497 196.012 104.259 196.063 104.065 195.956Z" fill="#91B3FA"/>
</g>
<g opacity="0.3">
<path d="M135.847 217.212C135.345 217.815 134.801 218.393 134.232 218.93C134.051 219.1 133.766 219.092 133.595 218.91C133.425 218.729 133.436 218.445 133.614 218.274C134.158 217.762 134.676 217.211 135.155 216.636C135.314 216.445 135.598 216.419 135.789 216.578C135.978 216.736 136.006 217.016 135.851 217.207C135.85 217.209 135.848 217.211 135.847 217.212ZM136.622 215.445C136.413 215.31 136.353 215.031 136.488 214.823C136.895 214.195 137.267 213.536 137.595 212.864C137.704 212.642 137.974 212.547 138.197 212.657C138.421 212.766 138.513 213.035 138.405 213.259C138.061 213.963 137.67 214.654 137.244 215.312C137.235 215.326 137.226 215.339 137.216 215.351C137.073 215.528 136.817 215.572 136.622 215.445ZM132.419 220.439C131.786 220.903 131.119 221.332 130.436 221.715C130.219 221.837 129.945 221.759 129.823 221.543C129.701 221.326 129.779 221.052 129.995 220.93C130.646 220.565 131.282 220.155 131.887 219.712C132.088 219.565 132.369 219.609 132.516 219.809C132.64 219.978 132.629 220.204 132.503 220.359C132.479 220.388 132.451 220.415 132.419 220.439ZM138.735 211.358C138.5 211.277 138.375 211.021 138.456 210.786C138.699 210.079 138.902 209.349 139.057 208.618C139.109 208.375 139.348 208.22 139.591 208.271C139.834 208.323 139.99 208.562 139.938 208.805C139.775 209.572 139.563 210.337 139.308 211.079C139.29 211.13 139.264 211.176 139.232 211.216C139.116 211.359 138.919 211.421 138.735 211.358ZM128.314 222.741C127.59 223.038 126.839 223.294 126.083 223.502C125.843 223.568 125.595 223.427 125.529 223.188C125.463 222.948 125.604 222.7 125.844 222.634C126.565 222.436 127.281 222.191 127.972 221.907C128.202 221.813 128.465 221.922 128.56 222.153C128.625 222.31 128.593 222.484 128.493 222.608C128.447 222.664 128.387 222.711 128.314 222.741ZM123.777 223.991C123 224.106 122.21 224.175 121.428 224.197C121.179 224.204 120.972 224.008 120.965 223.759C120.958 223.511 121.154 223.303 121.403 223.297C122.149 223.276 122.903 223.21 123.644 223.1C123.89 223.063 124.119 223.233 124.156 223.479C124.175 223.609 124.137 223.734 124.06 223.829C123.992 223.913 123.892 223.973 123.777 223.991ZM119.07 224.118C118.288 224.044 117.503 223.922 116.739 223.755C116.496 223.701 116.342 223.461 116.395 223.218C116.448 222.975 116.689 222.822 116.931 222.875C117.66 223.035 118.408 223.151 119.154 223.221C119.402 223.245 119.584 223.464 119.56 223.712C119.552 223.804 119.516 223.886 119.462 223.953C119.37 224.066 119.226 224.133 119.07 224.118Z" fill="#91B3FA"/>
<path d="M140.19 206.695C140.245 206.628 140.28 206.544 140.289 206.451C140.322 206.067 140.344 205.68 140.354 205.301C140.361 205.053 140.165 204.846 139.916 204.839C139.668 204.833 139.461 205.028 139.454 205.277C139.444 205.638 139.423 206.007 139.391 206.373C139.37 206.621 139.554 206.839 139.801 206.861C139.956 206.874 140.099 206.807 140.19 206.695Z" fill="#91B3FA"/>
</g>
<path d="M134.758 200.063C134.738 199.968 134.66 199.896 134.563 199.883L131.811 199.532C131.264 198.357 130.527 197.26 129.607 196.294L130.289 193.605C130.313 193.511 130.274 193.412 130.193 193.358L127.409 191.533C127.328 191.48 127.221 191.484 127.144 191.543L124.951 193.24C123.698 192.783 122.398 192.543 121.102 192.511L119.682 190.127C119.632 190.043 119.535 190 119.44 190.02L116.181 190.698C116.085 190.718 116.013 190.796 116.001 190.892L115.65 193.645C114.474 194.191 113.378 194.929 112.411 195.848L109.723 195.167C109.628 195.143 109.529 195.182 109.476 195.263L107.651 198.047C107.597 198.128 107.602 198.235 107.661 198.311L109.358 200.505C108.9 201.758 108.661 203.058 108.629 204.354L106.244 205.773C106.161 205.823 106.118 205.921 106.138 206.016L106.816 209.275C106.835 209.37 106.913 209.442 107.01 209.455L109.763 209.806C110.309 210.982 111.047 212.078 111.966 213.045L111.285 215.733C111.261 215.827 111.299 215.926 111.381 215.98L114.165 217.805C114.246 217.859 114.352 217.854 114.429 217.795L116.623 216.098C117.876 216.556 119.175 216.795 120.471 216.827L121.891 219.212C121.941 219.295 122.038 219.338 122.133 219.318L125.393 218.64C125.488 218.621 125.56 218.543 125.572 218.446L125.924 215.693C127.099 215.147 128.196 214.409 129.162 213.49L131.851 214.171C131.945 214.195 132.044 214.157 132.097 214.075L133.923 211.291C133.976 211.21 133.972 211.104 133.912 211.027L132.215 208.833C132.673 207.58 132.912 206.28 132.944 204.985L135.329 203.565C135.413 203.515 135.455 203.418 135.436 203.322L134.758 200.063Z" fill="#91B3FA"/>
<path d="M123.092 207.177C122.422 207.793 121.552 208.111 120.643 208.072C119.734 208.034 118.894 207.644 118.279 206.974C117.008 205.591 117.099 203.436 118.482 202.161C119.865 200.89 122.024 200.981 123.295 202.364C123.91 203.034 124.228 203.904 124.19 204.813C124.159 205.552 123.895 206.245 123.437 206.809C123.332 206.939 123.217 207.062 123.092 207.177ZM118.942 206.364C119.395 206.857 120.012 207.144 120.681 207.173C121.35 207.201 121.989 206.967 122.482 206.514C122.974 206.061 123.262 205.443 123.29 204.775C123.319 204.106 123.084 203.466 122.632 202.974C121.697 201.957 120.109 201.889 119.091 202.824C119 202.908 118.916 202.998 118.839 203.092C118.07 204.041 118.091 205.439 118.942 206.364Z" fill="#BDD0FB"/>
<path d="M127.302 210.025C127.481 209.804 127.651 209.572 127.811 209.329C128.127 208.846 128.395 208.33 128.608 207.795C128.617 207.771 128.626 207.747 128.636 207.723C128.708 207.536 128.647 207.331 128.5 207.211C128.464 207.182 128.423 207.158 128.377 207.14C128.145 207.051 127.886 207.168 127.795 207.399C127.602 207.9 127.354 208.383 127.058 208.835L127.057 208.835C127.041 208.86 127.025 208.884 127.008 208.909C126.298 209.97 125.349 210.814 124.247 211.392C123.649 211.705 123.005 211.94 122.328 212.087C122.322 212.088 122.317 212.089 122.311 212.091C122.294 212.094 122.277 212.098 122.261 212.101C120.278 212.513 118.253 212.129 116.559 211.019C116.34 210.875 116.13 210.722 115.929 210.559C114.578 209.463 113.652 207.948 113.293 206.222C112.881 204.239 113.265 202.214 114.376 200.521C115.486 198.829 117.19 197.667 119.173 197.254C121.155 196.842 123.18 197.226 124.874 198.337C125.09 198.478 125.297 198.63 125.496 198.791C126.358 199.49 127.057 200.37 127.541 201.37C127.571 201.432 127.612 201.483 127.662 201.524C127.794 201.63 127.98 201.658 128.142 201.579C128.366 201.47 128.46 201.202 128.351 200.978C127.81 199.859 127.028 198.874 126.064 198.092C125.841 197.911 125.609 197.742 125.368 197.584C123.473 196.341 121.208 195.911 118.989 196.373C116.771 196.834 114.864 198.13 113.623 200.026C112.38 201.921 111.95 204.186 112.412 206.405C112.813 208.336 113.849 210.031 115.36 211.257C115.585 211.439 115.82 211.611 116.065 211.772C119.734 214.177 124.596 213.362 127.302 210.025Z" fill="#BDD0FB"/>
<path d="M81.9581 422.735C81.9581 422.735 81.451 425.454 81.1894 428.147C81.0872 429.2 81.8907 430.123 82.9471 430.177C86.536 430.361 94.2129 430.725 96.9699 430.628C97.3843 430.613 97.6592 430.192 97.5096 429.805C97.3842 429.481 97.1389 429.218 96.8245 429.069L84.1946 423.118L81.9581 422.735Z" fill="url(#paint6_linear_43_5475)"/>
<path d="M81.5791 421.131L81.9345 424.392C81.9345 424.392 84.1468 425.448 85.6755 424.297L84.79 420.658L81.5791 421.131Z" fill="url(#paint7_linear_43_5475)"/>
<path d="M82.4537 359.887C82.2787 360.737 81.1526 402.332 85.4216 421.018C85.4913 421.323 85.3341 421.635 85.0435 421.751C84.3587 422.023 83.0178 422.414 81.4148 422.452C80.9184 422.464 80.4765 422.138 80.341 421.66C79.1111 417.322 73.2266 395.592 72.6296 374.881C71.9623 351.739 72.6371 374.093 72.6371 374.093L73.2942 359.798L82.4537 359.887Z" fill="url(#paint8_linear_43_5475)"/>
<path d="M67.3516 424.016C67.3516 424.016 66.5726 425.384 65.7964 429.03C65.6562 429.689 66.1112 430.325 66.7806 430.397C67.9651 430.525 69.7887 430.692 71.2507 430.696C71.9246 430.698 72.4562 430.116 72.3814 429.446C72.2322 428.111 71.7486 425.918 70.2064 424.198L67.3516 424.016Z" fill="url(#paint9_linear_43_5475)"/>
<path d="M66.7192 419.82L67.5753 424.755C67.5753 424.755 68.462 425.428 70.2331 424.963L69.8525 419.658L66.7192 419.82Z" fill="url(#paint10_linear_43_5475)"/>
<path d="M64.8403 360.996C60.9939 382.912 65.1117 415.255 66.5441 421.591C66.6318 421.979 66.9414 422.279 67.3331 422.348C67.9983 422.464 69.0945 422.565 70.1789 422.261C70.5526 422.157 70.8176 421.823 70.8364 421.435C71.0854 416.326 71.0244 384.944 74.5316 372.576C74.7093 371.949 75.0983 371.405 75.6329 371.032L82.2551 366.419L82.8316 358.865L64.8403 360.996Z" fill="url(#paint11_linear_43_5475)"/>
<path d="M88.4124 319.626C77.5145 319.342 65.4591 322.27 65.4591 322.27C62.0293 341.196 64.5015 363.088 64.5015 363.088C72.9186 365.381 82.4714 361.906 82.4714 361.906C83.9495 353.996 90.7059 331.758 90.7059 331.758C96.0377 331.148 100.439 329.653 104.072 327.656C101.346 324.436 100.086 320.359 99.5446 317.951C95.6794 319.111 91.7737 319.714 88.4124 319.626Z" fill="#09005D"/>
<path d="M120.761 303.879C119.703 302.575 118.342 303.174 118.342 303.174C116.673 309.934 108.211 315.348 99.5449 317.951C100.086 320.359 101.347 324.436 104.072 327.656C118.488 319.731 120.761 303.879 120.761 303.879Z" fill="url(#paint12_linear_43_5475)"/>
<path d="M120.498 304.205C120.607 304.563 119.304 305.093 118.554 303.629C118.534 302.93 118.138 299.935 118.561 299.37C120.812 296.363 125.155 292.607 125.155 292.607C125.877 293.332 125.27 294.032 125.27 294.032L123.16 296.189C123.589 296.983 124.116 297.655 124.357 298.612C124.539 299.338 124.416 300.11 124.044 300.765C123.671 301.422 123.163 302.276 122.683 302.944C121.775 304.208 120.498 304.205 120.498 304.205Z" fill="url(#paint13_linear_43_5475)"/>
<path d="M122.232 297.593L120.312 299.189L119.699 300.79L121.379 302.69C121.379 302.69 121.98 299.506 122.411 298.82C122.842 298.134 122.625 297.798 122.232 297.593Z" fill="url(#paint14_linear_43_5475)"/>
<path d="M69.5388 332.864L65.459 322.27C65.459 322.27 55.212 329.09 53.4541 337.844C55.3764 338.004 58.8721 338.538 62.2819 340.301C63.0743 336.167 69.5388 332.864 69.5388 332.864Z" fill="#91B3FA"/>
<path d="M78.3412 342.879C78.3412 342.879 66.849 349.23 63.0448 343.677C62.255 342.524 62.0744 341.384 62.2821 340.301C58.8722 338.538 55.3766 338.004 53.4542 337.844C52.9243 340.484 53.1643 343.298 54.6908 346.155C61.3288 358.578 79.827 345.712 79.827 345.712L78.3412 342.879Z" fill="url(#paint15_linear_43_5475)"/>
<path d="M77.4567 310.672L73.8929 320.669C73.8339 320.834 73.9004 321.019 74.0535 321.105C74.9939 321.637 78.3854 323.18 82.5147 320.617C82.945 320.35 83.2402 319.911 83.3099 319.409L84.5158 310.74L77.4567 310.672Z" fill="url(#paint16_linear_43_5475)"/>
<path d="M85.0914 301.457C85.0914 301.457 88.8314 308.662 88.3156 311.553C87.7999 314.444 83.082 314.191 78.9829 311.8L76.1768 304.032L85.0914 301.457Z" fill="url(#paint17_linear_43_5475)"/>
<path d="M79.2012 308C79.3694 307.928 79.4331 307.723 79.3344 307.569C79.0336 307.1 78.4708 306.144 78.2962 305.309C78.2962 305.309 77.6158 304.864 80.0484 304.307C82.4811 303.749 86.1092 302.882 86.8896 300.823C87.6506 298.816 85.7501 293.732 82.6023 297.738C82.4825 297.891 82.2508 297.892 82.134 297.737C81.6308 297.069 80.3038 295.679 78.4353 296.496C76.6868 297.26 76.4785 298.534 76.4963 299.178C76.5016 299.367 76.331 299.512 76.1454 299.475C75.2668 299.299 73.1557 299.134 72.149 301.292C71.3199 303.069 71.8382 304.085 72.3141 304.583C72.4683 304.745 72.3975 305.008 72.1833 305.071C71.6031 305.243 70.8514 305.726 70.9132 307.082C70.9988 308.957 73.0954 308.812 73.6926 308.732C73.7905 308.719 73.8886 308.754 73.9541 308.828C74.4601 309.398 76.7414 311.823 79.2326 312.137C79.4483 312.164 79.6178 311.952 79.549 311.746L78.4996 308.599C78.4508 308.452 78.5221 308.293 78.6635 308.232L79.2012 308Z" fill="url(#paint18_linear_43_5475)"/>
<path d="M79.631 308.45C79.631 308.45 76.9371 306.563 76.7241 308.128C76.5111 309.693 79.1442 310.421 80.4574 309.849L79.631 308.45Z" fill="url(#paint19_linear_43_5475)"/>
<path d="M75.9924 352.916L82.2526 331.054C82.3237 330.806 82.5354 330.625 82.7918 330.595C83.926 330.463 87.2127 330.091 91.0074 329.77C95.5783 329.383 100.886 329.07 104.058 329.337C104.509 329.375 104.782 329.852 104.581 330.257C102.778 333.907 95.358 348.751 91.6424 353.614C91.5193 353.775 91.3289 353.869 91.1262 353.867L76.6014 353.732C76.1787 353.728 75.876 353.323 75.9924 352.916Z" fill="url(#paint20_linear_43_5475)"/>
<path d="M77.5048 347.634C77.5048 347.634 76.6327 344.048 76.9845 342.776C77.3363 341.504 78.0178 339.868 80.2896 340.232C82.5614 340.595 85.2412 341.552 85.2412 341.552C85.2412 341.552 85.1059 343.209 83.3793 342.675L84.45 343.503C84.45 343.503 84.2969 344.83 82.8385 344.121L83.8343 345.22C83.8343 345.22 83.208 346.31 82.135 345.611C81.062 344.912 80.5476 348.066 77.5048 347.634Z" fill="url(#paint21_linear_43_5475)"/>
<path d="M90.5898 336.297C90.5898 337.311 91.4126 338.134 92.4275 338.134C93.4424 338.134 94.2652 337.311 94.2652 336.297C94.2652 335.282 93.4424 334.459 92.4275 334.459C91.4126 334.459 90.5898 335.282 90.5898 336.297Z" fill="#91B3FA"/>
<path d="M82.961 337.508L84.2356 333.184C84.392 332.653 84.8188 332.255 85.3495 332.144C89.3445 331.31 100.279 331.133 100.389 331.132L100.381 330.643C99.9304 330.65 89.2901 330.823 85.2497 331.666C84.5426 331.813 83.9744 332.342 83.7667 333.046L82.4922 337.37L82.961 337.508Z" fill="#BDD0FB"/>
<path d="M245.664 304.995C245.838 304.663 246.329 304.715 246.43 305.076C246.801 306.412 247.7 308.744 249.585 309.572C249.68 309.614 249.77 309.656 249.857 309.699C249.942 309.442 249.944 309.145 249.739 308.831C249.153 307.936 250.211 306.712 250.211 306.712C250.211 306.712 250.281 307.79 251.1 308.468C251.805 309.053 252.144 310.353 251.662 311.42C250.642 315.384 249.113 320.626 255.066 324.456C261.018 328.286 269.4 317.228 269.4 317.228L265.24 330.417C265.24 330.417 258.818 335.156 251.349 328.493C243.879 321.829 248.83 312.133 248.83 312.133C248.83 312.133 243.133 309.834 245.664 304.995Z" fill="url(#paint22_linear_43_5475)"/>
<path d="M270.443 297.849C270.443 297.849 268.718 290.114 277.579 292.162C277.579 292.162 281.88 291.459 282.099 295.518C282.099 295.518 284.871 297.345 282.841 300.858C282.841 300.858 291.081 297.676 294.671 304.898C298.261 312.12 294.961 316.094 291.502 317.129C291.502 317.129 294.304 318.536 292.978 321.714C291.651 324.891 284.933 327.131 280.964 323.267C280.964 323.267 269.671 324.759 269.897 316.782C269.897 316.782 264.645 313.391 270.162 306.799C275.678 300.207 270.443 297.849 270.443 297.849Z" fill="url(#paint23_linear_43_5475)"/>
<path d="M269.956 315.779C271.737 315.245 276.921 314.26 281.852 318.81C282.688 319.582 283.03 320.755 282.732 321.853C281.407 326.729 277.913 341.135 280.977 347.369C280.977 347.369 275.577 353.321 269.686 348.524C269.686 348.524 267.043 337.004 263.582 331.947C261.192 328.456 267.393 318.837 268.962 316.513C269.199 316.161 269.549 315.901 269.956 315.779Z" fill="#91B3FA"/>
<path d="M274.872 306.092C274.872 306.092 277.506 313.54 277.704 316.826C277.704 316.826 274.794 318.149 272.051 315.916C272.051 315.916 271.763 308.476 271.348 307.144L274.872 306.092Z" fill="url(#paint24_linear_43_5475)"/>
<path d="M271.215 295.936C271.215 295.936 264.327 305.574 268.444 308.374C272.561 311.174 277.464 304.324 277.464 304.324C277.464 304.324 279.063 299.049 277.391 297.259C275.72 295.469 271.215 295.936 271.215 295.936Z" fill="url(#paint25_linear_43_5475)"/>
<path d="M274.403 293.633C274.403 293.633 271.239 294.382 270.795 295.814C270.352 297.246 275.282 298.573 276.664 298.638L277.777 304.415C277.777 304.415 281.067 298.981 279.764 295.842C278.46 292.703 274.403 293.633 274.403 293.633Z" fill="url(#paint26_linear_43_5475)"/>
<path d="M276.129 303.615C276.129 303.615 278.81 300.51 279.876 302.534C280.943 304.558 277.464 306.078 276.259 305.084L276.129 303.615Z" fill="url(#paint27_linear_43_5475)"/>
<path d="M262.81 372.71C262.83 373.233 261.912 377.381 261.412 379.593C261.211 380.483 261.351 381.415 261.805 382.207L279.11 411.333C279.319 411.685 279.472 412.067 279.564 412.466C279.881 413.833 280.539 417.182 280.196 420.23L279.301 422.089L283.172 421.21L284.015 410.812L282.918 410.144C281.972 409.567 281.234 408.703 280.812 407.678C279.247 403.877 275.361 394.201 274.36 389.486C273.221 384.127 267.271 379.774 267.271 379.774L268.316 377.303L262.81 372.71Z" fill="url(#paint28_linear_43_5475)"/>
<path d="M287.475 417.632C287.475 417.632 285.384 414.317 285.138 413.027C284.892 411.737 284.207 409.458 282.918 410.144C282.918 410.144 282.311 416.412 282.52 418.861C282.73 421.31 279.752 421.232 279.752 421.232C279.752 421.232 278.931 421.347 278.33 421.948C277.915 422.363 278.212 423.083 278.797 423.12C279.772 423.183 281.32 423.2 282.945 422.886C283.513 422.776 283.934 422.293 283.969 421.715L284.398 414.501L287.035 417.831L287.475 417.632Z" fill="url(#paint29_linear_43_5475)"/>
<path d="M273.148 377.349C273.148 377.349 273.758 403.402 273.841 407.102C273.924 410.802 273.257 419.002 269.547 421.453L271.161 422.648C271.161 422.648 273.178 420.933 275.149 417.634C277.363 413.927 278.032 413.25 278.032 413.25L277.298 411.746C276.976 411.087 276.882 410.342 277.03 409.624C277.83 405.745 280.504 392.841 281.234 390.062C282.095 386.781 282.156 382.401 279.16 378.734C276.165 375.067 273.148 377.349 273.148 377.349Z" fill="url(#paint30_linear_43_5475)"/>
<path d="M276.573 423.822C276.688 423.823 276.786 423.741 276.802 423.627C276.926 422.758 277.439 419.276 277.86 418.374C278.342 417.342 279.915 412.996 277.859 412.627C277.859 412.627 272.748 420.094 271.767 421.101C270.785 422.108 269.547 421.453 269.547 421.453C269.547 421.453 268.591 421.735 267.87 422.656C267.527 423.095 267.847 423.739 268.404 423.744L271.846 423.777C272.846 423.786 273.745 423.179 274.117 422.251C274.723 420.737 275.764 418.517 276.977 417.532L276.347 423.569C276.333 423.703 276.438 423.821 276.573 423.822Z" fill="url(#paint31_linear_43_5475)"/>
<path d="M268.872 345.715C268.872 345.715 269.648 348.188 268.456 352.26L261.062 378.079C260.946 378.485 261.165 378.91 261.562 379.052C263.774 379.846 271.044 382.089 280.968 381.405C281.468 381.371 281.887 381.017 281.996 380.528C282.65 377.585 284.881 367.542 285.34 365.478C287.091 357.616 289.045 349.136 280.447 344.009C276.484 345.706 272.788 346.707 268.872 345.715Z" fill="url(#paint32_linear_43_5475)"/>
<path d="M282.558 319.784C282.558 319.784 290.97 326.774 293.058 336.328C295.145 345.881 280.765 346.896 280.765 346.896C280.765 346.896 278.813 344.716 276.495 345.493C274.178 346.271 276.316 341.689 279.028 341.701C281.739 341.713 280.483 343.857 284.319 342.12C288.056 340.427 290.366 335.192 280.831 327.257C280.279 326.797 279.838 326.21 279.572 325.542C277.72 320.879 279.189 317.823 282.558 319.784Z" fill="url(#paint33_linear_43_5475)"/>
<path d="M229.918 391.159H226.917V423.609H229.918V391.159Z" fill="#7D97F4"/>
<path d="M241.558 424.235H215.277V422.498C215.277 422.378 215.374 422.281 215.494 422.281H241.341C241.461 422.281 241.558 422.378 241.558 422.498V424.235Z" fill="#7D97F4"/>
<path d="M246.528 389.962C246.528 391.848 244.984 393.392 243.098 393.392H214.84C212.954 393.392 211.411 391.848 211.411 389.962V386.861C211.411 384.975 212.954 383.432 214.84 383.432H243.098C244.984 383.432 246.528 384.975 246.528 386.861V389.962Z" fill="#7D97F4"/>
<path d="M201.818 413.754C201.818 413.754 192.117 417.932 192.673 422.305C192.673 422.305 202.7 420.382 204.495 417.516C206.289 414.65 205.301 412.99 205.301 412.99L201.818 413.754Z" fill="url(#paint34_linear_43_5475)"/>
<path d="M204.194 408.979L204.686 413.236C204.76 413.879 204.403 414.513 203.795 414.732C203.49 414.842 203.09 414.917 202.566 414.92C201.826 414.923 201.17 414.437 200.973 413.724L200.019 410.28L204.194 408.979Z" fill="url(#paint35_linear_43_5475)"/>
<path d="M225.385 376.331C225.385 376.331 207.543 375.505 198.665 380.683C189.786 385.86 199.115 410.71 199.115 410.71C199.115 410.71 201.434 411.208 204.773 409.424C204.773 409.424 200.007 391.233 208.286 388.068C217.592 384.51 227.218 385.375 227.218 385.375L225.435 376.893L225.385 376.331Z" fill="url(#paint36_linear_43_5475)"/>
<path d="M194.622 420.386C196.651 419.942 202.667 417.449 203.581 417.482C204.495 417.516 205.789 418.885 205.789 418.885C205.789 418.885 206.012 419.633 205.359 420.708C203.809 421.916 200.47 424.136 196.587 424.379C193.731 424.558 192.013 423.421 191.03 422.319C191.891 421.482 193.271 420.682 194.622 420.386Z" fill="url(#paint37_linear_43_5475)"/>
<path d="M196.587 424.379C200.469 424.136 203.809 421.917 205.359 420.708C204.917 421.434 204.076 422.309 202.494 423.203C198.57 425.419 192.086 425.096 190.801 424.597C189.771 424.197 190.089 423.235 191.03 422.319C192.013 423.421 193.731 424.558 196.587 424.379Z" fill="url(#paint38_linear_43_5475)"/>
<path d="M207.92 416.657C207.787 417.159 206.366 418.668 205.544 419.51C205.154 419.91 204.587 420.081 204.041 419.962C203.695 419.886 203.304 419.768 202.965 419.584C202.457 419.309 202.281 418.663 202.559 418.157L204.637 414.378L207.92 416.657Z" fill="url(#paint39_linear_43_5475)"/>
<path d="M243.067 374.834C243.067 374.834 244.625 385.883 240.122 388.141C235.619 390.4 225.742 391.878 222.34 397.609C218.938 403.339 212.828 414.587 207.268 417.818C207.268 417.818 204.093 416.786 203.165 415.224C203.165 415.224 209.764 397.875 212.518 393.658C214.902 390.006 218.389 384.744 223.342 382.469C224.76 381.817 224.871 380.313 224.621 378.773L224.167 375.968L243.067 374.834Z" fill="url(#paint40_linear_43_5475)"/>
<path d="M201.332 362.31C207.645 364.112 210.471 346.345 210.445 345.912L220.125 357.23C220.125 357.23 214.358 367.378 205.649 368.458C203.445 368.731 201.571 368.35 199.999 367.63C201.157 365.733 201.422 363.86 201.332 362.31Z" fill="url(#paint41_linear_43_5475)"/>
<path d="M189.641 356.494C192.392 355.364 194.726 357.62 194.726 357.62C197.453 360.411 199.615 361.82 201.332 362.31C201.422 363.86 201.157 365.733 199.999 367.63C196.597 366.072 194.614 362.921 193.798 361.349C193.504 360.783 192.814 360.544 192.24 360.821C191.657 361.103 191.056 361.534 191.018 362.118C190.944 363.27 189.572 363.338 189.564 362.913C189.556 362.487 190.626 360.211 190.626 360.211C190.626 360.211 187.465 362.239 186.234 363.015C185.004 363.79 183.956 362.51 183.956 362.51C183.956 362.51 186.889 357.625 189.641 356.494Z" fill="url(#paint42_linear_43_5475)"/>
<path d="M240.635 338.601C240.635 338.601 232.151 332.814 211.662 343.281C211.662 343.281 209.551 345.956 210.54 348.971C211.528 351.987 223.694 368.306 224.167 375.968C224.167 375.968 232.483 380.863 243.279 376.01C243.279 376.01 246.899 355.78 240.635 338.601Z" fill="#4042E2"/>
<path d="M222.969 331.202L226.322 337.771C226.655 338.423 226.585 339.213 226.128 339.785C225.205 340.942 223.278 342.497 219.989 341.495C219.01 341.197 218.261 340.401 218.025 339.405L216.288 332.072L222.969 331.202Z" fill="url(#paint43_linear_43_5475)"/>
<path d="M246.918 361.542C247.492 357.548 236.939 349.808 236.939 349.808L240.635 338.601C240.635 338.601 260.772 352.972 256.537 364.707C255.93 366.39 255.025 367.615 253.921 368.484C251.788 364.111 248.896 362.293 246.918 361.542Z" fill="url(#paint44_linear_43_5475)"/>
<path d="M232.195 362.65C232.195 362.65 244.133 365.984 246.609 362.35C246.777 362.104 246.876 361.832 246.918 361.542C248.896 362.293 251.788 364.111 253.921 368.484C248.253 372.943 237.325 367.945 234.356 366.446C233.867 366.2 233.306 366.152 232.783 366.315C231.727 366.644 229.897 367.156 228.878 367.1C227.386 367.018 225.785 372.409 223.246 371.044C223.246 371.044 224.4 361.834 232.195 362.65Z" fill="url(#paint45_linear_43_5475)"/>
<path d="M218.672 320.465C218.565 320.557 214.143 328.281 211.892 332.219C211.205 333.421 211.719 334.951 212.992 335.497L213.967 335.914C215.3 336.486 218.165 336.964 219.293 336.053L226.403 328.549C226.403 328.548 221.063 318.395 218.672 320.465Z" fill="url(#paint46_linear_43_5475)"/>
<path d="M228.405 326.501C229.277 326.011 230.326 325.019 229.509 323.265C228.68 321.482 227.04 321.327 225.984 321.441C225.557 321.487 225.171 321.215 225.047 320.804C224.976 320.57 224.803 320.363 224.429 320.304C223.924 320.224 223.611 319.709 223.742 319.215C223.995 318.267 223.952 316.98 222.427 316.057C219.722 314.418 217.192 316.798 216.488 318.866C215.783 320.935 218.818 322.545 220.756 322.873C222.229 323.122 222.947 324.822 223.207 325.622C223.29 325.876 223.25 326.152 223.104 326.374L220.942 329.659C221.537 330.406 222.064 331.197 222.583 331.996C222.777 331.787 222.947 331.613 223.08 331.491C224.019 330.631 225.689 331.074 226.376 331.311C226.602 331.388 226.847 331.37 227.059 331.261C227.807 330.874 229.319 329.787 228.08 327.732C227.821 327.301 227.968 326.747 228.405 326.501Z" fill="url(#paint47_linear_43_5475)"/>
<path d="M221.796 333.4C221.796 333.4 223.178 329.848 224.749 330.046C226.32 330.245 227.495 331.867 225.468 333.551C222.946 335.645 221.796 333.4 221.796 333.4Z" fill="url(#paint48_linear_43_5475)"/>
<path d="M216.953 370.251C216.932 370.252 216.91 370.252 216.889 370.252L189.001 370.222C188.311 370.221 187.753 369.662 187.754 368.972C187.755 368.283 188.316 367.713 189.004 367.725L216.892 367.756C217.581 367.756 218.139 368.316 218.139 369.005C218.138 369.673 217.613 370.218 216.953 370.251Z" fill="url(#paint49_linear_43_5475)"/>
<path d="M163.931 344.93H187.156C188.87 344.93 190.429 345.919 191.16 347.468L201.897 370.236H173.034C171.93 370.236 170.938 369.561 170.532 368.534L162.206 347.466C161.725 346.249 162.622 344.93 163.931 344.93Z" fill="url(#paint50_linear_43_5475)"/>
<path d="M180.293 356.603C180.797 358.167 180.425 359.686 179.463 359.995C178.501 360.305 177.313 359.288 176.81 357.725C176.307 356.161 176.678 354.642 177.64 354.333C178.602 354.023 179.79 355.04 180.293 356.603Z" fill="#91B3FA"/>
<path d="M167.696 430.066C167.542 430.066 167.385 430.036 167.234 429.973C166.639 429.725 166.364 429.058 166.62 428.482L191.198 373.167C191.454 372.591 192.143 372.326 192.738 372.573C193.332 372.821 193.607 373.488 193.351 374.064L168.773 429.379C168.582 429.808 168.15 430.066 167.696 430.066Z" fill="#91B3FA"/>
<path d="M195.384 430.065C194.93 430.065 194.498 429.808 194.307 429.379L169.729 374.063C169.473 373.488 169.748 372.82 170.342 372.573C170.937 372.325 171.626 372.591 171.882 373.166L196.46 428.482C196.716 429.058 196.442 429.725 195.847 429.972C195.696 430.035 195.539 430.065 195.384 430.065Z" fill="#91B3FA"/>
<path d="M243.776 430.065C243.622 430.065 243.465 430.035 243.314 429.973C242.719 429.725 242.444 429.058 242.7 428.482L267.278 373.167C267.534 372.591 268.223 372.325 268.818 372.573C269.413 372.82 269.687 373.488 269.431 374.063L244.853 429.379C244.662 429.808 244.23 430.065 243.776 430.065Z" fill="#91B3FA"/>
<path d="M271.464 430.065C271.01 430.065 270.578 429.808 270.387 429.379L245.809 374.063C245.553 373.488 245.828 372.82 246.422 372.573C247.017 372.325 247.706 372.591 247.962 373.166L272.54 428.482C272.796 429.058 272.522 429.725 271.927 429.972C271.776 430.035 271.619 430.065 271.464 430.065Z" fill="#91B3FA"/>
<path d="M274.347 371.459C274.41 371.096 274.325 370.721 274.115 370.436C273.905 370.151 273.592 369.985 273.262 369.985H161.448C161.014 369.985 160.61 370.233 160.376 370.643C160.142 371.052 160.111 371.567 160.293 372.008L161.505 374.944C161.782 375.616 162.383 376.047 163.045 376.047H272.494C273.11 376.047 273.639 375.558 273.756 374.882L274.347 371.459Z" fill="#91B3FA"/>
<rect x="-115" y="577" width="662" height="48" fill="#4F52FF"/>
<defs>
<linearGradient id="paint0_linear_43_5475" x1="325.397" y1="501.773" x2="107.832" y2="231.571" gradientUnits="userSpaceOnUse">
<stop stop-color="#DAE3FE"/>
<stop offset="1" stop-color="#E9EFFD"/>
</linearGradient>
<linearGradient id="paint1_linear_43_5475" x1="226.321" y1="212.241" x2="45.2449" y2="452.649" gradientUnits="userSpaceOnUse">
<stop stop-color="#4F52FF"/>
<stop offset="1" stop-color="#4042E2"/>
</linearGradient>
<linearGradient id="paint2_linear_43_5475" x1="226.321" y1="212.241" x2="45.245" y2="452.648" gradientUnits="userSpaceOnUse">
<stop stop-color="#4F52FF"/>
<stop offset="1" stop-color="#4042E2"/>
</linearGradient>
<linearGradient id="paint3_linear_43_5475" x1="172.681" y1="175.825" x2="162.601" y2="255.277" gradientUnits="userSpaceOnUse">
<stop stop-color="#FF928E"/>
<stop offset="1" stop-color="#FE7062"/>
</linearGradient>
<linearGradient id="paint4_linear_43_5475" x1="134.863" y1="299.495" x2="215.891" y2="250.478" gradientUnits="userSpaceOnUse">
<stop stop-color="#09005D"/>
<stop offset="1" stop-color="#1A0F91"/>
</linearGradient>
<linearGradient id="paint5_linear_43_5475" x1="162.178" y1="299.475" x2="219.535" y2="251.9" gradientUnits="userSpaceOnUse">
<stop stop-color="#09005D"/>
<stop offset="1" stop-color="#1A0F91"/>
</linearGradient>
<linearGradient id="paint6_linear_43_5475" x1="96.6775" y1="419.111" x2="49.7452" y2="469.197" gradientUnits="userSpaceOnUse">
<stop stop-color="#09005D"/>
<stop offset="1" stop-color="#1A0F91"/>
</linearGradient>
<linearGradient id="paint7_linear_43_5475" x1="81.5641" y1="422.72" x2="85.6901" y2="422.759" gradientUnits="userSpaceOnUse">
<stop stop-color="#FEBBBA"/>
<stop offset="1" stop-color="#FF928E"/>
</linearGradient>
<linearGradient id="paint8_linear_43_5475" x1="100.88" y1="362.001" x2="60.8422" y2="415.202" gradientUnits="userSpaceOnUse">
<stop stop-color="#09005D"/>
<stop offset="1" stop-color="#1A0F91"/>
</linearGradient>
<linearGradient id="paint9_linear_43_5475" x1="86.3474" y1="409.43" x2="39.4132" y2="459.518" gradientUnits="userSpaceOnUse">
<stop stop-color="#09005D"/>
<stop offset="1" stop-color="#1A0F91"/>
</linearGradient>
<linearGradient id="paint10_linear_43_5475" x1="66.6951" y1="422.366" x2="70.2575" y2="422.4" gradientUnits="userSpaceOnUse">
<stop stop-color="#FEBBBA"/>
<stop offset="1" stop-color="#FF928E"/>
</linearGradient>
<linearGradient id="paint11_linear_43_5475" x1="93.8847" y1="356.736" x2="53.847" y2="409.937" gradientUnits="userSpaceOnUse">
<stop stop-color="#09005D"/>
<stop offset="1" stop-color="#1A0F91"/>
</linearGradient>
<linearGradient id="paint12_linear_43_5475" x1="99.5707" y1="315.233" x2="120.652" y2="315.433" gradientUnits="userSpaceOnUse">
<stop stop-color="#FEBBBA"/>
<stop offset="1" stop-color="#FF928E"/>
</linearGradient>
<linearGradient id="paint13_linear_43_5475" x1="115.989" y1="311.855" x2="101.538" y2="343.905" gradientUnits="userSpaceOnUse">
<stop stop-color="#FEBBBA"/>
<stop offset="1" stop-color="#FF928E"/>
</linearGradient>
<linearGradient id="paint14_linear_43_5475" x1="120.686" y1="301.18" x2="126.674" y2="292.161" gradientUnits="userSpaceOnUse">
<stop stop-color="#FEBBBA"/>
<stop offset="1" stop-color="#FF928E"/>
</linearGradient>
<linearGradient id="paint15_linear_43_5475" x1="53.1574" y1="344.652" x2="79.8347" y2="344.906" gradientUnits="userSpaceOnUse">
<stop stop-color="#FEBBBA"/>
<stop offset="1" stop-color="#FF928E"/>
</linearGradient>
<linearGradient id="paint16_linear_43_5475" x1="72.7704" y1="329.921" x2="82.8502" y2="310.354" gradientUnits="userSpaceOnUse">
<stop stop-color="#FEBBBA"/>
<stop offset="1" stop-color="#FF928E"/>
</linearGradient>
<linearGradient id="paint17_linear_43_5475" x1="87.0343" y1="309.742" x2="75.5045" y2="302.558" gradientUnits="userSpaceOnUse">
<stop stop-color="#FEBBBA"/>
<stop offset="1" stop-color="#FF928E"/>
</linearGradient>
<linearGradient id="paint18_linear_43_5475" x1="69.4367" y1="295.044" x2="84.306" y2="307.019" gradientUnits="userSpaceOnUse">
<stop stop-color="#09005D"/>
<stop offset="1" stop-color="#1A0F91"/>
</linearGradient>
<linearGradient id="paint19_linear_43_5475" x1="83.9631" y1="312.35" x2="73.5897" y2="305.887" gradientUnits="userSpaceOnUse">
<stop stop-color="#FEBBBA"/>
<stop offset="1" stop-color="#FF928E"/>
</linearGradient>
<linearGradient id="paint20_linear_43_5475" x1="86.9879" y1="327.701" x2="101.708" y2="389.037" gradientUnits="userSpaceOnUse">
<stop stop-color="#09005D"/>
<stop offset="1" stop-color="#1A0F91"/>
</linearGradient>
<linearGradient id="paint21_linear_43_5475" x1="76.9009" y1="343.928" x2="85.2412" y2="343.928" gradientUnits="userSpaceOnUse">
<stop stop-color="#FEBBBA"/>
<stop offset="1" stop-color="#FF928E"/>
</linearGradient>
<linearGradient id="paint22_linear_43_5475" x1="243.123" y1="295.709" x2="265.5" y2="331.573" gradientUnits="userSpaceOnUse">
<stop stop-color="#FEBBBA"/>
<stop offset="1" stop-color="#FF928E"/>
</linearGradient>
<linearGradient id="paint23_linear_43_5475" x1="305.244" y1="292.408" x2="282.641" y2="307.479" gradientUnits="userSpaceOnUse">
<stop stop-color="#09005D"/>
<stop offset="1" stop-color="#1A0F91"/>
</linearGradient>
<linearGradient id="paint24_linear_43_5475" x1="270.684" y1="320.518" x2="274.879" y2="311.2" gradientUnits="userSpaceOnUse">
<stop stop-color="#FEBBBA"/>
<stop offset="1" stop-color="#FF928E"/>
</linearGradient>
<linearGradient id="paint25_linear_43_5475" x1="270.467" y1="297.875" x2="278.982" y2="316.308" gradientUnits="userSpaceOnUse">
<stop stop-color="#FEBBBA"/>
<stop offset="1" stop-color="#FF928E"/>
</linearGradient>
<linearGradient id="paint26_linear_43_5475" x1="299.169" y1="283.298" x2="276.565" y2="298.368" gradientUnits="userSpaceOnUse">
<stop stop-color="#09005D"/>
<stop offset="1" stop-color="#1A0F91"/>
</linearGradient>
<linearGradient id="paint27_linear_43_5475" x1="274.473" y1="296.024" x2="282.988" y2="314.458" gradientUnits="userSpaceOnUse">
<stop stop-color="#FEBBBA"/>
<stop offset="1" stop-color="#FF928E"/>
</linearGradient>
<linearGradient id="paint28_linear_43_5475" x1="294.226" y1="436.55" x2="262.968" y2="380.13" gradientUnits="userSpaceOnUse">
<stop stop-color="#FEBBBA"/>
<stop offset="1" stop-color="#FF928E"/>
</linearGradient>
<linearGradient id="paint29_linear_43_5475" x1="287.485" y1="416.643" x2="278.192" y2="416.555" gradientUnits="userSpaceOnUse">
<stop stop-color="#09005D"/>
<stop offset="1" stop-color="#1A0F91"/>
</linearGradient>
<linearGradient id="paint30_linear_43_5475" x1="258.594" y1="394.693" x2="305.994" y2="410.348" gradientUnits="userSpaceOnUse">
<stop stop-color="#FEBBBA"/>
<stop offset="1" stop-color="#FF928E"/>
</linearGradient>
<linearGradient id="paint31_linear_43_5475" x1="278.853" y1="418.24" x2="267.775" y2="418.135" gradientUnits="userSpaceOnUse">
<stop stop-color="#09005D"/>
<stop offset="1" stop-color="#1A0F91"/>
</linearGradient>
<linearGradient id="paint32_linear_43_5475" x1="311.868" y1="335.353" x2="285.187" y2="355.809" gradientUnits="userSpaceOnUse">
<stop stop-color="#09005D"/>
<stop offset="1" stop-color="#1A0F91"/>
</linearGradient>
<linearGradient id="paint33_linear_43_5475" x1="291.224" y1="349.506" x2="246.421" y2="283.076" gradientUnits="userSpaceOnUse">
<stop stop-color="#FEBBBA"/>
<stop offset="1" stop-color="#FF928E"/>
</linearGradient>
<linearGradient id="paint34_linear_43_5475" x1="196.032" y1="406.099" x2="198.953" y2="417.414" gradientUnits="userSpaceOnUse">
<stop stop-color="#09005D"/>
<stop offset="1" stop-color="#1A0F91"/>
</linearGradient>
<linearGradient id="paint35_linear_43_5475" x1="204.971" y1="412.322" x2="199.819" y2="411.182" gradientUnits="userSpaceOnUse">
<stop stop-color="#FEBBBA"/>
<stop offset="1" stop-color="#FF928E"/>
</linearGradient>
<linearGradient id="paint36_linear_43_5475" x1="215.118" y1="400.268" x2="200.016" y2="364.737" gradientUnits="userSpaceOnUse">
<stop stop-color="#09005D"/>
<stop offset="1" stop-color="#1A0F91"/>
</linearGradient>
<linearGradient id="paint37_linear_43_5475" x1="196.757" y1="417.046" x2="209.498" y2="444.46" gradientUnits="userSpaceOnUse">
<stop stop-color="#09005D"/>
<stop offset="1" stop-color="#1A0F91"/>
</linearGradient>
<linearGradient id="paint38_linear_43_5475" x1="204.606" y1="424.11" x2="190.752" y2="421.043" gradientUnits="userSpaceOnUse">
<stop stop-color="#4F52FF"/>
<stop offset="1" stop-color="#4042E2"/>
</linearGradient>
<linearGradient id="paint39_linear_43_5475" x1="207.644" y1="417.902" x2="202.809" y2="416.831" gradientUnits="userSpaceOnUse">
<stop stop-color="#FEBBBA"/>
<stop offset="1" stop-color="#FF928E"/>
</linearGradient>
<linearGradient id="paint40_linear_43_5475" x1="219.625" y1="417.306" x2="227.499" y2="376.011" gradientUnits="userSpaceOnUse">
<stop stop-color="#09005D"/>
<stop offset="1" stop-color="#1A0F91"/>
</linearGradient>
<linearGradient id="paint41_linear_43_5475" x1="235.016" y1="337.527" x2="187.436" y2="374.435" gradientUnits="userSpaceOnUse">
<stop stop-color="#FF928E"/>
<stop offset="1" stop-color="#FE7062"/>
</linearGradient>
<linearGradient id="paint42_linear_43_5475" x1="201.506" y1="363.155" x2="184.639" y2="359.422" gradientUnits="userSpaceOnUse">
<stop stop-color="#FEBBBA"/>
<stop offset="1" stop-color="#FF928E"/>
</linearGradient>
<linearGradient id="paint43_linear_43_5475" x1="226.816" y1="337.542" x2="215.625" y2="335.065" gradientUnits="userSpaceOnUse">
<stop stop-color="#FEBBBA"/>
<stop offset="1" stop-color="#FF928E"/>
</linearGradient>
<linearGradient id="paint44_linear_43_5475" x1="183.056" y1="393.209" x2="228.412" y2="365.195" gradientUnits="userSpaceOnUse">
<stop stop-color="#FF928E"/>
<stop offset="1" stop-color="#FE7062"/>
</linearGradient>
<linearGradient id="paint45_linear_43_5475" x1="235.703" y1="365.516" x2="280.148" y2="427.751" gradientUnits="userSpaceOnUse">
<stop stop-color="#FEBBBA"/>
<stop offset="1" stop-color="#FF928E"/>
</linearGradient>
<linearGradient id="paint46_linear_43_5475" x1="220.622" y1="323.199" x2="215" y2="349.573" gradientUnits="userSpaceOnUse">
<stop stop-color="#FEBBBA"/>
<stop offset="1" stop-color="#FF928E"/>
</linearGradient>
<linearGradient id="paint47_linear_43_5475" x1="228.397" y1="330.24" x2="217.195" y2="317.298" gradientUnits="userSpaceOnUse">
<stop stop-color="#09005D"/>
<stop offset="1" stop-color="#1A0F91"/>
</linearGradient>
<linearGradient id="paint48_linear_43_5475" x1="222.834" y1="348.338" x2="224.228" y2="331.931" gradientUnits="userSpaceOnUse">
<stop stop-color="#FEBBBA"/>
<stop offset="1" stop-color="#FF928E"/>
</linearGradient>
<linearGradient id="paint49_linear_43_5475" x1="221.685" y1="362.841" x2="199.546" y2="370.102" gradientUnits="userSpaceOnUse">
<stop stop-color="#09005D"/>
<stop offset="1" stop-color="#1A0F91"/>
</linearGradient>
<linearGradient id="paint50_linear_43_5475" x1="191.273" y1="348.325" x2="175.33" y2="365.176" gradientUnits="userSpaceOnUse">
<stop stop-color="#09005D"/>
<stop offset="1" stop-color="#1A0F91"/>
</linearGradient>
</defs>
</svg>
