<svg xmlns="http://www.w3.org/2000/svg" width="273" height="278" viewBox="0 0 273 278" fill="none">
  <g filter="url(#filter0_di_23_295)">
    <rect width="250" height="250" rx="50" fill="#275EF2"/>
  </g>
  <path d="M75.5414 119.315C71.3069 119.315 67.3965 118.212 63.8101 116.007C60.2237 113.756 57.3718 110.724 55.2546 106.911C53.1805 103.098 52.1435 98.941 52.1435 94.439C52.1435 89.9371 53.1805 85.7797 55.2546 81.9668C57.3718 78.1539 60.2237 75.145 63.8101 72.9399C67.3965 70.689 71.3069 69.5635 75.5414 69.5635C79.776 69.5635 83.6864 70.689 87.2728 72.9399C90.8592 75.145 93.6894 78.1539 95.7635 81.9668C97.8808 85.7797 98.9394 89.9371 98.9394 94.439C98.9394 98.941 97.8808 103.098 95.7635 106.911C93.6894 110.724 90.8592 113.756 87.2728 116.007C83.6864 118.212 79.776 119.315 75.5414 119.315ZM75.5414 110.288C78.2204 110.288 80.705 109.576 82.9951 108.152C85.2852 106.728 87.1 104.798 88.4395 102.363C89.779 99.9287 90.4487 97.2872 90.4487 94.439C90.4487 91.5909 89.779 88.9494 88.4395 86.5147C87.1 84.08 85.2852 82.1506 82.9951 80.7265C80.705 79.3024 78.2204 78.5903 75.5414 78.5903C72.8624 78.5903 70.3563 79.3024 68.023 80.7265C65.7329 82.1506 63.9181 84.08 62.5786 86.5147C61.2391 88.9494 60.5693 91.5909 60.5693 94.439C60.5693 97.2872 61.2391 99.9287 62.5786 102.363C63.9181 104.798 65.7329 106.728 68.023 108.152C70.3563 109.576 72.8624 110.288 75.5414 110.288Z" fill="white"/>
  <path d="M130.591 70.1836H139.082V102.157C139.082 105.51 138.326 108.496 136.813 111.115C135.301 113.687 133.227 115.708 130.591 117.178C127.955 118.603 124.974 119.315 121.647 119.315C118.32 119.315 115.338 118.603 112.702 117.178C110.067 115.708 107.992 113.687 106.48 111.115C104.968 108.496 104.212 105.51 104.212 102.157V70.1836H112.702V102.157C112.702 104.637 113.545 106.636 115.23 108.152C116.958 109.622 119.097 110.357 121.647 110.357C124.369 110.357 126.529 109.622 128.128 108.152C129.77 106.682 130.591 104.683 130.591 102.157V70.1836Z" fill="white"/>
  <path d="M172.743 118.419L163.863 101.743H155.437V118.419H146.946V70.1836H165.354C168.033 70.1836 170.517 70.8957 172.807 72.3198C175.097 73.6979 176.891 75.6044 178.187 78.0391C179.526 80.4738 180.196 83.1153 180.196 85.9634C180.196 88.9035 179.505 91.5909 178.122 94.0256C176.739 96.4603 174.881 98.3668 172.548 99.7449L182.4 118.419H172.743ZM155.437 78.7282V93.1298H165.354C167.212 93.1298 168.811 92.4407 170.15 91.0626C171.489 89.6385 172.159 87.9388 172.159 85.9634C172.159 83.9421 171.489 82.2424 170.15 80.8643C168.854 79.4402 167.255 78.7282 165.354 78.7282H155.437Z" fill="white"/>
  <path d="M45.9016 198.761C41.451 198.761 37.7134 197.704 34.6887 195.591C31.664 193.478 29.5468 190.63 28.3369 187.046L35.4665 182.568C37.2381 187.483 40.7813 189.941 46.096 189.941C48.4725 189.941 50.3089 189.343 51.6052 188.149C52.9015 186.955 53.5497 185.576 53.5497 184.015C53.5497 182.453 52.8367 181.189 51.4108 180.225C50.0281 179.26 47.5435 178.226 43.9572 177.124C41.1485 176.205 38.772 175.217 36.8276 174.161C34.8832 173.058 33.2844 171.588 32.0313 169.751C30.8215 167.913 30.2165 165.593 30.2165 162.791C30.2165 159.943 30.8863 157.462 32.2258 155.349C33.5653 153.19 35.3369 151.559 37.5405 150.457C39.7874 149.308 42.2288 148.734 44.8645 148.734C48.5374 148.734 51.7133 149.676 54.3922 151.559C57.1144 153.397 59.2101 155.992 60.6792 159.346L53.42 163.756C51.7349 159.667 48.883 157.623 44.8645 157.623C43.0497 157.623 41.559 158.128 40.3924 159.139C39.2257 160.15 38.6424 161.344 38.6424 162.722C38.6424 163.779 38.9016 164.675 39.4202 165.41C39.9819 166.145 40.8461 166.811 42.0127 167.408C43.2226 168.005 44.9726 168.671 47.2627 169.406C50.2441 170.417 52.7503 171.473 54.7811 172.576C56.8552 173.678 58.562 175.217 59.9015 177.193C61.2842 179.122 61.9755 181.557 61.9755 184.497C61.9755 187.391 61.2842 189.918 59.9015 192.077C58.5188 194.236 56.5959 195.89 54.133 197.038C51.7133 198.187 48.9695 198.761 45.9016 198.761Z" fill="white"/>
  <path d="M96.5028 149.63V158.174H83.9936V197.865H75.5678V158.174H63.1234V149.63H96.5028Z" fill="white"/>
  <path d="M120.228 198.761C115.993 198.761 112.083 197.658 108.496 195.453C104.91 193.202 102.058 190.17 99.941 186.357C97.8669 182.545 96.8299 178.387 96.8299 173.885C96.8299 169.383 97.8669 165.226 99.941 161.413C102.058 157.6 104.91 154.591 108.496 152.386C112.083 150.135 115.993 149.01 120.228 149.01C124.462 149.01 128.373 150.135 131.959 152.386C135.546 154.591 138.376 157.6 140.45 161.413C142.567 165.226 143.626 169.383 143.626 173.885C143.626 178.387 142.567 182.545 140.45 186.357C138.376 190.17 135.546 193.202 131.959 195.453C128.373 197.658 124.462 198.761 120.228 198.761ZM120.228 189.734C122.907 189.734 125.391 189.022 127.681 187.598C129.972 186.174 131.786 184.244 133.126 181.81C134.465 179.375 135.135 176.733 135.135 173.885C135.135 171.037 134.465 168.396 133.126 165.961C131.786 163.526 129.972 161.597 127.681 160.173C125.391 158.749 122.907 158.036 120.228 158.036C117.549 158.036 115.043 158.749 112.709 160.173C110.419 161.597 108.604 163.526 107.265 165.961C105.925 168.396 105.256 171.037 105.256 173.885C105.256 176.733 105.925 179.375 107.265 181.81C108.604 184.244 110.419 186.174 112.709 187.598C115.043 189.022 117.549 189.734 120.228 189.734Z" fill="white"/>
  <path d="M175.148 197.865L166.268 181.189H157.842V197.865H149.352V149.63H167.759C170.438 149.63 172.922 150.342 175.213 151.766C177.503 153.144 179.296 155.05 180.592 157.485C181.932 159.92 182.601 162.561 182.601 165.41C182.601 168.35 181.91 171.037 180.527 173.472C179.145 175.906 177.287 177.813 174.953 179.191L184.805 197.865H175.148ZM157.842 158.174V172.576H167.759C169.617 172.576 171.216 171.887 172.555 170.509C173.895 169.085 174.564 167.385 174.564 165.41C174.564 163.388 173.895 161.689 172.555 160.31C171.259 158.886 169.66 158.174 167.759 158.174H157.842Z" fill="white"/>
  <path d="M202.964 170.233L213.918 149.63H223.51L207.177 180.638V197.865H198.686V180.5L182.353 149.63H191.946L202.964 170.233Z" fill="white"/>
  <defs>
    <filter id="filter0_di_23_295" x="0" y="0" width="274" height="278" filterUnits="userSpaceOnUse" color-interpolation-filters="sRGB">
      <feFlood flood-opacity="0" result="BackgroundImageFix"/>
      <feColorMatrix in="SourceAlpha" type="matrix" values="0 0 0 0 0 0 0 0 0 0 0 0 0 0 0 0 0 0 127 0" result="hardAlpha"/>
      <feOffset dx="12" dy="17"/>
      <feGaussianBlur stdDeviation="5.5"/>
      <feComposite in2="hardAlpha" operator="out"/>
      <feColorMatrix type="matrix" values="0 0 0 0 0 0 0 0 0 0 0 0 0 0 0 0 0 0 0.25 0"/>
      <feBlend mode="normal" in2="BackgroundImageFix" result="effect1_dropShadow_23_295"/>
      <feBlend mode="normal" in="SourceGraphic" in2="effect1_dropShadow_23_295" result="shape"/>
      <feColorMatrix in="SourceAlpha" type="matrix" values="0 0 0 0 0 0 0 0 0 0 0 0 0 0 0 0 0 0 127 0" result="hardAlpha"/>
      <feOffset dx="24" dy="4"/>
      <feGaussianBlur stdDeviation="15"/>
      <feComposite in2="hardAlpha" operator="arithmetic" k2="-1" k3="1"/>
      <feColorMatrix type="matrix" values="0 0 0 0 0 0 0 0 0 0 0 0 0 0 0 0 0 0 0.25 0"/>
      <feBlend mode="normal" in2="shape" result="effect2_innerShadow_23_295"/>
    </filter>
  </defs>
</svg>