<svg width="320" height="625" viewBox="0 0 320 625" fill="none" xmlns="http://www.w3.org/2000/svg">
<path d="M259.13 223.753L257.442 225.597L259.286 227.285L346.814 307.39C350.63 310.883 353.475 313.696 355.417 316.216C357.346 318.718 358.234 320.743 358.396 322.657C358.557 324.555 358.035 326.711 356.409 329.537C354.767 332.39 352.102 335.75 348.223 339.988L201.83 499.946C197.951 504.184 194.84 507.135 192.143 509.022C189.473 510.892 187.371 511.603 185.466 511.61C183.545 511.618 181.45 510.912 178.787 509.212C176.105 507.5 173.051 504.915 169.235 501.422L-84.2453 269.437L-86.0895 267.749L-87.7774 269.593L-131.141 316.975L-132.829 318.819L-130.985 320.507L122.496 552.493C144.416 572.555 165.532 582.957 186.928 581.99C208.321 581.022 229.304 568.72 251.034 544.977L397.427 385.019C419.157 361.276 429.557 339.288 428.629 317.894C427.702 296.496 415.474 276.382 393.553 256.32L306.026 176.215L304.182 174.527L302.494 176.371L259.13 223.753ZM241.189 418.779L242.877 416.935L241.033 415.247L37.7012 229.158L140.891 116.407C148.489 108.105 155.973 103.747 163.027 102.853C169.993 101.97 177.009 104.407 183.888 110.703L197.045 122.744C199.719 125.191 202.299 127.353 204.539 129.231C205.792 130.281 206.938 131.241 207.936 132.114C210.888 134.694 212.646 136.587 213.446 138.405C214.142 139.984 214.219 141.767 212.941 144.515C211.601 147.395 208.868 151.103 204.174 156.233L160.991 203.417L159.303 205.261L161.147 206.949L206.307 248.279L208.151 249.967L209.839 248.123L253.022 200.939C276.396 175.399 285.529 153.348 282.716 132.272C279.922 111.337 265.417 92.1262 243.459 72.03L230.657 60.3143C209.109 40.5928 185.444 31.2894 161.508 33.1235C137.601 34.9553 113.857 47.8642 92.0425 71.7004L-56.199 233.677L-57.8868 235.522L-56.0426 237.209L194.293 466.317L196.138 468.005L197.826 466.161L241.189 418.779ZM156.578 213.104L154.733 211.417L153.046 213.261L109.682 260.643L107.994 262.487L109.838 264.175L260.321 401.897L262.165 403.585L263.853 401.74L307.217 354.359L308.905 352.514L307.061 350.827L156.578 213.104ZM117.571 177.405L115.727 175.717L114.039 177.562L70.6749 224.943L68.9871 226.788L70.8313 228.475L93.3334 249.069L95.1776 250.757L96.8655 248.913L140.229 201.531L141.917 199.687L140.073 197.999L117.571 177.405Z" stroke="url(#paint0_linear_277_20)" stroke-opacity="0.6" stroke-width="5"/>
<rect x="-115" y="577" width="662" height="48" fill="#388BF7"/>
<path d="M60.2341 326.783C60.2341 326.783 54.0206 289.647 40.5821 296.438C27.1437 303.23 54.7432 323.604 60.2341 326.783Z" fill="#FF6666"/>
<path d="M67.8923 328.373C67.8923 328.373 50.9858 308.576 61.6788 303.952C72.3718 299.328 67.8923 328.373 67.8923 328.373Z" fill="#FF6666"/>
<path d="M72.3699 341.239C72.3699 341.239 57.104 324.706 51.4936 332.48C45.8832 340.255 72.3699 341.239 72.3699 341.239Z" fill="#FF6666"/>
<path d="M43.0386 302.074C43.0386 302.074 66.0139 345.857 98.9597 351.493" stroke="#FF5640" stroke-width="1.9595" stroke-miterlimit="10"/>
<path d="M63.5576 310.744C63.5576 310.744 67.4593 317.969 68.615 335.02" stroke="#FF5640" stroke-width="1.9595" stroke-miterlimit="10"/>
<path d="M57.2788 335.036C57.2788 335.036 63.1671 339.266 78.1878 342.853" stroke="#FF5640" stroke-width="1.7715" stroke-miterlimit="10"/>
<path d="M47.3687 337.296C47.3687 337.296 59.2174 362.787 90.9623 350.802" stroke="#FF5640" stroke-width="1.9595" stroke-miterlimit="10"/>
<path d="M50.7633 343.034C50.7633 343.034 53.9522 338.49 45.252 333.68C45.252 333.68 42.407 341.388 50.7633 343.034Z" fill="#FF5640"/>
<path d="M55.9664 347.484C55.9664 347.484 52.0081 344.403 55.3501 339.994C55.3501 339.994 59.1915 343.516 55.9664 347.484Z" fill="#FF5640"/>
<path d="M55.4188 347.794C55.4188 347.794 51.7092 351.72 47.3262 347.684C47.3262 347.684 51.4973 343.928 55.4188 347.794Z" fill="#FF5640"/>
<path d="M63.527 351.735C63.527 351.735 59.2042 349.191 61.9492 344.387C61.9492 344.387 66.2132 347.384 63.527 351.735Z" fill="#FF5640"/>
<path d="M63.0235 352.113C63.0235 352.113 59.8515 356.485 54.9844 353.048C54.9844 353.048 58.6356 348.786 63.0235 352.113Z" fill="#FF5640"/>
<path d="M72.1065 353.504C72.1065 353.504 67.1722 352.604 68.0956 347.149C68.0956 347.149 73.1304 348.495 72.1065 353.504Z" fill="#FF5640"/>
<path d="M71.7635 354.032C71.7635 354.032 70.2905 359.229 64.5381 357.678C64.5381 357.678 66.4991 352.419 71.7635 354.032Z" fill="#FF5640"/>
<path d="M81.6966 353.304C81.6966 353.304 76.699 353.734 76.1543 348.228C76.1543 348.228 81.3661 348.202 81.6966 353.304Z" fill="#FF5640"/>
<path d="M81.5055 353.903C81.5055 353.903 81.4528 359.305 75.4946 359.323C75.4946 359.323 76.0017 353.733 81.5055 353.903Z" fill="#FF5640"/>
<path d="M70.7826 278.232C70.7826 278.232 61.7156 304.84 92.9367 318.132" stroke="#FF5640" stroke-width="1.9595" stroke-miterlimit="10"/>
<path d="M69.2677 284.724C69.2677 284.724 74.7135 283.646 71.7539 274.156C71.7539 274.156 64.3687 277.757 69.2677 284.724Z" fill="#FF5640"/>
<path d="M69.9489 291.537C69.9489 291.537 69.2197 286.574 74.6828 285.7C74.6828 285.7 75.0222 290.9 69.9489 291.537Z" fill="#FF5640"/>
<path d="M69.3395 291.381C69.3395 291.381 63.9445 291.653 63.5688 285.706C63.5688 285.706 69.1793 285.878 69.3395 291.381Z" fill="#FF5640"/>
<path d="M72.4712 299.836C72.4712 299.836 71.1075 295.008 76.4122 293.436C76.4122 293.436 77.4197 298.55 72.4712 299.836Z" fill="#FF5640"/>
<path d="M71.8467 299.76C71.8467 299.76 66.5319 300.725 65.3921 294.877C65.3921 294.877 70.9773 294.323 71.8467 299.76Z" fill="#FF5640"/>
<path d="M77.4456 307.046C77.4456 307.046 74.5036 302.983 78.9424 299.681C78.9424 299.681 81.6494 304.135 77.4456 307.046Z" fill="#FF5640"/>
<path d="M76.8327 307.19C76.8327 307.19 72.1749 309.926 69.0918 304.827C69.0918 304.827 74.1447 302.384 76.8327 307.19Z" fill="#FF5640"/>
<path d="M84.5127 313.533C84.5127 313.533 80.6049 310.388 84.0185 306.034C84.0185 306.034 87.802 309.618 84.5127 313.533Z" fill="#FF5640"/>
<path d="M83.9596 313.833C83.9596 313.833 80.1863 317.699 75.8696 313.592C75.8696 313.592 80.1018 309.905 83.9596 313.833Z" fill="#FF5640"/>
<path d="M74.8921 321.344C74.8921 321.344 80.3025 348.929 113.993 344.88" stroke="#FF5640" stroke-width="1.9595" stroke-miterlimit="10"/>
<path d="M76.8171 327.726C76.8171 327.726 80.9997 324.076 73.7017 317.326C73.7017 317.326 69.0965 324.13 76.8171 327.726Z" fill="#FF5640"/>
<path d="M80.8046 333.292C80.8046 333.292 77.6977 329.354 81.9971 325.871C81.9971 325.871 84.8846 330.21 80.8046 333.292Z" fill="#FF5640"/>
<path d="M80.1988 333.461C80.1988 333.461 75.6578 336.387 72.3672 331.42C72.3672 331.42 77.3152 328.77 80.1988 333.461Z" fill="#FF5640"/>
<path d="M87.1293 339.227C87.1293 339.227 83.54 335.723 87.3541 331.715C87.3541 331.715 90.7778 335.645 87.1293 339.227Z" fill="#FF5640"/>
<path d="M86.5503 339.473C86.5503 339.473 82.4248 342.961 78.5205 338.46C78.5205 338.46 83.0858 335.194 86.5503 339.473Z" fill="#FF5640"/>
<path d="M95.0367 342.996C95.0367 342.996 90.4608 340.941 92.6616 335.865C92.6616 335.865 97.2291 338.377 95.0367 342.996Z" fill="#FF5640"/>
<path d="M94.5777 343.427C94.5777 343.427 91.9048 348.121 86.6899 345.239C86.6899 345.239 89.8513 340.601 94.5777 343.427Z" fill="#FF5640"/>
<path d="M104.397 345.095C104.397 345.095 99.4418 344.317 100.229 338.841C100.229 338.841 105.296 340.061 104.397 345.095Z" fill="#FF5640"/>
<path d="M104.069 345.631C104.069 345.631 102.726 350.863 96.936 349.456C96.936 349.456 98.7652 344.15 104.069 345.631Z" fill="#FF5640"/>
<path d="M157.844 305.783C157.844 305.783 165.454 332.844 133.559 344.423" stroke="#FF5640" stroke-width="1.9595" stroke-miterlimit="10"/>
<path d="M159.004 312.348C159.004 312.348 153.625 310.976 157.095 301.66C157.095 301.66 164.274 305.657 159.004 312.348Z" fill="#FF5640"/>
<path d="M157.954 319.114C157.954 319.114 158.951 314.198 153.544 313.029C153.544 313.029 152.923 318.204 157.954 319.114Z" fill="#FF5640"/>
<path d="M158.572 318.992C158.572 318.992 163.944 319.556 164.641 313.638C164.641 313.638 159.03 313.505 158.572 318.992Z" fill="#FF5640"/>
<path d="M154.986 327.263C154.986 327.263 156.609 322.518 151.398 320.66C151.398 320.66 150.114 325.711 154.986 327.263Z" fill="#FF5640"/>
<path d="M155.614 327.222C155.614 327.222 160.868 328.474 162.324 322.697C162.324 322.697 156.777 321.84 155.614 327.222Z" fill="#FF5640"/>
<path d="M149.627 334.193C149.627 334.193 152.786 330.296 148.532 326.758C148.532 326.758 145.588 331.059 149.627 334.193Z" fill="#FF5640"/>
<path d="M150.231 334.371C150.231 334.371 154.734 337.356 158.089 332.432C158.089 332.432 153.176 329.718 150.231 334.371Z" fill="#FF5640"/>
<path d="M142.22 340.288C142.22 340.288 146.292 337.36 143.12 332.827C143.12 332.827 139.148 336.201 142.22 340.288Z" fill="#FF5640"/>
<path d="M142.755 340.618C142.755 340.618 146.313 344.682 150.846 340.816C150.846 340.816 146.82 336.904 142.755 340.618Z" fill="#FF5640"/>
<path d="M110.742 362.691C111.095 365.059 109.462 367.265 107.094 367.618L94.6601 369.473C92.292 369.826 90.0864 368.193 89.7333 365.825L83.2755 322.52C82.9224 320.152 84.5556 317.946 86.9236 317.593L99.3577 315.739C101.726 315.386 103.931 317.019 104.285 319.387L110.742 362.691Z" fill="#001433"/>
<path d="M119.768 236.272C119.768 236.272 136.165 226.031 145.712 241.169C155.26 256.307 158.788 295.043 144.259 297.715C129.73 300.386 119.56 298.383 121.428 276.343C123.296 254.304 119.768 236.272 119.768 236.272Z" fill="#000A19"/>
<path d="M128.654 278.449C128.654 278.449 124.969 288.853 131.471 290.587C137.974 292.321 144.91 288.419 145.56 302.508C146.21 316.596 98.7424 303.808 99.3924 297.74C100.043 291.671 114.998 296.222 115.648 282.784C116.299 269.345 116.516 268.695 116.516 268.695L128.654 278.449Z" fill="#FFB199"/>
<path d="M127.679 285.619C127.316 282.234 128.654 278.449 128.654 278.449L116.516 268.695C116.516 268.695 116.516 270.695 116.361 275.413C118.386 280.235 122.646 283.777 127.679 285.619Z" fill="#E2887D"/>
<path d="M124.319 241.595C124.319 241.595 144.91 235.592 144.91 261.317C144.91 287.042 119.984 284.469 114.132 264.962C108.027 244.611 124.319 241.595 124.319 241.595Z" fill="#FFB199"/>
<path d="M122.369 255.148C122.369 255.148 122.408 254.949 122.545 254.623C122.681 254.298 122.911 253.841 123.295 253.357C123.671 252.871 124.204 252.348 124.904 251.951C125.25 251.747 125.638 251.581 126.049 251.464C126.457 251.332 126.894 251.285 127.326 251.253C127.758 251.25 128.192 251.27 128.603 251.358C128.809 251.396 129.012 251.44 129.205 251.505C129.401 251.562 129.591 251.622 129.77 251.702C130.136 251.841 130.465 252.022 130.77 252.196C131.07 252.38 131.344 252.564 131.578 252.757C131.823 252.934 132.024 253.126 132.2 253.296C132.382 253.457 132.524 253.616 132.639 253.75C132.87 254.013 132.989 254.173 132.989 254.173C132.989 254.173 132.798 254.102 132.486 253.958C132.175 253.813 131.726 253.619 131.202 253.402C130.941 253.288 130.651 253.192 130.353 253.081C130.051 252.983 129.737 252.875 129.408 252.798C129.083 252.709 128.743 252.647 128.403 252.604C128.061 252.557 127.717 252.546 127.374 252.552C127.034 252.574 126.693 252.602 126.366 252.683C126.038 252.757 125.719 252.853 125.416 252.981C124.808 253.224 124.269 253.566 123.815 253.888C123.368 254.22 123.005 254.536 122.757 254.769C122.508 255.002 122.369 255.148 122.369 255.148Z" fill="#000A19"/>
<path d="M136.457 254.389C136.457 254.389 136.456 254.234 136.502 253.969C136.547 253.705 136.642 253.333 136.826 252.905C137.016 252.482 137.295 251.998 137.735 251.561C137.949 251.339 138.212 251.136 138.51 250.968C138.803 250.792 139.149 250.678 139.5 250.609C139.855 250.542 140.218 250.558 140.56 250.609C140.898 250.674 141.216 250.782 141.493 250.923C141.774 251.059 142.014 251.229 142.23 251.396C142.438 251.572 142.627 251.742 142.778 251.919C142.938 252.088 143.059 252.262 143.165 252.414C143.278 252.561 143.357 252.704 143.421 252.822C143.55 253.055 143.609 253.196 143.609 253.196C143.609 253.196 143.466 253.132 143.238 253.005C143.012 252.879 142.69 252.701 142.314 252.514C142.13 252.412 141.925 252.325 141.717 252.229C141.505 252.143 141.286 252.055 141.061 251.992C140.837 251.923 140.61 251.888 140.386 251.858C140.162 251.853 139.94 251.84 139.725 251.889C139.294 251.961 138.869 252.163 138.482 252.435C138.093 252.701 137.746 253.029 137.449 253.323C137.153 253.619 136.907 253.888 136.734 254.08C136.557 254.277 136.457 254.389 136.457 254.389Z" fill="#000A19"/>
<path d="M137.758 257.207C137.758 257.207 137.829 257.337 137.954 257.563C138.077 257.783 138.253 258.099 138.464 258.477C138.571 258.662 138.69 258.86 138.818 259.062C138.944 259.264 139.09 259.47 139.242 259.666C139.389 259.871 139.572 260.042 139.748 260.195C139.931 260.327 140.115 260.447 140.288 260.445L140.353 260.459L140.357 260.46C140.331 260.462 140.42 260.456 140.298 260.464L140.302 260.464L140.315 260.462L140.342 260.459L140.396 260.452C140.462 260.44 140.553 260.436 140.597 260.419C140.642 260.375 140.697 260.382 140.788 260.302C140.954 260.19 141.114 260.003 141.249 259.806C141.518 259.399 141.72 258.948 141.888 258.558C142.051 258.165 142.182 257.826 142.273 257.587C142.366 257.346 142.418 257.208 142.418 257.208C142.418 257.208 142.505 257.804 142.367 258.692C142.298 259.136 142.179 259.656 141.907 260.193C141.759 260.454 141.596 260.742 141.3 260.969C141.22 261.025 141.174 261.086 141.061 261.135C140.959 261.186 140.851 261.229 140.743 261.266C140.651 261.292 140.594 261.292 140.518 261.306L140.465 261.314L140.438 261.318L140.425 261.32L140.421 261.321C140.298 261.329 140.384 261.323 140.355 261.325L140.346 261.324L140.195 261.307C139.78 261.274 139.456 261.049 139.201 260.832C138.954 260.603 138.765 260.348 138.615 260.098C138.454 259.852 138.343 259.597 138.244 259.356C138.139 259.118 138.068 258.885 138.007 258.669C137.882 258.24 137.822 257.873 137.791 257.615C137.76 257.357 137.758 257.207 137.758 257.207Z" fill="#000A19"/>
<path d="M125.836 257.207C125.836 257.207 125.907 257.337 126.032 257.563C126.155 257.783 126.331 258.099 126.542 258.477C126.649 258.662 126.768 258.86 126.896 259.062C127.023 259.264 127.168 259.47 127.32 259.666C127.467 259.871 127.65 260.042 127.826 260.195C128.009 260.327 128.193 260.447 128.366 260.445L128.431 260.459L128.435 260.46C128.409 260.462 128.498 260.456 128.376 260.464L128.38 260.464L128.393 260.462L128.42 260.459L128.474 260.452C128.54 260.44 128.631 260.436 128.675 260.419C128.72 260.375 128.775 260.382 128.866 260.302C129.032 260.19 129.192 260.003 129.327 259.806C129.596 259.399 129.798 258.948 129.966 258.558C130.13 258.165 130.261 257.826 130.351 257.587C130.444 257.346 130.496 257.208 130.496 257.208C130.496 257.208 130.584 257.804 130.446 258.692C130.376 259.136 130.257 259.656 129.985 260.193C129.837 260.454 129.674 260.742 129.378 260.969C129.298 261.025 129.252 261.086 129.139 261.135C129.037 261.186 128.929 261.229 128.821 261.266C128.728 261.292 128.673 261.292 128.596 261.306L128.543 261.314L128.516 261.318L128.503 261.32L128.499 261.321C128.376 261.329 128.462 261.323 128.433 261.325L128.424 261.324L128.274 261.307C127.859 261.274 127.534 261.049 127.28 260.832C127.032 260.603 126.844 260.348 126.694 260.098C126.533 259.852 126.422 259.597 126.323 259.356C126.218 259.118 126.147 258.885 126.085 258.669C125.96 258.24 125.9 257.873 125.869 257.615C125.838 257.357 125.836 257.207 125.836 257.207Z" fill="#000A19"/>
<path d="M135.482 256.991C135.551 257.355 135.626 257.707 135.708 258.055C135.743 258.229 135.795 258.399 135.838 258.57C135.873 258.741 135.93 258.908 135.976 259.075C136.02 259.242 136.086 259.404 136.134 259.567C136.183 259.732 136.247 259.89 136.305 260.048C136.363 260.208 136.424 260.364 136.494 260.516C136.566 260.667 136.619 260.826 136.701 260.97L136.927 261.409L137.185 261.823C137.261 261.968 137.37 262.087 137.463 262.218C137.56 262.346 137.648 262.482 137.762 262.594C137.87 262.713 137.98 262.829 138.083 262.952L138.443 263.272C138.503 263.326 138.559 263.385 138.621 263.436L138.82 263.576L139.214 263.868L139.98 264.435L139.251 264.83C138.721 265.117 138.18 265.387 137.626 265.637C137.353 265.769 137.066 265.878 136.786 265.999C136.5 266.109 136.213 266.22 135.915 266.311C136.122 266.077 136.341 265.862 136.56 265.647C136.786 265.443 137.005 265.227 137.238 265.034C137.695 264.633 138.166 264.254 138.647 263.89L138.683 264.851L138.166 264.57L137.91 264.423C137.828 264.369 137.751 264.307 137.671 264.248L137.205 263.879C137.063 263.74 136.929 263.593 136.792 263.45C136.649 263.311 136.534 263.149 136.42 262.988C136.309 262.825 136.179 262.672 136.091 262.496L135.813 261.978C135.735 261.799 135.666 261.617 135.594 261.437C135.513 261.259 135.476 261.069 135.42 260.885C135.363 260.701 135.322 260.514 135.292 260.325C135.257 260.137 135.221 259.951 135.21 259.761C135.193 259.573 135.17 259.386 135.175 259.196C135.164 258.82 135.178 258.446 135.231 258.076C135.276 257.707 135.356 257.341 135.482 256.991Z" fill="#FF8255"/>
<path d="M128.654 269.128L139.708 269.345C139.708 269.345 136.132 276.823 128.654 269.128Z" fill="#FF553C"/>
<path d="M128.654 269.128C128.914 269.396 129.168 269.641 129.418 269.872C131.576 269.585 133.72 269.802 135.264 271.511C135.527 271.802 135.792 272.124 136.039 272.466C138.504 271.852 139.708 269.345 139.708 269.345L128.654 269.128Z" fill="#B2382B"/>
<path d="M148.161 310.961C148.161 310.961 147.728 336.537 148.812 336.537C149.895 336.537 175.905 343.473 176.989 348.025C178.073 352.576 178.94 361.68 175.038 349.542C175.038 349.542 178.289 366.448 172.221 349.325C172.221 349.325 169.836 365.581 169.836 349.108C169.836 349.108 167.669 363.847 167.452 349.325C167.452 349.325 139.708 348.892 131.905 342.606C124.102 336.32 137.324 307.493 137.324 307.493L148.161 310.961Z" fill="#E2887D"/>
<path d="M139.708 313.345C139.708 313.345 145.777 313.995 149.679 312.478C149.679 312.478 149.493 293.184 140.142 291.67C131.276 290.234 139.708 313.345 139.708 313.345Z" fill="#FFA94D"/>
<path d="M138.377 309.253C139.097 311.671 139.708 313.345 139.708 313.345C139.708 313.345 145.777 313.996 149.678 312.478C149.678 312.478 149.62 306.477 147.947 300.906C145.388 304.203 142.057 306.967 138.377 309.253Z" fill="#DD8D45"/>
<path d="M105.604 344.99C105.604 344.99 93.7786 352.359 93.3237 363.631H148.811C148.811 363.631 148.356 351.926 136.986 344.123C125.616 336.32 105.604 344.99 105.604 344.99Z" fill="#DD8D45"/>
<path d="M105.029 344.99C105.029 344.99 91.1569 323.315 93.3241 306.409C95.4917 289.503 103.728 291.454 107.196 291.454C107.196 291.454 112.398 302.724 123.452 301.207C135.387 299.569 136.457 291.02 136.457 291.02C136.457 291.02 143.393 289.936 145.344 296.656C147.295 303.375 150.546 322.232 139.058 325.483L136.458 338.705C136.458 338.705 125.836 349.108 105.029 344.99Z" fill="#FFA94D"/>
<path d="M114.708 317.426C109.796 314.898 105.359 311.566 101.122 308.042C98.7421 306.064 96.3006 304.062 94.1706 301.788C93.833 303.147 93.5463 304.677 93.3242 306.409C91.1565 323.315 105.029 344.99 105.029 344.99C125.836 349.108 136.457 338.704 136.457 338.704L139.058 325.483C141.44 324.809 143.18 323.457 144.437 321.688C134.544 322.354 123.639 322.022 114.708 317.426Z" fill="#DD8D45"/>
<path d="M114.565 232.498C114.565 232.498 127.137 229.897 128.221 240.734C129.304 251.572 117.6 251.789 118.033 263.059C118.467 274.33 122.368 287.769 113.699 292.537C105.029 297.306 96.7921 286.035 93.3245 307.493C93.3245 307.493 85.7385 295.355 91.8073 287.335C97.8761 279.315 100.911 269.995 100.694 253.306C100.477 236.616 110.231 234.015 114.565 232.498Z" fill="#001433"/>
<path d="M114.132 264.961C114.132 264.961 120.201 272.379 128.22 272.813" stroke="#001433" stroke-width="0.9797" stroke-miterlimit="10"/>
<path d="M131.276 273.261C131.142 274.037 130.405 274.558 129.629 274.424L126.291 273.849C125.515 273.716 124.994 272.978 125.128 272.202C125.261 271.426 125.999 270.905 126.775 271.039L130.113 271.614C130.889 271.748 131.409 272.485 131.276 273.261Z" fill="#22689E"/>
<path d="M112.073 269.128C117.041 269.128 121.068 264.713 121.068 259.266C121.068 253.82 117.041 249.404 112.073 249.404C107.105 249.404 103.078 253.82 103.078 259.266C103.078 264.713 107.105 269.128 112.073 269.128Z" fill="#DD8D45"/>
<path d="M109.255 269.128C114.223 269.128 118.25 264.713 118.25 259.266C118.25 253.82 114.223 249.404 109.255 249.404C104.287 249.404 100.26 253.82 100.26 259.266C100.26 264.713 104.287 269.128 109.255 269.128Z" fill="#FFA94D"/>
<path d="M109.236 264.7C111.919 264.7 114.093 262.315 114.093 259.375C114.093 256.434 111.919 254.049 109.236 254.049C106.554 254.049 104.379 256.434 104.379 259.375C104.379 262.315 106.554 264.7 109.236 264.7Z" fill="#DD8D45"/>
<path d="M107.846 259.158C107.846 259.158 107.413 240.951 117.166 234.448C128.121 227.145 137.107 234.015 137.107 234.015C137.107 234.015 125.186 231.63 118.467 238.783C111.747 245.936 110.881 257.64 110.881 257.64L107.846 259.158Z" fill="#DD8D45"/>
<path d="M113.265 313.128C113.265 313.128 112.182 337.187 111.748 342.823C111.748 342.823 141.226 337.187 145.127 339.355C149.029 341.522 159.433 361.246 149.029 347.808C149.029 347.808 158.132 364.281 146.645 348.675C146.645 348.675 152.28 362.764 144.044 348.675C144.044 348.675 149.463 360.813 141.009 347.592C141.009 347.592 105.68 362.33 100.478 359.079C95.2755 355.828 91.5907 330.902 94.1919 310.311C96.7923 289.72 113.265 313.128 113.265 313.128Z" fill="#FFB199"/>
<path d="M105.97 323.134C108.32 323.176 110.598 322.919 112.831 322.468C113.08 317.243 113.265 313.128 113.265 313.128C113.265 313.128 96.7921 289.72 94.1913 310.311C93.7691 313.651 93.5138 317.105 93.4023 320.562C97.4403 322.001 101.576 323.057 105.97 323.134Z" fill="#E2887D"/>
<path d="M92.0239 318.33C92.0239 318.33 90.7235 292.32 103.728 293.621C116.733 294.921 113.916 319.414 113.916 319.414C113.916 319.414 101.994 322.449 92.0239 318.33Z" fill="#FFA94D"/>
<path d="M274.092 368.399C274.092 369.835 273.122 371 271.924 371H38.2702C37.0733 371 36.1025 369.835 36.1025 368.399V363.197C36.1025 361.761 37.0729 360.596 38.2702 360.596H271.925C273.122 360.596 274.092 361.761 274.092 363.197L274.092 368.399Z" fill="#22689E"/>
<path d="M251.136 338.488C251.136 339.685 250.166 340.655 248.968 340.655H169.205C168.008 340.655 167.038 339.685 167.038 338.488V276.498C167.038 275.301 168.008 274.33 169.205 274.33H248.968C250.166 274.33 251.136 275.301 251.136 276.498V338.488Z" fill="#003154"/>
<path d="M257.204 338.488C257.204 339.685 256.233 340.655 255.036 340.655H175.273C174.076 340.655 173.105 339.685 173.105 338.488V276.498C173.105 275.301 174.076 274.33 175.273 274.33H255.036C256.234 274.33 257.204 275.301 257.204 276.498V338.488H257.204Z" fill="#001433"/>
<path d="M221.549 357.995C221.549 359.192 220.579 360.163 219.381 360.163H208.11C206.913 360.163 205.943 359.192 205.943 357.995V311.611C205.943 310.414 206.913 309.443 208.11 309.443H219.381C220.578 309.443 221.549 310.414 221.549 311.611V357.995Z" fill="#003154"/>
<path d="M239.973 358.429C239.973 359.626 239.003 360.596 237.805 360.596H189.687C188.49 360.596 187.52 359.626 187.52 358.429V357.995C187.52 356.798 188.49 355.828 189.687 355.828H237.805C239.003 355.828 239.973 356.798 239.973 357.995V358.429Z" fill="#003154"/>
<path d="M221.549 357.995C221.549 359.192 220.579 360.163 219.381 360.163H208.11C206.913 360.163 205.943 359.192 205.943 357.995V311.611C205.943 310.414 206.913 309.443 208.11 309.443H219.381C220.578 309.443 221.549 310.414 221.549 311.611V357.995Z" fill="#003154"/>
<path d="M178.832 358.429C178.832 359.626 177.861 360.596 176.664 360.596H128.546C127.349 360.596 126.378 359.626 126.378 358.429V357.995C126.378 356.798 127.349 355.828 128.546 355.828H176.664C177.862 355.828 178.832 356.798 178.832 357.995V358.429H178.832Z" fill="#003154"/>
<path d="M199.419 209.312H150.724C148.05 209.312 145.882 211.479 145.882 214.153V233.01C145.882 235.683 148.05 237.851 150.724 237.851H157.442V250.567L164.571 237.851H199.418C202.092 237.851 204.26 235.683 204.26 233.01V214.153C204.26 211.479 202.092 209.312 199.419 209.312Z" fill="#FF5640"/>
<g opacity="0.25">
<path d="M161.2 227.158C162.955 227.158 164.379 225.735 164.379 223.979C164.379 222.223 162.955 220.8 161.2 220.8C159.444 220.8 158.021 222.223 158.021 223.979C158.021 225.735 159.444 227.158 161.2 227.158Z" fill="black"/>
<path d="M175.939 227.158C177.695 227.158 179.118 225.735 179.118 223.979C179.118 222.223 177.695 220.8 175.939 220.8C174.183 220.8 172.76 222.223 172.76 223.979C172.76 225.735 174.183 227.158 175.939 227.158Z" fill="black"/>
<path d="M190.678 227.158C192.433 227.158 193.857 225.735 193.857 223.979C193.857 222.223 192.433 220.8 190.678 220.8C188.922 220.8 187.499 222.223 187.499 223.979C187.499 225.735 188.922 227.158 190.678 227.158Z" fill="black"/>
</g>
<path d="M160.332 226.291C162.088 226.291 163.512 224.868 163.512 223.112C163.512 221.356 162.088 219.933 160.332 219.933C158.577 219.933 157.153 221.356 157.153 223.112C157.153 224.868 158.577 226.291 160.332 226.291Z" fill="white"/>
<path d="M175.072 226.291C176.827 226.291 178.251 224.868 178.251 223.112C178.251 221.356 176.827 219.933 175.072 219.933C173.316 219.933 171.893 221.356 171.893 223.112C171.893 224.868 173.316 226.291 175.072 226.291Z" fill="white"/>
<path d="M189.81 226.291C191.566 226.291 192.99 224.868 192.99 223.112C192.99 221.356 191.566 219.933 189.81 219.933C188.055 219.933 186.631 221.356 186.631 223.112C186.631 224.868 188.055 226.291 189.81 226.291Z" fill="white"/>
<path d="M98.0155 209.764L95.3913 211.804C96.9382 213.805 98.8279 215.456 101.007 216.71L102.666 213.827C104.488 214.875 106.487 215.543 108.539 215.811L108.108 219.107C110.625 219.436 113.141 219.27 115.584 218.614L114.723 215.403C116.692 214.875 118.592 213.958 120.307 212.635L122.351 215.256C124.347 213.712 125.995 211.828 127.247 209.656L124.366 207.995C125.416 206.174 126.085 204.176 126.355 202.126L129.651 202.56C129.983 200.042 129.819 197.527 129.166 195.083L125.955 195.941C125.431 193.979 124.52 192.087 123.208 190.376L125.838 188.343L125.803 188.297C124.247 186.285 122.346 184.627 120.152 183.371L118.5 186.258C116.676 185.213 114.676 184.55 112.624 184.286L113.048 180.989C110.53 180.665 108.015 180.836 105.572 181.497L106.441 184.707C104.48 185.238 102.588 186.153 100.881 187.473L98.8447 184.846C96.8377 186.397 95.1838 188.292 93.929 190.479L96.8129 192.134C95.767 193.957 95.101 195.956 94.8351 198.008L91.5388 197.581C91.2122 200.099 91.3804 202.614 92.0388 205.056L95.2497 204.191C95.7776 206.157 96.6944 208.052 98.0155 209.764ZM116.561 195.441C119.102 198.729 118.495 203.472 115.207 206.014C111.918 208.556 107.175 207.949 104.633 204.66C102.091 201.372 102.699 196.628 105.987 194.087C109.275 191.545 114.019 192.152 116.561 195.441Z" fill="#22689E"/>
<path d="M77.5911 222.959L76.4235 225.083C78.0376 225.977 79.78 226.536 81.6021 226.746L81.8795 224.336C83.4025 224.511 84.9338 224.381 86.3851 223.967L87.0492 226.299C88.8301 225.792 90.4664 224.954 91.9132 223.809L90.4084 221.908C91.5743 220.985 92.5818 219.822 93.3477 218.44L95.4737 219.605C96.3648 217.994 96.9232 216.257 97.1343 214.44L94.7246 214.16C94.9012 212.638 94.7724 211.106 94.3605 209.655L96.6932 208.993C96.1879 207.212 95.3516 205.574 94.2078 204.126L92.3057 205.629C91.388 204.467 90.231 203.463 88.8576 202.697L90.0314 200.575L89.9947 200.554C88.3713 199.656 86.6192 199.096 84.7874 198.889L84.5148 201.299C82.9918 201.127 81.4609 201.26 80.0105 201.677L79.342 199.347C77.5624 199.857 75.9275 200.699 74.4824 201.847L75.9916 203.746C74.8319 204.667 73.8298 205.827 73.0674 207.204L70.9449 206.033C70.0494 207.652 69.4892 209.399 69.2812 211.226L71.6909 211.501C71.5175 213.024 71.6493 214.555 72.0639 216.006L69.733 216.672C70.2418 218.453 71.0816 220.088 72.2281 221.534L74.128 220.027C75.0505 221.191 76.212 222.195 77.5911 222.959ZM85.8705 208.009C88.5231 209.477 89.4868 212.828 88.0196 215.481C86.5519 218.134 83.2002 219.097 80.5477 217.63C77.8951 216.162 76.9314 212.811 78.3986 210.158C79.8663 207.506 83.2184 206.541 85.8705 208.009Z" fill="#FF6666"/>
<path d="M47.3472 275.686C60.5947 275.686 71.334 264.947 71.334 251.699C71.334 238.452 60.5947 227.712 47.3472 227.712C34.0996 227.712 23.3604 238.452 23.3604 251.699C23.3604 264.947 34.0996 275.686 47.3472 275.686Z" fill="#22689E"/>
<g opacity="0.25">
<path d="M49.6691 252.002C49.9837 251.841 50.3342 251.756 50.6974 251.756C51.3 251.756 51.8664 251.99 52.2938 252.415L53.2133 251.496C55.488 252.293 58.1197 251.783 59.9383 249.964C61.4687 248.434 62.0723 246.328 61.7497 244.344C61.7143 244.125 61.5594 243.944 61.3488 243.877C61.1382 243.809 60.9073 243.864 60.7506 244.021L59.3856 245.386C58.2737 246.497 56.4716 246.497 55.3596 245.386C54.2486 244.274 54.2486 242.472 55.3596 241.36L56.7251 239.995C56.8817 239.838 56.9375 239.607 56.8693 239.396C56.8012 239.185 56.6211 239.031 56.4021 238.996C54.4172 238.673 52.312 239.277 50.7819 240.807C48.936 242.653 48.4391 245.335 49.2882 247.633L47.2944 249.627L49.6691 252.002Z" fill="black"/>
<path d="M46.0356 255.616L43.6706 253.251L35.401 261.52C34.3253 262.595 34.3253 264.339 35.401 265.414C36.4761 266.489 38.2194 266.489 39.2946 265.414L46.4232 258.285C45.705 257.562 45.5754 256.471 46.0356 255.616Z" fill="black"/>
<path d="M51.3099 253.407C51.1405 253.238 50.9192 253.153 50.6971 253.153C50.4754 253.153 50.2542 253.238 50.0847 253.407L49.591 253.901L40.797 245.107L41.2081 244.696C41.5824 244.322 41.5359 243.701 41.1094 243.387L37.5215 240.744C37.1768 240.49 36.6985 240.526 36.3954 240.829L34.872 242.353C34.5689 242.655 34.5331 243.133 34.787 243.479L37.4294 247.067C37.7436 247.493 38.3644 247.54 38.7391 247.166L39.1502 246.755L47.9437 255.548L47.4154 256.077C47.0769 256.415 47.0769 256.964 47.4154 257.302L55.5275 265.414C56.6027 266.489 58.3464 266.489 59.4216 265.414C60.4968 264.339 60.4968 262.595 59.4216 261.52L51.3099 253.407Z" fill="black"/>
</g>
<path d="M48.802 251.135C49.1166 250.974 49.467 250.889 49.8307 250.889C50.4333 250.889 50.9997 251.124 51.4271 251.548L52.3466 250.629C54.6213 251.427 57.253 250.916 59.072 249.097C60.6025 247.567 61.206 245.461 60.8834 243.477C60.848 243.259 60.6932 243.078 60.4826 243.01C60.272 242.942 60.041 242.997 59.8844 243.154L58.5194 244.519C57.4075 245.631 55.6053 245.631 54.4934 244.519C53.3824 243.407 53.3824 241.605 54.4934 240.493L55.8584 239.128C56.015 238.971 56.0708 238.74 56.0026 238.53C55.9345 238.319 55.7544 238.165 55.5354 238.129C53.5505 237.807 51.4453 238.41 49.9152 239.94C48.0693 241.786 47.5724 244.468 48.4215 246.767L46.4277 248.76L48.802 251.135Z" fill="white"/>
<path d="M45.1689 254.749L42.8039 252.384L34.5343 260.653C33.4586 261.728 33.4586 263.472 34.5343 264.547C35.6094 265.622 37.3527 265.622 38.4279 264.547L45.5569 257.418C44.8379 256.695 44.7083 255.604 45.1689 254.749Z" fill="white"/>
<path d="M50.4432 252.541C50.2742 252.372 50.0525 252.287 49.8304 252.287C49.6087 252.287 49.3875 252.371 49.218 252.541L48.7242 253.034L39.9303 244.241L40.3413 243.83C40.7156 243.455 40.6692 242.834 40.2426 242.52L36.6543 239.877C36.3096 239.623 35.8313 239.66 35.5282 239.962L34.0048 241.486C33.7017 241.788 33.6659 242.267 33.9198 242.612L36.5622 246.2C36.8764 246.627 37.4972 246.674 37.8719 246.299L38.283 245.888L47.0765 254.681L46.5482 255.21C46.2097 255.549 46.2097 256.097 46.5482 256.435L54.6603 264.547C55.7355 265.623 57.4792 265.623 58.5544 264.547C59.6296 263.472 59.6296 261.729 58.5544 260.654L50.4432 252.541Z" fill="white"/>
<path d="M230.668 267.799C243.437 267.799 253.788 257.448 253.788 244.679C253.788 231.911 243.437 221.559 230.668 221.559C217.9 221.559 207.548 231.911 207.548 244.679C207.548 257.448 217.9 267.799 230.668 267.799Z" fill="#FFA94D"/>
<g opacity="0.25">
<path d="M246.392 236.433L237.22 245.547L246.392 254.661C246.558 254.314 246.659 253.931 246.659 253.522V237.572C246.659 237.162 246.558 236.779 246.392 236.433Z" fill="black"/>
<path d="M233.415 246.844L245.139 235.18C244.793 235.014 244.41 234.913 244 234.913H219.072C218.662 234.913 218.279 235.014 217.933 235.18L229.657 246.844C230.693 247.881 232.379 247.881 233.415 246.844Z" fill="black"/>
<path d="M216.679 236.433C216.514 236.779 216.413 237.162 216.413 237.572V253.522C216.413 253.931 216.514 254.314 216.679 254.661L225.852 245.547L216.679 236.433Z" fill="black"/>
<path d="M234.668 248.097C232.941 249.825 230.13 249.825 228.404 248.097L227.106 246.799L217.933 255.913C218.28 256.079 218.663 256.18 219.072 256.18H244.001C244.41 256.18 244.793 256.079 245.14 255.913L235.967 246.799L234.668 248.097Z" fill="black"/>
</g>
<path d="M245.524 235.566L236.352 244.679L245.524 253.793C245.69 253.447 245.791 253.064 245.791 252.654V236.705C245.791 236.295 245.69 235.913 245.524 235.566Z" fill="white"/>
<path d="M232.548 245.978L244.272 234.313C243.926 234.147 243.542 234.047 243.133 234.047H218.204C217.795 234.047 217.412 234.147 217.065 234.313L228.789 245.978C229.826 247.014 231.511 247.014 232.548 245.978Z" fill="white"/>
<path d="M215.812 235.566C215.646 235.912 215.546 236.295 215.546 236.705V252.654C215.546 253.064 215.646 253.447 215.812 253.793L224.985 244.679L215.812 235.566Z" fill="white"/>
<path d="M233.801 247.23C232.074 248.958 229.263 248.958 227.536 247.23L226.238 245.932L217.065 255.046C217.412 255.212 217.795 255.312 218.204 255.312H243.133C243.542 255.312 243.926 255.212 244.272 255.046L235.099 245.932L233.801 247.23Z" fill="white"/>
<path d="M249.884 216.733C259.061 216.733 266.501 209.293 266.501 200.115C266.501 190.938 259.061 183.498 249.884 183.498C240.706 183.498 233.267 190.938 233.267 200.115C233.267 209.293 240.706 216.733 249.884 216.733Z" fill="#22689E"/>
<g opacity="0.25">
<path d="M251.694 204.358L247.774 204.043V199.252C247.887 199.317 248.138 199.385 248.525 199.458C248.912 199.531 249.25 199.567 249.541 199.567C250.202 199.567 250.77 199.394 251.247 199.047C251.723 198.7 251.961 198.244 251.961 197.68C251.961 197.147 251.786 196.699 251.44 196.337C251.093 195.974 250.597 195.793 249.952 195.793C249.323 195.793 248.839 195.983 248.5 196.361C248.161 196.741 247.936 197.205 247.823 197.753L244.846 196.543C244.927 195.623 245.242 194.78 245.79 194.014C246.339 193.249 247.049 192.639 247.919 192.187C248.79 191.736 249.726 191.51 250.726 191.51C251.871 191.51 252.896 191.808 253.799 192.405C254.703 193.003 255.404 193.784 255.905 194.752C256.404 195.72 256.654 196.736 256.654 197.801C256.654 198.962 256.364 199.947 255.784 200.753C255.203 201.559 254.517 202.153 253.727 202.531C252.937 202.911 252.242 203.092 251.646 203.076L251.694 204.358ZM247.919 209.669C247.435 209.145 247.193 208.528 247.193 207.818C247.193 207.093 247.455 206.479 247.98 205.979C248.504 205.48 249.113 205.229 249.807 205.229C250.451 205.229 251.005 205.455 251.465 205.907C251.924 206.359 252.154 206.964 252.154 207.721C252.154 208.479 251.925 209.125 251.465 209.657C251.005 210.19 250.42 210.456 249.71 210.456C249 210.455 248.404 210.193 247.919 209.669Z" fill="black"/>
</g>
<path d="M250.827 203.491L246.908 203.176V198.385C247.02 198.451 247.271 198.518 247.658 198.591C248.045 198.664 248.384 198.701 248.674 198.701C249.336 198.701 249.904 198.527 250.38 198.18C250.856 197.833 251.094 197.377 251.094 196.813C251.094 196.28 250.92 195.832 250.573 195.47C250.227 195.107 249.73 194.926 249.086 194.926C248.456 194.926 247.972 195.116 247.633 195.494C247.294 195.874 247.069 196.338 246.956 196.886L243.979 195.676C244.06 194.756 244.376 193.914 244.924 193.148C245.472 192.382 246.182 191.772 247.052 191.32C247.924 190.869 248.859 190.643 249.859 190.643C251.004 190.643 252.029 190.941 252.932 191.538C253.836 192.136 254.537 192.918 255.038 193.885C255.538 194.853 255.788 195.869 255.788 196.934C255.788 198.095 255.497 199.08 254.917 199.886C254.336 200.692 253.65 201.286 252.861 201.664C252.07 202.043 251.376 202.225 250.779 202.208L250.827 203.491ZM247.052 208.802C246.569 208.278 246.327 207.661 246.327 206.951C246.327 206.225 246.589 205.612 247.113 205.112C247.637 204.613 248.247 204.361 248.94 204.361C249.585 204.361 250.138 204.588 250.598 205.04C251.058 205.491 251.287 206.096 251.287 206.854C251.287 207.612 251.058 208.257 250.598 208.79C250.138 209.323 249.553 209.589 248.844 209.589C248.133 209.589 247.537 209.326 247.052 208.802Z" fill="white"/>
<path d="M280.491 252.724C289.669 252.724 297.108 245.284 297.108 236.107C297.108 226.929 289.669 219.49 280.491 219.49C271.314 219.49 263.874 226.929 263.874 236.107C263.874 245.284 271.314 252.724 280.491 252.724Z" fill="#FF5640"/>
<g opacity="0.25">
<path d="M279.576 241.722C278.4 241.722 277.446 242.676 277.446 243.852C277.446 245.029 278.4 245.983 279.576 245.983C280.753 245.983 281.706 245.029 281.706 243.852C281.706 242.676 280.753 241.722 279.576 241.722Z" fill="black"/>
<path d="M285.793 241.722C284.616 241.722 283.663 242.676 283.663 243.852C283.663 245.029 284.616 245.983 285.793 245.983C286.969 245.983 287.923 245.029 287.923 243.852C287.923 242.676 286.969 241.722 285.793 241.722Z" fill="black"/>
<path d="M289.422 239.549H278.316L278.099 238.289H287.227C287.496 238.289 287.737 238.125 287.835 237.876L290.009 232.398C290.141 232.064 289.977 231.685 289.641 231.553C289.565 231.523 289.483 231.507 289.4 231.507H276.968L276.446 228.508C276.393 228.191 276.116 227.96 275.794 227.965H273.295C272.935 227.965 272.643 228.257 272.643 228.617C272.643 228.977 272.935 229.269 273.295 229.269H275.251L277.12 240.31C277.173 240.627 277.45 240.858 277.772 240.853H289.422C289.782 240.853 290.074 240.561 290.074 240.201C290.074 239.841 289.782 239.549 289.422 239.549Z" fill="black"/>
</g>
<path d="M278.709 240.856C277.533 240.856 276.579 241.809 276.579 242.986C276.579 244.162 277.533 245.116 278.709 245.116C279.886 245.116 280.839 244.162 280.839 242.986C280.839 241.809 279.886 240.856 278.709 240.856Z" fill="white"/>
<path d="M284.925 240.856C283.749 240.856 282.795 241.809 282.795 242.986C282.795 244.162 283.749 245.116 284.925 245.116C286.102 245.116 287.055 244.162 287.055 242.986C287.055 241.809 286.102 240.856 284.925 240.856Z" fill="white"/>
<path d="M288.555 238.682H277.449L277.231 237.422H286.36C286.628 237.423 286.87 237.259 286.968 237.009L289.142 231.532C289.273 231.197 289.109 230.818 288.774 230.686C288.697 230.656 288.615 230.641 288.533 230.641H276.1L275.579 227.641C275.525 227.324 275.248 227.093 274.927 227.098H272.427C272.067 227.098 271.775 227.39 271.775 227.75C271.775 228.11 272.067 228.402 272.427 228.402H274.383L276.252 239.443C276.306 239.761 276.583 239.991 276.904 239.987H288.554C288.914 239.987 289.206 239.695 289.206 239.335C289.206 238.974 288.915 238.682 288.555 238.682Z" fill="white"/>
<defs>
<linearGradient id="paint0_linear_277_20" x1="320.324" y1="145.767" x2="29.2727" y2="463.786" gradientUnits="userSpaceOnUse">
<stop stop-color="#B127F2"/>
<stop offset="1" stop-color="#2B27F2"/>
</linearGradient>
</defs>
</svg>
