<svg width="2560" height="1723" viewBox="0 0 2560 1723" fill="none" xmlns="http://www.w3.org/2000/svg">
<path d="M1621.57 902.712L1616.85 907.875L1622.01 912.601L1974.32 1235.04C1989.69 1249.1 2001.32 1260.58 2009.31 1270.95C2017.27 1281.28 2021.21 1289.98 2021.93 1298.49C2022.65 1306.96 2020.27 1316.27 2013.53 1327.97C2006.75 1339.75 1995.84 1353.47 1980.19 1370.58L1390.93 2014.43C1375.28 2031.54 1362.57 2043.62 1351.44 2051.41C1340.38 2059.15 1331.31 2062.35 1322.82 2062.38C1314.27 2062.41 1305.26 2059.26 1294.27 2052.25C1283.23 2045.2 1270.77 2034.64 1255.4 2020.57L235.103 1086.79L229.939 1082.06L225.213 1087.23L50.6661 1277.95L45.9401 1283.11L51.104 1287.84L1071.41 2221.62C1159.36 2302.11 1243.59 2343.39 1328.55 2339.55C1413.51 2335.71 1497.26 2286.85 1584.47 2191.56L2173.73 1547.7C2260.93 1452.41 2302.2 1364.67 2298.52 1279.71C2294.83 1194.74 2246.28 1114.49 2158.32 1033.99L1806.01 711.554L1800.85 706.828L1796.12 711.992L1621.57 902.712ZM1544.84 1683.59L1549.57 1678.43L1544.4 1673.7L723.698 922.59L1141.12 466.489C1171.98 432.768 1202.73 414.684 1232.1 410.961C1261.22 407.27 1290.33 417.535 1318.52 443.338L1371.48 491.806C1382.21 501.629 1392.46 510.215 1401.43 517.734C1406.5 521.977 1411.15 525.88 1415.27 529.474C1427.14 539.852 1434.71 547.863 1438.23 555.869C1441.46 563.207 1441.6 571.321 1436.17 582.991C1430.57 595.03 1419.3 610.239 1400.37 630.93L1226.55 820.855L1221.82 826.019L1226.98 830.745L1408.76 997.108L1413.92 1001.83L1418.65 996.67L1592.47 806.745C1686.28 704.244 1722.37 616.359 1711.22 532.823C1700.12 449.68 1642.44 372.983 1554.17 292.193L1502.64 245.035C1416.38 166.091 1321.93 129.078 1226.6 136.382C1131.36 143.68 1036.46 195.126 949.018 290.674L352.321 942.659L347.595 947.823L352.759 952.549L1360.4 1874.75L1365.57 1879.47L1370.29 1874.31L1544.84 1683.59ZM1204.46 860.041L1199.29 855.315L1194.57 860.479L1020.02 1051.2L1015.29 1056.36L1020.46 1061.09L1626.18 1615.44L1631.34 1620.17L1636.07 1615.01L1810.61 1424.29L1815.34 1419.12L1810.18 1414.4L1204.46 860.041ZM1047.45 716.346L1042.28 711.62L1037.56 716.784L863.01 907.503L858.284 912.667L863.448 917.393L954.023 1000.29L959.187 1005.01L963.913 999.849L1138.46 809.13L1143.19 803.966L1138.02 799.24L1047.45 716.346Z" stroke="#448CFF" stroke-opacity="0.58" stroke-width="14"/>
<rect y="1578" width="2560" height="145" fill="#388BF7"/>
<path d="M1233.07 1337.92C1233.07 1337.92 1199.36 1136.42 1126.44 1173.27C1053.53 1210.12 1203.28 1320.67 1233.07 1337.92Z" fill="#FF6666"/>
<path d="M1274.62 1346.54C1274.62 1346.54 1182.89 1239.13 1240.91 1214.04C1298.93 1188.95 1274.62 1346.54 1274.62 1346.54Z" fill="#FF6666"/>
<path d="M1298.92 1416.35C1298.92 1416.35 1216.09 1326.65 1185.65 1368.83C1155.21 1411.01 1298.92 1416.35 1298.92 1416.35Z" fill="#FF6666"/>
<path d="M1139.77 1203.85C1139.77 1203.85 1264.43 1441.41 1443.19 1471.99" stroke="#FF5640" stroke-width="1.9595" stroke-miterlimit="10"/>
<path d="M1251.1 1250.89C1251.1 1250.89 1272.27 1290.09 1278.54 1382.61" stroke="#FF5640" stroke-width="1.9595" stroke-miterlimit="10"/>
<path d="M1217.04 1382.69C1217.04 1382.69 1248.98 1405.65 1330.48 1425.11" stroke="#FF5640" stroke-width="1.7715" stroke-miterlimit="10"/>
<path d="M1163.27 1394.96C1163.27 1394.96 1227.56 1533.27 1399.8 1468.24" stroke="#FF5640" stroke-width="1.9595" stroke-miterlimit="10"/>
<path d="M1181.69 1426.09C1181.69 1426.09 1198.99 1401.43 1151.78 1375.34C1151.78 1375.34 1136.35 1417.16 1181.69 1426.09Z" fill="#FF5640"/>
<path d="M1209.92 1450.24C1209.92 1450.24 1188.44 1433.52 1206.57 1409.6C1206.57 1409.6 1227.42 1428.71 1209.92 1450.24Z" fill="#FF5640"/>
<path d="M1206.94 1451.92C1206.94 1451.92 1186.82 1473.22 1163.04 1451.32C1163.04 1451.32 1185.67 1430.94 1206.94 1451.92Z" fill="#FF5640"/>
<path d="M1250.94 1473.3C1250.94 1473.3 1227.48 1459.5 1242.38 1433.43C1242.38 1433.43 1265.51 1449.7 1250.94 1473.3Z" fill="#FF5640"/>
<path d="M1248.21 1475.35C1248.21 1475.35 1231 1499.07 1204.59 1480.43C1204.59 1480.43 1224.4 1457.3 1248.21 1475.35Z" fill="#FF5640"/>
<path d="M1297.49 1482.9C1297.49 1482.9 1270.72 1478.01 1275.73 1448.42C1275.73 1448.42 1303.04 1455.72 1297.49 1482.9Z" fill="#FF5640"/>
<path d="M1295.63 1485.76C1295.63 1485.76 1287.64 1513.96 1256.42 1505.55C1256.42 1505.55 1267.06 1477.01 1295.63 1485.76Z" fill="#FF5640"/>
<path d="M1349.53 1481.81C1349.53 1481.81 1322.41 1484.15 1319.45 1454.27C1319.45 1454.27 1347.73 1454.13 1349.53 1481.81Z" fill="#FF5640"/>
<path d="M1348.49 1485.07C1348.49 1485.07 1348.2 1514.37 1315.87 1514.47C1315.87 1514.47 1318.62 1484.14 1348.49 1485.07Z" fill="#FF5640"/>
<path d="M1290.31 1074.49C1290.31 1074.49 1241.11 1218.86 1410.51 1290.98" stroke="#FF5640" stroke-width="1.9595" stroke-miterlimit="10"/>
<path d="M1282.09 1109.71C1282.09 1109.71 1311.64 1103.86 1295.58 1052.37C1295.58 1052.37 1255.51 1071.91 1282.09 1109.71Z" fill="#FF5640"/>
<path d="M1285.78 1146.68C1285.78 1146.68 1281.83 1119.75 1311.47 1115.01C1311.47 1115.01 1313.31 1143.22 1285.78 1146.68Z" fill="#FF5640"/>
<path d="M1282.47 1145.83C1282.47 1145.83 1253.2 1147.31 1251.16 1115.04C1251.16 1115.04 1281.61 1115.97 1282.47 1145.83Z" fill="#FF5640"/>
<path d="M1299.47 1191.7C1299.47 1191.7 1292.07 1165.51 1320.85 1156.98C1320.85 1156.98 1326.32 1184.73 1299.47 1191.7Z" fill="#FF5640"/>
<path d="M1296.08 1191.29C1296.08 1191.29 1267.24 1196.53 1261.06 1164.8C1261.06 1164.8 1291.36 1161.79 1296.08 1191.29Z" fill="#FF5640"/>
<path d="M1326.46 1230.82C1326.46 1230.82 1310.5 1208.78 1334.58 1190.86C1334.58 1190.86 1349.27 1215.03 1326.46 1230.82Z" fill="#FF5640"/>
<path d="M1323.14 1231.61C1323.14 1231.61 1297.86 1246.45 1281.13 1218.79C1281.13 1218.79 1308.55 1205.53 1323.14 1231.61Z" fill="#FF5640"/>
<path d="M1364.8 1266.02C1364.8 1266.02 1343.6 1248.96 1362.12 1225.34C1362.12 1225.34 1382.65 1244.78 1364.8 1266.02Z" fill="#FF5640"/>
<path d="M1361.8 1267.65C1361.8 1267.65 1341.33 1288.63 1317.91 1266.34C1317.91 1266.34 1340.87 1246.34 1361.8 1267.65Z" fill="#FF5640"/>
<path d="M1312.6 1308.4C1312.6 1308.4 1341.96 1458.07 1524.76 1436.11" stroke="#FF5640" stroke-width="1.9595" stroke-miterlimit="10"/>
<path d="M1323.05 1343.03C1323.05 1343.03 1345.74 1323.23 1306.15 1286.6C1306.15 1286.6 1281.16 1323.52 1323.05 1343.03Z" fill="#FF5640"/>
<path d="M1344.69 1373.23C1344.69 1373.23 1327.83 1351.86 1351.16 1332.97C1351.16 1332.97 1366.82 1356.51 1344.69 1373.23Z" fill="#FF5640"/>
<path d="M1341.4 1374.15C1341.4 1374.15 1316.76 1390.02 1298.9 1363.07C1298.9 1363.07 1325.75 1348.7 1341.4 1374.15Z" fill="#FF5640"/>
<path d="M1379 1405.43C1379 1405.43 1359.53 1386.42 1380.22 1364.67C1380.22 1364.67 1398.8 1386 1379 1405.43Z" fill="#FF5640"/>
<path d="M1375.86 1406.77C1375.86 1406.77 1353.48 1425.69 1332.29 1401.27C1332.29 1401.27 1357.06 1383.55 1375.86 1406.77Z" fill="#FF5640"/>
<path d="M1421.91 1425.88C1421.91 1425.88 1397.08 1414.74 1409.02 1387.2C1409.02 1387.2 1433.8 1400.82 1421.91 1425.88Z" fill="#FF5640"/>
<path d="M1419.42 1428.22C1419.42 1428.22 1404.91 1453.69 1376.62 1438.06C1376.62 1438.06 1393.77 1412.89 1419.42 1428.22Z" fill="#FF5640"/>
<path d="M1472.7 1437.27C1472.7 1437.27 1445.81 1433.05 1450.08 1403.34C1450.08 1403.34 1477.57 1409.96 1472.7 1437.27Z" fill="#FF5640"/>
<path d="M1470.91 1440.18C1470.91 1440.18 1463.62 1468.57 1432.21 1460.94C1432.21 1460.94 1442.13 1432.14 1470.91 1440.18Z" fill="#FF5640"/>
<path d="M1762.69 1223.97C1762.69 1223.97 1803.98 1370.8 1630.92 1433.63" stroke="#FF5640" stroke-width="1.9595" stroke-miterlimit="10"/>
<path d="M1768.98 1259.59C1768.98 1259.59 1739.79 1252.15 1758.62 1201.6C1758.62 1201.6 1797.57 1223.29 1768.98 1259.59Z" fill="#FF5640"/>
<path d="M1763.28 1296.3C1763.28 1296.3 1768.7 1269.63 1739.35 1263.29C1739.35 1263.29 1735.99 1291.37 1763.28 1296.3Z" fill="#FF5640"/>
<path d="M1766.64 1295.64C1766.64 1295.64 1795.79 1298.7 1799.57 1266.59C1799.57 1266.59 1769.12 1265.87 1766.64 1295.64Z" fill="#FF5640"/>
<path d="M1747.18 1340.52C1747.18 1340.52 1755.99 1314.77 1727.71 1304.69C1727.71 1304.69 1720.75 1332.1 1747.18 1340.52Z" fill="#FF5640"/>
<path d="M1750.58 1340.3C1750.58 1340.3 1779.1 1347.09 1786.99 1315.74C1786.99 1315.74 1756.89 1311.1 1750.58 1340.3Z" fill="#FF5640"/>
<path d="M1718.11 1378.12C1718.11 1378.12 1735.24 1356.98 1712.16 1337.78C1712.16 1337.78 1696.19 1361.12 1718.11 1378.12Z" fill="#FF5640"/>
<path d="M1721.38 1379.09C1721.38 1379.09 1745.81 1395.28 1764.02 1368.57C1764.02 1368.57 1737.36 1353.84 1721.38 1379.09Z" fill="#FF5640"/>
<path d="M1677.91 1411.19C1677.91 1411.19 1700.01 1395.3 1682.8 1370.71C1682.8 1370.71 1661.24 1389.02 1677.91 1411.19Z" fill="#FF5640"/>
<path d="M1680.82 1412.98C1680.82 1412.98 1700.12 1435.03 1724.72 1414.05C1724.72 1414.05 1702.88 1392.83 1680.82 1412.98Z" fill="#FF5640"/>
<path d="M1507.12 1532.75C1509.04 1545.6 1500.17 1557.57 1487.33 1559.48L1419.86 1569.54C1407.01 1571.46 1395.04 1562.6 1393.13 1549.75L1358.09 1314.79C1356.17 1301.94 1365.04 1289.97 1377.88 1288.05L1445.35 1277.99C1458.2 1276.08 1470.17 1284.94 1472.08 1297.79L1507.12 1532.75Z" fill="#001433"/>
<path d="M1556.09 846.818C1556.09 846.818 1645.06 791.255 1696.86 873.392C1748.66 955.528 1767.81 1165.7 1688.98 1180.2C1610.14 1194.69 1554.96 1183.82 1565.1 1064.24C1575.23 944.657 1556.09 846.818 1556.09 846.818Z" fill="#000A19"/>
<path d="M1604.31 1075.66C1604.31 1075.66 1584.31 1132.11 1619.59 1141.52C1654.88 1150.93 1692.51 1129.76 1696.04 1206.2C1699.56 1282.65 1442.01 1213.26 1445.54 1180.33C1449.07 1147.4 1530.21 1172.1 1533.74 1099.18C1537.27 1026.27 1538.45 1022.74 1538.45 1022.74L1604.31 1075.66Z" fill="#FFB199"/>
<path d="M1599.02 1114.57C1597.05 1096.2 1604.31 1075.66 1604.31 1075.66L1538.45 1022.74C1538.45 1022.74 1538.45 1033.59 1537.61 1059.19C1548.59 1085.35 1571.71 1104.57 1599.02 1114.57Z" fill="#E2887D"/>
<path d="M1580.79 875.699C1580.79 875.699 1692.51 843.13 1692.51 982.709C1692.51 1122.29 1557.26 1108.33 1525.51 1002.48C1492.39 892.064 1580.79 875.699 1580.79 875.699Z" fill="#FFB199"/>
<path d="M1570.2 949.238C1570.2 949.238 1570.42 948.157 1571.16 946.391C1571.9 944.626 1573.14 942.146 1575.23 939.522C1577.27 936.881 1580.16 934.046 1583.96 931.893C1585.83 930.786 1587.94 929.885 1590.17 929.247C1592.39 928.531 1594.75 928.279 1597.1 928.104C1599.44 928.087 1601.8 928.195 1604.03 928.673C1605.15 928.877 1606.25 929.117 1607.29 929.473C1608.36 929.78 1609.39 930.104 1610.36 930.541C1612.35 931.292 1614.13 932.277 1615.79 933.218C1617.41 934.219 1618.9 935.217 1620.17 936.267C1621.5 937.227 1622.59 938.266 1623.55 939.186C1624.53 940.062 1625.3 940.926 1625.92 941.651C1627.18 943.08 1627.83 943.949 1627.83 943.949C1627.83 943.949 1626.79 943.56 1625.09 942.782C1623.41 941.995 1620.97 940.941 1618.13 939.764C1616.72 939.147 1615.14 938.627 1613.52 938.024C1611.89 937.489 1610.18 936.903 1608.4 936.485C1606.63 936.005 1604.79 935.666 1602.94 935.431C1601.09 935.177 1599.22 935.119 1597.36 935.153C1595.51 935.27 1593.67 935.424 1591.89 935.861C1590.11 936.264 1588.38 936.788 1586.74 937.479C1583.43 938.797 1580.51 940.653 1578.05 942.4C1575.62 944.201 1573.66 945.918 1572.31 947.183C1570.96 948.446 1570.2 949.238 1570.2 949.238Z" fill="#000A19"/>
<path d="M1646.65 945.121C1646.65 945.121 1646.64 944.276 1646.89 942.842C1647.13 941.407 1647.65 939.39 1648.65 937.069C1649.68 934.773 1651.19 932.147 1653.58 929.775C1654.74 928.572 1656.17 927.47 1657.78 926.558C1659.37 925.603 1661.25 924.986 1663.16 924.611C1665.08 924.246 1667.05 924.333 1668.91 924.609C1670.74 924.962 1672.47 925.547 1673.97 926.313C1675.49 927.053 1676.8 927.975 1677.97 928.877C1679.1 929.835 1680.12 930.759 1680.94 931.72C1681.81 932.632 1682.46 933.578 1683.04 934.404C1683.65 935.198 1684.08 935.976 1684.43 936.615C1685.13 937.882 1685.45 938.648 1685.45 938.648C1685.45 938.648 1684.67 938.298 1683.44 937.611C1682.21 936.924 1680.46 935.959 1678.42 934.944C1677.43 934.394 1676.31 933.919 1675.18 933.398C1674.03 932.932 1672.84 932.457 1671.63 932.113C1670.41 931.737 1669.18 931.547 1667.96 931.386C1666.75 931.36 1665.54 931.288 1664.38 931.556C1662.04 931.945 1659.73 933.04 1657.63 934.514C1655.52 935.962 1653.64 937.738 1652.03 939.332C1650.42 940.939 1649.09 942.401 1648.15 943.445C1647.19 944.513 1646.65 945.121 1646.65 945.121Z" fill="#000A19"/>
<path d="M1653.7 960.411C1653.7 960.411 1654.09 961.112 1654.76 962.339C1655.43 963.537 1656.39 965.248 1657.53 967.301C1658.11 968.304 1658.76 969.378 1659.45 970.472C1660.14 971.572 1660.93 972.686 1661.75 973.752C1662.55 974.861 1663.54 975.792 1664.5 976.621C1665.49 977.338 1666.49 977.987 1667.43 977.979L1667.78 978.051L1667.81 978.056C1667.66 978.068 1668.14 978.035 1667.49 978.083L1667.51 978.08L1667.58 978.071L1667.72 978.051L1668.02 978.013C1668.37 977.953 1668.87 977.929 1669.11 977.838C1669.35 977.595 1669.65 977.636 1670.14 977.204C1671.04 976.597 1671.91 975.581 1672.65 974.51C1674.1 972.304 1675.2 969.855 1676.11 967.74C1677 965.608 1677.71 963.767 1678.2 962.471C1678.7 961.162 1678.99 960.416 1678.99 960.416C1678.99 960.416 1679.46 963.647 1678.71 968.468C1678.34 970.876 1677.69 973.694 1676.22 976.609C1675.41 978.027 1674.53 979.588 1672.92 980.822C1672.48 981.124 1672.23 981.458 1671.62 981.722C1671.07 981.996 1670.48 982.233 1669.9 982.433C1669.4 982.574 1669.09 982.572 1668.68 982.649L1668.39 982.692L1668.24 982.714L1668.17 982.726L1668.15 982.728C1667.48 982.776 1667.95 982.74 1667.79 982.75L1667.74 982.745L1666.93 982.654C1664.67 982.474 1662.91 981.256 1661.53 980.078C1660.19 978.836 1659.17 977.451 1658.35 976.097C1657.48 974.76 1656.88 973.375 1656.34 972.071C1655.77 970.78 1655.39 969.512 1655.05 968.343C1654.37 966.012 1654.05 964.022 1653.88 962.622C1653.71 961.22 1653.7 960.411 1653.7 960.411Z" fill="#000A19"/>
<path d="M1589.02 960.411C1589.02 960.411 1589.4 961.112 1590.08 962.339C1590.75 963.537 1591.7 965.248 1592.85 967.301C1593.43 968.304 1594.08 969.378 1594.77 970.472C1595.46 971.572 1596.25 972.686 1597.07 973.752C1597.87 974.861 1598.86 975.792 1599.81 976.621C1600.81 977.338 1601.81 977.987 1602.75 977.979L1603.1 978.051L1603.12 978.056C1602.98 978.068 1603.46 978.035 1602.8 978.083L1602.82 978.08L1602.89 978.071L1603.04 978.051L1603.33 978.013C1603.69 977.953 1604.19 977.929 1604.42 977.838C1604.67 977.595 1604.97 977.636 1605.46 977.204C1606.36 976.597 1607.23 975.581 1607.96 974.51C1609.42 972.304 1610.51 969.855 1611.43 967.74C1612.31 965.608 1613.03 963.767 1613.52 962.471C1614.02 961.162 1614.31 960.416 1614.31 960.416C1614.31 960.416 1614.78 963.647 1614.03 968.468C1613.65 970.876 1613.01 973.694 1611.53 976.609C1610.73 978.027 1609.84 979.588 1608.24 980.822C1607.8 981.124 1607.55 981.458 1606.94 981.722C1606.39 981.996 1605.8 982.233 1605.22 982.433C1604.71 982.574 1604.41 982.572 1604 982.649L1603.71 982.692L1603.56 982.714L1603.49 982.726L1603.47 982.728C1602.8 982.776 1603.27 982.74 1603.11 982.75L1603.06 982.745L1602.25 982.654C1599.99 982.474 1598.23 981.256 1596.85 980.078C1595.51 978.836 1594.49 977.451 1593.67 976.097C1592.8 974.76 1592.2 973.375 1591.66 972.071C1591.09 970.78 1590.71 969.512 1590.37 968.343C1589.69 966.012 1589.37 964.022 1589.2 962.622C1589.03 961.22 1589.02 960.411 1589.02 960.411Z" fill="#000A19"/>
<path d="M1641.35 959.234C1641.73 961.213 1642.13 963.124 1642.58 965.008C1642.77 965.952 1643.05 966.878 1643.28 967.803C1643.48 968.732 1643.79 969.637 1644.03 970.542C1644.28 971.452 1644.63 972.328 1644.89 973.216C1645.16 974.107 1645.5 974.966 1645.82 975.826C1646.13 976.69 1646.46 977.54 1646.85 978.363C1647.24 979.182 1647.52 980.046 1647.97 980.824L1649.19 983.206L1650.59 985.453C1651.01 986.24 1651.6 986.886 1652.1 987.599C1652.63 988.293 1653.11 989.032 1653.73 989.64C1654.31 990.283 1654.91 990.914 1655.47 991.582L1657.42 993.318C1657.74 993.61 1658.05 993.927 1658.39 994.208L1659.47 994.967L1661.6 996.551L1665.76 999.627L1661.8 1001.77C1658.93 1003.33 1655.99 1004.79 1652.99 1006.15C1651.51 1006.87 1649.95 1007.46 1648.43 1008.11C1646.88 1008.71 1645.32 1009.31 1643.7 1009.81C1644.83 1008.54 1646.02 1007.37 1647.2 1006.2C1648.43 1005.1 1649.62 1003.92 1650.88 1002.87C1653.36 1000.7 1655.91 998.642 1658.53 996.671L1658.72 1001.89L1655.92 1000.36L1654.53 999.564C1654.08 999.267 1653.67 998.93 1653.23 998.611L1650.7 996.609C1649.93 995.855 1649.2 995.061 1648.46 994.28C1647.68 993.526 1647.06 992.65 1646.44 991.774C1645.84 990.89 1645.14 990.062 1644.66 989.107L1643.15 986.295C1642.72 985.326 1642.35 984.336 1641.96 983.359C1641.52 982.397 1641.32 981.362 1641.02 980.363C1640.71 979.367 1640.49 978.351 1640.32 977.326C1640.13 976.308 1639.94 975.298 1639.88 974.268C1639.78 973.245 1639.66 972.23 1639.69 971.202C1639.63 969.161 1639.7 967.13 1639.99 965.123C1640.24 963.124 1640.67 961.133 1641.35 959.234Z" fill="#FF8255"/>
<path d="M1604.31 1025.09L1664.28 1026.27C1664.28 1026.27 1644.88 1066.84 1604.31 1025.09Z" fill="#FF553C"/>
<path d="M1604.31 1025.09C1605.72 1026.54 1607.1 1027.87 1608.45 1029.13C1620.16 1027.57 1631.8 1028.75 1640.17 1038.02C1641.6 1039.6 1643.04 1041.34 1644.38 1043.2C1657.75 1039.87 1664.28 1026.27 1664.28 1026.27L1604.31 1025.09Z" fill="#B2382B"/>
<path d="M1710.15 1252.07C1710.15 1252.07 1707.8 1390.84 1713.68 1390.84C1719.56 1390.84 1860.68 1428.47 1866.56 1453.17C1872.44 1477.87 1877.15 1527.26 1855.98 1461.4C1855.98 1461.4 1873.62 1553.13 1840.69 1460.23C1840.69 1460.23 1827.75 1548.43 1827.75 1459.05C1827.75 1459.05 1815.99 1539.02 1814.82 1460.23C1814.82 1460.23 1664.28 1457.87 1621.95 1423.77C1579.61 1389.66 1651.35 1233.25 1651.35 1233.25L1710.15 1252.07Z" fill="#E2887D"/>
<path d="M1664.29 1265C1664.29 1265 1697.21 1268.53 1718.38 1260.3C1718.38 1260.3 1717.37 1155.62 1666.64 1147.4C1618.53 1139.61 1664.29 1265 1664.29 1265Z" fill="#FFA94D"/>
<path d="M1657.07 1242.8C1660.97 1255.92 1664.29 1265.01 1664.29 1265.01C1664.29 1265.01 1697.21 1268.53 1718.38 1260.3C1718.38 1260.3 1718.06 1227.74 1708.99 1197.51C1695.1 1215.4 1677.03 1230.4 1657.07 1242.8Z" fill="#DD8D45"/>
<path d="M1479.24 1436.71C1479.24 1436.71 1415.08 1476.69 1412.61 1537.85H1713.68C1713.68 1537.85 1711.21 1474.34 1649.52 1432C1587.82 1389.66 1479.24 1436.71 1479.24 1436.71Z" fill="#DD8D45"/>
<path d="M1476.12 1436.71C1476.12 1436.71 1400.85 1319.1 1412.61 1227.37C1424.37 1135.64 1469.06 1146.22 1487.88 1146.22C1487.88 1146.22 1516.11 1207.38 1576.08 1199.15C1640.84 1190.26 1646.65 1143.87 1646.65 1143.87C1646.65 1143.87 1684.28 1137.99 1694.86 1174.45C1705.45 1210.91 1723.09 1313.22 1660.76 1330.86L1646.65 1402.6C1646.65 1402.6 1589.02 1459.05 1476.12 1436.71Z" fill="#FFA94D"/>
<path d="M1528.64 1287.15C1501.98 1273.43 1477.91 1255.35 1454.92 1236.23C1442.01 1225.5 1428.76 1214.64 1417.21 1202.3C1415.37 1209.67 1413.82 1217.98 1412.61 1227.37C1400.85 1319.1 1476.12 1436.7 1476.12 1436.7C1589.02 1459.05 1646.65 1402.6 1646.65 1402.6L1660.76 1330.86C1673.68 1327.2 1683.12 1319.87 1689.94 1310.27C1636.27 1313.89 1577.09 1312.09 1528.64 1287.15Z" fill="#DD8D45"/>
<path d="M1527.86 826.342C1527.86 826.342 1596.07 812.231 1601.96 871.032C1607.84 929.833 1544.33 931.009 1546.68 992.163C1549.03 1053.32 1570.2 1126.23 1523.16 1152.1C1476.12 1177.98 1431.43 1116.82 1412.62 1233.25C1412.62 1233.25 1371.45 1167.39 1404.38 1123.88C1437.31 1080.37 1453.78 1029.8 1452.6 939.241C1451.42 848.686 1504.34 834.574 1527.86 826.342Z" fill="#001433"/>
<path d="M1525.51 1002.48C1525.51 1002.48 1558.44 1042.73 1601.95 1045.08" stroke="#001433" stroke-width="0.9797" stroke-miterlimit="10"/>
<path d="M1618.53 1047.52C1617.81 1051.73 1613.81 1054.55 1609.59 1053.83L1591.49 1050.71C1587.28 1049.98 1584.45 1045.98 1585.17 1041.77C1585.9 1037.56 1589.9 1034.73 1594.11 1035.46L1612.22 1038.58C1616.43 1039.3 1619.26 1043.31 1618.53 1047.52Z" fill="#22689E"/>
<path d="M1514.34 1025.09C1541.3 1025.09 1563.15 1001.13 1563.15 971.581C1563.15 942.029 1541.3 918.072 1514.34 918.072C1487.39 918.072 1465.53 942.029 1465.53 971.581C1465.53 1001.13 1487.39 1025.09 1514.34 1025.09Z" fill="#DD8D45"/>
<path d="M1499.05 1025.09C1526.01 1025.09 1547.86 1001.13 1547.86 971.581C1547.86 942.029 1526.01 918.071 1499.05 918.071C1472.1 918.071 1450.24 942.029 1450.24 971.581C1450.24 1001.13 1472.1 1025.09 1499.05 1025.09Z" fill="#FFA94D"/>
<path d="M1498.95 1001.06C1513.5 1001.06 1525.3 988.127 1525.3 972.17C1525.3 956.212 1513.5 943.277 1498.95 943.277C1484.4 943.277 1472.6 956.212 1472.6 972.17C1472.6 988.127 1484.4 1001.06 1498.95 1001.06Z" fill="#DD8D45"/>
<path d="M1491.41 970.993C1491.41 970.993 1489.05 872.206 1541.98 836.925C1601.42 797.298 1650.17 834.572 1650.17 834.572C1650.17 834.572 1585.49 821.634 1549.03 860.444C1512.57 899.255 1507.87 962.759 1507.87 962.759L1491.41 970.993Z" fill="#DD8D45"/>
<path d="M1520.81 1263.83C1520.81 1263.83 1514.93 1394.37 1512.58 1424.94C1512.58 1424.94 1672.52 1394.37 1693.69 1406.13C1714.86 1417.89 1771.31 1524.91 1714.86 1451.99C1714.86 1451.99 1764.25 1541.37 1701.92 1456.7C1701.92 1456.7 1732.5 1533.14 1687.81 1456.7C1687.81 1456.7 1717.21 1522.56 1671.34 1450.82C1671.34 1450.82 1479.65 1530.79 1451.43 1513.15C1423.2 1495.51 1403.21 1360.26 1417.32 1248.54C1431.43 1136.82 1520.81 1263.83 1520.81 1263.83Z" fill="#FFB199"/>
<path d="M1481.23 1318.12C1493.98 1318.34 1506.34 1316.95 1518.46 1314.5C1519.8 1286.16 1520.81 1263.83 1520.81 1263.83C1520.81 1263.83 1431.43 1136.82 1417.32 1248.54C1415.03 1266.66 1413.64 1285.4 1413.04 1304.16C1434.95 1311.97 1457.38 1317.7 1481.23 1318.12Z" fill="#E2887D"/>
<path d="M1405.56 1292.05C1405.56 1292.05 1398.5 1150.93 1469.06 1157.98C1539.63 1165.04 1524.34 1297.93 1524.34 1297.93C1524.34 1297.93 1459.66 1314.4 1405.56 1292.05Z" fill="#FFA94D"/>
<path d="M2393.43 1563.72C2393.43 1571.51 2388.16 1577.83 2381.67 1577.83H1113.9C1107.41 1577.83 1102.14 1571.51 1102.14 1563.72V1535.49C1102.14 1527.7 1107.4 1521.38 1113.9 1521.38H2381.67C2388.17 1521.38 2393.43 1527.7 2393.43 1535.49L2393.43 1563.72Z" fill="#22689E"/>
<path d="M2268.88 1401.42C2268.88 1407.92 2263.61 1413.19 2257.11 1413.19H1824.33C1817.84 1413.19 1812.57 1407.92 1812.57 1401.42V1065.08C1812.57 1058.58 1817.84 1053.32 1824.33 1053.32H2257.11C2263.61 1053.32 2268.88 1058.58 2268.88 1065.08V1401.42Z" fill="#003154"/>
<path d="M2301.8 1401.42C2301.8 1407.92 2296.53 1413.19 2290.04 1413.19H1857.26C1850.76 1413.19 1845.5 1407.92 1845.5 1401.42V1065.08C1845.5 1058.58 1850.76 1053.32 1857.26 1053.32H2290.04C2296.53 1053.32 2301.8 1058.58 2301.8 1065.08V1401.42H2301.8Z" fill="#001433"/>
<path d="M2108.34 1507.27C2108.34 1513.76 2103.08 1519.03 2096.58 1519.03H2035.43C2028.93 1519.03 2023.67 1513.76 2023.67 1507.27V1255.59C2023.67 1249.1 2028.93 1243.83 2035.43 1243.83H2096.58C2103.07 1243.83 2108.34 1249.1 2108.34 1255.59V1507.27Z" fill="#003154"/>
<path d="M2208.31 1509.62C2208.31 1516.12 2203.04 1521.38 2196.54 1521.38H1935.46C1928.97 1521.38 1923.7 1516.12 1923.7 1509.62V1507.27C1923.7 1500.77 1928.97 1495.51 1935.46 1495.51H2196.54C2203.04 1495.51 2208.31 1500.77 2208.31 1507.27V1509.62Z" fill="#003154"/>
<path d="M2108.34 1507.27C2108.34 1513.76 2103.08 1519.03 2096.58 1519.03H2035.43C2028.93 1519.03 2023.67 1513.76 2023.67 1507.27V1255.59C2023.67 1249.1 2028.93 1243.83 2035.43 1243.83H2096.58C2103.07 1243.83 2108.34 1249.1 2108.34 1255.59V1507.27Z" fill="#003154"/>
<path d="M1876.56 1509.62C1876.56 1516.12 1871.3 1521.38 1864.8 1521.38H1603.72C1597.23 1521.38 1591.96 1516.12 1591.96 1509.62V1507.27C1591.96 1500.77 1597.22 1495.51 1603.72 1495.51H1864.8C1871.3 1495.51 1876.56 1500.77 1876.56 1507.27V1509.62H1876.56Z" fill="#003154"/>
<path d="M1988.26 700.537H1724.05C1709.54 700.537 1697.78 712.298 1697.78 726.806V829.117C1697.78 843.625 1709.54 855.386 1724.05 855.386H1760.5V924.381L1799.18 855.386H1988.26C2002.77 855.386 2014.53 843.625 2014.53 829.117V726.806C2014.53 712.298 2002.77 700.537 1988.26 700.537Z" fill="#FF5640"/>
<g opacity="0.25">
<path d="M1780.89 797.37C1790.42 797.37 1798.14 789.647 1798.14 780.121C1798.14 770.594 1790.42 762.872 1780.89 762.872C1771.36 762.872 1763.64 770.594 1763.64 780.121C1763.64 789.647 1771.36 797.37 1780.89 797.37Z" fill="black"/>
<path d="M1860.86 797.37C1870.39 797.37 1878.11 789.647 1878.11 780.121C1878.11 770.594 1870.39 762.872 1860.86 762.872C1851.34 762.872 1843.61 770.594 1843.61 780.121C1843.61 789.647 1851.34 797.37 1860.86 797.37Z" fill="black"/>
<path d="M1940.83 797.37C1950.36 797.37 1958.08 789.647 1958.08 780.121C1958.08 770.594 1950.36 762.872 1940.83 762.872C1931.31 762.872 1923.58 770.594 1923.58 780.121C1923.58 789.647 1931.31 797.37 1940.83 797.37Z" fill="black"/>
</g>
<path d="M1776.19 792.665C1785.71 792.665 1793.44 784.942 1793.44 775.415C1793.44 765.889 1785.71 758.166 1776.19 758.166C1766.66 758.166 1758.94 765.889 1758.94 775.415C1758.94 784.942 1766.66 792.665 1776.19 792.665Z" fill="white"/>
<path d="M1856.16 792.665C1865.68 792.665 1873.41 784.942 1873.41 775.415C1873.41 765.889 1865.68 758.166 1856.16 758.166C1846.63 758.166 1838.91 765.889 1838.91 775.415C1838.91 784.942 1846.63 792.665 1856.16 792.665Z" fill="white"/>
<path d="M1936.13 792.665C1945.65 792.665 1953.38 784.942 1953.38 775.415C1953.38 765.889 1945.65 758.166 1936.13 758.166C1926.6 758.166 1918.88 765.889 1918.88 775.415C1918.88 784.942 1926.6 792.665 1936.13 792.665Z" fill="white"/>
<path d="M1438.07 702.99L1423.83 714.06C1432.22 724.919 1442.47 733.876 1454.3 740.679L1463.3 725.036C1473.19 730.721 1484.03 734.346 1495.16 735.799L1492.83 753.684C1506.48 755.468 1520.13 754.57 1533.39 751.01L1528.72 733.59C1539.4 730.724 1549.71 725.747 1559.02 718.566L1570.11 732.788C1580.94 724.414 1589.88 714.192 1596.67 702.405L1581.04 693.392C1586.73 683.513 1590.37 672.674 1591.83 661.547L1609.71 663.902C1611.51 650.244 1610.63 636.593 1607.08 623.334L1589.66 627.992C1586.82 617.347 1581.87 607.079 1574.75 597.798L1589.03 586.764L1588.84 586.517C1580.39 575.596 1570.08 566.603 1558.18 559.789L1549.21 575.449C1539.32 569.784 1528.46 566.182 1517.33 564.752L1519.63 546.864C1505.97 545.106 1492.32 546.033 1479.07 549.62L1483.78 567.037C1473.14 569.916 1462.88 574.883 1453.61 582.042L1442.56 567.789C1431.67 576.205 1422.7 586.49 1415.89 598.355L1431.54 607.336C1425.86 617.227 1422.25 628.073 1420.81 639.205L1402.92 636.886C1401.15 650.549 1402.06 664.195 1405.64 677.449L1423.06 672.756C1425.92 683.42 1430.9 693.704 1438.07 702.99ZM1538.69 625.276C1552.48 643.119 1549.18 668.854 1531.34 682.647C1513.5 696.439 1487.76 693.143 1473.97 675.3C1460.18 657.458 1463.47 631.72 1481.32 617.93C1499.16 604.138 1524.89 607.434 1538.69 625.276Z" fill="#22689E"/>
<path d="M1327.25 774.585L1320.91 786.111C1329.67 790.958 1339.12 793.992 1349.01 795.13L1350.51 782.056C1358.78 783.007 1367.09 782.298 1374.96 780.056L1378.56 792.708C1388.23 789.954 1397.1 785.41 1404.95 779.194L1396.79 768.881C1403.12 763.873 1408.58 757.561 1412.74 750.066L1424.27 756.385C1429.11 747.646 1432.14 738.219 1433.28 728.361L1420.21 726.844C1421.17 718.583 1420.47 710.274 1418.23 702.4L1430.89 698.808C1428.15 689.143 1423.61 680.258 1417.4 672.403L1407.08 680.556C1402.1 674.249 1395.83 668.802 1388.38 664.646L1394.74 653.132L1394.54 653.022C1385.74 648.148 1376.23 645.106 1366.29 643.985L1364.81 657.062C1356.55 656.128 1348.24 656.851 1340.37 659.11L1336.74 646.468C1327.09 649.238 1318.22 653.804 1310.38 660.034L1318.57 670.336C1312.27 675.336 1306.84 681.629 1302.7 689.1L1291.18 682.747C1286.32 691.532 1283.29 701.012 1282.16 710.922L1295.23 712.416C1294.29 720.679 1295.01 728.985 1297.26 736.857L1284.61 740.473C1287.37 750.133 1291.93 759.009 1298.15 766.852L1308.45 758.675C1313.46 764.989 1319.76 770.441 1327.25 774.585ZM1372.17 693.469C1386.56 701.432 1391.79 719.618 1383.83 734.01C1375.86 748.403 1357.68 753.631 1343.29 745.671C1328.89 737.707 1323.67 719.522 1331.63 705.129C1339.59 690.737 1357.78 685.506 1372.17 693.469Z" fill="#FF6666"/>
<path d="M1163.15 1060.67C1235.03 1060.67 1293.3 1002.4 1293.3 930.524C1293.3 858.645 1235.03 800.376 1163.15 800.376C1091.27 800.376 1033 858.645 1033 930.524C1033 1002.4 1091.27 1060.67 1163.15 1060.67Z" fill="#22689E"/>
<g opacity="0.25">
<path d="M1175.75 932.169C1177.45 931.295 1179.35 930.834 1181.32 930.834C1184.59 930.834 1187.67 932.104 1189.99 934.409L1194.97 929.422C1207.32 933.748 1221.6 930.978 1231.46 921.111C1239.77 912.807 1243.04 901.382 1241.29 890.615C1241.1 889.431 1240.26 888.449 1239.12 888.082C1237.97 887.712 1236.72 888.012 1235.87 888.862L1228.47 896.268C1222.43 902.301 1212.65 902.301 1206.62 896.268C1200.59 890.235 1200.59 880.457 1206.62 874.424L1214.03 867.02C1214.88 866.168 1215.18 864.915 1214.81 863.772C1214.44 862.627 1213.47 861.791 1212.28 861.597C1201.51 859.849 1190.08 863.121 1181.78 871.426C1171.77 881.441 1169.07 895.995 1173.68 908.464L1162.86 919.282L1175.75 932.169Z" fill="black"/>
<path d="M1156.03 951.775L1143.2 938.944L1098.33 983.813C1092.49 989.645 1092.49 999.106 1098.33 1004.94C1104.16 1010.77 1113.62 1010.77 1119.46 1004.94L1158.13 966.259C1154.24 962.336 1153.53 956.414 1156.03 951.775Z" fill="black"/>
<path d="M1184.65 939.793C1183.73 938.874 1182.53 938.415 1181.32 938.415C1180.12 938.415 1178.92 938.874 1178 939.793L1175.32 942.47L1127.61 894.758L1129.84 892.528C1131.87 890.497 1131.62 887.126 1129.3 885.422L1109.84 871.085C1107.97 869.707 1105.37 869.903 1103.73 871.545L1095.46 879.811C1093.82 881.453 1093.62 884.049 1095 885.921L1109.34 905.389C1111.04 907.705 1114.41 907.96 1116.44 905.926L1118.67 903.696L1166.38 951.408L1163.52 954.277C1161.68 956.114 1161.68 959.088 1163.52 960.922L1207.53 1004.94C1213.37 1010.77 1222.83 1010.77 1228.66 1004.94C1234.5 999.106 1234.5 989.645 1228.66 983.813L1184.65 939.793Z" fill="black"/>
</g>
<path d="M1171.04 927.466C1172.75 926.592 1174.65 926.131 1176.62 926.131C1179.89 926.131 1182.96 927.403 1185.28 929.706L1190.27 924.719C1202.61 929.045 1216.89 926.275 1226.76 916.408C1235.07 908.104 1238.34 896.679 1236.59 885.911C1236.4 884.728 1235.56 883.746 1234.42 883.379C1233.27 883.009 1232.02 883.309 1231.17 884.159L1223.76 891.565C1217.73 897.598 1207.95 897.598 1201.92 891.565C1195.89 885.532 1195.89 875.754 1201.92 869.721L1209.33 862.317C1210.18 861.465 1210.48 860.212 1210.11 859.069C1209.74 857.924 1208.76 857.088 1207.57 856.894C1196.8 855.146 1185.38 858.418 1177.08 866.722C1167.06 876.738 1164.37 891.292 1168.97 903.761L1158.16 914.579L1171.04 927.466Z" fill="white"/>
<path d="M1151.33 947.07L1138.5 934.238L1093.63 979.108C1087.79 984.939 1087.79 994.4 1093.63 1000.23C1099.46 1006.07 1108.92 1006.07 1114.75 1000.23L1153.43 961.554C1149.53 957.631 1148.83 951.711 1151.33 947.07Z" fill="white"/>
<path d="M1179.95 935.09C1179.03 934.173 1177.83 933.712 1176.62 933.712C1175.42 933.712 1174.22 934.171 1173.3 935.09L1170.62 937.767L1122.9 890.055L1125.14 887.825C1127.17 885.794 1126.91 882.423 1124.6 880.719L1105.13 866.382C1103.26 865.004 1100.66 865.2 1099.02 866.843L1090.75 875.108C1089.11 876.75 1088.92 879.346 1090.29 881.218L1104.63 900.686C1106.34 903.002 1109.7 903.257 1111.74 901.223L1113.97 898.993L1161.68 946.705L1158.81 949.574C1156.98 951.411 1156.98 954.385 1158.81 956.219L1202.83 1000.24C1208.66 1006.07 1218.12 1006.07 1223.96 1000.24C1229.79 994.403 1229.79 984.942 1223.96 979.11L1179.95 935.09Z" fill="white"/>
<path d="M2157.82 1017.88C2227.1 1017.88 2283.26 961.718 2283.26 892.437C2283.26 823.155 2227.1 766.991 2157.82 766.991C2088.54 766.991 2032.37 823.155 2032.37 892.437C2032.37 961.718 2088.54 1017.88 2157.82 1017.88Z" fill="#FFA94D"/>
<g opacity="0.25">
<path d="M2243.13 847.692L2193.36 897.142L2243.13 946.592C2244.03 944.712 2244.58 942.633 2244.58 940.413V853.871C2244.58 851.651 2244.03 849.572 2243.13 847.692Z" fill="black"/>
<path d="M2172.72 904.183L2236.33 840.893C2234.45 839.993 2232.37 839.448 2230.15 839.448H2094.89C2092.67 839.448 2090.59 839.993 2088.71 840.893L2152.32 904.183C2157.95 909.808 2167.09 909.808 2172.72 904.183Z" fill="black"/>
<path d="M2081.91 847.692C2081.01 849.572 2080.47 851.651 2080.47 853.871V940.413C2080.47 942.633 2081.01 944.712 2081.91 946.592L2131.68 897.142L2081.91 847.692Z" fill="black"/>
<path d="M2179.52 910.982C2170.15 920.355 2154.9 920.355 2145.53 910.982L2138.48 903.938L2088.72 953.389C2090.6 954.289 2092.67 954.834 2094.89 954.834H2230.15C2232.37 954.834 2234.45 954.289 2236.33 953.389L2186.56 903.938L2179.52 910.982Z" fill="black"/>
</g>
<path d="M2238.42 842.986L2188.66 892.437L2238.42 941.887C2239.32 940.007 2239.87 937.928 2239.87 935.707V849.166C2239.87 846.945 2239.32 844.869 2238.42 842.986Z" fill="white"/>
<path d="M2168.02 899.48L2231.63 836.19C2229.75 835.29 2227.67 834.745 2225.45 834.745H2090.19C2087.97 834.745 2085.89 835.29 2084.01 836.19L2147.62 899.48C2153.24 905.103 2162.39 905.103 2168.02 899.48Z" fill="white"/>
<path d="M2077.21 842.986C2076.31 844.866 2075.77 846.945 2075.77 849.166V935.707C2075.77 937.928 2076.31 940.007 2077.21 941.887L2126.98 892.437L2077.21 842.986Z" fill="white"/>
<path d="M2174.81 906.277C2165.44 915.649 2150.19 915.649 2140.82 906.277L2133.78 899.233L2084.01 948.683C2085.89 949.584 2087.97 950.128 2090.19 950.128H2225.45C2227.67 950.128 2229.75 949.584 2231.63 948.683L2181.86 899.233L2174.81 906.277Z" fill="white"/>
<path d="M2262.08 740.802C2311.87 740.802 2352.24 700.435 2352.24 650.64C2352.24 600.845 2311.87 560.478 2262.08 560.478C2212.28 560.478 2171.92 600.845 2171.92 650.64C2171.92 700.435 2212.28 740.802 2262.08 740.802Z" fill="#22689E"/>
<g opacity="0.25">
<path d="M2271.9 673.661L2250.63 671.951V645.956C2251.24 646.309 2252.61 646.676 2254.71 647.073C2256.8 647.469 2258.64 647.666 2260.22 647.666C2263.81 647.666 2266.89 646.724 2269.48 644.84C2272.06 642.96 2273.35 640.487 2273.35 637.424C2273.35 634.534 2272.4 632.104 2270.52 630.138C2268.64 628.167 2265.95 627.185 2262.45 627.185C2259.04 627.185 2256.41 628.215 2254.57 630.268C2252.73 632.33 2251.51 634.846 2250.9 637.82L2234.75 631.254C2235.18 626.265 2236.89 621.692 2239.87 617.536C2242.85 613.381 2246.7 610.073 2251.42 607.621C2256.15 605.175 2261.22 603.946 2266.65 603.946C2272.86 603.946 2278.42 605.564 2283.32 608.803C2288.23 612.046 2292.03 616.288 2294.75 621.538C2297.46 626.789 2298.81 632.303 2298.81 638.084C2298.81 644.384 2297.24 649.725 2294.09 654.1C2290.94 658.474 2287.22 661.695 2282.93 663.748C2278.64 665.805 2274.88 666.792 2271.64 666.701L2271.9 673.661ZM2251.42 702.477C2248.8 699.634 2247.48 696.285 2247.48 692.434C2247.48 688.497 2248.9 685.17 2251.75 682.455C2254.59 679.747 2257.9 678.383 2261.66 678.383C2265.16 678.383 2268.16 679.612 2270.66 682.063C2273.15 684.514 2274.4 687.796 2274.4 691.909C2274.4 696.021 2273.15 699.521 2270.66 702.412C2268.16 705.302 2264.99 706.745 2261.14 706.745C2257.29 706.743 2254.05 705.317 2251.42 702.477Z" fill="black"/>
</g>
<path d="M2267.2 668.955L2245.93 667.246V641.253C2246.54 641.606 2247.9 641.973 2250 642.37C2252.1 642.766 2253.94 642.963 2255.52 642.963C2259.1 642.963 2262.19 642.021 2264.77 640.137C2267.35 638.257 2268.65 635.782 2268.65 632.721C2268.65 629.831 2267.7 627.401 2265.82 625.435C2263.94 623.464 2261.25 622.482 2257.75 622.482C2254.33 622.482 2251.71 623.514 2249.87 625.564C2248.03 627.627 2246.81 630.143 2246.19 633.117L2230.04 626.551C2230.48 621.562 2232.19 616.989 2235.17 612.833C2238.14 608.678 2241.99 605.37 2246.72 602.918C2251.44 600.472 2256.52 599.243 2261.95 599.243C2268.16 599.243 2273.72 600.861 2278.62 604.1C2283.52 607.343 2287.33 611.585 2290.05 616.835C2292.76 622.086 2294.11 627.6 2294.11 633.379C2294.11 639.676 2292.54 645.02 2289.39 649.394C2286.24 653.768 2282.51 656.99 2278.23 659.043C2273.94 661.1 2270.17 662.087 2266.94 661.995L2267.2 668.955ZM2246.72 697.771C2244.09 694.929 2242.78 691.58 2242.78 687.729C2242.78 683.792 2244.2 680.464 2247.05 677.749C2249.89 675.041 2253.2 673.677 2256.96 673.677C2260.46 673.677 2263.46 674.907 2265.95 677.358C2268.45 679.809 2269.69 683.091 2269.69 687.203C2269.69 691.316 2268.45 694.816 2265.95 697.706C2263.46 700.597 2260.29 702.04 2256.44 702.04C2252.58 702.04 2249.35 700.614 2246.72 697.771Z" fill="white"/>
<path d="M2428.15 936.084C2477.94 936.084 2518.31 895.717 2518.31 845.923C2518.31 796.128 2477.94 755.761 2428.15 755.761C2378.35 755.761 2337.99 796.128 2337.99 845.923C2337.99 895.717 2378.35 936.084 2428.15 936.084Z" fill="#FF5640"/>
<g opacity="0.25">
<path d="M2423.18 876.393C2416.8 876.393 2411.63 881.566 2411.63 887.95C2411.63 894.333 2416.8 899.507 2423.18 899.507C2429.57 899.507 2434.74 894.333 2434.74 887.95C2434.74 881.566 2429.57 876.393 2423.18 876.393Z" fill="black"/>
<path d="M2456.91 876.393C2450.53 876.393 2445.35 881.566 2445.35 887.95C2445.35 894.333 2450.53 899.507 2456.91 899.507C2463.29 899.507 2468.47 894.333 2468.47 887.95C2468.47 881.566 2463.29 876.393 2456.91 876.393Z" fill="black"/>
<path d="M2476.6 864.6H2416.34L2415.16 857.76H2464.69C2466.15 857.765 2467.46 856.875 2467.99 855.521L2479.79 825.802C2480.5 823.985 2479.61 821.93 2477.79 821.214C2477.38 821.051 2476.93 820.967 2476.48 820.967H2409.03L2406.2 804.692C2405.91 802.971 2404.41 801.72 2402.66 801.744H2389.1C2387.14 801.744 2385.56 803.329 2385.56 805.283C2385.56 807.237 2387.14 808.822 2389.1 808.822H2399.71L2409.85 868.729C2410.14 870.451 2411.65 871.702 2413.39 871.678H2476.6C2478.56 871.678 2480.14 870.093 2480.14 868.139C2480.14 866.185 2478.56 864.6 2476.6 864.6Z" fill="black"/>
</g>
<path d="M2418.48 871.69C2412.09 871.69 2406.92 876.863 2406.92 883.247C2406.92 889.63 2412.09 894.804 2418.48 894.804C2424.86 894.804 2430.03 889.63 2430.03 883.247C2430.03 876.863 2424.86 871.69 2418.48 871.69Z" fill="white"/>
<path d="M2452.2 871.69C2445.82 871.69 2440.65 876.863 2440.65 883.247C2440.65 889.63 2445.82 894.804 2452.2 894.804C2458.59 894.804 2463.76 889.63 2463.76 883.247C2463.76 876.863 2458.59 871.69 2452.2 871.69Z" fill="white"/>
<path d="M2471.9 859.897H2411.64L2410.46 853.058H2459.99C2461.45 853.062 2462.76 852.172 2463.29 850.818L2475.08 821.099C2475.8 819.282 2474.91 817.227 2473.09 816.511C2472.67 816.348 2472.23 816.264 2471.78 816.264H2404.32L2401.49 799.989C2401.2 798.268 2399.7 797.017 2397.95 797.041H2384.39C2382.44 797.041 2380.85 798.626 2380.85 800.58C2380.85 802.534 2382.44 804.119 2384.39 804.119H2395L2405.15 864.026C2405.44 865.748 2406.94 866.999 2408.68 866.975H2471.89C2473.85 866.975 2475.43 865.39 2475.43 863.436C2475.43 861.482 2473.85 859.897 2471.9 859.897Z" fill="white"/>
</svg>
