<svg width="148" height="148" viewBox="0 0 148 148" fill="none" xmlns="http://www.w3.org/2000/svg">
<g id="Frame">
<path id="Vector" d="M123.333 80.1667C123.333 111 101.75 126.417 76.0967 135.358C74.7534 135.814 73.2942 135.792 71.9651 135.297C46.2501 126.417 24.6667 111 24.6667 80.1667V37C24.6667 35.3645 25.3164 33.796 26.4729 32.6395C27.6294 31.483 29.1979 30.8333 30.8334 30.8333C43.1667 30.8333 58.5834 23.4333 69.3134 14.06C70.6199 12.9438 72.2818 12.3306 74.0001 12.3306C75.7184 12.3306 77.3803 12.9438 78.6867 14.06C89.4784 23.495 104.833 30.8333 117.167 30.8333C118.802 30.8333 120.371 31.483 121.527 32.6395C122.684 33.796 123.333 35.3645 123.333 37V80.1667Z" stroke="#4541F3" stroke-width="10" stroke-linecap="round" stroke-linejoin="round"/>
<path id="Vector_2" d="M55.5 73.9998L67.8333 86.3332L92.5 61.6665" stroke="#4541F3" stroke-width="10" stroke-linecap="round" stroke-linejoin="round"/>
</g>
</svg>
