<svg width="2270" height="1595" viewBox="0 0 2270 1595" fill="none" xmlns="http://www.w3.org/2000/svg">
<path d="M1585.57 774.712L1580.85 779.875L1586.01 784.601L1938.32 1107.04C1953.69 1121.1 1965.32 1132.58 1973.31 1142.95C1981.27 1153.28 1985.21 1161.98 1985.93 1170.49C1986.65 1178.96 1984.27 1188.27 1977.53 1199.97C1970.75 1211.75 1959.84 1225.47 1944.19 1242.58L1354.93 1886.43C1339.28 1903.54 1326.57 1915.62 1315.44 1923.41C1304.38 1931.15 1295.31 1934.35 1286.82 1934.38C1278.27 1934.41 1269.26 1931.26 1258.27 1924.25C1247.23 1917.2 1234.77 1906.64 1219.4 1892.57L199.103 958.789L193.939 954.063L189.213 959.227L14.6661 1149.95L9.94011 1155.11L15.104 1159.84L1035.41 2093.62C1123.36 2174.11 1207.59 2215.39 1292.55 2211.55C1377.51 2207.71 1461.26 2158.85 1548.47 2063.56L2137.73 1419.7C2224.93 1324.41 2266.2 1236.67 2262.52 1151.71C2258.83 1066.74 2210.28 986.486 2122.32 905.99L1770.01 583.554L1764.85 578.828L1760.12 583.992L1585.57 774.712ZM1508.84 1555.59L1513.57 1550.43L1508.4 1545.7L687.698 794.59L1105.12 338.489C1135.98 304.768 1166.73 286.684 1196.1 282.961C1225.22 279.27 1254.33 289.535 1282.52 315.338L1335.48 363.806C1346.21 373.629 1356.46 382.215 1365.43 389.734C1370.5 393.977 1375.15 397.88 1379.27 401.474C1391.14 411.852 1398.71 419.863 1402.23 427.869C1405.46 435.207 1405.6 443.321 1400.17 454.991C1394.57 467.03 1383.3 482.239 1364.37 502.93L1190.55 692.855L1185.82 698.019L1190.98 702.745L1372.76 869.108L1377.92 873.833L1382.65 868.67L1556.47 678.745C1650.28 576.244 1686.37 488.359 1675.22 404.823C1664.12 321.68 1606.44 244.983 1518.17 164.193L1466.64 117.035C1380.38 38.0911 1285.93 1.07769 1190.6 8.38174C1095.36 15.6797 1000.46 67.1259 913.018 162.674L316.321 814.659L311.595 819.823L316.759 824.549L1324.4 1746.75L1329.57 1751.47L1334.29 1746.31L1508.84 1555.59ZM1168.46 732.041L1163.29 727.315L1158.57 732.479L984.02 923.199L979.294 928.363L984.458 933.089L1590.18 1487.44L1595.34 1492.17L1600.07 1487.01L1774.61 1296.29L1779.34 1291.12L1774.18 1286.4L1168.46 732.041ZM1011.45 588.346L1006.28 583.62L1001.56 588.784L827.01 779.503L822.284 784.667L827.448 789.393L918.023 872.287L923.187 877.013L927.913 871.849L1102.46 681.13L1107.19 675.966L1102.02 671.24L1011.45 588.346Z" stroke="#388BF7" stroke-width="14"/>
</svg>
