<svg width="608" height="411" viewBox="0 0 608 411" fill="none" xmlns="http://www.w3.org/2000/svg">
<g filter="url(#filter0_i_133_691)">
<path d="M267.55 275.15L276.135 264.577L286.866 275.15V313.918L276.135 339.763L267.55 313.918V275.15Z" fill="#70FFEE"/>
</g>
<path d="M367.885 410.25H189.214V342.113L98.0001 380.88H75.465L61.5147 370.307L50.7837 358.559L17.5176 266.926L58.2954 250.479L89.9518 327.428L169.898 293.946V289.835L86.7325 249.304L69.5629 230.508L67.9533 204.663V195.264L98.0001 103.044L144.143 123.602L117.316 204.663L195.652 244.605H229.991L279.891 376.769L323.351 244.605H365.202L442.465 204.663L412.418 127.127L455.342 104.806L490.755 195.264V215.236L485.389 230.508L476.804 248.717L388.81 284.548V293.946L469.293 329.777L498.266 244.605L542.264 264.577L536.898 284.548L510.071 358.559L490.755 375.007L469.293 380.88L449.977 377.356L367.348 342.113L367.885 410.25Z" fill="#C1FFF9" fill-opacity="0.94"/>
<g filter="url(#filter1_i_133_691)">
<path d="M176.337 88.3589L168.289 110.68L154.875 104.219L147.9 121.253L134.486 113.029L139.852 99.5194L118.39 88.3589L112.488 103.044L99.0739 95.4076L105.513 78.9606L89.416 70.7371L98.0008 50.7658L110.878 57.8145L118.39 39.6053L134.486 47.2414L140.925 31.3818L151.656 33.144L157.021 42.5423L151.656 57.8145L166.679 64.8632L161.85 80.1354L176.337 88.3589Z" fill="#6CFCEE"/>
</g>
<g filter="url(#filter2_i_133_691)">
<path d="M382.372 30.7944V40.1927H377.007V95.4076H455.343V40.1927H403.834V30.7944H382.372Z" fill="#70FFEE"/>
</g>
<g filter="url(#filter3_i_133_691)">
<path d="M11.6158 252.241L0.884766 228.746L8.12819 214.942L22.8833 202.313L51.3205 131.826L63.1246 130.064L60.9784 150.035L43.8088 194.677L39.5164 209.362L42.7357 232.857L33.0778 253.416L11.6158 252.241Z" fill="#70FFEE"/>
</g>
<g filter="url(#filter4_i_133_691)">
<path d="M251.453 207.012V242.256L272.915 255.178L292.231 236.382V201.138H314.766L320.132 185.866V144.749L335.155 136.525L341.594 121.253L335.155 105.981L314.766 96.5824L302.962 86.0093L297.597 58.9893H222.479V191.74L231.064 201.138L251.453 207.012Z" fill="#70FFEE"/>
</g>
<g filter="url(#filter5_i_133_691)">
<path d="M267.55 111.073V59.5767L308.327 60.7514V91.184L307.791 91.7422L342.667 108.723L346.959 116.33L350.715 130.966L343.203 146.199L330.863 146.175L329.789 188.287L321.741 204.089L301.352 207.026L300.279 232.72L283.646 246.186V202.326H270.769V145L255.209 142.714L267.55 111.073Z" fill="#1DEFDB"/>
</g>
<g filter="url(#filter6_i_133_691)">
<path d="M335.155 14.3474V101.282L313.693 91.2958V56.6397H218.187H196.725L187.067 44.8918V30.7944V16.1096L196.725 6.12393L210.676 0.25V14.3474L233.211 0.25V14.3474H335.155Z" fill="#00AC9C"/>
</g>
<g filter="url(#filter7_i_133_691)">
<path d="M596.865 289.089L510.903 193.085L511.963 191.912L501.517 171.233L501.825 170.474L523.739 178.882L563.889 226.186L604.04 273.49L596.865 289.089Z" fill="#6CFCEE"/>
</g>
<defs>
<filter id="filter0_i_133_691" x="267.55" y="264.577" width="30.3154" height="79.1863" filterUnits="userSpaceOnUse" color-interpolation-filters="sRGB">
<feFlood flood-opacity="0" result="BackgroundImageFix"/>
<feBlend mode="normal" in="SourceGraphic" in2="BackgroundImageFix" result="shape"/>
<feColorMatrix in="SourceAlpha" type="matrix" values="0 0 0 0 0 0 0 0 0 0 0 0 0 0 0 0 0 0 127 0" result="hardAlpha"/>
<feOffset dx="11" dy="4"/>
<feGaussianBlur stdDeviation="6"/>
<feComposite in2="hardAlpha" operator="arithmetic" k2="-1" k3="1"/>
<feColorMatrix type="matrix" values="0 0 0 0 0 0 0 0 0 0 0 0 0 0 0 0 0 0 0.25 0"/>
<feBlend mode="normal" in2="shape" result="effect1_innerShadow_133_691"/>
</filter>
<filter id="filter1_i_133_691" x="89.416" y="31.3818" width="99.9209" height="101.871" filterUnits="userSpaceOnUse" color-interpolation-filters="sRGB">
<feFlood flood-opacity="0" result="BackgroundImageFix"/>
<feBlend mode="normal" in="SourceGraphic" in2="BackgroundImageFix" result="shape"/>
<feColorMatrix in="SourceAlpha" type="matrix" values="0 0 0 0 0 0 0 0 0 0 0 0 0 0 0 0 0 0 127 0" result="hardAlpha"/>
<feOffset dx="19" dy="12"/>
<feGaussianBlur stdDeviation="6.5"/>
<feComposite in2="hardAlpha" operator="arithmetic" k2="-1" k3="1"/>
<feColorMatrix type="matrix" values="0 0 0 0 0 0 0 0 0 0 0 0 0 0 0 0 0 0 0.25 0"/>
<feBlend mode="normal" in2="shape" result="effect1_innerShadow_133_691"/>
</filter>
<filter id="filter2_i_133_691" x="353.007" y="30.7944" width="102.336" height="75.6133" filterUnits="userSpaceOnUse" color-interpolation-filters="sRGB">
<feFlood flood-opacity="0" result="BackgroundImageFix"/>
<feBlend mode="normal" in="SourceGraphic" in2="BackgroundImageFix" result="shape"/>
<feColorMatrix in="SourceAlpha" type="matrix" values="0 0 0 0 0 0 0 0 0 0 0 0 0 0 0 0 0 0 127 0" result="hardAlpha"/>
<feOffset dx="-24" dy="11"/>
<feGaussianBlur stdDeviation="13"/>
<feComposite in2="hardAlpha" operator="arithmetic" k2="-1" k3="1"/>
<feColorMatrix type="matrix" values="0 0 0 0 0 0 0 0 0 0 0 0 0 0 0 0 0 0 0.25 0"/>
<feBlend mode="normal" in2="shape" result="effect1_innerShadow_133_691"/>
</filter>
<filter id="filter3_i_133_691" x="0.884766" y="130.064" width="78.2402" height="127.353" filterUnits="userSpaceOnUse" color-interpolation-filters="sRGB">
<feFlood flood-opacity="0" result="BackgroundImageFix"/>
<feBlend mode="normal" in="SourceGraphic" in2="BackgroundImageFix" result="shape"/>
<feColorMatrix in="SourceAlpha" type="matrix" values="0 0 0 0 0 0 0 0 0 0 0 0 0 0 0 0 0 0 127 0" result="hardAlpha"/>
<feOffset dx="16" dy="4"/>
<feGaussianBlur stdDeviation="11"/>
<feComposite in2="hardAlpha" operator="arithmetic" k2="-1" k3="1"/>
<feColorMatrix type="matrix" values="0 0 0 0 0 0 0 0 0 0 0 0 0 0 0 0 0 0 0.25 0"/>
<feBlend mode="normal" in2="shape" result="effect1_innerShadow_133_691"/>
</filter>
<filter id="filter4_i_133_691" x="222.479" y="58.9893" width="140.114" height="200.189" filterUnits="userSpaceOnUse" color-interpolation-filters="sRGB">
<feFlood flood-opacity="0" result="BackgroundImageFix"/>
<feBlend mode="normal" in="SourceGraphic" in2="BackgroundImageFix" result="shape"/>
<feColorMatrix in="SourceAlpha" type="matrix" values="0 0 0 0 0 0 0 0 0 0 0 0 0 0 0 0 0 0 127 0" result="hardAlpha"/>
<feOffset dx="21" dy="4"/>
<feGaussianBlur stdDeviation="11"/>
<feComposite in2="hardAlpha" operator="arithmetic" k2="-1" k3="1"/>
<feColorMatrix type="matrix" values="0 0 0 0 0 0 0 0 0 0 0 0 0 0 0 0 0 0 0.25 0"/>
<feBlend mode="normal" in2="shape" result="effect1_innerShadow_133_691"/>
</filter>
<filter id="filter5_i_133_691" x="255.209" y="59.5767" width="117.506" height="190.61" filterUnits="userSpaceOnUse" color-interpolation-filters="sRGB">
<feFlood flood-opacity="0" result="BackgroundImageFix"/>
<feBlend mode="normal" in="SourceGraphic" in2="BackgroundImageFix" result="shape"/>
<feColorMatrix in="SourceAlpha" type="matrix" values="0 0 0 0 0 0 0 0 0 0 0 0 0 0 0 0 0 0 127 0" result="hardAlpha"/>
<feOffset dx="22" dy="4"/>
<feGaussianBlur stdDeviation="19.5"/>
<feComposite in2="hardAlpha" operator="arithmetic" k2="-1" k3="1"/>
<feColorMatrix type="matrix" values="0 0 0 0 0 0 0 0 0 0 0 0 0 0 0 0 0 0 0.25 0"/>
<feBlend mode="normal" in2="shape" result="effect1_innerShadow_133_691"/>
</filter>
<filter id="filter6_i_133_691" x="187.067" y="-19.75" width="170.088" height="121.031" filterUnits="userSpaceOnUse" color-interpolation-filters="sRGB">
<feFlood flood-opacity="0" result="BackgroundImageFix"/>
<feBlend mode="normal" in="SourceGraphic" in2="BackgroundImageFix" result="shape"/>
<feColorMatrix in="SourceAlpha" type="matrix" values="0 0 0 0 0 0 0 0 0 0 0 0 0 0 0 0 0 0 127 0" result="hardAlpha"/>
<feOffset dx="22" dy="-20"/>
<feGaussianBlur stdDeviation="23"/>
<feComposite in2="hardAlpha" operator="arithmetic" k2="-1" k3="1"/>
<feColorMatrix type="matrix" values="0 0 0 0 0 0 0 0 0 0 0 0 0 0 0 0 0 0 0.39 0"/>
<feBlend mode="normal" in2="shape" result="effect1_innerShadow_133_691"/>
</filter>
<filter id="filter7_i_133_691" x="487.517" y="170.474" width="116.523" height="122.615" filterUnits="userSpaceOnUse" color-interpolation-filters="sRGB">
<feFlood flood-opacity="0" result="BackgroundImageFix"/>
<feBlend mode="normal" in="SourceGraphic" in2="BackgroundImageFix" result="shape"/>
<feColorMatrix in="SourceAlpha" type="matrix" values="0 0 0 0 0 0 0 0 0 0 0 0 0 0 0 0 0 0 127 0" result="hardAlpha"/>
<feOffset dx="-14" dy="4"/>
<feGaussianBlur stdDeviation="9.5"/>
<feComposite in2="hardAlpha" operator="arithmetic" k2="-1" k3="1"/>
<feColorMatrix type="matrix" values="0 0 0 0 0 0 0 0 0 0 0 0 0 0 0 0 0 0 0.25 0"/>
<feBlend mode="normal" in2="shape" result="effect1_innerShadow_133_691"/>
</filter>
</defs>
</svg>
