<svg width="487" height="583" viewBox="0 0 487 583" fill="none" xmlns="http://www.w3.org/2000/svg">
<path d="M290.77 66.3475L308.597 56.4987L457.717 116.381L467.095 127.554L469.107 139.513L468.34 151.022L351.052 403.244L287.44 538.704L276.855 555.979L263.094 559.681L252.949 560.017L123.978 484.076L118.35 475.484L111.427 464.049L111.42 454.61L194.19 272.642L290.77 66.3475Z" fill="black"/>
<path d="M339.123 91.5037L342.992 81.1546L315.65 69.1623L301.625 65.688L293.422 70.2882L287.547 78.1183L169.742 330.148L113.942 457.322L114.597 468.183L118.157 476.002L247.127 551.942L259.341 552.38L267.674 549.008L274.065 541.371L354.193 369.621L456.063 152.33L458.054 135.97L446.671 122.278L413.577 109.904L407.513 122.972L339.123 91.5037Z" fill="#BFFCEA"/>
<path d="M472.719 131.427L461.076 115.278L453.443 112.046L461.343 127.174L462.715 147.15L374.201 338.176L272.004 550.037L256.438 560.142L265.162 560.455L278.082 555.849L286.155 550.02L362.607 388.102L473.574 151.21L472.719 131.427Z" fill="#009684"/>
<g filter="url(#filter0_di_133_662)">
<path d="M358.619 239.163L363.843 225.192L338.277 255.739L328.589 262.733L317.216 263.199L306.357 259.139L299.635 256.626L296.529 250.746L295.038 243.701L292.91 249.393L294.981 254.886L300.353 265.741L308.109 268.641L318.968 272.701L325.3 271.53L333.246 269.193L358.619 239.163Z" fill="#479C92"/>
<path d="M275.427 201.571L280.65 187.6L255.084 218.147L245.397 225.141L234.024 225.607L223.165 221.547L216.443 219.034L213.337 213.154L213.914 206.882L211.786 212.574L211.789 217.294L217.161 228.149L224.917 231.049L235.776 235.109L242.108 233.938L250.054 231.6L275.427 201.571Z" fill="#479C92"/>
<path d="M236.641 182.351L241.865 168.38L216.299 198.927L206.611 205.921L195.239 206.388L184.38 202.328L177.658 199.814L174.552 193.935L175.129 187.663L173 193.355L173.004 198.074L178.375 208.929L186.132 211.829L196.991 215.889L203.322 214.718L211.269 212.381L236.641 182.351Z" fill="#9B9B9B"/>
<path d="M315.507 223.634L320.73 209.662L295.164 240.209L285.477 247.204L274.104 247.67L263.245 243.61L256.523 241.097L253.417 235.217L253.994 228.945L251.866 234.637L251.869 239.357L257.241 250.212L264.997 253.112L275.856 257.172L282.188 256L290.134 253.663L315.507 223.634Z" fill="#9B9B9B"/>
<path d="M402.649 186.03L435.486 200.666L429.809 212.699L359.393 237.093L364.036 224.674L320.601 208.434L402.649 186.03Z" fill="#70FFEE"/>
<path d="M373.949 172.94L405.235 186.997L324.737 209.981L277.551 191.159L373.949 172.94Z" fill="white"/>
<path d="M337.752 159.407L371.494 173.202L277.552 191.159L235.924 173.236L337.752 159.407Z" fill="#70FFEE"/>
<path d="M300.087 145.091L331.373 159.147L232.647 174.137L189.599 156.862L300.087 145.091Z" fill="white"/>
<path d="M277.635 131.032L306.853 144.315L198.432 156.86L158.352 134.797L277.635 131.032Z" fill="#6CFCEE"/>
<path d="M158.87 134.99L198.82 155.825L186.617 169.546L178.451 180.353L170.024 188.703L157.167 191.563L144.177 188.476L137.581 182.471L133.828 175.17L136.536 166.745L141.312 159.094L149.574 146.849L158.87 134.99Z" fill="#6CFCEE"/>
<path d="M197.082 165.201L202.305 151.23L176.739 181.777L167.052 188.771L155.679 189.238L144.82 185.178L138.098 182.664L134.992 176.785L135.569 170.513L133.441 176.205L133.444 180.924L138.816 191.779L146.572 194.679L157.431 198.739L163.763 197.568L171.709 195.231L197.082 165.201Z" fill="#479C92"/>
<path d="M200.885 153.058L239.928 170.015L226.825 189.297L218.658 200.104L210.232 208.454L200.864 211.44L189.942 209.126L177.789 202.222L174.809 192.851L175.709 186.11L179.451 178.073L188.747 166.214L200.885 153.058Z" fill="#FDFDFD"/>
<path d="M238.636 171.891L278.713 189.234L265.997 207.482L257.83 218.289L248.37 226.252C248.37 226.252 244.034 228.17 241.78 228.507C239.526 228.844 240.941 229.963 229.114 227.31C217.287 224.658 216.961 220.407 216.961 220.407C216.961 220.407 214.049 215.19 213.855 214.527C213.66 213.865 214.108 207.545 214.108 207.545C214.108 207.545 215.946 202.629 220.691 197.031C225.436 191.432 229.987 185.172 229.987 185.172L238.636 171.891Z" fill="#70FFEE"/>
<path d="M278.456 190.318L320.601 208.434L305.429 226.943L297.263 237.75L288.836 246.1L279.469 249.086L266.478 245.998L255.359 239.482L251.606 232.18L253.926 224.791L259.089 216.105L268.386 204.246L278.456 190.318Z" fill="white"/>
<path d="M320.471 208.386L363.519 224.481L347.445 245.011L339.279 255.818L330.852 264.169L321.485 267.154L308.494 264.066L297.375 257.55L294.656 250.635L295.942 242.859L301.105 234.173L309.367 221.928L320.471 208.386Z" fill="#70FFEE"/>
</g>
<path d="M262.797 305.197C300.908 286.921 370.543 297.604 287.094 361.189" stroke="black" stroke-width="3"/>
<path d="M59.6419 345.86C56.708 321.61 75.4603 285.448 94.7783 342.905" stroke="black" stroke-width="3"/>
<path d="M252.52 424.063C271.933 419.442 303.988 438.098 259.654 462.707" stroke="black" stroke-width="3"/>
<g filter="url(#filter1_ii_133_662)">
<path d="M312.051 356.225L272.442 273L152.28 310.644L205.608 420.23L312.051 356.225Z" fill="#6CFCEE"/>
<path d="M132.173 383.338L100.726 325.576L52.0135 339.212L68.0892 406.561L132.173 383.338Z" fill="#6CFCEE"/>
<path d="M198.643 438.859L260.919 417.319L271.036 465.925L274.659 471.998L213.424 503.364L206.438 493.675L198.643 438.859Z" fill="#6CFCEE"/>
</g>
<path d="M65.9826 354.128C62.523 324.329 82.0972 280.202 103.52 350.97" stroke="black" stroke-width="3"/>
<path d="M264.212 295.109C302.322 276.834 371.957 287.517 288.508 351.102" stroke="black" stroke-width="3"/>
<path d="M250.693 427.84C276.961 421.949 318.694 438.812 257.827 466.484" stroke="black" stroke-width="3"/>
<defs>
<filter id="filter0_di_133_662" x="119.44" y="124.032" width="336.046" height="163.669" filterUnits="userSpaceOnUse" color-interpolation-filters="sRGB">
<feFlood flood-opacity="0" result="BackgroundImageFix"/>
<feColorMatrix in="SourceAlpha" type="matrix" values="0 0 0 0 0 0 0 0 0 0 0 0 0 0 0 0 0 0 127 0" result="hardAlpha"/>
<feOffset dx="9" dy="4"/>
<feGaussianBlur stdDeviation="5.5"/>
<feComposite in2="hardAlpha" operator="out"/>
<feColorMatrix type="matrix" values="0 0 0 0 0 0 0 0 0 0 0 0 0 0 0 0 0 0 0.25 0"/>
<feBlend mode="normal" in2="BackgroundImageFix" result="effect1_dropShadow_133_662"/>
<feBlend mode="normal" in="SourceGraphic" in2="effect1_dropShadow_133_662" result="shape"/>
<feColorMatrix in="SourceAlpha" type="matrix" values="0 0 0 0 0 0 0 0 0 0 0 0 0 0 0 0 0 0 127 0" result="hardAlpha"/>
<feOffset dx="-14" dy="2"/>
<feGaussianBlur stdDeviation="10"/>
<feComposite in2="hardAlpha" operator="arithmetic" k2="-1" k3="1"/>
<feColorMatrix type="matrix" values="0 0 0 0 0 0 0 0 0 0 0 0 0 0 0 0 0 0 0.25 0"/>
<feBlend mode="normal" in2="shape" result="effect2_innerShadow_133_662"/>
</filter>
<filter id="filter1_ii_133_662" x="43.0137" y="263" width="278.037" height="247.364" filterUnits="userSpaceOnUse" color-interpolation-filters="sRGB">
<feFlood flood-opacity="0" result="BackgroundImageFix"/>
<feBlend mode="normal" in="SourceGraphic" in2="BackgroundImageFix" result="shape"/>
<feColorMatrix in="SourceAlpha" type="matrix" values="0 0 0 0 0 0 0 0 0 0 0 0 0 0 0 0 0 0 127 0" result="hardAlpha"/>
<feOffset dx="-9" dy="-10"/>
<feGaussianBlur stdDeviation="7.5"/>
<feComposite in2="hardAlpha" operator="arithmetic" k2="-1" k3="1"/>
<feColorMatrix type="matrix" values="0 0 0 0 0 0 0 0 0 0 0 0 0 0 0 0 0 0 0.43 0"/>
<feBlend mode="normal" in2="shape" result="effect1_innerShadow_133_662"/>
<feColorMatrix in="SourceAlpha" type="matrix" values="0 0 0 0 0 0 0 0 0 0 0 0 0 0 0 0 0 0 127 0" result="hardAlpha"/>
<feOffset dx="9" dy="7"/>
<feGaussianBlur stdDeviation="9.5"/>
<feComposite in2="hardAlpha" operator="arithmetic" k2="-1" k3="1"/>
<feColorMatrix type="matrix" values="0 0 0 0 0 0 0 0 0 0 0 0 0 0 0 0 0 0 0.25 0"/>
<feBlend mode="normal" in2="effect1_innerShadow_133_662" result="effect2_innerShadow_133_662"/>
</filter>
</defs>
</svg>
